<svg width="18" height="19" viewBox="0 0 18 19" fill="none" xmlns="http://www.w3.org/2000/svg">
<path fill-rule="evenodd" clip-rule="evenodd" d="M13.152 0.261835C14.5104 -0.0168128 15.7037 -0.0137648 16.2701 0.00985922C16.7723 0.0307992 17.1712 0.429647 17.1921 0.931823C17.2157 1.49827 17.2188 2.69155 16.9401 4.04992C16.7757 4.85124 15.8125 5.0684 15.281 4.53696L14.5145 3.7704C14.2873 3.97572 13.9803 4.25776 13.629 4.59248C12.8728 5.31292 11.9238 6.26528 11.1236 7.21596C10.4428 8.02476 9.13676 8.01916 8.4974 7.12436C8.15372 6.6434 7.70728 6.03848 7.23848 5.456C6.34488 6.0676 4.48952 7.4752 2.40381 9.86036C2.27453 10.0082 2.14436 10.1598 2.01348 10.3152C1.72887 10.6532 1.22418 10.6964 0.886239 10.4118C0.548295 10.1272 0.505063 9.62248 0.789679 9.28456C0.926995 9.12148 1.06361 8.9624 1.19935 8.80716C3.43508 6.25036 5.4338 4.74624 6.3964 4.09364C7.06968 3.6372 7.95284 3.79452 8.44664 4.40536C8.95556 5.03488 9.4362 5.68616 9.7992 6.19416C9.80264 6.19892 9.80536 6.20104 9.8094 6.20312C9.8148 6.20584 9.8248 6.2092 9.8388 6.2096C9.86896 6.21044 9.88872 6.19844 9.89956 6.1856C10.7538 5.17076 11.75 4.17268 12.5254 3.43404C12.8585 3.11664 13.1532 2.84492 13.3817 2.63766L12.665 1.92094C12.1336 1.38948 12.3507 0.426219 13.152 0.261835Z" fill="white"/>
<path fill-rule="evenodd" clip-rule="evenodd" d="M12.9054 16.5903C12.8527 15.8657 12.8 14.5745 12.8 12.3C12.8 10.0255 12.8527 8.73432 12.9054 8.00968C12.964 7.20576 13.5513 6.57848 14.3862 6.52736C14.652 6.51112 14.9852 6.5 15.4 6.5C15.8148 6.5 16.148 6.51112 16.4138 6.52736C17.2487 6.57848 17.836 7.20576 17.8946 8.00968C17.9473 8.73432 18 10.0255 18 12.3C18 14.5745 17.9473 15.8657 17.8946 16.5903C17.836 17.3942 17.2487 18.0215 16.4138 18.0726C16.148 18.0889 15.8148 18.1 15.4 18.1C14.9852 18.1 14.652 18.0889 14.3862 18.0726C13.5513 18.0215 12.964 17.3942 12.9054 16.5903ZM0.067412 16.808C0.029144 16.4306 0 15.8863 0 15.1C0 14.3137 0.029144 13.7694 0.067412 13.392C0.148148 12.5956 0.786928 12.1395 1.4865 12.116C1.76136 12.1068 2.12508 12.1 2.6 12.1C3.07492 12.1 3.43864 12.1068 3.71348 12.116C4.41308 12.1395 5.05184 12.5956 5.1326 13.392C5.17084 13.7694 5.2 14.3137 5.2 15.1C5.2 15.8863 5.17084 16.4306 5.1326 16.808C5.05184 17.6044 4.41308 18.0605 3.71348 18.084C3.43864 18.0932 3.07492 18.1 2.6 18.1C2.12508 18.1 1.76136 18.0932 1.4865 18.084C0.786932 18.0605 0.148148 17.6044 0.067412 16.808ZM6.4 13.9C6.4 15.2646 6.43944 16.1256 6.485 16.667C6.55392 17.4861 7.18112 18.0455 7.9734 18.0802C8.23868 18.0919 8.57568 18.1 9 18.1C9.42432 18.1 9.76132 18.0919 10.0266 18.0802C10.8189 18.0455 11.4461 17.4861 11.515 16.667C11.5606 16.1256 11.6 15.2646 11.6 13.9C11.6 12.5354 11.5606 11.6744 11.515 11.133C11.4461 10.3139 10.8189 9.75452 10.0266 9.71976C9.76132 9.70812 9.42432 9.7 9 9.7C8.57568 9.7 8.23868 9.70812 7.9734 9.71976C7.18112 9.75452 6.55392 10.3139 6.485 11.133C6.43944 11.6744 6.4 12.5354 6.4 13.9Z" fill="#61616C"/>
</svg>
