<svg width="800" height="800" viewBox="0 0 800 800" fill="none" xmlns="http://www.w3.org/2000/svg">
<path d="M166.667 566.667H633.333C688.667 566.667 733.333 522 733.333 466.667V333.333C733.333 278 688.667 233.333 633.333 233.333H166.667C111.333 233.333 66.667 278 66.667 333.333V466.667C66.667 522 111.333 566.667 166.667 566.667Z" fill="#61616C"/>
<path d="M399 437H179.352C155.653 437 136 420 136 399.5C136 379 155.653 362 179.352 362H399V437Z" fill="white"/>
<path d="M400 437H619.648C643.347 437 663 420 663 399.5C663 379 643.347 362 619.648 362H400V437Z" fill="white"/>
</svg>
