<svg width="18" height="14" viewBox="0 0 18 14" fill="none" xmlns="http://www.w3.org/2000/svg">
<path d="M14.25 0H3.75C2.7558 0.00119089 1.80267 0.396662 1.09966 1.09967C0.396661 1.80267 0.00119089 2.7558 0 3.75H18C17.9988 2.7558 17.6033 1.80267 16.9003 1.09967C16.1973 0.396662 15.2442 0.00119089 14.25 0Z" fill="white"/>
<path d="M0 9.75C0.00119089 10.7442 0.396661 11.6973 1.09966 12.4003C1.80267 13.1033 2.7558 13.4988 3.75 13.5H14.25C15.2442 13.4988 16.1973 13.1033 16.9003 12.4003C17.6033 11.6973 17.9988 10.7442 18 9.75V5.25H0V9.75ZM5.25 9.375C5.25 9.5975 5.18402 9.81501 5.0604 10C4.93679 10.185 4.76109 10.3292 4.55552 10.4144C4.34995 10.4995 4.12375 10.5218 3.90552 10.4784C3.68729 10.435 3.48684 10.3278 3.3295 10.1705C3.17217 10.0132 3.06502 9.81271 3.02162 9.59448C2.97821 9.37625 3.00049 9.15005 3.08564 8.94448C3.17078 8.73891 3.31498 8.56321 3.49998 8.4396C3.68499 8.31598 3.9025 8.25 4.125 8.25C4.42337 8.25 4.70952 8.36853 4.9205 8.5795C5.13147 8.79048 5.25 9.07663 5.25 9.375Z" fill="#61616C"/>
</svg>
