<svg width="12" height="7" viewBox="0 0 12 7" fill="none" xmlns="http://www.w3.org/2000/svg">
<path d="M0.273438 0.274999C0.456772 0.0916658 0.690104 -4.57148e-07 0.973437 -4.44763e-07C1.25677 -4.32378e-07 1.4901 0.0916659 1.67344 0.274999L5.57344 4.175L9.47344 0.275C9.65677 0.0916662 9.8901 -5.50035e-08 10.1734 -4.26186e-08C10.4568 -3.02337e-08 10.6901 0.0916663 10.8734 0.275C11.0568 0.458333 11.1484 0.691666 11.1484 0.974999C11.1484 1.25833 11.0568 1.49167 10.8734 1.675L6.27344 6.275C6.17344 6.375 6.0651 6.446 5.94844 6.488C5.83177 6.53 5.70677 6.55067 5.57344 6.55C5.4401 6.55 5.3151 6.529 5.19844 6.487C5.08177 6.445 4.97344 6.37433 4.87344 6.275L0.273438 1.675C0.090105 1.49167 -0.00156313 1.25833 -0.00156311 0.974999C-0.0015631 0.691666 0.090105 0.458332 0.273438 0.274999Z" fill="white"/>
</svg>
