<svg width="13" height="12" viewBox="0 0 13 12" fill="none" xmlns="http://www.w3.org/2000/svg">
<path d="M6.27188 10.875C6.45521 10.6917 6.54688 10.4583 6.54688 10.175C6.54688 9.89167 6.45521 9.65833 6.27188 9.475L2.37187 5.575L6.27188 1.675C6.45521 1.49167 6.54688 1.25833 6.54688 0.975C6.54688 0.691667 6.45521 0.458333 6.27188 0.275C6.08854 0.0916663 5.85521 0 5.57188 0C5.28854 0 5.05521 0.0916663 4.87187 0.275L0.271875 4.875C0.171875 4.975 0.100875 5.08333 0.0588751 5.2C0.0168753 5.31667 -0.00379181 5.44167 -0.00312519 5.575C-0.00312519 5.70833 0.0178757 5.83333 0.0598755 5.95C0.101875 6.06667 0.172542 6.175 0.271875 6.275L4.87187 10.875C5.05521 11.0583 5.28854 11.15 5.57188 11.15C5.85521 11.15 6.08854 11.0583 6.27188 10.875Z" fill="#A1A5B7"/>
<path d="M12.2719 10.875C12.4552 10.6917 12.5469 10.4583 12.5469 10.175C12.5469 9.89167 12.4552 9.65833 12.2719 9.475L8.37187 5.575L12.2719 1.675C12.4552 1.49167 12.5469 1.25833 12.5469 0.975C12.5469 0.691667 12.4552 0.458333 12.2719 0.275C12.0885 0.0916663 11.8552 0 11.5719 0C11.2885 0 11.0552 0.0916663 10.8719 0.275L6.27188 4.875C6.17188 4.975 6.10087 5.08333 6.05888 5.2C6.01688 5.31667 5.99621 5.44167 5.99687 5.575C5.99687 5.70833 6.01788 5.83333 6.05988 5.95C6.10188 6.06667 6.17254 6.175 6.27188 6.275L10.8719 10.875C11.0552 11.0583 11.2885 11.15 11.5719 11.15C11.8552 11.15 12.0885 11.0583 12.2719 10.875Z" fill="#D0D2DB"/>
</svg>
