<svg width="18" height="18" viewBox="0 0 18 18" fill="none" xmlns="http://www.w3.org/2000/svg">
<path d="M0 2.57143C0 1.15127 1.15127 0 2.57143 0H5.14286C6.56302 0 7.71429 1.15127 7.71429 2.57143V5.14286C7.71429 6.56302 6.56302 7.71429 5.14286 7.71429H2.57143C1.15127 7.71429 0 6.56302 0 5.14286V2.57143ZM2.57143 1.28571C1.86135 1.28571 1.28571 1.86135 1.28571 2.57143V5.14286C1.28571 5.85293 1.86135 6.42857 2.57143 6.42857H5.14286C5.85293 6.42857 6.42857 5.85293 6.42857 5.14286V2.57143C6.42857 1.86135 5.85293 1.28571 5.14286 1.28571H2.57143Z" fill="#61616C"/>
<path d="M2.57031 2.57031H5.14174V5.14174H2.57031V2.57031Z" fill="#61616C"/>
<path d="M0 12.8605C0 11.4403 1.15127 10.2891 2.57143 10.2891H5.14286C6.56302 10.2891 7.71429 11.4403 7.71429 12.8605V15.4319C7.71429 16.8521 6.56302 18.0033 5.14286 18.0033H2.57143C1.15127 18.0033 0 16.8521 0 15.4319V12.8605ZM2.57143 11.5748C1.86135 11.5748 1.28571 12.1504 1.28571 12.8605V15.4319C1.28571 16.142 1.86135 16.7176 2.57143 16.7176H5.14286C5.85293 16.7176 6.42857 16.142 6.42857 15.4319V12.8605C6.42857 12.1504 5.85293 11.5748 5.14286 11.5748H2.57143Z" fill="#61616C"/>
<path d="M2.57031 12.8594H5.14174V15.4308H2.57031V12.8594Z" fill="#61616C"/>
<path d="M10.2891 2.57143C10.2891 1.15127 11.4403 0 12.8605 0H15.4319C16.8521 0 18.0033 1.15127 18.0033 2.57143V5.14286C18.0033 6.56302 16.8521 7.71429 15.4319 7.71429H12.8605C11.4403 7.71429 10.2891 6.56302 10.2891 5.14286V2.57143ZM12.8605 1.28571C12.1504 1.28571 11.5748 1.86135 11.5748 2.57143V5.14286C11.5748 5.85293 12.1504 6.42857 12.8605 6.42857H15.4319C16.142 6.42857 16.7176 5.85293 16.7176 5.14286V2.57143C16.7176 1.86135 16.142 1.28571 15.4319 1.28571H12.8605Z" fill="#61616C"/>
<path d="M10 12.5714C10 11.1513 11.1512 10 12.5714 10H15.1429C16.5631 10 17.7143 11.1513 17.7143 12.5714V15.1429C17.7143 16.563 16.5631 17.7143 15.1429 17.7143H12.5714C11.1512 17.7143 10 16.563 10 15.1429V12.5714ZM10.5 16C9.7899 16 11.2857 11.8614 11.2857 12.5714V15.1429C11.2857 15.8529 11.8613 16.4286 12.5714 16.4286H15.1429C15.853 16.4286 17 16.2101 17 15.5V16L16 17C16 16.2899 12.7101 17 12 17L10.5 16Z" fill="white"/>
<path d="M12.8594 2.57031H15.4308V5.14174H12.8594V2.57031Z" fill="#61616C"/>
<path d="M14 11.5C14.3452 11.5 14.625 11.7798 14.625 12.125V13.375H15.875C16.2202 13.375 16.5 13.6548 16.5 14C16.5 14.3452 16.2202 14.625 15.875 14.625H14.625V15.875C14.625 16.2202 14.3452 16.5 14 16.5C13.6548 16.5 13.375 16.2202 13.375 15.875V14.625H12.125C11.7798 14.625 11.5 14.3452 11.5 14C11.5 13.6548 11.7798 13.375 12.125 13.375H13.375V12.125C13.375 11.7798 13.6548 11.5 14 11.5Z" fill="#1E1E2D"/>
</svg>
