<svg width="18" height="18" viewBox="0 0 18 18" fill="none" xmlns="http://www.w3.org/2000/svg">
<path fill-rule="evenodd" clip-rule="evenodd" d="M0.544762 9.68495H7.5613C7.86101 9.68495 8.10606 9.97631 8.10606 10.3319V17.1438C8.10606 17.4999 7.86116 17.791 7.5613 17.791H0.544762C0.245341 17.791 0 17.4999 0 17.1438V10.3319C0 9.97631 0.245341 9.68495 0.544762 9.68495ZM10.4293 0H17.446C17.7459 0 17.9908 0.291067 17.9908 0.64706V7.459C17.9908 7.81499 17.7459 8.10577 17.446 8.10577H10.4293C10.1296 8.10577 9.885 7.81499 9.885 7.459V0.64706C9.885 0.291067 10.1296 0 10.4293 0ZM10.4386 9.85759H17.4552C17.7547 9.85759 18 10.1487 18 10.5048V17.3167C18 17.6723 17.7547 17.9634 17.4552 17.9634H10.4386C10.1388 17.9634 9.89379 17.6723 9.89379 17.3167V10.5048C9.89379 10.1487 10.1388 9.85759 10.4386 9.85759Z" fill="#61616C"/>
<path fill-rule="evenodd" clip-rule="evenodd" d="M0.544322 0H7.5613C7.86101 0 8.10606 0.291067 8.10606 0.64706V7.459C8.10606 7.81499 7.86116 8.10577 7.5613 8.10577H0.544322C0.244901 8.10577 0 7.81499 0 7.459V0.64706C0 0.291067 0.244901 0 0.544322 0Z" fill="white"/>
</svg>
