<svg width="18" height="19" viewBox="0 0 900 900" fill="none" xmlns="http://www.w3.org/2000/svg">
<path d="M133.029 488.663L82.3623 437.997C61.6956 417.33 61.6956 383.33 82.3623 362.663L133.029 311.997C141.695 303.33 148.695 286.33 148.695 274.33V202.664C148.695 173.331 172.696 149.33 202.029 149.33H273.695C285.695 149.33 302.695 142.331 311.362 133.664L362.027 82.9966C382.694 62.3299 416.697 62.3299 437.364 82.9966L488.03 133.664C496.697 142.331 513.694 149.33 525.694 149.33H597.364C626.697 149.33 650.694 173.331 650.694 202.664V274.33C650.694 286.33 657.694 303.33 666.36 311.997L717.03 362.663C737.697 383.33 737.697 417.33 717.03 437.997L666.36 488.663C657.694 497.33 650.694 514.33 650.694 526.33V597.997C650.694 627.33 626.697 651.33 597.364 651.33H525.694C513.694 651.33 496.697 658.33 488.03 666.997L437.364 717.663C416.697 738.33 382.694 738.33 362.027 717.663L311.362 666.997C302.695 658.33 285.695 651.33 273.695 651.33H202.029C172.696 651.33 148.695 627.33 148.695 597.997V526.33C148.695 513.997 141.695 496.997 133.029 488.663Z" fill="#61616C"/>
<path d="M500.007 533.333C481.34 533.333 466.34 518.333 466.34 500C466.34 481.667 481.34 466.667 499.673 466.667C518.007 466.667 533.007 481.667 533.007 500C533.007 518.333 518.34 533.333 500.007 533.333Z" fill="white"/>
<path d="M300.334 333.333C281.667 333.333 266.667 318.333 266.667 300C266.667 281.667 281.667 266.667 300 266.667C318.334 266.667 333.334 281.667 333.334 300C333.334 318.333 318.667 333.333 300.334 333.333Z" fill="white"/>
<path d="M299.982 525C293.649 525 287.315 522.667 282.315 517.667C272.649 508 272.649 491.997 282.315 482.33L482.317 282.332C491.984 272.665 507.984 272.665 517.65 282.332C527.317 291.998 527.317 308 517.65 317.667L317.649 517.667C312.649 522.667 306.315 525 299.982 525Z" fill="white"/>
</svg>
