<svg width="18" height="17" viewBox="0 0 18 17" fill="none" xmlns="http://www.w3.org/2000/svg">
<path d="M16.7143 0H1.28571C0.575634 0 0 0.575634 0 1.28571V1.92857C0 2.63865 0.575634 3.21429 1.28571 3.21429H16.7143C17.4244 3.21429 18 2.63865 18 1.92857V1.28571C18 0.575634 17.4244 0 16.7143 0Z" fill="white"/>
<path d="M1.70598 4.5C1.66081 4.49976 1.61609 4.50904 1.57475 4.52724C1.53341 4.54543 1.49637 4.57214 1.46604 4.60562C1.43571 4.63909 1.41278 4.67858 1.39874 4.72151C1.3847 4.76445 1.37986 4.80986 1.38455 4.85478L2.44165 15.0023C2.44143 15.0052 2.44143 15.0082 2.44165 15.0111C2.49688 15.4805 2.72252 15.9132 3.07575 16.2272C3.42897 16.5411 3.88517 16.7145 4.35776 16.7143H13.6426C14.1151 16.7143 14.5711 16.5408 14.9241 16.2269C15.2772 15.913 15.5027 15.4803 15.5579 15.0111V15.0027L16.6134 4.85478C16.6181 4.80986 16.6133 4.76445 16.5992 4.72151C16.5852 4.67858 16.5623 4.63909 16.5319 4.60562C16.5016 4.57214 16.4646 4.54543 16.4232 4.52724C16.3819 4.50904 16.3372 4.49976 16.292 4.5H1.70598ZM11.7048 11.7599C11.7659 11.8193 11.8146 11.8902 11.8481 11.9686C11.8815 12.0469 11.8991 12.1312 11.8997 12.2164C11.9003 12.3016 11.8839 12.3861 11.8516 12.4649C11.8193 12.5437 11.7716 12.6154 11.7113 12.6756C11.651 12.7358 11.5794 12.7835 11.5005 12.8158C11.4217 12.8481 11.3372 12.8644 11.252 12.8638C11.1668 12.8631 11.0826 12.8456 11.0042 12.8121C10.9258 12.7786 10.8549 12.7299 10.7956 12.6687L9.0004 10.8735L7.20482 12.6687C7.0837 12.7864 6.92115 12.8517 6.75228 12.8505C6.58342 12.8493 6.4218 12.7817 6.30237 12.6623C6.18293 12.5429 6.11527 12.3814 6.114 12.2125C6.11273 12.0436 6.17795 11.881 6.29557 11.7599L8.09116 9.96429L6.29557 8.16871C6.17795 8.04754 6.11273 7.88496 6.114 7.7161C6.11527 7.54723 6.18293 7.38565 6.30237 7.26627C6.4218 7.14688 6.58342 7.07929 6.75228 7.07809C6.92115 7.0769 7.0837 7.14219 7.20482 7.25987L9.0004 9.05505L10.7956 7.25987C10.9167 7.14219 11.0792 7.0769 11.2481 7.07809C11.417 7.07929 11.5786 7.14688 11.698 7.26627C11.8175 7.38565 11.8851 7.54723 11.8864 7.7161C11.8877 7.88496 11.8224 8.04754 11.7048 8.16871L9.90924 9.96429L11.7048 11.7599Z" fill="#61616C"/>
</svg>
