<svg width="18" height="16" viewBox="0 0 18 16" fill="none" xmlns="http://www.w3.org/2000/svg">
<path d="M8.99854 0C7.57981 0 6.42969 1.15012 6.42969 2.56887C6.42969 3.9876 7.57981 5.13773 8.99854 5.13773C10.4173 5.13773 11.5674 3.9876 11.5674 2.56887C11.5674 1.15012 10.4173 0 8.99854 0Z" fill="white"/>
<path d="M14.7879 1.28906C13.7229 1.28906 12.8594 2.15251 12.8594 3.21763C12.8594 4.28276 13.7229 5.14621 14.7879 5.14621C15.853 5.14621 16.7165 4.28276 16.7165 3.21763C16.7165 2.15251 15.853 1.28906 14.7879 1.28906Z" fill="#61616C"/>
<path d="M3.21763 1.28906C2.15251 1.28906 1.28906 2.15251 1.28906 3.21763C1.28906 4.28276 2.15251 5.14621 3.21763 5.14621C4.28276 5.14621 5.14621 4.28276 5.14621 3.21763C5.14621 2.15251 4.28276 1.28906 3.21763 1.28906Z" fill="#61616C"/>
<path d="M5.14065 7.7071C5.14513 7.00084 5.71903 6.42969 6.42634 6.42969H11.5692C12.2793 6.42969 12.8549 7.00533 12.8549 7.71541V11.5729C12.8549 11.706 12.8482 11.8377 12.835 11.9673C12.8071 12.2425 12.7501 12.5092 12.6675 12.7643C12.1655 14.3115 10.7123 15.4301 8.99777 15.4301C7.26694 15.4301 5.80238 14.29 5.31403 12.7199C5.20134 12.3576 5.14062 11.9724 5.14062 11.5729V7.7154C5.14062 7.71264 5.14064 7.70986 5.14065 7.7071Z" fill="white"/>
<path d="M3.85714 7.7154C3.85714 7.24704 3.98236 6.80792 4.20115 6.42969H1.28571C0.57564 6.42969 0 7.00533 0 7.7154V10.9301C0 12.7053 1.43909 14.1444 3.21429 14.1444C3.64001 14.1444 4.04641 14.0616 4.41827 13.9113C4.05951 13.2098 3.85714 12.415 3.85714 11.5729V7.7154Z" fill="#61616C"/>
<path d="M14.1392 7.71541V11.5729C14.1392 12.415 13.9368 13.2098 13.5781 13.9113C13.95 14.0616 14.3564 14.1444 14.7821 14.1444C16.5573 14.1444 17.9964 12.7053 17.9964 10.9301V7.7154C17.9964 7.00533 17.4207 6.42969 16.7106 6.42969H13.7952C14.014 6.80792 14.1392 7.24704 14.1392 7.71541Z" fill="#61616C"/>
</svg>
