<svg width="149" height="150" viewBox="0 0 149 150" fill="none" xmlns="http://www.w3.org/2000/svg">
<path d="M94.6021 134.724C94.6021 134.724 91.066 143.776 84.0646 150C84.0646 150 97.9967 146.464 117.657 134.724H126.356C133.074 134.724 138.732 129.632 139.439 122.914L148.775 33.734C149.553 26.0961 143.541 19.3776 135.833 19.3776H13.3432C5.63455 19.3776 -0.376779 26.0254 0.401156 33.734L9.59494 122.065C10.3022 128.713 15.8184 133.805 22.537 133.875L94.6021 134.724Z" fill="#CFD5FF"/>
<path d="M130.67 50.0707L75.224 0L19.637 50.0707H130.67Z" fill="url(#paint0_linear_1_5500)"/>
<path d="M130.671 50.0708H19.7796L76.9932 107.355L130.671 50.0708Z" fill="#FDB102"/>
<path d="M120.345 91.9378H29.892V9.47671C29.892 7.28434 31.66 5.44559 33.9231 5.44559H96.8652L120.345 27.2278V91.9378Z" fill="#F4F4F4"/>
<path d="M19.636 50.0708V113.154L60.6544 86.563L19.636 50.0708Z" fill="url(#paint1_linear_1_5500)"/>
<path d="M75.0816 77.1572L19.636 113.154H130.669L75.0816 77.1572Z" fill="url(#paint2_linear_1_5500)"/>
<path d="M130.669 50.0709V113.154L89.6507 86.5631L130.669 50.0709Z" fill="url(#paint3_linear_1_5500)"/>
<path d="M96.865 5.44556L120.344 27.2277H99.1988C97.8551 27.2277 96.7943 26.1669 96.7943 24.8232V5.44556H96.865Z" fill="#EDEDED"/>
<path d="M68.651 19.683C69.1978 19.683 69.641 20.1262 69.641 20.673C69.641 21.2198 69.1978 21.663 68.651 21.663C68.1042 21.663 67.661 21.2198 67.661 20.673C67.661 20.1262 68.1042 19.683 68.651 19.683Z" fill="black"/>
<path d="M72.6122 19.683C73.159 19.683 73.6022 20.1262 73.6022 20.673C73.6022 21.2198 73.159 21.663 72.6122 21.663C72.0654 21.663 71.6222 21.2198 71.6222 20.673C71.6222 20.1262 72.0654 19.683 72.6122 19.683Z" fill="black"/>
<path d="M82.5116 19.683C83.0584 19.683 83.5016 20.1262 83.5016 20.673C83.5016 21.2198 83.0584 21.663 82.5116 21.663C81.9648 21.663 81.5216 21.2198 81.5216 20.673C81.5216 20.1262 81.9648 19.683 82.5116 19.683Z" fill="black"/>
<path d="M68.651 21.6631C69.1978 21.6631 69.641 22.1064 69.641 22.6531C69.641 23.1999 69.1978 23.6431 68.651 23.6431C68.1042 23.6431 67.661 23.1999 67.661 22.6531C67.661 22.1064 68.1042 21.6631 68.651 21.6631Z" fill="black"/>
<path d="M72.6122 21.6632C73.159 21.6632 73.6022 22.1064 73.6022 22.6532C73.6022 23.2 73.159 23.6432 72.6122 23.6432C72.0654 23.6432 71.6222 23.2 71.6222 22.6532C71.6222 22.1064 72.0654 21.6632 72.6122 21.6632Z" fill="black"/>
<path d="M80.5311 21.6632C81.0779 21.6632 81.5211 22.1064 81.5211 22.6532C81.5211 23.2 81.0779 23.6432 80.5311 23.6432C79.9844 23.6432 79.5411 23.2 79.5411 22.6532C79.5411 22.1064 79.9844 21.6632 80.5311 21.6632Z" fill="black"/>
<path d="M66.6706 23.6429C67.2174 23.6429 67.6607 24.0861 67.6607 24.6329C67.6607 25.1797 67.2174 25.6229 66.6706 25.6229C66.1239 25.6229 65.6806 25.1797 65.6806 24.6329C65.6806 24.0861 66.1239 23.6429 66.6706 23.6429Z" fill="black"/>
<path d="M70.6317 23.6432C71.1785 23.6432 71.6217 24.0864 71.6217 24.6332C71.6217 25.18 71.1785 25.6232 70.6317 25.6232C70.0849 25.6232 69.6417 25.18 69.6417 24.6332C69.6417 24.0864 70.0849 23.6432 70.6317 23.6432Z" fill="black"/>
<path d="M78.5516 23.6432C79.0984 23.6432 79.5416 24.0864 79.5416 24.6332C79.5416 25.18 79.0984 25.6232 78.5516 25.6232C78.0049 25.6232 77.5616 25.18 77.5616 24.6332C77.5616 24.0864 78.0049 23.6432 78.5516 23.6432Z" fill="black"/>
<path d="M82.5116 23.6429C83.0584 23.6429 83.5016 24.0862 83.5016 24.6329C83.5016 25.1797 83.0584 25.6229 82.5116 25.6229C81.9648 25.6229 81.5216 25.1797 81.5216 24.6329C81.5216 24.0862 81.9648 23.6429 82.5116 23.6429Z" fill="black"/>
<path d="M66.6706 25.6232C67.2174 25.6232 67.6607 26.0664 67.6607 26.6132C67.6607 27.16 67.2174 27.6032 66.6706 27.6032C66.1239 27.6032 65.6806 27.16 65.6806 26.6132C65.6806 26.0664 66.1239 25.6232 66.6706 25.6232Z" fill="black"/>
<path d="M68.651 25.623C69.1978 25.623 69.641 26.0663 69.641 26.613C69.641 27.1598 69.1978 27.603 68.651 27.603C68.1042 27.603 67.661 27.1598 67.661 26.613C67.661 26.0663 68.1042 25.623 68.651 25.623Z" fill="black"/>
<path d="M70.6317 25.6229C71.1785 25.6229 71.6217 26.0661 71.6217 26.6129C71.6217 27.1597 71.1785 27.6029 70.6317 27.6029C70.0849 27.6029 69.6417 27.1597 69.6417 26.6129C69.6417 26.0661 70.0849 25.6229 70.6317 25.6229Z" fill="black"/>
<path d="M76.5712 25.6231C77.118 25.6231 77.5612 26.0664 77.5612 26.6132C77.5612 27.1599 77.118 27.6032 76.5712 27.6032C76.0244 27.6032 75.5811 27.1599 75.5811 26.6132C75.5811 26.0664 76.0244 25.6231 76.5712 25.6231Z" fill="black"/>
<path d="M78.5516 25.6229C79.0984 25.6229 79.5416 26.0661 79.5416 26.6129C79.5416 27.1597 79.0984 27.6029 78.5516 27.6029C78.0049 27.6029 77.5616 27.1597 77.5616 26.6129C77.5616 26.0661 78.0049 25.6229 78.5516 25.6229Z" fill="black"/>
<path d="M66.6706 27.6032C67.2174 27.6032 67.6607 28.0464 67.6607 28.5932C67.6607 29.14 67.2174 29.5832 66.6706 29.5832C66.1239 29.5832 65.6806 29.14 65.6806 28.5932C65.6806 28.0464 66.1239 27.6032 66.6706 27.6032Z" fill="black"/>
<path d="M74.5916 27.6033C75.1384 27.6033 75.5816 28.0466 75.5816 28.5933C75.5816 29.1401 75.1384 29.5834 74.5916 29.5834C74.0448 29.5834 73.6016 29.1401 73.6016 28.5933C73.6016 28.0466 74.0448 27.6033 74.5916 27.6033Z" fill="black"/>
<path d="M78.5516 27.6029C79.0984 27.6029 79.5416 28.0461 79.5416 28.5929C79.5416 29.1397 79.0984 29.5829 78.5516 29.5829C78.0049 29.5829 77.5616 29.1397 77.5616 28.5929C77.5616 28.0461 78.0049 27.6029 78.5516 27.6029Z" fill="black"/>
<path d="M66.6706 29.5831C67.2174 29.5831 67.6607 30.0264 67.6607 30.5731C67.6607 31.1199 67.2174 31.5632 66.6706 31.5632C66.1239 31.5632 65.6806 31.1199 65.6806 30.5731C65.6806 30.0264 66.1239 29.5831 66.6706 29.5831Z" fill="black"/>
<path d="M68.651 29.5831C69.1978 29.5831 69.641 30.0264 69.641 30.5731C69.641 31.1199 69.1978 31.5632 68.651 31.5632C68.1042 31.5632 67.661 31.1199 67.661 30.5731C67.661 30.0264 68.1042 29.5831 68.651 29.5831Z" fill="black"/>
<path d="M70.6317 29.5831C71.1785 29.5831 71.6217 30.0263 71.6217 30.5731C71.6217 31.1199 71.1785 31.5631 70.6317 31.5631C70.0849 31.5631 69.6417 31.1199 69.6417 30.5731C69.6417 30.0263 70.0849 29.5831 70.6317 29.5831Z" fill="black"/>
<path d="M78.5516 29.5831C79.0984 29.5831 79.5416 30.0263 79.5416 30.5731C79.5416 31.1199 79.0984 31.5631 78.5516 31.5631C78.0049 31.5631 77.5616 31.1199 77.5616 30.5731C77.5616 30.0263 78.0049 29.5831 78.5516 29.5831Z" fill="black"/>
<path d="M80.5311 29.5831C81.0779 29.5831 81.5211 30.0263 81.5211 30.5731C81.5211 31.1199 81.0779 31.5631 80.5311 31.5631C79.9844 31.5631 79.5411 31.1199 79.5411 30.5731C79.5411 30.0263 79.9844 29.5831 80.5311 29.5831Z" fill="black"/>
<path d="M82.5116 29.5833C83.0584 29.5833 83.5016 30.0266 83.5016 30.5734C83.5016 31.1202 83.0584 31.5634 82.5116 31.5634C81.9648 31.5634 81.5216 31.1202 81.5216 30.5734C81.5216 30.0266 81.9648 29.5833 82.5116 29.5833Z" fill="black"/>
<path d="M66.6706 31.5631C67.2174 31.5631 67.6607 32.0063 67.6607 32.5531C67.6607 33.0999 67.2174 33.5431 66.6706 33.5431C66.1239 33.5431 65.6806 33.0999 65.6806 32.5531C65.6806 32.0063 66.1239 31.5631 66.6706 31.5631Z" fill="black"/>
<path d="M70.6317 31.5633C71.1785 31.5633 71.6217 32.0066 71.6217 32.5533C71.6217 33.1001 71.1785 33.5434 70.6317 33.5434C70.0849 33.5434 69.6417 33.1001 69.6417 32.5533C69.6417 32.0066 70.0849 31.5633 70.6317 31.5633Z" fill="black"/>
<path d="M74.5916 31.5631C75.1384 31.5631 75.5816 32.0064 75.5816 32.5532C75.5816 33.1 75.1384 33.5432 74.5916 33.5432C74.0448 33.5432 73.6016 33.1 73.6016 32.5532C73.6016 32.0064 74.0448 31.5631 74.5916 31.5631Z" fill="black"/>
<path d="M78.5516 31.5633C79.0984 31.5633 79.5416 32.0066 79.5416 32.5533C79.5416 33.1001 79.0984 33.5434 78.5516 33.5434C78.0049 33.5434 77.5616 33.1001 77.5616 32.5533C77.5616 32.0066 78.0049 31.5633 78.5516 31.5633Z" fill="black"/>
<path d="M82.5116 31.5633C83.0584 31.5633 83.5016 32.0066 83.5016 32.5533C83.5016 33.1001 83.0584 33.5434 82.5116 33.5434C81.9648 33.5434 81.5216 33.1001 81.5216 32.5533C81.5216 32.0066 81.9648 31.5633 82.5116 31.5633Z" fill="black"/>
<path d="M66.6706 33.543C67.2174 33.543 67.6607 33.9863 67.6607 34.533C67.6607 35.0798 67.2174 35.5231 66.6706 35.5231C66.1239 35.5231 65.6806 35.0798 65.6806 34.533C65.6806 33.9863 66.1239 33.543 66.6706 33.543Z" fill="black"/>
<path d="M70.6317 33.5433C71.1785 33.5433 71.6217 33.9866 71.6217 34.5333C71.6217 35.0801 71.1785 35.5233 70.6317 35.5233C70.0849 35.5233 69.6417 35.0801 69.6417 34.5333C69.6417 33.9866 70.0849 33.5433 70.6317 33.5433Z" fill="black"/>
<path d="M74.5916 33.543C75.1384 33.543 75.5816 33.9863 75.5816 34.533C75.5816 35.0798 75.1384 35.5231 74.5916 35.5231C74.0448 35.5231 73.6016 35.0798 73.6016 34.533C73.6016 33.9863 74.0448 33.543 74.5916 33.543Z" fill="black"/>
<path d="M78.5516 33.5433C79.0984 33.5433 79.5416 33.9866 79.5416 34.5333C79.5416 35.0801 79.0984 35.5233 78.5516 35.5233C78.0049 35.5233 77.5616 35.0801 77.5616 34.5333C77.5616 33.9866 78.0049 33.5433 78.5516 33.5433Z" fill="black"/>
<path d="M80.5311 33.5433C81.0779 33.5433 81.5211 33.9866 81.5211 34.5333C81.5211 35.0801 81.0779 35.5233 80.5311 35.5233C79.9844 35.5233 79.5411 35.0801 79.5411 34.5333C79.5411 33.9866 79.9844 33.5433 80.5311 33.5433Z" fill="black"/>
<path d="M82.5116 33.5431C83.0584 33.5431 83.5016 33.9863 83.5016 34.5331C83.5016 35.0799 83.0584 35.5231 82.5116 35.5231C81.9648 35.5231 81.5216 35.0799 81.5216 34.5331C81.5216 33.9863 81.9648 33.5431 82.5116 33.5431Z" fill="black"/>
<path d="M50.8319 35.523C51.3787 35.523 51.8219 35.9663 51.8219 36.5131C51.8219 37.0599 51.3787 37.5031 50.8319 37.5031C50.2851 37.5031 49.8419 37.0599 49.8419 36.5131C49.8419 35.9663 50.2851 35.523 50.8319 35.523Z" fill="black"/>
<path d="M54.7917 35.5234C55.3385 35.5234 55.7818 35.9666 55.7818 36.5134C55.7818 37.0602 55.3385 37.5034 54.7917 37.5034C54.245 37.5034 53.8017 37.0602 53.8017 36.5134C53.8017 35.9666 54.245 35.5234 54.7917 35.5234Z" fill="black"/>
<path d="M56.7714 35.5232C57.3182 35.5232 57.7614 35.9664 57.7614 36.5132C57.7614 37.06 57.3182 37.5032 56.7714 37.5032C56.2246 37.5032 55.7813 37.06 55.7813 36.5132C55.7813 35.9664 56.2246 35.5232 56.7714 35.5232Z" fill="black"/>
<path d="M58.7518 35.523C59.2986 35.523 59.7418 35.9663 59.7418 36.5131C59.7418 37.0599 59.2986 37.5031 58.7518 37.5031C58.2051 37.5031 57.7618 37.0599 57.7618 36.5131C57.7618 35.9663 58.2051 35.523 58.7518 35.523Z" fill="black"/>
<path d="M60.7312 35.5232C61.278 35.5232 61.7212 35.9664 61.7212 36.5132C61.7212 37.06 61.278 37.5032 60.7312 37.5032C60.1844 37.5032 59.7412 37.06 59.7412 36.5132C59.7412 35.9664 60.1844 35.5232 60.7312 35.5232Z" fill="black"/>
<path d="M62.7116 35.5232C63.2584 35.5232 63.7016 35.9664 63.7016 36.5132C63.7016 37.06 63.2584 37.5032 62.7116 37.5032C62.1648 37.5032 61.7215 37.06 61.7215 36.5132C61.7215 35.9664 62.1648 35.5232 62.7116 35.5232Z" fill="black"/>
<path d="M74.5916 35.5232C75.1384 35.5232 75.5816 35.9664 75.5816 36.5132C75.5816 37.06 75.1384 37.5032 74.5916 37.5032C74.0448 37.5032 73.6016 37.06 73.6016 36.5132C73.6016 35.9664 74.0448 35.5232 74.5916 35.5232Z" fill="black"/>
<path d="M86.4706 35.5233C87.0174 35.5233 87.4606 35.9665 87.4606 36.5133C87.4606 37.0601 87.0174 37.5033 86.4706 37.5033C85.9238 37.5033 85.4806 37.0601 85.4806 36.5133C85.4806 35.9665 85.9238 35.5233 86.4706 35.5233Z" fill="black"/>
<path d="M88.451 35.523C88.9978 35.523 89.4411 35.9663 89.4411 36.5131C89.4411 37.0599 88.9978 37.5031 88.451 37.5031C87.9043 37.5031 87.461 37.0599 87.461 36.5131C87.461 35.9663 87.9043 35.523 88.451 35.523Z" fill="black"/>
<path d="M90.4308 35.523C90.9775 35.523 91.4208 35.9663 91.4208 36.5131C91.4208 37.0599 90.9775 37.5031 90.4308 37.5031C89.884 37.5031 89.4407 37.0599 89.4407 36.5131C89.4407 35.9663 89.884 35.523 90.4308 35.523Z" fill="black"/>
<path d="M92.4128 35.523C92.9596 35.523 93.4029 35.9663 93.4029 36.5131C93.4029 37.0599 92.9596 37.5031 92.4128 37.5031C91.8661 37.5031 91.4228 37.0599 91.4228 36.5131C91.4228 35.9663 91.8661 35.523 92.4128 35.523Z" fill="black"/>
<path d="M94.3934 35.523C94.9402 35.523 95.3834 35.9663 95.3834 36.5131C95.3834 37.0599 94.9402 37.5031 94.3934 37.5031C93.8467 37.5031 93.4034 37.0599 93.4034 36.5131C93.4034 35.9663 93.8467 35.523 94.3934 35.523Z" fill="black"/>
<path d="M50.8319 37.5029C51.3787 37.5029 51.8219 37.9462 51.8219 38.4929C51.8219 39.0397 51.3787 39.483 50.8319 39.483C50.2851 39.483 49.8419 39.0397 49.8419 38.4929C49.8419 37.9462 50.2851 37.5029 50.8319 37.5029Z" fill="black"/>
<path d="M56.7714 37.5035C57.3182 37.5035 57.7614 37.9468 57.7614 38.4936C57.7614 39.0404 57.3182 39.4836 56.7714 39.4836C56.2246 39.4836 55.7813 39.0404 55.7813 38.4936C55.7813 37.9468 56.2246 37.5035 56.7714 37.5035Z" fill="black"/>
<path d="M66.6706 37.5033C67.2174 37.5033 67.6607 37.9466 67.6607 38.4933C67.6607 39.0401 67.2174 39.4834 66.6706 39.4834C66.1239 39.4834 65.6806 39.0401 65.6806 38.4933C65.6806 37.9466 66.1239 37.5033 66.6706 37.5033Z" fill="black"/>
<path d="M68.651 37.5031C69.1978 37.5031 69.641 37.9464 69.641 38.4932C69.641 39.04 69.1978 39.4832 68.651 39.4832C68.1042 39.4832 67.661 39.04 67.661 38.4932C67.661 37.9464 68.1042 37.5031 68.651 37.5031Z" fill="black"/>
<path d="M70.6317 37.503C71.1785 37.503 71.6217 37.9463 71.6217 38.493C71.6217 39.0398 71.1785 39.4831 70.6317 39.4831C70.0849 39.4831 69.6417 39.0398 69.6417 38.493C69.6417 37.9463 70.0849 37.503 70.6317 37.503Z" fill="black"/>
<path d="M76.5712 37.5033C77.118 37.5033 77.5612 37.9465 77.5612 38.4933C77.5612 39.0401 77.118 39.4833 76.5712 39.4833C76.0244 39.4833 75.5811 39.0401 75.5811 38.4933C75.5811 37.9465 76.0244 37.5033 76.5712 37.5033Z" fill="black"/>
<path d="M82.5116 37.503C83.0584 37.503 83.5016 37.9463 83.5016 38.493C83.5016 39.0398 83.0584 39.4831 82.5116 39.4831C81.9648 39.4831 81.5216 39.0398 81.5216 38.493C81.5216 37.9463 81.9648 37.503 82.5116 37.503Z" fill="black"/>
<path d="M88.451 37.503C88.9978 37.503 89.4411 37.9463 89.4411 38.493C89.4411 39.0398 88.9978 39.4831 88.451 39.4831C87.9043 39.4831 87.461 39.0398 87.461 38.493C87.461 37.9463 87.9043 37.503 88.451 37.503Z" fill="black"/>
<path d="M96.3702 37.5035C96.917 37.5035 97.3602 37.9468 97.3602 38.4936C97.3602 39.0404 96.917 39.4836 96.3702 39.4836C95.8234 39.4836 95.3802 39.0404 95.3802 38.4936C95.3802 37.9468 95.8234 37.5035 96.3702 37.5035Z" fill="black"/>
<path d="M50.8319 39.4834C51.3787 39.4834 51.8219 39.9267 51.8219 40.4734C51.8219 41.0202 51.3787 41.4635 50.8319 41.4635C50.2851 41.4635 49.8419 41.0202 49.8419 40.4734C49.8419 39.9267 50.2851 39.4834 50.8319 39.4834Z" fill="black"/>
<path d="M56.7714 39.4834C57.3182 39.4834 57.7614 39.9267 57.7614 40.4734C57.7614 41.0202 57.3182 41.4635 56.7714 41.4635C56.2246 41.4635 55.7813 41.0202 55.7813 40.4734C55.7813 39.9267 56.2246 39.4834 56.7714 39.4834Z" fill="black"/>
<path d="M58.7518 39.4835C59.2986 39.4835 59.7418 39.9267 59.7418 40.4735C59.7418 41.0203 59.2986 41.4635 58.7518 41.4635C58.2051 41.4635 57.7618 41.0203 57.7618 40.4735C57.7618 39.9267 58.2051 39.4835 58.7518 39.4835Z" fill="black"/>
<path d="M62.7116 39.4833C63.2584 39.4833 63.7016 39.9265 63.7016 40.4733C63.7016 41.0201 63.2584 41.4633 62.7116 41.4633C62.1648 41.4633 61.7215 41.0201 61.7215 40.4733C61.7215 39.9265 62.1648 39.4833 62.7116 39.4833Z" fill="black"/>
<path d="M64.6923 39.4832C65.2391 39.4832 65.6823 39.9265 65.6823 40.4733C65.6823 41.0201 65.2391 41.4633 64.6923 41.4633C64.1455 41.4633 63.7022 41.0201 63.7022 40.4733C63.7022 39.9265 64.1455 39.4832 64.6923 39.4832Z" fill="black"/>
<path d="M66.6706 39.4833C67.2174 39.4833 67.6607 39.9265 67.6607 40.4733C67.6607 41.0201 67.2174 41.4633 66.6706 41.4633C66.1239 41.4633 65.6806 41.0201 65.6806 40.4733C65.6806 39.9265 66.1239 39.4833 66.6706 39.4833Z" fill="black"/>
<path d="M72.6122 39.4832C73.159 39.4832 73.6022 39.9265 73.6022 40.4733C73.6022 41.0201 73.159 41.4633 72.6122 41.4633C72.0654 41.4633 71.6222 41.0201 71.6222 40.4733C71.6222 39.9265 72.0654 39.4832 72.6122 39.4832Z" fill="black"/>
<path d="M76.5712 39.4832C77.118 39.4832 77.5612 39.9265 77.5612 40.4733C77.5612 41.0201 77.118 41.4633 76.5712 41.4633C76.0244 41.4633 75.5811 41.0201 75.5811 40.4733C75.5811 39.9265 76.0244 39.4832 76.5712 39.4832Z" fill="black"/>
<path d="M78.5516 39.4832C79.0984 39.4832 79.5416 39.9265 79.5416 40.4733C79.5416 41.0201 79.0984 41.4633 78.5516 41.4633C78.0049 41.4633 77.5616 41.0201 77.5616 40.4733C77.5616 39.9265 78.0049 39.4832 78.5516 39.4832Z" fill="black"/>
<path d="M80.5311 39.4832C81.0779 39.4832 81.5211 39.9265 81.5211 40.4733C81.5211 41.0201 81.0779 41.4633 80.5311 41.4633C79.9844 41.4633 79.5411 41.0201 79.5411 40.4733C79.5411 39.9265 79.9844 39.4832 80.5311 39.4832Z" fill="black"/>
<path d="M82.5116 39.4835C83.0584 39.4835 83.5016 39.9267 83.5016 40.4735C83.5016 41.0203 83.0584 41.4635 82.5116 41.4635C81.9648 41.4635 81.5216 41.0203 81.5216 40.4735C81.5216 39.9267 81.9648 39.4835 82.5116 39.4835Z" fill="black"/>
<path d="M86.4706 39.4832C87.0174 39.4832 87.4606 39.9265 87.4606 40.4733C87.4606 41.0201 87.0174 41.4633 86.4706 41.4633C85.9238 41.4633 85.4806 41.0201 85.4806 40.4733C85.4806 39.9265 85.9238 39.4832 86.4706 39.4832Z" fill="black"/>
<path d="M88.451 39.4835C88.9978 39.4835 89.4411 39.9267 89.4411 40.4735C89.4411 41.0203 88.9978 41.4635 88.451 41.4635C87.9043 41.4635 87.461 41.0203 87.461 40.4735C87.461 39.9267 87.9043 39.4835 88.451 39.4835Z" fill="black"/>
<path d="M92.4128 39.4834C92.9596 39.4834 93.4029 39.9267 93.4029 40.4734C93.4029 41.0202 92.9596 41.4635 92.4128 41.4635C91.8661 41.4635 91.4228 41.0202 91.4228 40.4734C91.4228 39.9267 91.8661 39.4834 92.4128 39.4834Z" fill="black"/>
<path d="M96.3702 39.4834C96.917 39.4834 97.3602 39.9267 97.3602 40.4734C97.3602 41.0202 96.917 41.4635 96.3702 41.4635C95.8234 41.4635 95.3802 41.0202 95.3802 40.4734C95.3802 39.9267 95.8234 39.4834 96.3702 39.4834Z" fill="black"/>
<path d="M98.3523 39.4834C98.8991 39.4834 99.3423 39.9267 99.3423 40.4734C99.3423 41.0202 98.8991 41.4635 98.3523 41.4635C97.8055 41.4635 97.3623 41.0202 97.3623 40.4734C97.3623 39.9267 97.8055 39.4834 98.3523 39.4834Z" fill="black"/>
<path d="M50.8319 41.4634C51.3787 41.4634 51.8219 41.9067 51.8219 42.4535C51.8219 43.0003 51.3787 43.4435 50.8319 43.4435C50.2851 43.4435 49.8419 43.0003 49.8419 42.4535C49.8419 41.9067 50.2851 41.4634 50.8319 41.4634Z" fill="black"/>
<path d="M54.7917 41.4632C55.3385 41.4632 55.7818 41.9065 55.7818 42.4532C55.7818 43 55.3385 43.4433 54.7917 43.4433C54.245 43.4433 53.8017 43 53.8017 42.4532C53.8017 41.9065 54.245 41.4632 54.7917 41.4632Z" fill="black"/>
<path d="M66.6706 41.4632C67.2174 41.4632 67.6607 41.9065 67.6607 42.4532C67.6607 43 67.2174 43.4433 66.6706 43.4433C66.1239 43.4433 65.6806 43 65.6806 42.4532C65.6806 41.9065 66.1239 41.4632 66.6706 41.4632Z" fill="black"/>
<path d="M68.651 41.4634C69.1978 41.4634 69.641 41.9067 69.641 42.4535C69.641 43.0003 69.1978 43.4435 68.651 43.4435C68.1042 43.4435 67.661 43.0003 67.661 42.4535C67.661 41.9067 68.1042 41.4634 68.651 41.4634Z" fill="black"/>
<path d="M70.6317 41.4635C71.1785 41.4635 71.6217 41.9067 71.6217 42.4535C71.6217 43.0003 71.1785 43.4435 70.6317 43.4435C70.0849 43.4435 69.6417 43.0003 69.6417 42.4535C69.6417 41.9067 70.0849 41.4635 70.6317 41.4635Z" fill="black"/>
<path d="M72.6122 41.4635C73.159 41.4635 73.6022 41.9067 73.6022 42.4535C73.6022 43.0003 73.159 43.4435 72.6122 43.4435C72.0654 43.4435 71.6222 43.0003 71.6222 42.4535C71.6222 41.9067 72.0654 41.4635 72.6122 41.4635Z" fill="black"/>
<path d="M76.5712 41.4632C77.118 41.4632 77.5612 41.9065 77.5612 42.4532C77.5612 43 77.118 43.4433 76.5712 43.4433C76.0244 43.4433 75.5811 43 75.5811 42.4532C75.5811 41.9065 76.0244 41.4632 76.5712 41.4632Z" fill="black"/>
<path d="M82.5116 41.4635C83.0584 41.4635 83.5016 41.9067 83.5016 42.4535C83.5016 43.0003 83.0584 43.4435 82.5116 43.4435C81.9648 43.4435 81.5216 43.0003 81.5216 42.4535C81.5216 41.9067 81.9648 41.4635 82.5116 41.4635Z" fill="black"/>
<path d="M98.3523 41.4634C98.8991 41.4634 99.3423 41.9067 99.3423 42.4535C99.3423 43.0003 98.8991 43.4435 98.3523 43.4435C97.8055 43.4435 97.3623 43.0003 97.3623 42.4535C97.3623 41.9067 97.8055 41.4634 98.3523 41.4634Z" fill="black"/>
<path d="M58.7518 43.4435C59.2986 43.4435 59.7418 43.8867 59.7418 44.4335C59.7418 44.9803 59.2986 45.4235 58.7518 45.4235C58.2051 45.4235 57.7618 44.9803 57.7618 44.4335C57.7618 43.8867 58.2051 43.4435 58.7518 43.4435Z" fill="black"/>
<path d="M62.7116 43.4434C63.2584 43.4434 63.7016 43.8866 63.7016 44.4334C63.7016 44.9802 63.2584 45.4234 62.7116 45.4234C62.1648 45.4234 61.7215 44.9802 61.7215 44.4334C61.7215 43.8866 62.1648 43.4434 62.7116 43.4434Z" fill="black"/>
<path d="M68.651 43.4434C69.1978 43.4434 69.641 43.8866 69.641 44.4334C69.641 44.9802 69.1978 45.4234 68.651 45.4234C68.1042 45.4234 67.661 44.9802 67.661 44.4334C67.661 43.8866 68.1042 43.4434 68.651 43.4434Z" fill="black"/>
<path d="M74.5916 43.4432C75.1384 43.4432 75.5816 43.8865 75.5816 44.4333C75.5816 44.98 75.1384 45.4233 74.5916 45.4233C74.0448 45.4233 73.6016 44.98 73.6016 44.4333C73.6016 43.8865 74.0448 43.4432 74.5916 43.4432Z" fill="black"/>
<path d="M78.5516 43.4435C79.0984 43.4435 79.5416 43.8867 79.5416 44.4335C79.5416 44.9803 79.0984 45.4235 78.5516 45.4235C78.0049 45.4235 77.5616 44.9803 77.5616 44.4335C77.5616 43.8867 78.0049 43.4435 78.5516 43.4435Z" fill="black"/>
<path d="M84.4913 43.4432C85.0381 43.4432 85.4813 43.8865 85.4813 44.4333C85.4813 44.98 85.0381 45.4233 84.4913 45.4233C83.9445 45.4233 83.5013 44.98 83.5013 44.4333C83.5013 43.8865 83.9445 43.4432 84.4913 43.4432Z" fill="black"/>
<path d="M86.4706 43.4432C87.0174 43.4432 87.4606 43.8865 87.4606 44.4332C87.4606 44.98 87.0174 45.4232 86.4706 45.4232C85.9238 45.4232 85.4806 44.98 85.4806 44.4332C85.4806 43.8865 85.9238 43.4432 86.4706 43.4432Z" fill="black"/>
<path d="M88.451 43.4435C88.9978 43.4435 89.4411 43.8867 89.4411 44.4335C89.4411 44.9803 88.9978 45.4235 88.451 45.4235C87.9043 45.4235 87.461 44.9803 87.461 44.4335C87.461 43.8867 87.9043 43.4435 88.451 43.4435Z" fill="black"/>
<path d="M90.4308 43.4434C90.9775 43.4434 91.4208 43.8866 91.4208 44.4334C91.4208 44.9802 90.9775 45.4234 90.4308 45.4234C89.884 45.4234 89.4407 44.9802 89.4407 44.4334C89.4407 43.8866 89.884 43.4434 90.4308 43.4434Z" fill="black"/>
<path d="M94.3934 43.4432C94.9402 43.4432 95.3834 43.8865 95.3834 44.4332C95.3834 44.98 94.9402 45.4232 94.3934 45.4232C93.8467 45.4232 93.4034 44.98 93.4034 44.4332C93.4034 43.8865 93.8467 43.4432 94.3934 43.4432Z" fill="black"/>
<path d="M96.3702 43.4432C96.917 43.4432 97.3602 43.8865 97.3602 44.4333C97.3602 44.98 96.917 45.4233 96.3702 45.4233C95.8234 45.4233 95.3802 44.98 95.3802 44.4333C95.3802 43.8865 95.8234 43.4432 96.3702 43.4432Z" fill="black"/>
<path d="M98.3523 43.4434C98.8991 43.4434 99.3423 43.8866 99.3423 44.4334C99.3423 44.9802 98.8991 45.4234 98.3523 45.4234C97.8055 45.4234 97.3623 44.9802 97.3623 44.4334C97.3623 43.8866 97.8055 43.4434 98.3523 43.4434Z" fill="black"/>
<path d="M50.8319 45.4232C51.3787 45.4232 51.8219 45.8665 51.8219 46.4133C51.8219 46.9601 51.3787 47.4033 50.8319 47.4033C50.2851 47.4033 49.8419 46.9601 49.8419 46.4133C49.8419 45.8665 50.2851 45.4232 50.8319 45.4232Z" fill="black"/>
<path d="M52.8124 45.4232C53.3592 45.4232 53.8024 45.8664 53.8024 46.4132C53.8024 46.96 53.3592 47.4032 52.8124 47.4032C52.2656 47.4032 51.8224 46.96 51.8224 46.4132C51.8224 45.8664 52.2656 45.4232 52.8124 45.4232Z" fill="black"/>
<path d="M58.7518 45.4232C59.2986 45.4232 59.7418 45.8664 59.7418 46.4132C59.7418 46.96 59.2986 47.4032 58.7518 47.4032C58.2051 47.4032 57.7618 46.96 57.7618 46.4132C57.7618 45.8664 58.2051 45.4232 58.7518 45.4232Z" fill="black"/>
<path d="M60.7312 45.4233C61.278 45.4233 61.7212 45.8666 61.7212 46.4134C61.7212 46.9602 61.278 47.4034 60.7312 47.4034C60.1844 47.4034 59.7412 46.9602 59.7412 46.4134C59.7412 45.8666 60.1844 45.4233 60.7312 45.4233Z" fill="black"/>
<path d="M64.6923 45.4234C65.2391 45.4234 65.6823 45.8667 65.6823 46.4134C65.6823 46.9602 65.2391 47.4035 64.6923 47.4035C64.1455 47.4035 63.7022 46.9602 63.7022 46.4134C63.7022 45.8667 64.1455 45.4234 64.6923 45.4234Z" fill="black"/>
<path d="M82.5116 45.4232C83.0584 45.4232 83.5016 45.8664 83.5016 46.4132C83.5016 46.96 83.0584 47.4032 82.5116 47.4032C81.9648 47.4032 81.5216 46.96 81.5216 46.4132C81.5216 45.8664 81.9648 45.4232 82.5116 45.4232Z" fill="black"/>
<path d="M92.4128 45.4232C92.9596 45.4232 93.4029 45.8665 93.4029 46.4133C93.4029 46.9601 92.9596 47.4033 92.4128 47.4033C91.8661 47.4033 91.4228 46.9601 91.4228 46.4133C91.4228 45.8665 91.8661 45.4232 92.4128 45.4232Z" fill="black"/>
<path d="M96.3702 45.4234C96.917 45.4234 97.3602 45.8666 97.3602 46.4134C97.3602 46.9602 96.917 47.4034 96.3702 47.4034C95.8234 47.4034 95.3802 46.9602 95.3802 46.4134C95.3802 45.8666 95.8234 45.4234 96.3702 45.4234Z" fill="black"/>
<path d="M50.8319 47.4031C51.3787 47.4031 51.8219 47.8464 51.8219 48.3932C51.8219 48.9399 51.3787 49.3832 50.8319 49.3832C50.2851 49.3832 49.8419 48.9399 49.8419 48.3932C49.8419 47.8464 50.2851 47.4031 50.8319 47.4031Z" fill="black"/>
<path d="M56.7714 47.4033C57.3182 47.4033 57.7614 47.8465 57.7614 48.3933C57.7614 48.9401 57.3182 49.3833 56.7714 49.3833C56.2246 49.3833 55.7813 48.9401 55.7813 48.3933C55.7813 47.8465 56.2246 47.4033 56.7714 47.4033Z" fill="black"/>
<path d="M60.7312 47.4033C61.278 47.4033 61.7212 47.8465 61.7212 48.3933C61.7212 48.9401 61.278 49.3833 60.7312 49.3833C60.1844 49.3833 59.7412 48.9401 59.7412 48.3933C59.7412 47.8465 60.1844 47.4033 60.7312 47.4033Z" fill="black"/>
<path d="M62.7116 47.4033C63.2584 47.4033 63.7016 47.8465 63.7016 48.3933C63.7016 48.9401 63.2584 49.3833 62.7116 49.3833C62.1648 49.3833 61.7215 48.9401 61.7215 48.3933C61.7215 47.8465 62.1648 47.4033 62.7116 47.4033Z" fill="black"/>
<path d="M64.6923 47.4034C65.2391 47.4034 65.6823 47.8467 65.6823 48.3934C65.6823 48.9402 65.2391 49.3834 64.6923 49.3834C64.1455 49.3834 63.7022 48.9402 63.7022 48.3934C63.7022 47.8467 64.1455 47.4034 64.6923 47.4034Z" fill="black"/>
<path d="M66.6706 47.4035C67.2174 47.4035 67.6607 47.8468 67.6607 48.3935C67.6607 48.9403 67.2174 49.3835 66.6706 49.3835C66.1239 49.3835 65.6806 48.9403 65.6806 48.3935C65.6806 47.8468 66.1239 47.4035 66.6706 47.4035Z" fill="black"/>
<path d="M70.6317 47.4034C71.1785 47.4034 71.6217 47.8467 71.6217 48.3934C71.6217 48.9402 71.1785 49.3834 70.6317 49.3834C70.0849 49.3834 69.6417 48.9402 69.6417 48.3934C69.6417 47.8467 70.0849 47.4034 70.6317 47.4034Z" fill="black"/>
<path d="M72.6122 47.4034C73.159 47.4034 73.6022 47.8467 73.6022 48.3934C73.6022 48.9402 73.159 49.3834 72.6122 49.3834C72.0654 49.3834 71.6222 48.9402 71.6222 48.3934C71.6222 47.8467 72.0654 47.4034 72.6122 47.4034Z" fill="black"/>
<path d="M74.5916 47.4033C75.1384 47.4033 75.5816 47.8465 75.5816 48.3933C75.5816 48.9401 75.1384 49.3833 74.5916 49.3833C74.0448 49.3833 73.6016 48.9401 73.6016 48.3933C73.6016 47.8465 74.0448 47.4033 74.5916 47.4033Z" fill="black"/>
<path d="M80.5311 47.4034C81.0779 47.4034 81.5211 47.8467 81.5211 48.3934C81.5211 48.9402 81.0779 49.3834 80.5311 49.3834C79.9844 49.3834 79.5411 48.9402 79.5411 48.3934C79.5411 47.8467 79.9844 47.4034 80.5311 47.4034Z" fill="black"/>
<path d="M82.5116 47.4032C83.0584 47.4032 83.5016 47.8464 83.5016 48.3932C83.5016 48.94 83.0584 49.3832 82.5116 49.3832C81.9648 49.3832 81.5216 48.94 81.5216 48.3932C81.5216 47.8464 81.9648 47.4032 82.5116 47.4032Z" fill="black"/>
<path d="M84.4913 47.4033C85.0381 47.4033 85.4813 47.8465 85.4813 48.3933C85.4813 48.9401 85.0381 49.3833 84.4913 49.3833C83.9445 49.3833 83.5013 48.9401 83.5013 48.3933C83.5013 47.8465 83.9445 47.4033 84.4913 47.4033Z" fill="black"/>
<path d="M88.451 47.4032C88.9978 47.4032 89.4411 47.8464 89.4411 48.3932C89.4411 48.94 88.9978 49.3832 88.451 49.3832C87.9043 49.3832 87.461 48.94 87.461 48.3932C87.461 47.8464 87.9043 47.4032 88.451 47.4032Z" fill="black"/>
<path d="M92.4128 47.4031C92.9596 47.4031 93.4029 47.8464 93.4029 48.3932C93.4029 48.9399 92.9596 49.3832 92.4128 49.3832C91.8661 49.3832 91.4228 48.9399 91.4228 48.3932C91.4228 47.8464 91.8661 47.4031 92.4128 47.4031Z" fill="black"/>
<path d="M96.3702 47.4033C96.917 47.4033 97.3602 47.8465 97.3602 48.3933C97.3602 48.9401 96.917 49.3833 96.3702 49.3833C95.8234 49.3833 95.3802 48.9401 95.3802 48.3933C95.3802 47.8465 95.8234 47.4033 96.3702 47.4033Z" fill="black"/>
<path d="M98.3523 47.4031C98.8991 47.4031 99.3423 47.8464 99.3423 48.3932C99.3423 48.9399 98.8991 49.3832 98.3523 49.3832C97.8055 49.3832 97.3623 48.9399 97.3623 48.3932C97.3623 47.8464 97.8055 47.4031 98.3523 47.4031Z" fill="black"/>
<path d="M50.8319 49.3836C51.3787 49.3836 51.8219 49.8269 51.8219 50.3737C51.8219 50.9204 51.3787 51.3637 50.8319 51.3637C50.2851 51.3637 49.8419 50.9204 49.8419 50.3737C49.8419 49.8269 50.2851 49.3836 50.8319 49.3836Z" fill="black"/>
<path d="M56.7714 49.3836C57.3182 49.3836 57.7614 49.8269 57.7614 50.3737C57.7614 50.9204 57.3182 51.3637 56.7714 51.3637C56.2246 51.3637 55.7813 50.9204 55.7813 50.3737C55.7813 49.8269 56.2246 49.3836 56.7714 49.3836Z" fill="black"/>
<path d="M60.7312 49.3835C61.278 49.3835 61.7212 49.8267 61.7212 50.3735C61.7212 50.9203 61.278 51.3635 60.7312 51.3635C60.1844 51.3635 59.7412 50.9203 59.7412 50.3735C59.7412 49.8267 60.1844 49.3835 60.7312 49.3835Z" fill="black"/>
<path d="M68.651 49.3835C69.1978 49.3835 69.641 49.8267 69.641 50.3735C69.641 50.9203 69.1978 51.3635 68.651 51.3635C68.1042 51.3635 67.661 50.9203 67.661 50.3735C67.661 49.8267 68.1042 49.3835 68.651 49.3835Z" fill="black"/>
<path d="M72.6122 49.3834C73.159 49.3834 73.6022 49.8266 73.6022 50.3734C73.6022 50.9202 73.159 51.3634 72.6122 51.3634C72.0654 51.3634 71.6222 50.9202 71.6222 50.3734C71.6222 49.8266 72.0654 49.3834 72.6122 49.3834Z" fill="black"/>
<path d="M78.5516 49.3834C79.0984 49.3834 79.5416 49.8266 79.5416 50.3734C79.5416 50.9202 79.0984 51.3634 78.5516 51.3634C78.0049 51.3634 77.5616 50.9202 77.5616 50.3734C77.5616 49.8266 78.0049 49.3834 78.5516 49.3834Z" fill="black"/>
<path d="M84.4913 49.3836C85.0381 49.3836 85.4813 49.8269 85.4813 50.3737C85.4813 50.9204 85.0381 51.3637 84.4913 51.3637C83.9445 51.3637 83.5013 50.9204 83.5013 50.3737C83.5013 49.8269 83.9445 49.3836 84.4913 49.3836Z" fill="black"/>
<path d="M92.4128 49.3836C92.9596 49.3836 93.4029 49.8269 93.4029 50.3737C93.4029 50.9204 92.9596 51.3637 92.4128 51.3637C91.8661 51.3637 91.4228 50.9204 91.4228 50.3737C91.4228 49.8269 91.8661 49.3836 92.4128 49.3836Z" fill="black"/>
<path d="M98.3523 49.3836C98.8991 49.3836 99.3423 49.8269 99.3423 50.3737C99.3423 50.9204 98.8991 51.3637 98.3523 51.3637C97.8055 51.3637 97.3623 50.9204 97.3623 50.3737C97.3623 49.8269 97.8055 49.3836 98.3523 49.3836Z" fill="black"/>
<path d="M50.8319 51.3636C51.3787 51.3636 51.8219 51.8069 51.8219 52.3537C51.8219 52.9005 51.3787 53.3437 50.8319 53.3437C50.2851 53.3437 49.8419 52.9005 49.8419 52.3537C49.8419 51.8069 50.2851 51.3636 50.8319 51.3636Z" fill="black"/>
<path d="M54.7917 51.3634C55.3385 51.3634 55.7818 51.8067 55.7818 52.3534C55.7818 52.9002 55.3385 53.3434 54.7917 53.3434C54.245 53.3434 53.8017 52.9002 53.8017 52.3534C53.8017 51.8067 54.245 51.3634 54.7917 51.3634Z" fill="black"/>
<path d="M60.7312 51.3636C61.278 51.3636 61.7212 51.8068 61.7212 52.3536C61.7212 52.9004 61.278 53.3436 60.7312 53.3436C60.1844 53.3436 59.7412 52.9004 59.7412 52.3536C59.7412 51.8068 60.1844 51.3636 60.7312 51.3636Z" fill="black"/>
<path d="M62.7116 51.3636C63.2584 51.3636 63.7016 51.8068 63.7016 52.3536C63.7016 52.9004 63.2584 53.3436 62.7116 53.3436C62.1648 53.3436 61.7215 52.9004 61.7215 52.3536C61.7215 51.8068 62.1648 51.3636 62.7116 51.3636Z" fill="black"/>
<path d="M66.6706 51.3634C67.2174 51.3634 67.6607 51.8067 67.6607 52.3534C67.6607 52.9002 67.2174 53.3434 66.6706 53.3434C66.1239 53.3434 65.6806 52.9002 65.6806 52.3534C65.6806 51.8067 66.1239 51.3634 66.6706 51.3634Z" fill="black"/>
<path d="M72.6122 51.3636C73.159 51.3636 73.6022 51.8069 73.6022 52.3536C73.6022 52.9004 73.159 53.3436 72.6122 53.3436C72.0654 53.3436 71.6222 52.9004 71.6222 52.3536C71.6222 51.8069 72.0654 51.3636 72.6122 51.3636Z" fill="black"/>
<path d="M80.5311 51.3636C81.0779 51.3636 81.5211 51.8069 81.5211 52.3536C81.5211 52.9004 81.0779 53.3436 80.5311 53.3436C79.9844 53.3436 79.5411 52.9004 79.5411 52.3536C79.5411 51.8069 79.9844 51.3636 80.5311 51.3636Z" fill="black"/>
<path d="M82.5116 51.3636C83.0584 51.3636 83.5016 51.8069 83.5016 52.3536C83.5016 52.9004 83.0584 53.3436 82.5116 53.3436C81.9648 53.3436 81.5216 52.9004 81.5216 52.3536C81.5216 51.8069 81.9648 51.3636 82.5116 51.3636Z" fill="black"/>
<path d="M84.4913 51.3635C85.0381 51.3635 85.4813 51.8068 85.4813 52.3535C85.4813 52.9003 85.0381 53.3436 84.4913 53.3436C83.9445 53.3436 83.5013 52.9003 83.5013 52.3535C83.5013 51.8068 83.9445 51.3635 84.4913 51.3635Z" fill="black"/>
<path d="M86.4706 51.3634C87.0174 51.3634 87.4606 51.8066 87.4606 52.3534C87.4606 52.9002 87.0174 53.3434 86.4706 53.3434C85.9238 53.3434 85.4806 52.9002 85.4806 52.3534C85.4806 51.8066 85.9238 51.3634 86.4706 51.3634Z" fill="black"/>
<path d="M88.451 51.3636C88.9978 51.3636 89.4411 51.8069 89.4411 52.3536C89.4411 52.9004 88.9978 53.3436 88.451 53.3436C87.9043 53.3436 87.461 52.9004 87.461 52.3536C87.461 51.8069 87.9043 51.3636 88.451 51.3636Z" fill="black"/>
<path d="M90.4308 51.3636C90.9775 51.3636 91.4208 51.8069 91.4208 52.3537C91.4208 52.9005 90.9775 53.3437 90.4308 53.3437C89.884 53.3437 89.4407 52.9005 89.4407 52.3537C89.4407 51.8069 89.884 51.3636 90.4308 51.3636Z" fill="black"/>
<path d="M94.3934 51.3636C94.9402 51.3636 95.3834 51.8069 95.3834 52.3536C95.3834 52.9004 94.9402 53.3436 94.3934 53.3436C93.8467 53.3436 93.4034 52.9004 93.4034 52.3536C93.4034 51.8069 93.8467 51.3636 94.3934 51.3636Z" fill="black"/>
<path d="M66.6706 53.3434C67.2174 53.3434 67.6607 53.7866 67.6607 54.3334C67.6607 54.8802 67.2174 55.3234 66.6706 55.3234C66.1239 55.3234 65.6806 54.8802 65.6806 54.3334C65.6806 53.7866 66.1239 53.3434 66.6706 53.3434Z" fill="black"/>
<path d="M68.651 53.3436C69.1978 53.3436 69.641 53.7868 69.641 54.3336C69.641 54.8804 69.1978 55.3236 68.651 55.3236C68.1042 55.3236 67.661 54.8804 67.661 54.3336C67.661 53.7868 68.1042 53.3436 68.651 53.3436Z" fill="black"/>
<path d="M70.6317 53.3436C71.1785 53.3436 71.6217 53.7868 71.6217 54.3336C71.6217 54.8804 71.1785 55.3236 70.6317 55.3236C70.0849 55.3236 69.6417 54.8804 69.6417 54.3336C69.6417 53.7868 70.0849 53.3436 70.6317 53.3436Z" fill="black"/>
<path d="M74.5916 53.3434C75.1384 53.3434 75.5816 53.7867 75.5816 54.3335C75.5816 54.8803 75.1384 55.3235 74.5916 55.3235C74.0448 55.3235 73.6016 54.8803 73.6016 54.3335C73.6016 53.7867 74.0448 53.3434 74.5916 53.3434Z" fill="black"/>
<path d="M76.5712 53.3434C77.118 53.3434 77.5612 53.7866 77.5612 54.3334C77.5612 54.8802 77.118 55.3234 76.5712 55.3234C76.0244 55.3234 75.5811 54.8802 75.5811 54.3334C75.5811 53.7866 76.0244 53.3434 76.5712 53.3434Z" fill="black"/>
<path d="M78.5516 53.3436C79.0984 53.3436 79.5416 53.7868 79.5416 54.3336C79.5416 54.8804 79.0984 55.3236 78.5516 55.3236C78.0049 55.3236 77.5616 54.8804 77.5616 54.3336C77.5616 53.7868 78.0049 53.3436 78.5516 53.3436Z" fill="black"/>
<path d="M80.5311 53.3436C81.0779 53.3436 81.5211 53.7868 81.5211 54.3336C81.5211 54.8804 81.0779 55.3236 80.5311 55.3236C79.9844 55.3236 79.5411 54.8804 79.5411 54.3336C79.5411 53.7868 79.9844 53.3436 80.5311 53.3436Z" fill="black"/>
<path d="M82.5116 53.3436C83.0584 53.3436 83.5016 53.7868 83.5016 54.3336C83.5016 54.8804 83.0584 55.3236 82.5116 55.3236C81.9648 55.3236 81.5216 54.8804 81.5216 54.3336C81.5216 53.7868 81.9648 53.3436 82.5116 53.3436Z" fill="black"/>
<path d="M90.4308 53.3435C90.9775 53.3435 91.4208 53.7868 91.4208 54.3336C91.4208 54.8803 90.9775 55.3236 90.4308 55.3236C89.884 55.3236 89.4407 54.8803 89.4407 54.3336C89.4407 53.7868 89.884 53.3435 90.4308 53.3435Z" fill="black"/>
<path d="M92.4128 53.3435C92.9596 53.3435 93.4029 53.7868 93.4029 54.3336C93.4029 54.8803 92.9596 55.3236 92.4128 55.3236C91.8661 55.3236 91.4228 54.8803 91.4228 54.3336C91.4228 53.7868 91.8661 53.3435 92.4128 53.3435Z" fill="black"/>
<path d="M94.3934 53.3434C94.9402 53.3434 95.3834 53.7866 95.3834 54.3334C95.3834 54.8802 94.9402 55.3234 94.3934 55.3234C93.8467 55.3234 93.4034 54.8802 93.4034 54.3334C93.4034 53.7866 93.8467 53.3434 94.3934 53.3434Z" fill="black"/>
<path d="M76.5712 55.3238C77.118 55.3238 77.5612 55.7671 77.5612 56.3138C77.5612 56.8606 77.118 57.3039 76.5712 57.3039C76.0244 57.3039 75.5811 56.8606 75.5811 56.3138C75.5811 55.7671 76.0244 55.3238 76.5712 55.3238Z" fill="black"/>
<path d="M78.5516 55.3236C79.0984 55.3236 79.5416 55.7668 79.5416 56.3136C79.5416 56.8604 79.0984 57.3036 78.5516 57.3036C78.0049 57.3036 77.5616 56.8604 77.5616 56.3136C77.5616 55.7668 78.0049 55.3236 78.5516 55.3236Z" fill="black"/>
<path d="M82.5116 55.3233C83.0584 55.3233 83.5016 55.7666 83.5016 56.3134C83.5016 56.8601 83.0584 57.3034 82.5116 57.3034C81.9648 57.3034 81.5216 56.8601 81.5216 56.3134C81.5216 55.7666 81.9648 55.3233 82.5116 55.3233Z" fill="black"/>
<path d="M86.4706 55.3238C87.0174 55.3238 87.4606 55.7671 87.4606 56.3138C87.4606 56.8606 87.0174 57.3039 86.4706 57.3039C85.9238 57.3039 85.4806 56.8606 85.4806 56.3138C85.4806 55.7671 85.9238 55.3238 86.4706 55.3238Z" fill="black"/>
<path d="M90.4308 55.3235C90.9775 55.3235 91.4208 55.7667 91.4208 56.3135C91.4208 56.8603 90.9775 57.3035 90.4308 57.3035C89.884 57.3035 89.4407 56.8603 89.4407 56.3135C89.4407 55.7667 89.884 55.3235 90.4308 55.3235Z" fill="black"/>
<path d="M92.4128 55.3235C92.9596 55.3235 93.4029 55.7667 93.4029 56.3135C93.4029 56.8603 92.9596 57.3035 92.4128 57.3035C91.8661 57.3035 91.4228 56.8603 91.4228 56.3135C91.4228 55.7667 91.8661 55.3235 92.4128 55.3235Z" fill="black"/>
<path d="M94.3934 55.3236C94.9402 55.3236 95.3834 55.7668 95.3834 56.3136C95.3834 56.8604 94.9402 57.3036 94.3934 57.3036C93.8467 57.3036 93.4034 56.8604 93.4034 56.3136C93.4034 55.7668 93.8467 55.3236 94.3934 55.3236Z" fill="black"/>
<path d="M96.3702 55.3235C96.917 55.3235 97.3602 55.7668 97.3602 56.3136C97.3602 56.8604 96.917 57.3036 96.3702 57.3036C95.8234 57.3036 95.3802 56.8604 95.3802 56.3136C95.3802 55.7668 95.8234 55.3235 96.3702 55.3235Z" fill="black"/>
<path d="M98.3523 55.3235C98.8991 55.3235 99.3423 55.7667 99.3423 56.3135C99.3423 56.8603 98.8991 57.3035 98.3523 57.3035C97.8055 57.3035 97.3623 56.8603 97.3623 56.3135C97.3623 55.7667 97.8055 55.3235 98.3523 55.3235Z" fill="black"/>
<path d="M66.6706 57.3036C67.2174 57.3036 67.6607 57.7469 67.6607 58.2937C67.6607 58.8405 67.2174 59.2837 66.6706 59.2837C66.1239 59.2837 65.6806 58.8405 65.6806 58.2937C65.6806 57.7469 66.1239 57.3036 66.6706 57.3036Z" fill="black"/>
<path d="M68.651 57.3035C69.1978 57.3035 69.641 57.7467 69.641 58.2935C69.641 58.8403 69.1978 59.2835 68.651 59.2835C68.1042 59.2835 67.661 58.8403 67.661 58.2935C67.661 57.7467 68.1042 57.3035 68.651 57.3035Z" fill="black"/>
<path d="M70.6317 57.3036C71.1785 57.3036 71.6217 57.7468 71.6217 58.2936C71.6217 58.8404 71.1785 59.2836 70.6317 59.2836C70.0849 59.2836 69.6417 58.8404 69.6417 58.2936C69.6417 57.7468 70.0849 57.3036 70.6317 57.3036Z" fill="black"/>
<path d="M74.5916 57.3035C75.1384 57.3035 75.5816 57.7467 75.5816 58.2935C75.5816 58.8403 75.1384 59.2835 74.5916 59.2835C74.0448 59.2835 73.6016 58.8403 73.6016 58.2935C73.6016 57.7467 74.0448 57.3035 74.5916 57.3035Z" fill="black"/>
<path d="M76.5712 57.3036C77.118 57.3036 77.5612 57.7468 77.5612 58.2936C77.5612 58.8404 77.118 59.2836 76.5712 59.2836C76.0244 59.2836 75.5811 58.8404 75.5811 58.2936C75.5811 57.7468 76.0244 57.3036 76.5712 57.3036Z" fill="black"/>
<path d="M82.5116 57.3033C83.0584 57.3033 83.5016 57.7466 83.5016 58.2933C83.5016 58.8401 83.0584 59.2833 82.5116 59.2833C81.9648 59.2833 81.5216 58.8401 81.5216 58.2933C81.5216 57.7466 81.9648 57.3033 82.5116 57.3033Z" fill="black"/>
<path d="M90.4308 57.3033C90.9775 57.3033 91.4208 57.7466 91.4208 58.2934C91.4208 58.8402 90.9775 59.2834 90.4308 59.2834C89.884 59.2834 89.4407 58.8402 89.4407 58.2934C89.4407 57.7466 89.884 57.3033 90.4308 57.3033Z" fill="black"/>
<path d="M92.4128 57.3033C92.9596 57.3033 93.4029 57.7466 93.4029 58.2934C93.4029 58.8402 92.9596 59.2834 92.4128 59.2834C91.8661 59.2834 91.4228 58.8402 91.4228 58.2934C91.4228 57.7466 91.8661 57.3033 92.4128 57.3033Z" fill="black"/>
<path d="M96.3702 57.3035C96.917 57.3035 97.3602 57.7467 97.3602 58.2935C97.3602 58.8403 96.917 59.2835 96.3702 59.2835C95.8234 59.2835 95.3802 58.8403 95.3802 58.2935C95.3802 57.7467 95.8234 57.3035 96.3702 57.3035Z" fill="black"/>
<path d="M66.6706 59.2836C67.2174 59.2836 67.6607 59.7268 67.6607 60.2736C67.6607 60.8204 67.2174 61.2636 66.6706 61.2636C66.1239 61.2636 65.6806 60.8204 65.6806 60.2736C65.6806 59.7268 66.1239 59.2836 66.6706 59.2836Z" fill="black"/>
<path d="M68.651 59.2836C69.1978 59.2836 69.641 59.7268 69.641 60.2736C69.641 60.8204 69.1978 61.2636 68.651 61.2636C68.1042 61.2636 67.661 60.8204 67.661 60.2736C67.661 59.7268 68.1042 59.2836 68.651 59.2836Z" fill="black"/>
<path d="M70.6317 59.2835C71.1785 59.2835 71.6217 59.7268 71.6217 60.2736C71.6217 60.8203 71.1785 61.2636 70.6317 61.2636C70.0849 61.2636 69.6417 60.8203 69.6417 60.2736C69.6417 59.7268 70.0849 59.2835 70.6317 59.2835Z" fill="black"/>
<path d="M74.5916 59.2838C75.1384 59.2838 75.5816 59.7271 75.5816 60.2739C75.5816 60.8207 75.1384 61.2639 74.5916 61.2639C74.0448 61.2639 73.6016 60.8207 73.6016 60.2739C73.6016 59.7271 74.0448 59.2838 74.5916 59.2838Z" fill="black"/>
<path d="M78.5516 59.2835C79.0984 59.2835 79.5416 59.7268 79.5416 60.2736C79.5416 60.8203 79.0984 61.2636 78.5516 61.2636C78.0049 61.2636 77.5616 60.8203 77.5616 60.2736C77.5616 59.7268 78.0049 59.2835 78.5516 59.2835Z" fill="black"/>
<path d="M80.5311 59.2835C81.0779 59.2835 81.5211 59.7268 81.5211 60.2736C81.5211 60.8203 81.0779 61.2636 80.5311 61.2636C79.9844 61.2636 79.5411 60.8203 79.5411 60.2736C79.5411 59.7268 79.9844 59.2835 80.5311 59.2835Z" fill="black"/>
<path d="M82.5116 59.2838C83.0584 59.2838 83.5016 59.727 83.5016 60.2738C83.5016 60.8206 83.0584 61.2638 82.5116 61.2638C81.9648 61.2638 81.5216 60.8206 81.5216 60.2738C81.5216 59.727 81.9648 59.2838 82.5116 59.2838Z" fill="black"/>
<path d="M84.4913 59.2838C85.0381 59.2838 85.4813 59.7271 85.4813 60.2739C85.4813 60.8207 85.0381 61.2639 84.4913 61.2639C83.9445 61.2639 83.5013 60.8207 83.5013 60.2739C83.5013 59.7271 83.9445 59.2838 84.4913 59.2838Z" fill="black"/>
<path d="M86.4706 59.2835C87.0174 59.2835 87.4606 59.7268 87.4606 60.2736C87.4606 60.8203 87.0174 61.2636 86.4706 61.2636C85.9238 61.2636 85.4806 60.8203 85.4806 60.2736C85.4806 59.7268 85.9238 59.2835 86.4706 59.2835Z" fill="black"/>
<path d="M88.451 59.2838C88.9978 59.2838 89.4411 59.727 89.4411 60.2738C89.4411 60.8206 88.9978 61.2638 88.451 61.2638C87.9043 61.2638 87.461 60.8206 87.461 60.2738C87.461 59.727 87.9043 59.2838 88.451 59.2838Z" fill="black"/>
<path d="M90.4308 59.2838C90.9775 59.2838 91.4208 59.7271 91.4208 60.2739C91.4208 60.8207 90.9775 61.2639 90.4308 61.2639C89.884 61.2639 89.4407 60.8207 89.4407 60.2739C89.4407 59.7271 89.884 59.2838 90.4308 59.2838Z" fill="black"/>
<path d="M92.4128 59.2838C92.9596 59.2838 93.4029 59.7271 93.4029 60.2739C93.4029 60.8207 92.9596 61.2639 92.4128 61.2639C91.8661 61.2639 91.4228 60.8207 91.4228 60.2739C91.4228 59.7271 91.8661 59.2838 92.4128 59.2838Z" fill="black"/>
<path d="M94.3934 59.2838C94.9402 59.2838 95.3834 59.727 95.3834 60.2738C95.3834 60.8206 94.9402 61.2638 94.3934 61.2638C93.8467 61.2638 93.4034 60.8206 93.4034 60.2738C93.4034 59.727 93.8467 59.2838 94.3934 59.2838Z" fill="black"/>
<path d="M98.3523 59.2838C98.8991 59.2838 99.3423 59.7271 99.3423 60.2739C99.3423 60.8207 98.8991 61.2639 98.3523 61.2639C97.8055 61.2639 97.3623 60.8207 97.3623 60.2739C97.3623 59.7271 97.8055 59.2838 98.3523 59.2838Z" fill="black"/>
<path d="M66.6706 61.2635C67.2174 61.2635 67.6607 61.7068 67.6607 62.2536C67.6607 62.8004 67.2174 63.2436 66.6706 63.2436C66.1239 63.2436 65.6806 62.8004 65.6806 62.2536C65.6806 61.7068 66.1239 61.2635 66.6706 61.2635Z" fill="black"/>
<path d="M68.651 61.2638C69.1978 61.2638 69.641 61.707 69.641 62.2538C69.641 62.8006 69.1978 63.2438 68.651 63.2438C68.1042 63.2438 67.661 62.8006 67.661 62.2538C67.661 61.707 68.1042 61.2638 68.651 61.2638Z" fill="black"/>
<path d="M80.5311 61.2638C81.0779 61.2638 81.5211 61.707 81.5211 62.2538C81.5211 62.8006 81.0779 63.2438 80.5311 63.2438C79.9844 63.2438 79.5411 62.8006 79.5411 62.2538C79.5411 61.707 79.9844 61.2638 80.5311 61.2638Z" fill="black"/>
<path d="M82.5116 61.2638C83.0584 61.2638 83.5016 61.707 83.5016 62.2538C83.5016 62.8006 83.0584 63.2438 82.5116 63.2438C81.9648 63.2438 81.5216 62.8006 81.5216 62.2538C81.5216 61.707 81.9648 61.2638 82.5116 61.2638Z" fill="black"/>
<path d="M84.4913 61.2637C85.0381 61.2637 85.4813 61.707 85.4813 62.2537C85.4813 62.8005 85.0381 63.2438 84.4913 63.2438C83.9445 63.2438 83.5013 62.8005 83.5013 62.2537C83.5013 61.707 83.9445 61.2637 84.4913 61.2637Z" fill="black"/>
<path d="M86.4706 61.2635C87.0174 61.2635 87.4606 61.7068 87.4606 62.2535C87.4606 62.8003 87.0174 63.2436 86.4706 63.2436C85.9238 63.2436 85.4806 62.8003 85.4806 62.2535C85.4806 61.7068 85.9238 61.2635 86.4706 61.2635Z" fill="black"/>
<path d="M88.451 61.2638C88.9978 61.2638 89.4411 61.707 89.4411 62.2538C89.4411 62.8006 88.9978 63.2438 88.451 63.2438C87.9043 63.2438 87.461 62.8006 87.461 62.2538C87.461 61.707 87.9043 61.2638 88.451 61.2638Z" fill="black"/>
<path d="M94.3934 61.2638C94.9402 61.2638 95.3834 61.707 95.3834 62.2538C95.3834 62.8006 94.9402 63.2438 94.3934 63.2438C93.8467 63.2438 93.4034 62.8006 93.4034 62.2538C93.4034 61.707 93.8467 61.2638 94.3934 61.2638Z" fill="black"/>
<path d="M96.3702 61.2637C96.917 61.2637 97.3602 61.707 97.3602 62.2537C97.3602 62.8005 96.917 63.2438 96.3702 63.2438C95.8234 63.2438 95.3802 62.8005 95.3802 62.2537C95.3802 61.707 95.8234 61.2637 96.3702 61.2637Z" fill="black"/>
<path d="M98.3523 61.2639C98.8991 61.2639 99.3423 61.7071 99.3423 62.2539C99.3423 62.8007 98.8991 63.2439 98.3523 63.2439C97.8055 63.2439 97.3623 62.8007 97.3623 62.2539C97.3623 61.7071 97.8055 61.2639 98.3523 61.2639Z" fill="black"/>
<path d="M66.6706 63.2435C67.2174 63.2435 67.6607 63.6868 67.6607 64.2335C67.6607 64.7803 67.2174 65.2236 66.6706 65.2236C66.1239 65.2236 65.6806 64.7803 65.6806 64.2335C65.6806 63.6868 66.1239 63.2435 66.6706 63.2435Z" fill="black"/>
<path d="M68.651 63.2437C69.1978 63.2437 69.641 63.687 69.641 64.2337C69.641 64.7805 69.1978 65.2237 68.651 65.2237C68.1042 65.2237 67.661 64.7805 67.661 64.2337C67.661 63.687 68.1042 63.2437 68.651 63.2437Z" fill="black"/>
<path d="M72.6122 63.2437C73.159 63.2437 73.6022 63.687 73.6022 64.2338C73.6022 64.7806 73.159 65.2238 72.6122 65.2238C72.0654 65.2238 71.6222 64.7806 71.6222 64.2338C71.6222 63.687 72.0654 63.2437 72.6122 63.2437Z" fill="black"/>
<path d="M74.5916 63.2436C75.1384 63.2436 75.5816 63.6869 75.5816 64.2336C75.5816 64.7804 75.1384 65.2237 74.5916 65.2237C74.0448 65.2237 73.6016 64.7804 73.6016 64.2336C73.6016 63.6869 74.0448 63.2436 74.5916 63.2436Z" fill="black"/>
<path d="M82.5116 63.2437C83.0584 63.2437 83.5016 63.687 83.5016 64.2338C83.5016 64.7806 83.0584 65.2238 82.5116 65.2238C81.9648 65.2238 81.5216 64.7806 81.5216 64.2338C81.5216 63.687 81.9648 63.2437 82.5116 63.2437Z" fill="black"/>
<path d="M84.4913 63.2436C85.0381 63.2436 85.4813 63.6869 85.4813 64.2336C85.4813 64.7804 85.0381 65.2237 84.4913 65.2237C83.9445 65.2237 83.5013 64.7804 83.5013 64.2336C83.5013 63.6869 83.9445 63.2436 84.4913 63.2436Z" fill="black"/>
<path d="M88.451 63.2437C88.9978 63.2437 89.4411 63.687 89.4411 64.2338C89.4411 64.7806 88.9978 65.2238 88.451 65.2238C87.9043 65.2238 87.461 64.7806 87.461 64.2338C87.461 63.687 87.9043 63.2437 88.451 63.2437Z" fill="black"/>
<path d="M94.3934 63.2437C94.9402 63.2437 95.3834 63.687 95.3834 64.2338C95.3834 64.7806 94.9402 65.2238 94.3934 65.2238C93.8467 65.2238 93.4034 64.7806 93.4034 64.2338C93.4034 63.687 93.8467 63.2437 94.3934 63.2437Z" fill="black"/>
<path d="M98.3523 63.2437C98.8991 63.2437 99.3423 63.687 99.3423 64.2338C99.3423 64.7806 98.8991 65.2238 98.3523 65.2238C97.8055 65.2238 97.3623 64.7806 97.3623 64.2338C97.3623 63.687 97.8055 63.2437 98.3523 63.2437Z" fill="black"/>
<path d="M68.651 65.2237C69.1978 65.2237 69.641 65.6669 69.641 66.2137C69.641 66.7605 69.1978 67.2037 68.651 67.2037C68.1042 67.2037 67.661 66.7605 67.661 66.2137C67.661 65.6669 68.1042 65.2237 68.651 65.2237Z" fill="black"/>
<path d="M72.6122 65.2237C73.159 65.2237 73.6022 65.667 73.6022 66.2137C73.6022 66.7605 73.159 67.2038 72.6122 67.2038C72.0654 67.2038 71.6222 66.7605 71.6222 66.2137C71.6222 65.667 72.0654 65.2237 72.6122 65.2237Z" fill="black"/>
<path d="M78.5516 65.2237C79.0984 65.2237 79.5416 65.667 79.5416 66.2137C79.5416 66.7605 79.0984 67.2038 78.5516 67.2038C78.0049 67.2038 77.5616 66.7605 77.5616 66.2137C77.5616 65.667 78.0049 65.2237 78.5516 65.2237Z" fill="black"/>
<path d="M80.5311 65.2237C81.0779 65.2237 81.5211 65.667 81.5211 66.2137C81.5211 66.7605 81.0779 67.2038 80.5311 67.2038C79.9844 67.2038 79.5411 66.7605 79.5411 66.2137C79.5411 65.667 79.9844 65.2237 80.5311 65.2237Z" fill="black"/>
<path d="M82.5116 65.2237C83.0584 65.2237 83.5016 65.667 83.5016 66.2137C83.5016 66.7605 83.0584 67.2038 82.5116 67.2038C81.9648 67.2038 81.5216 66.7605 81.5216 66.2137C81.5216 65.667 81.9648 65.2237 82.5116 65.2237Z" fill="black"/>
<path d="M88.451 65.2237C88.9978 65.2237 89.4411 65.667 89.4411 66.2137C89.4411 66.7605 88.9978 67.2038 88.451 67.2038C87.9043 67.2038 87.461 66.7605 87.461 66.2137C87.461 65.667 87.9043 65.2237 88.451 65.2237Z" fill="black"/>
<path d="M90.4308 65.2236C90.9775 65.2236 91.4208 65.6669 91.4208 66.2136C91.4208 66.7604 90.9775 67.2037 90.4308 67.2037C89.884 67.2037 89.4407 66.7604 89.4407 66.2136C89.4407 65.6669 89.884 65.2236 90.4308 65.2236Z" fill="black"/>
<path d="M92.4128 65.2236C92.9596 65.2236 93.4029 65.6669 93.4029 66.2136C93.4029 66.7604 92.9596 67.2037 92.4128 67.2037C91.8661 67.2037 91.4228 66.7604 91.4228 66.2136C91.4228 65.6669 91.8661 65.2236 92.4128 65.2236Z" fill="black"/>
<path d="M98.3523 65.2236C98.8991 65.2236 99.3423 65.6669 99.3423 66.2136C99.3423 66.7604 98.8991 67.2037 98.3523 67.2037C97.8055 67.2037 97.3623 66.7604 97.3623 66.2136C97.3623 65.6669 97.8055 65.2236 98.3523 65.2236Z" fill="black"/>
<path d="M66.6706 67.2038C67.2174 67.2038 67.6607 67.6471 67.6607 68.1938C67.6607 68.7406 67.2174 69.1839 66.6706 69.1839C66.1239 69.1839 65.6806 68.7406 65.6806 68.1938C65.6806 67.6471 66.1239 67.2038 66.6706 67.2038Z" fill="black"/>
<path d="M68.651 67.2036C69.1978 67.2036 69.641 67.6469 69.641 68.1936C69.641 68.7404 69.1978 69.1836 68.651 69.1836C68.1042 69.1836 67.661 68.7404 67.661 68.1936C67.661 67.6469 68.1042 67.2036 68.651 67.2036Z" fill="black"/>
<path d="M72.6122 67.2037C73.159 67.2037 73.6022 67.647 73.6022 68.1937C73.6022 68.7405 73.159 69.1837 72.6122 69.1837C72.0654 69.1837 71.6222 68.7405 71.6222 68.1937C71.6222 67.647 72.0654 67.2037 72.6122 67.2037Z" fill="black"/>
<path d="M80.5311 67.2037C81.0779 67.2037 81.5211 67.647 81.5211 68.1937C81.5211 68.7405 81.0779 69.1837 80.5311 69.1837C79.9844 69.1837 79.5411 68.7405 79.5411 68.1937C79.5411 67.647 79.9844 67.2037 80.5311 67.2037Z" fill="black"/>
<path d="M86.4706 67.2037C87.0174 67.2037 87.4606 67.647 87.4606 68.1937C87.4606 68.7405 87.0174 69.1837 86.4706 69.1837C85.9238 69.1837 85.4806 68.7405 85.4806 68.1937C85.4806 67.647 85.9238 67.2037 86.4706 67.2037Z" fill="black"/>
<path d="M88.451 67.2035C88.9978 67.2035 89.4411 67.6467 89.4411 68.1935C89.4411 68.7403 88.9978 69.1835 88.451 69.1835C87.9043 69.1835 87.461 68.7403 87.461 68.1935C87.461 67.6467 87.9043 67.2035 88.451 67.2035Z" fill="black"/>
<path d="M90.4308 67.2036C90.9775 67.2036 91.4208 67.6468 91.4208 68.1936C91.4208 68.7404 90.9775 69.1836 90.4308 69.1836C89.884 69.1836 89.4407 68.7404 89.4407 68.1936C89.4407 67.6468 89.884 67.2036 90.4308 67.2036Z" fill="black"/>
<path d="M92.4128 67.2036C92.9596 67.2036 93.4029 67.6468 93.4029 68.1936C93.4029 68.7404 92.9596 69.1836 92.4128 69.1836C91.8661 69.1836 91.4228 68.7404 91.4228 68.1936C91.4228 67.6468 91.8661 67.2036 92.4128 67.2036Z" fill="black"/>
<path d="M94.3934 67.2037C94.9402 67.2037 95.3834 67.647 95.3834 68.1937C95.3834 68.7405 94.9402 69.1837 94.3934 69.1837C93.8467 69.1837 93.4034 68.7405 93.4034 68.1937C93.4034 67.647 93.8467 67.2037 94.3934 67.2037Z" fill="black"/>
<path d="M96.3702 67.2036C96.917 67.2036 97.3602 67.6469 97.3602 68.1937C97.3602 68.7405 96.917 69.1837 96.3702 69.1837C95.8234 69.1837 95.3802 68.7405 95.3802 68.1937C95.3802 67.6469 95.8234 67.2036 96.3702 67.2036Z" fill="black"/>
<path d="M98.3523 67.2036C98.8991 67.2036 99.3423 67.6468 99.3423 68.1936C99.3423 68.7404 98.8991 69.1836 98.3523 69.1836C97.8055 69.1836 97.3623 68.7404 97.3623 68.1936C97.3623 67.6468 97.8055 67.2036 98.3523 67.2036Z" fill="black"/>
<path d="M58.9701 19.6842H54.5739C52.4314 19.6842 50.6163 21.0997 50.0359 23.0345C49.9759 23.2346 49.9291 23.4403 49.8965 23.6506C49.8606 23.8826 49.8419 24.1201 49.8419 24.362V28.8626C49.8419 31.4432 51.9653 33.5418 54.5739 33.5418L56.772 33.5422L58.9701 33.5416C61.5786 33.5416 63.7021 31.4431 63.7021 28.8624V24.362C63.7021 21.7826 61.5787 19.6842 58.9701 19.6842ZM61.6231 28.8626C61.6231 30.2963 60.433 31.4627 58.9695 31.4627L56.772 31.4632L54.5745 31.4626C53.111 31.4626 51.9209 30.2961 51.9209 28.8626V24.362C51.9209 23.9142 52.0371 23.4925 52.2415 23.1241C52.4383 22.7697 52.7168 22.465 53.0521 22.2342C53.4831 21.9374 54.008 21.7632 54.5738 21.7632H58.9701C60.433 21.7632 61.6231 22.929 61.6231 24.362V28.8626Z" fill="black"/>
<path d="M94.6088 19.6837H90.2126C88.0701 19.6837 86.2549 21.0992 85.6746 23.034C85.6146 23.2341 85.5677 23.4398 85.5352 23.6501C85.4993 23.8821 85.4806 24.1197 85.4806 24.3615V28.8621C85.4806 31.4427 87.6039 33.5413 90.2126 33.5413L92.4107 33.5417L94.6088 33.5411C97.2173 33.5411 99.3408 31.4426 99.3408 28.8619V24.3615C99.3408 21.7821 97.2174 19.6837 94.6088 19.6837ZM97.2618 28.8621C97.2618 30.2958 96.0717 31.4622 94.6082 31.4622L92.4107 31.4627L90.2131 31.4621C88.7496 31.4621 87.5596 30.2956 87.5596 28.8621V24.3615C87.5596 23.9137 87.6757 23.4921 87.8802 23.1237C88.077 22.7693 88.3554 22.4645 88.6907 22.2337C89.1218 21.9369 89.6467 21.7627 90.2124 21.7627H94.6088C96.0717 21.7627 97.2618 22.9285 97.2618 24.3615V28.8621Z" fill="black"/>
<path d="M58.9701 55.3246H54.5739C52.4314 55.3246 50.6163 56.7401 50.0359 58.6748C49.9759 58.875 49.9291 59.0807 49.8965 59.2909C49.8606 59.523 49.8419 59.7605 49.8419 60.0024V64.5029C49.8419 67.0836 51.9653 69.1822 54.5739 69.1822L56.772 69.1826L58.9701 69.182C61.5786 69.182 63.7021 67.0834 63.7021 64.5028V60.0024C63.7021 57.423 61.5787 55.3246 58.9701 55.3246ZM61.6231 64.5029C61.6231 65.9366 60.433 67.1031 58.9695 67.1031L56.772 67.1035L54.5745 67.103C53.111 67.103 51.9209 65.9365 51.9209 64.5029V60.0024C51.9209 59.5546 52.0371 59.1329 52.2415 58.7645C52.4383 58.4101 52.7168 58.1053 53.0521 57.8746C53.4831 57.5778 54.008 57.4036 54.5738 57.4036H58.9701C60.433 57.4036 61.6231 58.5694 61.6231 60.0024V64.5029Z" fill="black"/>
<path d="M59.7418 23.6429H53.8017V29.583H59.7418V23.6429Z" fill="black"/>
<path d="M95.3808 23.6429H89.4407V29.583H95.3808V23.6429Z" fill="black"/>
<path d="M59.7418 59.2836H53.8017V65.2237H59.7418V59.2836Z" fill="black"/>
<defs>
<linearGradient id="paint0_linear_1_5500" x1="19.607" y1="25.0479" x2="130.689" y2="25.0479" gradientUnits="userSpaceOnUse">
<stop offset="1.11884e-07" stop-color="#FEC100"/>
<stop offset="1" stop-color="#FDA201"/>
</linearGradient>
<linearGradient id="paint1_linear_1_5500" x1="19.606" y1="81.6311" x2="60.6266" y2="81.6311" gradientUnits="userSpaceOnUse">
<stop offset="1.11884e-07" stop-color="#FEC100"/>
<stop offset="1" stop-color="#FDA201"/>
</linearGradient>
<linearGradient id="paint2_linear_1_5500" x1="19.606" y1="95.1718" x2="130.688" y2="95.1718" gradientUnits="userSpaceOnUse">
<stop offset="1.11884e-07" stop-color="#FEC100"/>
<stop offset="1" stop-color="#FDA201"/>
</linearGradient>
<linearGradient id="paint3_linear_1_5500" x1="130.689" y1="81.6312" x2="89.668" y2="81.6312" gradientUnits="userSpaceOnUse">
<stop offset="1.11884e-07" stop-color="#FEC100"/>
<stop offset="1" stop-color="#FDA201"/>
</linearGradient>
</defs>
</svg>
