<svg width="146" height="157" viewBox="0 0 146 157" fill="none" xmlns="http://www.w3.org/2000/svg">
<g filter="url(#filter0_d_6_120)">
<path d="M131.2 0H14.7C8.8 0 4 4.8 4 10.7V122.2C4 128.1 8.8 132.9 14.7 132.9H59.7L73 148.3L86.3 132.9H131.3C137.2 132.9 142 128.1 142 122.2V10.7C142 4.8 137.2 0 131.2 0Z" fill="#919FF6"/>
<path d="M113.401 115.532H46.3616C41.6895 115.532 37.9953 112.056 37.9953 107.885V23.0701C37.9953 18.7996 41.7982 15.4229 46.3616 15.4229H88.8451L121.767 46.409V107.885C121.876 112.155 118.073 115.532 113.401 115.532Z" fill="#ECECEC"/>
<path d="M88.9552 15.4229V39.2584C88.9552 43.2309 92.4321 46.409 96.7782 46.409H121.877L88.9552 15.4229Z" fill="#F5F5F5"/>
<path d="M89.282 41.3448C89.282 41.3448 88.956 47.105 96.1271 48.992C96.3444 49.0913 96.6704 49.0913 96.9964 49.1906C100.256 49.6872 121.878 53.2625 121.878 52.766C121.878 52.2694 121.878 46.3105 121.878 46.3105H96.7791C96.7791 46.4098 90.4772 46.2112 89.282 41.3448Z" fill="#E1E1E1"/>
<path d="M113.404 115.531C113.404 115.531 113.947 115.531 114.817 115.333C115.795 115.134 117.207 114.836 118.619 113.744C120.032 112.651 121.444 110.863 121.662 108.381C121.662 105.898 121.662 103.018 121.662 99.8395C121.662 87.0279 121.553 68.6547 121.553 46.4082L121.662 46.6069C111.666 37.2713 100.583 26.744 88.7398 15.6207L88.9572 15.72C81.0255 15.72 72.8765 15.72 64.4015 15.72C60.164 15.72 55.9266 15.72 51.5804 15.72C50.4939 15.72 49.4074 15.72 48.3208 15.72C47.2343 15.72 46.1478 15.6207 45.0612 15.8194C42.9968 16.1173 41.0411 17.2098 39.8459 18.7988C38.9766 19.8913 38.4334 21.1823 38.3247 22.5727C38.2161 23.9631 38.3247 25.3536 38.3247 26.744C38.3247 29.5248 38.3247 32.3056 38.3247 34.9871C38.3247 40.4494 38.3247 45.8123 38.3247 51.1753C38.3247 61.802 38.3247 72.0314 38.3247 81.7642C38.3247 86.6306 38.3247 91.3977 38.3247 95.9662C38.3247 98.2504 38.3247 100.535 38.3247 102.819C38.3247 103.911 38.3247 105.004 38.3247 106.196C38.3247 107.288 38.2161 108.381 38.4334 109.374C38.868 111.459 40.2805 113.247 42.2362 114.339C43.2141 114.836 44.3007 115.233 45.2785 115.333C46.3651 115.432 47.4516 115.432 48.5381 115.432C52.8843 115.432 57.1217 115.432 61.1419 115.432C77.2226 115.432 90.261 115.531 99.2792 115.531C103.734 115.531 107.32 115.531 109.71 115.531C110.905 115.531 111.774 115.531 112.426 115.531C113.187 115.531 113.404 115.531 113.404 115.531C113.404 115.531 113.078 115.531 112.535 115.531C111.883 115.531 111.014 115.531 109.819 115.531C107.428 115.531 103.951 115.531 99.3879 115.531C90.3696 115.531 77.3313 115.531 61.2506 115.631C57.2304 115.631 52.9929 115.631 48.6468 115.631C47.5603 115.631 46.4737 115.73 45.2785 115.531C44.0834 115.432 42.9968 115.035 42.0189 114.439C39.9545 113.346 38.4334 111.459 37.9988 109.274C37.7815 108.182 37.8901 107.089 37.7815 105.997C37.7815 104.905 37.7815 103.812 37.7815 102.62C37.7815 100.336 37.7815 98.1511 37.7815 95.7676C37.7815 91.1991 37.7815 86.432 37.7815 81.5656C37.7815 71.8328 37.7815 61.6034 37.7815 50.9767C37.7815 45.713 37.7815 40.2507 37.7815 34.7884C37.7815 32.0076 37.7815 29.3261 37.7815 26.5453C37.7815 25.1549 37.7815 23.7645 37.7815 22.3741C37.8901 20.8844 38.4334 19.494 39.4113 18.3022C40.7151 16.6139 42.7795 15.4221 45.0612 15.1241C46.1478 14.9255 47.3429 15.0248 48.3208 15.0248C49.4074 15.0248 50.4939 15.0248 51.5804 15.0248C55.9266 15.0248 60.164 15.0248 64.4015 15.0248C72.8765 15.0248 81.0255 15.0248 88.9572 15.0248H89.0658L89.1745 15.1241C101.018 26.2474 112.1 36.7747 122.096 46.1103L122.205 46.2096V46.3089C122.205 68.5554 122.096 86.9286 122.096 99.7402C122.096 102.918 122.096 105.798 121.988 108.281C121.77 110.863 120.358 112.75 118.837 113.744C117.316 114.836 115.903 115.233 114.925 115.333C114.491 115.432 114.056 115.432 113.839 115.432C113.621 115.531 113.404 115.531 113.404 115.531Z" fill="#1A2E35"/>
<path d="M121.88 46.4089C121.88 46.4089 121.663 46.4089 121.228 46.5082C120.793 46.5082 120.141 46.5082 119.381 46.5082C117.751 46.5082 115.361 46.5082 112.536 46.6075C109.602 46.6075 106.234 46.6075 102.431 46.7068C100.475 46.7068 98.5194 46.7068 96.455 46.7068C94.2819 46.7068 92.1089 45.813 90.5877 44.224C89.8272 43.4294 89.2839 42.5356 88.9579 41.5425C88.632 40.5493 88.5233 39.5562 88.632 38.6624C88.632 36.7754 88.632 34.9877 88.632 33.2001C88.632 29.7241 88.632 26.6453 88.7406 23.9638C88.7406 21.3816 88.8493 19.296 88.8493 17.707C88.8493 17.0118 88.8493 16.4159 88.8493 16.0186C88.8493 15.6214 88.8493 15.4227 88.9579 15.4227C88.9579 15.4227 88.9579 15.6214 89.0666 16.0186C89.0666 16.4159 89.0666 17.0118 89.0666 17.707C89.0666 19.1967 89.0666 21.3816 89.1752 23.9638C89.1752 26.6453 89.1752 29.7241 89.2839 33.2001C89.2839 34.8884 89.2839 36.7754 89.2839 38.6624C89.2839 39.6555 89.2839 40.5493 89.6098 41.4432C89.9358 42.337 90.4791 43.2308 91.131 43.926C92.5435 45.4157 94.6079 46.2103 96.5637 46.3096C98.6281 46.3096 100.584 46.3096 102.54 46.3096C106.342 46.3096 109.711 46.3096 112.644 46.4089C115.469 46.4089 117.751 46.5082 119.489 46.5082C120.25 46.5082 120.902 46.5082 121.337 46.5082C121.663 46.4089 121.88 46.4089 121.88 46.4089Z" fill="#1A2E35"/>
<path d="M87.6496 36.6754C87.6496 36.7747 79.7179 36.9733 69.9391 36.9733C60.1603 36.9733 52.2287 36.874 52.2287 36.6754C52.2287 36.4768 60.1603 36.4767 69.9391 36.4767C79.7179 36.4767 87.6496 36.5761 87.6496 36.6754Z" fill="#1A2E35"/>
<path d="M104.491 48.5931C104.491 48.6924 92.8656 48.8911 78.4147 48.8911C63.9638 48.8911 52.3379 48.7918 52.3379 48.5931C52.3379 48.4938 63.9638 48.2952 78.4147 48.2952C92.7569 48.3945 104.491 48.4938 104.491 48.5931Z" fill="#1A2E35"/>
<path d="M104.491 60.5106C104.491 60.6099 92.8656 60.8085 78.4147 60.8085C63.9638 60.8085 52.3379 60.7092 52.3379 60.5106C52.3379 60.312 63.9638 60.2126 78.4147 60.2126C92.7569 60.312 104.491 60.4113 104.491 60.5106Z" fill="#1A2E35"/>
<path d="M104.491 72.4286C104.491 72.5279 92.8656 72.7265 78.4147 72.7265C63.9638 72.7265 52.3379 72.6272 52.3379 72.4286C52.3379 72.2299 63.9638 72.1306 78.4147 72.1306C92.7569 72.1306 104.491 72.3293 104.491 72.4286Z" fill="#1A2E35"/>
<path d="M104.491 84.3463C104.491 84.4456 92.8656 84.6442 78.4147 84.6442C63.9638 84.6442 52.3379 84.5449 52.3379 84.3463C52.3379 84.1477 63.9638 84.0483 78.4147 84.0483C92.7569 84.0483 104.491 84.1477 104.491 84.3463Z" fill="#1A2E35"/>
<path d="M104.491 96.2643C104.491 96.3636 92.8656 96.5622 78.4147 96.5622C63.9638 96.5622 52.3379 96.4629 52.3379 96.2643C52.3379 96.0656 63.9638 95.9663 78.4147 95.9663C92.7569 95.9663 104.491 96.0656 104.491 96.2643Z" fill="#1A2E35"/>
<path d="M75.3709 99.0451H27.5634C25.0644 99.0451 23 97.1581 23 94.8739V79.8774C23 77.5932 25.0644 75.7062 27.5634 75.7062H75.3709C77.8699 75.7062 79.9343 77.5932 79.9343 79.8774V94.8739C79.9343 97.1581 77.8699 99.0451 75.3709 99.0451Z" fill="#FF735D"/>
<path d="M45.274 86.4323C45.274 88.4186 43.6442 89.6104 41.0365 89.6104H39.0808V92.0932H36.7991V83.2542H41.0365C43.6442 83.2542 45.274 84.446 45.274 86.4323ZM42.9923 86.4323C42.9923 85.4391 42.3404 84.8433 40.9279 84.8433H39.0808V87.922H40.9279C42.3404 88.0213 42.9923 87.4254 42.9923 86.4323Z" fill="white"/>
<path d="M46.9034 83.2542H51.2496C54.4005 83.2542 56.5736 85.0419 56.5736 87.6241C56.5736 90.3056 54.4005 91.9939 51.2496 91.9939H46.9034V83.2542ZM51.1409 90.4049C53.0967 90.4049 54.2919 89.3124 54.2919 87.6241C54.2919 85.9357 52.988 84.8433 51.1409 84.8433H49.0765V90.3056H51.1409V90.4049Z" fill="white"/>
<path d="M60.485 84.9426V87.3262H64.9398V89.0145H60.485V92.1926H58.2033V83.3536H65.5917V85.0419H60.485V84.9426Z" fill="white"/>
<g filter="url(#filter1_dd_6_120)">
<rect x="56.4004" y="30.8706" width="40.8601" height="40.8601" rx="5" fill="white"/>
</g>
<path d="M72.3883 33.3579C72.7808 33.3579 73.0989 33.676 73.0989 34.0685C73.0989 34.461 72.7808 34.7791 72.3883 34.7791C71.9959 34.7791 71.6777 34.461 71.6777 34.0685C71.6777 33.676 71.9959 33.3579 72.3883 33.3579Z" fill="black"/>
<path d="M75.2312 33.3577C75.6236 33.3577 75.9418 33.6758 75.9418 34.0683C75.9418 34.4608 75.6236 34.7789 75.2312 34.7789C74.8387 34.7789 74.5206 34.4608 74.5206 34.0683C74.5206 33.6758 74.8387 33.3577 75.2312 33.3577Z" fill="black"/>
<path d="M82.3375 33.3579C82.7299 33.3579 83.0481 33.676 83.0481 34.0685C83.0481 34.461 82.7299 34.7791 82.3375 34.7791C81.945 34.7791 81.6269 34.461 81.6269 34.0685C81.6269 33.676 81.945 33.3579 82.3375 33.3579Z" fill="black"/>
<path d="M72.3883 34.7789C72.7808 34.7789 73.0989 35.0971 73.0989 35.4895C73.0989 35.882 72.7808 36.2001 72.3883 36.2001C71.9959 36.2001 71.6777 35.882 71.6777 35.4895C71.6777 35.0971 71.9959 34.7789 72.3883 34.7789Z" fill="black"/>
<path d="M75.2312 34.7791C75.6236 34.7791 75.9418 35.0973 75.9418 35.4897C75.9418 35.8822 75.6236 36.2003 75.2312 36.2003C74.8387 36.2003 74.5206 35.8822 74.5206 35.4897C74.5206 35.0973 74.8387 34.7791 75.2312 34.7791Z" fill="black"/>
<path d="M80.9147 34.7789C81.3072 34.7789 81.6253 35.0971 81.6253 35.4895C81.6253 35.882 81.3072 36.2002 80.9147 36.2002C80.5222 36.2002 80.2041 35.882 80.2041 35.4895C80.2041 35.0971 80.5222 34.7789 80.9147 34.7789Z" fill="black"/>
<path d="M70.9683 36.2003C71.3607 36.2003 71.6789 36.5185 71.6789 36.9109C71.6789 37.3034 71.3607 37.6215 70.9683 37.6215C70.5758 37.6215 70.2576 37.3034 70.2576 36.9109C70.2576 36.5185 70.5758 36.2003 70.9683 36.2003Z" fill="black"/>
<path d="M73.8112 36.2002C74.2037 36.2002 74.5219 36.5183 74.5219 36.9108C74.5219 37.3033 74.2037 37.6214 73.8112 37.6214C73.4188 37.6214 73.1006 37.3033 73.1006 36.9108C73.1006 36.5183 73.4188 36.2002 73.8112 36.2002Z" fill="black"/>
<path d="M79.4948 36.2003C79.8873 36.2003 80.2054 36.5185 80.2054 36.9109C80.2054 37.3034 79.8873 37.6215 79.4948 37.6215C79.1023 37.6215 78.7842 37.3034 78.7842 36.9109C78.7842 36.5185 79.1023 36.2003 79.4948 36.2003Z" fill="black"/>
<path d="M82.3375 36.2003C82.7299 36.2003 83.0481 36.5185 83.0481 36.9109C83.0481 37.3034 82.7299 37.6215 82.3375 37.6215C81.945 37.6215 81.6269 37.3034 81.6269 36.9109C81.6269 36.5185 81.945 36.2003 82.3375 36.2003Z" fill="black"/>
<path d="M70.9683 37.6217C71.3607 37.6217 71.6789 37.9399 71.6789 38.3323C71.6789 38.7248 71.3607 39.0429 70.9683 39.0429C70.5758 39.0429 70.2576 38.7248 70.2576 38.3323C70.2576 37.9399 70.5758 37.6217 70.9683 37.6217Z" fill="black"/>
<path d="M72.3883 37.6216C72.7808 37.6216 73.0989 37.9397 73.0989 38.3322C73.0989 38.7246 72.7808 39.0428 72.3883 39.0428C71.9959 39.0428 71.6777 38.7246 71.6777 38.3322C71.6777 37.9397 71.9959 37.6216 72.3883 37.6216Z" fill="black"/>
<path d="M73.8112 37.6216C74.2037 37.6216 74.5219 37.9397 74.5219 38.3322C74.5219 38.7247 74.2037 39.0428 73.8112 39.0428C73.4188 39.0428 73.1006 38.7247 73.1006 38.3322C73.1006 37.9397 73.4188 37.6216 73.8112 37.6216Z" fill="black"/>
<path d="M78.0738 37.6216C78.4663 37.6216 78.7844 37.9397 78.7844 38.3322C78.7844 38.7247 78.4663 39.0428 78.0738 39.0428C77.6813 39.0428 77.3632 38.7247 77.3632 38.3322C77.3632 37.9397 77.6813 37.6216 78.0738 37.6216Z" fill="black"/>
<path d="M79.4948 37.6217C79.8873 37.6217 80.2054 37.9399 80.2054 38.3323C80.2054 38.7248 79.8873 39.0429 79.4948 39.0429C79.1023 39.0429 78.7842 38.7248 78.7842 38.3323C78.7842 37.9399 79.1023 37.6217 79.4948 37.6217Z" fill="black"/>
<path d="M70.9683 39.0426C71.3607 39.0426 71.6789 39.3608 71.6789 39.7532C71.6789 40.1457 71.3607 40.4638 70.9683 40.4638C70.5758 40.4638 70.2576 40.1457 70.2576 39.7532C70.2576 39.3608 70.5758 39.0426 70.9683 39.0426Z" fill="black"/>
<path d="M76.6518 39.0426C77.0443 39.0426 77.3624 39.3608 77.3624 39.7532C77.3624 40.1457 77.0443 40.4638 76.6518 40.4638C76.2593 40.4638 75.9412 40.1457 75.9412 39.7532C75.9412 39.3608 76.2593 39.0426 76.6518 39.0426Z" fill="black"/>
<path d="M79.4948 39.0425C79.8873 39.0425 80.2054 39.3606 80.2054 39.7531C80.2054 40.1456 79.8873 40.4637 79.4948 40.4637C79.1023 40.4637 78.7842 40.1456 78.7842 39.7531C78.7842 39.3606 79.1023 39.0425 79.4948 39.0425Z" fill="black"/>
<path d="M70.9683 40.4638C71.3607 40.4638 71.6789 40.782 71.6789 41.1744C71.6789 41.5669 71.3607 41.8851 70.9683 41.8851C70.5758 41.8851 70.2576 41.5669 70.2576 41.1744C70.2576 40.782 70.5758 40.4638 70.9683 40.4638Z" fill="black"/>
<path d="M72.3883 40.4638C72.7808 40.4638 73.0989 40.7819 73.0989 41.1744C73.0989 41.5669 72.7808 41.885 72.3883 41.885C71.9959 41.885 71.6777 41.5669 71.6777 41.1744C71.6777 40.7819 71.9959 40.4638 72.3883 40.4638Z" fill="black"/>
<path d="M73.8112 40.4638C74.2037 40.4638 74.5219 40.782 74.5219 41.1744C74.5219 41.5669 74.2037 41.8851 73.8112 41.8851C73.4188 41.8851 73.1006 41.5669 73.1006 41.1744C73.1006 40.782 73.4188 40.4638 73.8112 40.4638Z" fill="black"/>
<path d="M79.4948 40.4638C79.8873 40.4638 80.2054 40.782 80.2054 41.1744C80.2054 41.5669 79.8873 41.8851 79.4948 41.8851C79.1023 41.8851 78.7842 41.5669 78.7842 41.1744C78.7842 40.782 79.1023 40.4638 79.4948 40.4638Z" fill="black"/>
<path d="M80.9147 40.4637C81.3072 40.4637 81.6253 40.7819 81.6253 41.1744C81.6253 41.5668 81.3072 41.885 80.9147 41.885C80.5222 41.885 80.2041 41.5668 80.2041 41.1744C80.2041 40.7819 80.5222 40.4637 80.9147 40.4637Z" fill="black"/>
<path d="M82.3375 40.4636C82.7299 40.4636 83.0481 40.7817 83.0481 41.1742C83.0481 41.5666 82.7299 41.8848 82.3375 41.8848C81.945 41.8848 81.6269 41.5666 81.6269 41.1742C81.6269 40.7817 81.945 40.4636 82.3375 40.4636Z" fill="black"/>
<path d="M70.9683 41.8852C71.3607 41.8852 71.6789 42.2034 71.6789 42.5958C71.6789 42.9883 71.3607 43.3064 70.9683 43.3064C70.5758 43.3064 70.2576 42.9883 70.2576 42.5958C70.2576 42.2034 70.5758 41.8852 70.9683 41.8852Z" fill="black"/>
<path d="M73.8112 41.8852C74.2037 41.8852 74.5219 42.2034 74.5219 42.5958C74.5219 42.9883 74.2037 43.3064 73.8112 43.3064C73.4188 43.3064 73.1006 42.9883 73.1006 42.5958C73.1006 42.2034 73.4188 41.8852 73.8112 41.8852Z" fill="black"/>
<path d="M76.6518 41.8852C77.0443 41.8852 77.3624 42.2034 77.3624 42.5958C77.3624 42.9883 77.0443 43.3064 76.6518 43.3064C76.2593 43.3064 75.9412 42.9883 75.9412 42.5958C75.9412 42.2034 76.2593 41.8852 76.6518 41.8852Z" fill="black"/>
<path d="M79.4948 41.8852C79.8873 41.8852 80.2054 42.2034 80.2054 42.5958C80.2054 42.9883 79.8873 43.3064 79.4948 43.3064C79.1023 43.3064 78.7842 42.9883 78.7842 42.5958C78.7842 42.2034 79.1023 41.8852 79.4948 41.8852Z" fill="black"/>
<path d="M82.3375 41.8852C82.7299 41.8852 83.0481 42.2033 83.0481 42.5958C83.0481 42.9883 82.7299 43.3064 82.3375 43.3064C81.945 43.3064 81.6269 42.9883 81.6269 42.5958C81.6269 42.2033 81.945 41.8852 82.3375 41.8852Z" fill="black"/>
<path d="M70.9683 43.3061C71.3607 43.3061 71.6789 43.6243 71.6789 44.0167C71.6789 44.4092 71.3607 44.7273 70.9683 44.7273C70.5758 44.7273 70.2576 44.4092 70.2576 44.0167C70.2576 43.6243 70.5758 43.3061 70.9683 43.3061Z" fill="black"/>
<path d="M73.8112 43.3061C74.2037 43.3061 74.5219 43.6243 74.5219 44.0167C74.5219 44.4092 74.2037 44.7273 73.8112 44.7273C73.4188 44.7273 73.1006 44.4092 73.1006 44.0167C73.1006 43.6243 73.4188 43.3061 73.8112 43.3061Z" fill="black"/>
<path d="M76.6518 43.3061C77.0443 43.3061 77.3624 43.6243 77.3624 44.0167C77.3624 44.4092 77.0443 44.7273 76.6518 44.7273C76.2593 44.7273 75.9412 44.4092 75.9412 44.0167C75.9412 43.6243 76.2593 43.3061 76.6518 43.3061Z" fill="black"/>
<path d="M79.4948 43.3061C79.8873 43.3061 80.2054 43.6243 80.2054 44.0167C80.2054 44.4092 79.8873 44.7273 79.4948 44.7273C79.1023 44.7273 78.7842 44.4092 78.7842 44.0167C78.7842 43.6243 79.1023 43.3061 79.4948 43.3061Z" fill="black"/>
<path d="M80.9147 43.306C81.3072 43.306 81.6253 43.6242 81.6253 44.0166C81.6253 44.4091 81.3072 44.7273 80.9147 44.7273C80.5222 44.7273 80.2041 44.4091 80.2041 44.0166C80.2041 43.6242 80.5222 43.306 80.9147 43.306Z" fill="black"/>
<path d="M82.3375 43.306C82.7299 43.306 83.0481 43.6242 83.0481 44.0166C83.0481 44.4091 82.7299 44.7273 82.3375 44.7273C81.945 44.7273 81.6269 44.4091 81.6269 44.0166C81.6269 43.6242 81.945 43.306 82.3375 43.306Z" fill="black"/>
<path d="M59.5963 44.7274C59.9888 44.7274 60.3069 45.0456 60.3069 45.4381C60.3069 45.8305 59.9888 46.1487 59.5963 46.1487C59.2039 46.1487 58.8857 45.8305 58.8857 45.4381C58.8857 45.0456 59.2039 44.7274 59.5963 44.7274Z" fill="black"/>
<path d="M62.4402 44.7275C62.8327 44.7275 63.1508 45.0456 63.1508 45.4381C63.1508 45.8306 62.8327 46.1487 62.4402 46.1487C62.0478 46.1487 61.7296 45.8306 61.7296 45.4381C61.7296 45.0456 62.0478 44.7275 62.4402 44.7275Z" fill="black"/>
<path d="M63.862 44.7274C64.2544 44.7274 64.5726 45.0456 64.5726 45.438C64.5726 45.8305 64.2544 46.1486 63.862 46.1486C63.4695 46.1486 63.1514 45.8305 63.1514 45.438C63.1514 45.0456 63.4695 44.7274 63.862 44.7274Z" fill="black"/>
<path d="M65.2836 44.7274C65.6761 44.7274 65.9942 45.0456 65.9942 45.4381C65.9942 45.8305 65.6761 46.1487 65.2836 46.1487C64.8912 46.1487 64.573 45.8305 64.573 45.4381C64.573 45.0456 64.8912 44.7274 65.2836 44.7274Z" fill="black"/>
<path d="M66.7028 44.7275C67.0953 44.7275 67.4134 45.0456 67.4134 45.4381C67.4134 45.8306 67.0953 46.1487 66.7028 46.1487C66.3103 46.1487 65.9922 45.8306 65.9922 45.4381C65.9922 45.0456 66.3103 44.7275 66.7028 44.7275Z" fill="black"/>
<path d="M68.1257 44.7272C68.5181 44.7272 68.8363 45.0454 68.8363 45.4378C68.8363 45.8303 68.5181 46.1485 68.1257 46.1485C67.7332 46.1485 67.4151 45.8303 67.4151 45.4378C67.4151 45.0454 67.7332 44.7272 68.1257 44.7272Z" fill="black"/>
<path d="M76.6518 44.7275C77.0443 44.7275 77.3624 45.0456 77.3624 45.4381C77.3624 45.8306 77.0443 46.1487 76.6518 46.1487C76.2593 46.1487 75.9412 45.8306 75.9412 45.4381C75.9412 45.0456 76.2593 44.7275 76.6518 44.7275Z" fill="black"/>
<path d="M85.1803 44.7272C85.5728 44.7272 85.8909 45.0454 85.8909 45.4378C85.8909 45.8303 85.5728 46.1485 85.1803 46.1485C84.7879 46.1485 84.4697 45.8303 84.4697 45.4378C84.4697 45.0454 84.7879 44.7272 85.1803 44.7272Z" fill="black"/>
<path d="M86.6001 44.7274C86.9926 44.7274 87.3107 45.0456 87.3107 45.4381C87.3107 45.8305 86.9926 46.1487 86.6001 46.1487C86.2077 46.1487 85.8895 45.8305 85.8895 45.4381C85.8895 45.0456 86.2077 44.7274 86.6001 44.7274Z" fill="black"/>
<path d="M88.0223 44.7274C88.4148 44.7274 88.733 45.0456 88.733 45.4381C88.733 45.8305 88.4148 46.1487 88.0223 46.1487C87.6299 46.1487 87.3117 45.8305 87.3117 45.4381C87.3117 45.0456 87.6299 44.7274 88.0223 44.7274Z" fill="black"/>
<path d="M89.443 44.7272C89.8354 44.7272 90.1536 45.0454 90.1536 45.4378C90.1536 45.8303 89.8354 46.1485 89.443 46.1485C89.0505 46.1485 88.7324 45.8303 88.7324 45.4378C88.7324 45.0454 89.0505 44.7272 89.443 44.7272Z" fill="black"/>
<path d="M90.8658 44.7274C91.2583 44.7274 91.5764 45.0455 91.5764 45.438C91.5764 45.8304 91.2583 46.1486 90.8658 46.1486C90.4734 46.1486 90.1552 45.8304 90.1552 45.438C90.1552 45.0455 90.4734 44.7274 90.8658 44.7274Z" fill="black"/>
<path d="M59.5963 46.1487C59.9888 46.1487 60.3069 46.4668 60.3069 46.8593C60.3069 47.2517 59.9888 47.5699 59.5963 47.5699C59.2039 47.5699 58.8857 47.2517 58.8857 46.8593C58.8857 46.4668 59.2039 46.1487 59.5963 46.1487Z" fill="black"/>
<path d="M63.862 46.1488C64.2544 46.1488 64.5726 46.467 64.5726 46.8594C64.5726 47.2519 64.2544 47.57 63.862 47.57C63.4695 47.57 63.1514 47.2519 63.1514 46.8594C63.1514 46.467 63.4695 46.1488 63.862 46.1488Z" fill="black"/>
<path d="M70.9683 46.1489C71.3607 46.1489 71.6789 46.467 71.6789 46.8595C71.6789 47.252 71.3607 47.5701 70.9683 47.5701C70.5758 47.5701 70.2576 47.252 70.2576 46.8595C70.2576 46.467 70.5758 46.1489 70.9683 46.1489Z" fill="black"/>
<path d="M72.3883 46.1487C72.7808 46.1487 73.0989 46.4668 73.0989 46.8593C73.0989 47.2517 72.7808 47.5699 72.3883 47.5699C71.9959 47.5699 71.6777 47.2517 71.6777 46.8593C71.6777 46.4668 71.9959 46.1487 72.3883 46.1487Z" fill="black"/>
<path d="M73.8112 46.1489C74.2037 46.1489 74.5219 46.467 74.5219 46.8595C74.5219 47.252 74.2037 47.5701 73.8112 47.5701C73.4188 47.5701 73.1006 47.252 73.1006 46.8595C73.1006 46.467 73.4188 46.1489 73.8112 46.1489Z" fill="black"/>
<path d="M78.0738 46.1489C78.4663 46.1489 78.7844 46.467 78.7844 46.8595C78.7844 47.252 78.4663 47.5701 78.0738 47.5701C77.6813 47.5701 77.3632 47.252 77.3632 46.8595C77.3632 46.467 77.6813 46.1489 78.0738 46.1489Z" fill="black"/>
<path d="M82.3375 46.1487C82.7299 46.1487 83.0481 46.4668 83.0481 46.8593C83.0481 47.2517 82.7299 47.5699 82.3375 47.5699C81.945 47.5699 81.6269 47.2517 81.6269 46.8593C81.6269 46.4668 81.945 46.1487 82.3375 46.1487Z" fill="black"/>
<path d="M86.6001 46.1487C86.9926 46.1487 87.3107 46.4668 87.3107 46.8593C87.3107 47.2517 86.9926 47.5699 86.6001 47.5699C86.2077 47.5699 85.8895 47.2517 85.8895 46.8593C85.8895 46.4668 86.2077 46.1487 86.6001 46.1487Z" fill="black"/>
<path d="M92.285 46.1487C92.6775 46.1487 92.9956 46.4668 92.9956 46.8593C92.9956 47.2517 92.6775 47.5699 92.285 47.5699C91.8925 47.5699 91.5744 47.2517 91.5744 46.8593C91.5744 46.4668 91.8925 46.1487 92.285 46.1487Z" fill="black"/>
<path d="M59.5963 47.5699C59.9888 47.5699 60.3069 47.888 60.3069 48.2805C60.3069 48.673 59.9888 48.9911 59.5963 48.9911C59.2039 48.9911 58.8857 48.673 58.8857 48.2805C58.8857 47.888 59.2039 47.5699 59.5963 47.5699Z" fill="black"/>
<path d="M63.862 47.5697C64.2544 47.5697 64.5726 47.8879 64.5726 48.2803C64.5726 48.6728 64.2544 48.9909 63.862 48.9909C63.4695 48.9909 63.1514 48.6728 63.1514 48.2803C63.1514 47.8879 63.4695 47.5697 63.862 47.5697Z" fill="black"/>
<path d="M65.2836 47.5699C65.6761 47.5699 65.9942 47.888 65.9942 48.2805C65.9942 48.673 65.6761 48.9911 65.2836 48.9911C64.8912 48.9911 64.573 48.673 64.573 48.2805C64.573 47.888 64.8912 47.5699 65.2836 47.5699Z" fill="black"/>
<path d="M68.1257 47.5699C68.5181 47.5699 68.8363 47.888 68.8363 48.2805C68.8363 48.673 68.5181 48.9911 68.1257 48.9911C67.7332 48.9911 67.4151 48.673 67.4151 48.2805C67.4151 47.888 67.7332 47.5699 68.1257 47.5699Z" fill="black"/>
<path d="M69.5458 47.5698C69.9383 47.5698 70.2564 47.8879 70.2564 48.2804C70.2564 48.6728 69.9383 48.991 69.5458 48.991C69.1533 48.991 68.8352 48.6728 68.8352 48.2804C68.8352 47.8879 69.1533 47.5698 69.5458 47.5698Z" fill="black"/>
<path d="M70.9683 47.5698C71.3607 47.5698 71.6789 47.8879 71.6789 48.2804C71.6789 48.6728 71.3607 48.991 70.9683 48.991C70.5758 48.991 70.2576 48.6728 70.2576 48.2804C70.2576 47.8879 70.5758 47.5698 70.9683 47.5698Z" fill="black"/>
<path d="M75.2312 47.5699C75.6236 47.5699 75.9418 47.888 75.9418 48.2805C75.9418 48.673 75.6236 48.9911 75.2312 48.9911C74.8387 48.9911 74.5206 48.673 74.5206 48.2805C74.5206 47.888 74.8387 47.5699 75.2312 47.5699Z" fill="black"/>
<path d="M78.0738 47.5698C78.4663 47.5698 78.7844 47.8879 78.7844 48.2804C78.7844 48.6728 78.4663 48.991 78.0738 48.991C77.6813 48.991 77.3632 48.6728 77.3632 48.2804C77.3632 47.8879 77.6813 47.5698 78.0738 47.5698Z" fill="black"/>
<path d="M79.4948 47.5698C79.8873 47.5698 80.2054 47.8879 80.2054 48.2804C80.2054 48.6728 79.8873 48.991 79.4948 48.991C79.1023 48.991 78.7842 48.6728 78.7842 48.2804C78.7842 47.8879 79.1023 47.5698 79.4948 47.5698Z" fill="black"/>
<path d="M80.9147 47.5697C81.3072 47.5697 81.6253 47.8879 81.6253 48.2803C81.6253 48.6728 81.3072 48.9909 80.9147 48.9909C80.5222 48.9909 80.2041 48.6728 80.2041 48.2803C80.2041 47.8879 80.5222 47.5697 80.9147 47.5697Z" fill="black"/>
<path d="M82.3375 47.5699C82.7299 47.5699 83.0481 47.888 83.0481 48.2805C83.0481 48.673 82.7299 48.9911 82.3375 48.9911C81.945 48.9911 81.6269 48.673 81.6269 48.2805C81.6269 47.888 81.945 47.5699 82.3375 47.5699Z" fill="black"/>
<path d="M85.1803 47.5699C85.5728 47.5699 85.8909 47.888 85.8909 48.2805C85.8909 48.673 85.5728 48.9911 85.1803 48.9911C84.7879 48.9911 84.4697 48.673 84.4697 48.2805C84.4697 47.888 84.7879 47.5699 85.1803 47.5699Z" fill="black"/>
<path d="M86.6001 47.5699C86.9926 47.5699 87.3107 47.888 87.3107 48.2805C87.3107 48.673 86.9926 48.9911 86.6001 48.9911C86.2077 48.9911 85.8895 48.673 85.8895 48.2805C85.8895 47.888 86.2077 47.5699 86.6001 47.5699Z" fill="black"/>
<path d="M89.443 47.5699C89.8354 47.5699 90.1536 47.888 90.1536 48.2805C90.1536 48.673 89.8354 48.9911 89.443 48.9911C89.0505 48.9911 88.7324 48.673 88.7324 48.2805C88.7324 47.888 89.0505 47.5699 89.443 47.5699Z" fill="black"/>
<path d="M92.285 47.5699C92.6775 47.5699 92.9956 47.888 92.9956 48.2805C92.9956 48.673 92.6775 48.9911 92.285 48.9911C91.8925 48.9911 91.5744 48.673 91.5744 48.2805C91.5744 47.888 91.8925 47.5699 92.285 47.5699Z" fill="black"/>
<path d="M93.7067 47.5697C94.0992 47.5697 94.4173 47.8879 94.4173 48.2803C94.4173 48.6728 94.0992 48.9909 93.7067 48.9909C93.3142 48.9909 92.9961 48.6728 92.9961 48.2803C92.9961 47.8879 93.3142 47.5697 93.7067 47.5697Z" fill="black"/>
<path d="M59.5963 48.9911C59.9888 48.9911 60.3069 49.3092 60.3069 49.7017C60.3069 50.0942 59.9888 50.4123 59.5963 50.4123C59.2039 50.4123 58.8857 50.0942 58.8857 49.7017C58.8857 49.3092 59.2039 48.9911 59.5963 48.9911Z" fill="black"/>
<path d="M62.4402 48.9911C62.8327 48.9911 63.1508 49.3093 63.1508 49.7017C63.1508 50.0942 62.8327 50.4123 62.4402 50.4123C62.0478 50.4123 61.7296 50.0942 61.7296 49.7017C61.7296 49.3093 62.0478 48.9911 62.4402 48.9911Z" fill="black"/>
<path d="M70.9683 48.9911C71.3607 48.9911 71.6789 49.3093 71.6789 49.7017C71.6789 50.0942 71.3607 50.4123 70.9683 50.4123C70.5758 50.4123 70.2576 50.0942 70.2576 49.7017C70.2576 49.3093 70.5758 48.9911 70.9683 48.9911Z" fill="black"/>
<path d="M72.3883 48.9911C72.7808 48.9911 73.0989 49.3092 73.0989 49.7017C73.0989 50.0942 72.7808 50.4123 72.3883 50.4123C71.9959 50.4123 71.6777 50.0942 71.6777 49.7017C71.6777 49.3092 71.9959 48.9911 72.3883 48.9911Z" fill="black"/>
<path d="M73.8112 48.9911C74.2037 48.9911 74.5219 49.3093 74.5219 49.7017C74.5219 50.0942 74.2037 50.4123 73.8112 50.4123C73.4188 50.4123 73.1006 50.0942 73.1006 49.7017C73.1006 49.3093 73.4188 48.9911 73.8112 48.9911Z" fill="black"/>
<path d="M75.2312 48.9911C75.6236 48.9911 75.9418 49.3092 75.9418 49.7017C75.9418 50.0942 75.6236 50.4123 75.2312 50.4123C74.8387 50.4123 74.5206 50.0942 74.5206 49.7017C74.5206 49.3092 74.8387 48.9911 75.2312 48.9911Z" fill="black"/>
<path d="M78.0738 48.9911C78.4663 48.9911 78.7844 49.3093 78.7844 49.7017C78.7844 50.0942 78.4663 50.4123 78.0738 50.4123C77.6813 50.4123 77.3632 50.0942 77.3632 49.7017C77.3632 49.3093 77.6813 48.9911 78.0738 48.9911Z" fill="black"/>
<path d="M82.3375 48.9911C82.7299 48.9911 83.0481 49.3092 83.0481 49.7017C83.0481 50.0942 82.7299 50.4123 82.3375 50.4123C81.945 50.4123 81.6269 50.0942 81.6269 49.7017C81.6269 49.3092 81.945 48.9911 82.3375 48.9911Z" fill="black"/>
<path d="M93.7067 48.9911C94.0992 48.9911 94.4173 49.3092 94.4173 49.7017C94.4173 50.0942 94.0992 50.4123 93.7067 50.4123C93.3142 50.4123 92.9961 50.0942 92.9961 49.7017C92.9961 49.3092 93.3142 48.9911 93.7067 48.9911Z" fill="black"/>
<path d="M65.2836 50.4123C65.6761 50.4123 65.9942 50.7305 65.9942 51.1229C65.9942 51.5154 65.6761 51.8335 65.2836 51.8335C64.8912 51.8335 64.573 51.5154 64.573 51.1229C64.573 50.7305 64.8912 50.4123 65.2836 50.4123Z" fill="black"/>
<path d="M68.1257 50.4123C68.5181 50.4123 68.8363 50.7305 68.8363 51.1229C68.8363 51.5154 68.5181 51.8335 68.1257 51.8335C67.7332 51.8335 67.4151 51.5154 67.4151 51.1229C67.4151 50.7305 67.7332 50.4123 68.1257 50.4123Z" fill="black"/>
<path d="M72.3883 50.4123C72.7808 50.4123 73.0989 50.7305 73.0989 51.1229C73.0989 51.5154 72.7808 51.8335 72.3883 51.8335C71.9959 51.8335 71.6777 51.5154 71.6777 51.1229C71.6777 50.7305 71.9959 50.4123 72.3883 50.4123Z" fill="black"/>
<path d="M76.6518 50.4125C77.0443 50.4125 77.3624 50.7307 77.3624 51.1231C77.3624 51.5156 77.0443 51.8337 76.6518 51.8337C76.2593 51.8337 75.9412 51.5156 75.9412 51.1231C75.9412 50.7307 76.2593 50.4125 76.6518 50.4125Z" fill="black"/>
<path d="M79.4948 50.4125C79.8873 50.4125 80.2054 50.7307 80.2054 51.1231C80.2054 51.5156 79.8873 51.8337 79.4948 51.8337C79.1023 51.8337 78.7842 51.5156 78.7842 51.1231C78.7842 50.7307 79.1023 50.4125 79.4948 50.4125Z" fill="black"/>
<path d="M83.7573 50.4125C84.1498 50.4125 84.468 50.7307 84.468 51.1231C84.468 51.5156 84.1498 51.8337 83.7573 51.8337C83.3649 51.8337 83.0467 51.5156 83.0467 51.1231C83.0467 50.7307 83.3649 50.4125 83.7573 50.4125Z" fill="black"/>
<path d="M85.1803 50.4123C85.5728 50.4123 85.8909 50.7305 85.8909 51.1229C85.8909 51.5154 85.5728 51.8335 85.1803 51.8335C84.7879 51.8335 84.4697 51.5154 84.4697 51.1229C84.4697 50.7305 84.7879 50.4123 85.1803 50.4123Z" fill="black"/>
<path d="M86.6001 50.4123C86.9926 50.4123 87.3107 50.7305 87.3107 51.1229C87.3107 51.5154 86.9926 51.8335 86.6001 51.8335C86.2077 51.8335 85.8895 51.5154 85.8895 51.1229C85.8895 50.7305 86.2077 50.4123 86.6001 50.4123Z" fill="black"/>
<path d="M88.0223 50.4123C88.4148 50.4123 88.733 50.7305 88.733 51.1229C88.733 51.5154 88.4148 51.8335 88.0223 51.8335C87.6299 51.8335 87.3117 51.5154 87.3117 51.1229C87.3117 50.7305 87.6299 50.4123 88.0223 50.4123Z" fill="black"/>
<path d="M90.8658 50.4125C91.2583 50.4125 91.5764 50.7307 91.5764 51.1231C91.5764 51.5156 91.2583 51.8337 90.8658 51.8337C90.4734 51.8337 90.1552 51.5156 90.1552 51.1231C90.1552 50.7307 90.4734 50.4125 90.8658 50.4125Z" fill="black"/>
<path d="M92.285 50.4123C92.6775 50.4123 92.9956 50.7305 92.9956 51.1229C92.9956 51.5154 92.6775 51.8335 92.285 51.8335C91.8925 51.8335 91.5744 51.5154 91.5744 51.1229C91.5744 50.7305 91.8925 50.4123 92.285 50.4123Z" fill="black"/>
<path d="M93.7067 50.4125C94.0992 50.4125 94.4173 50.7306 94.4173 51.1231C94.4173 51.5156 94.0992 51.8337 93.7067 51.8337C93.3142 51.8337 92.9961 51.5156 92.9961 51.1231C92.9961 50.7306 93.3142 50.4125 93.7067 50.4125Z" fill="black"/>
<path d="M59.5963 51.8336C59.9888 51.8336 60.3069 52.1517 60.3069 52.5442C60.3069 52.9366 59.9888 53.2548 59.5963 53.2548C59.2039 53.2548 58.8857 52.9366 58.8857 52.5442C58.8857 52.1517 59.2039 51.8336 59.5963 51.8336Z" fill="black"/>
<path d="M61.021 51.8336C61.4135 51.8336 61.7316 52.1517 61.7316 52.5442C61.7316 52.9366 61.4135 53.2548 61.021 53.2548C60.6285 53.2548 60.3104 52.9366 60.3104 52.5442C60.3104 52.1517 60.6285 51.8336 61.021 51.8336Z" fill="black"/>
<path d="M65.2836 51.8336C65.6761 51.8336 65.9942 52.1517 65.9942 52.5442C65.9942 52.9366 65.6761 53.2548 65.2836 53.2548C64.8912 53.2548 64.573 52.9366 64.573 52.5442C64.573 52.1517 64.8912 51.8336 65.2836 51.8336Z" fill="black"/>
<path d="M66.7028 51.8334C67.0953 51.8334 67.4134 52.1515 67.4134 52.544C67.4134 52.9365 67.0953 53.2546 66.7028 53.2546C66.3103 53.2546 65.9922 52.9365 65.9922 52.544C65.9922 52.1515 66.3103 51.8334 66.7028 51.8334Z" fill="black"/>
<path d="M69.5458 51.8334C69.9383 51.8334 70.2564 52.1515 70.2564 52.544C70.2564 52.9365 69.9383 53.2546 69.5458 53.2546C69.1533 53.2546 68.8352 52.9365 68.8352 52.544C68.8352 52.1515 69.1533 51.8334 69.5458 51.8334Z" fill="black"/>
<path d="M82.3375 51.8336C82.7299 51.8336 83.0481 52.1517 83.0481 52.5442C83.0481 52.9366 82.7299 53.2548 82.3375 53.2548C81.945 53.2548 81.6269 52.9366 81.6269 52.5442C81.6269 52.1517 81.945 51.8336 82.3375 51.8336Z" fill="black"/>
<path d="M89.443 51.8336C89.8354 51.8336 90.1536 52.1517 90.1536 52.5442C90.1536 52.9366 89.8354 53.2548 89.443 53.2548C89.0505 53.2548 88.7324 52.9366 88.7324 52.5442C88.7324 52.1517 89.0505 51.8336 89.443 51.8336Z" fill="black"/>
<path d="M92.285 51.8336C92.6775 51.8336 92.9956 52.1517 92.9956 52.5442C92.9956 52.9366 92.6775 53.2548 92.285 53.2548C91.8925 53.2548 91.5744 52.9366 91.5744 52.5442C91.5744 52.1517 91.8925 51.8336 92.285 51.8336Z" fill="black"/>
<path d="M59.5963 53.2545C59.9888 53.2545 60.3069 53.5727 60.3069 53.9652C60.3069 54.3576 59.9888 54.6758 59.5963 54.6758C59.2039 54.6758 58.8857 54.3576 58.8857 53.9652C58.8857 53.5727 59.2039 53.2545 59.5963 53.2545Z" fill="black"/>
<path d="M63.862 53.2548C64.2544 53.2548 64.5726 53.5729 64.5726 53.9654C64.5726 54.3578 64.2544 54.676 63.862 54.676C63.4695 54.676 63.1514 54.3578 63.1514 53.9654C63.1514 53.5729 63.4695 53.2548 63.862 53.2548Z" fill="black"/>
<path d="M66.7028 53.2548C67.0953 53.2548 67.4134 53.5729 67.4134 53.9654C67.4134 54.3578 67.0953 54.676 66.7028 54.676C66.3103 54.676 65.9922 54.3578 65.9922 53.9654C65.9922 53.5729 66.3103 53.2548 66.7028 53.2548Z" fill="black"/>
<path d="M68.1257 53.2548C68.5181 53.2548 68.8363 53.5729 68.8363 53.9654C68.8363 54.3578 68.5181 54.676 68.1257 54.676C67.7332 54.676 67.4151 54.3578 67.4151 53.9654C67.4151 53.5729 67.7332 53.2548 68.1257 53.2548Z" fill="black"/>
<path d="M69.5458 53.2546C69.9383 53.2546 70.2564 53.5728 70.2564 53.9652C70.2564 54.3577 69.9383 54.6759 69.5458 54.6759C69.1533 54.6759 68.8352 54.3577 68.8352 53.9652C68.8352 53.5728 69.1533 53.2546 69.5458 53.2546Z" fill="black"/>
<path d="M70.9683 53.2546C71.3607 53.2546 71.6789 53.5728 71.6789 53.9652C71.6789 54.3577 71.3607 54.6759 70.9683 54.6759C70.5758 54.6759 70.2576 54.3577 70.2576 53.9652C70.2576 53.5728 70.5758 53.2546 70.9683 53.2546Z" fill="black"/>
<path d="M73.8112 53.2548C74.2037 53.2548 74.5219 53.5729 74.5219 53.9654C74.5219 54.3578 74.2037 54.676 73.8112 54.676C73.4188 54.676 73.1006 54.3578 73.1006 53.9654C73.1006 53.5729 73.4188 53.2548 73.8112 53.2548Z" fill="black"/>
<path d="M75.2312 53.2548C75.6236 53.2548 75.9418 53.5729 75.9418 53.9654C75.9418 54.3578 75.6236 54.676 75.2312 54.676C74.8387 54.676 74.5206 54.3578 74.5206 53.9654C74.5206 53.5729 74.8387 53.2548 75.2312 53.2548Z" fill="black"/>
<path d="M76.6518 53.2546C77.0443 53.2546 77.3624 53.5728 77.3624 53.9652C77.3624 54.3577 77.0443 54.6759 76.6518 54.6759C76.2593 54.6759 75.9412 54.3577 75.9412 53.9652C75.9412 53.5728 76.2593 53.2546 76.6518 53.2546Z" fill="black"/>
<path d="M80.9147 53.2548C81.3072 53.2548 81.6253 53.5729 81.6253 53.9654C81.6253 54.3578 81.3072 54.676 80.9147 54.676C80.5222 54.676 80.2041 54.3578 80.2041 53.9654C80.2041 53.5729 80.5222 53.2548 80.9147 53.2548Z" fill="black"/>
<path d="M82.3375 53.2548C82.7299 53.2548 83.0481 53.5729 83.0481 53.9654C83.0481 54.3578 82.7299 54.676 82.3375 54.676C81.945 54.676 81.6269 54.3578 81.6269 53.9654C81.6269 53.5729 81.945 53.2548 82.3375 53.2548Z" fill="black"/>
<path d="M83.7573 53.2548C84.1498 53.2548 84.468 53.5729 84.468 53.9654C84.468 54.3578 84.1498 54.676 83.7573 54.676C83.3649 54.676 83.0467 54.3578 83.0467 53.9654C83.0467 53.5729 83.3649 53.2548 83.7573 53.2548Z" fill="black"/>
<path d="M86.6001 53.2548C86.9926 53.2548 87.3107 53.5729 87.3107 53.9654C87.3107 54.3578 86.9926 54.676 86.6001 54.676C86.2077 54.676 85.8895 54.3578 85.8895 53.9654C85.8895 53.5729 86.2077 53.2548 86.6001 53.2548Z" fill="black"/>
<path d="M89.443 53.2548C89.8354 53.2548 90.1536 53.5729 90.1536 53.9654C90.1536 54.3578 89.8354 54.676 89.443 54.676C89.0505 54.676 88.7324 54.3578 88.7324 53.9654C88.7324 53.5729 89.0505 53.2548 89.443 53.2548Z" fill="black"/>
<path d="M92.285 53.2548C92.6775 53.2548 92.9956 53.5729 92.9956 53.9654C92.9956 54.3578 92.6775 54.676 92.285 54.676C91.8925 54.676 91.5744 54.3578 91.5744 53.9654C91.5744 53.5729 91.8925 53.2548 92.285 53.2548Z" fill="black"/>
<path d="M93.7067 53.2548C94.0992 53.2548 94.4173 53.5729 94.4173 53.9654C94.4173 54.3578 94.0992 54.676 93.7067 54.676C93.3142 54.676 92.9961 54.3578 92.9961 53.9654C92.9961 53.5729 93.3142 53.2548 93.7067 53.2548Z" fill="black"/>
<path d="M59.5963 54.6758C59.9888 54.6758 60.3069 54.9939 60.3069 55.3864C60.3069 55.7789 59.9888 56.097 59.5963 56.097C59.2039 56.097 58.8857 55.7789 58.8857 55.3864C58.8857 54.9939 59.2039 54.6758 59.5963 54.6758Z" fill="black"/>
<path d="M63.862 54.6759C64.2544 54.6759 64.5726 54.9941 64.5726 55.3865C64.5726 55.779 64.2544 56.0971 63.862 56.0971C63.4695 56.0971 63.1514 55.779 63.1514 55.3865C63.1514 54.9941 63.4695 54.6759 63.862 54.6759Z" fill="black"/>
<path d="M66.7028 54.6761C67.0953 54.6761 67.4134 54.9943 67.4134 55.3868C67.4134 55.7792 67.0953 56.0974 66.7028 56.0974C66.3103 56.0974 65.9922 55.7792 65.9922 55.3868C65.9922 54.9943 66.3103 54.6761 66.7028 54.6761Z" fill="black"/>
<path d="M72.3883 54.6758C72.7808 54.6758 73.0989 54.9939 73.0989 55.3864C73.0989 55.7789 72.7808 56.097 72.3883 56.097C71.9959 56.097 71.6777 55.7789 71.6777 55.3864C71.6777 54.9939 71.9959 54.6758 72.3883 54.6758Z" fill="black"/>
<path d="M75.2312 54.676C75.6236 54.676 75.9418 54.9941 75.9418 55.3866C75.9418 55.7791 75.6236 56.0972 75.2312 56.0972C74.8387 56.0972 74.5206 55.7791 74.5206 55.3866C74.5206 54.9941 74.8387 54.676 75.2312 54.676Z" fill="black"/>
<path d="M79.4948 54.676C79.8873 54.676 80.2054 54.9942 80.2054 55.3866C80.2054 55.7791 79.8873 56.0972 79.4948 56.0972C79.1023 56.0972 78.7842 55.7791 78.7842 55.3866C78.7842 54.9942 79.1023 54.676 79.4948 54.676Z" fill="black"/>
<path d="M83.7573 54.6761C84.1498 54.6761 84.468 54.9943 84.468 55.3868C84.468 55.7792 84.1498 56.0974 83.7573 56.0974C83.3649 56.0974 83.0467 55.7792 83.0467 55.3868C83.0467 54.9943 83.3649 54.6761 83.7573 54.6761Z" fill="black"/>
<path d="M89.443 54.676C89.8354 54.676 90.1536 54.9941 90.1536 55.3866C90.1536 55.7791 89.8354 56.0972 89.443 56.0972C89.0505 56.0972 88.7324 55.7791 88.7324 55.3866C88.7324 54.9941 89.0505 54.676 89.443 54.676Z" fill="black"/>
<path d="M93.7067 54.6761C94.0992 54.6761 94.4173 54.9943 94.4173 55.3868C94.4173 55.7792 94.0992 56.0974 93.7067 56.0974C93.3142 56.0974 92.9961 55.7792 92.9961 55.3868C92.9961 54.9943 93.3142 54.6761 93.7067 54.6761Z" fill="black"/>
<path d="M59.5963 56.097C59.9888 56.097 60.3069 56.4151 60.3069 56.8076C60.3069 57.2001 59.9888 57.5182 59.5963 57.5182C59.2039 57.5182 58.8857 57.2001 58.8857 56.8076C58.8857 56.4151 59.2039 56.097 59.5963 56.097Z" fill="black"/>
<path d="M62.4402 56.097C62.8327 56.097 63.1508 56.4152 63.1508 56.8076C63.1508 57.2001 62.8327 57.5182 62.4402 57.5182C62.0478 57.5182 61.7296 57.2001 61.7296 56.8076C61.7296 56.4152 62.0478 56.097 62.4402 56.097Z" fill="black"/>
<path d="M66.7028 56.097C67.0953 56.097 67.4134 56.4152 67.4134 56.8076C67.4134 57.2001 67.0953 57.5182 66.7028 57.5182C66.3103 57.5182 65.9922 57.2001 65.9922 56.8076C65.9922 56.4152 66.3103 56.097 66.7028 56.097Z" fill="black"/>
<path d="M68.1257 56.0974C68.5181 56.0974 68.8363 56.4156 68.8363 56.808C68.8363 57.2005 68.5181 57.5186 68.1257 57.5186C67.7332 57.5186 67.4151 57.2005 67.4151 56.808C67.4151 56.4156 67.7332 56.0974 68.1257 56.0974Z" fill="black"/>
<path d="M70.9683 56.0969C71.3607 56.0969 71.6789 56.4151 71.6789 56.8075C71.6789 57.2 71.3607 57.5181 70.9683 57.5181C70.5758 57.5181 70.2576 57.2 70.2576 56.8075C70.2576 56.4151 70.5758 56.0969 70.9683 56.0969Z" fill="black"/>
<path d="M75.2312 56.0972C75.6236 56.0972 75.9418 56.4154 75.9418 56.8078C75.9418 57.2003 75.6236 57.5184 75.2312 57.5184C74.8387 57.5184 74.5206 57.2003 74.5206 56.8078C74.5206 56.4154 74.8387 56.0972 75.2312 56.0972Z" fill="black"/>
<path d="M80.9147 56.097C81.3072 56.097 81.6253 56.4152 81.6253 56.8077C81.6253 57.2001 81.3072 57.5183 80.9147 57.5183C80.5222 57.5183 80.2041 57.2001 80.2041 56.8077C80.2041 56.4152 80.5222 56.097 80.9147 56.097Z" fill="black"/>
<path d="M82.3375 56.0974C82.7299 56.0974 83.0481 56.4156 83.0481 56.808C83.0481 57.2005 82.7299 57.5186 82.3375 57.5186C81.945 57.5186 81.6269 57.2005 81.6269 56.808C81.6269 56.4156 81.945 56.0974 82.3375 56.0974Z" fill="black"/>
<path d="M83.7573 56.097C84.1498 56.097 84.468 56.4152 84.468 56.8076C84.468 57.2001 84.1498 57.5182 83.7573 57.5182C83.3649 57.5182 83.0467 57.2001 83.0467 56.8076C83.0467 56.4152 83.3649 56.097 83.7573 56.097Z" fill="black"/>
<path d="M85.1803 56.0972C85.5728 56.0972 85.8909 56.4154 85.8909 56.8078C85.8909 57.2003 85.5728 57.5184 85.1803 57.5184C84.7879 57.5184 84.4697 57.2003 84.4697 56.8078C84.4697 56.4154 84.7879 56.0972 85.1803 56.0972Z" fill="black"/>
<path d="M86.6001 56.0972C86.9926 56.0972 87.3107 56.4154 87.3107 56.8078C87.3107 57.2003 86.9926 57.5184 86.6001 57.5184C86.2077 57.5184 85.8895 57.2003 85.8895 56.8078C85.8895 56.4154 86.2077 56.0972 86.6001 56.0972Z" fill="black"/>
<path d="M88.0223 56.0972C88.4148 56.0972 88.733 56.4154 88.733 56.8078C88.733 57.2003 88.4148 57.5184 88.0223 57.5184C87.6299 57.5184 87.3117 57.2003 87.3117 56.8078C87.3117 56.4154 87.6299 56.0972 88.0223 56.0972Z" fill="black"/>
<path d="M90.8658 56.097C91.2583 56.097 91.5764 56.4152 91.5764 56.8076C91.5764 57.2001 91.2583 57.5182 90.8658 57.5182C90.4734 57.5182 90.1552 57.2001 90.1552 56.8076C90.1552 56.4152 90.4734 56.097 90.8658 56.097Z" fill="black"/>
<path d="M70.9683 57.5183C71.3607 57.5183 71.6789 57.8364 71.6789 58.2289C71.6789 58.6214 71.3607 58.9395 70.9683 58.9395C70.5758 58.9395 70.2576 58.6214 70.2576 58.2289C70.2576 57.8364 70.5758 57.5183 70.9683 57.5183Z" fill="black"/>
<path d="M72.3883 57.5182C72.7808 57.5182 73.0989 57.8364 73.0989 58.2288C73.0989 58.6213 72.7808 58.9394 72.3883 58.9394C71.9959 58.9394 71.6777 58.6213 71.6777 58.2288C71.6777 57.8364 71.9959 57.5182 72.3883 57.5182Z" fill="black"/>
<path d="M73.8112 57.5184C74.2037 57.5184 74.5219 57.8366 74.5219 58.229C74.5219 58.6215 74.2037 58.9396 73.8112 58.9396C73.4188 58.9396 73.1006 58.6215 73.1006 58.229C73.1006 57.8366 73.4188 57.5184 73.8112 57.5184Z" fill="black"/>
<path d="M76.6518 57.5183C77.0443 57.5183 77.3624 57.8364 77.3624 58.2289C77.3624 58.6214 77.0443 58.9395 76.6518 58.9395C76.2593 58.9395 75.9412 58.6214 75.9412 58.2289C75.9412 57.8364 76.2593 57.5183 76.6518 57.5183Z" fill="black"/>
<path d="M78.0738 57.5184C78.4663 57.5184 78.7844 57.8366 78.7844 58.229C78.7844 58.6215 78.4663 58.9396 78.0738 58.9396C77.6813 58.9396 77.3632 58.6215 77.3632 58.229C77.3632 57.8366 77.6813 57.5184 78.0738 57.5184Z" fill="black"/>
<path d="M79.4948 57.5183C79.8873 57.5183 80.2054 57.8364 80.2054 58.2289C80.2054 58.6214 79.8873 58.9395 79.4948 58.9395C79.1023 58.9395 78.7842 58.6214 78.7842 58.2289C78.7842 57.8364 79.1023 57.5183 79.4948 57.5183Z" fill="black"/>
<path d="M80.9147 57.5184C81.3072 57.5184 81.6253 57.8366 81.6253 58.229C81.6253 58.6215 81.3072 58.9397 80.9147 58.9397C80.5222 58.9397 80.2041 58.6215 80.2041 58.229C80.2041 57.8366 80.5222 57.5184 80.9147 57.5184Z" fill="black"/>
<path d="M82.3375 57.5184C82.7299 57.5184 83.0481 57.8366 83.0481 58.229C83.0481 58.6215 82.7299 58.9397 82.3375 58.9397C81.945 58.9397 81.6269 58.6215 81.6269 58.229C81.6269 57.8366 81.945 57.5184 82.3375 57.5184Z" fill="black"/>
<path d="M88.0223 57.5182C88.4148 57.5182 88.733 57.8364 88.733 58.2288C88.733 58.6213 88.4148 58.9394 88.0223 58.9394C87.6299 58.9394 87.3117 58.6213 87.3117 58.2288C87.3117 57.8364 87.6299 57.5182 88.0223 57.5182Z" fill="black"/>
<path d="M89.443 57.5184C89.8354 57.5184 90.1536 57.8366 90.1536 58.229C90.1536 58.6215 89.8354 58.9397 89.443 58.9397C89.0505 58.9397 88.7324 58.6215 88.7324 58.229C88.7324 57.8366 89.0505 57.5184 89.443 57.5184Z" fill="black"/>
<path d="M90.8658 57.5184C91.2583 57.5184 91.5764 57.8366 91.5764 58.229C91.5764 58.6215 91.2583 58.9396 90.8658 58.9396C90.4734 58.9396 90.1552 58.6215 90.1552 58.229C90.1552 57.8366 90.4734 57.5184 90.8658 57.5184Z" fill="black"/>
<path d="M78.0738 58.9398C78.4663 58.9398 78.7844 59.2579 78.7844 59.6504C78.7844 60.0429 78.4663 60.361 78.0738 60.361C77.6813 60.361 77.3632 60.0429 77.3632 59.6504C77.3632 59.2579 77.6813 58.9398 78.0738 58.9398Z" fill="black"/>
<path d="M79.4948 58.9397C79.8873 58.9397 80.2054 59.2578 80.2054 59.6503C80.2054 60.0428 79.8873 60.3609 79.4948 60.3609C79.1023 60.3609 78.7842 60.0428 78.7842 59.6503C78.7842 59.2578 79.1023 58.9397 79.4948 58.9397Z" fill="black"/>
<path d="M82.3375 58.9396C82.7299 58.9396 83.0481 59.2578 83.0481 59.6502C83.0481 60.0427 82.7299 60.3609 82.3375 60.3609C81.945 60.3609 81.6269 60.0427 81.6269 59.6502C81.6269 59.2578 81.945 58.9396 82.3375 58.9396Z" fill="black"/>
<path d="M85.1803 58.9396C85.5728 58.9396 85.8909 59.2578 85.8909 59.6502C85.8909 60.0427 85.5728 60.3609 85.1803 60.3609C84.7879 60.3609 84.4697 60.0427 84.4697 59.6502C84.4697 59.2578 84.7879 58.9396 85.1803 58.9396Z" fill="black"/>
<path d="M88.0223 58.9395C88.4148 58.9395 88.733 59.2576 88.733 59.6501C88.733 60.0425 88.4148 60.3607 88.0223 60.3607C87.6299 60.3607 87.3117 60.0425 87.3117 59.6501C87.3117 59.2576 87.6299 58.9395 88.0223 58.9395Z" fill="black"/>
<path d="M89.443 58.9396C89.8354 58.9396 90.1536 59.2578 90.1536 59.6502C90.1536 60.0427 89.8354 60.3609 89.443 60.3609C89.0505 60.3609 88.7324 60.0427 88.7324 59.6502C88.7324 59.2578 89.0505 58.9396 89.443 58.9396Z" fill="black"/>
<path d="M90.8658 58.9398C91.2583 58.9398 91.5764 59.2579 91.5764 59.6504C91.5764 60.0429 91.2583 60.361 90.8658 60.361C90.4734 60.361 90.1552 60.0429 90.1552 59.6504C90.1552 59.2579 90.4734 58.9398 90.8658 58.9398Z" fill="black"/>
<path d="M92.285 58.9396C92.6775 58.9396 92.9956 59.2578 92.9956 59.6502C92.9956 60.0427 92.6775 60.3609 92.285 60.3609C91.8925 60.3609 91.5744 60.0427 91.5744 59.6502C91.5744 59.2578 91.8925 58.9396 92.285 58.9396Z" fill="black"/>
<path d="M93.7067 58.9398C94.0992 58.9398 94.4173 59.258 94.4173 59.6504C94.4173 60.0429 94.0992 60.361 93.7067 60.361C93.3142 60.361 92.9961 60.0429 92.9961 59.6504C92.9961 59.258 93.3142 58.9398 93.7067 58.9398Z" fill="black"/>
<path d="M70.9683 60.3605C71.3607 60.3605 71.6789 60.6787 71.6789 61.0711C71.6789 61.4636 71.3607 61.7818 70.9683 61.7818C70.5758 61.7818 70.2576 61.4636 70.2576 61.0711C70.2576 60.6787 70.5758 60.3605 70.9683 60.3605Z" fill="black"/>
<path d="M72.3883 60.3607C72.7808 60.3607 73.0989 60.6788 73.0989 61.0713C73.0989 61.4637 72.7808 61.7819 72.3883 61.7819C71.9959 61.7819 71.6777 61.4637 71.6777 61.0713C71.6777 60.6788 71.9959 60.3607 72.3883 60.3607Z" fill="black"/>
<path d="M73.8112 60.3607C74.2037 60.3607 74.5219 60.6788 74.5219 61.0713C74.5219 61.4637 74.2037 61.7819 73.8112 61.7819C73.4188 61.7819 73.1006 61.4637 73.1006 61.0713C73.1006 60.6788 73.4188 60.3607 73.8112 60.3607Z" fill="black"/>
<path d="M76.6518 60.3605C77.0443 60.3605 77.3624 60.6787 77.3624 61.0711C77.3624 61.4636 77.0443 61.7818 76.6518 61.7818C76.2593 61.7818 75.9412 61.4636 75.9412 61.0711C75.9412 60.6787 76.2593 60.3605 76.6518 60.3605Z" fill="black"/>
<path d="M78.0738 60.3607C78.4663 60.3607 78.7844 60.6788 78.7844 61.0713C78.7844 61.4637 78.4663 61.7819 78.0738 61.7819C77.6813 61.7819 77.3632 61.4637 77.3632 61.0713C77.3632 60.6788 77.6813 60.3607 78.0738 60.3607Z" fill="black"/>
<path d="M82.3375 60.3609C82.7299 60.3609 83.0481 60.679 83.0481 61.0715C83.0481 61.464 82.7299 61.7821 82.3375 61.7821C81.945 61.7821 81.6269 61.464 81.6269 61.0715C81.6269 60.679 81.945 60.3609 82.3375 60.3609Z" fill="black"/>
<path d="M88.0223 60.3607C88.4148 60.3607 88.733 60.6788 88.733 61.0713C88.733 61.4637 88.4148 61.7819 88.0223 61.7819C87.6299 61.7819 87.3117 61.4637 87.3117 61.0713C87.3117 60.6788 87.6299 60.3607 88.0223 60.3607Z" fill="black"/>
<path d="M89.443 60.3609C89.8354 60.3609 90.1536 60.679 90.1536 61.0715C90.1536 61.464 89.8354 61.7821 89.443 61.7821C89.0505 61.7821 88.7324 61.464 88.7324 61.0715C88.7324 60.679 89.0505 60.3609 89.443 60.3609Z" fill="black"/>
<path d="M92.285 60.3609C92.6775 60.3609 92.9956 60.679 92.9956 61.0715C92.9956 61.464 92.6775 61.7821 92.285 61.7821C91.8925 61.7821 91.5744 61.464 91.5744 61.0715C91.5744 60.679 91.8925 60.3609 92.285 60.3609Z" fill="black"/>
<path d="M70.9683 61.7822C71.3607 61.7822 71.6789 62.1003 71.6789 62.4928C71.6789 62.8853 71.3607 63.2034 70.9683 63.2034C70.5758 63.2034 70.2576 62.8853 70.2576 62.4928C70.2576 62.1003 70.5758 61.7822 70.9683 61.7822Z" fill="black"/>
<path d="M72.3883 61.7823C72.7808 61.7823 73.0989 62.1004 73.0989 62.4929C73.0989 62.8854 72.7808 63.2035 72.3883 63.2035C71.9959 63.2035 71.6777 62.8854 71.6777 62.4929C71.6777 62.1004 71.9959 61.7823 72.3883 61.7823Z" fill="black"/>
<path d="M73.8112 61.782C74.2037 61.782 74.5219 62.1002 74.5219 62.4927C74.5219 62.8851 74.2037 63.2033 73.8112 63.2033C73.4188 63.2033 73.1006 62.8851 73.1006 62.4927C73.1006 62.1002 73.4188 61.782 73.8112 61.782Z" fill="black"/>
<path d="M76.6518 61.7822C77.0443 61.7822 77.3624 62.1003 77.3624 62.4928C77.3624 62.8853 77.0443 63.2034 76.6518 63.2034C76.2593 63.2034 75.9412 62.8853 75.9412 62.4928C75.9412 62.1003 76.2593 61.7822 76.6518 61.7822Z" fill="black"/>
<path d="M79.4948 61.7822C79.8873 61.7822 80.2054 62.1003 80.2054 62.4928C80.2054 62.8853 79.8873 63.2034 79.4948 63.2034C79.1023 63.2034 78.7842 62.8853 78.7842 62.4928C78.7842 62.1003 79.1023 61.7822 79.4948 61.7822Z" fill="black"/>
<path d="M80.9147 61.7821C81.3072 61.7821 81.6253 62.1003 81.6253 62.4927C81.6253 62.8852 81.3072 63.2033 80.9147 63.2033C80.5222 63.2033 80.2041 62.8852 80.2041 62.4927C80.2041 62.1003 80.5222 61.7821 80.9147 61.7821Z" fill="black"/>
<path d="M82.3375 61.7821C82.7299 61.7821 83.0481 62.1002 83.0481 62.4927C83.0481 62.8852 82.7299 63.2033 82.3375 63.2033C81.945 63.2033 81.6269 62.8852 81.6269 62.4927C81.6269 62.1002 81.945 61.7821 82.3375 61.7821Z" fill="black"/>
<path d="M83.7573 61.782C84.1498 61.782 84.468 62.1002 84.468 62.4927C84.468 62.8851 84.1498 63.2033 83.7573 63.2033C83.3649 63.2033 83.0467 62.8851 83.0467 62.4927C83.0467 62.1002 83.3649 61.782 83.7573 61.782Z" fill="black"/>
<path d="M85.1803 61.7821C85.5728 61.7821 85.8909 62.1002 85.8909 62.4927C85.8909 62.8852 85.5728 63.2033 85.1803 63.2033C84.7879 63.2033 84.4697 62.8852 84.4697 62.4927C84.4697 62.1002 84.7879 61.7821 85.1803 61.7821Z" fill="black"/>
<path d="M86.6001 61.7821C86.9926 61.7821 87.3107 62.1002 87.3107 62.4927C87.3107 62.8852 86.9926 63.2033 86.6001 63.2033C86.2077 63.2033 85.8895 62.8852 85.8895 62.4927C85.8895 62.1002 86.2077 61.7821 86.6001 61.7821Z" fill="black"/>
<path d="M88.0223 61.7823C88.4148 61.7823 88.733 62.1004 88.733 62.4929C88.733 62.8854 88.4148 63.2035 88.0223 63.2035C87.6299 63.2035 87.3117 62.8854 87.3117 62.4929C87.3117 62.1004 87.6299 61.7823 88.0223 61.7823Z" fill="black"/>
<path d="M89.443 61.7821C89.8354 61.7821 90.1536 62.1002 90.1536 62.4927C90.1536 62.8852 89.8354 63.2033 89.443 63.2033C89.0505 63.2033 88.7324 62.8852 88.7324 62.4927C88.7324 62.1002 89.0505 61.7821 89.443 61.7821Z" fill="black"/>
<path d="M90.8658 61.782C91.2583 61.782 91.5764 62.1002 91.5764 62.4927C91.5764 62.8851 91.2583 63.2033 90.8658 63.2033C90.4734 63.2033 90.1552 62.8851 90.1552 62.4927C90.1552 62.1002 90.4734 61.782 90.8658 61.782Z" fill="black"/>
<path d="M93.7067 61.7821C94.0992 61.7821 94.4173 62.1003 94.4173 62.4927C94.4173 62.8852 94.0992 63.2033 93.7067 63.2033C93.3142 63.2033 92.9961 62.8852 92.9961 62.4927C92.9961 62.1003 93.3142 61.7821 93.7067 61.7821Z" fill="black"/>
<path d="M70.9683 63.2035C71.3607 63.2035 71.6789 63.5217 71.6789 63.9141C71.6789 64.3066 71.3607 64.6248 70.9683 64.6248C70.5758 64.6248 70.2576 64.3066 70.2576 63.9141C70.2576 63.5217 70.5758 63.2035 70.9683 63.2035Z" fill="black"/>
<path d="M72.3883 63.2031C72.7808 63.2031 73.0989 63.5212 73.0989 63.9137C73.0989 64.3062 72.7808 64.6243 72.3883 64.6243C71.9959 64.6243 71.6777 64.3062 71.6777 63.9137C71.6777 63.5212 71.9959 63.2031 72.3883 63.2031Z" fill="black"/>
<path d="M80.9147 63.2035C81.3072 63.2035 81.6253 63.5216 81.6253 63.9141C81.6253 64.3066 81.3072 64.6247 80.9147 64.6247C80.5222 64.6247 80.2041 64.3066 80.2041 63.9141C80.2041 63.5216 80.5222 63.2035 80.9147 63.2035Z" fill="black"/>
<path d="M82.3375 63.2031C82.7299 63.2031 83.0481 63.5212 83.0481 63.9137C83.0481 64.3062 82.7299 64.6243 82.3375 64.6243C81.945 64.6243 81.6269 64.3062 81.6269 63.9137C81.6269 63.5212 81.945 63.2031 82.3375 63.2031Z" fill="black"/>
<path d="M83.7573 63.2034C84.1498 63.2034 84.468 63.5216 84.468 63.914C84.468 64.3065 84.1498 64.6246 83.7573 64.6246C83.3649 64.6246 83.0467 64.3065 83.0467 63.914C83.0467 63.5216 83.3649 63.2034 83.7573 63.2034Z" fill="black"/>
<path d="M85.1803 63.2033C85.5728 63.2033 85.8909 63.5215 85.8909 63.9139C85.8909 64.3064 85.5728 64.6245 85.1803 64.6245C84.7879 64.6245 84.4697 64.3064 84.4697 63.9139C84.4697 63.5215 84.7879 63.2033 85.1803 63.2033Z" fill="black"/>
<path d="M86.6001 63.2033C86.9926 63.2033 87.3107 63.5215 87.3107 63.9139C87.3107 64.3064 86.9926 64.6245 86.6001 64.6245C86.2077 64.6245 85.8895 64.3064 85.8895 63.9139C85.8895 63.5215 86.2077 63.2033 86.6001 63.2033Z" fill="black"/>
<path d="M90.8658 63.2034C91.2583 63.2034 91.5764 63.5216 91.5764 63.914C91.5764 64.3065 91.2583 64.6246 90.8658 64.6246C90.4734 64.6246 90.1552 64.3065 90.1552 63.914C90.1552 63.5216 90.4734 63.2034 90.8658 63.2034Z" fill="black"/>
<path d="M92.285 63.2033C92.6775 63.2033 92.9956 63.5215 92.9956 63.9139C92.9956 64.3064 92.6775 64.6245 92.285 64.6245C91.8925 64.6245 91.5744 64.3064 91.5744 63.9139C91.5744 63.5215 91.8925 63.2033 92.285 63.2033Z" fill="black"/>
<path d="M93.7067 63.2032C94.0992 63.2032 94.4173 63.5214 94.4173 63.9139C94.4173 64.3063 94.0992 64.6245 93.7067 64.6245C93.3142 64.6245 92.9961 64.3063 92.9961 63.9139C92.9961 63.5214 93.3142 63.2032 93.7067 63.2032Z" fill="black"/>
<path d="M70.9683 64.6249C71.3607 64.6249 71.6789 64.9431 71.6789 65.3355C71.6789 65.728 71.3607 66.0461 70.9683 66.0461C70.5758 66.0461 70.2576 65.728 70.2576 65.3355C70.2576 64.9431 70.5758 64.6249 70.9683 64.6249Z" fill="black"/>
<path d="M72.3883 64.6247C72.7808 64.6247 73.0989 64.9429 73.0989 65.3353C73.0989 65.7278 72.7808 66.0459 72.3883 66.0459C71.9959 66.0459 71.6777 65.7278 71.6777 65.3353C71.6777 64.9429 71.9959 64.6247 72.3883 64.6247Z" fill="black"/>
<path d="M75.2312 64.6245C75.6236 64.6245 75.9418 64.9427 75.9418 65.3351C75.9418 65.7276 75.6236 66.0457 75.2312 66.0457C74.8387 66.0457 74.5206 65.7276 74.5206 65.3351C74.5206 64.9427 74.8387 64.6245 75.2312 64.6245Z" fill="black"/>
<path d="M76.6518 64.6249C77.0443 64.6249 77.3624 64.9431 77.3624 65.3355C77.3624 65.728 77.0443 66.0461 76.6518 66.0461C76.2593 66.0461 75.9412 65.728 75.9412 65.3355C75.9412 64.9431 76.2593 64.6249 76.6518 64.6249Z" fill="black"/>
<path d="M82.3375 64.6245C82.7299 64.6245 83.0481 64.9427 83.0481 65.3351C83.0481 65.7276 82.7299 66.0457 82.3375 66.0457C81.945 66.0457 81.6269 65.7276 81.6269 65.3351C81.6269 64.9427 81.945 64.6245 82.3375 64.6245Z" fill="black"/>
<path d="M83.7573 64.6243C84.1498 64.6243 84.468 64.9425 84.468 65.3349C84.468 65.7274 84.1498 66.0455 83.7573 66.0455C83.3649 66.0455 83.0467 65.7274 83.0467 65.3349C83.0467 64.9425 83.3649 64.6243 83.7573 64.6243Z" fill="black"/>
<path d="M86.6001 64.6245C86.9926 64.6245 87.3107 64.9427 87.3107 65.3351C87.3107 65.7276 86.9926 66.0457 86.6001 66.0457C86.2077 66.0457 85.8895 65.7276 85.8895 65.3351C85.8895 64.9427 86.2077 64.6245 86.6001 64.6245Z" fill="black"/>
<path d="M90.8658 64.6243C91.2583 64.6243 91.5764 64.9425 91.5764 65.3349C91.5764 65.7274 91.2583 66.0455 90.8658 66.0455C90.4734 66.0455 90.1552 65.7274 90.1552 65.3349C90.1552 64.9425 90.4734 64.6243 90.8658 64.6243Z" fill="black"/>
<path d="M93.7067 64.6244C94.0992 64.6244 94.4173 64.9425 94.4173 65.335C94.4173 65.7275 94.0992 66.0456 93.7067 66.0456C93.3142 66.0456 92.9961 65.7275 92.9961 65.335C92.9961 64.9425 93.3142 64.6244 93.7067 64.6244Z" fill="black"/>
<path d="M72.3883 66.0459C72.7808 66.0459 73.0989 66.3641 73.0989 66.7566C73.0989 67.149 72.7808 67.4672 72.3883 67.4672C71.9959 67.4672 71.6777 67.149 71.6777 66.7566C71.6777 66.3641 71.9959 66.0459 72.3883 66.0459Z" fill="black"/>
<path d="M75.2312 66.0457C75.6236 66.0457 75.9418 66.3639 75.9418 66.7564C75.9418 67.1488 75.6236 67.467 75.2312 67.467C74.8387 67.467 74.5206 67.1488 74.5206 66.7564C74.5206 66.3639 74.8387 66.0457 75.2312 66.0457Z" fill="black"/>
<path d="M79.4948 66.0458C79.8873 66.0458 80.2054 66.364 80.2054 66.7564C80.2054 67.1489 79.8873 67.467 79.4948 67.467C79.1023 67.467 78.7842 67.1489 78.7842 66.7564C78.7842 66.364 79.1023 66.0458 79.4948 66.0458Z" fill="black"/>
<path d="M80.9147 66.0458C81.3072 66.0458 81.6253 66.3639 81.6253 66.7564C81.6253 67.1489 81.3072 67.467 80.9147 67.467C80.5222 67.467 80.2041 67.1489 80.2041 66.7564C80.2041 66.3639 80.5222 66.0458 80.9147 66.0458Z" fill="black"/>
<path d="M82.3375 66.0457C82.7299 66.0457 83.0481 66.3639 83.0481 66.7564C83.0481 67.1488 82.7299 67.467 82.3375 67.467C81.945 67.467 81.6269 67.1488 81.6269 66.7564C81.6269 66.3639 81.945 66.0457 82.3375 66.0457Z" fill="black"/>
<path d="M86.6001 66.0457C86.9926 66.0457 87.3107 66.3639 87.3107 66.7564C87.3107 67.1488 86.9926 67.467 86.6001 67.467C86.2077 67.467 85.8895 67.1488 85.8895 66.7564C85.8895 66.3639 86.2077 66.0457 86.6001 66.0457Z" fill="black"/>
<path d="M88.0223 66.0459C88.4148 66.0459 88.733 66.3641 88.733 66.7566C88.733 67.149 88.4148 67.4672 88.0223 67.4672C87.6299 67.4672 87.3117 67.149 87.3117 66.7566C87.3117 66.3641 87.6299 66.0459 88.0223 66.0459Z" fill="black"/>
<path d="M89.443 66.0457C89.8354 66.0457 90.1536 66.3639 90.1536 66.7564C90.1536 67.1488 89.8354 67.467 89.443 67.467C89.0505 67.467 88.7324 67.1488 88.7324 66.7564C88.7324 66.3639 89.0505 66.0457 89.443 66.0457Z" fill="black"/>
<path d="M93.7067 66.0458C94.0992 66.0458 94.4173 66.3639 94.4173 66.7564C94.4173 67.1489 94.0992 67.467 93.7067 67.467C93.3142 67.467 92.9961 67.1489 92.9961 66.7564C92.9961 66.3639 93.3142 66.0458 93.7067 66.0458Z" fill="black"/>
<path d="M70.9683 67.4672C71.3607 67.4672 71.6789 67.7853 71.6789 68.1778C71.6789 68.5703 71.3607 68.8884 70.9683 68.8884C70.5758 68.8884 70.2576 68.5703 70.2576 68.1778C70.2576 67.7853 70.5758 67.4672 70.9683 67.4672Z" fill="black"/>
<path d="M72.3883 67.4666C72.7808 67.4666 73.0989 67.7847 73.0989 68.1772C73.0989 68.5696 72.7808 68.8878 72.3883 68.8878C71.9959 68.8878 71.6777 68.5696 71.6777 68.1772C71.6777 67.7847 71.9959 67.4666 72.3883 67.4666Z" fill="black"/>
<path d="M75.2312 67.4668C75.6236 67.4668 75.9418 67.7849 75.9418 68.1774C75.9418 68.5699 75.6236 68.888 75.2312 68.888C74.8387 68.888 74.5206 68.5699 74.5206 68.1774C74.5206 67.7849 74.8387 67.4668 75.2312 67.4668Z" fill="black"/>
<path d="M80.9147 67.4672C81.3072 67.4672 81.6253 67.7853 81.6253 68.1778C81.6253 68.5702 81.3072 68.8884 80.9147 68.8884C80.5222 68.8884 80.2041 68.5702 80.2041 68.1778C80.2041 67.7853 80.5222 67.4672 80.9147 67.4672Z" fill="black"/>
<path d="M85.1803 67.467C85.5728 67.467 85.8909 67.7851 85.8909 68.1776C85.8909 68.5701 85.5728 68.8882 85.1803 68.8882C84.7879 68.8882 84.4697 68.5701 84.4697 68.1776C84.4697 67.7851 84.7879 67.467 85.1803 67.467Z" fill="black"/>
<path d="M86.6001 67.4668C86.9926 67.4668 87.3107 67.7849 87.3107 68.1774C87.3107 68.5699 86.9926 68.888 86.6001 68.888C86.2077 68.888 85.8895 68.5699 85.8895 68.1774C85.8895 67.7849 86.2077 67.4668 86.6001 67.4668Z" fill="black"/>
<path d="M88.0223 67.4672C88.4148 67.4672 88.733 67.7853 88.733 68.1778C88.733 68.5702 88.4148 68.8884 88.0223 68.8884C87.6299 68.8884 87.3117 68.5702 87.3117 68.1778C87.3117 67.7853 87.6299 67.4672 88.0223 67.4672Z" fill="black"/>
<path d="M89.443 67.4668C89.8354 67.4668 90.1536 67.7849 90.1536 68.1774C90.1536 68.5699 89.8354 68.888 89.443 68.888C89.0505 68.888 88.7324 68.5699 88.7324 68.1774C88.7324 67.7849 89.0505 67.4668 89.443 67.4668Z" fill="black"/>
<path d="M90.8658 67.4671C91.2583 67.4671 91.5764 67.7852 91.5764 68.1777C91.5764 68.5701 91.2583 68.8883 90.8658 68.8883C90.4734 68.8883 90.1552 68.5701 90.1552 68.1777C90.1552 67.7852 90.4734 67.4671 90.8658 67.4671Z" fill="black"/>
<path d="M92.285 67.467C92.6775 67.467 92.9956 67.7851 92.9956 68.1776C92.9956 68.5701 92.6775 68.8882 92.285 68.8882C91.8925 68.8882 91.5744 68.5701 91.5744 68.1776C91.5744 67.7851 91.8925 67.467 92.285 67.467Z" fill="black"/>
<path d="M93.7067 67.4669C94.0992 67.4669 94.4173 67.7851 94.4173 68.1775C94.4173 68.57 94.0992 68.8881 93.7067 68.8881C93.3142 68.8881 92.9961 68.57 92.9961 68.1775C92.9961 67.7851 93.3142 67.4669 93.7067 67.4669Z" fill="black"/>
<path d="M65.4377 33.3586H62.2823C60.7444 33.3586 59.4416 34.3747 59.025 35.7634C58.9819 35.907 58.9483 36.0547 58.9249 36.2056C58.8992 36.3721 58.8857 36.5426 58.8857 36.7162V39.9466C58.8857 41.799 60.4098 43.3053 62.2823 43.3053L63.86 43.3056L65.4377 43.3052C67.3101 43.3052 68.8343 41.7989 68.8343 39.9465V36.7162C68.8343 34.8648 67.3101 33.3586 65.4377 33.3586ZM67.342 39.9466C67.342 40.9757 66.4878 41.813 65.4373 41.813L63.86 41.8133L62.2827 41.8129C61.2322 41.8129 60.378 40.9756 60.378 39.9466V36.7162C60.378 36.3948 60.4614 36.0922 60.6081 35.8277C60.7494 35.5734 60.9493 35.3546 61.1899 35.1889C61.4993 34.9759 61.8761 34.8509 62.2822 34.8509H65.4377C66.4878 34.8509 67.342 35.6877 67.342 36.7162V39.9466Z" fill="black"/>
<path d="M91.0217 33.3587H87.8662C86.3284 33.3587 85.0255 34.3747 84.609 35.7635C84.5659 35.9071 84.5323 36.0548 84.5089 36.2057C84.4831 36.3722 84.4697 36.5427 84.4697 36.7163V39.9467C84.4697 41.799 85.9938 43.3054 87.8662 43.3054L89.444 43.3057L91.0217 43.3053C92.894 43.3053 94.4182 41.7989 94.4182 39.9466V36.7163C94.4182 34.8649 92.8941 33.3587 91.0217 33.3587ZM92.926 39.9467C92.926 40.9758 92.0718 41.8131 91.0213 41.8131L89.444 41.8134L87.8666 41.813C86.8162 41.813 85.962 40.9757 85.962 39.9467V36.7163C85.962 36.3949 86.0454 36.0923 86.1921 35.8278C86.3334 35.5734 86.5332 35.3547 86.7739 35.189C87.0833 34.976 87.46 34.851 87.8661 34.851H91.0217C92.0718 34.851 92.926 35.6878 92.926 36.7163V39.9467Z" fill="black"/>
<path d="M65.4377 58.9407H62.2822C60.7444 58.9407 59.4415 59.9567 59.025 61.3454C58.9819 61.4891 58.9483 61.6367 58.9249 61.7876C58.8991 61.9542 58.8857 62.1247 58.8857 62.2983V65.5287C58.8857 67.381 60.4098 68.8873 62.2822 68.8873L63.86 68.8876L65.4377 68.8872C67.31 68.8872 68.8343 67.3809 68.8343 65.5286V62.2983C68.8343 60.4469 67.3101 58.9407 65.4377 58.9407ZM67.342 65.5287C67.342 66.5578 66.4878 67.395 65.4373 67.395L63.86 67.3953L62.2826 67.3949C61.2322 67.3949 60.378 66.5577 60.378 65.5287V62.2983C60.378 61.9769 60.4614 61.6742 60.6081 61.4098C60.7494 61.1554 60.9492 60.9366 61.1899 60.771C61.4993 60.558 61.876 60.433 62.2821 60.433H65.4377C66.4878 60.433 67.342 61.2697 67.342 62.2983V65.5287Z" fill="black"/>
<path d="M65.9933 36.2002H61.7296V40.4639H65.9933V36.2002Z" fill="black"/>
<path d="M91.5754 36.2001H87.3117V40.4638H91.5754V36.2001Z" fill="black"/>
<path d="M65.9933 61.7822H61.7296V66.0458H65.9933V61.7822Z" fill="black"/>
</g>
<defs>
<filter id="filter0_d_6_120" x="0" y="0" width="146" height="156.3" filterUnits="userSpaceOnUse" color-interpolation-filters="sRGB">
<feFlood flood-opacity="0" result="BackgroundImageFix"/>
<feColorMatrix in="SourceAlpha" type="matrix" values="0 0 0 0 0 0 0 0 0 0 0 0 0 0 0 0 0 0 127 0" result="hardAlpha"/>
<feOffset dy="4"/>
<feGaussianBlur stdDeviation="2"/>
<feComposite in2="hardAlpha" operator="out"/>
<feColorMatrix type="matrix" values="0 0 0 0 0 0 0 0 0 0 0 0 0 0 0 0 0 0 0.25 0"/>
<feBlend mode="normal" in2="BackgroundImageFix" result="effect1_dropShadow_6_120"/>
<feBlend mode="normal" in="SourceGraphic" in2="effect1_dropShadow_6_120" result="shape"/>
</filter>
<filter id="filter1_dd_6_120" x="52.4004" y="24.8706" width="48.8601" height="52.8601" filterUnits="userSpaceOnUse" color-interpolation-filters="sRGB">
<feFlood flood-opacity="0" result="BackgroundImageFix"/>
<feColorMatrix in="SourceAlpha" type="matrix" values="0 0 0 0 0 0 0 0 0 0 0 0 0 0 0 0 0 0 127 0" result="hardAlpha"/>
<feOffset dy="2"/>
<feGaussianBlur stdDeviation="2"/>
<feComposite in2="hardAlpha" operator="out"/>
<feColorMatrix type="matrix" values="0 0 0 0 0 0 0 0 0 0 0 0 0 0 0 0 0 0 0.1 0"/>
<feBlend mode="normal" in2="BackgroundImageFix" result="effect1_dropShadow_6_120"/>
<feColorMatrix in="SourceAlpha" type="matrix" values="0 0 0 0 0 0 0 0 0 0 0 0 0 0 0 0 0 0 127 0" result="hardAlpha"/>
<feOffset dy="-2"/>
<feGaussianBlur stdDeviation="2"/>
<feComposite in2="hardAlpha" operator="out"/>
<feColorMatrix type="matrix" values="0 0 0 0 0 0 0 0 0 0 0 0 0 0 0 0 0 0 0.1 0"/>
<feBlend mode="normal" in2="effect1_dropShadow_6_120" result="effect2_dropShadow_6_120"/>
<feBlend mode="normal" in="SourceGraphic" in2="effect2_dropShadow_6_120" result="shape"/>
</filter>
</defs>
</svg>
