<svg width="1442" height="657" viewBox="0 0 1442 657" fill="none" xmlns="http://www.w3.org/2000/svg">
<rect width="1440" height="657" fill="#CFD5FF"/>
<mask id="mask0_1_12" style="mask-type:alpha" maskUnits="userSpaceOnUse" x="1366" y="59" width="76" height="89">
<rect x="1366" y="59" width="76" height="89" fill="#D9D9D9"/>
</mask>
<g mask="url(#mask0_1_12)">
<path opacity="0.5" d="M1436.28 129.942L1432.7 123.735L1438.91 120.152L1442.49 126.359L1436.28 129.942ZM1426.49 127.319L1417.53 111.803L1423.74 108.219L1432.7 123.735L1426.49 127.319ZM1445.94 103.676L1438.78 91.2627L1444.98 87.6793L1452.15 100.092L1445.94 103.676ZM1432.57 94.846L1428.99 88.6395L1435.19 85.0561L1438.78 91.2627L1432.57 94.846ZM1398.91 122.553L1395.33 116.346L1401.54 112.763L1405.12 118.969L1398.91 122.553ZM1389.12 119.929L1385.54 113.723L1391.75 110.139L1395.33 116.346L1389.12 119.929ZM1404.51 82.0815L1400.93 75.875L1407.14 72.2917L1410.72 78.4982L1404.51 82.0815ZM1385.72 103.277L1395.03 97.9022L1389.65 88.5924L1380.34 93.9674L1385.72 103.277ZM1383.75 110.62L1373 92L1391.62 81.25L1402.37 99.8695L1383.75 110.62ZM1407.22 140.516L1416.53 135.141L1411.15 125.831L1401.84 131.206L1407.22 140.516ZM1405.25 147.859L1394.5 129.239L1413.12 118.489L1423.87 137.109L1405.25 147.859ZM1422.96 81.7772L1432.27 76.4022L1426.89 67.0924L1417.58 72.4674L1422.96 81.7772ZM1420.99 89.1195L1410.24 70.5L1428.86 59.75L1439.61 78.3695L1420.99 89.1195ZM1448.7 122.775L1443.32 113.466L1437.11 117.049L1433.53 110.842L1445.94 103.676L1451.32 112.985L1457.53 109.402L1461.11 115.609L1448.7 122.775ZM1423.74 108.219L1420.16 102.013L1432.57 94.846L1436.15 101.053L1423.74 108.219ZM1411.33 115.386L1407.74 109.179L1401.54 112.763L1397.95 106.556L1416.57 95.8061L1420.16 102.013L1413.95 105.596L1417.53 111.803L1411.33 115.386ZM1405.47 98.0779L1398.31 85.6648L1404.51 82.0815L1408.1 88.288L1414.3 84.7047L1417.89 90.9112L1405.47 98.0779ZM1386.7 99.606L1384.01 94.9511L1388.67 92.2636L1391.36 96.9185L1386.7 99.606ZM1408.2 136.845L1405.51 132.19L1410.17 129.503L1412.86 134.158L1408.2 136.845ZM1423.94 78.106L1421.25 73.4511L1425.91 70.7636L1428.6 75.4185L1423.94 78.106Z" fill="url(#paint0_linear_1_12)"/>
</g>
<path opacity="0.5" d="M352.283 129.942L348.699 123.735L354.906 120.152L358.489 126.359L352.283 129.942ZM342.493 127.319L333.534 111.803L339.741 108.219L348.699 123.735L342.493 127.319ZM361.944 103.676L354.777 91.2627L360.984 87.6793L368.15 100.092L361.944 103.676ZM348.571 94.846L344.987 88.6395L351.194 85.0561L354.777 91.2627L348.571 94.846ZM314.915 122.553L311.332 116.346L317.538 112.763L321.121 118.969L314.915 122.553ZM305.125 119.929L301.542 113.723L307.748 110.139L311.332 116.346L305.125 119.929ZM320.513 82.0815L316.929 75.875L323.136 72.2917L326.719 78.4982L320.513 82.0815ZM301.717 103.277L311.027 97.9022L305.652 88.5924L296.342 93.9674L301.717 103.277ZM299.75 110.62L289 92L307.62 81.25L318.37 99.8695L299.75 110.62ZM323.217 140.516L332.527 135.141L327.152 125.831L317.842 131.206L323.217 140.516ZM321.25 147.859L310.5 129.239L329.12 118.489L339.87 137.109L321.25 147.859ZM338.956 81.7772L348.266 76.4022L342.891 67.0924L333.581 72.4674L338.956 81.7772ZM336.989 89.1195L326.239 70.5L344.859 59.75L355.609 78.3695L336.989 89.1195ZM364.696 122.775L359.321 113.466L353.114 117.049L349.531 110.842L361.944 103.676L367.319 112.985L373.525 109.402L377.109 115.609L364.696 122.775ZM339.741 108.219L336.158 102.013L348.571 94.846L352.154 101.053L339.741 108.219ZM327.328 115.386L323.745 109.179L317.538 112.763L313.955 106.556L332.574 95.8061L336.158 102.013L329.951 105.596L333.534 111.803L327.328 115.386ZM321.473 98.0779L314.306 85.6648L320.513 82.0815L324.096 88.288L330.302 84.7047L333.886 90.9112L321.473 98.0779ZM302.701 99.606L300.014 94.9511L304.668 92.2636L307.356 96.9185L302.701 99.606ZM324.201 136.845L321.514 132.19L326.168 129.503L328.856 134.158L324.201 136.845ZM339.94 78.106L337.253 73.4511L341.908 70.7636L344.595 75.4185L339.94 78.106Z" fill="url(#paint1_linear_1_12)"/>
<path opacity="0.5" d="M106.283 242.942L102.699 236.735L108.906 233.152L112.489 239.359L106.283 242.942ZM96.4927 240.319L87.5344 224.803L93.7409 221.219L102.699 236.735L96.4927 240.319ZM115.944 216.676L108.777 204.263L114.984 200.679L122.15 213.092L115.944 216.676ZM102.571 207.846L98.9873 201.639L105.194 198.056L108.777 204.263L102.571 207.846ZM68.9148 235.553L65.3315 229.346L71.538 225.763L75.1214 231.969L68.9148 235.553ZM59.125 232.929L55.5417 226.723L61.7482 223.139L65.3315 229.346L59.125 232.929ZM74.5127 195.082L70.9293 188.875L77.1358 185.292L80.7192 191.498L74.5127 195.082ZM55.7174 216.277L65.0272 210.902L59.6522 201.592L50.3424 206.967L55.7174 216.277ZM53.75 223.62L43 205L61.6195 194.25L72.3695 212.87L53.75 223.62ZM77.2174 253.516L86.5272 248.141L81.1522 238.831L71.8424 244.206L77.2174 253.516ZM75.25 260.859L64.5 242.239L83.1195 231.489L93.8695 250.109L75.25 260.859ZM92.9565 194.777L102.266 189.402L96.8912 180.092L87.5815 185.467L92.9565 194.777ZM90.9891 202.12L80.2391 183.5L98.8586 172.75L109.609 191.37L90.9891 202.12ZM118.696 235.775L113.321 226.466L107.114 230.049L103.531 223.842L115.944 216.676L121.319 225.985L127.525 222.402L131.109 228.609L118.696 235.775ZM93.7409 221.219L90.1576 215.013L102.571 207.846L106.154 214.053L93.7409 221.219ZM81.3279 228.386L77.7445 222.179L71.538 225.763L67.9547 219.556L86.5742 208.806L90.1576 215.013L83.9511 218.596L87.5344 224.803L81.3279 228.386ZM75.4728 211.078L68.3061 198.665L74.5127 195.082L78.096 201.288L84.3025 197.705L87.8858 203.911L75.4728 211.078ZM56.7011 212.606L54.0136 207.951L58.6685 205.264L61.356 209.918L56.7011 212.606ZM78.2011 249.845L75.5136 245.19L80.1685 242.503L82.856 247.158L78.2011 249.845ZM93.9402 191.106L91.2527 186.451L95.9076 183.764L98.5951 188.418L93.9402 191.106Z" fill="url(#paint2_linear_1_12)"/>
<path opacity="0.5" d="M1323.28 243.192L1319.7 236.985L1325.91 233.402L1329.49 239.609L1323.28 243.192ZM1313.49 240.569L1304.53 225.053L1310.74 221.469L1319.7 236.985L1313.49 240.569ZM1332.94 216.926L1325.78 204.513L1331.98 200.929L1339.15 213.342L1332.94 216.926ZM1319.57 208.096L1315.99 201.889L1322.19 198.306L1325.78 204.513L1319.57 208.096ZM1285.91 235.803L1282.33 229.596L1288.54 226.013L1292.12 232.219L1285.91 235.803ZM1276.12 233.179L1272.54 226.973L1278.75 223.389L1282.33 229.596L1276.12 233.179ZM1291.51 195.332L1287.93 189.125L1294.14 185.542L1297.72 191.748L1291.51 195.332ZM1272.72 216.527L1282.03 211.152L1276.65 201.842L1267.34 207.217L1272.72 216.527ZM1270.75 223.87L1260 205.25L1278.62 194.5L1289.37 213.12L1270.75 223.87ZM1294.22 253.766L1303.53 248.391L1298.15 239.081L1288.84 244.456L1294.22 253.766ZM1292.25 261.109L1281.5 242.489L1300.12 231.739L1310.87 250.359L1292.25 261.109ZM1309.96 195.027L1319.27 189.652L1313.89 180.342L1304.58 185.717L1309.96 195.027ZM1307.99 202.37L1297.24 183.75L1315.86 173L1326.61 191.62L1307.99 202.37ZM1335.7 236.025L1330.32 226.716L1324.11 230.299L1320.53 224.092L1332.94 216.926L1338.32 226.235L1344.53 222.652L1348.11 228.859L1335.7 236.025ZM1310.74 221.469L1307.16 215.263L1319.57 208.096L1323.15 214.303L1310.74 221.469ZM1298.33 228.636L1294.74 222.429L1288.54 226.013L1284.95 219.806L1303.57 209.056L1307.16 215.263L1300.95 218.846L1304.53 225.053L1298.33 228.636ZM1292.47 211.328L1285.31 198.915L1291.51 195.332L1295.1 201.538L1301.3 197.955L1304.89 204.161L1292.47 211.328ZM1273.7 212.856L1271.01 208.201L1275.67 205.514L1278.36 210.168L1273.7 212.856ZM1295.2 250.095L1292.51 245.44L1297.17 242.753L1299.86 247.408L1295.2 250.095ZM1310.94 191.356L1308.25 186.701L1312.91 184.014L1315.6 188.668L1310.94 191.356Z" fill="url(#paint3_linear_1_12)"/>
<mask id="mask1_1_12" style="mask-type:alpha" maskUnits="userSpaceOnUse" x="2" y="59" width="55" height="90">
<rect x="2" y="59" width="55" height="90" fill="#D9D9D9"/>
</mask>
<g mask="url(#mask1_1_12)">
<path opacity="0.5" d="M32.2826 130.942L28.6992 124.735L34.9058 121.152L38.4891 127.359L32.2826 130.942ZM22.4927 128.319L13.5344 112.803L19.7409 109.219L28.6992 124.735L22.4927 128.319ZM41.9438 104.676L34.7771 92.2627L40.9836 88.6793L48.1503 101.092L41.9438 104.676ZM28.5706 95.846L24.9873 89.6395L31.1938 86.0561L34.7771 92.2627L28.5706 95.846ZM-5.08515 123.553L-8.66849 117.346L-2.46197 113.763L1.12136 119.969L-5.08515 123.553ZM-14.875 120.929L-18.4583 114.723L-12.2518 111.139L-8.66849 117.346L-14.875 120.929ZM0.512651 83.0815L-3.07068 76.875L3.13583 73.2917L6.71917 79.4982L0.512651 83.0815ZM-18.2826 104.277L-8.97284 98.9022L-14.3478 89.5924L-23.6576 94.9674L-18.2826 104.277ZM-20.25 111.62L-31 93L-12.3805 82.25L-1.63045 100.87L-20.25 111.62ZM3.21739 141.516L12.5272 136.141L7.15216 126.831L-2.15761 132.206L3.21739 141.516ZM1.25 148.859L-9.5 130.239L9.11954 119.489L19.8695 138.109L1.25 148.859ZM18.9565 82.7772L28.2662 77.4022L22.8912 68.0924L13.5815 73.4674L18.9565 82.7772ZM16.9891 90.1195L6.23909 71.5L24.8586 60.75L35.6086 79.3695L16.9891 90.1195ZM44.6956 123.775L39.3206 114.466L33.1141 118.049L29.5308 111.842L41.9438 104.676L47.3188 113.985L53.5253 110.402L57.1086 116.609L44.6956 123.775ZM19.7409 109.219L16.1576 103.013L28.5706 95.846L32.1539 102.053L19.7409 109.219ZM7.32788 116.386L3.74455 110.179L-2.46197 113.763L-6.0453 107.556L12.5742 96.8061L16.1576 103.013L9.95106 106.596L13.5344 112.803L7.32788 116.386ZM1.4728 99.0779L-5.69386 86.6648L0.512651 83.0815L4.09598 89.288L10.3025 85.7047L13.8858 91.9112L1.4728 99.0779ZM-17.2989 100.606L-19.9864 95.9511L-15.3315 93.2636L-12.644 97.9185L-17.2989 100.606ZM4.20108 137.845L1.51358 133.19L6.16847 130.503L8.85597 135.158L4.20108 137.845ZM19.9402 79.106L17.2527 74.4511L21.9076 71.7636L24.5951 76.4185L19.9402 79.106Z" fill="url(#paint4_linear_1_12)"/>
</g>
<path opacity="0.5" d="M1064.28 129.942L1060.7 123.735L1066.91 120.152L1070.49 126.359L1064.28 129.942ZM1054.49 127.319L1045.53 111.803L1051.74 108.219L1060.7 123.735L1054.49 127.319ZM1073.94 103.676L1066.78 91.2627L1072.98 87.6793L1080.15 100.092L1073.94 103.676ZM1060.57 94.846L1056.99 88.6395L1063.19 85.0561L1066.78 91.2627L1060.57 94.846ZM1026.91 122.553L1023.33 116.346L1029.54 112.763L1033.12 118.969L1026.91 122.553ZM1017.12 119.929L1013.54 113.723L1019.75 110.139L1023.33 116.346L1017.12 119.929ZM1032.51 82.0815L1028.93 75.875L1035.14 72.2917L1038.72 78.4982L1032.51 82.0815ZM1013.72 103.277L1023.03 97.9022L1017.65 88.5924L1008.34 93.9674L1013.72 103.277ZM1011.75 110.62L1001 92L1019.62 81.25L1030.37 99.8695L1011.75 110.62ZM1035.22 140.516L1044.53 135.141L1039.15 125.831L1029.84 131.206L1035.22 140.516ZM1033.25 147.859L1022.5 129.239L1041.12 118.489L1051.87 137.109L1033.25 147.859ZM1050.96 81.7772L1060.27 76.4022L1054.89 67.0924L1045.58 72.4674L1050.96 81.7772ZM1048.99 89.1195L1038.24 70.5L1056.86 59.75L1067.61 78.3695L1048.99 89.1195ZM1076.7 122.775L1071.32 113.466L1065.11 117.049L1061.53 110.842L1073.94 103.676L1079.32 112.985L1085.53 109.402L1089.11 115.609L1076.7 122.775ZM1051.74 108.219L1048.16 102.013L1060.57 94.846L1064.15 101.053L1051.74 108.219ZM1039.33 115.386L1035.74 109.179L1029.54 112.763L1025.95 106.556L1044.57 95.8061L1048.16 102.013L1041.95 105.596L1045.53 111.803L1039.33 115.386ZM1033.47 98.0779L1026.31 85.6648L1032.51 82.0815L1036.1 88.288L1042.3 84.7047L1045.89 90.9112L1033.47 98.0779ZM1014.7 99.606L1012.01 94.9511L1016.67 92.2636L1019.36 96.9185L1014.7 99.606ZM1036.2 136.845L1033.51 132.19L1038.17 129.503L1040.86 134.158L1036.2 136.845ZM1051.94 78.106L1049.25 73.4511L1053.91 70.7636L1056.6 75.4185L1051.94 78.106Z" fill="url(#paint5_linear_1_12)"/>
<defs>
<linearGradient id="paint0_linear_1_12" x1="1400.93" y1="75.875" x2="1433.18" y2="131.734" gradientUnits="userSpaceOnUse">
<stop stop-color="#3A57EC"/>
<stop offset="1" stop-color="#7F6AFF"/>
</linearGradient>
<linearGradient id="paint1_linear_1_12" x1="316.929" y1="75.875" x2="349.179" y2="131.734" gradientUnits="userSpaceOnUse">
<stop stop-color="#3A57EC"/>
<stop offset="1" stop-color="#7F6AFF"/>
</linearGradient>
<linearGradient id="paint2_linear_1_12" x1="70.9293" y1="188.875" x2="103.179" y2="244.734" gradientUnits="userSpaceOnUse">
<stop stop-color="#3A57EC"/>
<stop offset="1" stop-color="#7F6AFF"/>
</linearGradient>
<linearGradient id="paint3_linear_1_12" x1="1287.93" y1="189.125" x2="1320.18" y2="244.984" gradientUnits="userSpaceOnUse">
<stop stop-color="#3A57EC"/>
<stop offset="1" stop-color="#7F6AFF"/>
</linearGradient>
<linearGradient id="paint4_linear_1_12" x1="-3.07068" y1="76.875" x2="29.1793" y2="132.734" gradientUnits="userSpaceOnUse">
<stop stop-color="#3A57EC"/>
<stop offset="1" stop-color="#7F6AFF"/>
</linearGradient>
<linearGradient id="paint5_linear_1_12" x1="1028.93" y1="75.875" x2="1061.18" y2="131.734" gradientUnits="userSpaceOnUse">
<stop stop-color="#3A57EC"/>
<stop offset="1" stop-color="#7F6AFF"/>
</linearGradient>
</defs>
</svg>
