<svg width="140" height="140" viewBox="0 0 140 140" fill="none" xmlns="http://www.w3.org/2000/svg">
<path d="M53.1994 0C54.7459 0 55.9994 1.25362 55.9994 2.8C55.9994 4.34646 54.7459 5.6 53.1994 5.6C51.653 5.6 50.3994 4.34646 50.3994 2.8C50.3994 1.25362 51.653 0 53.1994 0Z" fill="#BA4B80"/>
<path d="M64.4006 0C65.947 0 67.2006 1.25362 67.2006 2.8C67.2006 4.34646 65.947 5.6 64.4006 5.6C62.8542 5.6 61.6006 4.34646 61.6006 2.8C61.6006 1.25362 62.8542 0 64.4006 0Z" fill="#BA4B80"/>
<path d="M92.4006 0C93.947 0 95.2006 1.25362 95.2006 2.8C95.2006 4.34646 93.947 5.6 92.4006 5.6C90.8542 5.6 89.6006 4.34646 89.6006 2.8C89.6006 1.25362 90.8542 0 92.4006 0Z" fill="#BA4B80"/>
<path d="M53.1994 5.6001C54.7459 5.6001 55.9994 6.85371 55.9994 8.4001C55.9994 9.94656 54.7459 11.2001 53.1994 11.2001C51.653 11.2001 50.3994 9.94656 50.3994 8.4001C50.3994 6.85371 51.653 5.6001 53.1994 5.6001Z" fill="#BA4B80"/>
<path d="M64.4006 5.6001C65.947 5.6001 67.2006 6.85371 67.2006 8.4001C67.2006 9.94656 65.947 11.2001 64.4006 11.2001C62.8542 11.2001 61.6006 9.94656 61.6006 8.4001C61.6006 6.85371 62.8542 5.6001 64.4006 5.6001Z" fill="#BA4B80"/>
<path d="M86.8 5.59998C88.3465 5.59998 89.6 6.85359 89.6 8.39998C89.6 9.94644 88.3465 11.2 86.8 11.2C85.2536 11.2 84 9.94644 84 8.39998C84 6.85359 85.2536 5.59998 86.8 5.59998Z" fill="#BA4B80"/>
<path d="M47.5998 11.2C49.1463 11.2 50.3998 12.4536 50.3998 14C50.3998 15.5464 49.1463 16.8 47.5998 16.8C46.0534 16.8 44.7998 15.5464 44.7998 14C44.7998 12.4536 46.0534 11.2 47.5998 11.2Z" fill="#BA4B80"/>
<path d="M58.8 11.2C60.3465 11.2 61.6 12.4536 61.6 14C61.6 15.5464 60.3465 16.8 58.8 16.8C57.2536 16.8 56 15.5464 56 14C56 12.4536 57.2536 11.2 58.8 11.2Z" fill="#BA4B80"/>
<path d="M81.1994 11.2001C82.7459 11.2001 83.9994 12.4537 83.9994 14.0001C83.9994 15.5465 82.7459 16.8001 81.1994 16.8001C79.653 16.8001 78.3994 15.5465 78.3994 14.0001C78.3994 12.4537 79.653 11.2001 81.1994 11.2001Z" fill="#BA4B80"/>
<path d="M92.4006 11.2001C93.947 11.2001 95.2006 12.4537 95.2006 14.0001C95.2006 15.5465 93.947 16.8001 92.4006 16.8001C90.8542 16.8001 89.6006 15.5465 89.6006 14.0001C89.6006 12.4537 90.8542 11.2001 92.4006 11.2001Z" fill="#BA4B80"/>
<path d="M47.5998 16.8C49.1463 16.8 50.3998 18.0537 50.3998 19.6C50.3998 21.1465 49.1463 22.4 47.5998 22.4C46.0534 22.4 44.7998 21.1465 44.7998 19.6C44.7998 18.0537 46.0534 16.8 47.5998 16.8Z" fill="#BA4B80"/>
<path d="M53.1994 16.7999C54.7459 16.7999 55.9994 18.0535 55.9994 19.5999C55.9994 21.1464 54.7459 22.3999 53.1994 22.3999C51.653 22.3999 50.3994 21.1464 50.3994 19.5999C50.3994 18.0535 51.653 16.7999 53.1994 16.7999Z" fill="#BA4B80"/>
<path d="M58.8 16.8C60.3465 16.8 61.6 18.0537 61.6 19.6C61.6 21.1465 60.3465 22.4 58.8 22.4C57.2536 22.4 56 21.1465 56 19.6C56 18.0537 57.2536 16.8 58.8 16.8Z" fill="#BA4B80"/>
<path d="M75.5998 16.8C77.1463 16.8 78.3998 18.0537 78.3998 19.6C78.3998 21.1465 77.1463 22.4 75.5998 22.4C74.0534 22.4 72.7998 21.1465 72.7998 19.6C72.7998 18.0537 74.0534 16.8 75.5998 16.8Z" fill="#BA4B80"/>
<path d="M81.1994 16.7999C82.7459 16.7999 83.9994 18.0535 83.9994 19.5999C83.9994 21.1464 82.7459 22.3999 81.1994 22.3999C79.653 22.3999 78.3994 21.1464 78.3994 19.5999C78.3994 18.0535 79.653 16.7999 81.1994 16.7999Z" fill="#BA4B80"/>
<path d="M47.5998 22.4C49.1463 22.4 50.3998 23.6536 50.3998 25.2C50.3998 26.7465 49.1463 28 47.5998 28C46.0534 28 44.7998 26.7465 44.7998 25.2C44.7998 23.6536 46.0534 22.4 47.5998 22.4Z" fill="#BA4B80"/>
<path d="M70.0002 22.4C71.5467 22.4 72.8002 23.6536 72.8002 25.2C72.8002 26.7465 71.5467 28 70.0002 28C68.4538 28 67.2002 26.7465 67.2002 25.2C67.2002 23.6536 68.4538 22.4 70.0002 22.4Z" fill="#BA4B80"/>
<path d="M81.1994 22.3999C82.7459 22.3999 83.9994 23.6535 83.9994 25.1999C83.9994 26.7464 82.7459 27.9999 81.1994 27.9999C79.653 27.9999 78.3994 26.7464 78.3994 25.1999C78.3994 23.6535 79.653 22.3999 81.1994 22.3999Z" fill="#BA4B80"/>
<path d="M47.5998 28C49.1463 28 50.3998 29.2536 50.3998 30.8C50.3998 32.3465 49.1463 33.6 47.5998 33.6C46.0534 33.6 44.7998 32.3465 44.7998 30.8C44.7998 29.2536 46.0534 28 47.5998 28Z" fill="#BA4B80"/>
<path d="M53.1994 28C54.7459 28 55.9994 29.2536 55.9994 30.8C55.9994 32.3465 54.7459 33.6 53.1994 33.6C51.653 33.6 50.3994 32.3465 50.3994 30.8C50.3994 29.2536 51.653 28 53.1994 28Z" fill="#BA4B80"/>
<path d="M58.8 28C60.3465 28 61.6 29.2536 61.6 30.8C61.6 32.3465 60.3465 33.6 58.8 33.6C57.2536 33.6 56 32.3465 56 30.8C56 29.2536 57.2536 28 58.8 28Z" fill="#BA4B80"/>
<path d="M81.1994 28C82.7459 28 83.9994 29.2536 83.9994 30.8C83.9994 32.3465 82.7459 33.6 81.1994 33.6C79.653 33.6 78.3994 32.3465 78.3994 30.8C78.3994 29.2536 79.653 28 81.1994 28Z" fill="#BA4B80"/>
<path d="M86.8 28C88.3465 28 89.6 29.2536 89.6 30.8C89.6 32.3465 88.3465 33.6 86.8 33.6C85.2536 33.6 84 32.3465 84 30.8C84 29.2536 85.2536 28 86.8 28Z" fill="#BA4B80"/>
<path d="M92.4006 28C93.947 28 95.2006 29.2536 95.2006 30.8C95.2006 32.3465 93.947 33.6 92.4006 33.6C90.8542 33.6 89.6006 32.3465 89.6006 30.8C89.6006 29.2536 90.8542 28 92.4006 28Z" fill="#BA4B80"/>
<path d="M47.5998 33.6C49.1463 33.6 50.3998 34.8536 50.3998 36.4C50.3998 37.9464 49.1463 39.2 47.5998 39.2C46.0534 39.2 44.7998 37.9464 44.7998 36.4C44.7998 34.8536 46.0534 33.6 47.5998 33.6Z" fill="#BA4B80"/>
<path d="M58.8 33.6C60.3465 33.6 61.6 34.8536 61.6 36.4C61.6 37.9464 60.3465 39.2 58.8 39.2C57.2536 39.2 56 37.9464 56 36.4C56 34.8536 57.2536 33.6 58.8 33.6Z" fill="#BA4B80"/>
<path d="M70.0002 33.6C71.5467 33.6 72.8002 34.8536 72.8002 36.4C72.8002 37.9464 71.5467 39.2 70.0002 39.2C68.4538 39.2 67.2002 37.9464 67.2002 36.4C67.2002 34.8536 68.4538 33.6 70.0002 33.6Z" fill="#BA4B80"/>
<path d="M81.1994 33.6001C82.7459 33.6001 83.9994 34.8537 83.9994 36.4001C83.9994 37.9466 82.7459 39.2001 81.1994 39.2001C79.653 39.2001 78.3994 37.9466 78.3994 36.4001C78.3994 34.8537 79.653 33.6001 81.1994 33.6001Z" fill="#BA4B80"/>
<path d="M92.4006 33.6001C93.947 33.6001 95.2006 34.8537 95.2006 36.4001C95.2006 37.9466 93.947 39.2001 92.4006 39.2001C90.8542 39.2001 89.6006 37.9466 89.6006 36.4001C89.6006 34.8537 90.8542 33.6001 92.4006 33.6001Z" fill="#BA4B80"/>
<path d="M47.5998 39.2C49.1463 39.2 50.3998 40.4536 50.3998 42C50.3998 43.5464 49.1463 44.8 47.5998 44.8C46.0534 44.8 44.7998 43.5464 44.7998 42C44.7998 40.4536 46.0534 39.2 47.5998 39.2Z" fill="#BA4B80"/>
<path d="M58.8 39.2C60.3465 39.2 61.6 40.4536 61.6 42C61.6 43.5464 60.3465 44.8 58.8 44.8C57.2536 44.8 56 43.5464 56 42C56 40.4536 57.2536 39.2 58.8 39.2Z" fill="#BA4B80"/>
<path d="M70.0002 39.2C71.5467 39.2 72.8002 40.4536 72.8002 42C72.8002 43.5464 71.5467 44.8 70.0002 44.8C68.4538 44.8 67.2002 43.5464 67.2002 42C67.2002 40.4536 68.4538 39.2 70.0002 39.2Z" fill="#BA4B80"/>
<path d="M81.1994 39.2001C82.7459 39.2001 83.9994 40.4537 83.9994 42.0001C83.9994 43.5465 82.7459 44.8001 81.1994 44.8001C79.653 44.8001 78.3994 43.5465 78.3994 42.0001C78.3994 40.4537 79.653 39.2001 81.1994 39.2001Z" fill="#BA4B80"/>
<path d="M86.8 39.2C88.3465 39.2 89.6 40.4536 89.6 42C89.6 43.5464 88.3465 44.8 86.8 44.8C85.2536 44.8 84 43.5464 84 42C84 40.4536 85.2536 39.2 86.8 39.2Z" fill="#BA4B80"/>
<path d="M92.4006 39.2001C93.947 39.2001 95.2006 40.4537 95.2006 42.0001C95.2006 43.5465 93.947 44.8001 92.4006 44.8001C90.8542 44.8001 89.6006 43.5465 89.6006 42.0001C89.6006 40.4537 90.8542 39.2001 92.4006 39.2001Z" fill="#BA4B80"/>
<path d="M2.8 44.8C4.34646 44.8 5.6 46.0537 5.6 47.6C5.6 49.1465 4.34646 50.4 2.8 50.4C1.25362 50.4 0 49.1465 0 47.6C0 46.0537 1.25362 44.8 2.8 44.8Z" fill="#BA4B80"/>
<path d="M14.0002 44.8C15.5467 44.8 16.8002 46.0537 16.8002 47.6C16.8002 49.1465 15.5467 50.4 14.0002 50.4C12.4538 50.4 11.2002 49.1465 11.2002 47.6C11.2002 46.0537 12.4538 44.8 14.0002 44.8Z" fill="#BA4B80"/>
<path d="M19.5998 44.8C21.1463 44.8 22.3998 46.0537 22.3998 47.6C22.3998 49.1465 21.1463 50.4 19.5998 50.4C18.0534 50.4 16.7998 49.1465 16.7998 47.6C16.7998 46.0537 18.0534 44.8 19.5998 44.8Z" fill="#BA4B80"/>
<path d="M25.1994 44.7999C26.7459 44.7999 27.9994 46.0535 27.9994 47.5999C27.9994 49.1464 26.7459 50.3999 25.1994 50.3999C23.653 50.3999 22.3994 49.1464 22.3994 47.5999C22.3994 46.0535 23.653 44.7999 25.1994 44.7999Z" fill="#BA4B80"/>
<path d="M30.8 44.8C32.3465 44.8 33.6 46.0537 33.6 47.6C33.6 49.1465 32.3465 50.4 30.8 50.4C29.2536 50.4 28 49.1465 28 47.6C28 46.0537 29.2536 44.8 30.8 44.8Z" fill="#BA4B80"/>
<path d="M36.4006 44.7999C37.947 44.7999 39.2006 46.0535 39.2006 47.5999C39.2006 49.1464 37.947 50.3999 36.4006 50.3999C34.8542 50.3999 33.6006 49.1464 33.6006 47.5999C33.6006 46.0535 34.8542 44.7999 36.4006 44.7999Z" fill="#BA4B80"/>
<path d="M70.0002 44.8C71.5467 44.8 72.8002 46.0537 72.8002 47.6C72.8002 49.1465 71.5467 50.4 70.0002 50.4C68.4538 50.4 67.2002 49.1465 67.2002 47.6C67.2002 46.0537 68.4538 44.8 70.0002 44.8Z" fill="#BA4B80"/>
<path d="M103.6 44.8C105.146 44.8 106.4 46.0537 106.4 47.6C106.4 49.1465 105.146 50.4 103.6 50.4C102.053 50.4 100.8 49.1465 100.8 47.6C100.8 46.0537 102.053 44.8 103.6 44.8Z" fill="#BA4B80"/>
<path d="M109.199 44.7999C110.746 44.7999 111.999 46.0535 111.999 47.5999C111.999 49.1464 110.746 50.3999 109.199 50.3999C107.653 50.3999 106.399 49.1464 106.399 47.5999C106.399 46.0535 107.653 44.7999 109.199 44.7999Z" fill="#BA4B80"/>
<path d="M114.8 44.8C116.346 44.8 117.6 46.0537 117.6 47.6C117.6 49.1465 116.346 50.4 114.8 50.4C113.254 50.4 112 49.1465 112 47.6C112 46.0537 113.254 44.8 114.8 44.8Z" fill="#BA4B80"/>
<path d="M120.401 44.7999C121.947 44.7999 123.201 46.0535 123.201 47.5999C123.201 49.1464 121.947 50.3999 120.401 50.3999C118.854 50.3999 117.601 49.1464 117.601 47.5999C117.601 46.0535 118.854 44.7999 120.401 44.7999Z" fill="#BA4B80"/>
<path d="M126 44.8C127.547 44.8 128.8 46.0537 128.8 47.6C128.8 49.1465 127.547 50.4 126 50.4C124.454 50.4 123.2 49.1465 123.2 47.6C123.2 46.0537 124.454 44.8 126 44.8Z" fill="#BA4B80"/>
<path d="M2.8 50.4C4.34646 50.4 5.6 51.6536 5.6 53.2C5.6 54.7465 4.34646 56 2.8 56C1.25362 56 0 54.7465 0 53.2C0 51.6536 1.25362 50.4 2.8 50.4Z" fill="#BA4B80"/>
<path d="M19.5998 50.4C21.1463 50.4 22.3998 51.6536 22.3998 53.2C22.3998 54.7465 21.1463 56 19.5998 56C18.0534 56 16.7998 54.7465 16.7998 53.2C16.7998 51.6536 18.0534 50.4 19.5998 50.4Z" fill="#BA4B80"/>
<path d="M47.5998 50.4C49.1463 50.4 50.3998 51.6536 50.3998 53.2C50.3998 54.7465 49.1463 56 47.5998 56C46.0534 56 44.7998 54.7465 44.7998 53.2C44.7998 51.6536 46.0534 50.4 47.5998 50.4Z" fill="#BA4B80"/>
<path d="M53.1994 50.3999C54.7459 50.3999 55.9994 51.6535 55.9994 53.1999C55.9994 54.7464 54.7459 55.9999 53.1994 55.9999C51.653 55.9999 50.3994 54.7464 50.3994 53.1999C50.3994 51.6535 51.653 50.3999 53.1994 50.3999Z" fill="#BA4B80"/>
<path d="M58.8 50.4C60.3465 50.4 61.6 51.6536 61.6 53.2C61.6 54.7465 60.3465 56 58.8 56C57.2536 56 56 54.7465 56 53.2C56 51.6536 57.2536 50.4 58.8 50.4Z" fill="#BA4B80"/>
<path d="M75.5998 50.4C77.1463 50.4 78.3998 51.6536 78.3998 53.2C78.3998 54.7465 77.1463 56 75.5998 56C74.0534 56 72.7998 54.7465 72.7998 53.2C72.7998 51.6536 74.0534 50.4 75.5998 50.4Z" fill="#BA4B80"/>
<path d="M92.4006 50.3999C93.947 50.3999 95.2006 51.6535 95.2006 53.1999C95.2006 54.7464 93.947 55.9999 92.4006 55.9999C90.8542 55.9999 89.6006 54.7464 89.6006 53.1999C89.6006 51.6535 90.8542 50.3999 92.4006 50.3999Z" fill="#BA4B80"/>
<path d="M109.199 50.3999C110.746 50.3999 111.999 51.6535 111.999 53.1999C111.999 54.7464 110.746 55.9999 109.199 55.9999C107.653 55.9999 106.399 54.7464 106.399 53.1999C106.399 51.6535 107.653 50.3999 109.199 50.3999Z" fill="#BA4B80"/>
<path d="M131.6 50.4C133.146 50.4 134.4 51.6536 134.4 53.2C134.4 54.7465 133.146 56 131.6 56C130.053 56 128.8 54.7465 128.8 53.2C128.8 51.6536 130.053 50.4 131.6 50.4Z" fill="#BA4B80"/>
<path d="M2.8 56C4.34646 56 5.6 57.2536 5.6 58.8C5.6 60.3465 4.34646 61.6 2.8 61.6C1.25362 61.6 0 60.3465 0 58.8C0 57.2536 1.25362 56 2.8 56Z" fill="#BA4B80"/>
<path d="M19.5998 56C21.1463 56 22.3998 57.2536 22.3998 58.8C22.3998 60.3465 21.1463 61.6 19.5998 61.6C18.0534 61.6 16.7998 60.3465 16.7998 58.8C16.7998 57.2536 18.0534 56 19.5998 56Z" fill="#BA4B80"/>
<path d="M25.1994 56C26.7459 56 27.9994 57.2536 27.9994 58.8C27.9994 60.3465 26.7459 61.6 25.1994 61.6C23.653 61.6 22.3994 60.3465 22.3994 58.8C22.3994 57.2536 23.653 56 25.1994 56Z" fill="#BA4B80"/>
<path d="M36.4006 56C37.947 56 39.2006 57.2536 39.2006 58.8C39.2006 60.3465 37.947 61.6 36.4006 61.6C34.8542 61.6 33.6006 60.3465 33.6006 58.8C33.6006 57.2536 34.8542 56 36.4006 56Z" fill="#BA4B80"/>
<path d="M42.0002 56C43.5467 56 44.8002 57.2536 44.8002 58.8C44.8002 60.3465 43.5467 61.6 42.0002 61.6C40.4538 61.6 39.2002 60.3465 39.2002 58.8C39.2002 57.2536 40.4538 56 42.0002 56Z" fill="#BA4B80"/>
<path d="M47.5998 56C49.1463 56 50.3998 57.2536 50.3998 58.8C50.3998 60.3465 49.1463 61.6 47.5998 61.6C46.0534 61.6 44.7998 60.3465 44.7998 58.8C44.7998 57.2536 46.0534 56 47.5998 56Z" fill="#BA4B80"/>
<path d="M64.4006 56C65.947 56 67.2006 57.2536 67.2006 58.8C67.2006 60.3465 65.947 61.6 64.4006 61.6C62.8542 61.6 61.6006 60.3465 61.6006 58.8C61.6006 57.2536 62.8542 56 64.4006 56Z" fill="#BA4B80"/>
<path d="M75.5998 56C77.1463 56 78.3998 57.2536 78.3998 58.8C78.3998 60.3465 77.1463 61.6 75.5998 61.6C74.0534 61.6 72.7998 60.3465 72.7998 58.8C72.7998 57.2536 74.0534 56 75.5998 56Z" fill="#BA4B80"/>
<path d="M81.1994 56C82.7459 56 83.9994 57.2536 83.9994 58.8C83.9994 60.3465 82.7459 61.6 81.1994 61.6C79.653 61.6 78.3994 60.3465 78.3994 58.8C78.3994 57.2536 79.653 56 81.1994 56Z" fill="#BA4B80"/>
<path d="M86.8 56C88.3465 56 89.6 57.2536 89.6 58.8C89.6 60.3465 88.3465 61.6 86.8 61.6C85.2536 61.6 84 60.3465 84 58.8C84 57.2536 85.2536 56 86.8 56Z" fill="#BA4B80"/>
<path d="M92.4006 56C93.947 56 95.2006 57.2536 95.2006 58.8C95.2006 60.3465 93.947 61.6 92.4006 61.6C90.8542 61.6 89.6006 60.3465 89.6006 58.8C89.6006 57.2536 90.8542 56 92.4006 56Z" fill="#BA4B80"/>
<path d="M103.6 56C105.146 56 106.4 57.2536 106.4 58.8C106.4 60.3465 105.146 61.6 103.6 61.6C102.053 61.6 100.8 60.3465 100.8 58.8C100.8 57.2536 102.053 56 103.6 56Z" fill="#BA4B80"/>
<path d="M109.199 56C110.746 56 111.999 57.2536 111.999 58.8C111.999 60.3465 110.746 61.6 109.199 61.6C107.653 61.6 106.399 60.3465 106.399 58.8C106.399 57.2536 107.653 56 109.199 56Z" fill="#BA4B80"/>
<path d="M120.401 56C121.947 56 123.201 57.2536 123.201 58.8C123.201 60.3465 121.947 61.6 120.401 61.6C118.854 61.6 117.601 60.3465 117.601 58.8C117.601 57.2536 118.854 56 120.401 56Z" fill="#BA4B80"/>
<path d="M131.6 56C133.146 56 134.4 57.2536 134.4 58.8C134.4 60.3465 133.146 61.6 131.6 61.6C130.053 61.6 128.8 60.3465 128.8 58.8C128.8 57.2536 130.053 56 131.6 56Z" fill="#BA4B80"/>
<path d="M137.199 56C138.746 56 139.999 57.2536 139.999 58.8C139.999 60.3465 138.746 61.6 137.199 61.6C135.653 61.6 134.399 60.3465 134.399 58.8C134.399 57.2536 135.653 56 137.199 56Z" fill="#BA4B80"/>
<path d="M2.8 61.6C4.34646 61.6 5.6 62.8536 5.6 64.4C5.6 65.9464 4.34646 67.2 2.8 67.2C1.25362 67.2 0 65.9464 0 64.4C0 62.8536 1.25362 61.6 2.8 61.6Z" fill="#BA4B80"/>
<path d="M14.0002 61.6C15.5467 61.6 16.8002 62.8536 16.8002 64.4C16.8002 65.9464 15.5467 67.2 14.0002 67.2C12.4538 67.2 11.2002 65.9464 11.2002 64.4C11.2002 62.8536 12.4538 61.6 14.0002 61.6Z" fill="#BA4B80"/>
<path d="M47.5998 61.6C49.1463 61.6 50.3998 62.8536 50.3998 64.4C50.3998 65.9464 49.1463 67.2 47.5998 67.2C46.0534 67.2 44.7998 65.9464 44.7998 64.4C44.7998 62.8536 46.0534 61.6 47.5998 61.6Z" fill="#BA4B80"/>
<path d="M53.1994 61.6001C54.7459 61.6001 55.9994 62.8537 55.9994 64.4001C55.9994 65.9466 54.7459 67.2001 53.1994 67.2001C51.653 67.2001 50.3994 65.9466 50.3994 64.4001C50.3994 62.8537 51.653 61.6001 53.1994 61.6001Z" fill="#BA4B80"/>
<path d="M58.8 61.6C60.3465 61.6 61.6 62.8536 61.6 64.4C61.6 65.9464 60.3465 67.2 58.8 67.2C57.2536 67.2 56 65.9464 56 64.4C56 62.8536 57.2536 61.6 58.8 61.6Z" fill="#BA4B80"/>
<path d="M64.4006 61.6001C65.947 61.6001 67.2006 62.8537 67.2006 64.4001C67.2006 65.9466 65.947 67.2001 64.4006 67.2001C62.8542 67.2001 61.6006 65.9466 61.6006 64.4001C61.6006 62.8537 62.8542 61.6001 64.4006 61.6001Z" fill="#BA4B80"/>
<path d="M75.5998 61.6C77.1463 61.6 78.3998 62.8536 78.3998 64.4C78.3998 65.9464 77.1463 67.2 75.5998 67.2C74.0534 67.2 72.7998 65.9464 72.7998 64.4C72.7998 62.8536 74.0534 61.6 75.5998 61.6Z" fill="#BA4B80"/>
<path d="M92.4006 61.6001C93.947 61.6001 95.2006 62.8537 95.2006 64.4001C95.2006 65.9466 93.947 67.2001 92.4006 67.2001C90.8542 67.2001 89.6006 65.9466 89.6006 64.4001C89.6006 62.8537 90.8542 61.6001 92.4006 61.6001Z" fill="#BA4B80"/>
<path d="M137.199 61.6001C138.746 61.6001 139.999 62.8537 139.999 64.4001C139.999 65.9466 138.746 67.2001 137.199 67.2001C135.653 67.2001 134.399 65.9466 134.399 64.4001C134.399 62.8537 135.653 61.6001 137.199 61.6001Z" fill="#BA4B80"/>
<path d="M25.1994 67.2001C26.7459 67.2001 27.9994 68.4537 27.9994 70.0001C27.9994 71.5465 26.7459 72.8001 25.1994 72.8001C23.653 72.8001 22.3994 71.5465 22.3994 70.0001C22.3994 68.4537 23.653 67.2001 25.1994 67.2001Z" fill="#BA4B80"/>
<path d="M36.4006 67.2001C37.947 67.2001 39.2006 68.4537 39.2006 70.0001C39.2006 71.5465 37.947 72.8001 36.4006 72.8001C34.8542 72.8001 33.6006 71.5465 33.6006 70.0001C33.6006 68.4537 34.8542 67.2001 36.4006 67.2001Z" fill="#BA4B80"/>
<path d="M53.1994 67.2001C54.7459 67.2001 55.9994 68.4537 55.9994 70.0001C55.9994 71.5465 54.7459 72.8001 53.1994 72.8001C51.653 72.8001 50.3994 71.5465 50.3994 70.0001C50.3994 68.4537 51.653 67.2001 53.1994 67.2001Z" fill="#BA4B80"/>
<path d="M70.0002 67.2C71.5467 67.2 72.8002 68.4536 72.8002 70C72.8002 71.5464 71.5467 72.8 70.0002 72.8C68.4538 72.8 67.2002 71.5464 67.2002 70C67.2002 68.4536 68.4538 67.2 70.0002 67.2Z" fill="#BA4B80"/>
<path d="M81.1994 67.2001C82.7459 67.2001 83.9994 68.4537 83.9994 70.0001C83.9994 71.5465 82.7459 72.8001 81.1994 72.8001C79.653 72.8001 78.3994 71.5465 78.3994 70.0001C78.3994 68.4537 79.653 67.2001 81.1994 67.2001Z" fill="#BA4B80"/>
<path d="M98.0002 67.2C99.5467 67.2 100.8 68.4536 100.8 70C100.8 71.5464 99.5467 72.8 98.0002 72.8C96.4538 72.8 95.2002 71.5464 95.2002 70C95.2002 68.4536 96.4538 67.2 98.0002 67.2Z" fill="#BA4B80"/>
<path d="M103.6 67.2C105.146 67.2 106.4 68.4536 106.4 70C106.4 71.5464 105.146 72.8 103.6 72.8C102.053 72.8 100.8 71.5464 100.8 70C100.8 68.4536 102.053 67.2 103.6 67.2Z" fill="#BA4B80"/>
<path d="M109.199 67.2001C110.746 67.2001 111.999 68.4537 111.999 70.0001C111.999 71.5465 110.746 72.8001 109.199 72.8001C107.653 72.8001 106.399 71.5465 106.399 70.0001C106.399 68.4537 107.653 67.2001 109.199 67.2001Z" fill="#BA4B80"/>
<path d="M114.8 67.2C116.346 67.2 117.6 68.4536 117.6 70C117.6 71.5464 116.346 72.8 114.8 72.8C113.254 72.8 112 71.5464 112 70C112 68.4536 113.254 67.2 114.8 67.2Z" fill="#BA4B80"/>
<path d="M126 67.2C127.547 67.2 128.8 68.4536 128.8 70C128.8 71.5464 127.547 72.8 126 72.8C124.454 72.8 123.2 71.5464 123.2 70C123.2 68.4536 124.454 67.2 126 67.2Z" fill="#BA4B80"/>
<path d="M131.6 67.2C133.146 67.2 134.4 68.4536 134.4 70C134.4 71.5464 133.146 72.8 131.6 72.8C130.053 72.8 128.8 71.5464 128.8 70C128.8 68.4536 130.053 67.2 131.6 67.2Z" fill="#BA4B80"/>
<path d="M137.199 67.2001C138.746 67.2001 139.999 68.4537 139.999 70.0001C139.999 71.5465 138.746 72.8001 137.199 72.8001C135.653 72.8001 134.399 71.5465 134.399 70.0001C134.399 68.4537 135.653 67.2001 137.199 67.2001Z" fill="#BA4B80"/>
<path d="M2.8 72.8C4.34646 72.8 5.6 74.0537 5.6 75.6C5.6 77.1465 4.34646 78.4 2.8 78.4C1.25362 78.4 0 77.1465 0 75.6C0 74.0537 1.25362 72.8 2.8 72.8Z" fill="#BA4B80"/>
<path d="M8.40059 72.7999C9.94705 72.7999 11.2006 74.0535 11.2006 75.5999C11.2006 77.1464 9.94705 78.3999 8.40059 78.3999C6.8542 78.3999 5.60059 77.1464 5.60059 75.5999C5.60059 74.0535 6.8542 72.7999 8.40059 72.7999Z" fill="#BA4B80"/>
<path d="M25.1994 72.7999C26.7459 72.7999 27.9994 74.0535 27.9994 75.5999C27.9994 77.1464 26.7459 78.3999 25.1994 78.3999C23.653 78.3999 22.3994 77.1464 22.3994 75.5999C22.3994 74.0535 23.653 72.7999 25.1994 72.7999Z" fill="#BA4B80"/>
<path d="M30.8 72.8C32.3465 72.8 33.6 74.0537 33.6 75.6C33.6 77.1465 32.3465 78.4 30.8 78.4C29.2536 78.4 28 77.1465 28 75.6C28 74.0537 29.2536 72.8 30.8 72.8Z" fill="#BA4B80"/>
<path d="M42.0002 72.8C43.5467 72.8 44.8002 74.0537 44.8002 75.6C44.8002 77.1465 43.5467 78.4 42.0002 78.4C40.4538 78.4 39.2002 77.1465 39.2002 75.6C39.2002 74.0537 40.4538 72.8 42.0002 72.8Z" fill="#BA4B80"/>
<path d="M92.4006 72.7999C93.947 72.7999 95.2006 74.0535 95.2006 75.5999C95.2006 77.1464 93.947 78.3999 92.4006 78.3999C90.8542 78.3999 89.6006 77.1464 89.6006 75.5999C89.6006 74.0535 90.8542 72.7999 92.4006 72.7999Z" fill="#BA4B80"/>
<path d="M120.401 72.7999C121.947 72.7999 123.201 74.0535 123.201 75.5999C123.201 77.1464 121.947 78.3999 120.401 78.3999C118.854 78.3999 117.601 77.1464 117.601 75.5999C117.601 74.0535 118.854 72.7999 120.401 72.7999Z" fill="#BA4B80"/>
<path d="M131.6 72.8C133.146 72.8 134.4 74.0537 134.4 75.6C134.4 77.1465 133.146 78.4 131.6 78.4C130.053 78.4 128.8 77.1465 128.8 75.6C128.8 74.0537 130.053 72.8 131.6 72.8Z" fill="#BA4B80"/>
<path d="M2.8 78.4C4.34646 78.4 5.6 79.6536 5.6 81.2C5.6 82.7465 4.34646 84 2.8 84C1.25362 84 0 82.7465 0 81.2C0 79.6536 1.25362 78.4 2.8 78.4Z" fill="#BA4B80"/>
<path d="M19.5998 78.4C21.1463 78.4 22.3998 79.6536 22.3998 81.2C22.3998 82.7465 21.1463 84 19.5998 84C18.0534 84 16.7998 82.7465 16.7998 81.2C16.7998 79.6536 18.0534 78.4 19.5998 78.4Z" fill="#BA4B80"/>
<path d="M30.8 78.4C32.3465 78.4 33.6 79.6536 33.6 81.2C33.6 82.7465 32.3465 84 30.8 84C29.2536 84 28 82.7465 28 81.2C28 79.6536 29.2536 78.4 30.8 78.4Z" fill="#BA4B80"/>
<path d="M36.4006 78.3999C37.947 78.3999 39.2006 79.6535 39.2006 81.1999C39.2006 82.7464 37.947 83.9999 36.4006 83.9999C34.8542 83.9999 33.6006 82.7464 33.6006 81.1999C33.6006 79.6535 34.8542 78.3999 36.4006 78.3999Z" fill="#BA4B80"/>
<path d="M42.0002 78.4C43.5467 78.4 44.8002 79.6536 44.8002 81.2C44.8002 82.7465 43.5467 84 42.0002 84C40.4538 84 39.2002 82.7465 39.2002 81.2C39.2002 79.6536 40.4538 78.4 42.0002 78.4Z" fill="#BA4B80"/>
<path d="M47.5998 78.4C49.1463 78.4 50.3998 79.6536 50.3998 81.2C50.3998 82.7465 49.1463 84 47.5998 84C46.0534 84 44.7998 82.7465 44.7998 81.2C44.7998 79.6536 46.0534 78.4 47.5998 78.4Z" fill="#BA4B80"/>
<path d="M58.8 78.4C60.3465 78.4 61.6 79.6536 61.6 81.2C61.6 82.7465 60.3465 84 58.8 84C57.2536 84 56 82.7465 56 81.2C56 79.6536 57.2536 78.4 58.8 78.4Z" fill="#BA4B80"/>
<path d="M64.4006 78.3999C65.947 78.3999 67.2006 79.6535 67.2006 81.1999C67.2006 82.7464 65.947 83.9999 64.4006 83.9999C62.8542 83.9999 61.6006 82.7464 61.6006 81.1999C61.6006 79.6535 62.8542 78.3999 64.4006 78.3999Z" fill="#BA4B80"/>
<path d="M70.0002 78.4C71.5467 78.4 72.8002 79.6536 72.8002 81.2C72.8002 82.7465 71.5467 84 70.0002 84C68.4538 84 67.2002 82.7465 67.2002 81.2C67.2002 79.6536 68.4538 78.4 70.0002 78.4Z" fill="#BA4B80"/>
<path d="M86.8 78.4C88.3465 78.4 89.6 79.6536 89.6 81.2C89.6 82.7465 88.3465 84 86.8 84C85.2536 84 84 82.7465 84 81.2C84 79.6536 85.2536 78.4 86.8 78.4Z" fill="#BA4B80"/>
<path d="M92.4006 78.3999C93.947 78.3999 95.2006 79.6535 95.2006 81.1999C95.2006 82.7464 93.947 83.9999 92.4006 83.9999C90.8542 83.9999 89.6006 82.7464 89.6006 81.1999C89.6006 79.6535 90.8542 78.3999 92.4006 78.3999Z" fill="#BA4B80"/>
<path d="M98.0002 78.4C99.5467 78.4 100.8 79.6536 100.8 81.2C100.8 82.7465 99.5467 84 98.0002 84C96.4538 84 95.2002 82.7465 95.2002 81.2C95.2002 79.6536 96.4538 78.4 98.0002 78.4Z" fill="#BA4B80"/>
<path d="M109.199 78.3999C110.746 78.3999 111.999 79.6535 111.999 81.1999C111.999 82.7464 110.746 83.9999 109.199 83.9999C107.653 83.9999 106.399 82.7464 106.399 81.1999C106.399 79.6535 107.653 78.3999 109.199 78.3999Z" fill="#BA4B80"/>
<path d="M120.401 78.3999C121.947 78.3999 123.201 79.6535 123.201 81.1999C123.201 82.7464 121.947 83.9999 120.401 83.9999C118.854 83.9999 117.601 82.7464 117.601 81.1999C117.601 79.6535 118.854 78.3999 120.401 78.3999Z" fill="#BA4B80"/>
<path d="M131.6 78.4C133.146 78.4 134.4 79.6536 134.4 81.2C134.4 82.7465 133.146 84 131.6 84C130.053 84 128.8 82.7465 128.8 81.2C128.8 79.6536 130.053 78.4 131.6 78.4Z" fill="#BA4B80"/>
<path d="M137.199 78.3999C138.746 78.3999 139.999 79.6535 139.999 81.1999C139.999 82.7464 138.746 83.9999 137.199 83.9999C135.653 83.9999 134.399 82.7464 134.399 81.1999C134.399 79.6535 135.653 78.3999 137.199 78.3999Z" fill="#BA4B80"/>
<path d="M2.8 84C4.34646 84 5.6 85.2536 5.6 86.8C5.6 88.3465 4.34646 89.6 2.8 89.6C1.25362 89.6 0 88.3465 0 86.8C0 85.2536 1.25362 84 2.8 84Z" fill="#BA4B80"/>
<path d="M19.5998 84C21.1463 84 22.3998 85.2536 22.3998 86.8C22.3998 88.3465 21.1463 89.6 19.5998 89.6C18.0534 89.6 16.7998 88.3465 16.7998 86.8C16.7998 85.2536 18.0534 84 19.5998 84Z" fill="#BA4B80"/>
<path d="M30.8 84C32.3465 84 33.6 85.2536 33.6 86.8C33.6 88.3465 32.3465 89.6 30.8 89.6C29.2536 89.6 28 88.3465 28 86.8C28 85.2536 29.2536 84 30.8 84Z" fill="#BA4B80"/>
<path d="M53.1994 84C54.7459 84 55.9994 85.2536 55.9994 86.8C55.9994 88.3465 54.7459 89.6 53.1994 89.6C51.653 89.6 50.3994 88.3465 50.3994 86.8C50.3994 85.2536 51.653 84 53.1994 84Z" fill="#BA4B80"/>
<path d="M64.4006 84C65.947 84 67.2006 85.2536 67.2006 86.8C67.2006 88.3465 65.947 89.6 64.4006 89.6C62.8542 89.6 61.6006 88.3465 61.6006 86.8C61.6006 85.2536 62.8542 84 64.4006 84Z" fill="#BA4B80"/>
<path d="M81.1994 84C82.7459 84 83.9994 85.2536 83.9994 86.8C83.9994 88.3465 82.7459 89.6 81.1994 89.6C79.653 89.6 78.3994 88.3465 78.3994 86.8C78.3994 85.2536 79.653 84 81.1994 84Z" fill="#BA4B80"/>
<path d="M98.0002 84C99.5467 84 100.8 85.2536 100.8 86.8C100.8 88.3465 99.5467 89.6 98.0002 89.6C96.4538 89.6 95.2002 88.3465 95.2002 86.8C95.2002 85.2536 96.4538 84 98.0002 84Z" fill="#BA4B80"/>
<path d="M120.401 84C121.947 84 123.201 85.2536 123.201 86.8C123.201 88.3465 121.947 89.6 120.401 89.6C118.854 89.6 117.601 88.3465 117.601 86.8C117.601 85.2536 118.854 84 120.401 84Z" fill="#BA4B80"/>
<path d="M137.199 84C138.746 84 139.999 85.2536 139.999 86.8C139.999 88.3465 138.746 89.6 137.199 89.6C135.653 89.6 134.399 88.3465 134.399 86.8C134.399 85.2536 135.653 84 137.199 84Z" fill="#BA4B80"/>
<path d="M2.8 89.6C4.34646 89.6 5.6 90.8536 5.6 92.4C5.6 93.9464 4.34646 95.2 2.8 95.2C1.25362 95.2 0 93.9464 0 92.4C0 90.8536 1.25362 89.6 2.8 89.6Z" fill="#BA4B80"/>
<path d="M14.0002 89.6C15.5467 89.6 16.8002 90.8536 16.8002 92.4C16.8002 93.9464 15.5467 95.2 14.0002 95.2C12.4538 95.2 11.2002 93.9464 11.2002 92.4C11.2002 90.8536 12.4538 89.6 14.0002 89.6Z" fill="#BA4B80"/>
<path d="M30.8 89.6C32.3465 89.6 33.6 90.8536 33.6 92.4C33.6 93.9464 32.3465 95.2 30.8 95.2C29.2536 95.2 28 93.9464 28 92.4C28 90.8536 29.2536 89.6 30.8 89.6Z" fill="#BA4B80"/>
<path d="M36.4006 89.6001C37.947 89.6001 39.2006 90.8537 39.2006 92.4001C39.2006 93.9466 37.947 95.2001 36.4006 95.2001C34.8542 95.2001 33.6006 93.9466 33.6006 92.4001C33.6006 90.8537 34.8542 89.6001 36.4006 89.6001Z" fill="#BA4B80"/>
<path d="M47.5998 89.6C49.1463 89.6 50.3998 90.8536 50.3998 92.4C50.3998 93.9464 49.1463 95.2 47.5998 95.2C46.0534 95.2 44.7998 93.9464 44.7998 92.4C44.7998 90.8536 46.0534 89.6 47.5998 89.6Z" fill="#BA4B80"/>
<path d="M64.4006 89.6001C65.947 89.6001 67.2006 90.8537 67.2006 92.4001C67.2006 93.9466 65.947 95.2001 64.4006 95.2001C62.8542 95.2001 61.6006 93.9466 61.6006 92.4001C61.6006 90.8537 62.8542 89.6001 64.4006 89.6001Z" fill="#BA4B80"/>
<path d="M86.8 89.6C88.3465 89.6 89.6 90.8536 89.6 92.4C89.6 93.9464 88.3465 95.2 86.8 95.2C85.2536 95.2 84 93.9464 84 92.4C84 90.8536 85.2536 89.6 86.8 89.6Z" fill="#BA4B80"/>
<path d="M92.4006 89.6001C93.947 89.6001 95.2006 90.8537 95.2006 92.4001C95.2006 93.9466 93.947 95.2001 92.4006 95.2001C90.8542 95.2001 89.6006 93.9466 89.6006 92.4001C89.6006 90.8537 90.8542 89.6001 92.4006 89.6001Z" fill="#BA4B80"/>
<path d="M98.0002 89.6C99.5467 89.6 100.8 90.8536 100.8 92.4C100.8 93.9464 99.5467 95.2 98.0002 95.2C96.4538 95.2 95.2002 93.9464 95.2002 92.4C95.2002 90.8536 96.4538 89.6 98.0002 89.6Z" fill="#BA4B80"/>
<path d="M103.6 89.6C105.146 89.6 106.4 90.8536 106.4 92.4C106.4 93.9464 105.146 95.2 103.6 95.2C102.053 95.2 100.8 93.9464 100.8 92.4C100.8 90.8536 102.053 89.6 103.6 89.6Z" fill="#BA4B80"/>
<path d="M109.199 89.6001C110.746 89.6001 111.999 90.8537 111.999 92.4001C111.999 93.9466 110.746 95.2001 109.199 95.2001C107.653 95.2001 106.399 93.9466 106.399 92.4001C106.399 90.8537 107.653 89.6001 109.199 89.6001Z" fill="#BA4B80"/>
<path d="M114.8 89.6C116.346 89.6 117.6 90.8536 117.6 92.4C117.6 93.9464 116.346 95.2 114.8 95.2C113.254 95.2 112 93.9464 112 92.4C112 90.8536 113.254 89.6 114.8 89.6Z" fill="#BA4B80"/>
<path d="M126 89.6C127.547 89.6 128.8 90.8536 128.8 92.4C128.8 93.9464 127.547 95.2 126 95.2C124.454 95.2 123.2 93.9464 123.2 92.4C123.2 90.8536 124.454 89.6 126 89.6Z" fill="#BA4B80"/>
<path d="M47.5998 95.2C49.1463 95.2 50.3998 96.4536 50.3998 98C50.3998 99.5464 49.1463 100.8 47.5998 100.8C46.0534 100.8 44.7998 99.5464 44.7998 98C44.7998 96.4536 46.0534 95.2 47.5998 95.2Z" fill="#BA4B80"/>
<path d="M53.1994 95.2001C54.7459 95.2001 55.9994 96.4537 55.9994 98.0001C55.9994 99.5465 54.7459 100.8 53.1994 100.8C51.653 100.8 50.3994 99.5465 50.3994 98.0001C50.3994 96.4537 51.653 95.2001 53.1994 95.2001Z" fill="#BA4B80"/>
<path d="M58.8 95.2C60.3465 95.2 61.6 96.4536 61.6 98C61.6 99.5464 60.3465 100.8 58.8 100.8C57.2536 100.8 56 99.5464 56 98C56 96.4536 57.2536 95.2 58.8 95.2Z" fill="#BA4B80"/>
<path d="M70.0002 95.2C71.5467 95.2 72.8002 96.4536 72.8002 98C72.8002 99.5464 71.5467 100.8 70.0002 100.8C68.4538 100.8 67.2002 99.5464 67.2002 98C67.2002 96.4536 68.4538 95.2 70.0002 95.2Z" fill="#BA4B80"/>
<path d="M75.5998 95.2C77.1463 95.2 78.3998 96.4536 78.3998 98C78.3998 99.5464 77.1463 100.8 75.5998 100.8C74.0534 100.8 72.7998 99.5464 72.7998 98C72.7998 96.4536 74.0534 95.2 75.5998 95.2Z" fill="#BA4B80"/>
<path d="M81.1994 95.2001C82.7459 95.2001 83.9994 96.4537 83.9994 98.0001C83.9994 99.5465 82.7459 100.8 81.1994 100.8C79.653 100.8 78.3994 99.5465 78.3994 98.0001C78.3994 96.4537 79.653 95.2001 81.1994 95.2001Z" fill="#BA4B80"/>
<path d="M86.8 95.2C88.3465 95.2 89.6 96.4536 89.6 98C89.6 99.5464 88.3465 100.8 86.8 100.8C85.2536 100.8 84 99.5464 84 98C84 96.4536 85.2536 95.2 86.8 95.2Z" fill="#BA4B80"/>
<path d="M92.4006 95.2001C93.947 95.2001 95.2006 96.4537 95.2006 98.0001C95.2006 99.5465 93.947 100.8 92.4006 100.8C90.8542 100.8 89.6006 99.5465 89.6006 98.0001C89.6006 96.4537 90.8542 95.2001 92.4006 95.2001Z" fill="#BA4B80"/>
<path d="M114.8 95.2C116.346 95.2 117.6 96.4536 117.6 98C117.6 99.5464 116.346 100.8 114.8 100.8C113.254 100.8 112 99.5464 112 98C112 96.4536 113.254 95.2 114.8 95.2Z" fill="#BA4B80"/>
<path d="M120.401 95.2001C121.947 95.2001 123.201 96.4537 123.201 98.0001C123.201 99.5465 121.947 100.8 120.401 100.8C118.854 100.8 117.601 99.5465 117.601 98.0001C117.601 96.4537 118.854 95.2001 120.401 95.2001Z" fill="#BA4B80"/>
<path d="M126 95.2C127.547 95.2 128.8 96.4536 128.8 98C128.8 99.5464 127.547 100.8 126 100.8C124.454 100.8 123.2 99.5464 123.2 98C123.2 96.4536 124.454 95.2 126 95.2Z" fill="#BA4B80"/>
<path d="M75.5998 100.8C77.1463 100.8 78.3998 102.054 78.3998 103.6C78.3998 105.147 77.1463 106.4 75.5998 106.4C74.0534 106.4 72.7998 105.147 72.7998 103.6C72.7998 102.054 74.0534 100.8 75.5998 100.8Z" fill="#BA4B80"/>
<path d="M81.1994 100.8C82.7459 100.8 83.9994 102.054 83.9994 103.6C83.9994 105.146 82.7459 106.4 81.1994 106.4C79.653 106.4 78.3994 105.146 78.3994 103.6C78.3994 102.054 79.653 100.8 81.1994 100.8Z" fill="#BA4B80"/>
<path d="M92.4006 100.8C93.947 100.8 95.2006 102.054 95.2006 103.6C95.2006 105.146 93.947 106.4 92.4006 106.4C90.8542 106.4 89.6006 105.146 89.6006 103.6C89.6006 102.054 90.8542 100.8 92.4006 100.8Z" fill="#BA4B80"/>
<path d="M103.6 100.8C105.146 100.8 106.4 102.054 106.4 103.6C106.4 105.147 105.146 106.4 103.6 106.4C102.053 106.4 100.8 105.147 100.8 103.6C100.8 102.054 102.053 100.8 103.6 100.8Z" fill="#BA4B80"/>
<path d="M114.8 100.8C116.346 100.8 117.6 102.054 117.6 103.6C117.6 105.147 116.346 106.4 114.8 106.4C113.254 106.4 112 105.147 112 103.6C112 102.054 113.254 100.8 114.8 100.8Z" fill="#BA4B80"/>
<path d="M120.401 100.8C121.947 100.8 123.201 102.054 123.201 103.6C123.201 105.146 121.947 106.4 120.401 106.4C118.854 106.4 117.601 105.146 117.601 103.6C117.601 102.054 118.854 100.8 120.401 100.8Z" fill="#BA4B80"/>
<path d="M126 100.8C127.547 100.8 128.8 102.054 128.8 103.6C128.8 105.147 127.547 106.4 126 106.4C124.454 106.4 123.2 105.147 123.2 103.6C123.2 102.054 124.454 100.8 126 100.8Z" fill="#BA4B80"/>
<path d="M131.6 100.8C133.146 100.8 134.4 102.054 134.4 103.6C134.4 105.147 133.146 106.4 131.6 106.4C130.053 106.4 128.8 105.147 128.8 103.6C128.8 102.054 130.053 100.8 131.6 100.8Z" fill="#BA4B80"/>
<path d="M137.199 100.8C138.746 100.8 139.999 102.054 139.999 103.6C139.999 105.146 138.746 106.4 137.199 106.4C135.653 106.4 134.399 105.146 134.399 103.6C134.399 102.054 135.653 100.8 137.199 100.8Z" fill="#BA4B80"/>
<path d="M47.5998 106.4C49.1463 106.4 50.3998 107.654 50.3998 109.2C50.3998 110.746 49.1463 112 47.5998 112C46.0534 112 44.7998 110.746 44.7998 109.2C44.7998 107.654 46.0534 106.4 47.5998 106.4Z" fill="#BA4B80"/>
<path d="M53.1994 106.4C54.7459 106.4 55.9994 107.654 55.9994 109.2C55.9994 110.746 54.7459 112 53.1994 112C51.653 112 50.3994 110.746 50.3994 109.2C50.3994 107.654 51.653 106.4 53.1994 106.4Z" fill="#BA4B80"/>
<path d="M58.8 106.4C60.3465 106.4 61.6 107.654 61.6 109.2C61.6 110.746 60.3465 112 58.8 112C57.2536 112 56 110.746 56 109.2C56 107.654 57.2536 106.4 58.8 106.4Z" fill="#BA4B80"/>
<path d="M70.0002 106.4C71.5467 106.4 72.8002 107.654 72.8002 109.2C72.8002 110.746 71.5467 112 70.0002 112C68.4538 112 67.2002 110.746 67.2002 109.2C67.2002 107.654 68.4538 106.4 70.0002 106.4Z" fill="#BA4B80"/>
<path d="M75.5998 106.4C77.1463 106.4 78.3998 107.654 78.3998 109.2C78.3998 110.746 77.1463 112 75.5998 112C74.0534 112 72.7998 110.746 72.7998 109.2C72.7998 107.654 74.0534 106.4 75.5998 106.4Z" fill="#BA4B80"/>
<path d="M92.4006 106.4C93.947 106.4 95.2006 107.654 95.2006 109.2C95.2006 110.746 93.947 112 92.4006 112C90.8542 112 89.6006 110.746 89.6006 109.2C89.6006 107.654 90.8542 106.4 92.4006 106.4Z" fill="#BA4B80"/>
<path d="M114.8 106.4C116.346 106.4 117.6 107.654 117.6 109.2C117.6 110.746 116.346 112 114.8 112C113.254 112 112 110.746 112 109.2C112 107.654 113.254 106.4 114.8 106.4Z" fill="#BA4B80"/>
<path d="M120.401 106.4C121.947 106.4 123.201 107.654 123.201 109.2C123.201 110.746 121.947 112 120.401 112C118.854 112 117.601 110.746 117.601 109.2C117.601 107.654 118.854 106.4 120.401 106.4Z" fill="#BA4B80"/>
<path d="M131.6 106.4C133.146 106.4 134.4 107.654 134.4 109.2C134.4 110.746 133.146 112 131.6 112C130.053 112 128.8 110.746 128.8 109.2C128.8 107.654 130.053 106.4 131.6 106.4Z" fill="#BA4B80"/>
<path d="M47.5998 112C49.1463 112 50.3998 113.254 50.3998 114.8C50.3998 116.346 49.1463 117.6 47.5998 117.6C46.0534 117.6 44.7998 116.346 44.7998 114.8C44.7998 113.254 46.0534 112 47.5998 112Z" fill="#BA4B80"/>
<path d="M53.1994 112C54.7459 112 55.9994 113.254 55.9994 114.8C55.9994 116.346 54.7459 117.6 53.1994 117.6C51.653 117.6 50.3994 116.346 50.3994 114.8C50.3994 113.254 51.653 112 53.1994 112Z" fill="#BA4B80"/>
<path d="M58.8 112C60.3465 112 61.6 113.254 61.6 114.8C61.6 116.346 60.3465 117.6 58.8 117.6C57.2536 117.6 56 116.346 56 114.8C56 113.254 57.2536 112 58.8 112Z" fill="#BA4B80"/>
<path d="M70.0002 112C71.5467 112 72.8002 113.254 72.8002 114.8C72.8002 116.346 71.5467 117.6 70.0002 117.6C68.4538 117.6 67.2002 116.346 67.2002 114.8C67.2002 113.254 68.4538 112 70.0002 112Z" fill="#BA4B80"/>
<path d="M81.1994 112C82.7459 112 83.9994 113.254 83.9994 114.8C83.9994 116.346 82.7459 117.6 81.1994 117.6C79.653 117.6 78.3994 116.346 78.3994 114.8C78.3994 113.254 79.653 112 81.1994 112Z" fill="#BA4B80"/>
<path d="M86.8 112C88.3465 112 89.6 113.254 89.6 114.8C89.6 116.346 88.3465 117.6 86.8 117.6C85.2536 117.6 84 116.346 84 114.8C84 113.254 85.2536 112 86.8 112Z" fill="#BA4B80"/>
<path d="M92.4006 112C93.947 112 95.2006 113.254 95.2006 114.8C95.2006 116.346 93.947 117.6 92.4006 117.6C90.8542 117.6 89.6006 116.346 89.6006 114.8C89.6006 113.254 90.8542 112 92.4006 112Z" fill="#BA4B80"/>
<path d="M98.0002 112C99.5467 112 100.8 113.254 100.8 114.8C100.8 116.346 99.5467 117.6 98.0002 117.6C96.4538 117.6 95.2002 116.346 95.2002 114.8C95.2002 113.254 96.4538 112 98.0002 112Z" fill="#BA4B80"/>
<path d="M103.6 112C105.146 112 106.4 113.254 106.4 114.8C106.4 116.346 105.146 117.6 103.6 117.6C102.053 117.6 100.8 116.346 100.8 114.8C100.8 113.254 102.053 112 103.6 112Z" fill="#BA4B80"/>
<path d="M109.199 112C110.746 112 111.999 113.254 111.999 114.8C111.999 116.346 110.746 117.6 109.199 117.6C107.653 117.6 106.399 116.346 106.399 114.8C106.399 113.254 107.653 112 109.199 112Z" fill="#BA4B80"/>
<path d="M114.8 112C116.346 112 117.6 113.254 117.6 114.8C117.6 116.346 116.346 117.6 114.8 117.6C113.254 117.6 112 116.346 112 114.8C112 113.254 113.254 112 114.8 112Z" fill="#BA4B80"/>
<path d="M120.401 112C121.947 112 123.201 113.254 123.201 114.8C123.201 116.346 121.947 117.6 120.401 117.6C118.854 117.6 117.601 116.346 117.601 114.8C117.601 113.254 118.854 112 120.401 112Z" fill="#BA4B80"/>
<path d="M126 112C127.547 112 128.8 113.254 128.8 114.8C128.8 116.346 127.547 117.6 126 117.6C124.454 117.6 123.2 116.346 123.2 114.8C123.2 113.254 124.454 112 126 112Z" fill="#BA4B80"/>
<path d="M137.199 112C138.746 112 139.999 113.254 139.999 114.8C139.999 116.346 138.746 117.6 137.199 117.6C135.653 117.6 134.399 116.346 134.399 114.8C134.399 113.254 135.653 112 137.199 112Z" fill="#BA4B80"/>
<path d="M47.5998 117.6C49.1463 117.6 50.3998 118.854 50.3998 120.4C50.3998 121.946 49.1463 123.2 47.5998 123.2C46.0534 123.2 44.7998 121.946 44.7998 120.4C44.7998 118.854 46.0534 117.6 47.5998 117.6Z" fill="#BA4B80"/>
<path d="M53.1994 117.6C54.7459 117.6 55.9994 118.854 55.9994 120.4C55.9994 121.947 54.7459 123.2 53.1994 123.2C51.653 123.2 50.3994 121.947 50.3994 120.4C50.3994 118.854 51.653 117.6 53.1994 117.6Z" fill="#BA4B80"/>
<path d="M86.8 117.6C88.3465 117.6 89.6 118.854 89.6 120.4C89.6 121.946 88.3465 123.2 86.8 123.2C85.2536 123.2 84 121.946 84 120.4C84 118.854 85.2536 117.6 86.8 117.6Z" fill="#BA4B80"/>
<path d="M92.4006 117.6C93.947 117.6 95.2006 118.854 95.2006 120.4C95.2006 121.947 93.947 123.2 92.4006 123.2C90.8542 123.2 89.6006 121.947 89.6006 120.4C89.6006 118.854 90.8542 117.6 92.4006 117.6Z" fill="#BA4B80"/>
<path d="M98.0002 117.6C99.5467 117.6 100.8 118.854 100.8 120.4C100.8 121.946 99.5467 123.2 98.0002 123.2C96.4538 123.2 95.2002 121.946 95.2002 120.4C95.2002 118.854 96.4538 117.6 98.0002 117.6Z" fill="#BA4B80"/>
<path d="M103.6 117.6C105.146 117.6 106.4 118.854 106.4 120.4C106.4 121.946 105.146 123.2 103.6 123.2C102.053 123.2 100.8 121.946 100.8 120.4C100.8 118.854 102.053 117.6 103.6 117.6Z" fill="#BA4B80"/>
<path d="M109.199 117.6C110.746 117.6 111.999 118.854 111.999 120.4C111.999 121.947 110.746 123.2 109.199 123.2C107.653 123.2 106.399 121.947 106.399 120.4C106.399 118.854 107.653 117.6 109.199 117.6Z" fill="#BA4B80"/>
<path d="M126 117.6C127.547 117.6 128.8 118.854 128.8 120.4C128.8 121.946 127.547 123.2 126 123.2C124.454 123.2 123.2 121.946 123.2 120.4C123.2 118.854 124.454 117.6 126 117.6Z" fill="#BA4B80"/>
<path d="M131.6 117.6C133.146 117.6 134.4 118.854 134.4 120.4C134.4 121.946 133.146 123.2 131.6 123.2C130.053 123.2 128.8 121.946 128.8 120.4C128.8 118.854 130.053 117.6 131.6 117.6Z" fill="#BA4B80"/>
<path d="M137.199 117.6C138.746 117.6 139.999 118.854 139.999 120.4C139.999 121.947 138.746 123.2 137.199 123.2C135.653 123.2 134.399 121.947 134.399 120.4C134.399 118.854 135.653 117.6 137.199 117.6Z" fill="#BA4B80"/>
<path d="M47.5998 123.2C49.1463 123.2 50.3998 124.454 50.3998 126C50.3998 127.546 49.1463 128.8 47.5998 128.8C46.0534 128.8 44.7998 127.546 44.7998 126C44.7998 124.454 46.0534 123.2 47.5998 123.2Z" fill="#BA4B80"/>
<path d="M53.1994 123.2C54.7459 123.2 55.9994 124.454 55.9994 126C55.9994 127.547 54.7459 128.8 53.1994 128.8C51.653 128.8 50.3994 127.547 50.3994 126C50.3994 124.454 51.653 123.2 53.1994 123.2Z" fill="#BA4B80"/>
<path d="M64.4006 123.2C65.947 123.2 67.2006 124.454 67.2006 126C67.2006 127.547 65.947 128.8 64.4006 128.8C62.8542 128.8 61.6006 127.547 61.6006 126C61.6006 124.454 62.8542 123.2 64.4006 123.2Z" fill="#BA4B80"/>
<path d="M70.0002 123.2C71.5467 123.2 72.8002 124.454 72.8002 126C72.8002 127.546 71.5467 128.8 70.0002 128.8C68.4538 128.8 67.2002 127.546 67.2002 126C67.2002 124.454 68.4538 123.2 70.0002 123.2Z" fill="#BA4B80"/>
<path d="M92.4006 123.2C93.947 123.2 95.2006 124.454 95.2006 126C95.2006 127.547 93.947 128.8 92.4006 128.8C90.8542 128.8 89.6006 127.547 89.6006 126C89.6006 124.454 90.8542 123.2 92.4006 123.2Z" fill="#BA4B80"/>
<path d="M98.0002 123.2C99.5467 123.2 100.8 124.454 100.8 126C100.8 127.546 99.5467 128.8 98.0002 128.8C96.4538 128.8 95.2002 127.546 95.2002 126C95.2002 124.454 96.4538 123.2 98.0002 123.2Z" fill="#BA4B80"/>
<path d="M109.199 123.2C110.746 123.2 111.999 124.454 111.999 126C111.999 127.547 110.746 128.8 109.199 128.8C107.653 128.8 106.399 127.547 106.399 126C106.399 124.454 107.653 123.2 109.199 123.2Z" fill="#BA4B80"/>
<path d="M126 123.2C127.547 123.2 128.8 124.454 128.8 126C128.8 127.546 127.547 128.8 126 128.8C124.454 128.8 123.2 127.546 123.2 126C123.2 124.454 124.454 123.2 126 123.2Z" fill="#BA4B80"/>
<path d="M137.199 123.2C138.746 123.2 139.999 124.454 139.999 126C139.999 127.547 138.746 128.8 137.199 128.8C135.653 128.8 134.399 127.547 134.399 126C134.399 124.454 135.653 123.2 137.199 123.2Z" fill="#BA4B80"/>
<path d="M53.1994 128.8C54.7459 128.8 55.9994 130.054 55.9994 131.6C55.9994 133.146 54.7459 134.4 53.1994 134.4C51.653 134.4 50.3994 133.146 50.3994 131.6C50.3994 130.054 51.653 128.8 53.1994 128.8Z" fill="#BA4B80"/>
<path d="M64.4006 128.8C65.947 128.8 67.2006 130.054 67.2006 131.6C67.2006 133.146 65.947 134.4 64.4006 134.4C62.8542 134.4 61.6006 133.146 61.6006 131.6C61.6006 130.054 62.8542 128.8 64.4006 128.8Z" fill="#BA4B80"/>
<path d="M81.1994 128.8C82.7459 128.8 83.9994 130.054 83.9994 131.6C83.9994 133.146 82.7459 134.4 81.1994 134.4C79.653 134.4 78.3994 133.146 78.3994 131.6C78.3994 130.054 79.653 128.8 81.1994 128.8Z" fill="#BA4B80"/>
<path d="M86.8 128.8C88.3465 128.8 89.6 130.054 89.6 131.6C89.6 133.147 88.3465 134.4 86.8 134.4C85.2536 134.4 84 133.147 84 131.6C84 130.054 85.2536 128.8 86.8 128.8Z" fill="#BA4B80"/>
<path d="M92.4006 128.8C93.947 128.8 95.2006 130.054 95.2006 131.6C95.2006 133.146 93.947 134.4 92.4006 134.4C90.8542 134.4 89.6006 133.146 89.6006 131.6C89.6006 130.054 90.8542 128.8 92.4006 128.8Z" fill="#BA4B80"/>
<path d="M109.199 128.8C110.746 128.8 111.999 130.054 111.999 131.6C111.999 133.146 110.746 134.4 109.199 134.4C107.653 134.4 106.399 133.146 106.399 131.6C106.399 130.054 107.653 128.8 109.199 128.8Z" fill="#BA4B80"/>
<path d="M114.8 128.8C116.346 128.8 117.6 130.054 117.6 131.6C117.6 133.147 116.346 134.4 114.8 134.4C113.254 134.4 112 133.147 112 131.6C112 130.054 113.254 128.8 114.8 128.8Z" fill="#BA4B80"/>
<path d="M120.401 128.8C121.947 128.8 123.201 130.054 123.201 131.6C123.201 133.146 121.947 134.4 120.401 134.4C118.854 134.4 117.601 133.146 117.601 131.6C117.601 130.054 118.854 128.8 120.401 128.8Z" fill="#BA4B80"/>
<path d="M137.199 128.8C138.746 128.8 139.999 130.054 139.999 131.6C139.999 133.146 138.746 134.4 137.199 134.4C135.653 134.4 134.399 133.146 134.399 131.6C134.399 130.054 135.653 128.8 137.199 128.8Z" fill="#BA4B80"/>
<path d="M47.5998 134.4C49.1463 134.4 50.3998 135.654 50.3998 137.2C50.3998 138.746 49.1463 140 47.5998 140C46.0534 140 44.7998 138.746 44.7998 137.2C44.7998 135.654 46.0534 134.4 47.5998 134.4Z" fill="#BA4B80"/>
<path d="M53.1994 134.4C54.7459 134.4 55.9994 135.654 55.9994 137.2C55.9994 138.746 54.7459 140 53.1994 140C51.653 140 50.3994 138.746 50.3994 137.2C50.3994 135.654 51.653 134.4 53.1994 134.4Z" fill="#BA4B80"/>
<path d="M64.4006 134.4C65.947 134.4 67.2006 135.654 67.2006 137.2C67.2006 138.746 65.947 140 64.4006 140C62.8542 140 61.6006 138.746 61.6006 137.2C61.6006 135.654 62.8542 134.4 64.4006 134.4Z" fill="#BA4B80"/>
<path d="M86.8 134.4C88.3465 134.4 89.6 135.654 89.6 137.2C89.6 138.746 88.3465 140 86.8 140C85.2536 140 84 138.746 84 137.2C84 135.654 85.2536 134.4 86.8 134.4Z" fill="#BA4B80"/>
<path d="M103.6 134.4C105.146 134.4 106.4 135.654 106.4 137.2C106.4 138.746 105.146 140 103.6 140C102.053 140 100.8 138.746 100.8 137.2C100.8 135.654 102.053 134.4 103.6 134.4Z" fill="#BA4B80"/>
<path d="M109.199 134.4C110.746 134.4 111.999 135.654 111.999 137.2C111.999 138.746 110.746 140 109.199 140C107.653 140 106.399 138.746 106.399 137.2C106.399 135.654 107.653 134.4 109.199 134.4Z" fill="#BA4B80"/>
<path d="M114.8 134.4C116.346 134.4 117.6 135.654 117.6 137.2C117.6 138.746 116.346 140 114.8 140C113.254 140 112 138.746 112 137.2C112 135.654 113.254 134.4 114.8 134.4Z" fill="#BA4B80"/>
<path d="M120.401 134.4C121.947 134.4 123.201 135.654 123.201 137.2C123.201 138.746 121.947 140 120.401 140C118.854 140 117.601 138.746 117.601 137.2C117.601 135.654 118.854 134.4 120.401 134.4Z" fill="#BA4B80"/>
<path d="M126 134.4C127.547 134.4 128.8 135.654 128.8 137.2C128.8 138.746 127.547 140 126 140C124.454 140 123.2 138.746 123.2 137.2C123.2 135.654 124.454 134.4 126 134.4Z" fill="#BA4B80"/>
<path d="M131.6 134.4C133.146 134.4 134.4 135.654 134.4 137.2C134.4 138.746 133.146 140 131.6 140C130.053 140 128.8 138.746 128.8 137.2C128.8 135.654 130.053 134.4 131.6 134.4Z" fill="#BA4B80"/>
<path d="M137.199 134.4C138.746 134.4 139.999 135.654 139.999 137.2C139.999 138.746 138.746 140 137.199 140C135.653 140 134.399 138.746 134.399 137.2C134.399 135.654 135.653 134.4 137.199 134.4Z" fill="#BA4B80"/>
<path d="M25.8167 0.00305176H13.3833C7.32374 0.00305176 2.1901 4.00655 0.5488 9.47848C0.379064 10.0445 0.246568 10.6263 0.154448 11.2209C0.05292 11.8771 0 12.549 0 13.2331V25.9617C0 33.2603 6.00544 39.1956 13.3833 39.1956L19.6 39.1968L25.8167 39.1952C33.1942 39.1952 39.2 33.2599 39.2 25.9613V13.2331C39.2 5.93793 33.1946 0.00305176 25.8167 0.00305176ZM33.32 25.9617C33.32 30.0165 29.9543 33.3156 25.8152 33.3156L19.6 33.3168L13.3848 33.3152C9.24571 33.3152 5.88 30.0161 5.88 25.9617V13.2331C5.88 11.9665 6.2085 10.774 6.7867 9.7321C7.34334 8.72976 8.13086 7.86775 9.07911 7.21507C10.2982 6.3758 11.7827 5.88305 13.3829 5.88305H25.8167C29.9543 5.88305 33.32 9.18016 33.32 13.2331V25.9617Z" fill="#BA4B80"/>
<path d="M126.617 0.00305176H114.183C108.124 0.00305176 102.99 4.00655 101.349 9.47848C101.179 10.0445 101.046 10.6263 100.954 11.2209C100.853 11.8771 100.8 12.549 100.8 13.2331V25.9617C100.8 33.2603 106.805 39.1956 114.183 39.1956L120.4 39.1968L126.617 39.1952C133.994 39.1952 140 33.2599 140 25.9613V13.2331C140 5.93793 133.994 0.00305176 126.617 0.00305176ZM134.12 25.9617C134.12 30.0165 130.754 33.3156 126.615 33.3156L120.4 33.3168L114.185 33.3152C110.046 33.3152 106.68 30.0161 106.68 25.9617V13.2331C106.68 11.9665 107.008 10.774 107.587 9.7321C108.143 8.72976 108.931 7.86775 109.879 7.21507C111.098 6.3758 112.583 5.88305 114.183 5.88305H126.617C130.754 5.88305 134.12 9.18016 134.12 13.2331V25.9617Z" fill="#BA4B80"/>
<path d="M25.8167 100.803H13.3833C7.32374 100.803 2.1901 104.807 0.5488 110.279C0.379064 110.845 0.246568 111.426 0.154448 112.021C0.05292 112.677 0 113.349 0 114.033V126.762C0 134.06 6.00544 139.996 13.3833 139.996L19.6 139.997L25.8167 139.995C33.1942 139.995 39.2 134.06 39.2 126.761V114.033C39.2 106.738 33.1946 100.803 25.8167 100.803ZM33.32 126.762C33.32 130.817 29.9543 134.116 25.8152 134.116L19.6 134.117L13.3848 134.115C9.24571 134.115 5.88 130.816 5.88 126.762V114.033C5.88 112.767 6.2085 111.574 6.7867 110.532C7.34334 109.53 8.13086 108.668 9.07911 108.015C10.2982 107.176 11.7827 106.683 13.3829 106.683H25.8167C29.9543 106.683 33.32 109.98 33.32 114.033V126.762Z" fill="#BA4B80"/>
<path d="M28.0002 11.2H11.2002V28H28.0002V11.2Z" fill="#62ABF7"/>
<path d="M128.8 11.2H112V28H128.8V11.2Z" fill="#62ABF7"/>
<path d="M28.0002 112H11.2002V128.8H28.0002V112Z" fill="#62ABF7"/>
</svg>
