<svg width="131" height="130" viewBox="0 0 131 130" fill="none" xmlns="http://www.w3.org/2000/svg">
<rect x="0.333313" width="130" height="130" rx="10" fill="#6362F7"/>
<path d="M53.3323 15C54.437 15 55.3323 15.8954 55.3323 17C55.3323 18.1046 54.437 19 53.3323 19C52.2278 19 51.3323 18.1046 51.3323 17C51.3323 15.8954 52.2278 15 53.3323 15Z" fill="white"/>
<path d="M61.3343 15C62.4389 15 63.3343 15.8954 63.3343 17C63.3343 18.1046 62.4389 19 61.3343 19C60.2297 19 59.3343 18.1046 59.3343 17C59.3343 15.8954 60.2297 15 61.3343 15Z" fill="white"/>
<path d="M81.3343 15C82.4389 15 83.3343 15.8954 83.3343 17C83.3343 18.1046 82.4389 19 81.3343 19C80.2297 19 79.3343 18.1046 79.3343 17C79.3343 15.8954 80.2297 15 81.3343 15Z" fill="white"/>
<path d="M53.3323 19.0002C54.437 19.0002 55.3323 19.8957 55.3323 21.0002C55.3323 22.1049 54.437 23.0002 53.3323 23.0002C52.2278 23.0002 51.3323 22.1049 51.3323 21.0002C51.3323 19.8957 52.2278 19.0002 53.3323 19.0002Z" fill="white"/>
<path d="M61.3343 19.0002C62.4389 19.0002 63.3343 19.8957 63.3343 21.0002C63.3343 22.1049 62.4389 23.0002 61.3343 23.0002C60.2297 23.0002 59.3343 22.1049 59.3343 21.0002C59.3343 19.8957 60.2297 19.0002 61.3343 19.0002Z" fill="white"/>
<path d="M77.3333 19.0001C78.4379 19.0001 79.3333 19.8955 79.3333 21.0001C79.3333 22.1047 78.4379 23.0001 77.3333 23.0001C76.2288 23.0001 75.3333 22.1047 75.3333 21.0001C75.3333 19.8955 76.2288 19.0001 77.3333 19.0001Z" fill="white"/>
<path d="M49.3332 23C50.4378 23 51.3332 23.8954 51.3332 25C51.3332 26.1046 50.4378 27 49.3332 27C48.2286 27 47.3332 26.1046 47.3332 25C47.3332 23.8954 48.2286 23 49.3332 23Z" fill="white"/>
<path d="M57.3333 23C58.4379 23 59.3333 23.8954 59.3333 25C59.3333 26.1046 58.4379 27 57.3333 27C56.2288 27 55.3333 26.1046 55.3333 25C55.3333 23.8954 56.2288 23 57.3333 23Z" fill="white"/>
<path d="M73.3323 23C74.437 23 75.3323 23.8954 75.3323 25C75.3323 26.1046 74.437 27 73.3323 27C72.2278 27 71.3323 26.1046 71.3323 25C71.3323 23.8954 72.2278 23 73.3323 23Z" fill="white"/>
<path d="M81.3343 23C82.4389 23 83.3343 23.8954 83.3343 25C83.3343 26.1046 82.4389 27 81.3343 27C80.2297 27 79.3343 26.1046 79.3343 25C79.3343 23.8954 80.2297 23 81.3343 23Z" fill="white"/>
<path d="M49.3332 27C50.4378 27 51.3332 27.8955 51.3332 29C51.3332 30.1046 50.4378 31 49.3332 31C48.2286 31 47.3332 30.1046 47.3332 29C47.3332 27.8955 48.2286 27 49.3332 27Z" fill="white"/>
<path d="M53.3323 27C54.437 27 55.3323 27.8954 55.3323 29C55.3323 30.1046 54.437 31 53.3323 31C52.2278 31 51.3323 30.1046 51.3323 29C51.3323 27.8954 52.2278 27 53.3323 27Z" fill="white"/>
<path d="M57.3333 27C58.4379 27 59.3333 27.8955 59.3333 29C59.3333 30.1046 58.4379 31 57.3333 31C56.2288 31 55.3333 30.1046 55.3333 29C55.3333 27.8955 56.2288 27 57.3333 27Z" fill="white"/>
<path d="M69.3332 27C70.4378 27 71.3332 27.8955 71.3332 29C71.3332 30.1046 70.4378 31 69.3332 31C68.2286 31 67.3332 30.1046 67.3332 29C67.3332 27.8955 68.2286 27 69.3332 27Z" fill="white"/>
<path d="M73.3323 27C74.437 27 75.3323 27.8954 75.3323 29C75.3323 30.1046 74.437 31 73.3323 31C72.2278 31 71.3323 30.1046 71.3323 29C71.3323 27.8954 72.2278 27 73.3323 27Z" fill="white"/>
<path d="M49.3332 30.9999C50.4378 30.9999 51.3332 31.8954 51.3332 32.9999C51.3332 34.1046 50.4378 34.9999 49.3332 34.9999C48.2286 34.9999 47.3332 34.1046 47.3332 32.9999C47.3332 31.8954 48.2286 30.9999 49.3332 30.9999Z" fill="white"/>
<path d="M65.3335 30.9999C66.4381 30.9999 67.3335 31.8954 67.3335 32.9999C67.3335 34.1046 66.4381 34.9999 65.3335 34.9999C64.2289 34.9999 63.3335 34.1046 63.3335 32.9999C63.3335 31.8954 64.2289 30.9999 65.3335 30.9999Z" fill="white"/>
<path d="M73.3323 30.9998C74.437 30.9998 75.3323 31.8952 75.3323 32.9998C75.3323 34.1044 74.437 34.9998 73.3323 34.9998C72.2278 34.9998 71.3323 34.1044 71.3323 32.9998C71.3323 31.8952 72.2278 30.9998 73.3323 30.9998Z" fill="white"/>
<path d="M49.3332 35C50.4378 35 51.3332 35.8954 51.3332 37C51.3332 38.1046 50.4378 39 49.3332 39C48.2286 39 47.3332 38.1046 47.3332 37C47.3332 35.8954 48.2286 35 49.3332 35Z" fill="white"/>
<path d="M53.3323 35C54.437 35 55.3323 35.8954 55.3323 37C55.3323 38.1046 54.437 39 53.3323 39C52.2278 39 51.3323 38.1046 51.3323 37C51.3323 35.8954 52.2278 35 53.3323 35Z" fill="white"/>
<path d="M57.3333 35C58.4379 35 59.3333 35.8954 59.3333 37C59.3333 38.1046 58.4379 39 57.3333 39C56.2288 39 55.3333 38.1046 55.3333 37C55.3333 35.8954 56.2288 35 57.3333 35Z" fill="white"/>
<path d="M73.3323 35C74.437 35 75.3323 35.8954 75.3323 37C75.3323 38.1046 74.437 39 73.3323 39C72.2278 39 71.3323 38.1046 71.3323 37C71.3323 35.8954 72.2278 35 73.3323 35Z" fill="white"/>
<path d="M77.3333 35C78.4379 35 79.3333 35.8954 79.3333 37C79.3333 38.1046 78.4379 39 77.3333 39C76.2288 39 75.3333 38.1046 75.3333 37C75.3333 35.8954 76.2288 35 77.3333 35Z" fill="white"/>
<path d="M81.3343 35C82.4389 35 83.3343 35.8954 83.3343 37C83.3343 38.1046 82.4389 39 81.3343 39C80.2297 39 79.3343 38.1046 79.3343 37C79.3343 35.8954 80.2297 35 81.3343 35Z" fill="white"/>
<path d="M49.3332 39.0001C50.4378 39.0001 51.3332 39.8955 51.3332 41.0001C51.3332 42.1047 50.4378 43.0001 49.3332 43.0001C48.2286 43.0001 47.3332 42.1047 47.3332 41.0001C47.3332 39.8955 48.2286 39.0001 49.3332 39.0001Z" fill="white"/>
<path d="M57.3333 39.0001C58.4379 39.0001 59.3333 39.8955 59.3333 41.0001C59.3333 42.1047 58.4379 43.0001 57.3333 43.0001C56.2288 43.0001 55.3333 42.1047 55.3333 41.0001C55.3333 39.8955 56.2288 39.0001 57.3333 39.0001Z" fill="white"/>
<path d="M65.3335 39.0001C66.4381 39.0001 67.3335 39.8955 67.3335 41.0001C67.3335 42.1047 66.4381 43.0001 65.3335 43.0001C64.2289 43.0001 63.3335 42.1047 63.3335 41.0001C63.3335 39.8955 64.2289 39.0001 65.3335 39.0001Z" fill="white"/>
<path d="M73.3323 39.0002C74.437 39.0002 75.3323 39.8957 75.3323 41.0002C75.3323 42.1049 74.437 43.0002 73.3323 43.0002C72.2278 43.0002 71.3323 42.1049 71.3323 41.0002C71.3323 39.8957 72.2278 39.0002 73.3323 39.0002Z" fill="white"/>
<path d="M81.3343 39.0002C82.4389 39.0002 83.3343 39.8957 83.3343 41.0002C83.3343 42.1049 82.4389 43.0002 81.3343 43.0002C80.2297 43.0002 79.3343 42.1049 79.3343 41.0002C79.3343 39.8957 80.2297 39.0002 81.3343 39.0002Z" fill="white"/>
<path d="M49.3332 43C50.4378 43 51.3332 43.8954 51.3332 45C51.3332 46.1046 50.4378 47 49.3332 47C48.2286 47 47.3332 46.1046 47.3332 45C47.3332 43.8954 48.2286 43 49.3332 43Z" fill="white"/>
<path d="M57.3333 43C58.4379 43 59.3333 43.8954 59.3333 45C59.3333 46.1046 58.4379 47 57.3333 47C56.2288 47 55.3333 46.1046 55.3333 45C55.3333 43.8954 56.2288 43 57.3333 43Z" fill="white"/>
<path d="M65.3335 43C66.4381 43 67.3335 43.8954 67.3335 45C67.3335 46.1046 66.4381 47 65.3335 47C64.2289 47 63.3335 46.1046 63.3335 45C63.3335 43.8954 64.2289 43 65.3335 43Z" fill="white"/>
<path d="M73.3323 43C74.437 43 75.3323 43.8954 75.3323 45C75.3323 46.1046 74.437 47 73.3323 47C72.2278 47 71.3323 46.1046 71.3323 45C71.3323 43.8954 72.2278 43 73.3323 43Z" fill="white"/>
<path d="M77.3333 43C78.4379 43 79.3333 43.8954 79.3333 45C79.3333 46.1046 78.4379 47 77.3333 47C76.2288 47 75.3333 46.1046 75.3333 45C75.3333 43.8954 76.2288 43 77.3333 43Z" fill="white"/>
<path d="M81.3343 43C82.4389 43 83.3343 43.8954 83.3343 45C83.3343 46.1046 82.4389 47 81.3343 47C80.2297 47 79.3343 46.1046 79.3343 45C79.3343 43.8954 80.2297 43 81.3343 43Z" fill="white"/>
<path d="M17.3333 47C18.4379 47 19.3333 47.8955 19.3333 49C19.3333 50.1046 18.4379 51 17.3333 51C16.2288 51 15.3333 50.1046 15.3333 49C15.3333 47.8955 16.2288 47 17.3333 47Z" fill="white"/>
<path d="M25.3335 47C26.4381 47 27.3335 47.8955 27.3335 49C27.3335 50.1046 26.4381 51 25.3335 51C24.2289 51 23.3335 50.1046 23.3335 49C23.3335 47.8955 24.2289 47 25.3335 47Z" fill="white"/>
<path d="M29.3332 47C30.4378 47 31.3332 47.8955 31.3332 49C31.3332 50.1046 30.4378 51 29.3332 51C28.2286 51 27.3332 50.1046 27.3332 49C27.3332 47.8955 28.2286 47 29.3332 47Z" fill="white"/>
<path d="M33.3323 47C34.437 47 35.3323 47.8954 35.3323 49C35.3323 50.1046 34.437 51 33.3323 51C32.2278 51 31.3323 50.1046 31.3323 49C31.3323 47.8954 32.2278 47 33.3323 47Z" fill="white"/>
<path d="M37.3333 47C38.4379 47 39.3333 47.8955 39.3333 49C39.3333 50.1046 38.4379 51 37.3333 51C36.2288 51 35.3333 50.1046 35.3333 49C35.3333 47.8955 36.2288 47 37.3333 47Z" fill="white"/>
<path d="M41.3343 47C42.4389 47 43.3343 47.8954 43.3343 49C43.3343 50.1046 42.4389 51 41.3343 51C40.2297 51 39.3343 50.1046 39.3343 49C39.3343 47.8954 40.2297 47 41.3343 47Z" fill="white"/>
<path d="M65.3335 47C66.4381 47 67.3335 47.8955 67.3335 49C67.3335 50.1046 66.4381 51 65.3335 51C64.2289 51 63.3335 50.1046 63.3335 49C63.3335 47.8955 64.2289 47 65.3335 47Z" fill="white"/>
<path d="M89.3332 47C90.4378 47 91.3332 47.8955 91.3332 49C91.3332 50.1046 90.4378 51 89.3332 51C88.2286 51 87.3332 50.1046 87.3332 49C87.3332 47.8955 88.2286 47 89.3332 47Z" fill="white"/>
<path d="M93.3323 47C94.437 47 95.3323 47.8954 95.3323 49C95.3323 50.1046 94.437 51 93.3323 51C92.2278 51 91.3323 50.1046 91.3323 49C91.3323 47.8954 92.2278 47 93.3323 47Z" fill="white"/>
<path d="M97.3333 47C98.4379 47 99.3333 47.8955 99.3333 49C99.3333 50.1046 98.4379 51 97.3333 51C96.2288 51 95.3333 50.1046 95.3333 49C95.3333 47.8955 96.2288 47 97.3333 47Z" fill="white"/>
<path d="M101.334 47C102.439 47 103.334 47.8954 103.334 49C103.334 50.1046 102.439 51 101.334 51C100.23 51 99.3343 50.1046 99.3343 49C99.3343 47.8954 100.23 47 101.334 47Z" fill="white"/>
<path d="M105.333 47C106.438 47 107.333 47.8955 107.333 49C107.333 50.1046 106.438 51 105.333 51C104.229 51 103.333 50.1046 103.333 49C103.333 47.8955 104.229 47 105.333 47Z" fill="white"/>
<path d="M17.3333 50.9999C18.4379 50.9999 19.3333 51.8954 19.3333 52.9999C19.3333 54.1046 18.4379 54.9999 17.3333 54.9999C16.2288 54.9999 15.3333 54.1046 15.3333 52.9999C15.3333 51.8954 16.2288 50.9999 17.3333 50.9999Z" fill="white"/>
<path d="M29.3332 50.9999C30.4378 50.9999 31.3332 51.8954 31.3332 52.9999C31.3332 54.1046 30.4378 54.9999 29.3332 54.9999C28.2286 54.9999 27.3332 54.1046 27.3332 52.9999C27.3332 51.8954 28.2286 50.9999 29.3332 50.9999Z" fill="white"/>
<path d="M49.3332 50.9999C50.4378 50.9999 51.3332 51.8954 51.3332 52.9999C51.3332 54.1046 50.4378 54.9999 49.3332 54.9999C48.2286 54.9999 47.3332 54.1046 47.3332 52.9999C47.3332 51.8954 48.2286 50.9999 49.3332 50.9999Z" fill="white"/>
<path d="M53.3323 50.9998C54.437 50.9998 55.3323 51.8952 55.3323 52.9998C55.3323 54.1044 54.437 54.9998 53.3323 54.9998C52.2278 54.9998 51.3323 54.1044 51.3323 52.9998C51.3323 51.8952 52.2278 50.9998 53.3323 50.9998Z" fill="white"/>
<path d="M57.3333 50.9999C58.4379 50.9999 59.3333 51.8954 59.3333 52.9999C59.3333 54.1046 58.4379 54.9999 57.3333 54.9999C56.2288 54.9999 55.3333 54.1046 55.3333 52.9999C55.3333 51.8954 56.2288 50.9999 57.3333 50.9999Z" fill="white"/>
<path d="M69.3332 50.9999C70.4378 50.9999 71.3332 51.8954 71.3332 52.9999C71.3332 54.1046 70.4378 54.9999 69.3332 54.9999C68.2286 54.9999 67.3332 54.1046 67.3332 52.9999C67.3332 51.8954 68.2286 50.9999 69.3332 50.9999Z" fill="white"/>
<path d="M81.3343 50.9998C82.4389 50.9998 83.3343 51.8952 83.3343 52.9998C83.3343 54.1044 82.4389 54.9998 81.3343 54.9998C80.2297 54.9998 79.3343 54.1044 79.3343 52.9998C79.3343 51.8952 80.2297 50.9998 81.3343 50.9998Z" fill="white"/>
<path d="M93.3323 50.9998C94.437 50.9998 95.3323 51.8952 95.3323 52.9998C95.3323 54.1044 94.437 54.9998 93.3323 54.9998C92.2278 54.9998 91.3323 54.1044 91.3323 52.9998C91.3323 51.8952 92.2278 50.9998 93.3323 50.9998Z" fill="white"/>
<path d="M109.333 50.9999C110.438 50.9999 111.333 51.8954 111.333 52.9999C111.333 54.1046 110.438 54.9999 109.333 54.9999C108.229 54.9999 107.333 54.1046 107.333 52.9999C107.333 51.8954 108.229 50.9999 109.333 50.9999Z" fill="white"/>
<path d="M17.3333 55C18.4379 55 19.3333 55.8954 19.3333 57C19.3333 58.1046 18.4379 59 17.3333 59C16.2288 59 15.3333 58.1046 15.3333 57C15.3333 55.8954 16.2288 55 17.3333 55Z" fill="white"/>
<path d="M29.3332 55C30.4378 55 31.3332 55.8954 31.3332 57C31.3332 58.1046 30.4378 59 29.3332 59C28.2286 59 27.3332 58.1046 27.3332 57C27.3332 55.8954 28.2286 55 29.3332 55Z" fill="white"/>
<path d="M33.3323 55C34.437 55 35.3323 55.8954 35.3323 57C35.3323 58.1046 34.437 59 33.3323 59C32.2278 59 31.3323 58.1046 31.3323 57C31.3323 55.8954 32.2278 55 33.3323 55Z" fill="white"/>
<path d="M41.3343 55C42.4389 55 43.3343 55.8954 43.3343 57C43.3343 58.1046 42.4389 59 41.3343 59C40.2297 59 39.3343 58.1046 39.3343 57C39.3343 55.8954 40.2297 55 41.3343 55Z" fill="white"/>
<path d="M45.3335 55C46.4381 55 47.3335 55.8954 47.3335 57C47.3335 58.1046 46.4381 59 45.3335 59C44.2289 59 43.3335 58.1046 43.3335 57C43.3335 55.8954 44.2289 55 45.3335 55Z" fill="white"/>
<path d="M49.3332 55C50.4378 55 51.3332 55.8954 51.3332 57C51.3332 58.1046 50.4378 59 49.3332 59C48.2286 59 47.3332 58.1046 47.3332 57C47.3332 55.8954 48.2286 55 49.3332 55Z" fill="white"/>
<path d="M61.3343 55C62.4389 55 63.3343 55.8954 63.3343 57C63.3343 58.1046 62.4389 59 61.3343 59C60.2297 59 59.3343 58.1046 59.3343 57C59.3343 55.8954 60.2297 55 61.3343 55Z" fill="white"/>
<path d="M69.3332 55C70.4378 55 71.3332 55.8954 71.3332 57C71.3332 58.1046 70.4378 59 69.3332 59C68.2286 59 67.3332 58.1046 67.3332 57C67.3332 55.8954 68.2286 55 69.3332 55Z" fill="white"/>
<path d="M73.3323 55C74.437 55 75.3323 55.8954 75.3323 57C75.3323 58.1046 74.437 59 73.3323 59C72.2278 59 71.3323 58.1046 71.3323 57C71.3323 55.8954 72.2278 55 73.3323 55Z" fill="white"/>
<path d="M77.3333 55C78.4379 55 79.3333 55.8954 79.3333 57C79.3333 58.1046 78.4379 59 77.3333 59C76.2288 59 75.3333 58.1046 75.3333 57C75.3333 55.8954 76.2288 55 77.3333 55Z" fill="white"/>
<path d="M81.3343 55C82.4389 55 83.3343 55.8954 83.3343 57C83.3343 58.1046 82.4389 59 81.3343 59C80.2297 59 79.3343 58.1046 79.3343 57C79.3343 55.8954 80.2297 55 81.3343 55Z" fill="white"/>
<path d="M89.3332 55C90.4378 55 91.3332 55.8954 91.3332 57C91.3332 58.1046 90.4378 59 89.3332 59C88.2286 59 87.3332 58.1046 87.3332 57C87.3332 55.8954 88.2286 55 89.3332 55Z" fill="white"/>
<path d="M93.3323 55C94.437 55 95.3323 55.8954 95.3323 57C95.3323 58.1046 94.437 59 93.3323 59C92.2278 59 91.3323 58.1046 91.3323 57C91.3323 55.8954 92.2278 55 93.3323 55Z" fill="white"/>
<path d="M101.334 55C102.439 55 103.334 55.8954 103.334 57C103.334 58.1046 102.439 59 101.334 59C100.23 59 99.3343 58.1046 99.3343 57C99.3343 55.8954 100.23 55 101.334 55Z" fill="white"/>
<path d="M109.333 55C110.438 55 111.333 55.8954 111.333 57C111.333 58.1046 110.438 59 109.333 59C108.229 59 107.333 58.1046 107.333 57C107.333 55.8954 108.229 55 109.333 55Z" fill="white"/>
<path d="M113.332 55C114.437 55 115.332 55.8954 115.332 57C115.332 58.1046 114.437 59 113.332 59C112.228 59 111.332 58.1046 111.332 57C111.332 55.8954 112.228 55 113.332 55Z" fill="white"/>
<path d="M17.3333 59.0001C18.4379 59.0001 19.3333 59.8955 19.3333 61.0001C19.3333 62.1047 18.4379 63.0001 17.3333 63.0001C16.2288 63.0001 15.3333 62.1047 15.3333 61.0001C15.3333 59.8955 16.2288 59.0001 17.3333 59.0001Z" fill="white"/>
<path d="M25.3335 59.0001C26.4381 59.0001 27.3335 59.8955 27.3335 61.0001C27.3335 62.1047 26.4381 63.0001 25.3335 63.0001C24.2289 63.0001 23.3335 62.1047 23.3335 61.0001C23.3335 59.8955 24.2289 59.0001 25.3335 59.0001Z" fill="white"/>
<path d="M49.3332 59.0001C50.4378 59.0001 51.3332 59.8955 51.3332 61.0001C51.3332 62.1047 50.4378 63.0001 49.3332 63.0001C48.2286 63.0001 47.3332 62.1047 47.3332 61.0001C47.3332 59.8955 48.2286 59.0001 49.3332 59.0001Z" fill="white"/>
<path d="M53.3323 59.0002C54.437 59.0002 55.3323 59.8957 55.3323 61.0002C55.3323 62.1049 54.437 63.0002 53.3323 63.0002C52.2278 63.0002 51.3323 62.1049 51.3323 61.0002C51.3323 59.8957 52.2278 59.0002 53.3323 59.0002Z" fill="white"/>
<path d="M57.3333 59.0001C58.4379 59.0001 59.3333 59.8955 59.3333 61.0001C59.3333 62.1047 58.4379 63.0001 57.3333 63.0001C56.2288 63.0001 55.3333 62.1047 55.3333 61.0001C55.3333 59.8955 56.2288 59.0001 57.3333 59.0001Z" fill="white"/>
<path d="M61.3343 59.0002C62.4389 59.0002 63.3343 59.8957 63.3343 61.0002C63.3343 62.1049 62.4389 63.0002 61.3343 63.0002C60.2297 63.0002 59.3343 62.1049 59.3343 61.0002C59.3343 59.8957 60.2297 59.0002 61.3343 59.0002Z" fill="white"/>
<path d="M69.3332 59.0001C70.4378 59.0001 71.3332 59.8955 71.3332 61.0001C71.3332 62.1047 70.4378 63.0001 69.3332 63.0001C68.2286 63.0001 67.3332 62.1047 67.3332 61.0001C67.3332 59.8955 68.2286 59.0001 69.3332 59.0001Z" fill="white"/>
<path d="M81.3343 59.0002C82.4389 59.0002 83.3343 59.8957 83.3343 61.0002C83.3343 62.1049 82.4389 63.0002 81.3343 63.0002C80.2297 63.0002 79.3343 62.1049 79.3343 61.0002C79.3343 59.8957 80.2297 59.0002 81.3343 59.0002Z" fill="white"/>
<path d="M113.332 59.0002C114.437 59.0002 115.332 59.8957 115.332 61.0002C115.332 62.1049 114.437 63.0002 113.332 63.0002C112.228 63.0002 111.332 62.1049 111.332 61.0002C111.332 59.8957 112.228 59.0002 113.332 59.0002Z" fill="white"/>
<path d="M33.3323 63C34.437 63 35.3323 63.8954 35.3323 65C35.3323 66.1046 34.437 67 33.3323 67C32.2278 67 31.3323 66.1046 31.3323 65C31.3323 63.8954 32.2278 63 33.3323 63Z" fill="white"/>
<path d="M41.3343 63C42.4389 63 43.3343 63.8954 43.3343 65C43.3343 66.1046 42.4389 67 41.3343 67C40.2297 67 39.3343 66.1046 39.3343 65C39.3343 63.8954 40.2297 63 41.3343 63Z" fill="white"/>
<path d="M53.3323 63C54.437 63 55.3323 63.8954 55.3323 65C55.3323 66.1046 54.437 67 53.3323 67C52.2278 67 51.3323 66.1046 51.3323 65C51.3323 63.8954 52.2278 63 53.3323 63Z" fill="white"/>
<path d="M65.3335 63C66.4381 63 67.3335 63.8954 67.3335 65C67.3335 66.1046 66.4381 67 65.3335 67C64.2289 67 63.3335 66.1046 63.3335 65C63.3335 63.8954 64.2289 63 65.3335 63Z" fill="white"/>
<path d="M73.3323 63C74.437 63 75.3323 63.8954 75.3323 65C75.3323 66.1046 74.437 67 73.3323 67C72.2278 67 71.3323 66.1046 71.3323 65C71.3323 63.8954 72.2278 63 73.3323 63Z" fill="white"/>
<path d="M85.3334 63C86.4381 63 87.3334 63.8954 87.3334 65C87.3334 66.1046 86.4381 67 85.3334 67C84.2289 67 83.3334 66.1046 83.3334 65C83.3334 63.8954 84.2289 63 85.3334 63Z" fill="white"/>
<path d="M89.3332 63C90.4378 63 91.3332 63.8954 91.3332 65C91.3332 66.1046 90.4378 67 89.3332 67C88.2286 67 87.3332 66.1046 87.3332 65C87.3332 63.8954 88.2286 63 89.3332 63Z" fill="white"/>
<path d="M93.3323 63C94.437 63 95.3323 63.8954 95.3323 65C95.3323 66.1046 94.437 67 93.3323 67C92.2278 67 91.3323 66.1046 91.3323 65C91.3323 63.8954 92.2278 63 93.3323 63Z" fill="white"/>
<path d="M97.3333 63C98.4379 63 99.3333 63.8954 99.3333 65C99.3333 66.1046 98.4379 67 97.3333 67C96.2288 67 95.3333 66.1046 95.3333 65C95.3333 63.8954 96.2288 63 97.3333 63Z" fill="white"/>
<path d="M105.333 63C106.438 63 107.333 63.8954 107.333 65C107.333 66.1046 106.438 67 105.333 67C104.229 67 103.333 66.1046 103.333 65C103.333 63.8954 104.229 63 105.333 63Z" fill="white"/>
<path d="M109.333 63C110.438 63 111.333 63.8954 111.333 65C111.333 66.1046 110.438 67 109.333 67C108.229 67 107.333 66.1046 107.333 65C107.333 63.8954 108.229 63 109.333 63Z" fill="white"/>
<path d="M113.332 63C114.437 63 115.332 63.8954 115.332 65C115.332 66.1046 114.437 67 113.332 67C112.228 67 111.332 66.1046 111.332 65C111.332 63.8954 112.228 63 113.332 63Z" fill="white"/>
<path d="M17.3333 67C18.4379 67 19.3333 67.8955 19.3333 69C19.3333 70.1046 18.4379 71 17.3333 71C16.2288 71 15.3333 70.1046 15.3333 69C15.3333 67.8955 16.2288 67 17.3333 67Z" fill="white"/>
<path d="M21.3343 67C22.4389 67 23.3343 67.8954 23.3343 69C23.3343 70.1046 22.4389 71 21.3343 71C20.2297 71 19.3343 70.1046 19.3343 69C19.3343 67.8954 20.2297 67 21.3343 67Z" fill="white"/>
<path d="M33.3323 67C34.437 67 35.3323 67.8954 35.3323 69C35.3323 70.1046 34.437 71 33.3323 71C32.2278 71 31.3323 70.1046 31.3323 69C31.3323 67.8954 32.2278 67 33.3323 67Z" fill="white"/>
<path d="M37.3333 67C38.4379 67 39.3333 67.8955 39.3333 69C39.3333 70.1046 38.4379 71 37.3333 71C36.2288 71 35.3333 70.1046 35.3333 69C35.3333 67.8955 36.2288 67 37.3333 67Z" fill="white"/>
<path d="M45.3335 67C46.4381 67 47.3335 67.8955 47.3335 69C47.3335 70.1046 46.4381 71 45.3335 71C44.2289 71 43.3335 70.1046 43.3335 69C43.3335 67.8955 44.2289 67 45.3335 67Z" fill="white"/>
<path d="M81.3343 67C82.4389 67 83.3343 67.8954 83.3343 69C83.3343 70.1046 82.4389 71 81.3343 71C80.2297 71 79.3343 70.1046 79.3343 69C79.3343 67.8954 80.2297 67 81.3343 67Z" fill="white"/>
<path d="M101.334 67C102.439 67 103.334 67.8954 103.334 69C103.334 70.1046 102.439 71 101.334 71C100.23 71 99.3343 70.1046 99.3343 69C99.3343 67.8954 100.23 67 101.334 67Z" fill="white"/>
<path d="M109.333 67C110.438 67 111.333 67.8955 111.333 69C111.333 70.1046 110.438 71 109.333 71C108.229 71 107.333 70.1046 107.333 69C107.333 67.8955 108.229 67 109.333 67Z" fill="white"/>
<path d="M17.3333 70.9999C18.4379 70.9999 19.3333 71.8954 19.3333 72.9999C19.3333 74.1046 18.4379 74.9999 17.3333 74.9999C16.2288 74.9999 15.3333 74.1046 15.3333 72.9999C15.3333 71.8954 16.2288 70.9999 17.3333 70.9999Z" fill="white"/>
<path d="M29.3332 70.9999C30.4378 70.9999 31.3332 71.8954 31.3332 72.9999C31.3332 74.1046 30.4378 74.9999 29.3332 74.9999C28.2286 74.9999 27.3332 74.1046 27.3332 72.9999C27.3332 71.8954 28.2286 70.9999 29.3332 70.9999Z" fill="white"/>
<path d="M37.3333 70.9999C38.4379 70.9999 39.3333 71.8954 39.3333 72.9999C39.3333 74.1046 38.4379 74.9999 37.3333 74.9999C36.2288 74.9999 35.3333 74.1046 35.3333 72.9999C35.3333 71.8954 36.2288 70.9999 37.3333 70.9999Z" fill="white"/>
<path d="M41.3343 70.9998C42.4389 70.9998 43.3343 71.8952 43.3343 72.9998C43.3343 74.1044 42.4389 74.9998 41.3343 74.9998C40.2297 74.9998 39.3343 74.1044 39.3343 72.9998C39.3343 71.8952 40.2297 70.9998 41.3343 70.9998Z" fill="white"/>
<path d="M45.3335 70.9999C46.4381 70.9999 47.3335 71.8954 47.3335 72.9999C47.3335 74.1046 46.4381 74.9999 45.3335 74.9999C44.2289 74.9999 43.3335 74.1046 43.3335 72.9999C43.3335 71.8954 44.2289 70.9999 45.3335 70.9999Z" fill="white"/>
<path d="M49.3332 70.9999C50.4378 70.9999 51.3332 71.8954 51.3332 72.9999C51.3332 74.1046 50.4378 74.9999 49.3332 74.9999C48.2286 74.9999 47.3332 74.1046 47.3332 72.9999C47.3332 71.8954 48.2286 70.9999 49.3332 70.9999Z" fill="white"/>
<path d="M57.3333 70.9999C58.4379 70.9999 59.3333 71.8954 59.3333 72.9999C59.3333 74.1046 58.4379 74.9999 57.3333 74.9999C56.2288 74.9999 55.3333 74.1046 55.3333 72.9999C55.3333 71.8954 56.2288 70.9999 57.3333 70.9999Z" fill="white"/>
<path d="M61.3343 70.9998C62.4389 70.9998 63.3343 71.8952 63.3343 72.9998C63.3343 74.1044 62.4389 74.9998 61.3343 74.9998C60.2297 74.9998 59.3343 74.1044 59.3343 72.9998C59.3343 71.8952 60.2297 70.9998 61.3343 70.9998Z" fill="white"/>
<path d="M65.3335 70.9999C66.4381 70.9999 67.3335 71.8954 67.3335 72.9999C67.3335 74.1046 66.4381 74.9999 65.3335 74.9999C64.2289 74.9999 63.3335 74.1046 63.3335 72.9999C63.3335 71.8954 64.2289 70.9999 65.3335 70.9999Z" fill="white"/>
<path d="M77.3333 70.9999C78.4379 70.9999 79.3333 71.8954 79.3333 72.9999C79.3333 74.1046 78.4379 74.9999 77.3333 74.9999C76.2288 74.9999 75.3333 74.1046 75.3333 72.9999C75.3333 71.8954 76.2288 70.9999 77.3333 70.9999Z" fill="white"/>
<path d="M81.3343 70.9998C82.4389 70.9998 83.3343 71.8952 83.3343 72.9998C83.3343 74.1044 82.4389 74.9998 81.3343 74.9998C80.2297 74.9998 79.3343 74.1044 79.3343 72.9998C79.3343 71.8952 80.2297 70.9998 81.3343 70.9998Z" fill="white"/>
<path d="M85.3334 70.9999C86.4381 70.9999 87.3334 71.8954 87.3334 72.9999C87.3334 74.1046 86.4381 74.9999 85.3334 74.9999C84.2289 74.9999 83.3334 74.1046 83.3334 72.9999C83.3334 71.8954 84.2289 70.9999 85.3334 70.9999Z" fill="white"/>
<path d="M93.3323 70.9998C94.437 70.9998 95.3323 71.8952 95.3323 72.9998C95.3323 74.1044 94.437 74.9998 93.3323 74.9998C92.2278 74.9998 91.3323 74.1044 91.3323 72.9998C91.3323 71.8952 92.2278 70.9998 93.3323 70.9998Z" fill="white"/>
<path d="M101.334 70.9998C102.439 70.9998 103.334 71.8952 103.334 72.9998C103.334 74.1044 102.439 74.9998 101.334 74.9998C100.23 74.9998 99.3343 74.1044 99.3343 72.9998C99.3343 71.8952 100.23 70.9998 101.334 70.9998Z" fill="white"/>
<path d="M109.333 70.9999C110.438 70.9999 111.333 71.8954 111.333 72.9999C111.333 74.1046 110.438 74.9999 109.333 74.9999C108.229 74.9999 107.333 74.1046 107.333 72.9999C107.333 71.8954 108.229 70.9999 109.333 70.9999Z" fill="white"/>
<path d="M113.332 70.9998C114.437 70.9998 115.332 71.8952 115.332 72.9998C115.332 74.1044 114.437 74.9998 113.332 74.9998C112.228 74.9998 111.332 74.1044 111.332 72.9998C111.332 71.8952 112.228 70.9998 113.332 70.9998Z" fill="white"/>
<path d="M17.3333 75C18.4379 75 19.3333 75.8954 19.3333 77C19.3333 78.1046 18.4379 79 17.3333 79C16.2288 79 15.3333 78.1046 15.3333 77C15.3333 75.8954 16.2288 75 17.3333 75Z" fill="white"/>
<path d="M29.3332 75C30.4378 75 31.3332 75.8954 31.3332 77C31.3332 78.1046 30.4378 79 29.3332 79C28.2286 79 27.3332 78.1046 27.3332 77C27.3332 75.8954 28.2286 75 29.3332 75Z" fill="white"/>
<path d="M37.3333 75C38.4379 75 39.3333 75.8954 39.3333 77C39.3333 78.1046 38.4379 79 37.3333 79C36.2288 79 35.3333 78.1046 35.3333 77C35.3333 75.8954 36.2288 75 37.3333 75Z" fill="white"/>
<path d="M53.3323 75C54.437 75 55.3323 75.8954 55.3323 77C55.3323 78.1046 54.437 79 53.3323 79C52.2278 79 51.3323 78.1046 51.3323 77C51.3323 75.8954 52.2278 75 53.3323 75Z" fill="white"/>
<path d="M61.3343 75C62.4389 75 63.3343 75.8954 63.3343 77C63.3343 78.1046 62.4389 79 61.3343 79C60.2297 79 59.3343 78.1046 59.3343 77C59.3343 75.8954 60.2297 75 61.3343 75Z" fill="white"/>
<path d="M73.3323 75C74.437 75 75.3323 75.8954 75.3323 77C75.3323 78.1046 74.437 79 73.3323 79C72.2278 79 71.3323 78.1046 71.3323 77C71.3323 75.8954 72.2278 75 73.3323 75Z" fill="white"/>
<path d="M85.3334 75C86.4381 75 87.3334 75.8954 87.3334 77C87.3334 78.1046 86.4381 79 85.3334 79C84.2289 79 83.3334 78.1046 83.3334 77C83.3334 75.8954 84.2289 75 85.3334 75Z" fill="white"/>
<path d="M101.334 75C102.439 75 103.334 75.8954 103.334 77C103.334 78.1046 102.439 79 101.334 79C100.23 79 99.3343 78.1046 99.3343 77C99.3343 75.8954 100.23 75 101.334 75Z" fill="white"/>
<path d="M113.332 75C114.437 75 115.332 75.8954 115.332 77C115.332 78.1046 114.437 79 113.332 79C112.228 79 111.332 78.1046 111.332 77C111.332 75.8954 112.228 75 113.332 75Z" fill="white"/>
<path d="M17.3333 79.0001C18.4379 79.0001 19.3333 79.8955 19.3333 81.0001C19.3333 82.1047 18.4379 83.0001 17.3333 83.0001C16.2288 83.0001 15.3333 82.1047 15.3333 81.0001C15.3333 79.8955 16.2288 79.0001 17.3333 79.0001Z" fill="white"/>
<path d="M25.3335 79.0001C26.4381 79.0001 27.3335 79.8955 27.3335 81.0001C27.3335 82.1047 26.4381 83.0001 25.3335 83.0001C24.2289 83.0001 23.3335 82.1047 23.3335 81.0001C23.3335 79.8955 24.2289 79.0001 25.3335 79.0001Z" fill="white"/>
<path d="M37.3333 79.0001C38.4379 79.0001 39.3333 79.8955 39.3333 81.0001C39.3333 82.1047 38.4379 83.0001 37.3333 83.0001C36.2288 83.0001 35.3333 82.1047 35.3333 81.0001C35.3333 79.8955 36.2288 79.0001 37.3333 79.0001Z" fill="white"/>
<path d="M41.3343 79.0002C42.4389 79.0002 43.3343 79.8957 43.3343 81.0002C43.3343 82.1049 42.4389 83.0002 41.3343 83.0002C40.2297 83.0002 39.3343 82.1049 39.3343 81.0002C39.3343 79.8957 40.2297 79.0002 41.3343 79.0002Z" fill="white"/>
<path d="M49.3332 79.0001C50.4378 79.0001 51.3332 79.8955 51.3332 81.0001C51.3332 82.1047 50.4378 83.0001 49.3332 83.0001C48.2286 83.0001 47.3332 82.1047 47.3332 81.0001C47.3332 79.8955 48.2286 79.0001 49.3332 79.0001Z" fill="white"/>
<path d="M61.3343 79.0002C62.4389 79.0002 63.3343 79.8957 63.3343 81.0002C63.3343 82.1049 62.4389 83.0002 61.3343 83.0002C60.2297 83.0002 59.3343 82.1049 59.3343 81.0002C59.3343 79.8957 60.2297 79.0002 61.3343 79.0002Z" fill="white"/>
<path d="M77.3333 79.0001C78.4379 79.0001 79.3333 79.8955 79.3333 81.0001C79.3333 82.1047 78.4379 83.0001 77.3333 83.0001C76.2288 83.0001 75.3333 82.1047 75.3333 81.0001C75.3333 79.8955 76.2288 79.0001 77.3333 79.0001Z" fill="white"/>
<path d="M81.3343 79.0002C82.4389 79.0002 83.3343 79.8957 83.3343 81.0002C83.3343 82.1049 82.4389 83.0002 81.3343 83.0002C80.2297 83.0002 79.3343 82.1049 79.3343 81.0002C79.3343 79.8957 80.2297 79.0002 81.3343 79.0002Z" fill="white"/>
<path d="M85.3334 79.0001C86.4381 79.0001 87.3334 79.8955 87.3334 81.0001C87.3334 82.1047 86.4381 83.0001 85.3334 83.0001C84.2289 83.0001 83.3334 82.1047 83.3334 81.0001C83.3334 79.8955 84.2289 79.0001 85.3334 79.0001Z" fill="white"/>
<path d="M89.3332 79.0001C90.4378 79.0001 91.3332 79.8955 91.3332 81.0001C91.3332 82.1047 90.4378 83.0001 89.3332 83.0001C88.2286 83.0001 87.3332 82.1047 87.3332 81.0001C87.3332 79.8955 88.2286 79.0001 89.3332 79.0001Z" fill="white"/>
<path d="M93.3323 79.0002C94.437 79.0002 95.3323 79.8957 95.3323 81.0002C95.3323 82.1049 94.437 83.0002 93.3323 83.0002C92.2278 83.0002 91.3323 82.1049 91.3323 81.0002C91.3323 79.8957 92.2278 79.0002 93.3323 79.0002Z" fill="white"/>
<path d="M97.3333 79.0001C98.4379 79.0001 99.3333 79.8955 99.3333 81.0001C99.3333 82.1047 98.4379 83.0001 97.3333 83.0001C96.2288 83.0001 95.3333 82.1047 95.3333 81.0001C95.3333 79.8955 96.2288 79.0001 97.3333 79.0001Z" fill="white"/>
<path d="M105.333 79.0001C106.438 79.0001 107.333 79.8955 107.333 81.0001C107.333 82.1047 106.438 83.0001 105.333 83.0001C104.229 83.0001 103.333 82.1047 103.333 81.0001C103.333 79.8955 104.229 79.0001 105.333 79.0001Z" fill="white"/>
<path d="M49.3332 83C50.4378 83 51.3332 83.8954 51.3332 85C51.3332 86.1046 50.4378 87 49.3332 87C48.2286 87 47.3332 86.1046 47.3332 85C47.3332 83.8954 48.2286 83 49.3332 83Z" fill="white"/>
<path d="M53.3323 83C54.437 83 55.3323 83.8954 55.3323 85C55.3323 86.1046 54.437 87 53.3323 87C52.2278 87 51.3323 86.1046 51.3323 85C51.3323 83.8954 52.2278 83 53.3323 83Z" fill="white"/>
<path d="M57.3333 83C58.4379 83 59.3333 83.8954 59.3333 85C59.3333 86.1046 58.4379 87 57.3333 87C56.2288 87 55.3333 86.1046 55.3333 85C55.3333 83.8954 56.2288 83 57.3333 83Z" fill="white"/>
<path d="M65.3335 83C66.4381 83 67.3335 83.8954 67.3335 85C67.3335 86.1046 66.4381 87 65.3335 87C64.2289 87 63.3335 86.1046 63.3335 85C63.3335 83.8954 64.2289 83 65.3335 83Z" fill="white"/>
<path d="M69.3332 83C70.4378 83 71.3332 83.8954 71.3332 85C71.3332 86.1046 70.4378 87 69.3332 87C68.2286 87 67.3332 86.1046 67.3332 85C67.3332 83.8954 68.2286 83 69.3332 83Z" fill="white"/>
<path d="M73.3323 83C74.437 83 75.3323 83.8954 75.3323 85C75.3323 86.1046 74.437 87 73.3323 87C72.2278 87 71.3323 86.1046 71.3323 85C71.3323 83.8954 72.2278 83 73.3323 83Z" fill="white"/>
<path d="M77.3333 83C78.4379 83 79.3333 83.8954 79.3333 85C79.3333 86.1046 78.4379 87 77.3333 87C76.2288 87 75.3333 86.1046 75.3333 85C75.3333 83.8954 76.2288 83 77.3333 83Z" fill="white"/>
<path d="M81.3343 83C82.4389 83 83.3343 83.8954 83.3343 85C83.3343 86.1046 82.4389 87 81.3343 87C80.2297 87 79.3343 86.1046 79.3343 85C79.3343 83.8954 80.2297 83 81.3343 83Z" fill="white"/>
<path d="M97.3333 83C98.4379 83 99.3333 83.8954 99.3333 85C99.3333 86.1046 98.4379 87 97.3333 87C96.2288 87 95.3333 86.1046 95.3333 85C95.3333 83.8954 96.2288 83 97.3333 83Z" fill="white"/>
<path d="M101.334 83C102.439 83 103.334 83.8954 103.334 85C103.334 86.1046 102.439 87 101.334 87C100.23 87 99.3343 86.1046 99.3343 85C99.3343 83.8954 100.23 83 101.334 83Z" fill="white"/>
<path d="M105.333 83C106.438 83 107.333 83.8954 107.333 85C107.333 86.1046 106.438 87 105.333 87C104.229 87 103.333 86.1046 103.333 85C103.333 83.8954 104.229 83 105.333 83Z" fill="white"/>
<path d="M69.3332 87C70.4378 87 71.3332 87.8955 71.3332 89C71.3332 90.1046 70.4378 91 69.3332 91C68.2286 91 67.3332 90.1046 67.3332 89C67.3332 87.8955 68.2286 87 69.3332 87Z" fill="white"/>
<path d="M73.3323 87C74.437 87 75.3323 87.8954 75.3323 89C75.3323 90.1046 74.437 91 73.3323 91C72.2278 91 71.3323 90.1046 71.3323 89C71.3323 87.8954 72.2278 87 73.3323 87Z" fill="white"/>
<path d="M81.3343 87C82.4389 87 83.3343 87.8954 83.3343 89C83.3343 90.1046 82.4389 91 81.3343 91C80.2297 91 79.3343 90.1046 79.3343 89C79.3343 87.8954 80.2297 87 81.3343 87Z" fill="white"/>
<path d="M89.3332 87C90.4378 87 91.3332 87.8955 91.3332 89C91.3332 90.1046 90.4378 91 89.3332 91C88.2286 91 87.3332 90.1046 87.3332 89C87.3332 87.8955 88.2286 87 89.3332 87Z" fill="white"/>
<path d="M97.3333 87C98.4379 87 99.3333 87.8955 99.3333 89C99.3333 90.1046 98.4379 91 97.3333 91C96.2288 91 95.3333 90.1046 95.3333 89C95.3333 87.8955 96.2288 87 97.3333 87Z" fill="white"/>
<path d="M101.334 87C102.439 87 103.334 87.8954 103.334 89C103.334 90.1046 102.439 91 101.334 91C100.23 91 99.3343 90.1046 99.3343 89C99.3343 87.8954 100.23 87 101.334 87Z" fill="white"/>
<path d="M105.333 87C106.438 87 107.333 87.8955 107.333 89C107.333 90.1046 106.438 91 105.333 91C104.229 91 103.333 90.1046 103.333 89C103.333 87.8955 104.229 87 105.333 87Z" fill="white"/>
<path d="M109.333 87C110.438 87 111.333 87.8955 111.333 89C111.333 90.1046 110.438 91 109.333 91C108.229 91 107.333 90.1046 107.333 89C107.333 87.8955 108.229 87 109.333 87Z" fill="white"/>
<path d="M113.332 87C114.437 87 115.332 87.8954 115.332 89C115.332 90.1046 114.437 91 113.332 91C112.228 91 111.332 90.1046 111.332 89C111.332 87.8954 112.228 87 113.332 87Z" fill="white"/>
<path d="M49.3332 90.9999C50.4378 90.9999 51.3332 91.8954 51.3332 92.9999C51.3332 94.1046 50.4378 94.9999 49.3332 94.9999C48.2286 94.9999 47.3332 94.1046 47.3332 92.9999C47.3332 91.8954 48.2286 90.9999 49.3332 90.9999Z" fill="white"/>
<path d="M53.3323 90.9998C54.437 90.9998 55.3323 91.8952 55.3323 92.9998C55.3323 94.1044 54.437 94.9998 53.3323 94.9998C52.2278 94.9998 51.3323 94.1044 51.3323 92.9998C51.3323 91.8952 52.2278 90.9998 53.3323 90.9998Z" fill="white"/>
<path d="M57.3333 90.9999C58.4379 90.9999 59.3333 91.8954 59.3333 92.9999C59.3333 94.1046 58.4379 94.9999 57.3333 94.9999C56.2288 94.9999 55.3333 94.1046 55.3333 92.9999C55.3333 91.8954 56.2288 90.9999 57.3333 90.9999Z" fill="white"/>
<path d="M65.3335 90.9999C66.4381 90.9999 67.3335 91.8954 67.3335 92.9999C67.3335 94.1046 66.4381 94.9999 65.3335 94.9999C64.2289 94.9999 63.3335 94.1046 63.3335 92.9999C63.3335 91.8954 64.2289 90.9999 65.3335 90.9999Z" fill="white"/>
<path d="M69.3332 90.9999C70.4378 90.9999 71.3332 91.8954 71.3332 92.9999C71.3332 94.1046 70.4378 94.9999 69.3332 94.9999C68.2286 94.9999 67.3332 94.1046 67.3332 92.9999C67.3332 91.8954 68.2286 90.9999 69.3332 90.9999Z" fill="white"/>
<path d="M81.3343 90.9998C82.4389 90.9998 83.3343 91.8952 83.3343 92.9998C83.3343 94.1044 82.4389 94.9998 81.3343 94.9998C80.2297 94.9998 79.3343 94.1044 79.3343 92.9998C79.3343 91.8952 80.2297 90.9998 81.3343 90.9998Z" fill="white"/>
<path d="M97.3333 90.9999C98.4379 90.9999 99.3333 91.8954 99.3333 92.9999C99.3333 94.1046 98.4379 94.9999 97.3333 94.9999C96.2288 94.9999 95.3333 94.1046 95.3333 92.9999C95.3333 91.8954 96.2288 90.9999 97.3333 90.9999Z" fill="white"/>
<path d="M101.334 90.9998C102.439 90.9998 103.334 91.8952 103.334 92.9998C103.334 94.1044 102.439 94.9998 101.334 94.9998C100.23 94.9998 99.3343 94.1044 99.3343 92.9998C99.3343 91.8952 100.23 90.9998 101.334 90.9998Z" fill="white"/>
<path d="M109.333 90.9999C110.438 90.9999 111.333 91.8954 111.333 92.9999C111.333 94.1046 110.438 94.9999 109.333 94.9999C108.229 94.9999 107.333 94.1046 107.333 92.9999C107.333 91.8954 108.229 90.9999 109.333 90.9999Z" fill="white"/>
<path d="M49.3332 95C50.4378 95 51.3332 95.8954 51.3332 97C51.3332 98.1046 50.4378 99 49.3332 99C48.2286 99 47.3332 98.1046 47.3332 97C47.3332 95.8954 48.2286 95 49.3332 95Z" fill="white"/>
<path d="M53.3323 95C54.437 95 55.3323 95.8954 55.3323 97C55.3323 98.1046 54.437 99 53.3323 99C52.2278 99 51.3323 98.1046 51.3323 97C51.3323 95.8954 52.2278 95 53.3323 95Z" fill="white"/>
<path d="M57.3333 95C58.4379 95 59.3333 95.8954 59.3333 97C59.3333 98.1046 58.4379 99 57.3333 99C56.2288 99 55.3333 98.1046 55.3333 97C55.3333 95.8954 56.2288 95 57.3333 95Z" fill="white"/>
<path d="M65.3335 95C66.4381 95 67.3335 95.8954 67.3335 97C67.3335 98.1046 66.4381 99 65.3335 99C64.2289 99 63.3335 98.1046 63.3335 97C63.3335 95.8954 64.2289 95 65.3335 95Z" fill="white"/>
<path d="M73.3323 95C74.437 95 75.3323 95.8954 75.3323 97C75.3323 98.1046 74.437 99 73.3323 99C72.2278 99 71.3323 98.1046 71.3323 97C71.3323 95.8954 72.2278 95 73.3323 95Z" fill="white"/>
<path d="M77.3333 95C78.4379 95 79.3333 95.8954 79.3333 97C79.3333 98.1046 78.4379 99 77.3333 99C76.2288 99 75.3333 98.1046 75.3333 97C75.3333 95.8954 76.2288 95 77.3333 95Z" fill="white"/>
<path d="M81.3343 95C82.4389 95 83.3343 95.8954 83.3343 97C83.3343 98.1046 82.4389 99 81.3343 99C80.2297 99 79.3343 98.1046 79.3343 97C79.3343 95.8954 80.2297 95 81.3343 95Z" fill="white"/>
<path d="M85.3334 95C86.4381 95 87.3334 95.8954 87.3334 97C87.3334 98.1046 86.4381 99 85.3334 99C84.2289 99 83.3334 98.1046 83.3334 97C83.3334 95.8954 84.2289 95 85.3334 95Z" fill="white"/>
<path d="M89.3332 95C90.4378 95 91.3332 95.8954 91.3332 97C91.3332 98.1046 90.4378 99 89.3332 99C88.2286 99 87.3332 98.1046 87.3332 97C87.3332 95.8954 88.2286 95 89.3332 95Z" fill="white"/>
<path d="M93.3323 95C94.437 95 95.3323 95.8954 95.3323 97C95.3323 98.1046 94.437 99 93.3323 99C92.2278 99 91.3323 98.1046 91.3323 97C91.3323 95.8954 92.2278 95 93.3323 95Z" fill="white"/>
<path d="M97.3333 95C98.4379 95 99.3333 95.8954 99.3333 97C99.3333 98.1046 98.4379 99 97.3333 99C96.2288 99 95.3333 98.1046 95.3333 97C95.3333 95.8954 96.2288 95 97.3333 95Z" fill="white"/>
<path d="M101.334 95C102.439 95 103.334 95.8954 103.334 97C103.334 98.1046 102.439 99 101.334 99C100.23 99 99.3343 98.1046 99.3343 97C99.3343 95.8954 100.23 95 101.334 95Z" fill="white"/>
<path d="M105.333 95C106.438 95 107.333 95.8954 107.333 97C107.333 98.1046 106.438 99 105.333 99C104.229 99 103.333 98.1046 103.333 97C103.333 95.8954 104.229 95 105.333 95Z" fill="white"/>
<path d="M113.332 95C114.437 95 115.332 95.8954 115.332 97C115.332 98.1046 114.437 99 113.332 99C112.228 99 111.332 98.1046 111.332 97C111.332 95.8954 112.228 95 113.332 95Z" fill="white"/>
<path d="M49.3332 99.0001C50.4378 99.0001 51.3332 99.8955 51.3332 101C51.3332 102.105 50.4378 103 49.3332 103C48.2286 103 47.3332 102.105 47.3332 101C47.3332 99.8955 48.2286 99.0001 49.3332 99.0001Z" fill="white"/>
<path d="M53.3323 99.0002C54.437 99.0002 55.3323 99.8957 55.3323 101C55.3323 102.105 54.437 103 53.3323 103C52.2278 103 51.3323 102.105 51.3323 101C51.3323 99.8957 52.2278 99.0002 53.3323 99.0002Z" fill="white"/>
<path d="M77.3333 99.0001C78.4379 99.0001 79.3333 99.8955 79.3333 101C79.3333 102.105 78.4379 103 77.3333 103C76.2288 103 75.3333 102.105 75.3333 101C75.3333 99.8955 76.2288 99.0001 77.3333 99.0001Z" fill="white"/>
<path d="M81.3343 99.0002C82.4389 99.0002 83.3343 99.8957 83.3343 101C83.3343 102.105 82.4389 103 81.3343 103C80.2297 103 79.3343 102.105 79.3343 101C79.3343 99.8957 80.2297 99.0002 81.3343 99.0002Z" fill="white"/>
<path d="M85.3334 99.0001C86.4381 99.0001 87.3334 99.8955 87.3334 101C87.3334 102.105 86.4381 103 85.3334 103C84.2289 103 83.3334 102.105 83.3334 101C83.3334 99.8955 84.2289 99.0001 85.3334 99.0001Z" fill="white"/>
<path d="M89.3332 99.0001C90.4378 99.0001 91.3332 99.8955 91.3332 101C91.3332 102.105 90.4378 103 89.3332 103C88.2286 103 87.3332 102.105 87.3332 101C87.3332 99.8955 88.2286 99.0001 89.3332 99.0001Z" fill="white"/>
<path d="M93.3323 99.0002C94.437 99.0002 95.3323 99.8957 95.3323 101C95.3323 102.105 94.437 103 93.3323 103C92.2278 103 91.3323 102.105 91.3323 101C91.3323 99.8957 92.2278 99.0002 93.3323 99.0002Z" fill="white"/>
<path d="M105.333 99.0001C106.438 99.0001 107.333 99.8955 107.333 101C107.333 102.105 106.438 103 105.333 103C104.229 103 103.333 102.105 103.333 101C103.333 99.8955 104.229 99.0001 105.333 99.0001Z" fill="white"/>
<path d="M109.333 99.0001C110.438 99.0001 111.333 99.8955 111.333 101C111.333 102.105 110.438 103 109.333 103C108.229 103 107.333 102.105 107.333 101C107.333 99.8955 108.229 99.0001 109.333 99.0001Z" fill="white"/>
<path d="M113.332 99.0002C114.437 99.0002 115.332 99.8957 115.332 101C115.332 102.105 114.437 103 113.332 103C112.228 103 111.332 102.105 111.332 101C111.332 99.8957 112.228 99.0002 113.332 99.0002Z" fill="white"/>
<path d="M49.3332 103C50.4378 103 51.3332 103.895 51.3332 105C51.3332 106.105 50.4378 107 49.3332 107C48.2286 107 47.3332 106.105 47.3332 105C47.3332 103.895 48.2286 103 49.3332 103Z" fill="white"/>
<path d="M53.3323 103C54.437 103 55.3323 103.895 55.3323 105C55.3323 106.105 54.437 107 53.3323 107C52.2278 107 51.3323 106.105 51.3323 105C51.3323 103.895 52.2278 103 53.3323 103Z" fill="white"/>
<path d="M61.3343 103C62.4389 103 63.3343 103.895 63.3343 105C63.3343 106.105 62.4389 107 61.3343 107C60.2297 107 59.3343 106.105 59.3343 105C59.3343 103.895 60.2297 103 61.3343 103Z" fill="white"/>
<path d="M65.3335 103C66.4381 103 67.3335 103.895 67.3335 105C67.3335 106.105 66.4381 107 65.3335 107C64.2289 107 63.3335 106.105 63.3335 105C63.3335 103.895 64.2289 103 65.3335 103Z" fill="white"/>
<path d="M81.3343 103C82.4389 103 83.3343 103.895 83.3343 105C83.3343 106.105 82.4389 107 81.3343 107C80.2297 107 79.3343 106.105 79.3343 105C79.3343 103.895 80.2297 103 81.3343 103Z" fill="white"/>
<path d="M85.3334 103C86.4381 103 87.3334 103.895 87.3334 105C87.3334 106.105 86.4381 107 85.3334 107C84.2289 107 83.3334 106.105 83.3334 105C83.3334 103.895 84.2289 103 85.3334 103Z" fill="white"/>
<path d="M93.3323 103C94.437 103 95.3323 103.895 95.3323 105C95.3323 106.105 94.437 107 93.3323 107C92.2278 107 91.3323 106.105 91.3323 105C91.3323 103.895 92.2278 103 93.3323 103Z" fill="white"/>
<path d="M105.333 103C106.438 103 107.333 103.895 107.333 105C107.333 106.105 106.438 107 105.333 107C104.229 107 103.333 106.105 103.333 105C103.333 103.895 104.229 103 105.333 103Z" fill="white"/>
<path d="M113.332 103C114.437 103 115.332 103.895 115.332 105C115.332 106.105 114.437 107 113.332 107C112.228 107 111.332 106.105 111.332 105C111.332 103.895 112.228 103 113.332 103Z" fill="white"/>
<path d="M53.3323 107C54.437 107 55.3323 107.895 55.3323 109C55.3323 110.105 54.437 111 53.3323 111C52.2278 111 51.3323 110.105 51.3323 109C51.3323 107.895 52.2278 107 53.3323 107Z" fill="white"/>
<path d="M61.3343 107C62.4389 107 63.3343 107.895 63.3343 109C63.3343 110.105 62.4389 111 61.3343 111C60.2297 111 59.3343 110.105 59.3343 109C59.3343 107.895 60.2297 107 61.3343 107Z" fill="white"/>
<path d="M73.3323 107C74.437 107 75.3323 107.895 75.3323 109C75.3323 110.105 74.437 111 73.3323 111C72.2278 111 71.3323 110.105 71.3323 109C71.3323 107.895 72.2278 107 73.3323 107Z" fill="white"/>
<path d="M77.3333 107C78.4379 107 79.3333 107.895 79.3333 109C79.3333 110.105 78.4379 111 77.3333 111C76.2288 111 75.3333 110.105 75.3333 109C75.3333 107.895 76.2288 107 77.3333 107Z" fill="white"/>
<path d="M81.3343 107C82.4389 107 83.3343 107.895 83.3343 109C83.3343 110.105 82.4389 111 81.3343 111C80.2297 111 79.3343 110.105 79.3343 109C79.3343 107.895 80.2297 107 81.3343 107Z" fill="white"/>
<path d="M93.3323 107C94.437 107 95.3323 107.895 95.3323 109C95.3323 110.105 94.437 111 93.3323 111C92.2278 111 91.3323 110.105 91.3323 109C91.3323 107.895 92.2278 107 93.3323 107Z" fill="white"/>
<path d="M97.3333 107C98.4379 107 99.3333 107.895 99.3333 109C99.3333 110.105 98.4379 111 97.3333 111C96.2288 111 95.3333 110.105 95.3333 109C95.3333 107.895 96.2288 107 97.3333 107Z" fill="white"/>
<path d="M101.334 107C102.439 107 103.334 107.895 103.334 109C103.334 110.105 102.439 111 101.334 111C100.23 111 99.3343 110.105 99.3343 109C99.3343 107.895 100.23 107 101.334 107Z" fill="white"/>
<path d="M113.332 107C114.437 107 115.332 107.895 115.332 109C115.332 110.105 114.437 111 113.332 111C112.228 111 111.332 110.105 111.332 109C111.332 107.895 112.228 107 113.332 107Z" fill="white"/>
<path d="M49.3332 111C50.4378 111 51.3332 111.895 51.3332 113C51.3332 114.105 50.4378 115 49.3332 115C48.2286 115 47.3332 114.105 47.3332 113C47.3332 111.895 48.2286 111 49.3332 111Z" fill="white"/>
<path d="M53.3323 111C54.437 111 55.3323 111.895 55.3323 113C55.3323 114.104 54.437 115 53.3323 115C52.2278 115 51.3323 114.104 51.3323 113C51.3323 111.895 52.2278 111 53.3323 111Z" fill="white"/>
<path d="M61.3343 111C62.4389 111 63.3343 111.895 63.3343 113C63.3343 114.104 62.4389 115 61.3343 115C60.2297 115 59.3343 114.104 59.3343 113C59.3343 111.895 60.2297 111 61.3343 111Z" fill="white"/>
<path d="M77.3333 111C78.4379 111 79.3333 111.895 79.3333 113C79.3333 114.105 78.4379 115 77.3333 115C76.2288 115 75.3333 114.105 75.3333 113C75.3333 111.895 76.2288 111 77.3333 111Z" fill="white"/>
<path d="M89.3332 111C90.4378 111 91.3332 111.895 91.3332 113C91.3332 114.105 90.4378 115 89.3332 115C88.2286 115 87.3332 114.105 87.3332 113C87.3332 111.895 88.2286 111 89.3332 111Z" fill="white"/>
<path d="M93.3323 111C94.437 111 95.3323 111.895 95.3323 113C95.3323 114.104 94.437 115 93.3323 115C92.2278 115 91.3323 114.104 91.3323 113C91.3323 111.895 92.2278 111 93.3323 111Z" fill="white"/>
<path d="M97.3333 111C98.4379 111 99.3333 111.895 99.3333 113C99.3333 114.105 98.4379 115 97.3333 115C96.2288 115 95.3333 114.105 95.3333 113C95.3333 111.895 96.2288 111 97.3333 111Z" fill="white"/>
<path d="M101.334 111C102.439 111 103.334 111.895 103.334 113C103.334 114.104 102.439 115 101.334 115C100.23 115 99.3343 114.104 99.3343 113C99.3343 111.895 100.23 111 101.334 111Z" fill="white"/>
<path d="M105.333 111C106.438 111 107.333 111.895 107.333 113C107.333 114.105 106.438 115 105.333 115C104.229 115 103.333 114.105 103.333 113C103.333 111.895 104.229 111 105.333 111Z" fill="white"/>
<path d="M109.333 111C110.438 111 111.333 111.895 111.333 113C111.333 114.105 110.438 115 109.333 115C108.229 115 107.333 114.105 107.333 113C107.333 111.895 108.229 111 109.333 111Z" fill="white"/>
<path d="M113.332 111C114.437 111 115.332 111.895 115.332 113C115.332 114.104 114.437 115 113.332 115C112.228 115 111.332 114.104 111.332 113C111.332 111.895 112.228 111 113.332 111Z" fill="white"/>
<path d="M33.7738 15.0023H24.8928C20.5646 15.0023 16.8977 17.8619 15.7253 21.7704C15.6041 22.1747 15.5094 22.5903 15.4436 23.015C15.3711 23.4837 15.3333 23.9637 15.3333 24.4523V33.5441C15.3333 38.7575 19.6229 42.9969 24.8928 42.9969L29.3333 42.9978L33.7738 42.9967C39.0434 42.9967 43.3333 38.7572 43.3333 33.5439V24.4523C43.3333 19.2415 39.0437 15.0023 33.7738 15.0023ZM39.1333 33.5441C39.1333 36.4405 36.7292 38.7969 33.7727 38.7969L29.3333 38.7978L24.8939 38.7967C21.9374 38.7967 19.5333 36.4402 19.5333 33.5441V24.4523C19.5333 23.5476 19.768 22.6958 20.181 21.9516C20.5786 21.2356 21.1411 20.6199 21.8184 20.1537C22.6892 19.5542 23.7496 19.2023 24.8925 19.2023H33.7738C36.7292 19.2023 39.1333 21.5573 39.1333 24.4523V33.5441Z" fill="white"/>
<path d="M105.774 15.0023H96.8927C92.5644 15.0023 88.8976 17.8619 87.7252 21.7704C87.604 22.1747 87.5093 22.5903 87.4435 23.015C87.371 23.4837 87.3332 23.9637 87.3332 24.4523V33.5441C87.3332 38.7575 91.6228 42.9969 96.8927 42.9969L101.333 42.9978L105.774 42.9967C111.043 42.9967 115.333 38.7572 115.333 33.5439V24.4523C115.333 19.2415 111.044 15.0023 105.774 15.0023ZM111.133 33.5441C111.133 36.4405 108.729 38.7969 105.773 38.7969L101.333 38.7978L96.8938 38.7967C93.9373 38.7967 91.5332 36.4402 91.5332 33.5441V24.4523C91.5332 23.5476 91.7678 22.6958 92.1808 21.9516C92.5784 21.2356 93.141 20.6199 93.8183 20.1537C94.6891 19.5542 95.7494 19.2023 96.8924 19.2023H105.774C108.729 19.2023 111.133 21.5573 111.133 24.4523V33.5441Z" fill="white"/>
<path d="M33.7738 87.0021H24.8928C20.5646 87.0021 16.8977 89.8618 15.7253 93.7703C15.6041 94.1746 15.5094 94.5901 15.4436 95.0149C15.3711 95.4836 15.3333 95.9635 15.3333 96.4521V105.544C15.3333 110.757 19.6229 114.997 24.8928 114.997L29.3333 114.998L33.7738 114.997C39.0434 114.997 43.3333 110.757 43.3333 105.544V96.4521C43.3333 91.2413 39.0437 87.0021 33.7738 87.0021ZM39.1333 105.544C39.1333 108.44 36.7292 110.797 33.7727 110.797L29.3333 110.798L24.8939 110.797C21.9374 110.797 19.5333 108.44 19.5333 105.544V96.4521C19.5333 95.5475 19.768 94.6957 20.181 93.9515C20.5786 93.2355 21.1411 92.6198 21.8184 92.1536C22.6892 91.5541 23.7496 91.2021 24.8925 91.2021H33.7738C36.7292 91.2021 39.1333 93.5572 39.1333 96.4521V105.544Z" fill="white"/>
<path d="M35.3335 23H23.3335V35H35.3335V23Z" fill="white"/>
<path d="M107.333 23H95.3333V35H107.333V23Z" fill="white"/>
<path d="M35.3335 95H23.3335V107H35.3335V95Z" fill="white"/>
</svg>
