<svg width="167" height="151" viewBox="0 0 167 151" fill="none" xmlns="http://www.w3.org/2000/svg">
<path d="M162.14 151H86.4144C84.0984 151 82.2227 149.124 82.2227 146.808V10.6722C82.2227 8.35615 84.0984 6.48041 86.4144 6.48041H162.14C164.456 6.48041 166.331 8.35615 166.331 10.6722V146.808C166.331 149.124 164.456 151 162.14 151Z" fill="#29333A"/>
<path d="M162.14 146.236H86.4144C84.0984 146.236 82.2227 144.36 82.2227 142.044V4.55189C82.2227 2.23584 84.0984 0.360107 86.4144 0.360107H162.14C164.456 0.360107 166.331 2.23584 166.331 4.55189V142.053C166.331 144.36 164.456 146.236 162.14 146.236Z" fill="#85B3D4"/>
<path d="M163.439 124.411L163.439 12.3247L85.1253 12.3247L85.1253 124.411L163.439 124.411Z" fill="white"/>
<path d="M136.478 6.08423H112.067C111.688 6.08423 111.389 6.39245 111.389 6.76231C111.389 7.14098 111.697 7.4404 112.067 7.4404H136.478C136.856 7.4404 137.156 7.13218 137.156 6.76231C137.165 6.39245 136.856 6.08423 136.478 6.08423Z" fill="white"/>
<path d="M124.272 141.868C128.12 141.868 131.238 138.749 131.238 134.902C131.238 131.055 128.12 127.937 124.272 127.937C120.425 127.937 117.307 131.055 117.307 134.902C117.307 138.749 120.425 141.868 124.272 141.868Z" fill="white"/>
<path d="M124.272 140.838C127.55 140.838 130.208 138.18 130.208 134.902C130.208 131.624 127.55 128.967 124.272 128.967C120.994 128.967 118.337 131.624 118.337 134.902C118.337 138.18 120.994 140.838 124.272 140.838Z" fill="#85B3D4"/>
<path d="M134.496 147.478H114.057C113.441 147.478 112.947 147.98 112.947 148.587C112.947 149.204 113.449 149.697 114.057 149.697H134.496C135.113 149.697 135.606 149.195 135.606 148.587C135.606 147.971 135.113 147.478 134.496 147.478Z" fill="white"/>
<path d="M99.1044 32.8814V77.8374C99.1044 79.3257 100.311 80.5321 101.799 80.5321H146.755C148.243 80.5321 149.45 79.3257 149.45 77.8374V32.8814C149.45 31.3931 148.243 30.1867 146.755 30.1867H101.799C100.311 30.1779 99.1044 31.3843 99.1044 32.8814Z" fill="#29333A"/>
<path d="M132.005 37.4254V47.4029H141.983V37.4254H132.005ZM140.556 45.9763H133.432V38.852H140.556V45.9763Z" fill="white"/>
<path d="M120.6 40.2787H119.174V41.7053H120.6V40.2787Z" fill="white"/>
<path d="M136.285 40.2786H134.858V41.6964V43.123V44.5497H136.285H137.712H139.138V43.123V41.6964V40.2786H137.712H136.285Z" fill="white"/>
<path d="M112.051 44.5497H113.477V43.123V41.6964V40.2786H112.051H110.624H109.197V41.6964V43.123V44.5497H110.624H112.051Z" fill="white"/>
<path d="M130.578 43.1231H129.151V44.5498H130.578V43.1231Z" fill="white"/>
<path d="M120.6 44.5497H119.174V45.9763H120.6V44.5497Z" fill="white"/>
<path d="M122.028 45.9763H123.455V44.5497H124.881V45.9763H126.308V44.5497H127.734V43.1231H126.308V41.6964H130.579V40.2698H127.726V38.8432V37.4166H126.299V38.8432H123.446V37.4166H117.748V38.8432H122.028V41.6964H120.601V43.1231V44.5497H122.028V45.9763ZM123.455 40.2786H124.881V41.7052H123.455V40.2786Z" fill="white"/>
<path d="M116.33 47.4029V37.4254H106.352V47.4029H116.33ZM107.77 38.852H114.895V45.9763H107.77V38.852Z" fill="white"/>
<path d="M122.027 45.9763H120.601V47.4029H122.027V45.9763Z" fill="white"/>
<path d="M124.881 45.9763H123.454V47.4029H124.881V45.9763Z" fill="white"/>
<path d="M127.734 45.9763H126.308V47.4029H127.734V45.9763Z" fill="white"/>
<path d="M120.601 47.4029H119.175V45.9763H117.748V47.4029V48.8295H119.175V50.2561H120.601V48.8295V47.4029Z" fill="white"/>
<path d="M126.307 47.403H124.881V48.8296H126.307V47.403Z" fill="white"/>
<path d="M107.77 48.8295H106.352V50.2561H107.77H109.197V48.8295H107.77Z" fill="white"/>
<path d="M116.33 48.8295H114.903V50.2561H116.33V48.8295Z" fill="white"/>
<path d="M124.881 48.8295H123.454V50.2561H124.881V48.8295Z" fill="white"/>
<path d="M133.432 48.8295H132.005V50.2561H133.432V48.8295Z" fill="white"/>
<path d="M141.982 48.8294H140.556V50.256H141.982V48.8294Z" fill="white"/>
<path d="M132.005 50.2562H130.578V51.6828H132.005V50.2562Z" fill="white"/>
<path d="M137.711 50.2562H136.285H134.858H133.432V51.6828H132.005V53.1006H133.432V54.5272H134.858V53.1006V51.6828H136.285V53.1006V54.5272H137.711H139.138H140.556V55.9539H141.983V54.5272V53.1006V51.6828H140.556V53.1006H139.138H137.711V51.6828H139.138H140.556V50.2562H139.138H137.711Z" fill="white"/>
<path d="M110.624 53.1005V51.6827H112.05H113.477V50.2561V48.8295H112.05H110.624V50.2561H109.197V51.6827H107.771V53.1005H109.197H110.624Z" fill="white"/>
<path d="M114.903 53.1005H116.33V51.6827H114.903H113.477V53.1005H114.903Z" fill="white"/>
<path d="M120.6 51.6827H119.174V53.1093H120.6V51.6827Z" fill="white"/>
<path d="M122.027 53.1006V54.5272H123.454V53.1006V51.6828V50.2562H122.027H120.601V51.6828H122.027V53.1006Z" fill="white"/>
<path d="M124.881 53.1005H126.307V51.6827H127.734V53.1005H129.152H130.578V51.6827H129.152V50.2561H130.578V48.8295V47.4029V45.9763H129.152V47.4029V48.8295H127.734V50.2561H126.307H124.881V51.6827V53.1005Z" fill="white"/>
<path d="M113.476 53.1006H112.05V54.5272H113.476V53.1006Z" fill="white"/>
<path d="M116.33 54.5271H114.903V55.9538H116.33V54.5271Z" fill="white"/>
<path d="M124.881 54.5271H123.454V55.9538H124.881V54.5271Z" fill="white"/>
<path d="M133.432 54.5271H132.005V55.9538H133.432V54.5271Z" fill="white"/>
<path d="M112.051 55.9538V54.5271H110.624V55.9538V57.3804V58.807H109.197V60.2336V61.6602H110.624V60.2336H112.051V58.807H113.477V57.3804H114.904V55.9538H113.477H112.051Z" fill="white"/>
<path d="M139.138 57.3804H137.712H136.285V55.9538H134.858V57.3804V58.807H136.285V60.2337H137.712V61.6603V63.0869H139.138H140.556V61.6603V60.2337H139.138V58.807H140.556V60.2337H141.983V58.807V57.3804H140.556V55.9538H139.138V57.3804Z" fill="white"/>
<path d="M107.77 57.3805V55.9539H109.197V54.5272H107.77V53.1006H106.352V61.6603H107.77V60.2337V58.8071H109.197V57.3805H107.77Z" fill="white"/>
<path d="M116.33 57.3803H114.903V58.807H116.33V57.3803Z" fill="white"/>
<path d="M134.858 58.807H133.432V60.2337H132.005V58.807H133.432V57.3804H132.005V55.9538H130.578V54.5272H129.152H127.725V55.9538H126.299H124.872V57.3804H126.299H127.725V63.0781H129.152V64.5047H127.725V65.9313H126.299V67.3579H124.872V68.7846H126.299H127.725V67.3579H132.005V68.7846H133.432V67.3579H134.858H136.285V60.2337H134.858V58.807ZM134.858 63.0869V64.5135V65.9401H133.432H132.005H130.578V64.5135V63.0869V61.6603H132.005H133.432H134.858V63.0869Z" fill="white"/>
<path d="M122.028 60.2337H123.454V58.8071H122.028V57.3805H123.454V55.9539H122.028V54.5272H120.601H119.174V53.1006H117.748H116.33V54.5272H117.748V58.8071H119.174V57.3805H120.601V58.8071V60.2337H119.174H117.748H116.33H114.903V61.6603H116.33H117.748V63.0869H119.174V61.6603H120.601V63.0869H122.028V61.6603V60.2337Z" fill="white"/>
<path d="M126.307 61.6602V60.2336H124.881H123.454V61.6602H124.881V63.0868H126.307V61.6602Z" fill="white"/>
<path d="M106.352 63.0868V73.0643H116.33V63.0868H106.352ZM114.903 71.6377H107.779V64.5134H114.903V71.6377Z" fill="white"/>
<path d="M133.432 63.0868H132.005V64.5134H133.432V63.0868Z" fill="white"/>
<path d="M122.027 64.5047H120.601V65.9313H122.027V64.5047Z" fill="white"/>
<path d="M126.308 65.9312V64.5046H124.881V63.0868H123.455H122.028V64.5046H123.455V65.9312H122.028V67.3578H120.601H119.175V65.9312H117.748V67.3578V68.7845H119.175V70.2111H120.601V71.6377H122.028V70.2111H123.455V68.7845V67.3578H124.881V65.9312H126.308Z" fill="white"/>
<path d="M140.556 65.9312H141.982V64.5046V63.0868H140.556V64.5046V65.9312Z" fill="white"/>
<path d="M110.624 65.9312H109.197V67.3578V68.7844V70.211H110.624H112.051H113.477V68.7844V67.3578V65.9312H112.051H110.624Z" fill="white"/>
<path d="M139.138 67.3578V68.7844H137.712H136.285H134.858V70.211H133.432V71.6377H134.858H136.285V70.211H137.712V71.6377H139.138H140.556V73.0643H141.983V67.3578H140.556V65.9312H139.138V67.3578Z" fill="white"/>
<path d="M132.005 68.7845H130.578V70.2111H132.005V68.7845Z" fill="white"/>
<path d="M119.175 70.2111H117.748V71.6377V73.0644H119.175H120.601V71.6377H119.175V70.2111Z" fill="white"/>
<path d="M126.308 71.6377V73.0644H127.734V71.6377V70.2111H126.308V71.6377Z" fill="white"/>
<path d="M124.881 71.6378H123.454V73.0645H124.881V71.6378Z" fill="white"/>
<path d="M129.151 71.6378V73.0644H130.578H132.004V71.6378H130.578H129.151Z" fill="white"/>
<path d="M137.712 71.6378H136.285V73.0645H137.712V71.6378Z" fill="white"/>
<path d="M94.5869 52.9158H153.968" stroke="#E64C2A" stroke-width="1.638" stroke-miterlimit="10"/>
<path d="M94.5864 55.1525C95.8217 55.1525 96.8232 54.151 96.8232 52.9157C96.8232 51.6803 95.8217 50.6789 94.5864 50.6789C93.351 50.6789 92.3496 51.6803 92.3496 52.9157C92.3496 54.151 93.351 55.1525 94.5864 55.1525Z" fill="#E64C2A"/>
<path d="M153.967 55.1525C155.203 55.1525 156.204 54.1511 156.204 52.9158C156.204 51.6804 155.203 50.679 153.967 50.679C152.732 50.679 151.73 51.6804 151.73 52.9158C151.73 54.1511 152.732 55.1525 153.967 55.1525Z" fill="#E64C2A"/>
<path opacity="0.7" d="M145.178 34.5283H102.565V52.9158H145.178V34.5283Z" fill="#E64C2A"/>
<path d="M126.13 89.691C126.13 88.7752 125.39 88.0266 124.465 88.0266C123.541 88.0266 122.801 88.7752 122.801 89.691C122.801 90.6069 123.541 91.3554 124.465 91.3554C125.39 91.3554 126.13 90.6069 126.13 89.691Z" fill="#29333A"/>
<path d="M119.763 93.1431C120.682 93.1431 121.428 92.3979 121.428 91.4787C121.428 90.5595 120.682 89.8143 119.763 89.8143C118.844 89.8143 118.099 90.5595 118.099 91.4787C118.099 92.3979 118.844 93.1431 119.763 93.1431Z" fill="#D4D6D8"/>
<path d="M117.711 94.4023C116.795 94.4023 116.047 95.1509 116.047 96.0667C116.047 96.9826 116.795 97.7311 117.711 97.7311C118.627 97.7311 119.376 96.9826 119.376 96.0667C119.376 95.1509 118.627 94.4023 117.711 94.4023Z" fill="#D4D6D8"/>
<path d="M118.328 99.5892C117.676 100.241 117.676 101.289 118.328 101.94C118.98 102.592 120.027 102.592 120.679 101.94C121.331 101.289 121.331 100.241 120.679 99.5892C120.027 98.9375 118.98 98.9375 118.328 99.5892Z" fill="#A9ADB0"/>
<path d="M124.087 104.485C125.006 104.485 125.752 103.74 125.752 102.821C125.752 101.902 125.006 101.157 124.087 101.157C123.168 101.157 122.423 101.902 122.423 102.821C122.423 103.74 123.168 104.485 124.087 104.485Z" fill="#A9ADB0"/>
<path d="M128.79 102.689C129.709 102.689 130.454 101.944 130.454 101.025C130.454 100.106 129.709 99.3604 128.79 99.3604C127.87 99.3604 127.125 100.106 127.125 101.025C127.125 101.944 127.87 102.689 128.79 102.689Z" fill="#7F8589"/>
<path d="M130.841 98.1098C131.76 98.1098 132.506 97.3646 132.506 96.4454C132.506 95.5262 131.76 94.781 130.841 94.781C129.922 94.781 129.177 95.5262 129.177 96.4454C129.177 97.3646 129.922 98.1098 130.841 98.1098Z" fill="#7F8589"/>
<path d="M129.054 93.4074C129.973 93.4074 130.718 92.6622 130.718 91.743C130.718 90.8238 129.973 90.0786 129.054 90.0786C128.135 90.0786 127.39 90.8238 127.39 91.743C127.39 92.6622 128.135 93.4074 129.054 93.4074Z" fill="#29333A"/>
<path d="M114.566 111.728L115.137 108.485H115.536L115.026 111.379H116.556L116.495 111.728H114.566ZM120.048 110.106C119.987 110.448 119.873 110.744 119.703 110.993C119.534 111.242 119.328 111.434 119.086 111.569C118.843 111.704 118.582 111.772 118.301 111.772C118.02 111.772 117.782 111.704 117.587 111.569C117.392 111.434 117.254 111.242 117.173 110.993C117.091 110.744 117.081 110.448 117.141 110.106C117.201 109.764 117.316 109.469 117.485 109.22C117.655 108.971 117.861 108.779 118.103 108.643C118.346 108.508 118.607 108.441 118.888 108.441C119.169 108.441 119.407 108.508 119.601 108.643C119.796 108.779 119.934 108.971 120.016 109.22C120.097 109.469 120.108 109.764 120.048 110.106ZM119.662 110.106C119.711 109.826 119.705 109.589 119.644 109.396C119.584 109.202 119.481 109.056 119.337 108.957C119.194 108.858 119.023 108.808 118.823 108.808C118.624 108.808 118.435 108.858 118.255 108.957C118.077 109.056 117.923 109.202 117.794 109.396C117.665 109.589 117.576 109.826 117.527 110.106C117.477 110.387 117.483 110.624 117.543 110.817C117.604 111.01 117.707 111.157 117.85 111.256C117.994 111.355 118.166 111.405 118.365 111.405C118.565 111.405 118.754 111.355 118.932 111.256C119.111 111.157 119.265 111.01 119.393 110.817C119.523 110.624 119.612 110.387 119.662 110.106ZM120.413 111.728H119.995L121.775 108.485H122.187L122.824 111.728H122.406L121.903 108.998H121.878L120.413 111.728ZM120.79 110.461H122.475L122.414 110.809H120.729L120.79 110.461ZM124.353 111.728H123.337L123.908 108.485H124.969C125.289 108.485 125.551 108.55 125.755 108.68C125.959 108.809 126.101 108.994 126.179 109.236C126.258 109.476 126.268 109.764 126.209 110.1C126.149 110.438 126.037 110.729 125.872 110.972C125.707 111.215 125.496 111.402 125.239 111.533C124.983 111.663 124.687 111.728 124.353 111.728ZM123.797 111.379H124.388C124.661 111.379 124.895 111.328 125.093 111.224C125.29 111.121 125.449 110.973 125.571 110.782C125.692 110.591 125.776 110.364 125.823 110.1C125.869 109.838 125.865 109.613 125.812 109.424C125.759 109.234 125.655 109.088 125.5 108.987C125.345 108.885 125.139 108.833 124.882 108.833H124.246L123.797 111.379ZM127.561 108.485L126.989 111.728H126.591L127.162 108.485H127.561ZM130.971 108.485L130.399 111.728H130.014L128.668 109.182H128.636L128.187 111.728H127.789L128.36 108.485H128.746L130.097 111.037H130.129L130.579 108.485H130.971ZM133.841 109.498C133.824 109.392 133.795 109.296 133.752 109.212C133.71 109.126 133.655 109.054 133.586 108.993C133.518 108.933 133.437 108.887 133.343 108.856C133.249 108.824 133.143 108.808 133.024 108.808C132.829 108.808 132.643 108.858 132.465 108.957C132.288 109.056 132.135 109.202 132.007 109.396C131.879 109.589 131.79 109.826 131.74 110.106C131.691 110.387 131.697 110.624 131.758 110.817C131.819 111.01 131.923 111.157 132.068 111.256C132.214 111.355 132.388 111.405 132.592 111.405C132.78 111.405 132.953 111.365 133.111 111.286C133.27 111.206 133.402 111.093 133.508 110.947C133.616 110.8 133.687 110.628 133.722 110.429L133.839 110.455H132.849L132.911 110.106H134.165L134.103 110.455C134.056 110.722 133.957 110.954 133.807 111.151C133.657 111.349 133.472 111.502 133.25 111.61C133.029 111.718 132.788 111.772 132.527 111.772C132.235 111.772 131.991 111.704 131.794 111.569C131.598 111.434 131.461 111.242 131.381 110.993C131.303 110.744 131.294 110.448 131.354 110.106C131.4 109.85 131.475 109.619 131.581 109.415C131.688 109.209 131.818 109.033 131.973 108.889C132.127 108.744 132.298 108.633 132.488 108.556C132.677 108.479 132.877 108.441 133.088 108.441C133.262 108.441 133.419 108.467 133.56 108.518C133.702 108.569 133.824 108.641 133.926 108.735C134.028 108.828 134.108 108.94 134.164 109.069C134.221 109.198 134.25 109.341 134.252 109.498H133.841ZM113.918 116.677C113.839 116.677 113.776 116.649 113.729 116.593C113.682 116.537 113.665 116.47 113.679 116.392C113.693 116.314 113.733 116.247 113.8 116.191C113.866 116.135 113.939 116.107 114.019 116.107C114.098 116.107 114.161 116.135 114.208 116.191C114.255 116.247 114.272 116.314 114.258 116.392C114.249 116.444 114.227 116.491 114.192 116.535C114.159 116.578 114.118 116.613 114.07 116.639C114.022 116.664 113.972 116.677 113.918 116.677ZM115.165 116.677C115.086 116.677 115.022 116.649 114.976 116.593C114.929 116.537 114.912 116.47 114.926 116.392C114.94 116.314 114.98 116.247 115.046 116.191C115.113 116.135 115.186 116.107 115.265 116.107C115.345 116.107 115.408 116.135 115.455 116.191C115.502 116.247 115.518 116.314 115.505 116.392C115.495 116.444 115.474 116.491 115.439 116.535C115.406 116.578 115.365 116.613 115.316 116.639C115.269 116.664 115.218 116.677 115.165 116.677ZM116.412 116.677C116.332 116.677 116.269 116.649 116.222 116.593C116.175 116.537 116.159 116.47 116.172 116.392C116.186 116.314 116.226 116.247 116.293 116.191C116.36 116.135 116.433 116.107 116.512 116.107C116.591 116.107 116.655 116.135 116.701 116.191C116.748 116.247 116.765 116.314 116.751 116.392C116.742 116.444 116.72 116.491 116.686 116.535C116.653 116.578 116.612 116.613 116.563 116.639C116.516 116.664 116.465 116.677 116.412 116.677Z" fill="#29333A"/>
<path d="M106.503 30.6605H0V24.0646C0 22.3738 1.37379 21 3.06459 21H103.438C105.129 21 106.503 22.3738 106.503 24.0646V30.6605Z" fill="#85B3D4"/>
<path d="M103.438 87.2319H3.06459C1.37379 87.2319 0 85.8582 0 84.1674V30.6693H106.503V84.1674C106.503 85.8582 105.129 87.2319 103.438 87.2319Z" fill="#DEECF7"/>
<path d="M40.2355 37.6702H10.6641V63.2788H40.2355V37.6702Z" fill="white"/>
<path d="M10.6641 49.3913L18.2903 45.1291L40.2355 58.5939V63.2788H10.6641V49.3913Z" fill="#85B3D4"/>
<path d="M28.8313 51.5928L35.2247 48.2024L40.2354 51.5928V58.5938L28.8313 51.5928Z" fill="#64869F"/>
<path d="M30.8656 43.8698C30.8656 45.7191 29.3685 47.2074 27.528 47.2074C25.6875 47.2074 24.1904 45.7103 24.1904 43.8698C24.1904 42.0205 25.6875 40.5322 27.528 40.5322C29.3685 40.5322 30.8656 42.0205 30.8656 43.8698Z" fill="#E64C2A"/>
<path d="M98.8326 40.5234H49.4647C48.6721 40.5234 48.038 39.8806 48.038 39.0968C48.038 38.3043 48.6809 37.6702 49.4647 37.6702H98.8326C99.6252 37.6702 100.259 38.3131 100.259 39.0968C100.259 39.8894 99.6252 40.5234 98.8326 40.5234Z" fill="white"/>
<path d="M98.8326 46.5558H49.4647C48.6721 46.5558 48.038 45.9129 48.038 45.1292C48.038 44.3366 48.6809 43.7026 49.4647 43.7026H98.8326C99.6252 43.7026 100.259 44.3454 100.259 45.1292C100.259 45.9218 99.6252 46.5558 98.8326 46.5558Z" fill="white"/>
<path d="M98.8326 52.588H49.4647C48.6721 52.588 48.038 51.9451 48.038 51.1614C48.038 50.3688 48.6809 49.7347 49.4647 49.7347H98.8326C99.6252 49.7347 100.259 50.3776 100.259 51.1614C100.259 51.9539 99.6252 52.588 98.8326 52.588Z" fill="white"/>
<path d="M98.8326 58.6204H49.4647C48.6721 58.6204 48.038 57.9775 48.038 57.1937C48.038 56.4012 48.6809 55.7671 49.4647 55.7671H98.8326C99.6252 55.7671 100.259 56.41 100.259 57.1937C100.259 57.9775 99.6252 58.6204 98.8326 58.6204Z" fill="white"/>
<path d="M98.8326 64.6527H49.4647C48.6721 64.6527 48.038 64.0099 48.038 63.2261C48.038 62.4335 48.6809 61.7995 49.4647 61.7995H98.8326C99.6252 61.7995 100.259 62.4424 100.259 63.2261C100.259 64.0099 99.6252 64.6527 98.8326 64.6527Z" fill="white"/>
<path d="M98.8326 70.6849H49.4647C48.6721 70.6849 48.038 70.042 48.038 69.2583C48.038 68.4657 48.6809 67.8317 49.4647 67.8317H98.8326C99.6252 67.8317 100.259 68.4745 100.259 69.2583C100.259 70.042 99.6252 70.6849 98.8326 70.6849Z" fill="white"/>
<path d="M98.8326 76.7173H49.4647C48.6721 76.7173 48.038 76.0744 48.038 75.2907C48.038 74.4981 48.6809 73.8641 49.4647 73.8641H98.8326C99.6252 73.8641 100.259 74.5069 100.259 75.2907C100.259 76.0744 99.6252 76.7173 98.8326 76.7173Z" fill="white"/>
<path d="M38.8099 76.7172H12.0917C11.2991 76.7172 10.665 76.0744 10.665 75.2906C10.665 74.4981 11.3079 73.864 12.0917 73.864H38.8099C39.6025 73.864 40.2365 74.5069 40.2365 75.2906C40.2365 76.0744 39.6025 76.7172 38.8099 76.7172Z" fill="white"/>
<path d="M38.8099 70.685H12.0917C11.2991 70.685 10.665 70.0422 10.665 69.2584C10.665 68.4658 11.3079 67.8318 12.0917 67.8318H38.8099C39.6025 67.8318 40.2365 68.4747 40.2365 69.2584C40.2365 70.0422 39.6025 70.685 38.8099 70.685Z" fill="white"/>
<path d="M89.9831 25.8345C89.9831 26.6183 89.349 27.2524 88.5653 27.2524C87.7815 27.2524 87.1475 26.6183 87.1475 25.8345C87.1475 25.0508 87.7815 24.4167 88.5653 24.4167C89.3402 24.4167 89.9831 25.0508 89.9831 25.8345Z" fill="#29333A"/>
<path d="M95.1258 25.8345C95.1258 26.6183 94.4917 27.2524 93.708 27.2524C92.9242 27.2524 92.2902 26.6183 92.2902 25.8345C92.2902 25.0508 92.9242 24.4167 93.708 24.4167C94.4829 24.4167 95.1258 25.0508 95.1258 25.8345Z" fill="#64869F"/>
<path d="M100.259 25.8345C100.259 26.6183 99.6254 27.2524 98.8416 27.2524C98.0579 27.2524 97.4238 26.6183 97.4238 25.8345C97.4238 25.0508 98.0579 24.4167 98.8416 24.4167C99.6254 24.4167 100.259 25.0508 100.259 25.8345Z" fill="#E64C2A"/>
<path d="M141.781 80.002C141.781 80.002 125.482 58.6364 98.0469 58.6364V53.5832L85.4208 62.6204L97.9094 72.0339V66.7896C97.9094 66.7956 120.291 63.7852 141.781 80.002Z" fill="#29333A"/>
</svg>
