<svg width="35" height="35" viewBox="0 0 35 35" fill="none" xmlns="http://www.w3.org/2000/svg">
<rect width="35" height="35" rx="17.5" fill="#3B5998"/>
<path d="M27.0671 17.7909C27.0671 12.6045 22.8886 8.40039 17.7349 8.40039C12.5789 8.40156 8.40039 12.6045 8.40039 17.792C8.40039 22.478 11.8136 26.3625 16.2744 27.0671V20.5054H13.9064V17.792H16.2767V15.7215C16.2767 13.3686 17.6707 12.0691 19.802 12.0691C20.8238 12.0691 21.8912 12.2522 21.8912 12.2522V14.562H20.7142C19.5558 14.562 19.1942 15.2864 19.1942 16.0294V17.7909H21.7816L21.3686 20.5042H19.193V27.0659C23.6538 26.3613 27.0671 22.4768 27.0671 17.7909Z" fill="white"/>
</svg>
