<svg width="28" height="28" viewBox="0 0 28 28" fill="none" xmlns="http://www.w3.org/2000/svg">
<circle cx="14" cy="14" r="14" fill="#1E293B"/>
<path fill-rule="evenodd" clip-rule="evenodd" d="M14.6088 7.22656C11.0179 7.22656 8.12891 10.1155 8.12891 13.7065C8.12891 16.5684 9.99188 18.9984 12.5568 19.8624C12.8808 19.9164 12.9888 19.7274 12.9888 19.5384C12.9888 19.3764 12.9888 18.9714 12.9888 18.4314C11.1799 18.8364 10.8019 17.5674 10.8019 17.5674C10.5049 16.8114 10.0729 16.6224 10.0729 16.6224C9.47888 16.2174 10.1269 16.2174 10.1269 16.2174C10.7749 16.2714 11.1259 16.8924 11.1259 16.8924C11.6928 17.8914 12.6378 17.5944 13.0158 17.4324C13.0698 17.0004 13.2318 16.7304 13.4208 16.5684C11.9898 16.4064 10.4779 15.8394 10.4779 13.3555C10.4779 12.6535 10.7209 12.0595 11.1529 11.6275C11.0989 11.4655 10.8559 10.8175 11.2069 9.89952C11.2069 9.89952 11.7468 9.73752 12.9888 10.5745C13.5018 10.4395 14.0688 10.3585 14.6088 10.3585C15.1488 10.3585 15.7158 10.4395 16.2288 10.5745C17.4708 9.73752 18.0107 9.89952 18.0107 9.89952C18.3617 10.7905 18.1457 11.4385 18.0647 11.6275C18.4697 12.0865 18.7397 12.6535 18.7397 13.3555C18.7397 15.8394 17.2278 16.3794 15.7698 16.5414C16.0128 16.7304 16.2018 17.1354 16.2018 17.7294C16.2018 18.5934 16.2018 19.2954 16.2018 19.5114C16.2018 19.6734 16.3098 19.8894 16.6608 19.8354C19.2257 18.9984 21.0887 16.5684 21.0887 13.7065C21.0887 10.1155 18.1997 7.22656 14.6088 7.22656Z" fill="white"/>
</svg>
