<svg width="35" height="35" viewBox="0 0 35 35" fill="none" xmlns="http://www.w3.org/2000/svg">
<rect width="35" height="35" rx="17.5" fill="url(#paint0_radial_866_76398)"/>
<mask id="mask0_866_76398" style="mask-type:alpha" maskUnits="userSpaceOnUse" x="0" y="0" width="35" height="35">
<rect width="35" height="35" rx="17.5" fill="url(#paint1_radial_866_76398)"/>
</mask>
<g mask="url(#mask0_866_76398)">
<path d="M17.5057 0C10.1996 0 8.06287 0.00753704 7.64753 0.0419921C6.14819 0.166623 5.21522 0.402693 4.19879 0.908752C3.41548 1.29772 2.79771 1.74859 2.18802 2.38063C1.07765 3.53326 0.404697 4.9513 0.161089 6.63691C0.0426501 7.45521 0.00819504 7.62211 0.00119636 11.8019C-0.00149545 13.1952 0.00119636 15.0289 0.00119636 17.4884C0.00119636 24.7885 0.00927176 26.9231 0.0442652 27.3377C0.165396 28.7966 0.394199 29.7145 0.878724 30.7186C1.8047 32.6405 3.57322 34.0833 5.65667 34.6217C6.37807 34.8074 7.17485 34.9097 8.19773 34.9582C8.63111 34.977 13.0484 34.9905 17.4683 34.9905C21.8882 34.9905 26.3082 34.9851 26.7308 34.9635C27.9152 34.9078 28.6029 34.8155 29.3634 34.619C31.4603 34.0779 33.1965 32.6567 34.1413 30.7078C34.6164 29.728 34.8573 28.7751 34.9664 27.3923C34.99 27.0908 35 22.2841 35 17.4838C35 12.6827 34.9892 7.88482 34.9655 7.58334C34.8552 6.17822 34.6143 5.2334 34.1238 4.23474C33.7214 3.41724 33.2746 2.80674 32.6258 2.18251C31.4681 1.07672 30.0522 0.40377 28.365 0.160431C27.5475 0.0422613 27.3846 0.00726786 23.2016 0H17.5057Z" fill="url(#paint2_radial_866_76398)"/>
</g>
<path d="M17.7346 7.93359C15.1998 7.93359 14.8817 7.94468 13.8861 7.98998C12.8925 8.03548 12.2143 8.19279 11.6208 8.4236C11.0069 8.66199 10.4862 8.98088 9.96743 9.49986C9.44826 10.0186 9.12937 10.5394 8.8902 11.153C8.65881 11.7467 8.50131 12.4251 8.45659 13.4183C8.41206 14.4139 8.40039 14.7322 8.40039 17.267C8.40039 19.8018 8.41167 20.119 8.45678 21.1145C8.50248 22.1082 8.65978 22.7864 8.8904 23.3798C9.12898 23.9937 9.44787 24.5144 9.96685 25.0332C10.4854 25.5524 11.0062 25.8721 11.6196 26.1104C12.2135 26.3413 12.8919 26.4986 13.8853 26.5441C14.8809 26.5894 15.1988 26.6005 17.7334 26.6005C20.2684 26.6005 20.5856 26.5894 21.5811 26.5441C22.5748 26.4986 23.2538 26.3413 23.8476 26.1104C24.4613 25.8721 24.9812 25.5524 25.4998 25.0332C26.019 24.5144 26.3379 23.9937 26.5771 23.38C26.8065 22.7864 26.964 22.108 27.0107 21.1147C27.0554 20.1192 27.0671 19.8018 27.0671 17.267C27.0671 14.7322 27.0554 14.4141 27.0107 13.4185C26.964 12.4249 26.8065 11.7467 26.5771 11.1532C26.3379 10.5394 26.019 10.0186 25.4998 9.49986C24.9806 8.98069 24.4615 8.6618 23.847 8.4236C23.252 8.19279 22.5734 8.03548 21.5798 7.98998C20.5842 7.94468 20.2673 7.93359 17.7317 7.93359H17.7346ZM16.8973 9.61556C17.1458 9.61517 17.4231 9.61556 17.7346 9.61556C20.2266 9.61556 20.522 9.6245 21.5061 9.66922C22.4161 9.71083 22.91 9.86289 23.239 9.99064C23.6746 10.1598 23.9851 10.362 24.3116 10.6887C24.6382 11.0154 24.8405 11.3265 25.01 11.762C25.1378 12.0907 25.29 12.5846 25.3314 13.4946C25.3762 14.4785 25.3859 14.774 25.3859 17.2649C25.3859 19.7557 25.3762 20.0513 25.3314 21.0352C25.2898 21.9452 25.1378 22.4391 25.01 22.7677C24.8408 23.2033 24.6382 23.5134 24.3116 23.8399C23.9849 24.1666 23.6747 24.3688 23.239 24.538C22.9104 24.6663 22.4161 24.818 21.5061 24.8596C20.5222 24.9043 20.2266 24.914 17.7346 24.914C15.2424 24.914 14.947 24.9043 13.9631 24.8596C13.0531 24.8176 12.5592 24.6655 12.23 24.5378C11.7945 24.3686 11.4833 24.1664 11.1567 23.8397C10.83 23.513 10.6278 23.2027 10.4582 22.7669C10.3305 22.4383 10.1782 21.9444 10.1368 21.0344C10.0921 20.0505 10.0831 19.755 10.0831 17.2626C10.0831 14.7701 10.0921 14.4761 10.1368 13.4922C10.1784 12.5822 10.3305 12.0883 10.4582 11.7593C10.6274 11.3238 10.83 11.0127 11.1567 10.686C11.4833 10.3593 11.7945 10.1571 12.23 9.98753C12.559 9.8592 13.0531 9.70753 13.9631 9.66572C14.8241 9.62683 15.1578 9.61517 16.8973 9.61322V9.61556ZM22.7167 11.1653C22.0984 11.1653 21.5967 11.6664 21.5967 12.2849C21.5967 12.9033 22.0984 13.4049 22.7167 13.4049C23.335 13.4049 23.8367 12.9033 23.8367 12.2849C23.8367 11.6666 23.335 11.1649 22.7167 11.1649V11.1653ZM17.7346 12.4739C15.0876 12.4739 12.9415 14.62 12.9415 17.267C12.9415 19.914 15.0876 22.0592 17.7346 22.0592C20.3816 22.0592 22.5269 19.914 22.5269 17.267C22.5269 14.62 20.3816 12.4739 17.7346 12.4739ZM17.7346 14.1559C19.4527 14.1559 20.8457 15.5487 20.8457 17.267C20.8457 18.9852 19.4527 20.3782 17.7346 20.3782C16.0163 20.3782 14.6235 18.9852 14.6235 17.267C14.6235 15.5487 16.0163 14.1559 17.7346 14.1559Z" fill="white"/>
<defs>
<radialGradient id="paint0_radial_866_76398" cx="0" cy="0" r="1" gradientUnits="userSpaceOnUse" gradientTransform="translate(9.29692 37.6957) rotate(-90) scale(34.6876 32.2622)">
<stop stop-color="#FFDD55"/>
<stop offset="0.1" stop-color="#FFDD55"/>
<stop offset="0.5" stop-color="#FF543E"/>
<stop offset="1" stop-color="#C837AB"/>
</radialGradient>
<radialGradient id="paint1_radial_866_76398" cx="0" cy="0" r="1" gradientUnits="userSpaceOnUse" gradientTransform="translate(9.29692 37.6957) rotate(-90) scale(34.6876 32.2622)">
<stop stop-color="#FFDD55"/>
<stop offset="0.1" stop-color="#FFDD55"/>
<stop offset="0.5" stop-color="#FF543E"/>
<stop offset="1" stop-color="#C837AB"/>
</radialGradient>
<radialGradient id="paint2_radial_866_76398" cx="0" cy="0" r="1" gradientUnits="userSpaceOnUse" gradientTransform="translate(-5.86269 2.52065) rotate(78.6776) scale(15.5014 63.9136)">
<stop stop-color="#3771C8"/>
<stop offset="0.128" stop-color="#3771C8"/>
<stop offset="1" stop-color="#6600FF" stop-opacity="0"/>
</radialGradient>
</defs>
</svg>
