<svg width="35" height="35" viewBox="0 0 35 35" fill="none" xmlns="http://www.w3.org/2000/svg">
<rect width="35" height="35" rx="17.5" fill="#DD472E"/>
<path d="M26.6732 13.2401C26.567 12.8455 26.359 12.4857 26.0701 12.1967C25.7811 11.9077 25.4213 11.6997 25.0267 11.5935C23.5734 11.2002 17.7337 11.2002 17.7337 11.2002C17.7337 11.2002 11.894 11.2002 10.4408 11.5935C10.0462 11.6997 9.68636 11.9077 9.3974 12.1967C9.10843 12.4857 8.90042 12.8455 8.7942 13.2401C8.52285 14.7222 8.39117 16.2265 8.40089 17.7332C8.39117 19.2399 8.52285 20.7442 8.7942 22.2263C8.90042 22.6209 9.10843 22.9807 9.3974 23.2697C9.68636 23.5586 10.0462 23.7666 10.4408 23.8728C11.894 24.2662 17.7337 24.2662 17.7337 24.2662C17.7337 24.2662 23.5734 24.2662 25.0267 23.8728C25.4213 23.7666 25.7811 23.5586 26.0701 23.2697C26.359 22.9807 26.567 22.6209 26.6732 22.2263C26.9446 20.7442 27.0763 19.2399 27.0666 17.7332C27.0763 16.2265 26.9446 14.7222 26.6732 13.2401ZM15.8672 20.533V14.9333L20.7136 17.7332L15.8672 20.533Z" fill="white"/>
</svg>
