<svg width="109" height="152" viewBox="0 0 109 152" fill="none" xmlns="http://www.w3.org/2000/svg">
<rect x="0.422183" y="0.422183" width="108.156" height="151.156" rx="3.79965" stroke="#287BD5" stroke-width="0.844366"/>
<rect x="4.61719" y="43.9072" width="101.324" height="101.324" rx="4.22183" fill="white"/>
<path d="M44.303 53.1948C45.2357 53.1948 45.9917 53.9509 45.9917 54.8836C45.9917 55.8163 45.2357 56.5723 44.303 56.5723C43.3703 56.5723 42.6143 55.8163 42.6143 54.8836C42.6143 53.9509 43.3703 53.1948 44.303 53.1948Z" fill="#287BD5"/>
<path d="M51.0589 53.1948C51.9916 53.1948 52.7476 53.9509 52.7476 54.8836C52.7476 55.8163 51.9916 56.5723 51.0589 56.5723C50.1262 56.5723 49.3701 55.8163 49.3701 54.8836C49.3701 53.9509 50.1262 53.1948 51.0589 53.1948Z" fill="#287BD5"/>
<path d="M67.9465 53.1948C68.8792 53.1948 69.6353 53.9509 69.6353 54.8836C69.6353 55.8163 68.8792 56.5723 67.9465 56.5723C67.0139 56.5723 66.2578 55.8163 66.2578 54.8836C66.2578 53.9509 67.0139 53.1948 67.9465 53.1948Z" fill="#287BD5"/>
<path d="M44.303 56.5723C45.2357 56.5723 45.9917 57.3283 45.9917 58.261C45.9917 59.1937 45.2357 59.9497 44.303 59.9497C43.3703 59.9497 42.6143 59.1937 42.6143 58.261C42.6143 57.3283 43.3703 56.5723 44.303 56.5723Z" fill="#287BD5"/>
<path d="M51.0589 56.5723C51.9916 56.5723 52.7476 57.3283 52.7476 58.261C52.7476 59.1937 51.9916 59.9497 51.0589 59.9497C50.1262 59.9497 49.3701 59.1937 49.3701 58.261C49.3701 57.3283 50.1262 56.5723 51.0589 56.5723Z" fill="#287BD5"/>
<path d="M64.5676 56.5723C65.5003 56.5723 66.2564 57.3283 66.2564 58.261C66.2564 59.1937 65.5003 59.9497 64.5676 59.9497C63.635 59.9497 62.8789 59.1937 62.8789 58.261C62.8789 57.3283 63.635 56.5723 64.5676 56.5723Z" fill="#287BD5"/>
<path d="M40.9251 59.9502C41.8578 59.9502 42.6138 60.7063 42.6138 61.6389C42.6138 62.5716 41.8578 63.3277 40.9251 63.3277C39.9924 63.3277 39.2363 62.5716 39.2363 61.6389C39.2363 60.7063 39.9924 59.9502 40.9251 59.9502Z" fill="#287BD5"/>
<path d="M47.679 59.9502C48.6117 59.9502 49.3677 60.7063 49.3677 61.6389C49.3677 62.5716 48.6117 63.3277 47.679 63.3277C46.7463 63.3277 45.9902 62.5716 45.9902 61.6389C45.9902 60.7063 46.7463 59.9502 47.679 59.9502Z" fill="#287BD5"/>
<path d="M61.1887 59.9502C62.1214 59.9502 62.8775 60.7063 62.8775 61.6389C62.8775 62.5716 62.1214 63.3277 61.1887 63.3277C60.2561 63.3277 59.5 62.5716 59.5 61.6389C59.5 60.7063 60.2561 59.9502 61.1887 59.9502Z" fill="#287BD5"/>
<path d="M67.9465 59.9502C68.8792 59.9502 69.6353 60.7063 69.6353 61.6389C69.6353 62.5716 68.8792 63.3277 67.9465 63.3277C67.0139 63.3277 66.2578 62.5716 66.2578 61.6389C66.2578 60.7063 67.0139 59.9502 67.9465 59.9502Z" fill="#287BD5"/>
<path d="M40.9251 63.3271C41.8578 63.3271 42.6138 64.0832 42.6138 65.0159C42.6138 65.9486 41.8578 66.7046 40.9251 66.7046C39.9924 66.7046 39.2363 65.9486 39.2363 65.0159C39.2363 64.0832 39.9924 63.3271 40.9251 63.3271Z" fill="#287BD5"/>
<path d="M44.303 63.3271C45.2357 63.3271 45.9917 64.0832 45.9917 65.0159C45.9917 65.9486 45.2357 66.7046 44.303 66.7046C43.3703 66.7046 42.6143 65.9486 42.6143 65.0159C42.6143 64.0832 43.3703 63.3271 44.303 63.3271Z" fill="#287BD5"/>
<path d="M47.679 63.3271C48.6117 63.3271 49.3677 64.0832 49.3677 65.0159C49.3677 65.9486 48.6117 66.7046 47.679 66.7046C46.7463 66.7046 45.9902 65.9486 45.9902 65.0159C45.9902 64.0832 46.7463 63.3271 47.679 63.3271Z" fill="#287BD5"/>
<path d="M57.8128 63.3271C58.7455 63.3271 59.5015 64.0832 59.5015 65.0159C59.5015 65.9486 58.7455 66.7046 57.8128 66.7046C56.8801 66.7046 56.124 65.9486 56.124 65.0159C56.124 64.0832 56.8801 63.3271 57.8128 63.3271Z" fill="#287BD5"/>
<path d="M61.1887 63.3271C62.1214 63.3271 62.8775 64.0832 62.8775 65.0159C62.8775 65.9486 62.1214 66.7046 61.1887 66.7046C60.2561 66.7046 59.5 65.9486 59.5 65.0159C59.5 64.0832 60.2561 63.3271 61.1887 63.3271Z" fill="#287BD5"/>
<path d="M40.9251 66.7046C41.8578 66.7046 42.6138 67.4607 42.6138 68.3933C42.6138 69.326 41.8578 70.0821 40.9251 70.0821C39.9924 70.0821 39.2363 69.326 39.2363 68.3933C39.2363 67.4607 39.9924 66.7046 40.9251 66.7046Z" fill="#287BD5"/>
<path d="M54.4348 66.7046C55.3675 66.7046 56.1236 67.4607 56.1236 68.3933C56.1236 69.326 55.3675 70.0821 54.4348 70.0821C53.5022 70.0821 52.7461 69.326 52.7461 68.3933C52.7461 67.4607 53.5022 66.7046 54.4348 66.7046Z" fill="#287BD5"/>
<path d="M61.1887 66.7046C62.1214 66.7046 62.8775 67.4607 62.8775 68.3933C62.8775 69.326 62.1214 70.0821 61.1887 70.0821C60.2561 70.0821 59.5 69.326 59.5 68.3933C59.5 67.4607 60.2561 66.7046 61.1887 66.7046Z" fill="#287BD5"/>
<path d="M40.9251 70.082C41.8578 70.082 42.6138 70.8381 42.6138 71.7708C42.6138 72.7035 41.8578 73.4595 40.9251 73.4595C39.9924 73.4595 39.2363 72.7035 39.2363 71.7708C39.2363 70.8381 39.9924 70.082 40.9251 70.082Z" fill="#287BD5"/>
<path d="M44.303 70.082C45.2357 70.082 45.9917 70.8381 45.9917 71.7708C45.9917 72.7035 45.2357 73.4595 44.303 73.4595C43.3703 73.4595 42.6143 72.7035 42.6143 71.7708C42.6143 70.8381 43.3703 70.082 44.303 70.082Z" fill="#287BD5"/>
<path d="M47.679 70.082C48.6117 70.082 49.3677 70.8381 49.3677 71.7708C49.3677 72.7035 48.6117 73.4595 47.679 73.4595C46.7463 73.4595 45.9902 72.7035 45.9902 71.7708C45.9902 70.8381 46.7463 70.082 47.679 70.082Z" fill="#287BD5"/>
<path d="M61.1887 70.082C62.1214 70.082 62.8775 70.8381 62.8775 71.7708C62.8775 72.7035 62.1214 73.4595 61.1887 73.4595C60.2561 73.4595 59.5 72.7035 59.5 71.7708C59.5 70.8381 60.2561 70.082 61.1887 70.082Z" fill="#287BD5"/>
<path d="M64.5676 70.082C65.5003 70.082 66.2564 70.8381 66.2564 71.7708C66.2564 72.7035 65.5003 73.4595 64.5676 73.4595C63.635 73.4595 62.8789 72.7035 62.8789 71.7708C62.8789 70.8381 63.635 70.082 64.5676 70.082Z" fill="#287BD5"/>
<path d="M67.9465 70.082C68.8792 70.082 69.6353 70.8381 69.6353 71.7708C69.6353 72.7035 68.8792 73.4595 67.9465 73.4595C67.0139 73.4595 66.2578 72.7035 66.2578 71.7708C66.2578 70.8381 67.0139 70.082 67.9465 70.082Z" fill="#287BD5"/>
<path d="M40.9251 73.46C41.8578 73.46 42.6138 74.216 42.6138 75.1487C42.6138 76.0814 41.8578 76.8374 40.9251 76.8374C39.9924 76.8374 39.2363 76.0814 39.2363 75.1487C39.2363 74.216 39.9924 73.46 40.9251 73.46Z" fill="#287BD5"/>
<path d="M47.679 73.4595C48.6117 73.4595 49.3677 74.2156 49.3677 75.1482C49.3677 76.0809 48.6117 76.8369 47.679 76.8369C46.7463 76.8369 45.9902 76.0809 45.9902 75.1482C45.9902 74.2156 46.7463 73.4595 47.679 73.4595Z" fill="#287BD5"/>
<path d="M54.4348 73.46C55.3675 73.46 56.1236 74.216 56.1236 75.1487C56.1236 76.0814 55.3675 76.8374 54.4348 76.8374C53.5022 76.8374 52.7461 76.0814 52.7461 75.1487C52.7461 74.216 53.5022 73.46 54.4348 73.46Z" fill="#287BD5"/>
<path d="M61.1887 73.4595C62.1214 73.4595 62.8775 74.2156 62.8775 75.1482C62.8775 76.0809 62.1214 76.8369 61.1887 76.8369C60.2561 76.8369 59.5 76.0809 59.5 75.1482C59.5 74.2156 60.2561 73.4595 61.1887 73.4595Z" fill="#287BD5"/>
<path d="M67.9465 73.4595C68.8792 73.4595 69.6353 74.2156 69.6353 75.1482C69.6353 76.0809 68.8792 76.8369 67.9465 76.8369C67.0139 76.8369 66.2578 76.0809 66.2578 75.1482C66.2578 74.2156 67.0139 73.4595 67.9465 73.4595Z" fill="#287BD5"/>
<path d="M40.9251 76.8374C41.8578 76.8374 42.6138 77.5935 42.6138 78.5261C42.6138 79.4588 41.8578 80.2149 40.9251 80.2149C39.9924 80.2149 39.2363 79.4588 39.2363 78.5261C39.2363 77.5935 39.9924 76.8374 40.9251 76.8374Z" fill="#287BD5"/>
<path d="M47.679 76.8374C48.6117 76.8374 49.3677 77.5935 49.3677 78.5261C49.3677 79.4588 48.6117 80.2149 47.679 80.2149C46.7463 80.2149 45.9902 79.4588 45.9902 78.5261C45.9902 77.5935 46.7463 76.8374 47.679 76.8374Z" fill="#287BD5"/>
<path d="M54.4348 76.8374C55.3675 76.8374 56.1236 77.5935 56.1236 78.5261C56.1236 79.4588 55.3675 80.2149 54.4348 80.2149C53.5022 80.2149 52.7461 79.4588 52.7461 78.5261C52.7461 77.5935 53.5022 76.8374 54.4348 76.8374Z" fill="#287BD5"/>
<path d="M61.1887 76.8374C62.1214 76.8374 62.8775 77.5935 62.8775 78.5261C62.8775 79.4588 62.1214 80.2149 61.1887 80.2149C60.2561 80.2149 59.5 79.4588 59.5 78.5261C59.5 77.5935 60.2561 76.8374 61.1887 76.8374Z" fill="#287BD5"/>
<path d="M64.5676 76.8374C65.5003 76.8374 66.2564 77.5935 66.2564 78.5261C66.2564 79.4588 65.5003 80.2149 64.5676 80.2149C63.635 80.2149 62.8789 79.4588 62.8789 78.5261C62.8789 77.5935 63.635 76.8374 64.5676 76.8374Z" fill="#287BD5"/>
<path d="M67.9465 76.8374C68.8792 76.8374 69.6353 77.5935 69.6353 78.5261C69.6353 79.4588 68.8792 80.2149 67.9465 80.2149C67.0139 80.2149 66.2578 79.4588 66.2578 78.5261C66.2578 77.5935 67.0139 76.8374 67.9465 76.8374Z" fill="#287BD5"/>
<path d="M13.9065 80.2144C14.8392 80.2144 15.5952 80.9704 15.5952 81.9031C15.5952 82.8358 14.8392 83.5918 13.9065 83.5918C12.9739 83.5918 12.2178 82.8358 12.2178 81.9031C12.2178 80.9704 12.9739 80.2144 13.9065 80.2144Z" fill="#287BD5"/>
<path d="M20.6604 80.2148C21.5931 80.2148 22.3491 80.9709 22.3491 81.9036C22.3491 82.8363 21.5931 83.5923 20.6604 83.5923C19.7278 83.5923 18.9717 82.8363 18.9717 81.9036C18.9717 80.9709 19.7278 80.2148 20.6604 80.2148Z" fill="#287BD5"/>
<path d="M24.0374 80.2144C24.9701 80.2144 25.7261 80.9704 25.7261 81.9031C25.7261 82.8358 24.9701 83.5918 24.0374 83.5918C23.1047 83.5918 22.3486 82.8358 22.3486 81.9031C22.3486 80.9704 23.1047 80.2144 24.0374 80.2144Z" fill="#287BD5"/>
<path d="M27.4153 80.2144C28.348 80.2144 29.104 80.9704 29.104 81.9031C29.104 82.8358 28.348 83.5918 27.4153 83.5918C26.4826 83.5918 25.7266 82.8358 25.7266 81.9031C25.7266 80.9704 26.4826 80.2144 27.4153 80.2144Z" fill="#287BD5"/>
<path d="M30.7932 80.2144C31.7259 80.2144 32.482 80.9704 32.482 81.9031C32.482 82.8358 31.7259 83.5918 30.7932 83.5918C29.8606 83.5918 29.1045 82.8358 29.1045 81.9031C29.1045 80.9704 29.8606 80.2144 30.7932 80.2144Z" fill="#287BD5"/>
<path d="M34.1692 80.2144C35.1019 80.2144 35.8579 80.9704 35.8579 81.9031C35.8579 82.8358 35.1019 83.5918 34.1692 83.5918C33.2365 83.5918 32.4805 82.8358 32.4805 81.9031C32.4805 80.9704 33.2365 80.2144 34.1692 80.2144Z" fill="#287BD5"/>
<path d="M54.4348 80.2144C55.3675 80.2144 56.1236 80.9704 56.1236 81.9031C56.1236 82.8358 55.3675 83.5918 54.4348 83.5918C53.5022 83.5918 52.7461 82.8358 52.7461 81.9031C52.7461 80.9704 53.5022 80.2144 54.4348 80.2144Z" fill="#287BD5"/>
<path d="M74.7005 80.2148C75.6332 80.2148 76.3892 80.9709 76.3892 81.9036C76.3892 82.8363 75.6332 83.5923 74.7005 83.5923C73.7678 83.5923 73.0117 82.8363 73.0117 81.9036C73.0117 80.9709 73.7678 80.2148 74.7005 80.2148Z" fill="#287BD5"/>
<path d="M78.0755 80.2139C79.0082 80.2139 79.7642 80.9699 79.7642 81.9026C79.7642 82.8353 79.0082 83.5913 78.0755 83.5913C77.1428 83.5913 76.3867 82.8353 76.3867 81.9026C76.3867 80.9699 77.1428 80.2139 78.0755 80.2139Z" fill="#287BD5"/>
<path d="M81.4544 80.2148C82.3871 80.2148 83.1431 80.9709 83.1431 81.9036C83.1431 82.8363 82.3871 83.5923 81.4544 83.5923C80.5217 83.5923 79.7656 82.8363 79.7656 81.9036C79.7656 80.9709 80.5217 80.2148 81.4544 80.2148Z" fill="#287BD5"/>
<path d="M84.8323 80.2144C85.765 80.2144 86.521 80.9704 86.521 81.9031C86.521 82.8358 85.765 83.5918 84.8323 83.5918C83.8996 83.5918 83.1436 82.8358 83.1436 81.9031C83.1436 80.9704 83.8996 80.2144 84.8323 80.2144Z" fill="#287BD5"/>
<path d="M88.2102 80.2144C89.1429 80.2144 89.899 80.9704 89.899 81.9031C89.899 82.8358 89.1429 83.5918 88.2102 83.5918C87.2776 83.5918 86.5215 82.8358 86.5215 81.9031C86.5215 80.9704 87.2776 80.2144 88.2102 80.2144Z" fill="#287BD5"/>
<path d="M13.9065 83.5918C14.8392 83.5918 15.5952 84.3479 15.5952 85.2805C15.5952 86.2132 14.8392 86.9693 13.9065 86.9693C12.9739 86.9693 12.2178 86.2132 12.2178 85.2805C12.2178 84.3479 12.9739 83.5918 13.9065 83.5918Z" fill="#287BD5"/>
<path d="M24.0374 83.5918C24.9701 83.5918 25.7261 84.3479 25.7261 85.2805C25.7261 86.2132 24.9701 86.9693 24.0374 86.9693C23.1047 86.9693 22.3486 86.2132 22.3486 85.2805C22.3486 84.3479 23.1047 83.5918 24.0374 83.5918Z" fill="#287BD5"/>
<path d="M40.9251 83.5918C41.8578 83.5918 42.6138 84.3479 42.6138 85.2805C42.6138 86.2132 41.8578 86.9693 40.9251 86.9693C39.9924 86.9693 39.2363 86.2132 39.2363 85.2805C39.2363 84.3479 39.9924 83.5918 40.9251 83.5918Z" fill="#287BD5"/>
<path d="M44.303 83.5923C45.2357 83.5923 45.9917 84.3484 45.9917 85.281C45.9917 86.2137 45.2357 86.9698 44.303 86.9698C43.3703 86.9698 42.6143 86.2137 42.6143 85.281C42.6143 84.3484 43.3703 83.5923 44.303 83.5923Z" fill="#287BD5"/>
<path d="M47.679 83.5918C48.6117 83.5918 49.3677 84.3479 49.3677 85.2805C49.3677 86.2132 48.6117 86.9693 47.679 86.9693C46.7463 86.9693 45.9902 86.2132 45.9902 85.2805C45.9902 84.3479 46.7463 83.5918 47.679 83.5918Z" fill="#287BD5"/>
<path d="M57.8128 83.5918C58.7455 83.5918 59.5015 84.3479 59.5015 85.2805C59.5015 86.2132 58.7455 86.9693 57.8128 86.9693C56.8801 86.9693 56.124 86.2132 56.124 85.2805C56.124 84.3479 56.8801 83.5918 57.8128 83.5918Z" fill="#287BD5"/>
<path d="M67.9465 83.5923C68.8792 83.5923 69.6353 84.3484 69.6353 85.281C69.6353 86.2137 68.8792 86.9698 67.9465 86.9698C67.0139 86.9698 66.2578 86.2137 66.2578 85.281C66.2578 84.3484 67.0139 83.5923 67.9465 83.5923Z" fill="#287BD5"/>
<path d="M78.0755 83.5923C79.0082 83.5923 79.7642 84.3484 79.7642 85.281C79.7642 86.2137 79.0082 86.9698 78.0755 86.9698C77.1428 86.9698 76.3867 86.2137 76.3867 85.281C76.3867 84.3484 77.1428 83.5923 78.0755 83.5923Z" fill="#287BD5"/>
<path d="M91.5881 83.5918C92.5208 83.5918 93.2769 84.3479 93.2769 85.2805C93.2769 86.2132 92.5208 86.9693 91.5881 86.9693C90.6555 86.9693 89.8994 86.2132 89.8994 85.2805C89.8994 84.3479 90.6555 83.5918 91.5881 83.5918Z" fill="#287BD5"/>
<path d="M13.9065 86.9692C14.8392 86.9692 15.5952 87.7253 15.5952 88.658C15.5952 89.5907 14.8392 90.3467 13.9065 90.3467C12.9739 90.3467 12.2178 89.5907 12.2178 88.658C12.2178 87.7253 12.9739 86.9692 13.9065 86.9692Z" fill="#287BD5"/>
<path d="M24.0374 86.9692C24.9701 86.9692 25.7261 87.7253 25.7261 88.658C25.7261 89.5907 24.9701 90.3467 24.0374 90.3467C23.1047 90.3467 22.3486 89.5907 22.3486 88.658C22.3486 87.7253 23.1047 86.9692 24.0374 86.9692Z" fill="#287BD5"/>
<path d="M27.4153 86.9692C28.348 86.9692 29.104 87.7253 29.104 88.658C29.104 89.5907 28.348 90.3467 27.4153 90.3467C26.4826 90.3467 25.7266 89.5907 25.7266 88.658C25.7266 87.7253 26.4826 86.9692 27.4153 86.9692Z" fill="#287BD5"/>
<path d="M34.1692 86.9692C35.1019 86.9692 35.8579 87.7253 35.8579 88.658C35.8579 89.5907 35.1019 90.3467 34.1692 90.3467C33.2365 90.3467 32.4805 89.5907 32.4805 88.658C32.4805 87.7253 33.2365 86.9692 34.1692 86.9692Z" fill="#287BD5"/>
<path d="M37.5462 86.9692C38.4789 86.9692 39.2349 87.7253 39.2349 88.658C39.2349 89.5907 38.4789 90.3467 37.5462 90.3467C36.6135 90.3467 35.8574 89.5907 35.8574 88.658C35.8574 87.7253 36.6135 86.9692 37.5462 86.9692Z" fill="#287BD5"/>
<path d="M40.9251 86.9692C41.8578 86.9692 42.6138 87.7253 42.6138 88.658C42.6138 89.5907 41.8578 90.3467 40.9251 90.3467C39.9924 90.3467 39.2363 89.5907 39.2363 88.658C39.2363 87.7253 39.9924 86.9692 40.9251 86.9692Z" fill="#287BD5"/>
<path d="M51.0589 86.9692C51.9916 86.9692 52.7476 87.7253 52.7476 88.658C52.7476 89.5907 51.9916 90.3467 51.0589 90.3467C50.1262 90.3467 49.3701 89.5907 49.3701 88.658C49.3701 87.7253 50.1262 86.9692 51.0589 86.9692Z" fill="#287BD5"/>
<path d="M57.8128 86.9697C58.7455 86.9697 59.5015 87.7258 59.5015 88.6585C59.5015 89.5912 58.7455 90.3472 57.8128 90.3472C56.8801 90.3472 56.124 89.5912 56.124 88.6585C56.124 87.7258 56.8801 86.9697 57.8128 86.9697Z" fill="#287BD5"/>
<path d="M61.1887 86.9692C62.1214 86.9692 62.8775 87.7253 62.8775 88.658C62.8775 89.5907 62.1214 90.3467 61.1887 90.3467C60.2561 90.3467 59.5 89.5907 59.5 88.658C59.5 87.7253 60.2561 86.9692 61.1887 86.9692Z" fill="#287BD5"/>
<path d="M64.5676 86.9692C65.5003 86.9692 66.2564 87.7253 66.2564 88.658C66.2564 89.5907 65.5003 90.3467 64.5676 90.3467C63.635 90.3467 62.8789 89.5907 62.8789 88.658C62.8789 87.7253 63.635 86.9692 64.5676 86.9692Z" fill="#287BD5"/>
<path d="M67.9465 86.9697C68.8792 86.9697 69.6353 87.7258 69.6353 88.6585C69.6353 89.5912 68.8792 90.3472 67.9465 90.3472C67.0139 90.3472 66.2578 89.5912 66.2578 88.6585C66.2578 87.7258 67.0139 86.9697 67.9465 86.9697Z" fill="#287BD5"/>
<path d="M74.7005 86.9692C75.6332 86.9692 76.3892 87.7253 76.3892 88.658C76.3892 89.5907 75.6332 90.3467 74.7005 90.3467C73.7678 90.3467 73.0117 89.5907 73.0117 88.658C73.0117 87.7253 73.7678 86.9692 74.7005 86.9692Z" fill="#287BD5"/>
<path d="M78.0755 86.9692C79.0082 86.9692 79.7642 87.7253 79.7642 88.658C79.7642 89.5907 79.0082 90.3467 78.0755 90.3467C77.1428 90.3467 76.3867 89.5907 76.3867 88.658C76.3867 87.7253 77.1428 86.9692 78.0755 86.9692Z" fill="#287BD5"/>
<path d="M84.8323 86.9692C85.765 86.9692 86.521 87.7253 86.521 88.658C86.521 89.5907 85.765 90.3467 84.8323 90.3467C83.8996 90.3467 83.1436 89.5907 83.1436 88.658C83.1436 87.7253 83.8996 86.9692 84.8323 86.9692Z" fill="#287BD5"/>
<path d="M91.5881 86.9697C92.5208 86.9697 93.2769 87.7258 93.2769 88.6585C93.2769 89.5912 92.5208 90.3472 91.5881 90.3472C90.6555 90.3472 89.8994 89.5912 89.8994 88.6585C89.8994 87.7258 90.6555 86.9697 91.5881 86.9697Z" fill="#287BD5"/>
<path d="M94.9641 86.9692C95.8968 86.9692 96.6529 87.7253 96.6529 88.658C96.6529 89.5907 95.8968 90.3467 94.9641 90.3467C94.0315 90.3467 93.2754 89.5907 93.2754 88.658C93.2754 87.7253 94.0315 86.9692 94.9641 86.9692Z" fill="#287BD5"/>
<path d="M13.9065 90.3472C14.8392 90.3472 15.5952 91.1032 15.5952 92.0359C15.5952 92.9686 14.8392 93.7246 13.9065 93.7246C12.9739 93.7246 12.2178 92.9686 12.2178 92.0359C12.2178 91.1032 12.9739 90.3472 13.9065 90.3472Z" fill="#287BD5"/>
<path d="M20.6604 90.3472C21.5931 90.3472 22.3491 91.1032 22.3491 92.0359C22.3491 92.9686 21.5931 93.7246 20.6604 93.7246C19.7278 93.7246 18.9717 92.9686 18.9717 92.0359C18.9717 91.1032 19.7278 90.3472 20.6604 90.3472Z" fill="#287BD5"/>
<path d="M40.9251 90.3472C41.8578 90.3472 42.6138 91.1032 42.6138 92.0359C42.6138 92.9686 41.8578 93.7246 40.9251 93.7246C39.9924 93.7246 39.2363 92.9686 39.2363 92.0359C39.2363 91.1032 39.9924 90.3472 40.9251 90.3472Z" fill="#287BD5"/>
<path d="M44.303 90.3472C45.2357 90.3472 45.9917 91.1032 45.9917 92.0359C45.9917 92.9686 45.2357 93.7246 44.303 93.7246C43.3703 93.7246 42.6143 92.9686 42.6143 92.0359C42.6143 91.1032 43.3703 90.3472 44.303 90.3472Z" fill="#287BD5"/>
<path d="M47.679 90.3472C48.6117 90.3472 49.3677 91.1032 49.3677 92.0359C49.3677 92.9686 48.6117 93.7246 47.679 93.7246C46.7463 93.7246 45.9902 92.9686 45.9902 92.0359C45.9902 91.1032 46.7463 90.3472 47.679 90.3472Z" fill="#287BD5"/>
<path d="M51.0589 90.3472C51.9916 90.3472 52.7476 91.1032 52.7476 92.0359C52.7476 92.9686 51.9916 93.7246 51.0589 93.7246C50.1262 93.7246 49.3701 92.9686 49.3701 92.0359C49.3701 91.1032 50.1262 90.3472 51.0589 90.3472Z" fill="#287BD5"/>
<path d="M57.8128 90.3472C58.7455 90.3472 59.5015 91.1032 59.5015 92.0359C59.5015 92.9686 58.7455 93.7246 57.8128 93.7246C56.8801 93.7246 56.124 92.9686 56.124 92.0359C56.124 91.1032 56.8801 90.3472 57.8128 90.3472Z" fill="#287BD5"/>
<path d="M67.9465 90.3472C68.8792 90.3472 69.6353 91.1032 69.6353 92.0359C69.6353 92.9686 68.8792 93.7246 67.9465 93.7246C67.0139 93.7246 66.2578 92.9686 66.2578 92.0359C66.2578 91.1032 67.0139 90.3472 67.9465 90.3472Z" fill="#287BD5"/>
<path d="M94.9641 90.3472C95.8968 90.3472 96.6529 91.1032 96.6529 92.0359C96.6529 92.9686 95.8968 93.7246 94.9641 93.7246C94.0315 93.7246 93.2754 92.9686 93.2754 92.0359C93.2754 91.1032 94.0315 90.3472 94.9641 90.3472Z" fill="#287BD5"/>
<path d="M27.4153 93.7246C28.348 93.7246 29.104 94.4807 29.104 95.4133C29.104 96.346 28.348 97.1021 27.4153 97.1021C26.4826 97.1021 25.7266 96.346 25.7266 95.4133C25.7266 94.4807 26.4826 93.7246 27.4153 93.7246Z" fill="#287BD5"/>
<path d="M34.1692 93.7246C35.1019 93.7246 35.8579 94.4807 35.8579 95.4133C35.8579 96.346 35.1019 97.1021 34.1692 97.1021C33.2365 97.1021 32.4805 96.346 32.4805 95.4133C32.4805 94.4807 33.2365 93.7246 34.1692 93.7246Z" fill="#287BD5"/>
<path d="M44.303 93.7246C45.2357 93.7246 45.9917 94.4807 45.9917 95.4133C45.9917 96.346 45.2357 97.1021 44.303 97.1021C43.3703 97.1021 42.6143 96.346 42.6143 95.4133C42.6143 94.4807 43.3703 93.7246 44.303 93.7246Z" fill="#287BD5"/>
<path d="M54.4348 93.7246C55.3675 93.7246 56.1236 94.4807 56.1236 95.4133C56.1236 96.346 55.3675 97.1021 54.4348 97.1021C53.5022 97.1021 52.7461 96.346 52.7461 95.4133C52.7461 94.4807 53.5022 93.7246 54.4348 93.7246Z" fill="#287BD5"/>
<path d="M61.1887 93.7246C62.1214 93.7246 62.8775 94.4807 62.8775 95.4133C62.8775 96.346 62.1214 97.1021 61.1887 97.1021C60.2561 97.1021 59.5 96.346 59.5 95.4133C59.5 94.4807 60.2561 93.7246 61.1887 93.7246Z" fill="#287BD5"/>
<path d="M71.3215 93.7246C72.2542 93.7246 73.0103 94.4807 73.0103 95.4133C73.0103 96.346 72.2542 97.1021 71.3215 97.1021C70.3889 97.1021 69.6328 96.346 69.6328 95.4133C69.6328 94.4807 70.3889 93.7246 71.3215 93.7246Z" fill="#287BD5"/>
<path d="M74.7005 93.7246C75.6332 93.7246 76.3892 94.4807 76.3892 95.4133C76.3892 96.346 75.6332 97.1021 74.7005 97.1021C73.7678 97.1021 73.0117 96.346 73.0117 95.4133C73.0117 94.4807 73.7678 93.7246 74.7005 93.7246Z" fill="#287BD5"/>
<path d="M78.0755 93.7251C79.0082 93.7251 79.7642 94.4812 79.7642 95.4138C79.7642 96.3465 79.0082 97.1026 78.0755 97.1026C77.1428 97.1026 76.3867 96.3465 76.3867 95.4138C76.3867 94.4812 77.1428 93.7251 78.0755 93.7251Z" fill="#287BD5"/>
<path d="M81.4544 93.7246C82.3871 93.7246 83.1431 94.4807 83.1431 95.4133C83.1431 96.346 82.3871 97.1021 81.4544 97.1021C80.5217 97.1021 79.7656 96.346 79.7656 95.4133C79.7656 94.4807 80.5217 93.7246 81.4544 93.7246Z" fill="#287BD5"/>
<path d="M88.2102 93.7246C89.1429 93.7246 89.899 94.4807 89.899 95.4133C89.899 96.346 89.1429 97.1021 88.2102 97.1021C87.2776 97.1021 86.5215 96.346 86.5215 95.4133C86.5215 94.4807 87.2776 93.7246 88.2102 93.7246Z" fill="#287BD5"/>
<path d="M91.5881 93.7246C92.5208 93.7246 93.2769 94.4807 93.2769 95.4133C93.2769 96.346 92.5208 97.1021 91.5881 97.1021C90.6555 97.1021 89.8994 96.346 89.8994 95.4133C89.8994 94.4807 90.6555 93.7246 91.5881 93.7246Z" fill="#287BD5"/>
<path d="M94.9641 93.7251C95.8968 93.7251 96.6529 94.4812 96.6529 95.4138C96.6529 96.3465 95.8968 97.1026 94.9641 97.1026C94.0315 97.1026 93.2754 96.3465 93.2754 95.4138C93.2754 94.4812 94.0315 93.7251 94.9641 93.7251Z" fill="#287BD5"/>
<path d="M13.9065 97.1021C14.8392 97.1021 15.5952 97.8581 15.5952 98.7908C15.5952 99.7235 14.8392 100.48 13.9065 100.48C12.9739 100.48 12.2178 99.7235 12.2178 98.7908C12.2178 97.8581 12.9739 97.1021 13.9065 97.1021Z" fill="#287BD5"/>
<path d="M17.2825 97.1016C18.2152 97.1016 18.9712 97.8576 18.9712 98.7903C18.9712 99.723 18.2152 100.479 17.2825 100.479C16.3498 100.479 15.5938 99.723 15.5938 98.7903C15.5938 97.8576 16.3498 97.1016 17.2825 97.1016Z" fill="#287BD5"/>
<path d="M27.4153 97.1016C28.348 97.1016 29.104 97.8576 29.104 98.7903C29.104 99.723 28.348 100.479 27.4153 100.479C26.4826 100.479 25.7266 99.723 25.7266 98.7903C25.7266 97.8576 26.4826 97.1016 27.4153 97.1016Z" fill="#287BD5"/>
<path d="M30.7932 97.1021C31.7259 97.1021 32.482 97.8581 32.482 98.7908C32.482 99.7235 31.7259 100.48 30.7932 100.48C29.8606 100.48 29.1045 99.7235 29.1045 98.7908C29.1045 97.8581 29.8606 97.1021 30.7932 97.1021Z" fill="#287BD5"/>
<path d="M37.5462 97.1021C38.4789 97.1021 39.2349 97.8581 39.2349 98.7908C39.2349 99.7235 38.4789 100.48 37.5462 100.48C36.6135 100.48 35.8574 99.7235 35.8574 98.7908C35.8574 97.8581 36.6135 97.1021 37.5462 97.1021Z" fill="#287BD5"/>
<path d="M67.9465 97.1016C68.8792 97.1016 69.6353 97.8576 69.6353 98.7903C69.6353 99.723 68.8792 100.479 67.9465 100.479C67.0139 100.479 66.2578 99.723 66.2578 98.7903C66.2578 97.8576 67.0139 97.1016 67.9465 97.1016Z" fill="#287BD5"/>
<path d="M84.8323 97.1016C85.765 97.1016 86.521 97.8576 86.521 98.7903C86.521 99.723 85.765 100.479 84.8323 100.479C83.8996 100.479 83.1436 99.723 83.1436 98.7903C83.1436 97.8576 83.8996 97.1016 84.8323 97.1016Z" fill="#287BD5"/>
<path d="M91.5881 97.1021C92.5208 97.1021 93.2769 97.8581 93.2769 98.7908C93.2769 99.7235 92.5208 100.48 91.5881 100.48C90.6555 100.48 89.8994 99.7235 89.8994 98.7908C89.8994 97.8581 90.6555 97.1021 91.5881 97.1021Z" fill="#287BD5"/>
<path d="M13.9065 100.479C14.8392 100.479 15.5952 101.236 15.5952 102.168C15.5952 103.101 14.8392 103.857 13.9065 103.857C12.9739 103.857 12.2178 103.101 12.2178 102.168C12.2178 101.236 12.9739 100.479 13.9065 100.479Z" fill="#287BD5"/>
<path d="M24.0374 100.479C24.9701 100.479 25.7261 101.236 25.7261 102.168C25.7261 103.101 24.9701 103.857 24.0374 103.857C23.1047 103.857 22.3486 103.101 22.3486 102.168C22.3486 101.236 23.1047 100.479 24.0374 100.479Z" fill="#287BD5"/>
<path d="M30.7932 100.479C31.7259 100.479 32.482 101.236 32.482 102.168C32.482 103.101 31.7259 103.857 30.7932 103.857C29.8606 103.857 29.1045 103.101 29.1045 102.168C29.1045 101.236 29.8606 100.479 30.7932 100.479Z" fill="#287BD5"/>
<path d="M34.1692 100.479C35.1019 100.479 35.8579 101.236 35.8579 102.168C35.8579 103.101 35.1019 103.857 34.1692 103.857C33.2365 103.857 32.4805 103.101 32.4805 102.168C32.4805 101.236 33.2365 100.479 34.1692 100.479Z" fill="#287BD5"/>
<path d="M37.5462 100.479C38.4789 100.479 39.2349 101.236 39.2349 102.168C39.2349 103.101 38.4789 103.857 37.5462 103.857C36.6135 103.857 35.8574 103.101 35.8574 102.168C35.8574 101.236 36.6135 100.479 37.5462 100.479Z" fill="#287BD5"/>
<path d="M40.9251 100.479C41.8578 100.479 42.6138 101.236 42.6138 102.168C42.6138 103.101 41.8578 103.857 40.9251 103.857C39.9924 103.857 39.2363 103.101 39.2363 102.168C39.2363 101.236 39.9924 100.479 40.9251 100.479Z" fill="#287BD5"/>
<path d="M47.679 100.479C48.6117 100.479 49.3677 101.236 49.3677 102.168C49.3677 103.101 48.6117 103.857 47.679 103.857C46.7463 103.857 45.9902 103.101 45.9902 102.168C45.9902 101.236 46.7463 100.479 47.679 100.479Z" fill="#287BD5"/>
<path d="M51.0589 100.479C51.9916 100.479 52.7476 101.236 52.7476 102.168C52.7476 103.101 51.9916 103.857 51.0589 103.857C50.1262 103.857 49.3701 103.101 49.3701 102.168C49.3701 101.236 50.1262 100.479 51.0589 100.479Z" fill="#287BD5"/>
<path d="M54.4348 100.479C55.3675 100.479 56.1236 101.236 56.1236 102.168C56.1236 103.101 55.3675 103.857 54.4348 103.857C53.5022 103.857 52.7461 103.101 52.7461 102.168C52.7461 101.236 53.5022 100.479 54.4348 100.479Z" fill="#287BD5"/>
<path d="M64.5676 100.479C65.5003 100.479 66.2564 101.236 66.2564 102.168C66.2564 103.101 65.5003 103.857 64.5676 103.857C63.635 103.857 62.8789 103.101 62.8789 102.168C62.8789 101.236 63.635 100.479 64.5676 100.479Z" fill="#287BD5"/>
<path d="M67.9465 100.479C68.8792 100.479 69.6353 101.236 69.6353 102.168C69.6353 103.101 68.8792 103.857 67.9465 103.857C67.0139 103.857 66.2578 103.101 66.2578 102.168C66.2578 101.236 67.0139 100.479 67.9465 100.479Z" fill="#287BD5"/>
<path d="M71.3215 100.479C72.2542 100.479 73.0103 101.236 73.0103 102.168C73.0103 103.101 72.2542 103.857 71.3215 103.857C70.3889 103.857 69.6328 103.101 69.6328 102.168C69.6328 101.236 70.3889 100.479 71.3215 100.479Z" fill="#287BD5"/>
<path d="M78.0755 100.479C79.0082 100.479 79.7642 101.236 79.7642 102.168C79.7642 103.101 79.0082 103.857 78.0755 103.857C77.1428 103.857 76.3867 103.101 76.3867 102.168C76.3867 101.236 77.1428 100.479 78.0755 100.479Z" fill="#287BD5"/>
<path d="M84.8323 100.479C85.765 100.479 86.521 101.236 86.521 102.168C86.521 103.101 85.765 103.857 84.8323 103.857C83.8996 103.857 83.1436 103.101 83.1436 102.168C83.1436 101.236 83.8996 100.479 84.8323 100.479Z" fill="#287BD5"/>
<path d="M91.5881 100.479C92.5208 100.479 93.2769 101.236 93.2769 102.168C93.2769 103.101 92.5208 103.857 91.5881 103.857C90.6555 103.857 89.8994 103.101 89.8994 102.168C89.8994 101.236 90.6555 100.479 91.5881 100.479Z" fill="#287BD5"/>
<path d="M94.9641 100.479C95.8968 100.479 96.6529 101.236 96.6529 102.168C96.6529 103.101 95.8968 103.857 94.9641 103.857C94.0315 103.857 93.2754 103.101 93.2754 102.168C93.2754 101.236 94.0315 100.479 94.9641 100.479Z" fill="#287BD5"/>
<path d="M13.9065 103.857C14.8392 103.857 15.5952 104.613 15.5952 105.546C15.5952 106.478 14.8392 107.234 13.9065 107.234C12.9739 107.234 12.2178 106.478 12.2178 105.546C12.2178 104.613 12.9739 103.857 13.9065 103.857Z" fill="#287BD5"/>
<path d="M24.0374 103.857C24.9701 103.857 25.7261 104.613 25.7261 105.546C25.7261 106.478 24.9701 107.234 24.0374 107.234C23.1047 107.234 22.3486 106.478 22.3486 105.546C22.3486 104.613 23.1047 103.857 24.0374 103.857Z" fill="#287BD5"/>
<path d="M30.7932 103.857C31.7259 103.857 32.482 104.613 32.482 105.546C32.482 106.478 31.7259 107.234 30.7932 107.234C29.8606 107.234 29.1045 106.478 29.1045 105.546C29.1045 104.613 29.8606 103.857 30.7932 103.857Z" fill="#287BD5"/>
<path d="M44.303 103.857C45.2357 103.857 45.9917 104.613 45.9917 105.546C45.9917 106.478 45.2357 107.234 44.303 107.234C43.3703 107.234 42.6143 106.478 42.6143 105.546C42.6143 104.613 43.3703 103.857 44.303 103.857Z" fill="#287BD5"/>
<path d="M51.0589 103.857C51.9916 103.857 52.7476 104.613 52.7476 105.546C52.7476 106.478 51.9916 107.234 51.0589 107.234C50.1262 107.234 49.3701 106.478 49.3701 105.546C49.3701 104.613 50.1262 103.857 51.0589 103.857Z" fill="#287BD5"/>
<path d="M61.1887 103.857C62.1214 103.857 62.8775 104.613 62.8775 105.546C62.8775 106.478 62.1214 107.234 61.1887 107.234C60.2561 107.234 59.5 106.478 59.5 105.546C59.5 104.613 60.2561 103.857 61.1887 103.857Z" fill="#287BD5"/>
<path d="M71.3215 103.857C72.2542 103.857 73.0103 104.613 73.0103 105.546C73.0103 106.478 72.2542 107.234 71.3215 107.234C70.3889 107.234 69.6328 106.478 69.6328 105.546C69.6328 104.613 70.3889 103.857 71.3215 103.857Z" fill="#287BD5"/>
<path d="M84.8323 103.857C85.765 103.857 86.521 104.613 86.521 105.546C86.521 106.478 85.765 107.234 84.8323 107.234C83.8996 107.234 83.1436 106.478 83.1436 105.546C83.1436 104.613 83.8996 103.857 84.8323 103.857Z" fill="#287BD5"/>
<path d="M94.9641 103.857C95.8968 103.857 96.6529 104.613 96.6529 105.546C96.6529 106.478 95.8968 107.234 94.9641 107.234C94.0315 107.234 93.2754 106.478 93.2754 105.546C93.2754 104.613 94.0315 103.857 94.9641 103.857Z" fill="#287BD5"/>
<path d="M13.9065 107.234C14.8392 107.234 15.5952 107.99 15.5952 108.923C15.5952 109.856 14.8392 110.612 13.9065 110.612C12.9739 110.612 12.2178 109.856 12.2178 108.923C12.2178 107.99 12.9739 107.234 13.9065 107.234Z" fill="#287BD5"/>
<path d="M20.6604 107.234C21.5931 107.234 22.3491 107.99 22.3491 108.923C22.3491 109.856 21.5931 110.612 20.6604 110.612C19.7278 110.612 18.9717 109.856 18.9717 108.923C18.9717 107.99 19.7278 107.234 20.6604 107.234Z" fill="#287BD5"/>
<path d="M30.7932 107.234C31.7259 107.234 32.482 107.99 32.482 108.923C32.482 109.856 31.7259 110.612 30.7932 110.612C29.8606 110.612 29.1045 109.856 29.1045 108.923C29.1045 107.99 29.8606 107.234 30.7932 107.234Z" fill="#287BD5"/>
<path d="M34.1692 107.234C35.1019 107.234 35.8579 107.99 35.8579 108.923C35.8579 109.856 35.1019 110.612 34.1692 110.612C33.2365 110.612 32.4805 109.856 32.4805 108.923C32.4805 107.99 33.2365 107.234 34.1692 107.234Z" fill="#287BD5"/>
<path d="M40.9251 107.234C41.8578 107.234 42.6138 107.99 42.6138 108.923C42.6138 109.856 41.8578 110.612 40.9251 110.612C39.9924 110.612 39.2363 109.856 39.2363 108.923C39.2363 107.99 39.9924 107.234 40.9251 107.234Z" fill="#287BD5"/>
<path d="M51.0589 107.234C51.9916 107.234 52.7476 107.99 52.7476 108.923C52.7476 109.856 51.9916 110.612 51.0589 110.612C50.1262 110.612 49.3701 109.856 49.3701 108.923C49.3701 107.99 50.1262 107.234 51.0589 107.234Z" fill="#287BD5"/>
<path d="M64.5676 107.234C65.5003 107.234 66.2564 107.99 66.2564 108.923C66.2564 109.856 65.5003 110.612 64.5676 110.612C63.635 110.612 62.8789 109.856 62.8789 108.923C62.8789 107.99 63.635 107.234 64.5676 107.234Z" fill="#287BD5"/>
<path d="M67.9465 107.234C68.8792 107.234 69.6353 107.99 69.6353 108.923C69.6353 109.856 68.8792 110.612 67.9465 110.612C67.0139 110.612 66.2578 109.856 66.2578 108.923C66.2578 107.99 67.0139 107.234 67.9465 107.234Z" fill="#287BD5"/>
<path d="M71.3215 107.234C72.2542 107.234 73.0103 107.99 73.0103 108.923C73.0103 109.856 72.2542 110.612 71.3215 110.612C70.3889 110.612 69.6328 109.856 69.6328 108.923C69.6328 107.99 70.3889 107.234 71.3215 107.234Z" fill="#287BD5"/>
<path d="M74.7005 107.234C75.6332 107.234 76.3892 107.99 76.3892 108.923C76.3892 109.856 75.6332 110.612 74.7005 110.612C73.7678 110.612 73.0117 109.856 73.0117 108.923C73.0117 107.99 73.7678 107.234 74.7005 107.234Z" fill="#287BD5"/>
<path d="M78.0755 107.234C79.0082 107.234 79.7642 107.99 79.7642 108.923C79.7642 109.856 79.0082 110.612 78.0755 110.612C77.1428 110.612 76.3867 109.856 76.3867 108.923C76.3867 107.99 77.1428 107.234 78.0755 107.234Z" fill="#287BD5"/>
<path d="M81.4544 107.234C82.3871 107.234 83.1431 107.99 83.1431 108.923C83.1431 109.856 82.3871 110.612 81.4544 110.612C80.5217 110.612 79.7656 109.856 79.7656 108.923C79.7656 107.99 80.5217 107.234 81.4544 107.234Z" fill="#287BD5"/>
<path d="M88.2102 107.234C89.1429 107.234 89.899 107.99 89.899 108.923C89.899 109.856 89.1429 110.612 88.2102 110.612C87.2776 110.612 86.5215 109.856 86.5215 108.923C86.5215 107.99 87.2776 107.234 88.2102 107.234Z" fill="#287BD5"/>
<path d="M40.9251 110.612C41.8578 110.612 42.6138 111.368 42.6138 112.301C42.6138 113.233 41.8578 113.989 40.9251 113.989C39.9924 113.989 39.2363 113.233 39.2363 112.301C39.2363 111.368 39.9924 110.612 40.9251 110.612Z" fill="#287BD5"/>
<path d="M44.303 110.612C45.2357 110.612 45.9917 111.368 45.9917 112.301C45.9917 113.234 45.2357 113.99 44.303 113.99C43.3703 113.99 42.6143 113.234 42.6143 112.301C42.6143 111.368 43.3703 110.612 44.303 110.612Z" fill="#287BD5"/>
<path d="M47.679 110.612C48.6117 110.612 49.3677 111.368 49.3677 112.301C49.3677 113.234 48.6117 113.99 47.679 113.99C46.7463 113.99 45.9902 113.234 45.9902 112.301C45.9902 111.368 46.7463 110.612 47.679 110.612Z" fill="#287BD5"/>
<path d="M54.4348 110.612C55.3675 110.612 56.1236 111.368 56.1236 112.301C56.1236 113.233 55.3675 113.989 54.4348 113.989C53.5022 113.989 52.7461 113.233 52.7461 112.301C52.7461 111.368 53.5022 110.612 54.4348 110.612Z" fill="#287BD5"/>
<path d="M57.8128 110.612C58.7455 110.612 59.5015 111.368 59.5015 112.301C59.5015 113.233 58.7455 113.989 57.8128 113.989C56.8801 113.989 56.124 113.233 56.124 112.301C56.124 111.368 56.8801 110.612 57.8128 110.612Z" fill="#287BD5"/>
<path d="M61.1887 110.612C62.1214 110.612 62.8775 111.368 62.8775 112.301C62.8775 113.234 62.1214 113.99 61.1887 113.99C60.2561 113.99 59.5 113.234 59.5 112.301C59.5 111.368 60.2561 110.612 61.1887 110.612Z" fill="#287BD5"/>
<path d="M64.5676 110.612C65.5003 110.612 66.2564 111.368 66.2564 112.301C66.2564 113.234 65.5003 113.99 64.5676 113.99C63.635 113.99 62.8789 113.234 62.8789 112.301C62.8789 111.368 63.635 110.612 64.5676 110.612Z" fill="#287BD5"/>
<path d="M67.9465 110.612C68.8792 110.612 69.6353 111.368 69.6353 112.301C69.6353 113.234 68.8792 113.99 67.9465 113.99C67.0139 113.99 66.2578 113.234 66.2578 112.301C66.2578 111.368 67.0139 110.612 67.9465 110.612Z" fill="#287BD5"/>
<path d="M81.4544 110.612C82.3871 110.612 83.1431 111.368 83.1431 112.301C83.1431 113.233 82.3871 113.989 81.4544 113.989C80.5217 113.989 79.7656 113.233 79.7656 112.301C79.7656 111.368 80.5217 110.612 81.4544 110.612Z" fill="#287BD5"/>
<path d="M84.8323 110.612C85.765 110.612 86.521 111.368 86.521 112.301C86.521 113.234 85.765 113.99 84.8323 113.99C83.8996 113.99 83.1436 113.234 83.1436 112.301C83.1436 111.368 83.8996 110.612 84.8323 110.612Z" fill="#287BD5"/>
<path d="M88.2102 110.612C89.1429 110.612 89.899 111.368 89.899 112.301C89.899 113.233 89.1429 113.989 88.2102 113.989C87.2776 113.989 86.5215 113.233 86.5215 112.301C86.5215 111.368 87.2776 110.612 88.2102 110.612Z" fill="#287BD5"/>
<path d="M57.8128 113.989C58.7455 113.989 59.5015 114.745 59.5015 115.678C59.5015 116.611 58.7455 117.367 57.8128 117.367C56.8801 117.367 56.124 116.611 56.124 115.678C56.124 114.745 56.8801 113.989 57.8128 113.989Z" fill="#287BD5"/>
<path d="M61.1887 113.989C62.1214 113.989 62.8775 114.745 62.8775 115.678C62.8775 116.61 62.1214 117.366 61.1887 117.366C60.2561 117.366 59.5 116.61 59.5 115.678C59.5 114.745 60.2561 113.989 61.1887 113.989Z" fill="#287BD5"/>
<path d="M67.9465 113.989C68.8792 113.989 69.6353 114.745 69.6353 115.678C69.6353 116.61 68.8792 117.366 67.9465 117.366C67.0139 117.366 66.2578 116.61 66.2578 115.678C66.2578 114.745 67.0139 113.989 67.9465 113.989Z" fill="#287BD5"/>
<path d="M74.7005 113.989C75.6332 113.989 76.3892 114.745 76.3892 115.678C76.3892 116.611 75.6332 117.367 74.7005 117.367C73.7678 117.367 73.0117 116.611 73.0117 115.678C73.0117 114.745 73.7678 113.989 74.7005 113.989Z" fill="#287BD5"/>
<path d="M81.4544 113.989C82.3871 113.989 83.1431 114.745 83.1431 115.678C83.1431 116.611 82.3871 117.367 81.4544 117.367C80.5217 117.367 79.7656 116.611 79.7656 115.678C79.7656 114.745 80.5217 113.989 81.4544 113.989Z" fill="#287BD5"/>
<path d="M84.8323 113.989C85.765 113.989 86.521 114.745 86.521 115.678C86.521 116.61 85.765 117.366 84.8323 117.366C83.8996 117.366 83.1436 116.61 83.1436 115.678C83.1436 114.745 83.8996 113.989 84.8323 113.989Z" fill="#287BD5"/>
<path d="M88.2102 113.989C89.1429 113.989 89.899 114.745 89.899 115.678C89.899 116.611 89.1429 117.367 88.2102 117.367C87.2776 117.367 86.5215 116.611 86.5215 115.678C86.5215 114.745 87.2776 113.989 88.2102 113.989Z" fill="#287BD5"/>
<path d="M91.5881 113.989C92.5208 113.989 93.2769 114.745 93.2769 115.678C93.2769 116.611 92.5208 117.367 91.5881 117.367C90.6555 117.367 89.8994 116.611 89.8994 115.678C89.8994 114.745 90.6555 113.989 91.5881 113.989Z" fill="#287BD5"/>
<path d="M94.9641 113.989C95.8968 113.989 96.6529 114.745 96.6529 115.678C96.6529 116.61 95.8968 117.366 94.9641 117.366C94.0315 117.366 93.2754 116.61 93.2754 115.678C93.2754 114.745 94.0315 113.989 94.9641 113.989Z" fill="#287BD5"/>
<path d="M40.9251 117.367C41.8578 117.367 42.6138 118.123 42.6138 119.055C42.6138 119.988 41.8578 120.744 40.9251 120.744C39.9924 120.744 39.2363 119.988 39.2363 119.055C39.2363 118.123 39.9924 117.367 40.9251 117.367Z" fill="#287BD5"/>
<path d="M44.303 117.367C45.2357 117.367 45.9917 118.123 45.9917 119.055C45.9917 119.988 45.2357 120.744 44.303 120.744C43.3703 120.744 42.6143 119.988 42.6143 119.055C42.6143 118.123 43.3703 117.367 44.303 117.367Z" fill="#287BD5"/>
<path d="M47.679 117.367C48.6117 117.367 49.3677 118.123 49.3677 119.055C49.3677 119.988 48.6117 120.744 47.679 120.744C46.7463 120.744 45.9902 119.988 45.9902 119.055C45.9902 118.123 46.7463 117.367 47.679 117.367Z" fill="#287BD5"/>
<path d="M54.4348 117.367C55.3675 117.367 56.1236 118.123 56.1236 119.055C56.1236 119.988 55.3675 120.744 54.4348 120.744C53.5022 120.744 52.7461 119.988 52.7461 119.055C52.7461 118.123 53.5022 117.367 54.4348 117.367Z" fill="#287BD5"/>
<path d="M57.8128 117.367C58.7455 117.367 59.5015 118.123 59.5015 119.055C59.5015 119.988 58.7455 120.744 57.8128 120.744C56.8801 120.744 56.124 119.988 56.124 119.055C56.124 118.123 56.8801 117.367 57.8128 117.367Z" fill="#287BD5"/>
<path d="M67.9465 117.367C68.8792 117.367 69.6353 118.123 69.6353 119.055C69.6353 119.988 68.8792 120.744 67.9465 120.744C67.0139 120.744 66.2578 119.988 66.2578 119.055C66.2578 118.123 67.0139 117.367 67.9465 117.367Z" fill="#287BD5"/>
<path d="M81.4544 117.367C82.3871 117.367 83.1431 118.123 83.1431 119.055C83.1431 119.988 82.3871 120.744 81.4544 120.744C80.5217 120.744 79.7656 119.988 79.7656 119.055C79.7656 118.123 80.5217 117.367 81.4544 117.367Z" fill="#287BD5"/>
<path d="M84.8323 117.367C85.765 117.367 86.521 118.123 86.521 119.055C86.521 119.988 85.765 120.744 84.8323 120.744C83.8996 120.744 83.1436 119.988 83.1436 119.055C83.1436 118.123 83.8996 117.367 84.8323 117.367Z" fill="#287BD5"/>
<path d="M91.5881 117.367C92.5208 117.367 93.2769 118.123 93.2769 119.055C93.2769 119.988 92.5208 120.744 91.5881 120.744C90.6555 120.744 89.8994 119.988 89.8994 119.055C89.8994 118.123 90.6555 117.367 91.5881 117.367Z" fill="#287BD5"/>
<path d="M40.9251 120.744C41.8578 120.744 42.6138 121.5 42.6138 122.433C42.6138 123.366 41.8578 124.122 40.9251 124.122C39.9924 124.122 39.2363 123.366 39.2363 122.433C39.2363 121.5 39.9924 120.744 40.9251 120.744Z" fill="#287BD5"/>
<path d="M44.303 120.744C45.2357 120.744 45.9917 121.5 45.9917 122.433C45.9917 123.366 45.2357 124.122 44.303 124.122C43.3703 124.122 42.6143 123.366 42.6143 122.433C42.6143 121.5 43.3703 120.744 44.303 120.744Z" fill="#287BD5"/>
<path d="M47.679 120.744C48.6117 120.744 49.3677 121.5 49.3677 122.433C49.3677 123.366 48.6117 124.122 47.679 124.122C46.7463 124.122 45.9902 123.366 45.9902 122.433C45.9902 121.5 46.7463 120.744 47.679 120.744Z" fill="#287BD5"/>
<path d="M54.4348 120.744C55.3675 120.744 56.1236 121.5 56.1236 122.433C56.1236 123.366 55.3675 124.122 54.4348 124.122C53.5022 124.122 52.7461 123.366 52.7461 122.433C52.7461 121.5 53.5022 120.744 54.4348 120.744Z" fill="#287BD5"/>
<path d="M61.1887 120.744C62.1214 120.744 62.8775 121.5 62.8775 122.433C62.8775 123.366 62.1214 124.122 61.1887 124.122C60.2561 124.122 59.5 123.366 59.5 122.433C59.5 121.5 60.2561 120.744 61.1887 120.744Z" fill="#287BD5"/>
<path d="M64.5676 120.744C65.5003 120.744 66.2564 121.5 66.2564 122.433C66.2564 123.366 65.5003 124.122 64.5676 124.122C63.635 124.122 62.8789 123.366 62.8789 122.433C62.8789 121.5 63.635 120.744 64.5676 120.744Z" fill="#287BD5"/>
<path d="M67.9465 120.744C68.8792 120.744 69.6353 121.5 69.6353 122.433C69.6353 123.366 68.8792 124.122 67.9465 124.122C67.0139 124.122 66.2578 123.366 66.2578 122.433C66.2578 121.5 67.0139 120.744 67.9465 120.744Z" fill="#287BD5"/>
<path d="M71.3215 120.744C72.2542 120.744 73.0103 121.5 73.0103 122.433C73.0103 123.366 72.2542 124.122 71.3215 124.122C70.3889 124.122 69.6328 123.366 69.6328 122.433C69.6328 121.5 70.3889 120.744 71.3215 120.744Z" fill="#287BD5"/>
<path d="M74.7005 120.744C75.6332 120.744 76.3892 121.5 76.3892 122.433C76.3892 123.366 75.6332 124.122 74.7005 124.122C73.7678 124.122 73.0117 123.366 73.0117 122.433C73.0117 121.5 73.7678 120.744 74.7005 120.744Z" fill="#287BD5"/>
<path d="M78.0755 120.744C79.0082 120.744 79.7642 121.5 79.7642 122.433C79.7642 123.366 79.0082 124.122 78.0755 124.122C77.1428 124.122 76.3867 123.366 76.3867 122.433C76.3867 121.5 77.1428 120.744 78.0755 120.744Z" fill="#287BD5"/>
<path d="M81.4544 120.744C82.3871 120.744 83.1431 121.5 83.1431 122.433C83.1431 123.366 82.3871 124.122 81.4544 124.122C80.5217 124.122 79.7656 123.366 79.7656 122.433C79.7656 121.5 80.5217 120.744 81.4544 120.744Z" fill="#287BD5"/>
<path d="M84.8323 120.744C85.765 120.744 86.521 121.5 86.521 122.433C86.521 123.366 85.765 124.122 84.8323 124.122C83.8996 124.122 83.1436 123.366 83.1436 122.433C83.1436 121.5 83.8996 120.744 84.8323 120.744Z" fill="#287BD5"/>
<path d="M88.2102 120.744C89.1429 120.744 89.899 121.5 89.899 122.433C89.899 123.366 89.1429 124.122 88.2102 124.122C87.2776 124.122 86.5215 123.366 86.5215 122.433C86.5215 121.5 87.2776 120.744 88.2102 120.744Z" fill="#287BD5"/>
<path d="M94.9641 120.744C95.8968 120.744 96.6529 121.5 96.6529 122.433C96.6529 123.366 95.8968 124.122 94.9641 124.122C94.0315 124.122 93.2754 123.366 93.2754 122.433C93.2754 121.5 94.0315 120.744 94.9641 120.744Z" fill="#287BD5"/>
<path d="M40.9251 124.122C41.8578 124.122 42.6138 124.878 42.6138 125.81C42.6138 126.743 41.8578 127.499 40.9251 127.499C39.9924 127.499 39.2363 126.743 39.2363 125.81C39.2363 124.878 39.9924 124.122 40.9251 124.122Z" fill="#287BD5"/>
<path d="M44.303 124.122C45.2357 124.122 45.9917 124.878 45.9917 125.81C45.9917 126.743 45.2357 127.499 44.303 127.499C43.3703 127.499 42.6143 126.743 42.6143 125.81C42.6143 124.878 43.3703 124.122 44.303 124.122Z" fill="#287BD5"/>
<path d="M64.5676 124.122C65.5003 124.122 66.2564 124.878 66.2564 125.81C66.2564 126.743 65.5003 127.499 64.5676 127.499C63.635 127.499 62.8789 126.743 62.8789 125.81C62.8789 124.878 63.635 124.122 64.5676 124.122Z" fill="#287BD5"/>
<path d="M67.9465 124.122C68.8792 124.122 69.6353 124.878 69.6353 125.81C69.6353 126.743 68.8792 127.499 67.9465 127.499C67.0139 127.499 66.2578 126.743 66.2578 125.81C66.2578 124.878 67.0139 124.122 67.9465 124.122Z" fill="#287BD5"/>
<path d="M71.3215 124.122C72.2542 124.122 73.0103 124.878 73.0103 125.81C73.0103 126.743 72.2542 127.499 71.3215 127.499C70.3889 127.499 69.6328 126.743 69.6328 125.81C69.6328 124.878 70.3889 124.122 71.3215 124.122Z" fill="#287BD5"/>
<path d="M74.7005 124.122C75.6332 124.122 76.3892 124.878 76.3892 125.81C76.3892 126.743 75.6332 127.499 74.7005 127.499C73.7678 127.499 73.0117 126.743 73.0117 125.81C73.0117 124.878 73.7678 124.122 74.7005 124.122Z" fill="#287BD5"/>
<path d="M78.0755 124.122C79.0082 124.122 79.7642 124.878 79.7642 125.81C79.7642 126.743 79.0082 127.499 78.0755 127.499C77.1428 127.499 76.3867 126.743 76.3867 125.81C76.3867 124.878 77.1428 124.122 78.0755 124.122Z" fill="#287BD5"/>
<path d="M88.2102 124.122C89.1429 124.122 89.899 124.878 89.899 125.81C89.899 126.743 89.1429 127.499 88.2102 127.499C87.2776 127.499 86.5215 126.743 86.5215 125.81C86.5215 124.878 87.2776 124.122 88.2102 124.122Z" fill="#287BD5"/>
<path d="M91.5881 124.122C92.5208 124.122 93.2769 124.878 93.2769 125.81C93.2769 126.743 92.5208 127.499 91.5881 127.499C90.6555 127.499 89.8994 126.743 89.8994 125.81C89.8994 124.878 90.6555 124.122 91.5881 124.122Z" fill="#287BD5"/>
<path d="M94.9641 124.122C95.8968 124.122 96.6529 124.878 96.6529 125.81C96.6529 126.743 95.8968 127.499 94.9641 127.499C94.0315 127.499 93.2754 126.743 93.2754 125.81C93.2754 124.878 94.0315 124.122 94.9641 124.122Z" fill="#287BD5"/>
<path d="M40.9251 127.499C41.8578 127.499 42.6138 128.255 42.6138 129.188C42.6138 130.12 41.8578 130.876 40.9251 130.876C39.9924 130.876 39.2363 130.12 39.2363 129.188C39.2363 128.255 39.9924 127.499 40.9251 127.499Z" fill="#287BD5"/>
<path d="M44.303 127.5C45.2357 127.5 45.9917 128.256 45.9917 129.188C45.9917 130.121 45.2357 130.877 44.303 130.877C43.3703 130.877 42.6143 130.121 42.6143 129.188C42.6143 128.256 43.3703 127.5 44.303 127.5Z" fill="#287BD5"/>
<path d="M51.0589 127.5C51.9916 127.5 52.7476 128.256 52.7476 129.188C52.7476 130.121 51.9916 130.877 51.0589 130.877C50.1262 130.877 49.3701 130.121 49.3701 129.188C49.3701 128.256 50.1262 127.5 51.0589 127.5Z" fill="#287BD5"/>
<path d="M54.4348 127.499C55.3675 127.499 56.1236 128.255 56.1236 129.188C56.1236 130.12 55.3675 130.876 54.4348 130.876C53.5022 130.876 52.7461 130.12 52.7461 129.188C52.7461 128.255 53.5022 127.499 54.4348 127.499Z" fill="#287BD5"/>
<path d="M67.9465 127.5C68.8792 127.5 69.6353 128.256 69.6353 129.188C69.6353 130.121 68.8792 130.877 67.9465 130.877C67.0139 130.877 66.2578 130.121 66.2578 129.188C66.2578 128.256 67.0139 127.5 67.9465 127.5Z" fill="#287BD5"/>
<path d="M71.3215 127.499C72.2542 127.499 73.0103 128.255 73.0103 129.188C73.0103 130.12 72.2542 130.876 71.3215 130.876C70.3889 130.876 69.6328 130.12 69.6328 129.188C69.6328 128.255 70.3889 127.499 71.3215 127.499Z" fill="#287BD5"/>
<path d="M78.0755 127.5C79.0082 127.5 79.7642 128.256 79.7642 129.188C79.7642 130.121 79.0082 130.877 78.0755 130.877C77.1428 130.877 76.3867 130.121 76.3867 129.188C76.3867 128.256 77.1428 127.5 78.0755 127.5Z" fill="#287BD5"/>
<path d="M88.2102 127.499C89.1429 127.499 89.899 128.255 89.899 129.188C89.899 130.12 89.1429 130.876 88.2102 130.876C87.2776 130.876 86.5215 130.12 86.5215 129.188C86.5215 128.255 87.2776 127.499 88.2102 127.499Z" fill="#287BD5"/>
<path d="M94.9641 127.5C95.8968 127.5 96.6529 128.256 96.6529 129.188C96.6529 130.121 95.8968 130.877 94.9641 130.877C94.0315 130.877 93.2754 130.121 93.2754 129.188C93.2754 128.256 94.0315 127.5 94.9641 127.5Z" fill="#287BD5"/>
<path d="M44.303 130.876C45.2357 130.876 45.9917 131.633 45.9917 132.565C45.9917 133.498 45.2357 134.254 44.303 134.254C43.3703 134.254 42.6143 133.498 42.6143 132.565C42.6143 131.633 43.3703 130.876 44.303 130.876Z" fill="#287BD5"/>
<path d="M51.0589 130.876C51.9916 130.876 52.7476 131.633 52.7476 132.565C52.7476 133.498 51.9916 134.254 51.0589 134.254C50.1262 134.254 49.3701 133.498 49.3701 132.565C49.3701 131.633 50.1262 130.876 51.0589 130.876Z" fill="#287BD5"/>
<path d="M61.1887 130.876C62.1214 130.876 62.8775 131.633 62.8775 132.565C62.8775 133.498 62.1214 134.254 61.1887 134.254C60.2561 134.254 59.5 133.498 59.5 132.565C59.5 131.633 60.2561 130.876 61.1887 130.876Z" fill="#287BD5"/>
<path d="M64.5676 130.876C65.5003 130.876 66.2564 131.633 66.2564 132.565C66.2564 133.498 65.5003 134.254 64.5676 134.254C63.635 134.254 62.8789 133.498 62.8789 132.565C62.8789 131.633 63.635 130.876 64.5676 130.876Z" fill="#287BD5"/>
<path d="M67.9465 130.876C68.8792 130.876 69.6353 131.633 69.6353 132.565C69.6353 133.498 68.8792 134.254 67.9465 134.254C67.0139 134.254 66.2578 133.498 66.2578 132.565C66.2578 131.633 67.0139 130.876 67.9465 130.876Z" fill="#287BD5"/>
<path d="M78.0755 130.876C79.0082 130.876 79.7642 131.632 79.7642 132.565C79.7642 133.497 79.0082 134.253 78.0755 134.253C77.1428 134.253 76.3867 133.497 76.3867 132.565C76.3867 131.632 77.1428 130.876 78.0755 130.876Z" fill="#287BD5"/>
<path d="M81.4544 130.876C82.3871 130.876 83.1431 131.633 83.1431 132.565C83.1431 133.498 82.3871 134.254 81.4544 134.254C80.5217 134.254 79.7656 133.498 79.7656 132.565C79.7656 131.633 80.5217 130.876 81.4544 130.876Z" fill="#287BD5"/>
<path d="M84.8323 130.876C85.765 130.876 86.521 131.633 86.521 132.565C86.521 133.498 85.765 134.254 84.8323 134.254C83.8996 134.254 83.1436 133.498 83.1436 132.565C83.1436 131.633 83.8996 130.876 84.8323 130.876Z" fill="#287BD5"/>
<path d="M94.9641 130.876C95.8968 130.876 96.6529 131.632 96.6529 132.565C96.6529 133.497 95.8968 134.253 94.9641 134.253C94.0315 134.253 93.2754 133.497 93.2754 132.565C93.2754 131.632 94.0315 130.876 94.9641 130.876Z" fill="#287BD5"/>
<path d="M40.9251 134.254C41.8578 134.254 42.6138 135.01 42.6138 135.943C42.6138 136.875 41.8578 137.631 40.9251 137.631C39.9924 137.631 39.2363 136.875 39.2363 135.943C39.2363 135.01 39.9924 134.254 40.9251 134.254Z" fill="#287BD5"/>
<path d="M44.303 134.254C45.2357 134.254 45.9917 135.01 45.9917 135.943C45.9917 136.875 45.2357 137.631 44.303 137.631C43.3703 137.631 42.6143 136.875 42.6143 135.943C42.6143 135.01 43.3703 134.254 44.303 134.254Z" fill="#287BD5"/>
<path d="M51.0589 134.254C51.9916 134.254 52.7476 135.01 52.7476 135.943C52.7476 136.875 51.9916 137.631 51.0589 137.631C50.1262 137.631 49.3701 136.875 49.3701 135.943C49.3701 135.01 50.1262 134.254 51.0589 134.254Z" fill="#287BD5"/>
<path d="M64.5676 134.254C65.5003 134.254 66.2564 135.01 66.2564 135.943C66.2564 136.875 65.5003 137.631 64.5676 137.631C63.635 137.631 62.8789 136.875 62.8789 135.943C62.8789 135.01 63.635 134.254 64.5676 134.254Z" fill="#287BD5"/>
<path d="M74.7005 134.254C75.6332 134.254 76.3892 135.01 76.3892 135.943C76.3892 136.875 75.6332 137.631 74.7005 137.631C73.7678 137.631 73.0117 136.875 73.0117 135.943C73.0117 135.01 73.7678 134.254 74.7005 134.254Z" fill="#287BD5"/>
<path d="M78.0755 134.254C79.0082 134.254 79.7642 135.01 79.7642 135.943C79.7642 136.875 79.0082 137.631 78.0755 137.631C77.1428 137.631 76.3867 136.875 76.3867 135.943C76.3867 135.01 77.1428 134.254 78.0755 134.254Z" fill="#287BD5"/>
<path d="M81.4544 134.254C82.3871 134.254 83.1431 135.01 83.1431 135.943C83.1431 136.875 82.3871 137.631 81.4544 137.631C80.5217 137.631 79.7656 136.875 79.7656 135.943C79.7656 135.01 80.5217 134.254 81.4544 134.254Z" fill="#287BD5"/>
<path d="M84.8323 134.254C85.765 134.254 86.521 135.01 86.521 135.943C86.521 136.875 85.765 137.631 84.8323 137.631C83.8996 137.631 83.1436 136.875 83.1436 135.943C83.1436 135.01 83.8996 134.254 84.8323 134.254Z" fill="#287BD5"/>
<path d="M88.2102 134.254C89.1429 134.254 89.899 135.01 89.899 135.943C89.899 136.875 89.1429 137.631 88.2102 137.631C87.2776 137.631 86.5215 136.875 86.5215 135.943C86.5215 135.01 87.2776 134.254 88.2102 134.254Z" fill="#287BD5"/>
<path d="M91.5881 134.254C92.5208 134.254 93.2769 135.01 93.2769 135.943C93.2769 136.875 92.5208 137.631 91.5881 137.631C90.6555 137.631 89.8994 136.875 89.8994 135.943C89.8994 135.01 90.6555 134.254 91.5881 134.254Z" fill="#287BD5"/>
<path d="M94.9641 134.254C95.8968 134.254 96.6529 135.01 96.6529 135.943C96.6529 136.875 95.8968 137.631 94.9641 137.631C94.0315 137.631 93.2754 136.875 93.2754 135.943C93.2754 135.01 94.0315 134.254 94.9641 134.254Z" fill="#287BD5"/>
<path d="M27.7883 53.1963H20.2895C16.6349 53.1963 13.5387 55.6109 12.5488 58.9111C12.4464 59.2525 12.3665 59.6033 12.3109 59.962C12.2497 60.3578 12.2178 60.763 12.2178 61.1756V68.8524C12.2178 73.2544 15.8398 76.8341 20.2895 76.8341L24.0389 76.8348L27.7883 76.8338C32.2378 76.8338 35.86 73.2541 35.86 68.8522V61.1756C35.86 56.7757 32.238 53.1963 27.7883 53.1963ZM32.3137 68.8524C32.3137 71.298 30.2838 73.2877 27.7874 73.2877L24.0389 73.2884L20.2904 73.2875C17.794 73.2875 15.7641 71.2977 15.7641 68.8524V61.1756C15.7641 60.4117 15.9622 59.6925 16.311 59.0641C16.6467 58.4595 17.1217 57.9396 17.6936 57.546C18.4288 57.0398 19.3242 56.7426 20.2892 56.7426H27.7883C30.2838 56.7426 32.3137 58.7312 32.3137 61.1756V68.8524Z" fill="#287BD5"/>
<path d="M88.5823 53.1968H81.0834C77.4288 53.1968 74.3326 55.6114 73.3427 58.9116C73.2403 59.253 73.1604 59.6038 73.1049 59.9625C73.0436 60.3583 73.0117 60.7635 73.0117 61.176V68.8529C73.0117 73.2549 76.6337 76.8345 81.0834 76.8345L84.8328 76.8353L88.5823 76.8343C93.0317 76.8343 96.654 73.2546 96.654 68.8527V61.176C96.654 56.7762 93.032 53.1968 88.5823 53.1968ZM93.1076 68.8529C93.1076 71.2985 91.0777 73.2882 88.5813 73.2882L84.8328 73.2889L81.0844 73.288C78.588 73.288 76.5581 71.2982 76.5581 68.8529V61.176C76.5581 60.4122 76.7562 59.693 77.1049 59.0645C77.4406 58.46 77.9156 57.9401 78.4875 57.5465C79.2228 57.0403 80.1181 56.7431 81.0832 56.7431H88.5823C91.0777 56.7431 93.1076 58.7317 93.1076 61.176V68.8529Z" fill="#287BD5"/>
<path d="M27.7883 113.991H20.2895C16.6349 113.991 13.5387 116.406 12.5488 119.706C12.4464 120.047 12.3665 120.398 12.3109 120.757C12.2497 121.153 12.2178 121.558 12.2178 121.97V129.647C12.2178 134.049 15.8398 137.629 20.2895 137.629L24.0389 137.63L27.7883 137.629C32.2378 137.629 35.86 134.049 35.86 129.647V121.97C35.86 117.571 32.238 113.991 27.7883 113.991ZM32.3137 129.647C32.3137 132.093 30.2838 134.083 27.7874 134.083L24.0389 134.083L20.2904 134.082C17.794 134.082 15.7641 132.093 15.7641 129.647V121.97C15.7641 121.207 15.9622 120.487 16.311 119.859C16.6467 119.254 17.1217 118.735 17.6936 118.341C18.4288 117.835 19.3242 117.538 20.2892 117.538H27.7883C30.2838 117.538 32.3137 119.526 32.3137 121.97V129.647Z" fill="#287BD5"/>
<path d="M29.1041 59.9497H18.9717V70.0821H29.1041V59.9497Z" fill="#287BD5"/>
<path d="M89.898 59.9497H79.7656V70.0821H89.898V59.9497Z" fill="#287BD5"/>
<path d="M29.1041 120.744H18.9717V130.877H29.1041V120.744Z" fill="#287BD5"/>
<rect x="9.2591" y="4.64386" width="90.3472" height="27.8641" rx="3.79965" stroke="#287BD5" stroke-width="0.844366"/>
<path d="M27.9808 24.633C27.0113 24.633 26.1894 24.4697 25.515 24.143C24.8406 23.8058 24.2663 23.3738 23.7921 22.8469L25.3727 21.2504C26.1209 22.0935 27.0429 22.515 28.1389 22.515C28.729 22.515 29.1663 22.3938 29.4508 22.1514C29.7353 21.909 29.8776 21.5876 29.8776 21.1872C29.8776 20.8816 29.7933 20.6287 29.6247 20.4285C29.4561 20.2177 29.1136 20.0755 28.5972 20.0017L27.5066 19.8595C26.3369 19.7119 25.4781 19.3589 24.9301 18.8004C24.3927 18.2419 24.124 17.499 24.124 16.5717C24.124 16.0764 24.2188 15.6233 24.4085 15.2123C24.5982 14.8014 24.8669 14.4484 25.2146 14.1533C25.5729 13.8582 26.005 13.6317 26.5108 13.4736C27.0271 13.305 27.612 13.2207 28.2653 13.2207C29.0978 13.2207 29.8302 13.3524 30.4624 13.6159C31.0947 13.8793 31.6374 14.2639 32.0905 14.7698L30.494 16.382C30.2306 16.0764 29.9092 15.8288 29.5298 15.6391C29.161 15.4389 28.6921 15.3388 28.123 15.3388C27.5856 15.3388 27.1852 15.4336 26.9217 15.6233C26.6583 15.813 26.5266 16.0764 26.5266 16.4136C26.5266 16.793 26.6267 17.067 26.8269 17.2356C27.0377 17.4042 27.3749 17.5254 27.8385 17.5991L28.9292 17.773C30.0673 17.9521 30.9103 18.3052 31.4582 18.832C32.0062 19.3484 32.2802 20.086 32.2802 21.045C32.2802 21.5718 32.1853 22.0566 31.9956 22.4992C31.806 22.9417 31.5267 23.3211 31.1579 23.6372C30.7996 23.9534 30.3518 24.201 29.8143 24.3801C29.2769 24.5487 28.6657 24.633 27.9808 24.633ZM37.4967 24.633C36.875 24.633 36.3217 24.5329 35.837 24.3327C35.3523 24.122 34.9466 23.8322 34.6199 23.4634C34.2932 23.084 34.0456 22.6256 33.877 22.0882C33.7084 21.5508 33.6241 20.9501 33.6241 20.2862C33.6241 19.6224 33.7084 19.027 33.877 18.5001C34.0456 17.9627 34.2932 17.5043 34.6199 17.1249C34.9466 16.7456 35.3523 16.4558 35.837 16.2556C36.3217 16.0554 36.875 15.9552 37.4967 15.9552C38.3397 15.9552 39.0405 16.1449 39.599 16.5243C40.168 16.9036 40.5737 17.4358 40.8161 18.1207L38.9193 18.9427C38.8455 18.6266 38.6927 18.3578 38.4609 18.1366C38.2291 17.9153 37.9077 17.8046 37.4967 17.8046C37.0225 17.8046 36.6642 17.9627 36.4218 18.2788C36.1795 18.5844 36.0583 19.0006 36.0583 19.5275V21.0766C36.0583 21.6035 36.1795 22.0197 36.4218 22.3253C36.6642 22.6309 37.0225 22.7837 37.4967 22.7837C37.9182 22.7837 38.2501 22.673 38.4925 22.4517C38.7454 22.2199 38.9298 21.9196 39.0457 21.5508L40.8635 22.3411C40.5895 23.1314 40.1627 23.711 39.5832 24.0798C39.0141 24.4486 38.3186 24.633 37.4967 24.633ZM48.4443 24.4434C48.0228 24.4434 47.6698 24.3116 47.3853 24.0482C47.1113 23.7848 46.9374 23.4317 46.8637 22.9892H46.7688C46.6424 23.5266 46.3631 23.9376 45.9311 24.2221C45.499 24.496 44.9669 24.633 44.3346 24.633C43.5021 24.633 42.8646 24.4117 42.422 23.9692C41.9795 23.5266 41.7582 22.9417 41.7582 22.2146C41.7582 21.34 42.0743 20.6919 42.7066 20.2704C43.3494 19.8384 44.2187 19.6224 45.3146 19.6224H46.6266V19.1007C46.6266 18.7003 46.5212 18.3842 46.3104 18.1524C46.0997 17.91 45.7467 17.7888 45.2514 17.7888C44.7877 17.7888 44.4189 17.8889 44.1449 18.0891C43.871 18.2893 43.6444 18.5159 43.4653 18.7688L42.0743 17.5359C42.4115 17.0406 42.833 16.656 43.3388 16.382C43.8552 16.0975 44.5506 15.9552 45.4253 15.9552C46.6055 15.9552 47.4907 16.2134 48.0808 16.7298C48.6709 17.2461 48.9659 17.9996 48.9659 18.9901V22.6256H49.7405V24.4434H48.4443ZM45.204 23.005C45.5939 23.005 45.9258 22.9207 46.1998 22.7521C46.4843 22.5835 46.6266 22.3095 46.6266 21.9301V20.9501H45.4885C44.5717 20.9501 44.1133 21.261 44.1133 21.8827V22.1198C44.1133 22.4254 44.2082 22.652 44.3979 22.7995C44.5875 22.9365 44.8562 23.005 45.204 23.005ZM51.3106 24.4434V16.1449H53.65V17.5517H53.7448C53.8924 17.1197 54.1505 16.7456 54.5193 16.4294C54.8882 16.1133 55.3992 15.9552 56.0526 15.9552C56.9061 15.9552 57.5489 16.2398 57.981 16.8088C58.4236 17.3778 58.6449 18.1892 58.6449 19.243V24.4434H56.3055V19.4327C56.3055 18.8953 56.2212 18.5001 56.0526 18.2472C55.884 17.9838 55.5837 17.852 55.1516 17.852C54.9619 17.852 54.7775 17.8784 54.5984 17.9311C54.4192 17.9732 54.2559 18.047 54.1084 18.1524C53.9714 18.2577 53.8607 18.3895 53.7764 18.5475C53.6921 18.695 53.65 18.8689 53.65 19.0691V24.4434H51.3106ZM72.8396 17.204H72.7922L71.9861 18.8162L69.8364 22.7204L67.7341 18.832L66.8964 17.0933H66.8489V24.4434H64.5886V13.4104H67.1335L69.8364 18.5791H69.868L72.5393 13.4104H75.1V24.4434H72.8396V17.204ZM80.8747 24.633C80.2424 24.633 79.6786 24.5329 79.1834 24.3327C78.6881 24.122 78.2666 23.8322 77.9188 23.4634C77.5816 23.084 77.3234 22.6256 77.1443 22.0882C76.9757 21.5508 76.8914 20.9501 76.8914 20.2862C76.8914 19.6329 76.9757 19.0428 77.1443 18.5159C77.3129 17.9785 77.5605 17.5201 77.8872 17.1407C78.2244 16.7614 78.6354 16.4716 79.1201 16.2714C79.6049 16.0606 80.1581 15.9552 80.7798 15.9552C81.4648 15.9552 82.0496 16.0712 82.5343 16.303C83.0296 16.5348 83.43 16.8457 83.7356 17.2356C84.0518 17.6255 84.2783 18.0786 84.4153 18.5949C84.5628 19.1007 84.6366 19.6329 84.6366 20.1914V20.8869H79.3098V21.0133C79.3098 21.5613 79.4573 21.9986 79.7524 22.3253C80.0474 22.6414 80.5111 22.7995 81.1434 22.7995C81.6281 22.7995 82.0233 22.7046 82.3289 22.515C82.6344 22.3147 82.919 22.0776 83.1824 21.8037L84.3521 23.2579C83.9833 23.6899 83.4985 24.0271 82.8979 24.2695C82.3078 24.5119 81.6334 24.633 80.8747 24.633ZM80.8272 17.6782C80.353 17.6782 79.9789 17.8362 79.705 18.1524C79.4415 18.458 79.3098 18.8689 79.3098 19.3853V19.5117H82.2182V19.3695C82.2182 18.8637 82.1023 18.458 81.8705 18.1524C81.6492 17.8362 81.3014 17.6782 80.8272 17.6782Z" fill="#287BD5"/>
</svg>
