<svg width="118" height="152" viewBox="0 0 118 152" fill="none" xmlns="http://www.w3.org/2000/svg">
<rect width="118" height="152" rx="4.22183" fill="#FF5162"/>
<rect x="9.25195" y="43.9072" width="101.324" height="101.324" rx="4.22183" fill="white"/>
<path d="M48.9378 53.1948C49.8705 53.1948 50.6265 53.9509 50.6265 54.8836C50.6265 55.8163 49.8705 56.5723 48.9378 56.5723C48.0051 56.5723 47.249 55.8163 47.249 54.8836C47.249 53.9509 48.0051 53.1948 48.9378 53.1948Z" fill="#FF5162"/>
<path d="M55.6936 53.1948C56.6263 53.1948 57.3823 53.9509 57.3823 54.8836C57.3823 55.8163 56.6263 56.5723 55.6936 56.5723C54.761 56.5723 54.0049 55.8163 54.0049 54.8836C54.0049 53.9509 54.761 53.1948 55.6936 53.1948Z" fill="#FF5162"/>
<path d="M72.5813 53.1948C73.514 53.1948 74.27 53.9509 74.27 54.8836C74.27 55.8163 73.514 56.5723 72.5813 56.5723C71.6487 56.5723 70.8926 55.8163 70.8926 54.8836C70.8926 53.9509 71.6487 53.1948 72.5813 53.1948Z" fill="#FF5162"/>
<path d="M48.9378 56.5723C49.8705 56.5723 50.6265 57.3283 50.6265 58.261C50.6265 59.1937 49.8705 59.9497 48.9378 59.9497C48.0051 59.9497 47.249 59.1937 47.249 58.261C47.249 57.3283 48.0051 56.5723 48.9378 56.5723Z" fill="#FF5162"/>
<path d="M55.6936 56.5723C56.6263 56.5723 57.3823 57.3283 57.3823 58.261C57.3823 59.1937 56.6263 59.9497 55.6936 59.9497C54.761 59.9497 54.0049 59.1937 54.0049 58.261C54.0049 57.3283 54.761 56.5723 55.6936 56.5723Z" fill="#FF5162"/>
<path d="M69.2024 56.5723C70.1351 56.5723 70.8911 57.3283 70.8911 58.261C70.8911 59.1937 70.1351 59.9497 69.2024 59.9497C68.2698 59.9497 67.5137 59.1937 67.5137 58.261C67.5137 57.3283 68.2698 56.5723 69.2024 56.5723Z" fill="#FF5162"/>
<path d="M45.5598 59.9502C46.4925 59.9502 47.2486 60.7063 47.2486 61.6389C47.2486 62.5716 46.4925 63.3277 45.5598 63.3277C44.6272 63.3277 43.8711 62.5716 43.8711 61.6389C43.8711 60.7063 44.6272 59.9502 45.5598 59.9502Z" fill="#FF5162"/>
<path d="M52.3137 59.9502C53.2464 59.9502 54.0025 60.7063 54.0025 61.6389C54.0025 62.5716 53.2464 63.3277 52.3137 63.3277C51.3811 63.3277 50.625 62.5716 50.625 61.6389C50.625 60.7063 51.3811 59.9502 52.3137 59.9502Z" fill="#FF5162"/>
<path d="M65.8235 59.9502C66.7562 59.9502 67.5122 60.7063 67.5122 61.6389C67.5122 62.5716 66.7562 63.3277 65.8235 63.3277C64.8908 63.3277 64.1348 62.5716 64.1348 61.6389C64.1348 60.7063 64.8908 59.9502 65.8235 59.9502Z" fill="#FF5162"/>
<path d="M72.5813 59.9502C73.514 59.9502 74.27 60.7063 74.27 61.6389C74.27 62.5716 73.514 63.3277 72.5813 63.3277C71.6487 63.3277 70.8926 62.5716 70.8926 61.6389C70.8926 60.7063 71.6487 59.9502 72.5813 59.9502Z" fill="#FF5162"/>
<path d="M45.5598 63.3271C46.4925 63.3271 47.2486 64.0832 47.2486 65.0159C47.2486 65.9486 46.4925 66.7046 45.5598 66.7046C44.6272 66.7046 43.8711 65.9486 43.8711 65.0159C43.8711 64.0832 44.6272 63.3271 45.5598 63.3271Z" fill="#FF5162"/>
<path d="M48.9378 63.3271C49.8705 63.3271 50.6265 64.0832 50.6265 65.0159C50.6265 65.9486 49.8705 66.7046 48.9378 66.7046C48.0051 66.7046 47.249 65.9486 47.249 65.0159C47.249 64.0832 48.0051 63.3271 48.9378 63.3271Z" fill="#FF5162"/>
<path d="M52.3137 63.3271C53.2464 63.3271 54.0025 64.0832 54.0025 65.0159C54.0025 65.9486 53.2464 66.7046 52.3137 66.7046C51.3811 66.7046 50.625 65.9486 50.625 65.0159C50.625 64.0832 51.3811 63.3271 52.3137 63.3271Z" fill="#FF5162"/>
<path d="M62.4465 63.3271C63.3792 63.3271 64.1353 64.0832 64.1353 65.0159C64.1353 65.9486 63.3792 66.7046 62.4465 66.7046C61.5139 66.7046 60.7578 65.9486 60.7578 65.0159C60.7578 64.0832 61.5139 63.3271 62.4465 63.3271Z" fill="#FF5162"/>
<path d="M65.8235 63.3271C66.7562 63.3271 67.5122 64.0832 67.5122 65.0159C67.5122 65.9486 66.7562 66.7046 65.8235 66.7046C64.8908 66.7046 64.1348 65.9486 64.1348 65.0159C64.1348 64.0832 64.8908 63.3271 65.8235 63.3271Z" fill="#FF5162"/>
<path d="M45.5598 66.7046C46.4925 66.7046 47.2486 67.4607 47.2486 68.3933C47.2486 69.326 46.4925 70.0821 45.5598 70.0821C44.6272 70.0821 43.8711 69.326 43.8711 68.3933C43.8711 67.4607 44.6272 66.7046 45.5598 66.7046Z" fill="#FF5162"/>
<path d="M59.0696 66.7046C60.0023 66.7046 60.7583 67.4607 60.7583 68.3933C60.7583 69.326 60.0023 70.0821 59.0696 70.0821C58.1369 70.0821 57.3809 69.326 57.3809 68.3933C57.3809 67.4607 58.1369 66.7046 59.0696 66.7046Z" fill="#FF5162"/>
<path d="M65.8235 66.7046C66.7562 66.7046 67.5122 67.4607 67.5122 68.3933C67.5122 69.326 66.7562 70.0821 65.8235 70.0821C64.8908 70.0821 64.1348 69.326 64.1348 68.3933C64.1348 67.4607 64.8908 66.7046 65.8235 66.7046Z" fill="#FF5162"/>
<path d="M45.5598 70.082C46.4925 70.082 47.2486 70.8381 47.2486 71.7708C47.2486 72.7035 46.4925 73.4595 45.5598 73.4595C44.6272 73.4595 43.8711 72.7035 43.8711 71.7708C43.8711 70.8381 44.6272 70.082 45.5598 70.082Z" fill="#FF5162"/>
<path d="M48.9378 70.082C49.8705 70.082 50.6265 70.8381 50.6265 71.7708C50.6265 72.7035 49.8705 73.4595 48.9378 73.4595C48.0051 73.4595 47.249 72.7035 47.249 71.7708C47.249 70.8381 48.0051 70.082 48.9378 70.082Z" fill="#FF5162"/>
<path d="M52.3137 70.082C53.2464 70.082 54.0025 70.8381 54.0025 71.7708C54.0025 72.7035 53.2464 73.4595 52.3137 73.4595C51.3811 73.4595 50.625 72.7035 50.625 71.7708C50.625 70.8381 51.3811 70.082 52.3137 70.082Z" fill="#FF5162"/>
<path d="M65.8235 70.082C66.7562 70.082 67.5122 70.8381 67.5122 71.7708C67.5122 72.7035 66.7562 73.4595 65.8235 73.4595C64.8908 73.4595 64.1348 72.7035 64.1348 71.7708C64.1348 70.8381 64.8908 70.082 65.8235 70.082Z" fill="#FF5162"/>
<path d="M69.2024 70.082C70.1351 70.082 70.8911 70.8381 70.8911 71.7708C70.8911 72.7035 70.1351 73.4595 69.2024 73.4595C68.2698 73.4595 67.5137 72.7035 67.5137 71.7708C67.5137 70.8381 68.2698 70.082 69.2024 70.082Z" fill="#FF5162"/>
<path d="M72.5813 70.082C73.514 70.082 74.27 70.8381 74.27 71.7708C74.27 72.7035 73.514 73.4595 72.5813 73.4595C71.6487 73.4595 70.8926 72.7035 70.8926 71.7708C70.8926 70.8381 71.6487 70.082 72.5813 70.082Z" fill="#FF5162"/>
<path d="M45.5598 73.4595C46.4925 73.4595 47.2486 74.2156 47.2486 75.1482C47.2486 76.0809 46.4925 76.8369 45.5598 76.8369C44.6272 76.8369 43.8711 76.0809 43.8711 75.1482C43.8711 74.2156 44.6272 73.4595 45.5598 73.4595Z" fill="#FF5162"/>
<path d="M52.3137 73.4595C53.2464 73.4595 54.0025 74.2156 54.0025 75.1482C54.0025 76.0809 53.2464 76.8369 52.3137 76.8369C51.3811 76.8369 50.625 76.0809 50.625 75.1482C50.625 74.2156 51.3811 73.4595 52.3137 73.4595Z" fill="#FF5162"/>
<path d="M59.0696 73.46C60.0023 73.46 60.7583 74.216 60.7583 75.1487C60.7583 76.0814 60.0023 76.8374 59.0696 76.8374C58.1369 76.8374 57.3809 76.0814 57.3809 75.1487C57.3809 74.216 58.1369 73.46 59.0696 73.46Z" fill="#FF5162"/>
<path d="M65.8235 73.4595C66.7562 73.4595 67.5122 74.2156 67.5122 75.1482C67.5122 76.0809 66.7562 76.8369 65.8235 76.8369C64.8908 76.8369 64.1348 76.0809 64.1348 75.1482C64.1348 74.2156 64.8908 73.4595 65.8235 73.4595Z" fill="#FF5162"/>
<path d="M72.5813 73.4595C73.514 73.4595 74.27 74.2156 74.27 75.1482C74.27 76.0809 73.514 76.8369 72.5813 76.8369C71.6487 76.8369 70.8926 76.0809 70.8926 75.1482C70.8926 74.2156 71.6487 73.4595 72.5813 73.4595Z" fill="#FF5162"/>
<path d="M45.5598 76.8374C46.4925 76.8374 47.2486 77.5935 47.2486 78.5261C47.2486 79.4588 46.4925 80.2149 45.5598 80.2149C44.6272 80.2149 43.8711 79.4588 43.8711 78.5261C43.8711 77.5935 44.6272 76.8374 45.5598 76.8374Z" fill="#FF5162"/>
<path d="M52.3137 76.8374C53.2464 76.8374 54.0025 77.5935 54.0025 78.5261C54.0025 79.4588 53.2464 80.2149 52.3137 80.2149C51.3811 80.2149 50.625 79.4588 50.625 78.5261C50.625 77.5935 51.3811 76.8374 52.3137 76.8374Z" fill="#FF5162"/>
<path d="M59.0696 76.8374C60.0023 76.8374 60.7583 77.5935 60.7583 78.5261C60.7583 79.4588 60.0023 80.2149 59.0696 80.2149C58.1369 80.2149 57.3809 79.4588 57.3809 78.5261C57.3809 77.5935 58.1369 76.8374 59.0696 76.8374Z" fill="#FF5162"/>
<path d="M65.8235 76.8374C66.7562 76.8374 67.5122 77.5935 67.5122 78.5261C67.5122 79.4588 66.7562 80.2149 65.8235 80.2149C64.8908 80.2149 64.1348 79.4588 64.1348 78.5261C64.1348 77.5935 64.8908 76.8374 65.8235 76.8374Z" fill="#FF5162"/>
<path d="M69.2024 76.8374C70.1351 76.8374 70.8911 77.5935 70.8911 78.5261C70.8911 79.4588 70.1351 80.2149 69.2024 80.2149C68.2698 80.2149 67.5137 79.4588 67.5137 78.5261C67.5137 77.5935 68.2698 76.8374 69.2024 76.8374Z" fill="#FF5162"/>
<path d="M72.5813 76.8374C73.514 76.8374 74.27 77.5935 74.27 78.5261C74.27 79.4588 73.514 80.2149 72.5813 80.2149C71.6487 80.2149 70.8926 79.4588 70.8926 78.5261C70.8926 77.5935 71.6487 76.8374 72.5813 76.8374Z" fill="#FF5162"/>
<path d="M18.5413 80.2144C19.474 80.2144 20.23 80.9704 20.23 81.9031C20.23 82.8358 19.474 83.5918 18.5413 83.5918C17.6086 83.5918 16.8525 82.8358 16.8525 81.9031C16.8525 80.9704 17.6086 80.2144 18.5413 80.2144Z" fill="#FF5162"/>
<path d="M25.2952 80.2148C26.2279 80.2148 26.9839 80.9709 26.9839 81.9036C26.9839 82.8363 26.2279 83.5923 25.2952 83.5923C24.3625 83.5923 23.6064 82.8363 23.6064 81.9036C23.6064 80.9709 24.3625 80.2148 25.2952 80.2148Z" fill="#FF5162"/>
<path d="M28.6721 80.2144C29.6048 80.2144 30.3609 80.9704 30.3609 81.9031C30.3609 82.8358 29.6048 83.5918 28.6721 83.5918C27.7395 83.5918 26.9834 82.8358 26.9834 81.9031C26.9834 80.9704 27.7395 80.2144 28.6721 80.2144Z" fill="#FF5162"/>
<path d="M32.0501 80.2144C32.9828 80.2144 33.7388 80.9704 33.7388 81.9031C33.7388 82.8358 32.9828 83.5918 32.0501 83.5918C31.1174 83.5918 30.3613 82.8358 30.3613 81.9031C30.3613 80.9704 31.1174 80.2144 32.0501 80.2144Z" fill="#FF5162"/>
<path d="M35.428 80.2144C36.3607 80.2144 37.1167 80.9704 37.1167 81.9031C37.1167 82.8358 36.3607 83.5918 35.428 83.5918C34.4953 83.5918 33.7393 82.8358 33.7393 81.9031C33.7393 80.9704 34.4953 80.2144 35.428 80.2144Z" fill="#FF5162"/>
<path d="M38.804 80.2144C39.7367 80.2144 40.4927 80.9704 40.4927 81.9031C40.4927 82.8358 39.7367 83.5918 38.804 83.5918C37.8713 83.5918 37.1152 82.8358 37.1152 81.9031C37.1152 80.9704 37.8713 80.2144 38.804 80.2144Z" fill="#FF5162"/>
<path d="M59.0696 80.2144C60.0023 80.2144 60.7583 80.9704 60.7583 81.9031C60.7583 82.8358 60.0023 83.5918 59.0696 83.5918C58.1369 83.5918 57.3809 82.8358 57.3809 81.9031C57.3809 80.9704 58.1369 80.2144 59.0696 80.2144Z" fill="#FF5162"/>
<path d="M79.3352 80.2148C80.2679 80.2148 81.024 80.9709 81.024 81.9036C81.024 82.8363 80.2679 83.5923 79.3352 83.5923C78.4026 83.5923 77.6465 82.8363 77.6465 81.9036C77.6465 80.9709 78.4026 80.2148 79.3352 80.2148Z" fill="#FF5162"/>
<path d="M82.7102 80.2139C83.6429 80.2139 84.399 80.9699 84.399 81.9026C84.399 82.8353 83.6429 83.5913 82.7102 83.5913C81.7776 83.5913 81.0215 82.8353 81.0215 81.9026C81.0215 80.9699 81.7776 80.2139 82.7102 80.2139Z" fill="#FF5162"/>
<path d="M86.0891 80.2148C87.0218 80.2148 87.7779 80.9709 87.7779 81.9036C87.7779 82.8363 87.0218 83.5923 86.0891 83.5923C85.1565 83.5923 84.4004 82.8363 84.4004 81.9036C84.4004 80.9709 85.1565 80.2148 86.0891 80.2148Z" fill="#FF5162"/>
<path d="M89.4671 80.2144C90.3998 80.2144 91.1558 80.9704 91.1558 81.9031C91.1558 82.8358 90.3998 83.5918 89.4671 83.5918C88.5344 83.5918 87.7783 82.8358 87.7783 81.9031C87.7783 80.9704 88.5344 80.2144 89.4671 80.2144Z" fill="#FF5162"/>
<path d="M92.845 80.2144C93.7777 80.2144 94.5337 80.9704 94.5337 81.9031C94.5337 82.8358 93.7777 83.5918 92.845 83.5918C91.9123 83.5918 91.1562 82.8358 91.1562 81.9031C91.1562 80.9704 91.9123 80.2144 92.845 80.2144Z" fill="#FF5162"/>
<path d="M18.5413 83.5918C19.474 83.5918 20.23 84.3479 20.23 85.2805C20.23 86.2132 19.474 86.9693 18.5413 86.9693C17.6086 86.9693 16.8525 86.2132 16.8525 85.2805C16.8525 84.3479 17.6086 83.5918 18.5413 83.5918Z" fill="#FF5162"/>
<path d="M28.6721 83.5918C29.6048 83.5918 30.3609 84.3479 30.3609 85.2805C30.3609 86.2132 29.6048 86.9693 28.6721 86.9693C27.7395 86.9693 26.9834 86.2132 26.9834 85.2805C26.9834 84.3479 27.7395 83.5918 28.6721 83.5918Z" fill="#FF5162"/>
<path d="M45.5598 83.5918C46.4925 83.5918 47.2486 84.3479 47.2486 85.2805C47.2486 86.2132 46.4925 86.9693 45.5598 86.9693C44.6272 86.9693 43.8711 86.2132 43.8711 85.2805C43.8711 84.3479 44.6272 83.5918 45.5598 83.5918Z" fill="#FF5162"/>
<path d="M48.9378 83.5923C49.8705 83.5923 50.6265 84.3484 50.6265 85.281C50.6265 86.2137 49.8705 86.9698 48.9378 86.9698C48.0051 86.9698 47.249 86.2137 47.249 85.281C47.249 84.3484 48.0051 83.5923 48.9378 83.5923Z" fill="#FF5162"/>
<path d="M52.3137 83.5918C53.2464 83.5918 54.0025 84.3479 54.0025 85.2805C54.0025 86.2132 53.2464 86.9693 52.3137 86.9693C51.3811 86.9693 50.625 86.2132 50.625 85.2805C50.625 84.3479 51.3811 83.5918 52.3137 83.5918Z" fill="#FF5162"/>
<path d="M62.4465 83.5918C63.3792 83.5918 64.1353 84.3479 64.1353 85.2805C64.1353 86.2132 63.3792 86.9693 62.4465 86.9693C61.5139 86.9693 60.7578 86.2132 60.7578 85.2805C60.7578 84.3479 61.5139 83.5918 62.4465 83.5918Z" fill="#FF5162"/>
<path d="M72.5813 83.5923C73.514 83.5923 74.27 84.3484 74.27 85.281C74.27 86.2137 73.514 86.9698 72.5813 86.9698C71.6487 86.9698 70.8926 86.2137 70.8926 85.281C70.8926 84.3484 71.6487 83.5923 72.5813 83.5923Z" fill="#FF5162"/>
<path d="M82.7102 83.5923C83.6429 83.5923 84.399 84.3484 84.399 85.281C84.399 86.2137 83.6429 86.9698 82.7102 86.9698C81.7776 86.9698 81.0215 86.2137 81.0215 85.281C81.0215 84.3484 81.7776 83.5923 82.7102 83.5923Z" fill="#FF5162"/>
<path d="M96.2229 83.5918C97.1556 83.5918 97.9116 84.3479 97.9116 85.2805C97.9116 86.2132 97.1556 86.9693 96.2229 86.9693C95.2903 86.9693 94.5342 86.2132 94.5342 85.2805C94.5342 84.3479 95.2903 83.5918 96.2229 83.5918Z" fill="#FF5162"/>
<path d="M18.5413 86.9692C19.474 86.9692 20.23 87.7253 20.23 88.658C20.23 89.5907 19.474 90.3467 18.5413 90.3467C17.6086 90.3467 16.8525 89.5907 16.8525 88.658C16.8525 87.7253 17.6086 86.9692 18.5413 86.9692Z" fill="#FF5162"/>
<path d="M28.6721 86.9692C29.6048 86.9692 30.3609 87.7253 30.3609 88.658C30.3609 89.5907 29.6048 90.3467 28.6721 90.3467C27.7395 90.3467 26.9834 89.5907 26.9834 88.658C26.9834 87.7253 27.7395 86.9692 28.6721 86.9692Z" fill="#FF5162"/>
<path d="M32.0501 86.9692C32.9828 86.9692 33.7388 87.7253 33.7388 88.658C33.7388 89.5907 32.9828 90.3467 32.0501 90.3467C31.1174 90.3467 30.3613 89.5907 30.3613 88.658C30.3613 87.7253 31.1174 86.9692 32.0501 86.9692Z" fill="#FF5162"/>
<path d="M38.804 86.9697C39.7367 86.9697 40.4927 87.7258 40.4927 88.6585C40.4927 89.5912 39.7367 90.3472 38.804 90.3472C37.8713 90.3472 37.1152 89.5912 37.1152 88.6585C37.1152 87.7258 37.8713 86.9697 38.804 86.9697Z" fill="#FF5162"/>
<path d="M42.1809 86.9692C43.1136 86.9692 43.8697 87.7253 43.8697 88.658C43.8697 89.5907 43.1136 90.3467 42.1809 90.3467C41.2483 90.3467 40.4922 89.5907 40.4922 88.658C40.4922 87.7253 41.2483 86.9692 42.1809 86.9692Z" fill="#FF5162"/>
<path d="M45.5598 86.9692C46.4925 86.9692 47.2486 87.7253 47.2486 88.658C47.2486 89.5907 46.4925 90.3467 45.5598 90.3467C44.6272 90.3467 43.8711 89.5907 43.8711 88.658C43.8711 87.7253 44.6272 86.9692 45.5598 86.9692Z" fill="#FF5162"/>
<path d="M55.6936 86.9692C56.6263 86.9692 57.3823 87.7253 57.3823 88.658C57.3823 89.5907 56.6263 90.3467 55.6936 90.3467C54.761 90.3467 54.0049 89.5907 54.0049 88.658C54.0049 87.7253 54.761 86.9692 55.6936 86.9692Z" fill="#FF5162"/>
<path d="M62.4465 86.9697C63.3792 86.9697 64.1353 87.7258 64.1353 88.6585C64.1353 89.5912 63.3792 90.3472 62.4465 90.3472C61.5139 90.3472 60.7578 89.5912 60.7578 88.6585C60.7578 87.7258 61.5139 86.9697 62.4465 86.9697Z" fill="#FF5162"/>
<path d="M65.8235 86.9692C66.7562 86.9692 67.5122 87.7253 67.5122 88.658C67.5122 89.5907 66.7562 90.3467 65.8235 90.3467C64.8908 90.3467 64.1348 89.5907 64.1348 88.658C64.1348 87.7253 64.8908 86.9692 65.8235 86.9692Z" fill="#FF5162"/>
<path d="M69.2024 86.9692C70.1351 86.9692 70.8911 87.7253 70.8911 88.658C70.8911 89.5907 70.1351 90.3467 69.2024 90.3467C68.2698 90.3467 67.5137 89.5907 67.5137 88.658C67.5137 87.7253 68.2698 86.9692 69.2024 86.9692Z" fill="#FF5162"/>
<path d="M72.5813 86.9697C73.514 86.9697 74.27 87.7258 74.27 88.6585C74.27 89.5912 73.514 90.3472 72.5813 90.3472C71.6487 90.3472 70.8926 89.5912 70.8926 88.6585C70.8926 87.7258 71.6487 86.9697 72.5813 86.9697Z" fill="#FF5162"/>
<path d="M79.3352 86.9692C80.2679 86.9692 81.024 87.7253 81.024 88.658C81.024 89.5907 80.2679 90.3467 79.3352 90.3467C78.4026 90.3467 77.6465 89.5907 77.6465 88.658C77.6465 87.7253 78.4026 86.9692 79.3352 86.9692Z" fill="#FF5162"/>
<path d="M82.7102 86.9692C83.6429 86.9692 84.399 87.7253 84.399 88.658C84.399 89.5907 83.6429 90.3467 82.7102 90.3467C81.7776 90.3467 81.0215 89.5907 81.0215 88.658C81.0215 87.7253 81.7776 86.9692 82.7102 86.9692Z" fill="#FF5162"/>
<path d="M89.4671 86.9692C90.3998 86.9692 91.1558 87.7253 91.1558 88.658C91.1558 89.5907 90.3998 90.3467 89.4671 90.3467C88.5344 90.3467 87.7783 89.5907 87.7783 88.658C87.7783 87.7253 88.5344 86.9692 89.4671 86.9692Z" fill="#FF5162"/>
<path d="M96.2229 86.9697C97.1556 86.9697 97.9116 87.7258 97.9116 88.6585C97.9116 89.5912 97.1556 90.3472 96.2229 90.3472C95.2903 90.3472 94.5342 89.5912 94.5342 88.6585C94.5342 87.7258 95.2903 86.9697 96.2229 86.9697Z" fill="#FF5162"/>
<path d="M99.5979 86.9692C100.531 86.9692 101.287 87.7253 101.287 88.658C101.287 89.5907 100.531 90.3467 99.5979 90.3467C98.6653 90.3467 97.9092 89.5907 97.9092 88.658C97.9092 87.7253 98.6653 86.9692 99.5979 86.9692Z" fill="#FF5162"/>
<path d="M18.5413 90.3472C19.474 90.3472 20.23 91.1032 20.23 92.0359C20.23 92.9686 19.474 93.7246 18.5413 93.7246C17.6086 93.7246 16.8525 92.9686 16.8525 92.0359C16.8525 91.1032 17.6086 90.3472 18.5413 90.3472Z" fill="#FF5162"/>
<path d="M25.2952 90.3472C26.2279 90.3472 26.9839 91.1032 26.9839 92.0359C26.9839 92.9686 26.2279 93.7246 25.2952 93.7246C24.3625 93.7246 23.6064 92.9686 23.6064 92.0359C23.6064 91.1032 24.3625 90.3472 25.2952 90.3472Z" fill="#FF5162"/>
<path d="M45.5598 90.3472C46.4925 90.3472 47.2486 91.1032 47.2486 92.0359C47.2486 92.9686 46.4925 93.7246 45.5598 93.7246C44.6272 93.7246 43.8711 92.9686 43.8711 92.0359C43.8711 91.1032 44.6272 90.3472 45.5598 90.3472Z" fill="#FF5162"/>
<path d="M48.9378 90.3472C49.8705 90.3472 50.6265 91.1032 50.6265 92.0359C50.6265 92.9686 49.8705 93.7246 48.9378 93.7246C48.0051 93.7246 47.249 92.9686 47.249 92.0359C47.249 91.1032 48.0051 90.3472 48.9378 90.3472Z" fill="#FF5162"/>
<path d="M52.3137 90.3472C53.2464 90.3472 54.0025 91.1032 54.0025 92.0359C54.0025 92.9686 53.2464 93.7246 52.3137 93.7246C51.3811 93.7246 50.625 92.9686 50.625 92.0359C50.625 91.1032 51.3811 90.3472 52.3137 90.3472Z" fill="#FF5162"/>
<path d="M55.6936 90.3472C56.6263 90.3472 57.3823 91.1032 57.3823 92.0359C57.3823 92.9686 56.6263 93.7246 55.6936 93.7246C54.761 93.7246 54.0049 92.9686 54.0049 92.0359C54.0049 91.1032 54.761 90.3472 55.6936 90.3472Z" fill="#FF5162"/>
<path d="M62.4465 90.3472C63.3792 90.3472 64.1353 91.1032 64.1353 92.0359C64.1353 92.9686 63.3792 93.7246 62.4465 93.7246C61.5139 93.7246 60.7578 92.9686 60.7578 92.0359C60.7578 91.1032 61.5139 90.3472 62.4465 90.3472Z" fill="#FF5162"/>
<path d="M72.5813 90.3472C73.514 90.3472 74.27 91.1032 74.27 92.0359C74.27 92.9686 73.514 93.7246 72.5813 93.7246C71.6487 93.7246 70.8926 92.9686 70.8926 92.0359C70.8926 91.1032 71.6487 90.3472 72.5813 90.3472Z" fill="#FF5162"/>
<path d="M99.5979 90.3472C100.531 90.3472 101.287 91.1032 101.287 92.0359C101.287 92.9686 100.531 93.7246 99.5979 93.7246C98.6653 93.7246 97.9092 92.9686 97.9092 92.0359C97.9092 91.1032 98.6653 90.3472 99.5979 90.3472Z" fill="#FF5162"/>
<path d="M32.0501 93.7246C32.9828 93.7246 33.7388 94.4807 33.7388 95.4133C33.7388 96.346 32.9828 97.1021 32.0501 97.1021C31.1174 97.1021 30.3613 96.346 30.3613 95.4133C30.3613 94.4807 31.1174 93.7246 32.0501 93.7246Z" fill="#FF5162"/>
<path d="M38.804 93.7246C39.7367 93.7246 40.4927 94.4807 40.4927 95.4133C40.4927 96.346 39.7367 97.1021 38.804 97.1021C37.8713 97.1021 37.1152 96.346 37.1152 95.4133C37.1152 94.4807 37.8713 93.7246 38.804 93.7246Z" fill="#FF5162"/>
<path d="M48.9378 93.7246C49.8705 93.7246 50.6265 94.4807 50.6265 95.4133C50.6265 96.346 49.8705 97.1021 48.9378 97.1021C48.0051 97.1021 47.249 96.346 47.249 95.4133C47.249 94.4807 48.0051 93.7246 48.9378 93.7246Z" fill="#FF5162"/>
<path d="M59.0696 93.7246C60.0023 93.7246 60.7583 94.4807 60.7583 95.4133C60.7583 96.346 60.0023 97.1021 59.0696 97.1021C58.1369 97.1021 57.3809 96.346 57.3809 95.4133C57.3809 94.4807 58.1369 93.7246 59.0696 93.7246Z" fill="#FF5162"/>
<path d="M65.8235 93.7246C66.7562 93.7246 67.5122 94.4807 67.5122 95.4133C67.5122 96.346 66.7562 97.1021 65.8235 97.1021C64.8908 97.1021 64.1348 96.346 64.1348 95.4133C64.1348 94.4807 64.8908 93.7246 65.8235 93.7246Z" fill="#FF5162"/>
<path d="M75.9563 93.7246C76.889 93.7246 77.645 94.4807 77.645 95.4133C77.645 96.346 76.889 97.1021 75.9563 97.1021C75.0237 97.1021 74.2676 96.346 74.2676 95.4133C74.2676 94.4807 75.0237 93.7246 75.9563 93.7246Z" fill="#FF5162"/>
<path d="M79.3352 93.7246C80.2679 93.7246 81.024 94.4807 81.024 95.4133C81.024 96.346 80.2679 97.1021 79.3352 97.1021C78.4026 97.1021 77.6465 96.346 77.6465 95.4133C77.6465 94.4807 78.4026 93.7246 79.3352 93.7246Z" fill="#FF5162"/>
<path d="M82.7102 93.7251C83.6429 93.7251 84.399 94.4812 84.399 95.4138C84.399 96.3465 83.6429 97.1026 82.7102 97.1026C81.7776 97.1026 81.0215 96.3465 81.0215 95.4138C81.0215 94.4812 81.7776 93.7251 82.7102 93.7251Z" fill="#FF5162"/>
<path d="M86.0891 93.7246C87.0218 93.7246 87.7779 94.4807 87.7779 95.4133C87.7779 96.346 87.0218 97.1021 86.0891 97.1021C85.1565 97.1021 84.4004 96.346 84.4004 95.4133C84.4004 94.4807 85.1565 93.7246 86.0891 93.7246Z" fill="#FF5162"/>
<path d="M92.845 93.7246C93.7777 93.7246 94.5337 94.4807 94.5337 95.4133C94.5337 96.346 93.7777 97.1021 92.845 97.1021C91.9123 97.1021 91.1562 96.346 91.1562 95.4133C91.1562 94.4807 91.9123 93.7246 92.845 93.7246Z" fill="#FF5162"/>
<path d="M96.2229 93.7246C97.1556 93.7246 97.9116 94.4807 97.9116 95.4133C97.9116 96.346 97.1556 97.1021 96.2229 97.1021C95.2903 97.1021 94.5342 96.346 94.5342 95.4133C94.5342 94.4807 95.2903 93.7246 96.2229 93.7246Z" fill="#FF5162"/>
<path d="M99.5979 93.7251C100.531 93.7251 101.287 94.4812 101.287 95.4138C101.287 96.3465 100.531 97.1026 99.5979 97.1026C98.6653 97.1026 97.9092 96.3465 97.9092 95.4138C97.9092 94.4812 98.6653 93.7251 99.5979 93.7251Z" fill="#FF5162"/>
<path d="M18.5413 97.1021C19.474 97.1021 20.23 97.8581 20.23 98.7908C20.23 99.7235 19.474 100.48 18.5413 100.48C17.6086 100.48 16.8525 99.7235 16.8525 98.7908C16.8525 97.8581 17.6086 97.1021 18.5413 97.1021Z" fill="#FF5162"/>
<path d="M21.9172 97.1016C22.8499 97.1016 23.606 97.8576 23.606 98.7903C23.606 99.723 22.8499 100.479 21.9172 100.479C20.9846 100.479 20.2285 99.723 20.2285 98.7903C20.2285 97.8576 20.9846 97.1016 21.9172 97.1016Z" fill="#FF5162"/>
<path d="M32.0501 97.1016C32.9828 97.1016 33.7388 97.8576 33.7388 98.7903C33.7388 99.723 32.9828 100.479 32.0501 100.479C31.1174 100.479 30.3613 99.723 30.3613 98.7903C30.3613 97.8576 31.1174 97.1016 32.0501 97.1016Z" fill="#FF5162"/>
<path d="M35.428 97.1021C36.3607 97.1021 37.1167 97.8581 37.1167 98.7908C37.1167 99.7235 36.3607 100.48 35.428 100.48C34.4953 100.48 33.7393 99.7235 33.7393 98.7908C33.7393 97.8581 34.4953 97.1021 35.428 97.1021Z" fill="#FF5162"/>
<path d="M42.1809 97.1021C43.1136 97.1021 43.8697 97.8581 43.8697 98.7908C43.8697 99.7235 43.1136 100.48 42.1809 100.48C41.2483 100.48 40.4922 99.7235 40.4922 98.7908C40.4922 97.8581 41.2483 97.1021 42.1809 97.1021Z" fill="#FF5162"/>
<path d="M72.5813 97.1016C73.514 97.1016 74.27 97.8576 74.27 98.7903C74.27 99.723 73.514 100.479 72.5813 100.479C71.6487 100.479 70.8926 99.723 70.8926 98.7903C70.8926 97.8576 71.6487 97.1016 72.5813 97.1016Z" fill="#FF5162"/>
<path d="M89.4671 97.1016C90.3998 97.1016 91.1558 97.8576 91.1558 98.7903C91.1558 99.723 90.3998 100.479 89.4671 100.479C88.5344 100.479 87.7783 99.723 87.7783 98.7903C87.7783 97.8576 88.5344 97.1016 89.4671 97.1016Z" fill="#FF5162"/>
<path d="M96.2229 97.1021C97.1556 97.1021 97.9116 97.8581 97.9116 98.7908C97.9116 99.7235 97.1556 100.48 96.2229 100.48C95.2903 100.48 94.5342 99.7235 94.5342 98.7908C94.5342 97.8581 95.2903 97.1021 96.2229 97.1021Z" fill="#FF5162"/>
<path d="M18.5413 100.479C19.474 100.479 20.23 101.236 20.23 102.168C20.23 103.101 19.474 103.857 18.5413 103.857C17.6086 103.857 16.8525 103.101 16.8525 102.168C16.8525 101.236 17.6086 100.479 18.5413 100.479Z" fill="#FF5162"/>
<path d="M28.6721 100.479C29.6048 100.479 30.3609 101.236 30.3609 102.168C30.3609 103.101 29.6048 103.857 28.6721 103.857C27.7395 103.857 26.9834 103.101 26.9834 102.168C26.9834 101.236 27.7395 100.479 28.6721 100.479Z" fill="#FF5162"/>
<path d="M35.428 100.479C36.3607 100.479 37.1167 101.236 37.1167 102.168C37.1167 103.101 36.3607 103.857 35.428 103.857C34.4953 103.857 33.7393 103.101 33.7393 102.168C33.7393 101.236 34.4953 100.479 35.428 100.479Z" fill="#FF5162"/>
<path d="M38.804 100.479C39.7367 100.479 40.4927 101.236 40.4927 102.168C40.4927 103.101 39.7367 103.857 38.804 103.857C37.8713 103.857 37.1152 103.101 37.1152 102.168C37.1152 101.236 37.8713 100.479 38.804 100.479Z" fill="#FF5162"/>
<path d="M42.1809 100.479C43.1136 100.479 43.8697 101.236 43.8697 102.168C43.8697 103.101 43.1136 103.857 42.1809 103.857C41.2483 103.857 40.4922 103.101 40.4922 102.168C40.4922 101.236 41.2483 100.479 42.1809 100.479Z" fill="#FF5162"/>
<path d="M45.5598 100.479C46.4925 100.479 47.2486 101.236 47.2486 102.168C47.2486 103.101 46.4925 103.857 45.5598 103.857C44.6272 103.857 43.8711 103.101 43.8711 102.168C43.8711 101.236 44.6272 100.479 45.5598 100.479Z" fill="#FF5162"/>
<path d="M52.3137 100.479C53.2464 100.479 54.0025 101.236 54.0025 102.168C54.0025 103.101 53.2464 103.857 52.3137 103.857C51.3811 103.857 50.625 103.101 50.625 102.168C50.625 101.236 51.3811 100.479 52.3137 100.479Z" fill="#FF5162"/>
<path d="M55.6936 100.479C56.6263 100.479 57.3823 101.236 57.3823 102.168C57.3823 103.101 56.6263 103.857 55.6936 103.857C54.761 103.857 54.0049 103.101 54.0049 102.168C54.0049 101.236 54.761 100.479 55.6936 100.479Z" fill="#FF5162"/>
<path d="M59.0696 100.479C60.0023 100.479 60.7583 101.236 60.7583 102.168C60.7583 103.101 60.0023 103.857 59.0696 103.857C58.1369 103.857 57.3809 103.101 57.3809 102.168C57.3809 101.236 58.1369 100.479 59.0696 100.479Z" fill="#FF5162"/>
<path d="M69.2024 100.479C70.1351 100.479 70.8911 101.236 70.8911 102.168C70.8911 103.101 70.1351 103.857 69.2024 103.857C68.2698 103.857 67.5137 103.101 67.5137 102.168C67.5137 101.236 68.2698 100.479 69.2024 100.479Z" fill="#FF5162"/>
<path d="M72.5813 100.479C73.514 100.479 74.27 101.236 74.27 102.168C74.27 103.101 73.514 103.857 72.5813 103.857C71.6487 103.857 70.8926 103.101 70.8926 102.168C70.8926 101.236 71.6487 100.479 72.5813 100.479Z" fill="#FF5162"/>
<path d="M75.9563 100.479C76.889 100.479 77.645 101.236 77.645 102.168C77.645 103.101 76.889 103.857 75.9563 103.857C75.0237 103.857 74.2676 103.101 74.2676 102.168C74.2676 101.236 75.0237 100.479 75.9563 100.479Z" fill="#FF5162"/>
<path d="M82.7102 100.479C83.6429 100.479 84.399 101.236 84.399 102.168C84.399 103.101 83.6429 103.857 82.7102 103.857C81.7776 103.857 81.0215 103.101 81.0215 102.168C81.0215 101.236 81.7776 100.479 82.7102 100.479Z" fill="#FF5162"/>
<path d="M89.4671 100.479C90.3998 100.479 91.1558 101.236 91.1558 102.168C91.1558 103.101 90.3998 103.857 89.4671 103.857C88.5344 103.857 87.7783 103.101 87.7783 102.168C87.7783 101.236 88.5344 100.479 89.4671 100.479Z" fill="#FF5162"/>
<path d="M96.2229 100.479C97.1556 100.479 97.9116 101.236 97.9116 102.168C97.9116 103.101 97.1556 103.857 96.2229 103.857C95.2903 103.857 94.5342 103.101 94.5342 102.168C94.5342 101.236 95.2903 100.479 96.2229 100.479Z" fill="#FF5162"/>
<path d="M99.5979 100.479C100.531 100.479 101.287 101.236 101.287 102.168C101.287 103.101 100.531 103.857 99.5979 103.857C98.6653 103.857 97.9092 103.101 97.9092 102.168C97.9092 101.236 98.6653 100.479 99.5979 100.479Z" fill="#FF5162"/>
<path d="M18.5413 103.857C19.474 103.857 20.23 104.613 20.23 105.546C20.23 106.478 19.474 107.234 18.5413 107.234C17.6086 107.234 16.8525 106.478 16.8525 105.546C16.8525 104.613 17.6086 103.857 18.5413 103.857Z" fill="#FF5162"/>
<path d="M28.6721 103.857C29.6048 103.857 30.3609 104.613 30.3609 105.546C30.3609 106.478 29.6048 107.234 28.6721 107.234C27.7395 107.234 26.9834 106.478 26.9834 105.546C26.9834 104.613 27.7395 103.857 28.6721 103.857Z" fill="#FF5162"/>
<path d="M35.428 103.857C36.3607 103.857 37.1167 104.613 37.1167 105.546C37.1167 106.478 36.3607 107.234 35.428 107.234C34.4953 107.234 33.7393 106.478 33.7393 105.546C33.7393 104.613 34.4953 103.857 35.428 103.857Z" fill="#FF5162"/>
<path d="M48.9378 103.857C49.8705 103.857 50.6265 104.613 50.6265 105.546C50.6265 106.478 49.8705 107.234 48.9378 107.234C48.0051 107.234 47.249 106.478 47.249 105.546C47.249 104.613 48.0051 103.857 48.9378 103.857Z" fill="#FF5162"/>
<path d="M55.6936 103.857C56.6263 103.857 57.3823 104.613 57.3823 105.546C57.3823 106.478 56.6263 107.234 55.6936 107.234C54.761 107.234 54.0049 106.478 54.0049 105.546C54.0049 104.613 54.761 103.857 55.6936 103.857Z" fill="#FF5162"/>
<path d="M65.8235 103.857C66.7562 103.857 67.5122 104.613 67.5122 105.546C67.5122 106.478 66.7562 107.234 65.8235 107.234C64.8908 107.234 64.1348 106.478 64.1348 105.546C64.1348 104.613 64.8908 103.857 65.8235 103.857Z" fill="#FF5162"/>
<path d="M75.9563 103.857C76.889 103.857 77.645 104.613 77.645 105.546C77.645 106.478 76.889 107.234 75.9563 107.234C75.0237 107.234 74.2676 106.478 74.2676 105.546C74.2676 104.613 75.0237 103.857 75.9563 103.857Z" fill="#FF5162"/>
<path d="M89.4671 103.857C90.3998 103.857 91.1558 104.613 91.1558 105.546C91.1558 106.478 90.3998 107.234 89.4671 107.234C88.5344 107.234 87.7783 106.478 87.7783 105.546C87.7783 104.613 88.5344 103.857 89.4671 103.857Z" fill="#FF5162"/>
<path d="M99.5979 103.857C100.531 103.857 101.287 104.613 101.287 105.546C101.287 106.478 100.531 107.234 99.5979 107.234C98.6653 107.234 97.9092 106.478 97.9092 105.546C97.9092 104.613 98.6653 103.857 99.5979 103.857Z" fill="#FF5162"/>
<path d="M18.5413 107.234C19.474 107.234 20.23 107.99 20.23 108.923C20.23 109.856 19.474 110.612 18.5413 110.612C17.6086 110.612 16.8525 109.856 16.8525 108.923C16.8525 107.99 17.6086 107.234 18.5413 107.234Z" fill="#FF5162"/>
<path d="M25.2952 107.234C26.2279 107.234 26.9839 107.99 26.9839 108.923C26.9839 109.856 26.2279 110.612 25.2952 110.612C24.3625 110.612 23.6064 109.856 23.6064 108.923C23.6064 107.99 24.3625 107.234 25.2952 107.234Z" fill="#FF5162"/>
<path d="M35.428 107.234C36.3607 107.234 37.1167 107.99 37.1167 108.923C37.1167 109.856 36.3607 110.612 35.428 110.612C34.4953 110.612 33.7393 109.856 33.7393 108.923C33.7393 107.99 34.4953 107.234 35.428 107.234Z" fill="#FF5162"/>
<path d="M38.804 107.234C39.7367 107.234 40.4927 107.99 40.4927 108.923C40.4927 109.856 39.7367 110.612 38.804 110.612C37.8713 110.612 37.1152 109.856 37.1152 108.923C37.1152 107.99 37.8713 107.234 38.804 107.234Z" fill="#FF5162"/>
<path d="M45.5598 107.234C46.4925 107.234 47.2486 107.99 47.2486 108.923C47.2486 109.856 46.4925 110.612 45.5598 110.612C44.6272 110.612 43.8711 109.856 43.8711 108.923C43.8711 107.99 44.6272 107.234 45.5598 107.234Z" fill="#FF5162"/>
<path d="M55.6936 107.234C56.6263 107.234 57.3823 107.99 57.3823 108.923C57.3823 109.856 56.6263 110.612 55.6936 110.612C54.761 110.612 54.0049 109.856 54.0049 108.923C54.0049 107.99 54.761 107.234 55.6936 107.234Z" fill="#FF5162"/>
<path d="M69.2024 107.234C70.1351 107.234 70.8911 107.99 70.8911 108.923C70.8911 109.856 70.1351 110.612 69.2024 110.612C68.2698 110.612 67.5137 109.856 67.5137 108.923C67.5137 107.99 68.2698 107.234 69.2024 107.234Z" fill="#FF5162"/>
<path d="M72.5813 107.234C73.514 107.234 74.27 107.99 74.27 108.923C74.27 109.856 73.514 110.612 72.5813 110.612C71.6487 110.612 70.8926 109.856 70.8926 108.923C70.8926 107.99 71.6487 107.234 72.5813 107.234Z" fill="#FF5162"/>
<path d="M75.9563 107.234C76.889 107.234 77.645 107.99 77.645 108.923C77.645 109.856 76.889 110.612 75.9563 110.612C75.0237 110.612 74.2676 109.856 74.2676 108.923C74.2676 107.99 75.0237 107.234 75.9563 107.234Z" fill="#FF5162"/>
<path d="M79.3352 107.234C80.2679 107.234 81.024 107.99 81.024 108.923C81.024 109.856 80.2679 110.612 79.3352 110.612C78.4026 110.612 77.6465 109.856 77.6465 108.923C77.6465 107.99 78.4026 107.234 79.3352 107.234Z" fill="#FF5162"/>
<path d="M82.7102 107.234C83.6429 107.234 84.399 107.99 84.399 108.923C84.399 109.856 83.6429 110.612 82.7102 110.612C81.7776 110.612 81.0215 109.856 81.0215 108.923C81.0215 107.99 81.7776 107.234 82.7102 107.234Z" fill="#FF5162"/>
<path d="M86.0891 107.234C87.0218 107.234 87.7779 107.99 87.7779 108.923C87.7779 109.856 87.0218 110.612 86.0891 110.612C85.1565 110.612 84.4004 109.856 84.4004 108.923C84.4004 107.99 85.1565 107.234 86.0891 107.234Z" fill="#FF5162"/>
<path d="M92.845 107.234C93.7777 107.234 94.5337 107.99 94.5337 108.923C94.5337 109.856 93.7777 110.612 92.845 110.612C91.9123 110.612 91.1562 109.856 91.1562 108.923C91.1562 107.99 91.9123 107.234 92.845 107.234Z" fill="#FF5162"/>
<path d="M45.5598 110.612C46.4925 110.612 47.2486 111.368 47.2486 112.301C47.2486 113.233 46.4925 113.989 45.5598 113.989C44.6272 113.989 43.8711 113.233 43.8711 112.301C43.8711 111.368 44.6272 110.612 45.5598 110.612Z" fill="#FF5162"/>
<path d="M48.9378 110.612C49.8705 110.612 50.6265 111.368 50.6265 112.301C50.6265 113.234 49.8705 113.99 48.9378 113.99C48.0051 113.99 47.249 113.234 47.249 112.301C47.249 111.368 48.0051 110.612 48.9378 110.612Z" fill="#FF5162"/>
<path d="M52.3137 110.612C53.2464 110.612 54.0025 111.368 54.0025 112.301C54.0025 113.234 53.2464 113.99 52.3137 113.99C51.3811 113.99 50.625 113.234 50.625 112.301C50.625 111.368 51.3811 110.612 52.3137 110.612Z" fill="#FF5162"/>
<path d="M59.0696 110.612C60.0023 110.612 60.7583 111.368 60.7583 112.301C60.7583 113.233 60.0023 113.989 59.0696 113.989C58.1369 113.989 57.3809 113.233 57.3809 112.301C57.3809 111.368 58.1369 110.612 59.0696 110.612Z" fill="#FF5162"/>
<path d="M62.4465 110.612C63.3792 110.612 64.1353 111.368 64.1353 112.301C64.1353 113.233 63.3792 113.989 62.4465 113.989C61.5139 113.989 60.7578 113.233 60.7578 112.301C60.7578 111.368 61.5139 110.612 62.4465 110.612Z" fill="#FF5162"/>
<path d="M65.8235 110.612C66.7562 110.612 67.5122 111.368 67.5122 112.301C67.5122 113.234 66.7562 113.99 65.8235 113.99C64.8908 113.99 64.1348 113.234 64.1348 112.301C64.1348 111.368 64.8908 110.612 65.8235 110.612Z" fill="#FF5162"/>
<path d="M69.2024 110.612C70.1351 110.612 70.8911 111.368 70.8911 112.301C70.8911 113.234 70.1351 113.99 69.2024 113.99C68.2698 113.99 67.5137 113.234 67.5137 112.301C67.5137 111.368 68.2698 110.612 69.2024 110.612Z" fill="#FF5162"/>
<path d="M72.5813 110.612C73.514 110.612 74.27 111.368 74.27 112.301C74.27 113.234 73.514 113.99 72.5813 113.99C71.6487 113.99 70.8926 113.234 70.8926 112.301C70.8926 111.368 71.6487 110.612 72.5813 110.612Z" fill="#FF5162"/>
<path d="M86.0891 110.612C87.0218 110.612 87.7779 111.368 87.7779 112.301C87.7779 113.233 87.0218 113.989 86.0891 113.989C85.1565 113.989 84.4004 113.233 84.4004 112.301C84.4004 111.368 85.1565 110.612 86.0891 110.612Z" fill="#FF5162"/>
<path d="M89.4671 110.612C90.3998 110.612 91.1558 111.368 91.1558 112.301C91.1558 113.234 90.3998 113.99 89.4671 113.99C88.5344 113.99 87.7783 113.234 87.7783 112.301C87.7783 111.368 88.5344 110.612 89.4671 110.612Z" fill="#FF5162"/>
<path d="M92.845 110.612C93.7777 110.612 94.5337 111.368 94.5337 112.301C94.5337 113.233 93.7777 113.989 92.845 113.989C91.9123 113.989 91.1562 113.233 91.1562 112.301C91.1562 111.368 91.9123 110.612 92.845 110.612Z" fill="#FF5162"/>
<path d="M62.4465 113.989C63.3792 113.989 64.1353 114.745 64.1353 115.678C64.1353 116.611 63.3792 117.367 62.4465 117.367C61.5139 117.367 60.7578 116.611 60.7578 115.678C60.7578 114.745 61.5139 113.989 62.4465 113.989Z" fill="#FF5162"/>
<path d="M65.8235 113.989C66.7562 113.989 67.5122 114.745 67.5122 115.678C67.5122 116.61 66.7562 117.366 65.8235 117.366C64.8908 117.366 64.1348 116.61 64.1348 115.678C64.1348 114.745 64.8908 113.989 65.8235 113.989Z" fill="#FF5162"/>
<path d="M72.5813 113.989C73.514 113.989 74.27 114.745 74.27 115.678C74.27 116.61 73.514 117.366 72.5813 117.366C71.6487 117.366 70.8926 116.61 70.8926 115.678C70.8926 114.745 71.6487 113.989 72.5813 113.989Z" fill="#FF5162"/>
<path d="M79.3352 113.989C80.2679 113.989 81.024 114.745 81.024 115.678C81.024 116.611 80.2679 117.367 79.3352 117.367C78.4026 117.367 77.6465 116.611 77.6465 115.678C77.6465 114.745 78.4026 113.989 79.3352 113.989Z" fill="#FF5162"/>
<path d="M86.0891 113.989C87.0218 113.989 87.7779 114.745 87.7779 115.678C87.7779 116.611 87.0218 117.367 86.0891 117.367C85.1565 117.367 84.4004 116.611 84.4004 115.678C84.4004 114.745 85.1565 113.989 86.0891 113.989Z" fill="#FF5162"/>
<path d="M89.4671 113.989C90.3998 113.989 91.1558 114.745 91.1558 115.678C91.1558 116.61 90.3998 117.366 89.4671 117.366C88.5344 117.366 87.7783 116.61 87.7783 115.678C87.7783 114.745 88.5344 113.989 89.4671 113.989Z" fill="#FF5162"/>
<path d="M92.845 113.989C93.7777 113.989 94.5337 114.745 94.5337 115.678C94.5337 116.611 93.7777 117.367 92.845 117.367C91.9123 117.367 91.1562 116.611 91.1562 115.678C91.1562 114.745 91.9123 113.989 92.845 113.989Z" fill="#FF5162"/>
<path d="M96.2229 113.989C97.1556 113.989 97.9116 114.745 97.9116 115.678C97.9116 116.611 97.1556 117.367 96.2229 117.367C95.2903 117.367 94.5342 116.611 94.5342 115.678C94.5342 114.745 95.2903 113.989 96.2229 113.989Z" fill="#FF5162"/>
<path d="M99.5979 113.989C100.531 113.989 101.287 114.745 101.287 115.678C101.287 116.61 100.531 117.366 99.5979 117.366C98.6653 117.366 97.9092 116.61 97.9092 115.678C97.9092 114.745 98.6653 113.989 99.5979 113.989Z" fill="#FF5162"/>
<path d="M45.5598 117.367C46.4925 117.367 47.2486 118.123 47.2486 119.055C47.2486 119.988 46.4925 120.744 45.5598 120.744C44.6272 120.744 43.8711 119.988 43.8711 119.055C43.8711 118.123 44.6272 117.367 45.5598 117.367Z" fill="#FF5162"/>
<path d="M48.9378 117.367C49.8705 117.367 50.6265 118.123 50.6265 119.055C50.6265 119.988 49.8705 120.744 48.9378 120.744C48.0051 120.744 47.249 119.988 47.249 119.055C47.249 118.123 48.0051 117.367 48.9378 117.367Z" fill="#FF5162"/>
<path d="M52.3137 117.367C53.2464 117.367 54.0025 118.123 54.0025 119.055C54.0025 119.988 53.2464 120.744 52.3137 120.744C51.3811 120.744 50.625 119.988 50.625 119.055C50.625 118.123 51.3811 117.367 52.3137 117.367Z" fill="#FF5162"/>
<path d="M59.0696 117.367C60.0023 117.367 60.7583 118.123 60.7583 119.055C60.7583 119.988 60.0023 120.744 59.0696 120.744C58.1369 120.744 57.3809 119.988 57.3809 119.055C57.3809 118.123 58.1369 117.367 59.0696 117.367Z" fill="#FF5162"/>
<path d="M62.4465 117.367C63.3792 117.367 64.1353 118.123 64.1353 119.055C64.1353 119.988 63.3792 120.744 62.4465 120.744C61.5139 120.744 60.7578 119.988 60.7578 119.055C60.7578 118.123 61.5139 117.367 62.4465 117.367Z" fill="#FF5162"/>
<path d="M72.5813 117.367C73.514 117.367 74.27 118.123 74.27 119.055C74.27 119.988 73.514 120.744 72.5813 120.744C71.6487 120.744 70.8926 119.988 70.8926 119.055C70.8926 118.123 71.6487 117.367 72.5813 117.367Z" fill="#FF5162"/>
<path d="M86.0891 117.367C87.0218 117.367 87.7779 118.123 87.7779 119.055C87.7779 119.988 87.0218 120.744 86.0891 120.744C85.1565 120.744 84.4004 119.988 84.4004 119.055C84.4004 118.123 85.1565 117.367 86.0891 117.367Z" fill="#FF5162"/>
<path d="M89.4671 117.367C90.3998 117.367 91.1558 118.123 91.1558 119.055C91.1558 119.988 90.3998 120.744 89.4671 120.744C88.5344 120.744 87.7783 119.988 87.7783 119.055C87.7783 118.123 88.5344 117.367 89.4671 117.367Z" fill="#FF5162"/>
<path d="M96.2229 117.367C97.1556 117.367 97.9116 118.123 97.9116 119.055C97.9116 119.988 97.1556 120.744 96.2229 120.744C95.2903 120.744 94.5342 119.988 94.5342 119.055C94.5342 118.123 95.2903 117.367 96.2229 117.367Z" fill="#FF5162"/>
<path d="M45.5598 120.744C46.4925 120.744 47.2486 121.5 47.2486 122.433C47.2486 123.366 46.4925 124.122 45.5598 124.122C44.6272 124.122 43.8711 123.366 43.8711 122.433C43.8711 121.5 44.6272 120.744 45.5598 120.744Z" fill="#FF5162"/>
<path d="M48.9378 120.744C49.8705 120.744 50.6265 121.5 50.6265 122.433C50.6265 123.366 49.8705 124.122 48.9378 124.122C48.0051 124.122 47.249 123.366 47.249 122.433C47.249 121.5 48.0051 120.744 48.9378 120.744Z" fill="#FF5162"/>
<path d="M52.3137 120.744C53.2464 120.744 54.0025 121.5 54.0025 122.433C54.0025 123.366 53.2464 124.122 52.3137 124.122C51.3811 124.122 50.625 123.366 50.625 122.433C50.625 121.5 51.3811 120.744 52.3137 120.744Z" fill="#FF5162"/>
<path d="M59.0696 120.744C60.0023 120.744 60.7583 121.5 60.7583 122.433C60.7583 123.366 60.0023 124.122 59.0696 124.122C58.1369 124.122 57.3809 123.366 57.3809 122.433C57.3809 121.5 58.1369 120.744 59.0696 120.744Z" fill="#FF5162"/>
<path d="M65.8235 120.744C66.7562 120.744 67.5122 121.5 67.5122 122.433C67.5122 123.366 66.7562 124.122 65.8235 124.122C64.8908 124.122 64.1348 123.366 64.1348 122.433C64.1348 121.5 64.8908 120.744 65.8235 120.744Z" fill="#FF5162"/>
<path d="M69.2024 120.744C70.1351 120.744 70.8911 121.5 70.8911 122.433C70.8911 123.366 70.1351 124.122 69.2024 124.122C68.2698 124.122 67.5137 123.366 67.5137 122.433C67.5137 121.5 68.2698 120.744 69.2024 120.744Z" fill="#FF5162"/>
<path d="M72.5813 120.744C73.514 120.744 74.27 121.5 74.27 122.433C74.27 123.366 73.514 124.122 72.5813 124.122C71.6487 124.122 70.8926 123.366 70.8926 122.433C70.8926 121.5 71.6487 120.744 72.5813 120.744Z" fill="#FF5162"/>
<path d="M75.9563 120.744C76.889 120.744 77.645 121.5 77.645 122.433C77.645 123.366 76.889 124.122 75.9563 124.122C75.0237 124.122 74.2676 123.366 74.2676 122.433C74.2676 121.5 75.0237 120.744 75.9563 120.744Z" fill="#FF5162"/>
<path d="M79.3352 120.744C80.2679 120.744 81.024 121.5 81.024 122.433C81.024 123.366 80.2679 124.122 79.3352 124.122C78.4026 124.122 77.6465 123.366 77.6465 122.433C77.6465 121.5 78.4026 120.744 79.3352 120.744Z" fill="#FF5162"/>
<path d="M82.7102 120.744C83.6429 120.744 84.399 121.5 84.399 122.433C84.399 123.366 83.6429 124.122 82.7102 124.122C81.7776 124.122 81.0215 123.366 81.0215 122.433C81.0215 121.5 81.7776 120.744 82.7102 120.744Z" fill="#FF5162"/>
<path d="M86.0891 120.744C87.0218 120.744 87.7779 121.5 87.7779 122.433C87.7779 123.366 87.0218 124.122 86.0891 124.122C85.1565 124.122 84.4004 123.366 84.4004 122.433C84.4004 121.5 85.1565 120.744 86.0891 120.744Z" fill="#FF5162"/>
<path d="M89.4671 120.744C90.3998 120.744 91.1558 121.5 91.1558 122.433C91.1558 123.366 90.3998 124.122 89.4671 124.122C88.5344 124.122 87.7783 123.366 87.7783 122.433C87.7783 121.5 88.5344 120.744 89.4671 120.744Z" fill="#FF5162"/>
<path d="M92.845 120.744C93.7777 120.744 94.5337 121.5 94.5337 122.433C94.5337 123.366 93.7777 124.122 92.845 124.122C91.9123 124.122 91.1562 123.366 91.1562 122.433C91.1562 121.5 91.9123 120.744 92.845 120.744Z" fill="#FF5162"/>
<path d="M99.5979 120.744C100.531 120.744 101.287 121.5 101.287 122.433C101.287 123.366 100.531 124.122 99.5979 124.122C98.6653 124.122 97.9092 123.366 97.9092 122.433C97.9092 121.5 98.6653 120.744 99.5979 120.744Z" fill="#FF5162"/>
<path d="M45.5598 124.122C46.4925 124.122 47.2486 124.878 47.2486 125.81C47.2486 126.743 46.4925 127.499 45.5598 127.499C44.6272 127.499 43.8711 126.743 43.8711 125.81C43.8711 124.878 44.6272 124.122 45.5598 124.122Z" fill="#FF5162"/>
<path d="M48.9378 124.122C49.8705 124.122 50.6265 124.878 50.6265 125.81C50.6265 126.743 49.8705 127.499 48.9378 127.499C48.0051 127.499 47.249 126.743 47.249 125.81C47.249 124.878 48.0051 124.122 48.9378 124.122Z" fill="#FF5162"/>
<path d="M69.2024 124.122C70.1351 124.122 70.8911 124.878 70.8911 125.81C70.8911 126.743 70.1351 127.499 69.2024 127.499C68.2698 127.499 67.5137 126.743 67.5137 125.81C67.5137 124.878 68.2698 124.122 69.2024 124.122Z" fill="#FF5162"/>
<path d="M72.5813 124.122C73.514 124.122 74.27 124.878 74.27 125.81C74.27 126.743 73.514 127.499 72.5813 127.499C71.6487 127.499 70.8926 126.743 70.8926 125.81C70.8926 124.878 71.6487 124.122 72.5813 124.122Z" fill="#FF5162"/>
<path d="M75.9563 124.122C76.889 124.122 77.645 124.878 77.645 125.81C77.645 126.743 76.889 127.499 75.9563 127.499C75.0237 127.499 74.2676 126.743 74.2676 125.81C74.2676 124.878 75.0237 124.122 75.9563 124.122Z" fill="#FF5162"/>
<path d="M79.3352 124.122C80.2679 124.122 81.024 124.878 81.024 125.81C81.024 126.743 80.2679 127.499 79.3352 127.499C78.4026 127.499 77.6465 126.743 77.6465 125.81C77.6465 124.878 78.4026 124.122 79.3352 124.122Z" fill="#FF5162"/>
<path d="M82.7102 124.122C83.6429 124.122 84.399 124.878 84.399 125.81C84.399 126.743 83.6429 127.499 82.7102 127.499C81.7776 127.499 81.0215 126.743 81.0215 125.81C81.0215 124.878 81.7776 124.122 82.7102 124.122Z" fill="#FF5162"/>
<path d="M92.845 124.122C93.7777 124.122 94.5337 124.878 94.5337 125.81C94.5337 126.743 93.7777 127.499 92.845 127.499C91.9123 127.499 91.1562 126.743 91.1562 125.81C91.1562 124.878 91.9123 124.122 92.845 124.122Z" fill="#FF5162"/>
<path d="M96.2229 124.122C97.1556 124.122 97.9116 124.878 97.9116 125.81C97.9116 126.743 97.1556 127.499 96.2229 127.499C95.2903 127.499 94.5342 126.743 94.5342 125.81C94.5342 124.878 95.2903 124.122 96.2229 124.122Z" fill="#FF5162"/>
<path d="M99.5979 124.122C100.531 124.122 101.287 124.878 101.287 125.81C101.287 126.743 100.531 127.499 99.5979 127.499C98.6653 127.499 97.9092 126.743 97.9092 125.81C97.9092 124.878 98.6653 124.122 99.5979 124.122Z" fill="#FF5162"/>
<path d="M45.5598 127.499C46.4925 127.499 47.2486 128.255 47.2486 129.188C47.2486 130.12 46.4925 130.876 45.5598 130.876C44.6272 130.876 43.8711 130.12 43.8711 129.188C43.8711 128.255 44.6272 127.499 45.5598 127.499Z" fill="#FF5162"/>
<path d="M48.9378 127.5C49.8705 127.5 50.6265 128.256 50.6265 129.188C50.6265 130.121 49.8705 130.877 48.9378 130.877C48.0051 130.877 47.249 130.121 47.249 129.188C47.249 128.256 48.0051 127.5 48.9378 127.5Z" fill="#FF5162"/>
<path d="M55.6936 127.5C56.6263 127.5 57.3823 128.256 57.3823 129.188C57.3823 130.121 56.6263 130.877 55.6936 130.877C54.761 130.877 54.0049 130.121 54.0049 129.188C54.0049 128.256 54.761 127.5 55.6936 127.5Z" fill="#FF5162"/>
<path d="M59.0696 127.499C60.0023 127.499 60.7583 128.255 60.7583 129.188C60.7583 130.12 60.0023 130.876 59.0696 130.876C58.1369 130.876 57.3809 130.12 57.3809 129.188C57.3809 128.255 58.1369 127.499 59.0696 127.499Z" fill="#FF5162"/>
<path d="M72.5813 127.5C73.514 127.5 74.27 128.256 74.27 129.188C74.27 130.121 73.514 130.877 72.5813 130.877C71.6487 130.877 70.8926 130.121 70.8926 129.188C70.8926 128.256 71.6487 127.5 72.5813 127.5Z" fill="#FF5162"/>
<path d="M75.9563 127.499C76.889 127.499 77.645 128.255 77.645 129.188C77.645 130.12 76.889 130.876 75.9563 130.876C75.0237 130.876 74.2676 130.12 74.2676 129.188C74.2676 128.255 75.0237 127.499 75.9563 127.499Z" fill="#FF5162"/>
<path d="M82.7102 127.5C83.6429 127.5 84.399 128.256 84.399 129.188C84.399 130.121 83.6429 130.877 82.7102 130.877C81.7776 130.877 81.0215 130.121 81.0215 129.188C81.0215 128.256 81.7776 127.5 82.7102 127.5Z" fill="#FF5162"/>
<path d="M92.845 127.499C93.7777 127.499 94.5337 128.255 94.5337 129.188C94.5337 130.12 93.7777 130.876 92.845 130.876C91.9123 130.876 91.1562 130.12 91.1562 129.188C91.1562 128.255 91.9123 127.499 92.845 127.499Z" fill="#FF5162"/>
<path d="M99.5979 127.5C100.531 127.5 101.287 128.256 101.287 129.188C101.287 130.121 100.531 130.877 99.5979 130.877C98.6653 130.877 97.9092 130.121 97.9092 129.188C97.9092 128.256 98.6653 127.5 99.5979 127.5Z" fill="#FF5162"/>
<path d="M48.9378 130.876C49.8705 130.876 50.6265 131.633 50.6265 132.565C50.6265 133.498 49.8705 134.254 48.9378 134.254C48.0051 134.254 47.249 133.498 47.249 132.565C47.249 131.633 48.0051 130.876 48.9378 130.876Z" fill="#FF5162"/>
<path d="M55.6936 130.876C56.6263 130.876 57.3823 131.633 57.3823 132.565C57.3823 133.498 56.6263 134.254 55.6936 134.254C54.761 134.254 54.0049 133.498 54.0049 132.565C54.0049 131.633 54.761 130.876 55.6936 130.876Z" fill="#FF5162"/>
<path d="M65.8235 130.876C66.7562 130.876 67.5122 131.633 67.5122 132.565C67.5122 133.498 66.7562 134.254 65.8235 134.254C64.8908 134.254 64.1348 133.498 64.1348 132.565C64.1348 131.633 64.8908 130.876 65.8235 130.876Z" fill="#FF5162"/>
<path d="M69.2024 130.876C70.1351 130.876 70.8911 131.633 70.8911 132.565C70.8911 133.498 70.1351 134.254 69.2024 134.254C68.2698 134.254 67.5137 133.498 67.5137 132.565C67.5137 131.633 68.2698 130.876 69.2024 130.876Z" fill="#FF5162"/>
<path d="M72.5813 130.876C73.514 130.876 74.27 131.633 74.27 132.565C74.27 133.498 73.514 134.254 72.5813 134.254C71.6487 134.254 70.8926 133.498 70.8926 132.565C70.8926 131.633 71.6487 130.876 72.5813 130.876Z" fill="#FF5162"/>
<path d="M82.7102 130.876C83.6429 130.876 84.399 131.632 84.399 132.565C84.399 133.497 83.6429 134.253 82.7102 134.253C81.7776 134.253 81.0215 133.497 81.0215 132.565C81.0215 131.632 81.7776 130.876 82.7102 130.876Z" fill="#FF5162"/>
<path d="M86.0891 130.876C87.0218 130.876 87.7779 131.633 87.7779 132.565C87.7779 133.498 87.0218 134.254 86.0891 134.254C85.1565 134.254 84.4004 133.498 84.4004 132.565C84.4004 131.633 85.1565 130.876 86.0891 130.876Z" fill="#FF5162"/>
<path d="M89.4671 130.876C90.3998 130.876 91.1558 131.633 91.1558 132.565C91.1558 133.498 90.3998 134.254 89.4671 134.254C88.5344 134.254 87.7783 133.498 87.7783 132.565C87.7783 131.633 88.5344 130.876 89.4671 130.876Z" fill="#FF5162"/>
<path d="M99.5979 130.876C100.531 130.876 101.287 131.632 101.287 132.565C101.287 133.497 100.531 134.253 99.5979 134.253C98.6653 134.253 97.9092 133.497 97.9092 132.565C97.9092 131.632 98.6653 130.876 99.5979 130.876Z" fill="#FF5162"/>
<path d="M45.5598 134.254C46.4925 134.254 47.2486 135.01 47.2486 135.943C47.2486 136.875 46.4925 137.631 45.5598 137.631C44.6272 137.631 43.8711 136.875 43.8711 135.943C43.8711 135.01 44.6272 134.254 45.5598 134.254Z" fill="#FF5162"/>
<path d="M48.9378 134.254C49.8705 134.254 50.6265 135.01 50.6265 135.943C50.6265 136.875 49.8705 137.631 48.9378 137.631C48.0051 137.631 47.249 136.875 47.249 135.943C47.249 135.01 48.0051 134.254 48.9378 134.254Z" fill="#FF5162"/>
<path d="M55.6936 134.254C56.6263 134.254 57.3823 135.01 57.3823 135.943C57.3823 136.875 56.6263 137.631 55.6936 137.631C54.761 137.631 54.0049 136.875 54.0049 135.943C54.0049 135.01 54.761 134.254 55.6936 134.254Z" fill="#FF5162"/>
<path d="M69.2024 134.254C70.1351 134.254 70.8911 135.01 70.8911 135.943C70.8911 136.875 70.1351 137.631 69.2024 137.631C68.2698 137.631 67.5137 136.875 67.5137 135.943C67.5137 135.01 68.2698 134.254 69.2024 134.254Z" fill="#FF5162"/>
<path d="M79.3352 134.254C80.2679 134.254 81.024 135.01 81.024 135.943C81.024 136.875 80.2679 137.631 79.3352 137.631C78.4026 137.631 77.6465 136.875 77.6465 135.943C77.6465 135.01 78.4026 134.254 79.3352 134.254Z" fill="#FF5162"/>
<path d="M82.7102 134.254C83.6429 134.254 84.399 135.01 84.399 135.943C84.399 136.875 83.6429 137.631 82.7102 137.631C81.7776 137.631 81.0215 136.875 81.0215 135.943C81.0215 135.01 81.7776 134.254 82.7102 134.254Z" fill="#FF5162"/>
<path d="M86.0891 134.254C87.0218 134.254 87.7779 135.01 87.7779 135.943C87.7779 136.875 87.0218 137.631 86.0891 137.631C85.1565 137.631 84.4004 136.875 84.4004 135.943C84.4004 135.01 85.1565 134.254 86.0891 134.254Z" fill="#FF5162"/>
<path d="M89.4671 134.254C90.3998 134.254 91.1558 135.01 91.1558 135.943C91.1558 136.875 90.3998 137.631 89.4671 137.631C88.5344 137.631 87.7783 136.875 87.7783 135.943C87.7783 135.01 88.5344 134.254 89.4671 134.254Z" fill="#FF5162"/>
<path d="M92.845 134.254C93.7777 134.254 94.5337 135.01 94.5337 135.943C94.5337 136.875 93.7777 137.631 92.845 137.631C91.9123 137.631 91.1562 136.875 91.1562 135.943C91.1562 135.01 91.9123 134.254 92.845 134.254Z" fill="#FF5162"/>
<path d="M96.2229 134.254C97.1556 134.254 97.9116 135.01 97.9116 135.943C97.9116 136.875 97.1556 137.631 96.2229 137.631C95.2903 137.631 94.5342 136.875 94.5342 135.943C94.5342 135.01 95.2903 134.254 96.2229 134.254Z" fill="#FF5162"/>
<path d="M99.5979 134.254C100.531 134.254 101.287 135.01 101.287 135.943C101.287 136.875 100.531 137.631 99.5979 137.631C98.6653 137.631 97.9092 136.875 97.9092 135.943C97.9092 135.01 98.6653 134.254 99.5979 134.254Z" fill="#FF5162"/>
<path d="M32.4231 53.1963H24.9242C21.2696 53.1963 18.1734 55.6109 17.1835 58.9111C17.0812 59.2525 17.0012 59.6033 16.9457 59.962C16.8845 60.3578 16.8525 60.763 16.8525 61.1756V68.8524C16.8525 73.2544 20.4745 76.8341 24.9242 76.8341L28.6737 76.8348L32.4231 76.8338C36.8726 76.8338 40.4948 73.2541 40.4948 68.8522V61.1756C40.4948 56.7757 36.8728 53.1963 32.4231 53.1963ZM36.9485 68.8524C36.9485 71.298 34.9185 73.2877 32.4221 73.2877L28.6737 73.2884L24.9252 73.2875C22.4288 73.2875 20.3989 71.2977 20.3989 68.8524V61.1756C20.3989 60.4117 20.597 59.6925 20.9457 59.0641C21.2814 58.4595 21.7564 57.9396 22.3283 57.546C23.0636 57.0398 23.9589 56.7426 24.924 56.7426H32.4231C34.9185 56.7426 36.9485 58.7312 36.9485 61.1756V68.8524Z" fill="#FF5162"/>
<path d="M93.219 53.1968H85.7201C82.0655 53.1968 78.9693 55.6114 77.9794 58.9116C77.8771 59.253 77.7971 59.6038 77.7416 59.9625C77.6804 60.3583 77.6484 60.7635 77.6484 61.176V68.8529C77.6484 73.2549 81.2704 76.8345 85.7201 76.8345L89.4696 76.8353L93.219 76.8343C97.6685 76.8343 101.291 73.2546 101.291 68.8527V61.176C101.291 56.7762 97.6687 53.1968 93.219 53.1968ZM97.7444 68.8529C97.7444 71.2985 95.7144 73.2882 93.218 73.2882L89.4696 73.2889L85.7211 73.288C83.2247 73.288 81.1948 71.2982 81.1948 68.8529V61.176C81.1948 60.4122 81.3929 59.693 81.7416 59.0645C82.0773 58.46 82.5523 57.9401 83.1242 57.5465C83.8595 57.0403 84.7548 56.7431 85.7199 56.7431H93.219C95.7144 56.7431 97.7444 58.7317 97.7444 61.176V68.8529Z" fill="#FF5162"/>
<path d="M32.4231 113.991H24.9242C21.2696 113.991 18.1734 116.406 17.1835 119.706C17.0812 120.047 17.0012 120.398 16.9457 120.757C16.8845 121.153 16.8525 121.558 16.8525 121.97V129.647C16.8525 134.049 20.4745 137.629 24.9242 137.629L28.6737 137.63L32.4231 137.629C36.8726 137.629 40.4948 134.049 40.4948 129.647V121.97C40.4948 117.571 36.8728 113.991 32.4231 113.991ZM36.9485 129.647C36.9485 132.093 34.9185 134.083 32.4221 134.083L28.6737 134.083L24.9252 134.082C22.4288 134.082 20.3989 132.093 20.3989 129.647V121.97C20.3989 121.207 20.597 120.487 20.9457 119.859C21.2814 119.254 21.7564 118.735 22.3283 118.341C23.0636 117.835 23.9589 117.538 24.924 117.538H32.4231C34.9185 117.538 36.9485 119.526 36.9485 121.97V129.647Z" fill="#FF5162"/>
<path d="M33.7388 59.9497H23.6064V70.0821H33.7388V59.9497Z" fill="#FF5162"/>
<path d="M94.5328 59.9497H84.4004V70.0821H94.5328V59.9497Z" fill="#FF5162"/>
<path d="M33.7388 120.744H23.6064V130.877H33.7388V120.744Z" fill="#FF5162"/>
<rect x="13.8948" y="4.64386" width="90.3472" height="27.8641" rx="3.79965" stroke="white" stroke-width="0.844366"/>
<path d="M32.6165 24.633C31.6471 24.633 30.8251 24.4697 30.1507 24.143C29.4763 23.8058 28.902 23.3738 28.4278 22.8469L30.0085 21.2504C30.7566 22.0935 31.6787 22.515 32.7746 22.515C33.3647 22.515 33.802 22.3938 34.0865 22.1514C34.3711 21.909 34.5133 21.5876 34.5133 21.1872C34.5133 20.8816 34.429 20.6287 34.2604 20.4285C34.0918 20.2177 33.7493 20.0755 33.233 20.0017L32.1423 19.8595C30.9726 19.7119 30.1138 19.3589 29.5659 18.8004C29.0284 18.2419 28.7597 17.499 28.7597 16.5717C28.7597 16.0764 28.8546 15.6233 29.0443 15.2123C29.2339 14.8014 29.5026 14.4484 29.8504 14.1533C30.2087 13.8582 30.6407 13.6317 31.1465 13.4736C31.6629 13.305 32.2477 13.2207 32.901 13.2207C33.7335 13.2207 34.4659 13.3524 35.0982 13.6159C35.7304 13.8793 36.2731 14.2639 36.7262 14.7698L35.1298 16.382C34.8663 16.0764 34.5449 15.8288 34.1656 15.6391C33.7968 15.4389 33.3278 15.3388 32.7588 15.3388C32.2214 15.3388 31.8209 15.4336 31.5575 15.6233C31.294 15.813 31.1623 16.0764 31.1623 16.4136C31.1623 16.793 31.2624 17.067 31.4627 17.2356C31.6734 17.4042 32.0106 17.5254 32.4743 17.5991L33.5649 17.773C34.703 17.9521 35.546 18.3052 36.094 18.832C36.6419 19.3484 36.9159 20.086 36.9159 21.045C36.9159 21.5718 36.8211 22.0566 36.6314 22.4992C36.4417 22.9417 36.1625 23.3211 35.7936 23.6372C35.4354 23.9534 34.9875 24.201 34.4501 24.3801C33.9127 24.5487 33.3015 24.633 32.6165 24.633ZM42.1324 24.633C41.5107 24.633 40.9575 24.5329 40.4727 24.3327C39.988 24.122 39.5823 23.8322 39.2556 23.4634C38.929 23.084 38.6813 22.6256 38.5127 22.0882C38.3441 21.5508 38.2598 20.9501 38.2598 20.2862C38.2598 19.6224 38.3441 19.027 38.5127 18.5001C38.6813 17.9627 38.929 17.5043 39.2556 17.1249C39.5823 16.7456 39.988 16.4558 40.4727 16.2556C40.9575 16.0554 41.5107 15.9552 42.1324 15.9552C42.9755 15.9552 43.6762 16.1449 44.2347 16.5243C44.8037 16.9036 45.2094 17.4358 45.4518 18.1207L43.555 18.9427C43.4813 18.6266 43.3285 18.3578 43.0966 18.1366C42.8648 17.9153 42.5434 17.8046 42.1324 17.8046C41.6582 17.8046 41.3 17.9627 41.0576 18.2788C40.8152 18.5844 40.694 19.0006 40.694 19.5275V21.0766C40.694 21.6035 40.8152 22.0197 41.0576 22.3253C41.3 22.6309 41.6582 22.7837 42.1324 22.7837C42.5539 22.7837 42.8859 22.673 43.1282 22.4517C43.3812 22.2199 43.5656 21.9196 43.6815 21.5508L45.4992 22.3411C45.2252 23.1314 44.7985 23.711 44.2189 24.0798C43.6499 24.4486 42.9544 24.633 42.1324 24.633ZM53.0801 24.4434C52.6586 24.4434 52.3055 24.3116 52.021 24.0482C51.747 23.7848 51.5732 23.4317 51.4994 22.9892H51.4046C51.2781 23.5266 50.9989 23.9376 50.5668 24.2221C50.1348 24.496 49.6026 24.633 48.9704 24.633C48.1379 24.633 47.5004 24.4117 47.0578 23.9692C46.6152 23.5266 46.3939 22.9417 46.3939 22.2146C46.3939 21.34 46.71 20.6919 47.3423 20.2704C47.9851 19.8384 48.8545 19.6224 49.9504 19.6224H51.2623V19.1007C51.2623 18.7003 51.1569 18.3842 50.9462 18.1524C50.7354 17.91 50.3824 17.7888 49.8871 17.7888C49.4235 17.7888 49.0547 17.8889 48.7807 18.0891C48.5067 18.2893 48.2801 18.5159 48.101 18.7688L46.71 17.5359C47.0472 17.0406 47.4687 16.656 47.9746 16.382C48.4909 16.0975 49.1864 15.9552 50.061 15.9552C51.2412 15.9552 52.1264 16.2134 52.7165 16.7298C53.3066 17.2461 53.6017 17.9996 53.6017 18.9901V22.6256H54.3762V24.4434H53.0801ZM49.8397 23.005C50.2296 23.005 50.5616 22.9207 50.8355 22.7521C51.1201 22.5835 51.2623 22.3095 51.2623 21.9301V20.9501H50.1242C49.2075 20.9501 48.7491 21.261 48.7491 21.8827V22.1198C48.7491 22.4254 48.8439 22.652 49.0336 22.7995C49.2233 22.9365 49.492 23.005 49.8397 23.005ZM55.9464 24.4434V16.1449H58.2857V17.5517H58.3806C58.5281 17.1197 58.7863 16.7456 59.1551 16.4294C59.5239 16.1133 60.035 15.9552 60.6883 15.9552C61.5419 15.9552 62.1847 16.2398 62.6167 16.8088C63.0593 17.3778 63.2806 18.1892 63.2806 19.243V24.4434H60.9412V19.4327C60.9412 18.8953 60.8569 18.5001 60.6883 18.2472C60.5197 17.9838 60.2194 17.852 59.7874 17.852C59.5977 17.852 59.4133 17.8784 59.2341 17.9311C59.055 17.9732 58.8916 18.047 58.7441 18.1524C58.6071 18.2577 58.4965 18.3895 58.4122 18.5475C58.3279 18.695 58.2857 18.8689 58.2857 19.0691V24.4434H55.9464ZM77.4754 17.204H77.4279L76.6218 18.8162L74.4721 22.7204L72.3698 18.832L71.5321 17.0933H71.4847V24.4434H69.2243V13.4104H71.7692L74.4721 18.5791H74.5037L77.175 13.4104H79.7357V24.4434H77.4754V17.204ZM85.5104 24.633C84.8781 24.633 84.3144 24.5329 83.8191 24.3327C83.3238 24.122 82.9023 23.8322 82.5546 23.4634C82.2174 23.084 81.9592 22.6256 81.7801 22.0882C81.6114 21.5508 81.5271 20.9501 81.5271 20.2862C81.5271 19.6329 81.6114 19.0428 81.7801 18.5159C81.9487 17.9785 82.1963 17.5201 82.523 17.1407C82.8602 16.7614 83.2711 16.4716 83.7559 16.2714C84.2406 16.0606 84.7938 15.9552 85.4156 15.9552C86.1005 15.9552 86.6853 16.0712 87.1701 16.303C87.6654 16.5348 88.0658 16.8457 88.3714 17.2356C88.6875 17.6255 88.9141 18.0786 89.0511 18.5949C89.1986 19.1007 89.2723 19.6329 89.2723 20.1914V20.8869H83.9455V21.0133C83.9455 21.5613 84.0931 21.9986 84.3881 22.3253C84.6832 22.6414 85.1468 22.7995 85.7791 22.7995C86.2638 22.7995 86.659 22.7046 86.9646 22.515C87.2702 22.3147 87.5547 22.0776 87.8181 21.8037L88.9878 23.2579C88.619 23.6899 88.1343 24.0271 87.5336 24.2695C86.9435 24.5119 86.2691 24.633 85.5104 24.633ZM85.463 17.6782C84.9888 17.6782 84.6147 17.8362 84.3407 18.1524C84.0773 18.458 83.9455 18.8689 83.9455 19.3853V19.5117H86.8539V19.3695C86.8539 18.8637 86.738 18.458 86.5062 18.1524C86.2849 17.8362 85.9372 17.6782 85.463 17.6782Z" fill="white"/>
</svg>
