<svg width="125" height="152" viewBox="0 0 125 152" fill="none" xmlns="http://www.w3.org/2000/svg">
<rect width="125" height="152" rx="4.22183" fill="#17B556"/>
<path d="M50.1552 43.1216C51.3104 43.1216 52.2468 44.0581 52.2468 45.2133C52.2468 46.3685 51.3104 47.3049 50.1552 47.3049C49 47.3049 48.0635 46.3685 48.0635 45.2133C48.0635 44.0581 49 43.1216 50.1552 43.1216Z" fill="white"/>
<path d="M58.5233 43.1216C59.6786 43.1216 60.615 44.0581 60.615 45.2133C60.615 46.3685 59.6786 47.3049 58.5233 47.3049C57.3681 47.3049 56.4316 46.3685 56.4316 45.2133C56.4316 44.0581 57.3681 43.1216 58.5233 43.1216Z" fill="white"/>
<path d="M79.4403 43.1216C80.5956 43.1216 81.532 44.0581 81.532 45.2133C81.532 46.3685 80.5956 47.3049 79.4403 47.3049C78.2851 47.3049 77.3486 46.3685 77.3486 45.2133C77.3486 44.0581 78.2851 43.1216 79.4403 43.1216Z" fill="white"/>
<path d="M50.1552 47.3047C51.3104 47.3047 52.2468 48.2412 52.2468 49.3964C52.2468 50.5516 51.3104 51.488 50.1552 51.488C49 51.488 48.0635 50.5516 48.0635 49.3964C48.0635 48.2412 49 47.3047 50.1552 47.3047Z" fill="white"/>
<path d="M58.5233 47.3042C59.6786 47.3042 60.615 48.2407 60.615 49.3959C60.615 50.5511 59.6786 51.4876 58.5233 51.4876C57.3681 51.4876 56.4316 50.5511 56.4316 49.3959C56.4316 48.2407 57.3681 47.3042 58.5233 47.3042Z" fill="white"/>
<path d="M75.2557 47.3047C76.411 47.3047 77.3474 48.2412 77.3474 49.3964C77.3474 50.5516 76.411 51.488 75.2557 51.488C74.1005 51.488 73.1641 50.5516 73.1641 49.3964C73.1641 48.2412 74.1005 47.3047 75.2557 47.3047Z" fill="white"/>
<path d="M45.9725 51.4883C47.1278 51.4883 48.0642 52.4248 48.0642 53.58C48.0642 54.7352 47.1278 55.6716 45.9725 55.6716C44.8173 55.6716 43.8809 54.7352 43.8809 53.58C43.8809 52.4248 44.8173 51.4883 45.9725 51.4883Z" fill="white"/>
<path d="M54.3387 51.4883C55.494 51.4883 56.4304 52.4248 56.4304 53.58C56.4304 54.7352 55.494 55.6716 54.3387 55.6716C53.1836 55.6716 52.2471 54.7352 52.2471 53.58C52.2471 52.4248 53.1836 51.4883 54.3387 51.4883Z" fill="white"/>
<path d="M71.0712 51.4888C72.2264 51.4888 73.1628 52.4253 73.1628 53.5804C73.1628 54.7357 72.2264 55.6721 71.0712 55.6721C69.916 55.6721 68.9795 54.7357 68.9795 53.5804C68.9795 52.4253 69.916 51.4888 71.0712 51.4888Z" fill="white"/>
<path d="M79.4403 51.4888C80.5956 51.4888 81.532 52.4253 81.532 53.5804C81.532 54.7357 80.5956 55.6721 79.4403 55.6721C78.2851 55.6721 77.3486 54.7357 77.3486 53.5804C77.3486 52.4253 78.2851 51.4888 79.4403 51.4888Z" fill="white"/>
<path d="M45.9725 55.6714C47.1278 55.6714 48.0642 56.6079 48.0642 57.7631C48.0642 58.9183 47.1278 59.8547 45.9725 59.8547C44.8173 59.8547 43.8809 58.9183 43.8809 57.7631C43.8809 56.6079 44.8173 55.6714 45.9725 55.6714Z" fill="white"/>
<path d="M50.1552 55.6709C51.3104 55.6709 52.2468 56.6074 52.2468 57.7626C52.2468 58.9178 51.3104 59.8543 50.1552 59.8543C49 59.8543 48.0635 58.9178 48.0635 57.7626C48.0635 56.6074 49 55.6709 50.1552 55.6709Z" fill="white"/>
<path d="M54.3387 55.6714C55.494 55.6714 56.4304 56.6079 56.4304 57.7631C56.4304 58.9183 55.494 59.8547 54.3387 59.8547C53.1836 59.8547 52.2471 58.9183 52.2471 57.7631C52.2471 56.6079 53.1836 55.6714 54.3387 55.6714Z" fill="white"/>
<path d="M66.8905 55.6714C68.0458 55.6714 68.9822 56.6079 68.9822 57.7631C68.9822 58.9183 68.0458 59.8547 66.8905 59.8547C65.7353 59.8547 64.7988 58.9183 64.7988 57.7631C64.7988 56.6079 65.7353 55.6714 66.8905 55.6714Z" fill="white"/>
<path d="M71.0712 55.6709C72.2264 55.6709 73.1628 56.6074 73.1628 57.7626C73.1628 58.9178 72.2264 59.8543 71.0712 59.8543C69.916 59.8543 68.9795 58.9178 68.9795 57.7626C68.9795 56.6074 69.916 55.6709 71.0712 55.6709Z" fill="white"/>
<path d="M45.9725 59.855C47.1278 59.855 48.0642 60.7915 48.0642 61.9467C48.0642 63.1019 47.1278 64.0383 45.9725 64.0383C44.8173 64.0383 43.8809 63.1019 43.8809 61.9467C43.8809 60.7915 44.8173 59.855 45.9725 59.855Z" fill="white"/>
<path d="M62.7069 59.855C63.8622 59.855 64.7986 60.7915 64.7986 61.9467C64.7986 63.1019 63.8622 64.0383 62.7069 64.0383C61.5517 64.0383 60.6152 63.1019 60.6152 61.9467C60.6152 60.7915 61.5517 59.855 62.7069 59.855Z" fill="white"/>
<path d="M71.0712 59.855C72.2264 59.855 73.1628 60.7915 73.1628 61.9467C73.1628 63.1019 72.2264 64.0383 71.0712 64.0383C69.916 64.0383 68.9795 63.1019 68.9795 61.9467C68.9795 60.7915 69.916 59.855 71.0712 59.855Z" fill="white"/>
<path d="M45.9725 64.0381C47.1278 64.0381 48.0642 64.9746 48.0642 66.1298C48.0642 67.285 47.1278 68.2214 45.9725 68.2214C44.8173 68.2214 43.8809 67.285 43.8809 66.1298C43.8809 64.9746 44.8173 64.0381 45.9725 64.0381Z" fill="white"/>
<path d="M50.1552 64.0381C51.3104 64.0381 52.2468 64.9746 52.2468 66.1298C52.2468 67.285 51.3104 68.2214 50.1552 68.2214C49 68.2214 48.0635 67.285 48.0635 66.1298C48.0635 64.9746 49 64.0381 50.1552 64.0381Z" fill="white"/>
<path d="M54.3387 64.0376C55.494 64.0376 56.4304 64.9741 56.4304 66.1293C56.4304 67.2845 55.494 68.2209 54.3387 68.2209C53.1836 68.2209 52.2471 67.2845 52.2471 66.1293C52.2471 64.9741 53.1836 64.0376 54.3387 64.0376Z" fill="white"/>
<path d="M71.0712 64.0381C72.2264 64.0381 73.1628 64.9746 73.1628 66.1298C73.1628 67.285 72.2264 68.2214 71.0712 68.2214C69.916 68.2214 68.9795 67.285 68.9795 66.1298C68.9795 64.9746 69.916 64.0381 71.0712 64.0381Z" fill="white"/>
<path d="M75.2557 64.0381C76.411 64.0381 77.3474 64.9746 77.3474 66.1298C77.3474 67.285 76.411 68.2214 75.2557 68.2214C74.1005 68.2214 73.1641 67.285 73.1641 66.1298C73.1641 64.9746 74.1005 64.0381 75.2557 64.0381Z" fill="white"/>
<path d="M79.4403 64.0381C80.5956 64.0381 81.532 64.9746 81.532 66.1298C81.532 67.285 80.5956 68.2214 79.4403 68.2214C78.2851 68.2214 77.3486 67.285 77.3486 66.1298C77.3486 64.9746 78.2851 64.0381 79.4403 64.0381Z" fill="white"/>
<path d="M45.9725 68.2217C47.1278 68.2217 48.0642 69.1582 48.0642 70.3134C48.0642 71.4686 47.1278 72.405 45.9725 72.405C44.8173 72.405 43.8809 71.4686 43.8809 70.3134C43.8809 69.1582 44.8173 68.2217 45.9725 68.2217Z" fill="white"/>
<path d="M54.3387 68.2217C55.494 68.2217 56.4304 69.1582 56.4304 70.3134C56.4304 71.4686 55.494 72.405 54.3387 72.405C53.1836 72.405 52.2471 71.4686 52.2471 70.3134C52.2471 69.1582 53.1836 68.2217 54.3387 68.2217Z" fill="white"/>
<path d="M62.7069 68.2217C63.8622 68.2217 64.7986 69.1582 64.7986 70.3134C64.7986 71.4686 63.8622 72.405 62.7069 72.405C61.5517 72.405 60.6152 71.4686 60.6152 70.3134C60.6152 69.1582 61.5517 68.2217 62.7069 68.2217Z" fill="white"/>
<path d="M71.0712 68.2217C72.2264 68.2217 73.1628 69.1582 73.1628 70.3134C73.1628 71.4686 72.2264 72.405 71.0712 72.405C69.916 72.405 68.9795 71.4686 68.9795 70.3134C68.9795 69.1582 69.916 68.2217 71.0712 68.2217Z" fill="white"/>
<path d="M79.4403 68.2217C80.5956 68.2217 81.532 69.1582 81.532 70.3134C81.532 71.4686 80.5956 72.405 79.4403 72.405C78.2851 72.405 77.3486 71.4686 77.3486 70.3134C77.3486 69.1582 78.2851 68.2217 79.4403 68.2217Z" fill="white"/>
<path d="M45.9725 72.4048C47.1278 72.4048 48.0642 73.3413 48.0642 74.4965C48.0642 75.6517 47.1278 76.5881 45.9725 76.5881C44.8173 76.5881 43.8809 75.6517 43.8809 74.4965C43.8809 73.3413 44.8173 72.4048 45.9725 72.4048Z" fill="white"/>
<path d="M54.3387 72.4053C55.494 72.4053 56.4304 73.3418 56.4304 74.4969C56.4304 75.6522 55.494 76.5886 54.3387 76.5886C53.1836 76.5886 52.2471 75.6522 52.2471 74.4969C52.2471 73.3418 53.1836 72.4053 54.3387 72.4053Z" fill="white"/>
<path d="M62.7069 72.4053C63.8622 72.4053 64.7986 73.3418 64.7986 74.4969C64.7986 75.6522 63.8622 76.5886 62.7069 76.5886C61.5517 76.5886 60.6152 75.6522 60.6152 74.4969C60.6152 73.3418 61.5517 72.4053 62.7069 72.4053Z" fill="white"/>
<path d="M71.0712 72.4053C72.2264 72.4053 73.1628 73.3418 73.1628 74.4969C73.1628 75.6522 72.2264 76.5886 71.0712 76.5886C69.916 76.5886 68.9795 75.6522 68.9795 74.4969C68.9795 73.3418 69.916 72.4053 71.0712 72.4053Z" fill="white"/>
<path d="M75.2557 72.4048C76.411 72.4048 77.3474 73.3413 77.3474 74.4965C77.3474 75.6517 76.411 76.5881 75.2557 76.5881C74.1005 76.5881 73.1641 75.6517 73.1641 74.4965C73.1641 73.3413 74.1005 72.4048 75.2557 72.4048Z" fill="white"/>
<path d="M79.4403 72.4053C80.5956 72.4053 81.532 73.3418 81.532 74.4969C81.532 75.6522 80.5956 76.5886 79.4403 76.5886C78.2851 76.5886 77.3486 75.6522 77.3486 74.4969C77.3486 73.3418 78.2851 72.4053 79.4403 72.4053Z" fill="white"/>
<path d="M12.5057 76.5879C13.661 76.5879 14.5974 77.5244 14.5974 78.6796C14.5974 79.8348 13.661 80.7712 12.5057 80.7712C11.3505 80.7712 10.4141 79.8348 10.4141 78.6796C10.4141 77.5244 11.3505 76.5879 12.5057 76.5879Z" fill="white"/>
<path d="M20.87 76.5879C22.0252 76.5879 22.9617 77.5244 22.9617 78.6796C22.9617 79.8348 22.0252 80.7712 20.87 80.7712C19.7148 80.7712 18.7783 79.8348 18.7783 78.6796C18.7783 77.5244 19.7148 76.5879 20.87 76.5879Z" fill="white"/>
<path d="M25.0555 76.5884C26.2108 76.5884 27.1472 77.5249 27.1472 78.6801C27.1472 79.8353 26.2108 80.7717 25.0555 80.7717C23.9004 80.7717 22.9639 79.8353 22.9639 78.6801C22.9639 77.5249 23.9004 76.5884 25.0555 76.5884Z" fill="white"/>
<path d="M29.2382 76.5884C30.3934 76.5884 31.3298 77.5249 31.3298 78.6801C31.3298 79.8353 30.3934 80.7717 29.2382 80.7717C28.083 80.7717 27.1465 79.8353 27.1465 78.6801C27.1465 77.5249 28.083 76.5884 29.2382 76.5884Z" fill="white"/>
<path d="M33.4237 76.5884C34.579 76.5884 35.5154 77.5249 35.5154 78.6801C35.5154 79.8353 34.579 80.7717 33.4237 80.7717C32.2685 80.7717 31.332 79.8353 31.332 78.6801C31.332 77.5249 32.2685 76.5884 33.4237 76.5884Z" fill="white"/>
<path d="M37.6053 76.5879C38.7606 76.5879 39.697 77.5244 39.697 78.6796C39.697 79.8348 38.7606 80.7712 37.6053 80.7712C36.4502 80.7712 35.5137 79.8348 35.5137 78.6796C35.5137 77.5244 36.4502 76.5879 37.6053 76.5879Z" fill="white"/>
<path d="M62.7069 76.5879C63.8622 76.5879 64.7986 77.5244 64.7986 78.6796C64.7986 79.8348 63.8622 80.7712 62.7069 80.7712C61.5517 80.7712 60.6152 79.8348 60.6152 78.6796C60.6152 77.5244 61.5517 76.5879 62.7069 76.5879Z" fill="white"/>
<path d="M87.8055 76.5879C88.9608 76.5879 89.8972 77.5244 89.8972 78.6796C89.8972 79.8348 88.9608 80.7712 87.8055 80.7712C86.6504 80.7712 85.7139 79.8348 85.7139 78.6796C85.7139 77.5244 86.6504 76.5879 87.8055 76.5879Z" fill="white"/>
<path d="M91.9891 76.5879C93.1444 76.5879 94.0808 77.5244 94.0808 78.6796C94.0808 79.8348 93.1444 80.7712 91.9891 80.7712C90.8339 80.7712 89.8975 79.8348 89.8975 78.6796C89.8975 77.5244 90.8339 76.5879 91.9891 76.5879Z" fill="white"/>
<path d="M96.1718 76.5884C97.327 76.5884 98.2634 77.5249 98.2634 78.6801C98.2634 79.8353 97.327 80.7717 96.1718 80.7717C95.0166 80.7717 94.0801 79.8353 94.0801 78.6801C94.0801 77.5249 95.0166 76.5884 96.1718 76.5884Z" fill="white"/>
<path d="M100.356 76.5874C101.512 76.5874 102.448 77.5239 102.448 78.6791C102.448 79.8343 101.512 80.7708 100.356 80.7708C99.2011 80.7708 98.2646 79.8343 98.2646 78.6791C98.2646 77.5239 99.2011 76.5874 100.356 76.5874Z" fill="white"/>
<path d="M104.541 76.5879C105.696 76.5879 106.633 77.5244 106.633 78.6796C106.633 79.8348 105.696 80.7712 104.541 80.7712C103.386 80.7712 102.449 79.8348 102.449 78.6796C102.449 77.5244 103.386 76.5879 104.541 76.5879Z" fill="white"/>
<path d="M12.5057 80.772C13.661 80.772 14.5974 81.7085 14.5974 82.8636C14.5974 84.0189 13.661 84.9553 12.5057 84.9553C11.3505 84.9553 10.4141 84.0189 10.4141 82.8636C10.4141 81.7085 11.3505 80.772 12.5057 80.772Z" fill="white"/>
<path d="M25.0555 80.7715C26.2108 80.7715 27.1472 81.708 27.1472 82.8632C27.1472 84.0184 26.2108 84.9548 25.0555 84.9548C23.9004 84.9548 22.9639 84.0184 22.9639 82.8632C22.9639 81.708 23.9004 80.7715 25.0555 80.7715Z" fill="white"/>
<path d="M45.9725 80.7715C47.1278 80.7715 48.0642 81.708 48.0642 82.8632C48.0642 84.0184 47.1278 84.9548 45.9725 84.9548C44.8173 84.9548 43.8809 84.0184 43.8809 82.8632C43.8809 81.708 44.8173 80.7715 45.9725 80.7715Z" fill="white"/>
<path d="M50.1552 80.7715C51.3104 80.7715 52.2468 81.708 52.2468 82.8632C52.2468 84.0184 51.3104 84.9548 50.1552 84.9548C49 84.9548 48.0635 84.0184 48.0635 82.8632C48.0635 81.708 49 80.7715 50.1552 80.7715Z" fill="white"/>
<path d="M54.3387 80.772C55.494 80.772 56.4304 81.7085 56.4304 82.8636C56.4304 84.0189 55.494 84.9553 54.3387 84.9553C53.1836 84.9553 52.2471 84.0189 52.2471 82.8636C52.2471 81.7085 53.1836 80.772 54.3387 80.772Z" fill="white"/>
<path d="M66.8905 80.772C68.0458 80.772 68.9822 81.7085 68.9822 82.8636C68.9822 84.0189 68.0458 84.9553 66.8905 84.9553C65.7353 84.9553 64.7988 84.0189 64.7988 82.8636C64.7988 81.7085 65.7353 80.772 66.8905 80.772Z" fill="white"/>
<path d="M79.4403 80.7715C80.5956 80.7715 81.532 81.708 81.532 82.8632C81.532 84.0184 80.5956 84.9548 79.4403 84.9548C78.2851 84.9548 77.3486 84.0184 77.3486 82.8632C77.3486 81.708 78.2851 80.7715 79.4403 80.7715Z" fill="white"/>
<path d="M91.9891 80.772C93.1444 80.772 94.0808 81.7085 94.0808 82.8636C94.0808 84.0189 93.1444 84.9553 91.9891 84.9553C90.8339 84.9553 89.8975 84.0189 89.8975 82.8636C89.8975 81.7085 90.8339 80.772 91.9891 80.772Z" fill="white"/>
<path d="M108.723 80.772C109.878 80.772 110.814 81.7085 110.814 82.8636C110.814 84.0189 109.878 84.9553 108.723 84.9553C107.567 84.9553 106.631 84.0189 106.631 82.8636C106.631 81.7085 107.567 80.772 108.723 80.772Z" fill="white"/>
<path d="M12.5057 84.9546C13.661 84.9546 14.5974 85.8911 14.5974 87.0463C14.5974 88.2015 13.661 89.1379 12.5057 89.1379C11.3505 89.1379 10.4141 88.2015 10.4141 87.0463C10.4141 85.8911 11.3505 84.9546 12.5057 84.9546Z" fill="white"/>
<path d="M25.0555 84.9546C26.2108 84.9546 27.1472 85.8911 27.1472 87.0463C27.1472 88.2015 26.2108 89.1379 25.0555 89.1379C23.9004 89.1379 22.9639 88.2015 22.9639 87.0463C22.9639 85.8911 23.9004 84.9546 25.0555 84.9546Z" fill="white"/>
<path d="M29.2382 84.9546C30.3934 84.9546 31.3298 85.8911 31.3298 87.0463C31.3298 88.2015 30.3934 89.1379 29.2382 89.1379C28.083 89.1379 27.1465 88.2015 27.1465 87.0463C27.1465 85.8911 28.083 84.9546 29.2382 84.9546Z" fill="white"/>
<path d="M37.6053 84.9546C38.7606 84.9546 39.697 85.8911 39.697 87.0463C39.697 88.2015 38.7606 89.1379 37.6053 89.1379C36.4502 89.1379 35.5137 88.2015 35.5137 87.0463C35.5137 85.8911 36.4502 84.9546 37.6053 84.9546Z" fill="white"/>
<path d="M41.788 84.9546C42.9432 84.9546 43.8796 85.8911 43.8796 87.0463C43.8796 88.2015 42.9432 89.1379 41.788 89.1379C40.6328 89.1379 39.6963 88.2015 39.6963 87.0463C39.6963 85.8911 40.6328 84.9546 41.788 84.9546Z" fill="white"/>
<path d="M45.9725 84.9546C47.1278 84.9546 48.0642 85.8911 48.0642 87.0463C48.0642 88.2015 47.1278 89.1379 45.9725 89.1379C44.8173 89.1379 43.8809 88.2015 43.8809 87.0463C43.8809 85.8911 44.8173 84.9546 45.9725 84.9546Z" fill="white"/>
<path d="M58.5233 84.9546C59.6786 84.9546 60.615 85.8911 60.615 87.0463C60.615 88.2015 59.6786 89.1379 58.5233 89.1379C57.3681 89.1379 56.4316 88.2015 56.4316 87.0463C56.4316 85.8911 57.3681 84.9546 58.5233 84.9546Z" fill="white"/>
<path d="M66.8905 84.9546C68.0458 84.9546 68.9822 85.8911 68.9822 87.0463C68.9822 88.2015 68.0458 89.1379 66.8905 89.1379C65.7353 89.1379 64.7988 88.2015 64.7988 87.0463C64.7988 85.8911 65.7353 84.9546 66.8905 84.9546Z" fill="white"/>
<path d="M71.0712 84.9546C72.2264 84.9546 73.1628 85.8911 73.1628 87.0463C73.1628 88.2015 72.2264 89.1379 71.0712 89.1379C69.916 89.1379 68.9795 88.2015 68.9795 87.0463C68.9795 85.8911 69.916 84.9546 71.0712 84.9546Z" fill="white"/>
<path d="M75.2557 84.9546C76.411 84.9546 77.3474 85.8911 77.3474 87.0463C77.3474 88.2015 76.411 89.1379 75.2557 89.1379C74.1005 89.1379 73.1641 88.2015 73.1641 87.0463C73.1641 85.8911 74.1005 84.9546 75.2557 84.9546Z" fill="white"/>
<path d="M79.4403 84.9546C80.5956 84.9546 81.532 85.8911 81.532 87.0463C81.532 88.2015 80.5956 89.1379 79.4403 89.1379C78.2851 89.1379 77.3486 88.2015 77.3486 87.0463C77.3486 85.8911 78.2851 84.9546 79.4403 84.9546Z" fill="white"/>
<path d="M87.8055 84.9546C88.9608 84.9546 89.8972 85.8911 89.8972 87.0463C89.8972 88.2015 88.9608 89.1379 87.8055 89.1379C86.6504 89.1379 85.7139 88.2015 85.7139 87.0463C85.7139 85.8911 86.6504 84.9546 87.8055 84.9546Z" fill="white"/>
<path d="M91.9891 84.9546C93.1444 84.9546 94.0808 85.8911 94.0808 87.0463C94.0808 88.2015 93.1444 89.1379 91.9891 89.1379C90.8339 89.1379 89.8975 88.2015 89.8975 87.0463C89.8975 85.8911 90.8339 84.9546 91.9891 84.9546Z" fill="white"/>
<path d="M100.356 84.9546C101.512 84.9546 102.448 85.8911 102.448 87.0463C102.448 88.2015 101.512 89.1379 100.356 89.1379C99.2011 89.1379 98.2646 88.2015 98.2646 87.0463C98.2646 85.8911 99.2011 84.9546 100.356 84.9546Z" fill="white"/>
<path d="M108.723 84.9546C109.878 84.9546 110.814 85.8911 110.814 87.0463C110.814 88.2015 109.878 89.1379 108.723 89.1379C107.567 89.1379 106.631 88.2015 106.631 87.0463C106.631 85.8911 107.567 84.9546 108.723 84.9546Z" fill="white"/>
<path d="M112.905 84.9546C114.06 84.9546 114.997 85.8911 114.997 87.0463C114.997 88.2015 114.06 89.1379 112.905 89.1379C111.75 89.1379 110.813 88.2015 110.813 87.0463C110.813 85.8911 111.75 84.9546 112.905 84.9546Z" fill="white"/>
<path d="M12.5057 89.1392C13.661 89.1392 14.5974 90.0756 14.5974 91.2308C14.5974 92.3861 13.661 93.3225 12.5057 93.3225C11.3505 93.3225 10.4141 92.3861 10.4141 91.2308C10.4141 90.0756 11.3505 89.1392 12.5057 89.1392Z" fill="white"/>
<path d="M20.87 89.1392C22.0252 89.1392 22.9617 90.0756 22.9617 91.2308C22.9617 92.3861 22.0252 93.3225 20.87 93.3225C19.7148 93.3225 18.7783 92.3861 18.7783 91.2308C18.7783 90.0756 19.7148 89.1392 20.87 89.1392Z" fill="white"/>
<path d="M45.9725 89.1387C47.1278 89.1387 48.0642 90.0752 48.0642 91.2303C48.0642 92.3856 47.1278 93.322 45.9725 93.322C44.8173 93.322 43.8809 92.3856 43.8809 91.2303C43.8809 90.0752 44.8173 89.1387 45.9725 89.1387Z" fill="white"/>
<path d="M50.1552 89.1382C51.3104 89.1382 52.2468 90.0747 52.2468 91.2299C52.2468 92.3851 51.3104 93.3215 50.1552 93.3215C49 93.3215 48.0635 92.3851 48.0635 91.2299C48.0635 90.0747 49 89.1382 50.1552 89.1382Z" fill="white"/>
<path d="M54.3387 89.1392C55.494 89.1392 56.4304 90.0756 56.4304 91.2308C56.4304 92.3861 55.494 93.3225 54.3387 93.3225C53.1836 93.3225 52.2471 92.3861 52.2471 91.2308C52.2471 90.0756 53.1836 89.1392 54.3387 89.1392Z" fill="white"/>
<path d="M58.5233 89.1382C59.6786 89.1382 60.615 90.0747 60.615 91.2299C60.615 92.3851 59.6786 93.3215 58.5233 93.3215C57.3681 93.3215 56.4316 92.3851 56.4316 91.2299C56.4316 90.0747 57.3681 89.1382 58.5233 89.1382Z" fill="white"/>
<path d="M66.8905 89.1382C68.0458 89.1382 68.9822 90.0747 68.9822 91.2299C68.9822 92.3851 68.0458 93.3215 66.8905 93.3215C65.7353 93.3215 64.7988 92.3851 64.7988 91.2299C64.7988 90.0747 65.7353 89.1382 66.8905 89.1382Z" fill="white"/>
<path d="M79.4403 89.1382C80.5956 89.1382 81.532 90.0747 81.532 91.2299C81.532 92.3851 80.5956 93.3215 79.4403 93.3215C78.2851 93.3215 77.3486 92.3851 77.3486 91.2299C77.3486 90.0747 78.2851 89.1382 79.4403 89.1382Z" fill="white"/>
<path d="M112.905 89.1382C114.06 89.1382 114.997 90.0747 114.997 91.2299C114.997 92.3851 114.06 93.3215 112.905 93.3215C111.75 93.3215 110.813 92.3851 110.813 91.2299C110.813 90.0747 111.75 89.1382 112.905 89.1382Z" fill="white"/>
<path d="M29.2382 93.3223C30.3934 93.3223 31.3298 94.2588 31.3298 95.4139C31.3298 96.5692 30.3934 97.5056 29.2382 97.5056C28.083 97.5056 27.1465 96.5692 27.1465 95.4139C27.1465 94.2588 28.083 93.3223 29.2382 93.3223Z" fill="white"/>
<path d="M37.6053 93.3218C38.7606 93.3218 39.697 94.2583 39.697 95.4135C39.697 96.5687 38.7606 97.5051 37.6053 97.5051C36.4502 97.5051 35.5137 96.5687 35.5137 95.4135C35.5137 94.2583 36.4502 93.3218 37.6053 93.3218Z" fill="white"/>
<path d="M50.1552 93.3223C51.3104 93.3223 52.2468 94.2588 52.2468 95.4139C52.2468 96.5692 51.3104 97.5056 50.1552 97.5056C49 97.5056 48.0635 96.5692 48.0635 95.4139C48.0635 94.2588 49 93.3223 50.1552 93.3223Z" fill="white"/>
<path d="M62.7069 93.3213C63.8622 93.3213 64.7986 94.2578 64.7986 95.413C64.7986 96.5682 63.8622 97.5046 62.7069 97.5046C61.5517 97.5046 60.6152 96.5682 60.6152 95.413C60.6152 94.2578 61.5517 93.3213 62.7069 93.3213Z" fill="white"/>
<path d="M71.0712 93.3223C72.2264 93.3223 73.1628 94.2588 73.1628 95.4139C73.1628 96.5692 72.2264 97.5056 71.0712 97.5056C69.916 97.5056 68.9795 96.5692 68.9795 95.4139C68.9795 94.2588 69.916 93.3223 71.0712 93.3223Z" fill="white"/>
<path d="M83.6219 93.3223C84.7772 93.3223 85.7136 94.2588 85.7136 95.4139C85.7136 96.5692 84.7772 97.5056 83.6219 97.5056C82.4668 97.5056 81.5303 96.5692 81.5303 95.4139C81.5303 94.2588 82.4668 93.3223 83.6219 93.3223Z" fill="white"/>
<path d="M87.8055 93.3218C88.9608 93.3218 89.8972 94.2583 89.8972 95.4135C89.8972 96.5687 88.9608 97.5051 87.8055 97.5051C86.6504 97.5051 85.7139 96.5687 85.7139 95.4135C85.7139 94.2583 86.6504 93.3218 87.8055 93.3218Z" fill="white"/>
<path d="M91.9891 93.3218C93.1444 93.3218 94.0808 94.2583 94.0808 95.4135C94.0808 96.5687 93.1444 97.5051 91.9891 97.5051C90.8339 97.5051 89.8975 96.5687 89.8975 95.4135C89.8975 94.2583 90.8339 93.3218 91.9891 93.3218Z" fill="white"/>
<path d="M96.1718 93.3223C97.327 93.3223 98.2634 94.2588 98.2634 95.4139C98.2634 96.5692 97.327 97.5056 96.1718 97.5056C95.0166 97.5056 94.0801 96.5692 94.0801 95.4139C94.0801 94.2588 95.0166 93.3223 96.1718 93.3223Z" fill="white"/>
<path d="M104.541 93.3218C105.696 93.3218 106.633 94.2583 106.633 95.4135C106.633 96.5687 105.696 97.5051 104.541 97.5051C103.386 97.5051 102.449 96.5687 102.449 95.4135C102.449 94.2583 103.386 93.3218 104.541 93.3218Z" fill="white"/>
<path d="M108.723 93.3218C109.878 93.3218 110.814 94.2583 110.814 95.4135C110.814 96.5687 109.878 97.5051 108.723 97.5051C107.567 97.5051 106.631 96.5687 106.631 95.4135C106.631 94.2583 107.567 93.3218 108.723 93.3218Z" fill="white"/>
<path d="M112.905 93.3218C114.06 93.3218 114.997 94.2583 114.997 95.4135C114.997 96.5687 114.06 97.5051 112.905 97.5051C111.75 97.5051 110.813 96.5687 110.813 95.4135C110.813 94.2583 111.75 93.3218 112.905 93.3218Z" fill="white"/>
<path d="M12.5057 97.5049C13.661 97.5049 14.5974 98.4414 14.5974 99.5966C14.5974 100.752 13.661 101.688 12.5057 101.688C11.3505 101.688 10.4141 100.752 10.4141 99.5966C10.4141 98.4414 11.3505 97.5049 12.5057 97.5049Z" fill="white"/>
<path d="M16.6913 97.5044C17.8465 97.5044 18.783 98.4409 18.783 99.5961C18.783 100.751 17.8465 101.688 16.6913 101.688C15.5361 101.688 14.5996 100.751 14.5996 99.5961C14.5996 98.4409 15.5361 97.5044 16.6913 97.5044Z" fill="white"/>
<path d="M29.2382 97.5049C30.3934 97.5049 31.3298 98.4414 31.3298 99.5966C31.3298 100.752 30.3934 101.688 29.2382 101.688C28.083 101.688 27.1465 100.752 27.1465 99.5966C27.1465 98.4414 28.083 97.5049 29.2382 97.5049Z" fill="white"/>
<path d="M33.4237 97.5049C34.579 97.5049 35.5154 98.4414 35.5154 99.5966C35.5154 100.752 34.579 101.688 33.4237 101.688C32.2685 101.688 31.332 100.752 31.332 99.5966C31.332 98.4414 32.2685 97.5049 33.4237 97.5049Z" fill="white"/>
<path d="M41.788 97.5049C42.9432 97.5049 43.8796 98.4414 43.8796 99.5966C43.8796 100.752 42.9432 101.688 41.788 101.688C40.6328 101.688 39.6963 100.752 39.6963 99.5966C39.6963 98.4414 40.6328 97.5049 41.788 97.5049Z" fill="white"/>
<path d="M79.4403 97.5049C80.5956 97.5049 81.532 98.4414 81.532 99.5966C81.532 100.752 80.5956 101.688 79.4403 101.688C78.2851 101.688 77.3486 100.752 77.3486 99.5966C77.3486 98.4414 78.2851 97.5049 79.4403 97.5049Z" fill="white"/>
<path d="M100.356 97.5049C101.512 97.5049 102.448 98.4414 102.448 99.5966C102.448 100.752 101.512 101.688 100.356 101.688C99.2011 101.688 98.2646 100.752 98.2646 99.5966C98.2646 98.4414 99.2011 97.5049 100.356 97.5049Z" fill="white"/>
<path d="M108.723 97.5049C109.878 97.5049 110.814 98.4414 110.814 99.5966C110.814 100.752 109.878 101.688 108.723 101.688C107.567 101.688 106.631 100.752 106.631 99.5966C106.631 98.4414 107.567 97.5049 108.723 97.5049Z" fill="white"/>
<path d="M12.5057 101.688C13.661 101.688 14.5974 102.624 14.5974 103.779C14.5974 104.934 13.661 105.871 12.5057 105.871C11.3505 105.871 10.4141 104.934 10.4141 103.779C10.4141 102.624 11.3505 101.688 12.5057 101.688Z" fill="white"/>
<path d="M25.0555 101.688C26.2108 101.688 27.1472 102.624 27.1472 103.78C27.1472 104.935 26.2108 105.871 25.0555 105.871C23.9004 105.871 22.9639 104.935 22.9639 103.78C22.9639 102.624 23.9004 101.688 25.0555 101.688Z" fill="white"/>
<path d="M33.4237 101.688C34.579 101.688 35.5154 102.624 35.5154 103.78C35.5154 104.935 34.579 105.871 33.4237 105.871C32.2685 105.871 31.332 104.935 31.332 103.78C31.332 102.624 32.2685 101.688 33.4237 101.688Z" fill="white"/>
<path d="M37.6053 101.688C38.7606 101.688 39.697 102.624 39.697 103.779C39.697 104.934 38.7606 105.871 37.6053 105.871C36.4502 105.871 35.5137 104.934 35.5137 103.779C35.5137 102.624 36.4502 101.688 37.6053 101.688Z" fill="white"/>
<path d="M41.788 101.688C42.9432 101.688 43.8796 102.624 43.8796 103.78C43.8796 104.935 42.9432 105.871 41.788 105.871C40.6328 105.871 39.6963 104.935 39.6963 103.78C39.6963 102.624 40.6328 101.688 41.788 101.688Z" fill="white"/>
<path d="M45.9725 101.688C47.1278 101.688 48.0642 102.624 48.0642 103.78C48.0642 104.935 47.1278 105.871 45.9725 105.871C44.8173 105.871 43.8809 104.935 43.8809 103.78C43.8809 102.624 44.8173 101.688 45.9725 101.688Z" fill="white"/>
<path d="M54.3387 101.688C55.494 101.688 56.4304 102.624 56.4304 103.779C56.4304 104.934 55.494 105.871 54.3387 105.871C53.1836 105.871 52.2471 104.934 52.2471 103.779C52.2471 102.624 53.1836 101.688 54.3387 101.688Z" fill="white"/>
<path d="M58.5233 101.688C59.6786 101.688 60.615 102.624 60.615 103.78C60.615 104.935 59.6786 105.871 58.5233 105.871C57.3681 105.871 56.4316 104.935 56.4316 103.78C56.4316 102.624 57.3681 101.688 58.5233 101.688Z" fill="white"/>
<path d="M62.7069 101.688C63.8622 101.688 64.7986 102.624 64.7986 103.779C64.7986 104.934 63.8622 105.871 62.7069 105.871C61.5517 105.871 60.6152 104.934 60.6152 103.779C60.6152 102.624 61.5517 101.688 62.7069 101.688Z" fill="white"/>
<path d="M75.2557 101.688C76.411 101.688 77.3474 102.624 77.3474 103.78C77.3474 104.935 76.411 105.871 75.2557 105.871C74.1005 105.871 73.1641 104.935 73.1641 103.78C73.1641 102.624 74.1005 101.688 75.2557 101.688Z" fill="white"/>
<path d="M79.4403 101.688C80.5956 101.688 81.532 102.624 81.532 103.78C81.532 104.935 80.5956 105.871 79.4403 105.871C78.2851 105.871 77.3486 104.935 77.3486 103.78C77.3486 102.624 78.2851 101.688 79.4403 101.688Z" fill="white"/>
<path d="M83.6219 101.688C84.7772 101.688 85.7136 102.624 85.7136 103.78C85.7136 104.935 84.7772 105.871 83.6219 105.871C82.4668 105.871 81.5303 104.935 81.5303 103.78C81.5303 102.624 82.4668 101.688 83.6219 101.688Z" fill="white"/>
<path d="M91.9891 101.688C93.1444 101.688 94.0808 102.624 94.0808 103.779C94.0808 104.934 93.1444 105.871 91.9891 105.871C90.8339 105.871 89.8975 104.934 89.8975 103.779C89.8975 102.624 90.8339 101.688 91.9891 101.688Z" fill="white"/>
<path d="M100.356 101.688C101.512 101.688 102.448 102.624 102.448 103.78C102.448 104.935 101.512 105.871 100.356 105.871C99.2011 105.871 98.2646 104.935 98.2646 103.78C98.2646 102.624 99.2011 101.688 100.356 101.688Z" fill="white"/>
<path d="M108.723 101.688C109.878 101.688 110.814 102.624 110.814 103.779C110.814 104.934 109.878 105.871 108.723 105.871C107.567 105.871 106.631 104.934 106.631 103.779C106.631 102.624 107.567 101.688 108.723 101.688Z" fill="white"/>
<path d="M112.905 101.688C114.06 101.688 114.997 102.624 114.997 103.779C114.997 104.934 114.06 105.871 112.905 105.871C111.75 105.871 110.813 104.934 110.813 103.779C110.813 102.624 111.75 101.688 112.905 101.688Z" fill="white"/>
<path d="M12.5057 105.872C13.661 105.872 14.5974 106.808 14.5974 107.963C14.5974 109.119 13.661 110.055 12.5057 110.055C11.3505 110.055 10.4141 109.119 10.4141 107.963C10.4141 106.808 11.3505 105.872 12.5057 105.872Z" fill="white"/>
<path d="M25.0555 105.872C26.2108 105.872 27.1472 106.808 27.1472 107.963C27.1472 109.119 26.2108 110.055 25.0555 110.055C23.9004 110.055 22.9639 109.119 22.9639 107.963C22.9639 106.808 23.9004 105.872 25.0555 105.872Z" fill="white"/>
<path d="M33.4237 105.872C34.579 105.872 35.5154 106.809 35.5154 107.964C35.5154 109.119 34.579 110.055 33.4237 110.055C32.2685 110.055 31.332 109.119 31.332 107.964C31.332 106.809 32.2685 105.872 33.4237 105.872Z" fill="white"/>
<path d="M50.1552 105.872C51.3104 105.872 52.2468 106.809 52.2468 107.964C52.2468 109.119 51.3104 110.055 50.1552 110.055C49 110.055 48.0635 109.119 48.0635 107.964C48.0635 106.809 49 105.872 50.1552 105.872Z" fill="white"/>
<path d="M58.5233 105.872C59.6786 105.872 60.615 106.808 60.615 107.963C60.615 109.119 59.6786 110.055 58.5233 110.055C57.3681 110.055 56.4316 109.119 56.4316 107.963C56.4316 106.808 57.3681 105.872 58.5233 105.872Z" fill="white"/>
<path d="M71.0712 105.872C72.2264 105.872 73.1628 106.808 73.1628 107.963C73.1628 109.119 72.2264 110.055 71.0712 110.055C69.916 110.055 68.9795 109.119 68.9795 107.963C68.9795 106.808 69.916 105.872 71.0712 105.872Z" fill="white"/>
<path d="M83.6219 105.872C84.7772 105.872 85.7136 106.808 85.7136 107.963C85.7136 109.119 84.7772 110.055 83.6219 110.055C82.4668 110.055 81.5303 109.119 81.5303 107.963C81.5303 106.808 82.4668 105.872 83.6219 105.872Z" fill="white"/>
<path d="M100.356 105.872C101.512 105.872 102.448 106.808 102.448 107.963C102.448 109.119 101.512 110.055 100.356 110.055C99.2011 110.055 98.2646 109.119 98.2646 107.963C98.2646 106.808 99.2011 105.872 100.356 105.872Z" fill="white"/>
<path d="M112.905 105.872C114.06 105.872 114.997 106.808 114.997 107.963C114.997 109.119 114.06 110.055 112.905 110.055C111.75 110.055 110.813 109.119 110.813 107.963C110.813 106.808 111.75 105.872 112.905 105.872Z" fill="white"/>
<path d="M12.5057 110.055C13.661 110.055 14.5974 110.992 14.5974 112.147C14.5974 113.302 13.661 114.239 12.5057 114.239C11.3505 114.239 10.4141 113.302 10.4141 112.147C10.4141 110.992 11.3505 110.055 12.5057 110.055Z" fill="white"/>
<path d="M20.87 110.055C22.0252 110.055 22.9617 110.992 22.9617 112.147C22.9617 113.302 22.0252 114.239 20.87 114.239C19.7148 114.239 18.7783 113.302 18.7783 112.147C18.7783 110.992 19.7148 110.055 20.87 110.055Z" fill="white"/>
<path d="M33.4237 110.055C34.579 110.055 35.5154 110.992 35.5154 112.147C35.5154 113.302 34.579 114.239 33.4237 114.239C32.2685 114.239 31.332 113.302 31.332 112.147C31.332 110.992 32.2685 110.055 33.4237 110.055Z" fill="white"/>
<path d="M37.6053 110.055C38.7606 110.055 39.697 110.992 39.697 112.147C39.697 113.302 38.7606 114.239 37.6053 114.239C36.4502 114.239 35.5137 113.302 35.5137 112.147C35.5137 110.992 36.4502 110.055 37.6053 110.055Z" fill="white"/>
<path d="M45.9725 110.055C47.1278 110.055 48.0642 110.992 48.0642 112.147C48.0642 113.302 47.1278 114.239 45.9725 114.239C44.8173 114.239 43.8809 113.302 43.8809 112.147C43.8809 110.992 44.8173 110.055 45.9725 110.055Z" fill="white"/>
<path d="M58.5233 110.055C59.6786 110.055 60.615 110.992 60.615 112.147C60.615 113.302 59.6786 114.239 58.5233 114.239C57.3681 114.239 56.4316 113.302 56.4316 112.147C56.4316 110.992 57.3681 110.055 58.5233 110.055Z" fill="white"/>
<path d="M75.2557 110.055C76.411 110.055 77.3474 110.992 77.3474 112.147C77.3474 113.302 76.411 114.239 75.2557 114.239C74.1005 114.239 73.1641 113.302 73.1641 112.147C73.1641 110.992 74.1005 110.055 75.2557 110.055Z" fill="white"/>
<path d="M79.4403 110.055C80.5956 110.055 81.532 110.992 81.532 112.147C81.532 113.302 80.5956 114.239 79.4403 114.239C78.2851 114.239 77.3486 113.302 77.3486 112.147C77.3486 110.992 78.2851 110.055 79.4403 110.055Z" fill="white"/>
<path d="M83.6219 110.055C84.7772 110.055 85.7136 110.992 85.7136 112.147C85.7136 113.302 84.7772 114.239 83.6219 114.239C82.4668 114.239 81.5303 113.302 81.5303 112.147C81.5303 110.992 82.4668 110.055 83.6219 110.055Z" fill="white"/>
<path d="M87.8055 110.055C88.9608 110.055 89.8972 110.992 89.8972 112.147C89.8972 113.302 88.9608 114.239 87.8055 114.239C86.6504 114.239 85.7139 113.302 85.7139 112.147C85.7139 110.992 86.6504 110.055 87.8055 110.055Z" fill="white"/>
<path d="M91.9891 110.055C93.1444 110.055 94.0808 110.992 94.0808 112.147C94.0808 113.302 93.1444 114.239 91.9891 114.239C90.8339 114.239 89.8975 113.302 89.8975 112.147C89.8975 110.992 90.8339 110.055 91.9891 110.055Z" fill="white"/>
<path d="M96.1718 110.055C97.327 110.055 98.2634 110.992 98.2634 112.147C98.2634 113.302 97.327 114.239 96.1718 114.239C95.0166 114.239 94.0801 113.302 94.0801 112.147C94.0801 110.992 95.0166 110.055 96.1718 110.055Z" fill="white"/>
<path d="M104.541 110.055C105.696 110.055 106.633 110.992 106.633 112.147C106.633 113.302 105.696 114.239 104.541 114.239C103.386 114.239 102.449 113.302 102.449 112.147C102.449 110.992 103.386 110.055 104.541 110.055Z" fill="white"/>
<path d="M45.9725 114.239C47.1278 114.239 48.0642 115.175 48.0642 116.33C48.0642 117.486 47.1278 118.422 45.9725 118.422C44.8173 118.422 43.8809 117.486 43.8809 116.33C43.8809 115.175 44.8173 114.239 45.9725 114.239Z" fill="white"/>
<path d="M50.1552 114.239C51.3104 114.239 52.2468 115.175 52.2468 116.33C52.2468 117.486 51.3104 118.422 50.1552 118.422C49 118.422 48.0635 117.486 48.0635 116.33C48.0635 115.175 49 114.239 50.1552 114.239Z" fill="white"/>
<path d="M54.3387 114.239C55.494 114.239 56.4304 115.175 56.4304 116.33C56.4304 117.486 55.494 118.422 54.3387 118.422C53.1836 118.422 52.2471 117.486 52.2471 116.33C52.2471 115.175 53.1836 114.239 54.3387 114.239Z" fill="white"/>
<path d="M62.7069 114.239C63.8622 114.239 64.7986 115.175 64.7986 116.33C64.7986 117.486 63.8622 118.422 62.7069 118.422C61.5517 118.422 60.6152 117.486 60.6152 116.33C60.6152 115.175 61.5517 114.239 62.7069 114.239Z" fill="white"/>
<path d="M66.8905 114.239C68.0458 114.239 68.9822 115.175 68.9822 116.33C68.9822 117.486 68.0458 118.422 66.8905 118.422C65.7353 118.422 64.7988 117.486 64.7988 116.33C64.7988 115.175 65.7353 114.239 66.8905 114.239Z" fill="white"/>
<path d="M71.0712 114.239C72.2264 114.239 73.1628 115.175 73.1628 116.33C73.1628 117.486 72.2264 118.422 71.0712 118.422C69.916 118.422 68.9795 117.486 68.9795 116.33C68.9795 115.175 69.916 114.239 71.0712 114.239Z" fill="white"/>
<path d="M75.2557 114.239C76.411 114.239 77.3474 115.175 77.3474 116.33C77.3474 117.486 76.411 118.422 75.2557 118.422C74.1005 118.422 73.1641 117.486 73.1641 116.33C73.1641 115.175 74.1005 114.239 75.2557 114.239Z" fill="white"/>
<path d="M79.4403 114.239C80.5956 114.239 81.532 115.175 81.532 116.33C81.532 117.486 80.5956 118.422 79.4403 118.422C78.2851 118.422 77.3486 117.486 77.3486 116.33C77.3486 115.175 78.2851 114.239 79.4403 114.239Z" fill="white"/>
<path d="M96.1718 114.239C97.327 114.239 98.2634 115.175 98.2634 116.33C98.2634 117.486 97.327 118.422 96.1718 118.422C95.0166 118.422 94.0801 117.486 94.0801 116.33C94.0801 115.175 95.0166 114.239 96.1718 114.239Z" fill="white"/>
<path d="M100.356 114.239C101.512 114.239 102.448 115.175 102.448 116.33C102.448 117.486 101.512 118.422 100.356 118.422C99.2011 118.422 98.2646 117.486 98.2646 116.33C98.2646 115.175 99.2011 114.239 100.356 114.239Z" fill="white"/>
<path d="M104.541 114.239C105.696 114.239 106.633 115.175 106.633 116.33C106.633 117.486 105.696 118.422 104.541 118.422C103.386 118.422 102.449 117.486 102.449 116.33C102.449 115.175 103.386 114.239 104.541 114.239Z" fill="white"/>
<path d="M66.8905 118.421C68.0458 118.421 68.9822 119.358 68.9822 120.513C68.9822 121.668 68.0458 122.605 66.8905 122.605C65.7353 122.605 64.7988 121.668 64.7988 120.513C64.7988 119.358 65.7353 118.421 66.8905 118.421Z" fill="white"/>
<path d="M71.0712 118.421C72.2264 118.421 73.1628 119.358 73.1628 120.513C73.1628 121.668 72.2264 122.605 71.0712 122.605C69.916 122.605 68.9795 121.668 68.9795 120.513C68.9795 119.358 69.916 118.421 71.0712 118.421Z" fill="white"/>
<path d="M79.4403 118.421C80.5956 118.421 81.532 119.358 81.532 120.513C81.532 121.668 80.5956 122.605 79.4403 122.605C78.2851 122.605 77.3486 121.668 77.3486 120.513C77.3486 119.358 78.2851 118.421 79.4403 118.421Z" fill="white"/>
<path d="M87.8055 118.421C88.9608 118.421 89.8972 119.358 89.8972 120.513C89.8972 121.668 88.9608 122.605 87.8055 122.605C86.6504 122.605 85.7139 121.668 85.7139 120.513C85.7139 119.358 86.6504 118.421 87.8055 118.421Z" fill="white"/>
<path d="M96.1718 118.421C97.327 118.421 98.2634 119.358 98.2634 120.513C98.2634 121.668 97.327 122.605 96.1718 122.605C95.0166 122.605 94.0801 121.668 94.0801 120.513C94.0801 119.358 95.0166 118.421 96.1718 118.421Z" fill="white"/>
<path d="M100.356 118.421C101.512 118.421 102.448 119.358 102.448 120.513C102.448 121.668 101.512 122.605 100.356 122.605C99.2011 122.605 98.2646 121.668 98.2646 120.513C98.2646 119.358 99.2011 118.421 100.356 118.421Z" fill="white"/>
<path d="M104.541 118.422C105.696 118.422 106.633 119.358 106.633 120.514C106.633 121.669 105.696 122.605 104.541 122.605C103.386 122.605 102.449 121.669 102.449 120.514C102.449 119.358 103.386 118.422 104.541 118.422Z" fill="white"/>
<path d="M108.723 118.421C109.878 118.421 110.814 119.358 110.814 120.513C110.814 121.668 109.878 122.605 108.723 122.605C107.567 122.605 106.631 121.668 106.631 120.513C106.631 119.358 107.567 118.421 108.723 118.421Z" fill="white"/>
<path d="M112.905 118.422C114.06 118.422 114.997 119.358 114.997 120.514C114.997 121.669 114.06 122.605 112.905 122.605C111.75 122.605 110.813 121.669 110.813 120.514C110.813 119.358 111.75 118.422 112.905 118.422Z" fill="white"/>
<path d="M45.9725 122.605C47.1278 122.605 48.0642 123.542 48.0642 124.697C48.0642 125.852 47.1278 126.789 45.9725 126.789C44.8173 126.789 43.8809 125.852 43.8809 124.697C43.8809 123.542 44.8173 122.605 45.9725 122.605Z" fill="white"/>
<path d="M50.1552 122.605C51.3104 122.605 52.2468 123.542 52.2468 124.697C52.2468 125.852 51.3104 126.789 50.1552 126.789C49 126.789 48.0635 125.852 48.0635 124.697C48.0635 123.542 49 122.605 50.1552 122.605Z" fill="white"/>
<path d="M54.3387 122.605C55.494 122.605 56.4304 123.542 56.4304 124.697C56.4304 125.852 55.494 126.789 54.3387 126.789C53.1836 126.789 52.2471 125.852 52.2471 124.697C52.2471 123.542 53.1836 122.605 54.3387 122.605Z" fill="white"/>
<path d="M62.7069 122.604C63.8622 122.604 64.7986 123.541 64.7986 124.696C64.7986 125.851 63.8622 126.788 62.7069 126.788C61.5517 126.788 60.6152 125.851 60.6152 124.696C60.6152 123.541 61.5517 122.604 62.7069 122.604Z" fill="white"/>
<path d="M66.8905 122.605C68.0458 122.605 68.9822 123.542 68.9822 124.697C68.9822 125.852 68.0458 126.789 66.8905 126.789C65.7353 126.789 64.7988 125.852 64.7988 124.697C64.7988 123.542 65.7353 122.605 66.8905 122.605Z" fill="white"/>
<path d="M79.4403 122.605C80.5956 122.605 81.532 123.542 81.532 124.697C81.532 125.852 80.5956 126.789 79.4403 126.789C78.2851 126.789 77.3486 125.852 77.3486 124.697C77.3486 123.542 78.2851 122.605 79.4403 122.605Z" fill="white"/>
<path d="M96.1718 122.605C97.327 122.605 98.2634 123.542 98.2634 124.697C98.2634 125.852 97.327 126.789 96.1718 126.789C95.0166 126.789 94.0801 125.852 94.0801 124.697C94.0801 123.542 95.0166 122.605 96.1718 122.605Z" fill="white"/>
<path d="M100.356 122.605C101.512 122.605 102.448 123.542 102.448 124.697C102.448 125.852 101.512 126.789 100.356 126.789C99.2011 126.789 98.2646 125.852 98.2646 124.697C98.2646 123.542 99.2011 122.605 100.356 122.605Z" fill="white"/>
<path d="M108.723 122.604C109.878 122.604 110.814 123.541 110.814 124.696C110.814 125.851 109.878 126.788 108.723 126.788C107.567 126.788 106.631 125.851 106.631 124.696C106.631 123.541 107.567 122.604 108.723 122.604Z" fill="white"/>
<path d="M45.9725 126.789C47.1278 126.789 48.0642 127.725 48.0642 128.88C48.0642 130.035 47.1278 130.972 45.9725 130.972C44.8173 130.972 43.8809 130.035 43.8809 128.88C43.8809 127.725 44.8173 126.789 45.9725 126.789Z" fill="white"/>
<path d="M50.1552 126.789C51.3104 126.789 52.2468 127.725 52.2468 128.88C52.2468 130.035 51.3104 130.972 50.1552 130.972C49 130.972 48.0635 130.035 48.0635 128.88C48.0635 127.725 49 126.789 50.1552 126.789Z" fill="white"/>
<path d="M54.3387 126.789C55.494 126.789 56.4304 127.726 56.4304 128.881C56.4304 130.036 55.494 130.972 54.3387 130.972C53.1836 130.972 52.2471 130.036 52.2471 128.881C52.2471 127.726 53.1836 126.789 54.3387 126.789Z" fill="white"/>
<path d="M62.7069 126.789C63.8622 126.789 64.7986 127.726 64.7986 128.881C64.7986 130.036 63.8622 130.972 62.7069 130.972C61.5517 130.972 60.6152 130.036 60.6152 128.881C60.6152 127.726 61.5517 126.789 62.7069 126.789Z" fill="white"/>
<path d="M71.0712 126.789C72.2264 126.789 73.1628 127.725 73.1628 128.88C73.1628 130.035 72.2264 130.972 71.0712 130.972C69.916 130.972 68.9795 130.035 68.9795 128.88C68.9795 127.725 69.916 126.789 71.0712 126.789Z" fill="white"/>
<path d="M75.2557 126.789C76.411 126.789 77.3474 127.725 77.3474 128.88C77.3474 130.035 76.411 130.972 75.2557 130.972C74.1005 130.972 73.1641 130.035 73.1641 128.88C73.1641 127.725 74.1005 126.789 75.2557 126.789Z" fill="white"/>
<path d="M79.4403 126.789C80.5956 126.789 81.532 127.725 81.532 128.88C81.532 130.035 80.5956 130.972 79.4403 130.972C78.2851 130.972 77.3486 130.035 77.3486 128.88C77.3486 127.725 78.2851 126.789 79.4403 126.789Z" fill="white"/>
<path d="M83.6219 126.789C84.7772 126.789 85.7136 127.725 85.7136 128.88C85.7136 130.035 84.7772 130.972 83.6219 130.972C82.4668 130.972 81.5303 130.035 81.5303 128.88C81.5303 127.725 82.4668 126.789 83.6219 126.789Z" fill="white"/>
<path d="M87.8055 126.789C88.9608 126.789 89.8972 127.726 89.8972 128.881C89.8972 130.036 88.9608 130.972 87.8055 130.972C86.6504 130.972 85.7139 130.036 85.7139 128.881C85.7139 127.726 86.6504 126.789 87.8055 126.789Z" fill="white"/>
<path d="M91.9891 126.789C93.1444 126.789 94.0808 127.726 94.0808 128.881C94.0808 130.036 93.1444 130.972 91.9891 130.972C90.8339 130.972 89.8975 130.036 89.8975 128.881C89.8975 127.726 90.8339 126.789 91.9891 126.789Z" fill="white"/>
<path d="M96.1718 126.789C97.327 126.789 98.2634 127.725 98.2634 128.88C98.2634 130.035 97.327 130.972 96.1718 130.972C95.0166 130.972 94.0801 130.035 94.0801 128.88C94.0801 127.725 95.0166 126.789 96.1718 126.789Z" fill="white"/>
<path d="M100.356 126.789C101.512 126.789 102.448 127.725 102.448 128.88C102.448 130.035 101.512 130.972 100.356 130.972C99.2011 130.972 98.2646 130.035 98.2646 128.88C98.2646 127.725 99.2011 126.789 100.356 126.789Z" fill="white"/>
<path d="M104.541 126.789C105.696 126.789 106.633 127.726 106.633 128.881C106.633 130.036 105.696 130.972 104.541 130.972C103.386 130.972 102.449 130.036 102.449 128.881C102.449 127.726 103.386 126.789 104.541 126.789Z" fill="white"/>
<path d="M112.905 126.789C114.06 126.789 114.997 127.726 114.997 128.881C114.997 130.036 114.06 130.972 112.905 130.972C111.75 130.972 110.813 130.036 110.813 128.881C110.813 127.726 111.75 126.789 112.905 126.789Z" fill="white"/>
<path d="M45.9725 130.972C47.1278 130.972 48.0642 131.909 48.0642 133.064C48.0642 134.219 47.1278 135.156 45.9725 135.156C44.8173 135.156 43.8809 134.219 43.8809 133.064C43.8809 131.909 44.8173 130.972 45.9725 130.972Z" fill="white"/>
<path d="M50.1552 130.972C51.3104 130.972 52.2468 131.909 52.2468 133.064C52.2468 134.219 51.3104 135.156 50.1552 135.156C49 135.156 48.0635 134.219 48.0635 133.064C48.0635 131.909 49 130.972 50.1552 130.972Z" fill="white"/>
<path d="M75.2557 130.972C76.411 130.972 77.3474 131.909 77.3474 133.064C77.3474 134.219 76.411 135.156 75.2557 135.156C74.1005 135.156 73.1641 134.219 73.1641 133.064C73.1641 131.909 74.1005 130.972 75.2557 130.972Z" fill="white"/>
<path d="M79.4403 130.972C80.5956 130.972 81.532 131.909 81.532 133.064C81.532 134.219 80.5956 135.156 79.4403 135.156C78.2851 135.156 77.3486 134.219 77.3486 133.064C77.3486 131.909 78.2851 130.972 79.4403 130.972Z" fill="white"/>
<path d="M83.6219 130.972C84.7772 130.972 85.7136 131.909 85.7136 133.064C85.7136 134.219 84.7772 135.156 83.6219 135.156C82.4668 135.156 81.5303 134.219 81.5303 133.064C81.5303 131.909 82.4668 130.972 83.6219 130.972Z" fill="white"/>
<path d="M87.8055 130.972C88.9608 130.972 89.8972 131.908 89.8972 133.063C89.8972 134.219 88.9608 135.155 87.8055 135.155C86.6504 135.155 85.7139 134.219 85.7139 133.063C85.7139 131.908 86.6504 130.972 87.8055 130.972Z" fill="white"/>
<path d="M91.9891 130.972C93.1444 130.972 94.0808 131.908 94.0808 133.063C94.0808 134.219 93.1444 135.155 91.9891 135.155C90.8339 135.155 89.8975 134.219 89.8975 133.063C89.8975 131.908 90.8339 130.972 91.9891 130.972Z" fill="white"/>
<path d="M104.541 130.972C105.696 130.972 106.633 131.908 106.633 133.063C106.633 134.219 105.696 135.155 104.541 135.155C103.386 135.155 102.449 134.219 102.449 133.063C102.449 131.908 103.386 130.972 104.541 130.972Z" fill="white"/>
<path d="M108.723 130.972C109.878 130.972 110.814 131.908 110.814 133.063C110.814 134.219 109.878 135.155 108.723 135.155C107.567 135.155 106.631 134.219 106.631 133.063C106.631 131.908 107.567 130.972 108.723 130.972Z" fill="white"/>
<path d="M112.905 130.972C114.06 130.972 114.997 131.908 114.997 133.063C114.997 134.219 114.06 135.155 112.905 135.155C111.75 135.155 110.813 134.219 110.813 133.063C110.813 131.908 111.75 130.972 112.905 130.972Z" fill="white"/>
<path d="M45.9725 135.155C47.1278 135.155 48.0642 136.092 48.0642 137.247C48.0642 138.402 47.1278 139.339 45.9725 139.339C44.8173 139.339 43.8809 138.402 43.8809 137.247C43.8809 136.092 44.8173 135.155 45.9725 135.155Z" fill="white"/>
<path d="M50.1552 135.156C51.3104 135.156 52.2468 136.092 52.2468 137.247C52.2468 138.403 51.3104 139.339 50.1552 139.339C49 139.339 48.0635 138.403 48.0635 137.247C48.0635 136.092 49 135.156 50.1552 135.156Z" fill="white"/>
<path d="M58.5233 135.156C59.6786 135.156 60.615 136.092 60.615 137.247C60.615 138.403 59.6786 139.339 58.5233 139.339C57.3681 139.339 56.4316 138.403 56.4316 137.247C56.4316 136.092 57.3681 135.156 58.5233 135.156Z" fill="white"/>
<path d="M62.7069 135.156C63.8622 135.156 64.7986 136.092 64.7986 137.247C64.7986 138.403 63.8622 139.339 62.7069 139.339C61.5517 139.339 60.6152 138.403 60.6152 137.247C60.6152 136.092 61.5517 135.156 62.7069 135.156Z" fill="white"/>
<path d="M79.4403 135.155C80.5956 135.155 81.532 136.092 81.532 137.247C81.532 138.402 80.5956 139.339 79.4403 139.339C78.2851 139.339 77.3486 138.402 77.3486 137.247C77.3486 136.092 78.2851 135.155 79.4403 135.155Z" fill="white"/>
<path d="M83.6219 135.155C84.7772 135.155 85.7136 136.092 85.7136 137.247C85.7136 138.402 84.7772 139.339 83.6219 139.339C82.4668 139.339 81.5303 138.402 81.5303 137.247C81.5303 136.092 82.4668 135.155 83.6219 135.155Z" fill="white"/>
<path d="M91.9891 135.155C93.1444 135.155 94.0808 136.092 94.0808 137.247C94.0808 138.402 93.1444 139.339 91.9891 139.339C90.8339 139.339 89.8975 138.402 89.8975 137.247C89.8975 136.092 90.8339 135.155 91.9891 135.155Z" fill="white"/>
<path d="M104.541 135.156C105.696 135.156 106.633 136.092 106.633 137.247C106.633 138.403 105.696 139.339 104.541 139.339C103.386 139.339 102.449 138.403 102.449 137.247C102.449 136.092 103.386 135.156 104.541 135.156Z" fill="white"/>
<path d="M112.905 135.155C114.06 135.155 114.997 136.092 114.997 137.247C114.997 138.402 114.06 139.339 112.905 139.339C111.75 139.339 110.813 138.402 110.813 137.247C110.813 136.092 111.75 135.155 112.905 135.155Z" fill="white"/>
<path d="M50.1552 139.338C51.3104 139.338 52.2468 140.274 52.2468 141.43C52.2468 142.585 51.3104 143.521 50.1552 143.521C49 143.521 48.0635 142.585 48.0635 141.43C48.0635 140.274 49 139.338 50.1552 139.338Z" fill="white"/>
<path d="M58.5233 139.338C59.6786 139.338 60.615 140.274 60.615 141.43C60.615 142.585 59.6786 143.521 58.5233 143.521C57.3681 143.521 56.4316 142.585 56.4316 141.43C56.4316 140.274 57.3681 139.338 58.5233 139.338Z" fill="white"/>
<path d="M71.0712 139.338C72.2264 139.338 73.1628 140.274 73.1628 141.43C73.1628 142.585 72.2264 143.521 71.0712 143.521C69.916 143.521 68.9795 142.585 68.9795 141.43C68.9795 140.274 69.916 139.338 71.0712 139.338Z" fill="white"/>
<path d="M75.2557 139.338C76.411 139.338 77.3474 140.274 77.3474 141.43C77.3474 142.585 76.411 143.521 75.2557 143.521C74.1005 143.521 73.1641 142.585 73.1641 141.43C73.1641 140.274 74.1005 139.338 75.2557 139.338Z" fill="white"/>
<path d="M79.4403 139.338C80.5956 139.338 81.532 140.274 81.532 141.43C81.532 142.585 80.5956 143.521 79.4403 143.521C78.2851 143.521 77.3486 142.585 77.3486 141.43C77.3486 140.274 78.2851 139.338 79.4403 139.338Z" fill="white"/>
<path d="M91.9891 139.338C93.1444 139.338 94.0808 140.275 94.0808 141.43C94.0808 142.585 93.1444 143.522 91.9891 143.522C90.8339 143.522 89.8975 142.585 89.8975 141.43C89.8975 140.275 90.8339 139.338 91.9891 139.338Z" fill="white"/>
<path d="M96.1718 139.338C97.327 139.338 98.2634 140.275 98.2634 141.43C98.2634 142.585 97.327 143.522 96.1718 143.522C95.0166 143.522 94.0801 142.585 94.0801 141.43C94.0801 140.275 95.0166 139.338 96.1718 139.338Z" fill="white"/>
<path d="M100.356 139.338C101.512 139.338 102.448 140.274 102.448 141.43C102.448 142.585 101.512 143.521 100.356 143.521C99.2011 143.521 98.2646 142.585 98.2646 141.43C98.2646 140.274 99.2011 139.338 100.356 139.338Z" fill="white"/>
<path d="M112.905 139.338C114.06 139.338 114.997 140.275 114.997 141.43C114.997 142.585 114.06 143.522 112.905 143.522C111.75 143.522 110.813 142.585 110.813 141.43C110.813 140.275 111.75 139.338 112.905 139.338Z" fill="white"/>
<path d="M45.9725 143.522C47.1278 143.522 48.0642 144.458 48.0642 145.614C48.0642 146.769 47.1278 147.705 45.9725 147.705C44.8173 147.705 43.8809 146.769 43.8809 145.614C43.8809 144.458 44.8173 143.522 45.9725 143.522Z" fill="white"/>
<path d="M50.1552 143.522C51.3104 143.522 52.2468 144.458 52.2468 145.614C52.2468 146.769 51.3104 147.705 50.1552 147.705C49 147.705 48.0635 146.769 48.0635 145.614C48.0635 144.458 49 143.522 50.1552 143.522Z" fill="white"/>
<path d="M58.5233 143.522C59.6786 143.522 60.615 144.458 60.615 145.614C60.615 146.769 59.6786 147.705 58.5233 147.705C57.3681 147.705 56.4316 146.769 56.4316 145.614C56.4316 144.458 57.3681 143.522 58.5233 143.522Z" fill="white"/>
<path d="M75.2557 143.522C76.411 143.522 77.3474 144.458 77.3474 145.614C77.3474 146.769 76.411 147.705 75.2557 147.705C74.1005 147.705 73.1641 146.769 73.1641 145.614C73.1641 144.458 74.1005 143.522 75.2557 143.522Z" fill="white"/>
<path d="M87.8055 143.522C88.9608 143.522 89.8972 144.458 89.8972 145.614C89.8972 146.769 88.9608 147.705 87.8055 147.705C86.6504 147.705 85.7139 146.769 85.7139 145.614C85.7139 144.458 86.6504 143.522 87.8055 143.522Z" fill="white"/>
<path d="M91.9891 143.522C93.1444 143.522 94.0808 144.458 94.0808 145.614C94.0808 146.769 93.1444 147.705 91.9891 147.705C90.8339 147.705 89.8975 146.769 89.8975 145.614C89.8975 144.458 90.8339 143.522 91.9891 143.522Z" fill="white"/>
<path d="M96.1718 143.522C97.327 143.522 98.2634 144.458 98.2634 145.614C98.2634 146.769 97.327 147.705 96.1718 147.705C95.0166 147.705 94.0801 146.769 94.0801 145.614C94.0801 144.458 95.0166 143.522 96.1718 143.522Z" fill="white"/>
<path d="M100.356 143.522C101.512 143.522 102.448 144.458 102.448 145.614C102.448 146.769 101.512 147.705 100.356 147.705C99.2011 147.705 98.2646 146.769 98.2646 145.614C98.2646 144.458 99.2011 143.522 100.356 143.522Z" fill="white"/>
<path d="M104.541 143.522C105.696 143.522 106.633 144.458 106.633 145.614C106.633 146.769 105.696 147.705 104.541 147.705C103.386 147.705 102.449 146.769 102.449 145.614C102.449 144.458 103.386 143.522 104.541 143.522Z" fill="white"/>
<path d="M108.723 143.522C109.878 143.522 110.814 144.458 110.814 145.614C110.814 146.769 109.878 147.705 108.723 147.705C107.567 147.705 106.631 146.769 106.631 145.614C106.631 144.458 107.567 143.522 108.723 143.522Z" fill="white"/>
<path d="M112.905 143.522C114.06 143.522 114.997 144.458 114.997 145.614C114.997 146.769 114.06 147.705 112.905 147.705C111.75 147.705 110.813 146.769 110.813 145.614C110.813 144.458 111.75 143.522 112.905 143.522Z" fill="white"/>
<path d="M29.6999 43.1235H20.4117C15.8851 43.1235 12.0501 46.1143 10.824 50.2019C10.6972 50.6248 10.5983 51.0594 10.5294 51.5036C10.4536 51.9938 10.4141 52.4957 10.4141 53.0067V62.5153C10.4141 67.9676 14.9003 72.4014 20.4117 72.4014L25.0558 72.4023L29.6999 72.4011C35.211 72.4011 39.6975 67.9673 39.6975 62.515V53.0067C39.6975 47.5571 35.2113 43.1235 29.6999 43.1235ZM35.305 62.5153C35.305 65.5444 32.7907 68.0089 29.6987 68.0089L25.0558 68.0098L20.4129 68.0086C17.3209 68.0086 14.8066 65.5441 14.8066 62.5153V53.0067C14.8066 52.0606 15.052 51.1698 15.4839 50.3914C15.8997 49.6426 16.488 48.9987 17.1964 48.5111C18.1071 47.8841 19.2161 47.5161 20.4114 47.5161H29.6999C32.7907 47.5161 35.305 49.9791 35.305 53.0067V62.5153Z" fill="white"/>
<path d="M105.002 43.124H95.7135C91.1868 43.124 87.3519 46.1147 86.1258 50.2024C85.999 50.6253 85.9 51.0598 85.8312 51.5041C85.7554 51.9943 85.7158 52.4962 85.7158 53.0072V62.5158C85.7158 67.9681 90.202 72.4019 95.7135 72.4019L100.358 72.4028L105.002 72.4016C110.513 72.4016 114.999 67.9678 114.999 62.5155V53.0072C114.999 47.5575 110.513 43.124 105.002 43.124ZM110.607 62.5158C110.607 65.5449 108.092 68.0094 105 68.0094L100.358 68.0103L95.7147 68.0091C92.6226 68.0091 90.1083 65.5446 90.1083 62.5158V53.0072C90.1083 52.061 90.3537 51.1702 90.7857 50.3919C91.2015 49.6431 91.7898 48.9992 92.4982 48.5116C93.4089 47.8846 94.5178 47.5165 95.7132 47.5165H105.002C108.092 47.5165 110.607 49.9796 110.607 53.0072V62.5158Z" fill="white"/>
<path d="M29.6999 118.425H20.4117C15.8851 118.425 12.0501 121.416 10.824 125.504C10.6972 125.927 10.5983 126.361 10.5294 126.805C10.4536 127.296 10.4141 127.797 10.4141 128.308V137.817C10.4141 143.269 14.9003 147.703 20.4117 147.703L25.0558 147.704L29.6999 147.703C35.211 147.703 39.6975 143.269 39.6975 137.817V128.308C39.6975 122.859 35.2113 118.425 29.6999 118.425ZM35.305 137.817C35.305 140.846 32.7907 143.311 29.6987 143.311L25.0558 143.312L20.4129 143.31C17.3209 143.31 14.8066 140.846 14.8066 137.817V128.308C14.8066 127.362 15.052 126.472 15.4839 125.693C15.8997 124.944 16.488 124.3 17.1964 123.813C18.1071 123.186 19.2161 122.818 20.4114 122.818H29.6999C32.7907 122.818 35.305 125.281 35.305 128.308V137.817Z" fill="white"/>
<path d="M31.3284 51.4883H18.7783V64.0383H31.3284V51.4883Z" fill="white"/>
<path d="M106.63 51.4883H94.0801V64.0383H106.63V51.4883Z" fill="white"/>
<path d="M31.3284 126.789H18.7783V139.339H31.3284V126.789Z" fill="white"/>
<rect x="17" y="6" width="91.1916" height="25" rx="4.22183" fill="white"/>
<path d="M35.7894 24.1897C34.8199 24.1897 33.998 24.0263 33.3236 23.6997C32.6491 23.3625 32.0748 22.9304 31.6006 22.4035L33.1813 20.8071C33.9295 21.6501 34.8515 22.0716 35.9474 22.0716C36.5376 22.0716 36.9749 21.9504 37.2594 21.7081C37.5439 21.4657 37.6862 21.1443 37.6862 20.7439C37.6862 20.4383 37.6019 20.1854 37.4333 19.9851C37.2647 19.7744 36.9222 19.6321 36.4058 19.5584L35.3152 19.4161C34.1455 19.2686 33.2867 18.9156 32.7387 18.3571C32.2013 17.7986 31.9326 17.0557 31.9326 16.1283C31.9326 15.6331 32.0274 15.18 32.2171 14.769C32.4068 14.358 32.6755 14.005 33.0232 13.7099C33.3815 13.4149 33.8136 13.1883 34.3194 13.0303C34.8357 12.8617 35.4206 12.7774 36.0739 12.7774C36.9064 12.7774 37.6387 12.9091 38.271 13.1725C38.9033 13.436 39.446 13.8206 39.8991 14.3264L38.3026 15.9387C38.0392 15.6331 37.7178 15.3854 37.3384 15.1958C36.9696 14.9955 36.5007 14.8954 35.9316 14.8954C35.3942 14.8954 34.9938 14.9903 34.7303 15.18C34.4669 15.3696 34.3352 15.6331 34.3352 15.9703C34.3352 16.3496 34.4353 16.6236 34.6355 16.7922C34.8463 16.9608 35.1835 17.082 35.6471 17.1558L36.7378 17.3296C37.8758 17.5088 38.7189 17.8618 39.2668 18.3887C39.8148 18.905 40.0888 19.6427 40.0888 20.6016C40.0888 21.1285 39.9939 21.6132 39.8042 22.0558C39.6146 22.4984 39.3353 22.8777 38.9665 23.1939C38.6082 23.51 38.1604 23.7576 37.6229 23.9368C37.0855 24.1054 36.4743 24.1897 35.7894 24.1897ZM45.3053 24.1897C44.6836 24.1897 44.1303 24.0896 43.6456 23.8894C43.1609 23.6786 42.7552 23.3888 42.4285 23.02C42.1018 22.6406 41.8542 22.1822 41.6856 21.6448C41.517 21.1074 41.4327 20.5068 41.4327 19.8429C41.4327 19.179 41.517 18.5836 41.6856 18.0567C41.8542 17.5193 42.1018 17.0609 42.4285 16.6816C42.7552 16.3022 43.1609 16.0124 43.6456 15.8122C44.1303 15.612 44.6836 15.5119 45.3053 15.5119C46.1483 15.5119 46.8491 15.7016 47.4076 16.0809C47.9766 16.4603 48.3823 16.9924 48.6247 17.6774L46.7279 18.4993C46.6541 18.1832 46.5013 17.9145 46.2695 17.6932C46.0377 17.4719 45.7163 17.3613 45.3053 17.3613C44.8311 17.3613 44.4728 17.5193 44.2304 17.8355C43.9881 18.141 43.8669 18.5573 43.8669 19.0842V20.6332C43.8669 21.1601 43.9881 21.5763 44.2304 21.8819C44.4728 22.1875 44.8311 22.3403 45.3053 22.3403C45.7268 22.3403 46.0587 22.2297 46.3011 22.0084C46.554 21.7765 46.7384 21.4762 46.8543 21.1074L48.6721 21.8977C48.3981 22.6881 47.9713 23.2676 47.3918 23.6364C46.8227 24.0053 46.1272 24.1897 45.3053 24.1897ZM56.2529 24C55.8314 24 55.4784 23.8683 55.1939 23.6048C54.9199 23.3414 54.746 22.9884 54.6723 22.5458H54.5774C54.451 23.0832 54.1717 23.4942 53.7397 23.7787C53.3076 24.0527 52.7755 24.1897 52.1432 24.1897C51.3107 24.1897 50.6732 23.9684 50.2306 23.5258C49.788 23.0832 49.5668 22.4984 49.5668 21.7713C49.5668 20.8966 49.8829 20.2486 50.5151 19.8271C51.1579 19.395 52.0273 19.179 53.1232 19.179H54.4352V18.6574C54.4352 18.257 54.3298 17.9408 54.119 17.709C53.9083 17.4666 53.5553 17.3454 53.06 17.3454C52.5963 17.3454 52.2275 17.4456 51.9535 17.6458C51.6796 17.846 51.453 18.0725 51.2739 18.3255L49.8829 17.0925C50.2201 16.5973 50.6416 16.2126 51.1474 15.9387C51.6638 15.6541 52.3592 15.5119 53.2339 15.5119C54.4141 15.5119 55.2993 15.7701 55.8894 16.2864C56.4795 16.8028 56.7745 17.5562 56.7745 18.5467V22.1822H57.5491V24H56.2529ZM53.0126 22.5616C53.4025 22.5616 53.7344 22.4773 54.0084 22.3087C54.2929 22.1401 54.4352 21.8661 54.4352 21.4868V20.5068H53.2971C52.3803 20.5068 51.9219 20.8176 51.9219 21.4393V21.6764C51.9219 21.982 52.0168 22.2086 52.2064 22.3561C52.3961 22.4931 52.6648 22.5616 53.0126 22.5616ZM59.1192 24V15.7016H61.4586V17.1083H61.5534C61.7009 16.6763 61.9591 16.3022 62.3279 15.9861C62.6968 15.67 63.2078 15.5119 63.8612 15.5119C64.7147 15.5119 65.3575 15.7964 65.7896 16.3654C66.2322 16.9345 66.4534 17.7459 66.4534 18.7996V24H64.1141V18.9893C64.1141 18.4519 64.0298 18.0567 63.8612 17.8038C63.6926 17.5404 63.3922 17.4087 62.9602 17.4087C62.7705 17.4087 62.5861 17.435 62.407 17.4877C62.2278 17.5299 62.0645 17.6036 61.917 17.709C61.78 17.8144 61.6693 17.9461 61.585 18.1042C61.5007 18.2517 61.4586 18.4256 61.4586 18.6258V24H59.1192ZM80.6482 16.7606H80.6008L79.7947 18.3729L77.645 22.2771L75.5427 18.3887L74.705 16.65H74.6575V24H72.3972V12.967H74.9421L77.645 18.1358H77.6766L80.3479 12.967H82.9085V24H80.6482V16.7606ZM88.6832 24.1897C88.051 24.1897 87.4872 24.0896 86.9919 23.8894C86.4967 23.6786 86.0752 23.3888 85.7274 23.02C85.3902 22.6406 85.132 22.1822 84.9529 21.6448C84.7843 21.1074 84.7 20.5068 84.7 19.8429C84.7 19.1895 84.7843 18.5994 84.9529 18.0725C85.1215 17.5351 85.3691 17.0767 85.6958 16.6974C86.033 16.318 86.444 16.0282 86.9287 15.828C87.4135 15.6173 87.9667 15.5119 88.5884 15.5119C89.2734 15.5119 89.8582 15.6278 90.3429 15.8596C90.8382 16.0915 91.2386 16.4023 91.5442 16.7922C91.8604 17.1821 92.0869 17.6352 92.2239 18.1516C92.3714 18.6574 92.4452 19.1895 92.4452 19.748V20.4435H87.1184V20.57C87.1184 21.1179 87.2659 21.5553 87.561 21.8819C87.856 22.1981 88.3197 22.3561 88.952 22.3561C89.4367 22.3561 89.8319 22.2613 90.1374 22.0716C90.443 21.8714 90.7276 21.6343 90.991 21.3603L92.1607 22.8145C91.7919 23.2466 91.3071 23.5838 90.7065 23.8261C90.1164 24.0685 89.442 24.1897 88.6832 24.1897ZM88.6358 17.2348C88.1616 17.2348 87.7875 17.3929 87.5136 17.709C87.2501 18.0146 87.1184 18.4256 87.1184 18.9419V19.0684H90.0268V18.9261C90.0268 18.4203 89.9109 18.0146 89.6791 17.709C89.4578 17.3929 89.11 17.2348 88.6358 17.2348Z" fill="#303038"/>
</svg>
