<svg width="161" height="138" viewBox="0 0 161 138" fill="none" xmlns="http://www.w3.org/2000/svg">
<rect x="29.3024" y="3.2038" width="101.395" height="120.395" rx="2.30243" stroke="#FF5162" stroke-width="4.60486"/>
<rect x="33.8291" y="8.04541" width="92.7794" height="92.7794" rx="4.60486" fill="white"/>
<path d="M70.9399 15.7773C71.7939 15.7773 72.4862 16.4697 72.4862 17.3237C72.4862 18.1777 71.7939 18.87 70.9399 18.87C70.0859 18.87 69.3936 18.1777 69.3936 17.3237C69.3936 16.4697 70.0859 15.7773 70.9399 15.7773Z" fill="#FF5162"/>
<path d="M77.1274 15.7773C77.9814 15.7773 78.6737 16.4697 78.6737 17.3237C78.6737 18.1777 77.9814 18.87 77.1274 18.87C76.2734 18.87 75.5811 18.1777 75.5811 17.3237C75.5811 16.4697 76.2734 15.7773 77.1274 15.7773Z" fill="#FF5162"/>
<path d="M92.5903 15.7773C93.4443 15.7773 94.1366 16.4697 94.1366 17.3237C94.1366 18.1777 93.4443 18.87 92.5903 18.87C91.7363 18.87 91.0439 18.1777 91.0439 17.3237C91.0439 16.4697 91.7363 15.7773 92.5903 15.7773Z" fill="#FF5162"/>
<path d="M70.9399 18.8701C71.7939 18.8701 72.4862 19.5624 72.4862 20.4164C72.4862 21.2705 71.7939 21.9628 70.9399 21.9628C70.0859 21.9628 69.3936 21.2705 69.3936 20.4164C69.3936 19.5624 70.0859 18.8701 70.9399 18.8701Z" fill="#FF5162"/>
<path d="M77.1274 18.8701C77.9814 18.8701 78.6737 19.5624 78.6737 20.4164C78.6737 21.2705 77.9814 21.9628 77.1274 21.9628C76.2734 21.9628 75.5811 21.2705 75.5811 20.4164C75.5811 19.5624 76.2734 18.8701 77.1274 18.8701Z" fill="#FF5162"/>
<path d="M89.4965 18.8696C90.3506 18.8696 91.0428 19.5619 91.0428 20.416C91.0428 21.27 90.3506 21.9623 89.4965 21.9623C88.6425 21.9623 87.9502 21.27 87.9502 20.416C87.9502 19.5619 88.6425 18.8696 89.4965 18.8696Z" fill="#FF5162"/>
<path d="M67.8491 21.9624C68.7031 21.9624 69.3954 22.6547 69.3954 23.5087C69.3954 24.3628 68.7031 25.055 67.8491 25.055C66.9951 25.055 66.3027 24.3628 66.3027 23.5087C66.3027 22.6547 66.9951 21.9624 67.8491 21.9624Z" fill="#FF5162"/>
<path d="M74.0346 21.9624C74.8887 21.9624 75.5809 22.6547 75.5809 23.5087C75.5809 24.3628 74.8887 25.055 74.0346 25.055C73.1806 25.055 72.4883 24.3628 72.4883 23.5087C72.4883 22.6547 73.1806 21.9624 74.0346 21.9624Z" fill="#FF5162"/>
<path d="M86.4037 21.9629C87.2578 21.9629 87.9501 22.6552 87.9501 23.5092C87.9501 24.3633 87.2578 25.0555 86.4037 25.0555C85.5497 25.0555 84.8574 24.3633 84.8574 23.5092C84.8574 22.6552 85.5497 21.9629 86.4037 21.9629Z" fill="#FF5162"/>
<path d="M92.5903 21.9629C93.4443 21.9629 94.1366 22.6552 94.1366 23.5092C94.1366 24.3633 93.4443 25.0555 92.5903 25.0555C91.7363 25.0555 91.0439 24.3633 91.0439 23.5092C91.0439 22.6552 91.7363 21.9629 92.5903 21.9629Z" fill="#FF5162"/>
<path d="M67.8491 25.0552C68.7031 25.0552 69.3954 25.7475 69.3954 26.6015C69.3954 27.4555 68.7031 28.1478 67.8491 28.1478C66.9951 28.1478 66.3027 27.4555 66.3027 26.6015C66.3027 25.7475 66.9951 25.0552 67.8491 25.0552Z" fill="#FF5162"/>
<path d="M70.9399 25.0547C71.7939 25.0547 72.4862 25.747 72.4862 26.601C72.4862 27.4551 71.7939 28.1473 70.9399 28.1473C70.0859 28.1473 69.3936 27.4551 69.3936 26.601C69.3936 25.747 70.0859 25.0547 70.9399 25.0547Z" fill="#FF5162"/>
<path d="M74.0336 25.0552C74.8877 25.0552 75.58 25.7475 75.58 26.6015C75.58 27.4555 74.8877 28.1478 74.0336 28.1478C73.1796 28.1478 72.4873 27.4555 72.4873 26.6015C72.4873 25.7475 73.1796 25.0552 74.0336 25.0552Z" fill="#FF5162"/>
<path d="M83.3129 25.0552C84.167 25.0552 84.8592 25.7475 84.8592 26.6015C84.8592 27.4555 84.167 28.1478 83.3129 28.1478C82.4589 28.1478 81.7666 27.4555 81.7666 26.6015C81.7666 25.7475 82.4589 25.0552 83.3129 25.0552Z" fill="#FF5162"/>
<path d="M86.4037 25.0547C87.2578 25.0547 87.9501 25.747 87.9501 26.601C87.9501 27.4551 87.2578 28.1473 86.4037 28.1473C85.5497 28.1473 84.8574 27.4551 84.8574 26.601C84.8574 25.747 85.5497 25.0547 86.4037 25.0547Z" fill="#FF5162"/>
<path d="M67.8491 28.1479C68.7031 28.1479 69.3954 28.8403 69.3954 29.6943C69.3954 30.5483 68.7031 31.2406 67.8491 31.2406C66.9951 31.2406 66.3027 30.5483 66.3027 29.6943C66.3027 28.8403 66.9951 28.1479 67.8491 28.1479Z" fill="#FF5162"/>
<path d="M80.2192 28.1484C81.0732 28.1484 81.7655 28.8408 81.7655 29.6948C81.7655 30.5488 81.0732 31.2411 80.2192 31.2411C79.3652 31.2411 78.6729 30.5488 78.6729 29.6948C78.6729 28.8408 79.3652 28.1484 80.2192 28.1484Z" fill="#FF5162"/>
<path d="M86.4037 28.1479C87.2578 28.1479 87.9501 28.8403 87.9501 29.6943C87.9501 30.5483 87.2578 31.2406 86.4037 31.2406C85.5497 31.2406 84.8574 30.5483 84.8574 29.6943C84.8574 28.8403 85.5497 28.1479 86.4037 28.1479Z" fill="#FF5162"/>
<path d="M67.8491 31.2407C68.7031 31.2407 69.3954 31.933 69.3954 32.787C69.3954 33.6411 68.7031 34.3334 67.8491 34.3334C66.9951 34.3334 66.3027 33.6411 66.3027 32.787C66.3027 31.933 66.9951 31.2407 67.8491 31.2407Z" fill="#FF5162"/>
<path d="M70.9399 31.2407C71.7939 31.2407 72.4862 31.933 72.4862 32.787C72.4862 33.6411 71.7939 34.3334 70.9399 34.3334C70.0859 34.3334 69.3936 33.6411 69.3936 32.787C69.3936 31.933 70.0859 31.2407 70.9399 31.2407Z" fill="#FF5162"/>
<path d="M74.0346 31.2402C74.8887 31.2402 75.5809 31.9326 75.5809 32.7866C75.5809 33.6406 74.8887 34.3329 74.0346 34.3329C73.1806 34.3329 72.4883 33.6406 72.4883 32.7866C72.4883 31.9326 73.1806 31.2402 74.0346 31.2402Z" fill="#FF5162"/>
<path d="M86.4037 31.2407C87.2578 31.2407 87.9501 31.933 87.9501 32.787C87.9501 33.6411 87.2578 34.3334 86.4037 34.3334C85.5497 34.3334 84.8574 33.6411 84.8574 32.787C84.8574 31.933 85.5497 31.2407 86.4037 31.2407Z" fill="#FF5162"/>
<path d="M89.4965 31.2402C90.3506 31.2402 91.0428 31.9326 91.0428 32.7866C91.0428 33.6406 90.3506 34.3329 89.4965 34.3329C88.6425 34.3329 87.9502 33.6406 87.9502 32.7866C87.9502 31.9326 88.6425 31.2402 89.4965 31.2402Z" fill="#FF5162"/>
<path d="M92.5903 31.2407C93.4443 31.2407 94.1366 31.933 94.1366 32.787C94.1366 33.6411 93.4443 34.3334 92.5903 34.3334C91.7363 34.3334 91.0439 33.6411 91.0439 32.787C91.0439 31.933 91.7363 31.2407 92.5903 31.2407Z" fill="#FF5162"/>
<path d="M67.8491 34.333C68.7031 34.333 69.3954 35.0253 69.3954 35.8793C69.3954 36.7334 68.7031 37.4257 67.8491 37.4257C66.9951 37.4257 66.3027 36.7334 66.3027 35.8793C66.3027 35.0253 66.9951 34.333 67.8491 34.333Z" fill="#FF5162"/>
<path d="M74.0346 34.333C74.8887 34.333 75.5809 35.0253 75.5809 35.8793C75.5809 36.7334 74.8887 37.4257 74.0346 37.4257C73.1806 37.4257 72.4883 36.7334 72.4883 35.8793C72.4883 35.0253 73.1806 34.333 74.0346 34.333Z" fill="#FF5162"/>
<path d="M80.2192 34.333C81.0732 34.333 81.7655 35.0253 81.7655 35.8793C81.7655 36.7334 81.0732 37.4257 80.2192 37.4257C79.3652 37.4257 78.6729 36.7334 78.6729 35.8793C78.6729 35.0253 79.3652 34.333 80.2192 34.333Z" fill="#FF5162"/>
<path d="M86.4037 34.3335C87.2578 34.3335 87.9501 35.0258 87.9501 35.8798C87.9501 36.7339 87.2578 37.4261 86.4037 37.4261C85.5497 37.4261 84.8574 36.7339 84.8574 35.8798C84.8574 35.0258 85.5497 34.3335 86.4037 34.3335Z" fill="#FF5162"/>
<path d="M92.5903 34.3335C93.4443 34.3335 94.1366 35.0258 94.1366 35.8798C94.1366 36.7339 93.4443 37.4261 92.5903 37.4261C91.7363 37.4261 91.0439 36.7339 91.0439 35.8798C91.0439 35.0258 91.7363 34.3335 92.5903 34.3335Z" fill="#FF5162"/>
<path d="M67.8491 37.4258C68.7031 37.4258 69.3954 38.1181 69.3954 38.9721C69.3954 39.8262 68.7031 40.5184 67.8491 40.5184C66.9951 40.5184 66.3027 39.8262 66.3027 38.9721C66.3027 38.1181 66.9951 37.4258 67.8491 37.4258Z" fill="#FF5162"/>
<path d="M74.0336 37.4258C74.8877 37.4258 75.58 38.1181 75.58 38.9721C75.58 39.8262 74.8877 40.5184 74.0336 40.5184C73.1796 40.5184 72.4873 39.8262 72.4873 38.9721C72.4873 38.1181 73.1796 37.4258 74.0336 37.4258Z" fill="#FF5162"/>
<path d="M80.2192 37.4258C81.0732 37.4258 81.7655 38.1181 81.7655 38.9721C81.7655 39.8262 81.0732 40.5184 80.2192 40.5184C79.3652 40.5184 78.6729 39.8262 78.6729 38.9721C78.6729 38.1181 79.3652 37.4258 80.2192 37.4258Z" fill="#FF5162"/>
<path d="M86.4037 37.4263C87.2578 37.4263 87.9501 38.1186 87.9501 38.9726C87.9501 39.8266 87.2578 40.5189 86.4037 40.5189C85.5497 40.5189 84.8574 39.8266 84.8574 38.9726C84.8574 38.1186 85.5497 37.4263 86.4037 37.4263Z" fill="#FF5162"/>
<path d="M89.4965 37.4258C90.3506 37.4258 91.0428 38.1181 91.0428 38.9721C91.0428 39.8262 90.3506 40.5184 89.4965 40.5184C88.6425 40.5184 87.9502 39.8262 87.9502 38.9721C87.9502 38.1181 88.6425 37.4258 89.4965 37.4258Z" fill="#FF5162"/>
<path d="M92.5903 37.4263C93.4443 37.4263 94.1366 38.1186 94.1366 38.9726C94.1366 39.8266 93.4443 40.5189 92.5903 40.5189C91.7363 40.5189 91.0439 39.8266 91.0439 38.9726C91.0439 38.1186 91.7363 37.4263 92.5903 37.4263Z" fill="#FF5162"/>
<path d="M43.1078 40.5186C43.9619 40.5186 44.6542 41.2109 44.6542 42.0649C44.6542 42.9189 43.9619 43.6112 43.1078 43.6112C42.2538 43.6112 41.5615 42.9189 41.5615 42.0649C41.5615 41.2109 42.2538 40.5186 43.1078 40.5186Z" fill="#FF5162"/>
<path d="M49.2924 40.5186C50.1465 40.5186 50.8387 41.2109 50.8387 42.0649C50.8387 42.9189 50.1465 43.6112 49.2924 43.6112C48.4384 43.6112 47.7461 42.9189 47.7461 42.0649C47.7461 41.2109 48.4384 40.5186 49.2924 40.5186Z" fill="#FF5162"/>
<path d="M52.3852 40.5186C53.2392 40.5186 53.9315 41.2109 53.9315 42.0649C53.9315 42.9189 53.2392 43.6112 52.3852 43.6112C51.5312 43.6112 50.8389 42.9189 50.8389 42.0649C50.8389 41.2109 51.5312 40.5186 52.3852 40.5186Z" fill="#FF5162"/>
<path d="M55.478 40.5181C56.332 40.5181 57.0243 41.2104 57.0243 42.0644C57.0243 42.9184 56.332 43.6107 55.478 43.6107C54.624 43.6107 53.9316 42.9184 53.9316 42.0644C53.9316 41.2104 54.624 40.5181 55.478 40.5181Z" fill="#FF5162"/>
<path d="M58.5717 40.5186C59.4258 40.5186 60.118 41.2109 60.118 42.0649C60.118 42.9189 59.4258 43.6112 58.5717 43.6112C57.7177 43.6112 57.0254 42.9189 57.0254 42.0649C57.0254 41.2109 57.7177 40.5186 58.5717 40.5186Z" fill="#FF5162"/>
<path d="M61.6635 40.5181C62.5176 40.5181 63.2098 41.2104 63.2098 42.0644C63.2098 42.9184 62.5176 43.6107 61.6635 43.6107C60.8095 43.6107 60.1172 42.9184 60.1172 42.0644C60.1172 41.2104 60.8095 40.5181 61.6635 40.5181Z" fill="#FF5162"/>
<path d="M80.2192 40.5186C81.0732 40.5186 81.7655 41.2109 81.7655 42.0649C81.7655 42.9189 81.0732 43.6112 80.2192 43.6112C79.3652 43.6112 78.6729 42.9189 78.6729 42.0649C78.6729 41.2109 79.3652 40.5186 80.2192 40.5186Z" fill="#FF5162"/>
<path d="M98.7758 40.519C99.6299 40.519 100.322 41.2114 100.322 42.0654C100.322 42.9194 99.6299 43.6117 98.7758 43.6117C97.9218 43.6117 97.2295 42.9194 97.2295 42.0654C97.2295 41.2114 97.9218 40.519 98.7758 40.519Z" fill="#FF5162"/>
<path d="M101.867 40.5181C102.721 40.5181 103.413 41.2104 103.413 42.0644C103.413 42.9184 102.721 43.6107 101.867 43.6107C101.013 43.6107 100.32 42.9184 100.32 42.0644C100.32 41.2104 101.013 40.5181 101.867 40.5181Z" fill="#FF5162"/>
<path d="M104.96 40.5186C105.814 40.5186 106.507 41.2109 106.507 42.0649C106.507 42.9189 105.814 43.6112 104.96 43.6112C104.106 43.6112 103.414 42.9189 103.414 42.0649C103.414 41.2109 104.106 40.5186 104.96 40.5186Z" fill="#FF5162"/>
<path d="M108.054 40.5181C108.908 40.5181 109.6 41.2104 109.6 42.0644C109.6 42.9184 108.908 43.6107 108.054 43.6107C107.2 43.6107 106.508 42.9184 106.508 42.0644C106.508 41.2104 107.2 40.5181 108.054 40.5181Z" fill="#FF5162"/>
<path d="M111.146 40.5186C112 40.5186 112.692 41.2109 112.692 42.0649C112.692 42.9189 112 43.6112 111.146 43.6112C110.292 43.6112 109.6 42.9189 109.6 42.0649C109.6 41.2109 110.292 40.5186 111.146 40.5186Z" fill="#FF5162"/>
<path d="M43.1078 43.6118C43.9619 43.6118 44.6542 44.3041 44.6542 45.1581C44.6542 46.0122 43.9619 46.7045 43.1078 46.7045C42.2538 46.7045 41.5615 46.0122 41.5615 45.1581C41.5615 44.3041 42.2538 43.6118 43.1078 43.6118Z" fill="#FF5162"/>
<path d="M52.3852 43.6113C53.2392 43.6113 53.9315 44.3036 53.9315 45.1577C53.9315 46.0117 53.2392 46.704 52.3852 46.704C51.5312 46.704 50.8389 46.0117 50.8389 45.1577C50.8389 44.3036 51.5312 43.6113 52.3852 43.6113Z" fill="#FF5162"/>
<path d="M67.8491 43.6113C68.7031 43.6113 69.3954 44.3036 69.3954 45.1577C69.3954 46.0117 68.7031 46.704 67.8491 46.704C66.9951 46.704 66.3027 46.0117 66.3027 45.1577C66.3027 44.3036 66.9951 43.6113 67.8491 43.6113Z" fill="#FF5162"/>
<path d="M70.9399 43.6113C71.7939 43.6113 72.4862 44.3036 72.4862 45.1577C72.4862 46.0117 71.7939 46.704 70.9399 46.704C70.0859 46.704 69.3936 46.0117 69.3936 45.1577C69.3936 44.3036 70.0859 43.6113 70.9399 43.6113Z" fill="#FF5162"/>
<path d="M74.0346 43.6118C74.8887 43.6118 75.5809 44.3041 75.5809 45.1581C75.5809 46.0122 74.8887 46.7045 74.0346 46.7045C73.1806 46.7045 72.4883 46.0122 72.4883 45.1581C72.4883 44.3041 73.1806 43.6118 74.0346 43.6118Z" fill="#FF5162"/>
<path d="M83.3129 43.6118C84.167 43.6118 84.8592 44.3041 84.8592 45.1581C84.8592 46.0122 84.167 46.7045 83.3129 46.7045C82.4589 46.7045 81.7666 46.0122 81.7666 45.1581C81.7666 44.3041 82.4589 43.6118 83.3129 43.6118Z" fill="#FF5162"/>
<path d="M92.5903 43.6113C93.4443 43.6113 94.1366 44.3036 94.1366 45.1577C94.1366 46.0117 93.4443 46.704 92.5903 46.704C91.7363 46.704 91.0439 46.0117 91.0439 45.1577C91.0439 44.3036 91.7363 43.6113 92.5903 43.6113Z" fill="#FF5162"/>
<path d="M101.867 43.6113C102.721 43.6113 103.413 44.3036 103.413 45.1577C103.413 46.0117 102.721 46.704 101.867 46.704C101.013 46.704 100.32 46.0117 100.32 45.1577C100.32 44.3036 101.013 43.6113 101.867 43.6113Z" fill="#FF5162"/>
<path d="M114.24 43.6118C115.094 43.6118 115.786 44.3041 115.786 45.1581C115.786 46.0122 115.094 46.7045 114.24 46.7045C113.386 46.7045 112.693 46.0122 112.693 45.1581C112.693 44.3041 113.386 43.6118 114.24 43.6118Z" fill="#FF5162"/>
<path d="M43.1078 46.7036C43.9619 46.7036 44.6542 47.3959 44.6542 48.2499C44.6542 49.104 43.9619 49.7963 43.1078 49.7963C42.2538 49.7963 41.5615 49.104 41.5615 48.2499C41.5615 47.3959 42.2538 46.7036 43.1078 46.7036Z" fill="#FF5162"/>
<path d="M52.3852 46.7036C53.2392 46.7036 53.9315 47.3959 53.9315 48.2499C53.9315 49.104 53.2392 49.7963 52.3852 49.7963C51.5312 49.7963 50.8389 49.104 50.8389 48.2499C50.8389 47.3959 51.5312 46.7036 52.3852 46.7036Z" fill="#FF5162"/>
<path d="M55.478 46.7036C56.332 46.7036 57.0243 47.3959 57.0243 48.2499C57.0243 49.104 56.332 49.7963 55.478 49.7963C54.624 49.7963 53.9316 49.104 53.9316 48.2499C53.9316 47.3959 54.624 46.7036 55.478 46.7036Z" fill="#FF5162"/>
<path d="M61.6635 46.7036C62.5176 46.7036 63.2098 47.3959 63.2098 48.2499C63.2098 49.104 62.5176 49.7963 61.6635 49.7963C60.8095 49.7963 60.1172 49.104 60.1172 48.2499C60.1172 47.3959 60.8095 46.7036 61.6635 46.7036Z" fill="#FF5162"/>
<path d="M64.7553 46.7036C65.6094 46.7036 66.3016 47.3959 66.3016 48.2499C66.3016 49.104 65.6094 49.7963 64.7553 49.7963C63.9013 49.7963 63.209 49.104 63.209 48.2499C63.209 47.3959 63.9013 46.7036 64.7553 46.7036Z" fill="#FF5162"/>
<path d="M67.8491 46.7036C68.7031 46.7036 69.3954 47.3959 69.3954 48.2499C69.3954 49.104 68.7031 49.7963 67.8491 49.7963C66.9951 49.7963 66.3027 49.104 66.3027 48.2499C66.3027 47.3959 66.9951 46.7036 67.8491 46.7036Z" fill="#FF5162"/>
<path d="M77.1274 46.7036C77.9814 46.7036 78.6737 47.3959 78.6737 48.2499C78.6737 49.104 77.9814 49.7963 77.1274 49.7963C76.2734 49.7963 75.5811 49.104 75.5811 48.2499C75.5811 47.3959 76.2734 46.7036 77.1274 46.7036Z" fill="#FF5162"/>
<path d="M83.3129 46.7036C84.167 46.7036 84.8592 47.3959 84.8592 48.2499C84.8592 49.104 84.167 49.7963 83.3129 49.7963C82.4589 49.7963 81.7666 49.104 81.7666 48.2499C81.7666 47.3959 82.4589 46.7036 83.3129 46.7036Z" fill="#FF5162"/>
<path d="M86.4037 46.7036C87.2578 46.7036 87.9501 47.3959 87.9501 48.2499C87.9501 49.104 87.2578 49.7963 86.4037 49.7963C85.5497 49.7963 84.8574 49.104 84.8574 48.2499C84.8574 47.3959 85.5497 46.7036 86.4037 46.7036Z" fill="#FF5162"/>
<path d="M89.4965 46.7036C90.3506 46.7036 91.0428 47.3959 91.0428 48.2499C91.0428 49.104 90.3506 49.7963 89.4965 49.7963C88.6425 49.7963 87.9502 49.104 87.9502 48.2499C87.9502 47.3959 88.6425 46.7036 89.4965 46.7036Z" fill="#FF5162"/>
<path d="M92.5903 46.7036C93.4443 46.7036 94.1366 47.3959 94.1366 48.2499C94.1366 49.104 93.4443 49.7963 92.5903 49.7963C91.7363 49.7963 91.0439 49.104 91.0439 48.2499C91.0439 47.3959 91.7363 46.7036 92.5903 46.7036Z" fill="#FF5162"/>
<path d="M98.7758 46.7036C99.6299 46.7036 100.322 47.3959 100.322 48.2499C100.322 49.104 99.6299 49.7963 98.7758 49.7963C97.9218 49.7963 97.2295 49.104 97.2295 48.2499C97.2295 47.3959 97.9218 46.7036 98.7758 46.7036Z" fill="#FF5162"/>
<path d="M101.867 46.7036C102.721 46.7036 103.413 47.3959 103.413 48.2499C103.413 49.104 102.721 49.7963 101.867 49.7963C101.013 49.7963 100.32 49.104 100.32 48.2499C100.32 47.3959 101.013 46.7036 101.867 46.7036Z" fill="#FF5162"/>
<path d="M108.054 46.7036C108.908 46.7036 109.6 47.3959 109.6 48.2499C109.6 49.104 108.908 49.7963 108.054 49.7963C107.2 49.7963 106.508 49.104 106.508 48.2499C106.508 47.3959 107.2 46.7036 108.054 46.7036Z" fill="#FF5162"/>
<path d="M114.24 46.7036C115.094 46.7036 115.786 47.3959 115.786 48.2499C115.786 49.104 115.094 49.7963 114.24 49.7963C113.386 49.7963 112.693 49.104 112.693 48.2499C112.693 47.3959 113.386 46.7036 114.24 46.7036Z" fill="#FF5162"/>
<path d="M117.331 46.7036C118.186 46.7036 118.878 47.3959 118.878 48.2499C118.878 49.104 118.186 49.7963 117.331 49.7963C116.477 49.7963 115.785 49.104 115.785 48.2499C115.785 47.3959 116.477 46.7036 117.331 46.7036Z" fill="#FF5162"/>
<path d="M43.1078 49.7964C43.9619 49.7964 44.6542 50.4887 44.6542 51.3427C44.6542 52.1968 43.9619 52.889 43.1078 52.889C42.2538 52.889 41.5615 52.1968 41.5615 51.3427C41.5615 50.4887 42.2538 49.7964 43.1078 49.7964Z" fill="#FF5162"/>
<path d="M49.2924 49.7964C50.1465 49.7964 50.8387 50.4887 50.8387 51.3427C50.8387 52.1968 50.1465 52.889 49.2924 52.889C48.4384 52.889 47.7461 52.1968 47.7461 51.3427C47.7461 50.4887 48.4384 49.7964 49.2924 49.7964Z" fill="#FF5162"/>
<path d="M67.8491 49.7964C68.7031 49.7964 69.3954 50.4887 69.3954 51.3427C69.3954 52.1968 68.7031 52.889 67.8491 52.889C66.9951 52.889 66.3027 52.1968 66.3027 51.3427C66.3027 50.4887 66.9951 49.7964 67.8491 49.7964Z" fill="#FF5162"/>
<path d="M70.9399 49.7964C71.7939 49.7964 72.4862 50.4887 72.4862 51.3427C72.4862 52.1968 71.7939 52.889 70.9399 52.889C70.0859 52.889 69.3936 52.1968 69.3936 51.3427C69.3936 50.4887 70.0859 49.7964 70.9399 49.7964Z" fill="#FF5162"/>
<path d="M74.0346 49.7964C74.8887 49.7964 75.5809 50.4887 75.5809 51.3427C75.5809 52.1968 74.8887 52.889 74.0346 52.889C73.1806 52.889 72.4883 52.1968 72.4883 51.3427C72.4883 50.4887 73.1806 49.7964 74.0346 49.7964Z" fill="#FF5162"/>
<path d="M77.1274 49.7964C77.9814 49.7964 78.6737 50.4887 78.6737 51.3427C78.6737 52.1968 77.9814 52.889 77.1274 52.889C76.2734 52.889 75.5811 52.1968 75.5811 51.3427C75.5811 50.4887 76.2734 49.7964 77.1274 49.7964Z" fill="#FF5162"/>
<path d="M83.3129 49.7964C84.167 49.7964 84.8592 50.4887 84.8592 51.3427C84.8592 52.1968 84.167 52.889 83.3129 52.889C82.4589 52.889 81.7666 52.1968 81.7666 51.3427C81.7666 50.4887 82.4589 49.7964 83.3129 49.7964Z" fill="#FF5162"/>
<path d="M92.5903 49.7964C93.4443 49.7964 94.1366 50.4887 94.1366 51.3427C94.1366 52.1968 93.4443 52.889 92.5903 52.889C91.7363 52.889 91.0439 52.1968 91.0439 51.3427C91.0439 50.4887 91.7363 49.7964 92.5903 49.7964Z" fill="#FF5162"/>
<path d="M117.331 49.7964C118.186 49.7964 118.878 50.4887 118.878 51.3427C118.878 52.1968 118.186 52.889 117.331 52.889C116.477 52.889 115.785 52.1968 115.785 51.3427C115.785 50.4887 116.477 49.7964 117.331 49.7964Z" fill="#FF5162"/>
<path d="M55.478 52.8896C56.332 52.8896 57.0243 53.582 57.0243 54.436C57.0243 55.29 56.332 55.9823 55.478 55.9823C54.624 55.9823 53.9316 55.29 53.9316 54.436C53.9316 53.582 54.624 52.8896 55.478 52.8896Z" fill="#FF5162"/>
<path d="M61.6635 52.8896C62.5176 52.8896 63.2098 53.582 63.2098 54.436C63.2098 55.29 62.5176 55.9823 61.6635 55.9823C60.8095 55.9823 60.1172 55.29 60.1172 54.436C60.1172 53.582 60.8095 52.8896 61.6635 52.8896Z" fill="#FF5162"/>
<path d="M70.9399 52.8896C71.7939 52.8896 72.4862 53.582 72.4862 54.436C72.4862 55.29 71.7939 55.9823 70.9399 55.9823C70.0859 55.9823 69.3936 55.29 69.3936 54.436C69.3936 53.582 70.0859 52.8896 70.9399 52.8896Z" fill="#FF5162"/>
<path d="M80.2192 52.8892C81.0732 52.8892 81.7655 53.5815 81.7655 54.4355C81.7655 55.2895 81.0732 55.9818 80.2192 55.9818C79.3652 55.9818 78.6729 55.2895 78.6729 54.4355C78.6729 53.5815 79.3652 52.8892 80.2192 52.8892Z" fill="#FF5162"/>
<path d="M86.4037 52.8896C87.2578 52.8896 87.9501 53.582 87.9501 54.436C87.9501 55.29 87.2578 55.9823 86.4037 55.9823C85.5497 55.9823 84.8574 55.29 84.8574 54.436C84.8574 53.582 85.5497 52.8896 86.4037 52.8896Z" fill="#FF5162"/>
<path d="M95.6821 52.8892C96.5361 52.8892 97.2284 53.5815 97.2284 54.4355C97.2284 55.2895 96.5361 55.9818 95.6821 55.9818C94.8281 55.9818 94.1357 55.2895 94.1357 54.4355C94.1357 53.5815 94.8281 52.8892 95.6821 52.8892Z" fill="#FF5162"/>
<path d="M98.7758 52.8892C99.6299 52.8892 100.322 53.5815 100.322 54.4355C100.322 55.2895 99.6299 55.9818 98.7758 55.9818C97.9218 55.9818 97.2295 55.2895 97.2295 54.4355C97.2295 53.5815 97.9218 52.8892 98.7758 52.8892Z" fill="#FF5162"/>
<path d="M101.867 52.8896C102.721 52.8896 103.413 53.582 103.413 54.436C103.413 55.29 102.721 55.9823 101.867 55.9823C101.013 55.9823 100.32 55.29 100.32 54.436C100.32 53.582 101.013 52.8896 101.867 52.8896Z" fill="#FF5162"/>
<path d="M104.96 52.8892C105.814 52.8892 106.507 53.5815 106.507 54.4355C106.507 55.2895 105.814 55.9818 104.96 55.9818C104.106 55.9818 103.414 55.2895 103.414 54.4355C103.414 53.5815 104.106 52.8892 104.96 52.8892Z" fill="#FF5162"/>
<path d="M111.146 52.8892C112 52.8892 112.692 53.5815 112.692 54.4355C112.692 55.2895 112 55.9818 111.146 55.9818C110.292 55.9818 109.6 55.2895 109.6 54.4355C109.6 53.5815 110.292 52.8892 111.146 52.8892Z" fill="#FF5162"/>
<path d="M114.239 52.8892C115.093 52.8892 115.785 53.5815 115.785 54.4355C115.785 55.2895 115.093 55.9818 114.239 55.9818C113.385 55.9818 112.692 55.2895 112.692 54.4355C112.692 53.5815 113.385 52.8892 114.239 52.8892Z" fill="#FF5162"/>
<path d="M117.331 52.8892C118.186 52.8892 118.878 53.5815 118.878 54.4355C118.878 55.2895 118.186 55.9818 117.331 55.9818C116.477 55.9818 115.785 55.2895 115.785 54.4355C115.785 53.5815 116.477 52.8892 117.331 52.8892Z" fill="#FF5162"/>
<path d="M43.1078 55.9819C43.9619 55.9819 44.6542 56.6743 44.6542 57.5283C44.6542 58.3823 43.9619 59.0746 43.1078 59.0746C42.2538 59.0746 41.5615 58.3823 41.5615 57.5283C41.5615 56.6743 42.2538 55.9819 43.1078 55.9819Z" fill="#FF5162"/>
<path d="M46.2006 55.981C47.0547 55.981 47.7469 56.6733 47.7469 57.5273C47.7469 58.3813 47.0547 59.0736 46.2006 59.0736C45.3466 59.0736 44.6543 58.3813 44.6543 57.5273C44.6543 56.6733 45.3466 55.981 46.2006 55.981Z" fill="#FF5162"/>
<path d="M55.478 55.9814C56.332 55.9814 57.0243 56.6738 57.0243 57.5278C57.0243 58.3818 56.332 59.0741 55.478 59.0741C54.624 59.0741 53.9316 58.3818 53.9316 57.5278C53.9316 56.6738 54.624 55.9814 55.478 55.9814Z" fill="#FF5162"/>
<path d="M58.5717 55.9819C59.4258 55.9819 60.118 56.6743 60.118 57.5283C60.118 58.3823 59.4258 59.0746 58.5717 59.0746C57.7177 59.0746 57.0254 58.3823 57.0254 57.5283C57.0254 56.6743 57.7177 55.9819 58.5717 55.9819Z" fill="#FF5162"/>
<path d="M64.7553 55.9819C65.6094 55.9819 66.3016 56.6743 66.3016 57.5283C66.3016 58.3823 65.6094 59.0746 64.7553 59.0746C63.9013 59.0746 63.209 58.3823 63.209 57.5283C63.209 56.6743 63.9013 55.9819 64.7553 55.9819Z" fill="#FF5162"/>
<path d="M92.5903 55.9814C93.4443 55.9814 94.1366 56.6738 94.1366 57.5278C94.1366 58.3818 93.4443 59.0741 92.5903 59.0741C91.7363 59.0741 91.0439 58.3818 91.0439 57.5278C91.0439 56.6738 91.7363 55.9814 92.5903 55.9814Z" fill="#FF5162"/>
<path d="M108.054 55.9814C108.908 55.9814 109.6 56.6738 109.6 57.5278C109.6 58.3818 108.908 59.0741 108.054 59.0741C107.2 59.0741 106.508 58.3818 106.508 57.5278C106.508 56.6738 107.2 55.9814 108.054 55.9814Z" fill="#FF5162"/>
<path d="M114.239 55.9819C115.093 55.9819 115.785 56.6743 115.785 57.5283C115.785 58.3823 115.093 59.0746 114.239 59.0746C113.385 59.0746 112.692 58.3823 112.692 57.5283C112.692 56.6743 113.385 55.9819 114.239 55.9819Z" fill="#FF5162"/>
<path d="M43.1078 59.0742C43.9619 59.0742 44.6542 59.7665 44.6542 60.6205C44.6542 61.4746 43.9619 62.1669 43.1078 62.1669C42.2538 62.1669 41.5615 61.4746 41.5615 60.6205C41.5615 59.7665 42.2538 59.0742 43.1078 59.0742Z" fill="#FF5162"/>
<path d="M52.3852 59.0742C53.2392 59.0742 53.9315 59.7665 53.9315 60.6205C53.9315 61.4746 53.2392 62.1669 52.3852 62.1669C51.5312 62.1669 50.8389 61.4746 50.8389 60.6205C50.8389 59.7665 51.5312 59.0742 52.3852 59.0742Z" fill="#FF5162"/>
<path d="M58.5717 59.0742C59.4258 59.0742 60.118 59.7665 60.118 60.6205C60.118 61.4746 59.4258 62.1669 58.5717 62.1669C57.7177 62.1669 57.0254 61.4746 57.0254 60.6205C57.0254 59.7665 57.7177 59.0742 58.5717 59.0742Z" fill="#FF5162"/>
<path d="M61.6635 59.0742C62.5176 59.0742 63.2098 59.7665 63.2098 60.6205C63.2098 61.4746 62.5176 62.1669 61.6635 62.1669C60.8095 62.1669 60.1172 61.4746 60.1172 60.6205C60.1172 59.7665 60.8095 59.0742 61.6635 59.0742Z" fill="#FF5162"/>
<path d="M64.7553 59.0742C65.6094 59.0742 66.3016 59.7665 66.3016 60.6205C66.3016 61.4746 65.6094 62.1669 64.7553 62.1669C63.9013 62.1669 63.209 61.4746 63.209 60.6205C63.209 59.7665 63.9013 59.0742 64.7553 59.0742Z" fill="#FF5162"/>
<path d="M67.8491 59.0742C68.7031 59.0742 69.3954 59.7665 69.3954 60.6205C69.3954 61.4746 68.7031 62.1669 67.8491 62.1669C66.9951 62.1669 66.3027 61.4746 66.3027 60.6205C66.3027 59.7665 66.9951 59.0742 67.8491 59.0742Z" fill="#FF5162"/>
<path d="M74.0346 59.0742C74.8887 59.0742 75.5809 59.7665 75.5809 60.6205C75.5809 61.4746 74.8887 62.1669 74.0346 62.1669C73.1806 62.1669 72.4883 61.4746 72.4883 60.6205C72.4883 59.7665 73.1806 59.0742 74.0346 59.0742Z" fill="#FF5162"/>
<path d="M77.1274 59.0742C77.9814 59.0742 78.6737 59.7665 78.6737 60.6205C78.6737 61.4746 77.9814 62.1669 77.1274 62.1669C76.2734 62.1669 75.5811 61.4746 75.5811 60.6205C75.5811 59.7665 76.2734 59.0742 77.1274 59.0742Z" fill="#FF5162"/>
<path d="M80.2192 59.0742C81.0732 59.0742 81.7655 59.7665 81.7655 60.6205C81.7655 61.4746 81.0732 62.1669 80.2192 62.1669C79.3652 62.1669 78.6729 61.4746 78.6729 60.6205C78.6729 59.7665 79.3652 59.0742 80.2192 59.0742Z" fill="#FF5162"/>
<path d="M89.4965 59.0742C90.3506 59.0742 91.0428 59.7665 91.0428 60.6205C91.0428 61.4746 90.3506 62.1669 89.4965 62.1669C88.6425 62.1669 87.9502 61.4746 87.9502 60.6205C87.9502 59.7665 88.6425 59.0742 89.4965 59.0742Z" fill="#FF5162"/>
<path d="M92.5903 59.0742C93.4443 59.0742 94.1366 59.7665 94.1366 60.6205C94.1366 61.4746 93.4443 62.1669 92.5903 62.1669C91.7363 62.1669 91.0439 61.4746 91.0439 60.6205C91.0439 59.7665 91.7363 59.0742 92.5903 59.0742Z" fill="#FF5162"/>
<path d="M95.6821 59.0742C96.5361 59.0742 97.2284 59.7665 97.2284 60.6205C97.2284 61.4746 96.5361 62.1669 95.6821 62.1669C94.8281 62.1669 94.1357 61.4746 94.1357 60.6205C94.1357 59.7665 94.8281 59.0742 95.6821 59.0742Z" fill="#FF5162"/>
<path d="M101.867 59.0742C102.721 59.0742 103.413 59.7665 103.413 60.6205C103.413 61.4746 102.721 62.1669 101.867 62.1669C101.013 62.1669 100.32 61.4746 100.32 60.6205C100.32 59.7665 101.013 59.0742 101.867 59.0742Z" fill="#FF5162"/>
<path d="M108.054 59.0742C108.908 59.0742 109.6 59.7665 109.6 60.6205C109.6 61.4746 108.908 62.1669 108.054 62.1669C107.2 62.1669 106.508 61.4746 106.508 60.6205C106.508 59.7665 107.2 59.0742 108.054 59.0742Z" fill="#FF5162"/>
<path d="M114.24 59.0742C115.094 59.0742 115.786 59.7665 115.786 60.6205C115.786 61.4746 115.094 62.1669 114.24 62.1669C113.386 62.1669 112.693 61.4746 112.693 60.6205C112.693 59.7665 113.386 59.0742 114.24 59.0742Z" fill="#FF5162"/>
<path d="M117.331 59.0742C118.186 59.0742 118.878 59.7665 118.878 60.6205C118.878 61.4746 118.186 62.1669 117.331 62.1669C116.477 62.1669 115.785 61.4746 115.785 60.6205C115.785 59.7665 116.477 59.0742 117.331 59.0742Z" fill="#FF5162"/>
<path d="M43.1078 62.167C43.9619 62.167 44.6542 62.8593 44.6542 63.7133C44.6542 64.5674 43.9619 65.2596 43.1078 65.2596C42.2538 65.2596 41.5615 64.5674 41.5615 63.7133C41.5615 62.8593 42.2538 62.167 43.1078 62.167Z" fill="#FF5162"/>
<path d="M52.3852 62.167C53.2392 62.167 53.9315 62.8593 53.9315 63.7133C53.9315 64.5674 53.2392 65.2596 52.3852 65.2596C51.5312 65.2596 50.8389 64.5674 50.8389 63.7133C50.8389 62.8593 51.5312 62.167 52.3852 62.167Z" fill="#FF5162"/>
<path d="M58.5717 62.167C59.4258 62.167 60.118 62.8593 60.118 63.7133C60.118 64.5674 59.4258 65.2596 58.5717 65.2596C57.7177 65.2596 57.0254 64.5674 57.0254 63.7133C57.0254 62.8593 57.7177 62.167 58.5717 62.167Z" fill="#FF5162"/>
<path d="M70.9399 62.167C71.7939 62.167 72.4862 62.8593 72.4862 63.7133C72.4862 64.5674 71.7939 65.2596 70.9399 65.2596C70.0859 65.2596 69.3936 64.5674 69.3936 63.7133C69.3936 62.8593 70.0859 62.167 70.9399 62.167Z" fill="#FF5162"/>
<path d="M77.1274 62.167C77.9814 62.167 78.6737 62.8593 78.6737 63.7133C78.6737 64.5674 77.9814 65.2596 77.1274 65.2596C76.2734 65.2596 75.5811 64.5674 75.5811 63.7133C75.5811 62.8593 76.2734 62.167 77.1274 62.167Z" fill="#FF5162"/>
<path d="M86.4037 62.167C87.2578 62.167 87.9501 62.8593 87.9501 63.7133C87.9501 64.5674 87.2578 65.2596 86.4037 65.2596C85.5497 65.2596 84.8574 64.5674 84.8574 63.7133C84.8574 62.8593 85.5497 62.167 86.4037 62.167Z" fill="#FF5162"/>
<path d="M95.6821 62.167C96.5361 62.167 97.2284 62.8593 97.2284 63.7133C97.2284 64.5674 96.5361 65.2596 95.6821 65.2596C94.8281 65.2596 94.1357 64.5674 94.1357 63.7133C94.1357 62.8593 94.8281 62.167 95.6821 62.167Z" fill="#FF5162"/>
<path d="M108.054 62.167C108.908 62.167 109.6 62.8593 109.6 63.7133C109.6 64.5674 108.908 65.2596 108.054 65.2596C107.2 65.2596 106.508 64.5674 106.508 63.7133C106.508 62.8593 107.2 62.167 108.054 62.167Z" fill="#FF5162"/>
<path d="M117.331 62.167C118.186 62.167 118.878 62.8593 118.878 63.7133C118.878 64.5674 118.186 65.2596 117.331 65.2596C116.477 65.2596 115.785 64.5674 115.785 63.7133C115.785 62.8593 116.477 62.167 117.331 62.167Z" fill="#FF5162"/>
<path d="M43.1078 65.2598C43.9619 65.2598 44.6542 65.9521 44.6542 66.8061C44.6542 67.6601 43.9619 68.3524 43.1078 68.3524C42.2538 68.3524 41.5615 67.6601 41.5615 66.8061C41.5615 65.9521 42.2538 65.2598 43.1078 65.2598Z" fill="#FF5162"/>
<path d="M49.2924 65.2598C50.1465 65.2598 50.8387 65.9521 50.8387 66.8061C50.8387 67.6601 50.1465 68.3524 49.2924 68.3524C48.4384 68.3524 47.7461 67.6601 47.7461 66.8061C47.7461 65.9521 48.4384 65.2598 49.2924 65.2598Z" fill="#FF5162"/>
<path d="M58.5717 65.2598C59.4258 65.2598 60.118 65.9521 60.118 66.8061C60.118 67.6601 59.4258 68.3524 58.5717 68.3524C57.7177 68.3524 57.0254 67.6601 57.0254 66.8061C57.0254 65.9521 57.7177 65.2598 58.5717 65.2598Z" fill="#FF5162"/>
<path d="M61.6635 65.2598C62.5176 65.2598 63.2098 65.9521 63.2098 66.8061C63.2098 67.6601 62.5176 68.3524 61.6635 68.3524C60.8095 68.3524 60.1172 67.6601 60.1172 66.8061C60.1172 65.9521 60.8095 65.2598 61.6635 65.2598Z" fill="#FF5162"/>
<path d="M67.8491 65.2598C68.7031 65.2598 69.3954 65.9521 69.3954 66.8061C69.3954 67.6601 68.7031 68.3524 67.8491 68.3524C66.9951 68.3524 66.3027 67.6601 66.3027 66.8061C66.3027 65.9521 66.9951 65.2598 67.8491 65.2598Z" fill="#FF5162"/>
<path d="M77.1274 65.2598C77.9814 65.2598 78.6737 65.9521 78.6737 66.8061C78.6737 67.6601 77.9814 68.3524 77.1274 68.3524C76.2734 68.3524 75.5811 67.6601 75.5811 66.8061C75.5811 65.9521 76.2734 65.2598 77.1274 65.2598Z" fill="#FF5162"/>
<path d="M89.4965 65.2598C90.3506 65.2598 91.0428 65.9521 91.0428 66.8061C91.0428 67.6601 90.3506 68.3524 89.4965 68.3524C88.6425 68.3524 87.9502 67.6601 87.9502 66.8061C87.9502 65.9521 88.6425 65.2598 89.4965 65.2598Z" fill="#FF5162"/>
<path d="M92.5903 65.2598C93.4443 65.2598 94.1366 65.9521 94.1366 66.8061C94.1366 67.6601 93.4443 68.3524 92.5903 68.3524C91.7363 68.3524 91.0439 67.6601 91.0439 66.8061C91.0439 65.9521 91.7363 65.2598 92.5903 65.2598Z" fill="#FF5162"/>
<path d="M95.6821 65.2598C96.5361 65.2598 97.2284 65.9521 97.2284 66.8061C97.2284 67.6601 96.5361 68.3524 95.6821 68.3524C94.8281 68.3524 94.1357 67.6601 94.1357 66.8061C94.1357 65.9521 94.8281 65.2598 95.6821 65.2598Z" fill="#FF5162"/>
<path d="M98.7758 65.2598C99.6299 65.2598 100.322 65.9521 100.322 66.8061C100.322 67.6601 99.6299 68.3524 98.7758 68.3524C97.9218 68.3524 97.2295 67.6601 97.2295 66.8061C97.2295 65.9521 97.9218 65.2598 98.7758 65.2598Z" fill="#FF5162"/>
<path d="M101.867 65.2598C102.721 65.2598 103.413 65.9521 103.413 66.8061C103.413 67.6601 102.721 68.3524 101.867 68.3524C101.013 68.3524 100.32 67.6601 100.32 66.8061C100.32 65.9521 101.013 65.2598 101.867 65.2598Z" fill="#FF5162"/>
<path d="M104.96 65.2598C105.814 65.2598 106.507 65.9521 106.507 66.8061C106.507 67.6601 105.814 68.3524 104.96 68.3524C104.106 68.3524 103.414 67.6601 103.414 66.8061C103.414 65.9521 104.106 65.2598 104.96 65.2598Z" fill="#FF5162"/>
<path d="M111.146 65.2598C112 65.2598 112.692 65.9521 112.692 66.8061C112.692 67.6601 112 68.3524 111.146 68.3524C110.292 68.3524 109.6 67.6601 109.6 66.8061C109.6 65.9521 110.292 65.2598 111.146 65.2598Z" fill="#FF5162"/>
<path d="M67.8491 68.3525C68.7031 68.3525 69.3954 69.0449 69.3954 69.8989C69.3954 70.7529 68.7031 71.4452 67.8491 71.4452C66.9951 71.4452 66.3027 70.7529 66.3027 69.8989C66.3027 69.0449 66.9951 68.3525 67.8491 68.3525Z" fill="#FF5162"/>
<path d="M70.9399 68.3525C71.7939 68.3525 72.4862 69.0449 72.4862 69.8989C72.4862 70.7529 71.7939 71.4452 70.9399 71.4452C70.0859 71.4452 69.3936 70.7529 69.3936 69.8989C69.3936 69.0449 70.0859 68.3525 70.9399 68.3525Z" fill="#FF5162"/>
<path d="M74.0336 68.3525C74.8877 68.3525 75.58 69.0449 75.58 69.8989C75.58 70.7529 74.8877 71.4452 74.0336 71.4452C73.1796 71.4452 72.4873 70.7529 72.4873 69.8989C72.4873 69.0449 73.1796 68.3525 74.0336 68.3525Z" fill="#FF5162"/>
<path d="M80.2192 68.3525C81.0732 68.3525 81.7655 69.0449 81.7655 69.8989C81.7655 70.7529 81.0732 71.4452 80.2192 71.4452C79.3652 71.4452 78.6729 70.7529 78.6729 69.8989C78.6729 69.0449 79.3652 68.3525 80.2192 68.3525Z" fill="#FF5162"/>
<path d="M83.3129 68.3525C84.167 68.3525 84.8592 69.0449 84.8592 69.8989C84.8592 70.7529 84.167 71.4452 83.3129 71.4452C82.4589 71.4452 81.7666 70.7529 81.7666 69.8989C81.7666 69.0449 82.4589 68.3525 83.3129 68.3525Z" fill="#FF5162"/>
<path d="M86.4037 68.3525C87.2578 68.3525 87.9501 69.0449 87.9501 69.8989C87.9501 70.7529 87.2578 71.4452 86.4037 71.4452C85.5497 71.4452 84.8574 70.7529 84.8574 69.8989C84.8574 69.0449 85.5497 68.3525 86.4037 68.3525Z" fill="#FF5162"/>
<path d="M89.4965 68.3525C90.3506 68.3525 91.0428 69.0449 91.0428 69.8989C91.0428 70.7529 90.3506 71.4452 89.4965 71.4452C88.6425 71.4452 87.9502 70.7529 87.9502 69.8989C87.9502 69.0449 88.6425 68.3525 89.4965 68.3525Z" fill="#FF5162"/>
<path d="M92.5903 68.3525C93.4443 68.3525 94.1366 69.0449 94.1366 69.8989C94.1366 70.7529 93.4443 71.4452 92.5903 71.4452C91.7363 71.4452 91.0439 70.7529 91.0439 69.8989C91.0439 69.0449 91.7363 68.3525 92.5903 68.3525Z" fill="#FF5162"/>
<path d="M104.96 68.3525C105.814 68.3525 106.507 69.0449 106.507 69.8989C106.507 70.7529 105.814 71.4452 104.96 71.4452C104.106 71.4452 103.414 70.7529 103.414 69.8989C103.414 69.0449 104.106 68.3525 104.96 68.3525Z" fill="#FF5162"/>
<path d="M108.054 68.3525C108.908 68.3525 109.6 69.0449 109.6 69.8989C109.6 70.7529 108.908 71.4452 108.054 71.4452C107.2 71.4452 106.508 70.7529 106.508 69.8989C106.508 69.0449 107.2 68.3525 108.054 68.3525Z" fill="#FF5162"/>
<path d="M111.146 68.3525C112 68.3525 112.692 69.0449 112.692 69.8989C112.692 70.7529 112 71.4452 111.146 71.4452C110.292 71.4452 109.6 70.7529 109.6 69.8989C109.6 69.0449 110.292 68.3525 111.146 68.3525Z" fill="#FF5162"/>
<path d="M83.3129 71.4448C84.167 71.4448 84.8592 72.1371 84.8592 72.9911C84.8592 73.8452 84.167 74.5375 83.3129 74.5375C82.4589 74.5375 81.7666 73.8452 81.7666 72.9911C81.7666 72.1371 82.4589 71.4448 83.3129 71.4448Z" fill="#FF5162"/>
<path d="M86.4037 71.4448C87.2578 71.4448 87.9501 72.1371 87.9501 72.9911C87.9501 73.8452 87.2578 74.5375 86.4037 74.5375C85.5497 74.5375 84.8574 73.8452 84.8574 72.9911C84.8574 72.1371 85.5497 71.4448 86.4037 71.4448Z" fill="#FF5162"/>
<path d="M92.5903 71.4448C93.4443 71.4448 94.1366 72.1371 94.1366 72.9911C94.1366 73.8452 93.4443 74.5375 92.5903 74.5375C91.7363 74.5375 91.0439 73.8452 91.0439 72.9911C91.0439 72.1371 91.7363 71.4448 92.5903 71.4448Z" fill="#FF5162"/>
<path d="M98.7758 71.4448C99.6299 71.4448 100.322 72.1371 100.322 72.9911C100.322 73.8452 99.6299 74.5375 98.7758 74.5375C97.9218 74.5375 97.2295 73.8452 97.2295 72.9911C97.2295 72.1371 97.9218 71.4448 98.7758 71.4448Z" fill="#FF5162"/>
<path d="M104.96 71.4448C105.814 71.4448 106.507 72.1371 106.507 72.9911C106.507 73.8452 105.814 74.5375 104.96 74.5375C104.106 74.5375 103.414 73.8452 103.414 72.9911C103.414 72.1371 104.106 71.4448 104.96 71.4448Z" fill="#FF5162"/>
<path d="M108.054 71.4448C108.908 71.4448 109.6 72.1371 109.6 72.9911C109.6 73.8452 108.908 74.5375 108.054 74.5375C107.2 74.5375 106.508 73.8452 106.508 72.9911C106.508 72.1371 107.2 71.4448 108.054 71.4448Z" fill="#FF5162"/>
<path d="M111.146 71.4453C112 71.4453 112.692 72.1376 112.692 72.9916C112.692 73.8457 112 74.538 111.146 74.538C110.292 74.538 109.6 73.8457 109.6 72.9916C109.6 72.1376 110.292 71.4453 111.146 71.4453Z" fill="#FF5162"/>
<path d="M114.24 71.4448C115.094 71.4448 115.786 72.1371 115.786 72.9911C115.786 73.8452 115.094 74.5375 114.24 74.5375C113.386 74.5375 112.693 73.8452 112.693 72.9911C112.693 72.1371 113.386 71.4448 114.24 71.4448Z" fill="#FF5162"/>
<path d="M117.331 71.4443C118.186 71.4443 118.878 72.1367 118.878 72.9907C118.878 73.8447 118.186 74.537 117.331 74.537C116.477 74.537 115.785 73.8447 115.785 72.9907C115.785 72.1367 116.477 71.4443 117.331 71.4443Z" fill="#FF5162"/>
<path d="M67.8491 74.5376C68.7031 74.5376 69.3954 75.2299 69.3954 76.0839C69.3954 76.938 68.7031 77.6302 67.8491 77.6302C66.9951 77.6302 66.3027 76.938 66.3027 76.0839C66.3027 75.2299 66.9951 74.5376 67.8491 74.5376Z" fill="#FF5162"/>
<path d="M70.9399 74.5376C71.7939 74.5376 72.4862 75.2299 72.4862 76.0839C72.4862 76.938 71.7939 77.6302 70.9399 77.6302C70.0859 77.6302 69.3936 76.938 69.3936 76.0839C69.3936 75.2299 70.0859 74.5376 70.9399 74.5376Z" fill="#FF5162"/>
<path d="M74.0346 74.5376C74.8887 74.5376 75.5809 75.2299 75.5809 76.0839C75.5809 76.938 74.8887 77.6302 74.0346 77.6302C73.1806 77.6302 72.4883 76.938 72.4883 76.0839C72.4883 75.2299 73.1806 74.5376 74.0346 74.5376Z" fill="#FF5162"/>
<path d="M80.2192 74.5376C81.0732 74.5376 81.7655 75.2299 81.7655 76.0839C81.7655 76.938 81.0732 77.6302 80.2192 77.6302C79.3652 77.6302 78.6729 76.938 78.6729 76.0839C78.6729 75.2299 79.3652 74.5376 80.2192 74.5376Z" fill="#FF5162"/>
<path d="M83.3129 74.5376C84.167 74.5376 84.8592 75.2299 84.8592 76.0839C84.8592 76.938 84.167 77.6302 83.3129 77.6302C82.4589 77.6302 81.7666 76.938 81.7666 76.0839C81.7666 75.2299 82.4589 74.5376 83.3129 74.5376Z" fill="#FF5162"/>
<path d="M92.5903 74.5376C93.4443 74.5376 94.1366 75.2299 94.1366 76.0839C94.1366 76.938 93.4443 77.6302 92.5903 77.6302C91.7363 77.6302 91.0439 76.938 91.0439 76.0839C91.0439 75.2299 91.7363 74.5376 92.5903 74.5376Z" fill="#FF5162"/>
<path d="M104.96 74.5376C105.814 74.5376 106.507 75.2299 106.507 76.0839C106.507 76.938 105.814 77.6302 104.96 77.6302C104.106 77.6302 103.414 76.938 103.414 76.0839C103.414 75.2299 104.106 74.5376 104.96 74.5376Z" fill="#FF5162"/>
<path d="M108.054 74.5376C108.908 74.5376 109.6 75.2299 109.6 76.0839C109.6 76.938 108.908 77.6302 108.054 77.6302C107.2 77.6302 106.508 76.938 106.508 76.0839C106.508 75.2299 107.2 74.5376 108.054 74.5376Z" fill="#FF5162"/>
<path d="M114.24 74.5376C115.094 74.5376 115.786 75.2299 115.786 76.0839C115.786 76.938 115.094 77.6302 114.24 77.6302C113.386 77.6302 112.693 76.938 112.693 76.0839C112.693 75.2299 113.386 74.5376 114.24 74.5376Z" fill="#FF5162"/>
<path d="M67.8491 77.6304C68.7031 77.6304 69.3954 78.3227 69.3954 79.1767C69.3954 80.0307 68.7031 80.723 67.8491 80.723C66.9951 80.723 66.3027 80.0307 66.3027 79.1767C66.3027 78.3227 66.9951 77.6304 67.8491 77.6304Z" fill="#FF5162"/>
<path d="M70.9399 77.6304C71.7939 77.6304 72.4862 78.3227 72.4862 79.1767C72.4862 80.0307 71.7939 80.723 70.9399 80.723C70.0859 80.723 69.3936 80.0307 69.3936 79.1767C69.3936 78.3227 70.0859 77.6304 70.9399 77.6304Z" fill="#FF5162"/>
<path d="M74.0336 77.6304C74.8877 77.6304 75.58 78.3227 75.58 79.1767C75.58 80.0307 74.8877 80.723 74.0336 80.723C73.1796 80.723 72.4873 80.0307 72.4873 79.1767C72.4873 78.3227 73.1796 77.6304 74.0336 77.6304Z" fill="#FF5162"/>
<path d="M80.2192 77.6304C81.0732 77.6304 81.7655 78.3227 81.7655 79.1767C81.7655 80.0307 81.0732 80.723 80.2192 80.723C79.3652 80.723 78.6729 80.0307 78.6729 79.1767C78.6729 78.3227 79.3652 77.6304 80.2192 77.6304Z" fill="#FF5162"/>
<path d="M86.4037 77.6304C87.2578 77.6304 87.9501 78.3227 87.9501 79.1767C87.9501 80.0307 87.2578 80.723 86.4037 80.723C85.5497 80.723 84.8574 80.0307 84.8574 79.1767C84.8574 78.3227 85.5497 77.6304 86.4037 77.6304Z" fill="#FF5162"/>
<path d="M89.4965 77.6304C90.3506 77.6304 91.0428 78.3227 91.0428 79.1767C91.0428 80.0307 90.3506 80.723 89.4965 80.723C88.6425 80.723 87.9502 80.0307 87.9502 79.1767C87.9502 78.3227 88.6425 77.6304 89.4965 77.6304Z" fill="#FF5162"/>
<path d="M92.5903 77.6304C93.4443 77.6304 94.1366 78.3227 94.1366 79.1767C94.1366 80.0307 93.4443 80.723 92.5903 80.723C91.7363 80.723 91.0439 80.0307 91.0439 79.1767C91.0439 78.3227 91.7363 77.6304 92.5903 77.6304Z" fill="#FF5162"/>
<path d="M95.6821 77.6304C96.5361 77.6304 97.2284 78.3227 97.2284 79.1767C97.2284 80.0307 96.5361 80.723 95.6821 80.723C94.8281 80.723 94.1357 80.0307 94.1357 79.1767C94.1357 78.3227 94.8281 77.6304 95.6821 77.6304Z" fill="#FF5162"/>
<path d="M98.7758 77.6304C99.6299 77.6304 100.322 78.3227 100.322 79.1767C100.322 80.0307 99.6299 80.723 98.7758 80.723C97.9218 80.723 97.2295 80.0307 97.2295 79.1767C97.2295 78.3227 97.9218 77.6304 98.7758 77.6304Z" fill="#FF5162"/>
<path d="M101.867 77.6304C102.721 77.6304 103.413 78.3227 103.413 79.1767C103.413 80.0307 102.721 80.723 101.867 80.723C101.013 80.723 100.32 80.0307 100.32 79.1767C100.32 78.3227 101.013 77.6304 101.867 77.6304Z" fill="#FF5162"/>
<path d="M104.96 77.6304C105.814 77.6304 106.507 78.3227 106.507 79.1767C106.507 80.0307 105.814 80.723 104.96 80.723C104.106 80.723 103.414 80.0307 103.414 79.1767C103.414 78.3227 104.106 77.6304 104.96 77.6304Z" fill="#FF5162"/>
<path d="M108.054 77.6304C108.908 77.6304 109.6 78.3227 109.6 79.1767C109.6 80.0307 108.908 80.723 108.054 80.723C107.2 80.723 106.508 80.0307 106.508 79.1767C106.508 78.3227 107.2 77.6304 108.054 77.6304Z" fill="#FF5162"/>
<path d="M111.146 77.6304C112 77.6304 112.692 78.3227 112.692 79.1767C112.692 80.0307 112 80.723 111.146 80.723C110.292 80.723 109.6 80.0307 109.6 79.1767C109.6 78.3227 110.292 77.6304 111.146 77.6304Z" fill="#FF5162"/>
<path d="M117.331 77.6304C118.186 77.6304 118.878 78.3227 118.878 79.1767C118.878 80.0307 118.186 80.723 117.331 80.723C116.477 80.723 115.785 80.0307 115.785 79.1767C115.785 78.3227 116.477 77.6304 117.331 77.6304Z" fill="#FF5162"/>
<path d="M67.8491 80.7231C68.7031 80.7231 69.3954 81.4155 69.3954 82.2695C69.3954 83.1235 68.7031 83.8158 67.8491 83.8158C66.9951 83.8158 66.3027 83.1235 66.3027 82.2695C66.3027 81.4155 66.9951 80.7231 67.8491 80.7231Z" fill="#FF5162"/>
<path d="M70.9399 80.7231C71.7939 80.7231 72.4862 81.4155 72.4862 82.2695C72.4862 83.1235 71.7939 83.8158 70.9399 83.8158C70.0859 83.8158 69.3936 83.1235 69.3936 82.2695C69.3936 81.4155 70.0859 80.7231 70.9399 80.7231Z" fill="#FF5162"/>
<path d="M89.4965 80.7231C90.3506 80.7231 91.0428 81.4155 91.0428 82.2695C91.0428 83.1235 90.3506 83.8158 89.4965 83.8158C88.6425 83.8158 87.9502 83.1235 87.9502 82.2695C87.9502 81.4155 88.6425 80.7231 89.4965 80.7231Z" fill="#FF5162"/>
<path d="M92.5903 80.7231C93.4443 80.7231 94.1366 81.4155 94.1366 82.2695C94.1366 83.1235 93.4443 83.8158 92.5903 83.8158C91.7363 83.8158 91.0439 83.1235 91.0439 82.2695C91.0439 81.4155 91.7363 80.7231 92.5903 80.7231Z" fill="#FF5162"/>
<path d="M95.6821 80.7231C96.5361 80.7231 97.2284 81.4155 97.2284 82.2695C97.2284 83.1235 96.5361 83.8158 95.6821 83.8158C94.8281 83.8158 94.1357 83.1235 94.1357 82.2695C94.1357 81.4155 94.8281 80.7231 95.6821 80.7231Z" fill="#FF5162"/>
<path d="M98.7758 80.7231C99.6299 80.7231 100.322 81.4155 100.322 82.2695C100.322 83.1235 99.6299 83.8158 98.7758 83.8158C97.9218 83.8158 97.2295 83.1235 97.2295 82.2695C97.2295 81.4155 97.9218 80.7231 98.7758 80.7231Z" fill="#FF5162"/>
<path d="M101.867 80.7231C102.721 80.7231 103.413 81.4155 103.413 82.2695C103.413 83.1235 102.721 83.8158 101.867 83.8158C101.013 83.8158 100.32 83.1235 100.32 82.2695C100.32 81.4155 101.013 80.7231 101.867 80.7231Z" fill="#FF5162"/>
<path d="M111.146 80.7231C112 80.7231 112.692 81.4155 112.692 82.2695C112.692 83.1235 112 83.8158 111.146 83.8158C110.292 83.8158 109.6 83.1235 109.6 82.2695C109.6 81.4155 110.292 80.7231 111.146 80.7231Z" fill="#FF5162"/>
<path d="M114.239 80.7231C115.093 80.7231 115.785 81.4155 115.785 82.2695C115.785 83.1235 115.093 83.8158 114.239 83.8158C113.385 83.8158 112.692 83.1235 112.692 82.2695C112.692 81.4155 113.385 80.7231 114.239 80.7231Z" fill="#FF5162"/>
<path d="M117.331 80.7231C118.186 80.7231 118.878 81.4155 118.878 82.2695C118.878 83.1235 118.186 83.8158 117.331 83.8158C116.477 83.8158 115.785 83.1235 115.785 82.2695C115.785 81.4155 116.477 80.7231 117.331 80.7231Z" fill="#FF5162"/>
<path d="M67.8491 83.8159C68.7031 83.8159 69.3954 84.5082 69.3954 85.3622C69.3954 86.2163 68.7031 86.9086 67.8491 86.9086C66.9951 86.9086 66.3027 86.2163 66.3027 85.3622C66.3027 84.5082 66.9951 83.8159 67.8491 83.8159Z" fill="#FF5162"/>
<path d="M70.9399 83.8159C71.7939 83.8159 72.4862 84.5082 72.4862 85.3622C72.4862 86.2163 71.7939 86.9086 70.9399 86.9086C70.0859 86.9086 69.3936 86.2163 69.3936 85.3622C69.3936 84.5082 70.0859 83.8159 70.9399 83.8159Z" fill="#FF5162"/>
<path d="M77.1274 83.8159C77.9814 83.8159 78.6737 84.5082 78.6737 85.3622C78.6737 86.2163 77.9814 86.9086 77.1274 86.9086C76.2734 86.9086 75.5811 86.2163 75.5811 85.3622C75.5811 84.5082 76.2734 83.8159 77.1274 83.8159Z" fill="#FF5162"/>
<path d="M80.2192 83.8159C81.0732 83.8159 81.7655 84.5082 81.7655 85.3622C81.7655 86.2163 81.0732 86.9086 80.2192 86.9086C79.3652 86.9086 78.6729 86.2163 78.6729 85.3622C78.6729 84.5082 79.3652 83.8159 80.2192 83.8159Z" fill="#FF5162"/>
<path d="M92.5903 83.8159C93.4443 83.8159 94.1366 84.5082 94.1366 85.3622C94.1366 86.2163 93.4443 86.9086 92.5903 86.9086C91.7363 86.9086 91.0439 86.2163 91.0439 85.3622C91.0439 84.5082 91.7363 83.8159 92.5903 83.8159Z" fill="#FF5162"/>
<path d="M95.6821 83.8159C96.5361 83.8159 97.2284 84.5082 97.2284 85.3622C97.2284 86.2163 96.5361 86.9086 95.6821 86.9086C94.8281 86.9086 94.1357 86.2163 94.1357 85.3622C94.1357 84.5082 94.8281 83.8159 95.6821 83.8159Z" fill="#FF5162"/>
<path d="M101.867 83.8159C102.721 83.8159 103.413 84.5082 103.413 85.3622C103.413 86.2163 102.721 86.9086 101.867 86.9086C101.013 86.9086 100.32 86.2163 100.32 85.3622C100.32 84.5082 101.013 83.8159 101.867 83.8159Z" fill="#FF5162"/>
<path d="M111.146 83.8159C112 83.8159 112.692 84.5082 112.692 85.3622C112.692 86.2163 112 86.9086 111.146 86.9086C110.292 86.9086 109.6 86.2163 109.6 85.3622C109.6 84.5082 110.292 83.8159 111.146 83.8159Z" fill="#FF5162"/>
<path d="M117.331 83.8164C118.186 83.8164 118.878 84.5087 118.878 85.3627C118.878 86.2168 118.186 86.9091 117.331 86.9091C116.477 86.9091 115.785 86.2168 115.785 85.3627C115.785 84.5087 116.477 83.8164 117.331 83.8164Z" fill="#FF5162"/>
<path d="M70.9399 86.9082C71.7939 86.9082 72.4862 87.6005 72.4862 88.4545C72.4862 89.3086 71.7939 90.0009 70.9399 90.0009C70.0859 90.0009 69.3936 89.3086 69.3936 88.4545C69.3936 87.6005 70.0859 86.9082 70.9399 86.9082Z" fill="#FF5162"/>
<path d="M77.1274 86.9077C77.9814 86.9077 78.6737 87.6 78.6737 88.454C78.6737 89.3081 77.9814 90.0004 77.1274 90.0004C76.2734 90.0004 75.5811 89.3081 75.5811 88.454C75.5811 87.6 76.2734 86.9077 77.1274 86.9077Z" fill="#FF5162"/>
<path d="M86.4037 86.9077C87.2578 86.9077 87.9501 87.6 87.9501 88.454C87.9501 89.3081 87.2578 90.0004 86.4037 90.0004C85.5497 90.0004 84.8574 89.3081 84.8574 88.454C84.8574 87.6 85.5497 86.9077 86.4037 86.9077Z" fill="#FF5162"/>
<path d="M89.4965 86.9082C90.3506 86.9082 91.0428 87.6005 91.0428 88.4545C91.0428 89.3086 90.3506 90.0009 89.4965 90.0009C88.6425 90.0009 87.9502 89.3086 87.9502 88.4545C87.9502 87.6005 88.6425 86.9082 89.4965 86.9082Z" fill="#FF5162"/>
<path d="M92.5903 86.9077C93.4443 86.9077 94.1366 87.6 94.1366 88.454C94.1366 89.3081 93.4443 90.0004 92.5903 90.0004C91.7363 90.0004 91.0439 89.3081 91.0439 88.454C91.0439 87.6 91.7363 86.9077 92.5903 86.9077Z" fill="#FF5162"/>
<path d="M101.867 86.9077C102.721 86.9077 103.413 87.6 103.413 88.454C103.413 89.3081 102.721 90.0004 101.867 90.0004C101.013 90.0004 100.32 89.3081 100.32 88.454C100.32 87.6 101.013 86.9077 101.867 86.9077Z" fill="#FF5162"/>
<path d="M104.96 86.9082C105.814 86.9082 106.507 87.6005 106.507 88.4545C106.507 89.3086 105.814 90.0009 104.96 90.0009C104.106 90.0009 103.414 89.3086 103.414 88.4545C103.414 87.6005 104.106 86.9082 104.96 86.9082Z" fill="#FF5162"/>
<path d="M108.054 86.9077C108.908 86.9077 109.6 87.6 109.6 88.454C109.6 89.3081 108.908 90.0004 108.054 90.0004C107.2 90.0004 106.508 89.3081 106.508 88.454C106.508 87.6 107.2 86.9077 108.054 86.9077Z" fill="#FF5162"/>
<path d="M117.331 86.9077C118.186 86.9077 118.878 87.6 118.878 88.454C118.878 89.3081 118.186 90.0004 117.331 90.0004C116.477 90.0004 115.785 89.3081 115.785 88.454C115.785 87.6 116.477 86.9077 117.331 86.9077Z" fill="#FF5162"/>
<path d="M67.8491 90.001C68.7031 90.001 69.3954 90.6933 69.3954 91.5473C69.3954 92.4013 68.7031 93.0936 67.8491 93.0936C66.9951 93.0936 66.3027 92.4013 66.3027 91.5473C66.3027 90.6933 66.9951 90.001 67.8491 90.001Z" fill="#FF5162"/>
<path d="M70.9399 90.001C71.7939 90.001 72.4862 90.6933 72.4862 91.5473C72.4862 92.4013 71.7939 93.0936 70.9399 93.0936C70.0859 93.0936 69.3936 92.4013 69.3936 91.5473C69.3936 90.6933 70.0859 90.001 70.9399 90.001Z" fill="#FF5162"/>
<path d="M77.1274 90.001C77.9814 90.001 78.6737 90.6933 78.6737 91.5473C78.6737 92.4013 77.9814 93.0936 77.1274 93.0936C76.2734 93.0936 75.5811 92.4013 75.5811 91.5473C75.5811 90.6933 76.2734 90.001 77.1274 90.001Z" fill="#FF5162"/>
<path d="M89.4965 90.001C90.3506 90.001 91.0428 90.6933 91.0428 91.5473C91.0428 92.4013 90.3506 93.0936 89.4965 93.0936C88.6425 93.0936 87.9502 92.4013 87.9502 91.5473C87.9502 90.6933 88.6425 90.001 89.4965 90.001Z" fill="#FF5162"/>
<path d="M98.7758 90.001C99.6299 90.001 100.322 90.6933 100.322 91.5473C100.322 92.4013 99.6299 93.0936 98.7758 93.0936C97.9218 93.0936 97.2295 92.4013 97.2295 91.5473C97.2295 90.6933 97.9218 90.001 98.7758 90.001Z" fill="#FF5162"/>
<path d="M101.867 90.001C102.721 90.001 103.413 90.6933 103.413 91.5473C103.413 92.4013 102.721 93.0936 101.867 93.0936C101.013 93.0936 100.32 92.4013 100.32 91.5473C100.32 90.6933 101.013 90.001 101.867 90.001Z" fill="#FF5162"/>
<path d="M104.96 90.001C105.814 90.001 106.507 90.6933 106.507 91.5473C106.507 92.4013 105.814 93.0936 104.96 93.0936C104.106 93.0936 103.414 92.4013 103.414 91.5473C103.414 90.6933 104.106 90.001 104.96 90.001Z" fill="#FF5162"/>
<path d="M108.054 90.001C108.908 90.001 109.6 90.6933 109.6 91.5473C109.6 92.4013 108.908 93.0936 108.054 93.0936C107.2 93.0936 106.508 92.4013 106.508 91.5473C106.508 90.6933 107.2 90.001 108.054 90.001Z" fill="#FF5162"/>
<path d="M111.146 90.001C112 90.001 112.692 90.6933 112.692 91.5473C112.692 92.4013 112 93.0936 111.146 93.0936C110.292 93.0936 109.6 92.4013 109.6 91.5473C109.6 90.6933 110.292 90.001 111.146 90.001Z" fill="#FF5162"/>
<path d="M114.239 90.001C115.093 90.001 115.785 90.6933 115.785 91.5473C115.785 92.4013 115.093 93.0936 114.239 93.0936C113.385 93.0936 112.692 92.4013 112.692 91.5473C112.692 90.6933 113.385 90.001 114.239 90.001Z" fill="#FF5162"/>
<path d="M117.331 90.001C118.186 90.001 118.878 90.6933 118.878 91.5473C118.878 92.4013 118.186 93.0936 117.331 93.0936C116.477 93.0936 115.785 92.4013 115.785 91.5473C115.785 90.6933 116.477 90.001 117.331 90.001Z" fill="#FF5162"/>
<path d="M55.819 15.7788H48.9525C45.6061 15.7788 42.771 17.9898 41.8646 21.0117C41.7709 21.3243 41.6977 21.6456 41.6468 21.974C41.5907 22.3364 41.5615 22.7074 41.5615 23.0852V30.1147C41.5615 34.1454 44.8781 37.4232 48.9525 37.4232L52.3858 37.4239L55.819 37.423C59.8933 37.423 63.2101 34.1452 63.2101 30.1145V23.0852C63.2101 19.0564 59.8935 15.7788 55.819 15.7788ZM59.9628 30.1147C59.9628 32.354 58.104 34.1759 55.8182 34.1759L52.3858 34.1766L48.9534 34.1757C46.6675 34.1757 44.8088 32.3538 44.8088 30.1147V23.0852C44.8088 22.3857 44.9902 21.7272 45.3095 21.1518C45.6169 20.5982 46.0519 20.1222 46.5755 19.7617C47.2488 19.2982 48.0686 19.0261 48.9523 19.0261H55.819C58.104 19.0261 59.9628 20.8469 59.9628 23.0852V30.1147Z" fill="#FF5162"/>
<path d="M111.487 15.7783H104.621C101.274 15.7783 98.439 17.9893 97.5326 21.0112C97.4388 21.3238 97.3657 21.6451 97.3148 21.9735C97.2587 22.3359 97.2295 22.7069 97.2295 23.0847V30.1142C97.2295 34.1449 100.546 37.4227 104.621 37.4227L108.054 37.4234L111.487 37.4225C115.561 37.4225 118.878 34.1447 118.878 30.114V23.0847C118.878 19.0559 115.561 15.7783 111.487 15.7783ZM115.631 30.1142C115.631 32.3535 113.772 34.1755 111.486 34.1755L108.054 34.1761L104.621 34.1752C102.336 34.1752 100.477 32.3533 100.477 30.1142V23.0847C100.477 22.3852 100.658 21.7267 100.978 21.1513C101.285 20.5977 101.72 20.1217 102.244 19.7612C102.917 19.2977 103.737 19.0256 104.62 19.0256H111.487C113.772 19.0256 115.631 20.8465 115.631 23.0847V30.1142Z" fill="#FF5162"/>
<path d="M55.819 71.4468H48.9525C45.6061 71.4468 42.771 73.6577 41.8646 76.6797C41.7709 76.9923 41.6977 77.3135 41.6468 77.6419C41.5907 78.0043 41.5615 78.3754 41.5615 78.7532V85.7827C41.5615 89.8134 44.8781 93.0912 48.9525 93.0912L52.3858 93.0918L55.819 93.091C59.8933 93.091 63.2101 89.8132 63.2101 85.7824V78.7532C63.2101 74.7244 59.8935 71.4468 55.819 71.4468ZM59.9628 85.7827C59.9628 88.022 58.104 89.8439 55.8182 89.8439L52.3858 89.8446L48.9534 89.8437C46.6675 89.8437 44.8088 88.0218 44.8088 85.7827V78.7532C44.8088 78.0537 44.9902 77.3951 45.3095 76.8197C45.6169 76.2662 46.0519 75.7901 46.5755 75.4297C47.2488 74.9662 48.0686 74.6941 48.9523 74.6941H55.819C58.104 74.6941 59.9628 76.5149 59.9628 78.7532V85.7827Z" fill="#FF5162"/>
<path d="M57.024 21.9624H47.7461V31.2403H57.024V21.9624Z" fill="#FF5162"/>
<path d="M112.692 21.9624H103.414V31.2403H112.692V21.9624Z" fill="#FF5162"/>
<path d="M57.024 77.6304H47.7461V86.9083H57.024V77.6304Z" fill="#FF5162"/>
<path d="M160.249 102.549H0L8.43417 116.303L0 130.058H21.995V137.098H138.254V130.385H160.249L151.319 116.795L160.249 102.549Z" fill="#FF5162"/>
<rect x="40.7972" y="108.062" width="78.6544" height="24.2579" rx="3.3079" stroke="white" stroke-width="0.735088"/>
<path d="M57.0953 125.535C56.2513 125.535 55.5358 125.393 54.9486 125.109C54.3615 124.815 53.8615 124.439 53.4487 123.98L54.8248 122.59C55.4761 123.324 56.2788 123.691 57.2329 123.691C57.7467 123.691 58.1274 123.586 58.3751 123.375C58.6228 123.164 58.7466 122.884 58.7466 122.535C58.7466 122.269 58.6732 122.049 58.5264 121.875C58.3797 121.691 58.0815 121.568 57.632 121.503L56.6825 121.379C55.6642 121.251 54.9165 120.944 54.4395 120.457C53.9716 119.971 53.7377 119.325 53.7377 118.517C53.7377 118.086 53.8202 117.692 53.9854 117.334C54.1505 116.976 54.3844 116.669 54.6872 116.412C54.9991 116.155 55.3752 115.958 55.8156 115.82C56.2651 115.673 56.7742 115.6 57.343 115.6C58.0678 115.6 58.7053 115.715 59.2558 115.944C59.8062 116.173 60.2787 116.508 60.6731 116.948L59.2833 118.352C59.0539 118.086 58.7741 117.87 58.4439 117.705C58.1228 117.531 57.7146 117.444 57.2192 117.444C56.7513 117.444 56.4027 117.526 56.1733 117.692C55.944 117.857 55.8293 118.086 55.8293 118.38C55.8293 118.71 55.9165 118.948 56.0908 119.095C56.2743 119.242 56.5678 119.347 56.9715 119.412L57.921 119.563C58.9117 119.719 59.6457 120.026 60.1227 120.485C60.5997 120.935 60.8383 121.577 60.8383 122.412C60.8383 122.87 60.7557 123.292 60.5906 123.678C60.4254 124.063 60.1823 124.393 59.8612 124.668C59.5493 124.944 59.1594 125.159 58.6916 125.315C58.2237 125.462 57.6916 125.535 57.0953 125.535ZM65.3797 125.535C64.8384 125.535 64.3568 125.448 63.9348 125.274C63.5128 125.09 63.1596 124.838 62.8752 124.517C62.5908 124.187 62.3752 123.788 62.2284 123.32C62.0817 122.852 62.0083 122.329 62.0083 121.751C62.0083 121.173 62.0817 120.655 62.2284 120.196C62.3752 119.728 62.5908 119.329 62.8752 118.999C63.1596 118.669 63.5128 118.416 63.9348 118.242C64.3568 118.068 64.8384 117.981 65.3797 117.981C66.1136 117.981 66.7236 118.146 67.2099 118.476C67.7053 118.806 68.0584 119.269 68.2694 119.866L66.6181 120.581C66.5539 120.306 66.4209 120.072 66.2191 119.88C66.0173 119.687 65.7375 119.591 65.3797 119.591C64.9668 119.591 64.6549 119.728 64.4439 120.003C64.2329 120.269 64.1274 120.632 64.1274 121.09V122.439C64.1274 122.898 64.2329 123.26 64.4439 123.526C64.6549 123.792 64.9668 123.925 65.3797 123.925C65.7466 123.925 66.0356 123.829 66.2466 123.636C66.4668 123.434 66.6273 123.173 66.7282 122.852L68.3107 123.54C68.0722 124.228 67.7007 124.733 67.1961 125.054C66.7007 125.375 66.0952 125.535 65.3797 125.535ZM74.9105 125.37C74.5435 125.37 74.2362 125.255 73.9885 125.026C73.75 124.797 73.5986 124.489 73.5344 124.104H73.4518C73.3417 124.572 73.0986 124.93 72.7225 125.177C72.3463 125.416 71.8831 125.535 71.3326 125.535C70.6079 125.535 70.0529 125.343 69.6676 124.957C69.2823 124.572 69.0896 124.063 69.0896 123.43C69.0896 122.668 69.3648 122.104 69.9153 121.737C70.4749 121.361 71.2317 121.173 72.1858 121.173H73.328V120.719C73.328 120.37 73.2362 120.095 73.0527 119.893C72.8693 119.682 72.5619 119.577 72.1308 119.577C71.7271 119.577 71.406 119.664 71.1675 119.838C70.929 120.013 70.7317 120.21 70.5758 120.43L69.3648 119.357C69.6584 118.925 70.0254 118.591 70.4657 118.352C70.9152 118.104 71.5207 117.981 72.2821 117.981C73.3096 117.981 74.0802 118.205 74.594 118.655C75.1077 119.104 75.3646 119.76 75.3646 120.623V123.788H76.0388V125.37H74.9105ZM72.0895 124.118C72.4289 124.118 72.7179 124.044 72.9564 123.898C73.2041 123.751 73.328 123.512 73.328 123.182V122.329H72.3372C71.539 122.329 71.14 122.6 71.14 123.141V123.347C71.14 123.613 71.2225 123.811 71.3877 123.939C71.5528 124.058 71.7867 124.118 72.0895 124.118ZM77.4058 125.37V118.146H79.4424V119.37H79.525C79.6534 118.994 79.8782 118.669 80.1992 118.393C80.5203 118.118 80.9653 117.981 81.534 117.981C82.2771 117.981 82.8367 118.228 83.2129 118.724C83.5982 119.219 83.7908 119.925 83.7908 120.843V125.37H81.7542V121.008C81.7542 120.54 81.6808 120.196 81.534 119.976C81.3873 119.747 81.1258 119.632 80.7497 119.632C80.5845 119.632 80.424 119.655 80.268 119.701C80.1121 119.737 79.9699 119.802 79.8415 119.893C79.7222 119.985 79.6259 120.1 79.5525 120.237C79.4791 120.366 79.4424 120.517 79.4424 120.691V125.37H77.4058ZM96.1485 119.068H96.1072L95.4054 120.471L93.5339 123.87L91.7037 120.485L90.9744 118.971H90.9331V125.37H88.9653V115.765H91.1808L93.5339 120.265H93.5615L95.887 115.765H98.1163V125.37H96.1485V119.068ZM103.144 125.535C102.593 125.535 102.102 125.448 101.671 125.274C101.24 125.09 100.873 124.838 100.57 124.517C100.277 124.187 100.052 123.788 99.8961 123.32C99.7493 122.852 99.6759 122.329 99.6759 121.751C99.6759 121.182 99.7493 120.668 99.8961 120.21C100.043 119.742 100.258 119.343 100.543 119.013C100.836 118.682 101.194 118.43 101.616 118.256C102.038 118.072 102.52 117.981 103.061 117.981C103.657 117.981 104.167 118.081 104.589 118.283C105.02 118.485 105.368 118.756 105.634 119.095C105.91 119.435 106.107 119.829 106.226 120.279C106.354 120.719 106.419 121.182 106.419 121.668V122.274H101.781V122.384C101.781 122.861 101.91 123.242 102.167 123.526C102.423 123.801 102.827 123.939 103.378 123.939C103.8 123.939 104.144 123.856 104.41 123.691C104.676 123.517 104.923 123.311 105.153 123.072L106.171 124.338C105.85 124.714 105.428 125.008 104.905 125.219C104.391 125.43 103.804 125.535 103.144 125.535ZM103.102 119.48C102.69 119.48 102.364 119.618 102.125 119.893C101.896 120.159 101.781 120.517 101.781 120.967V121.077H104.313V120.953C104.313 120.513 104.212 120.159 104.011 119.893C103.818 119.618 103.515 119.48 103.102 119.48Z" fill="white"/>
</svg>
