<svg width="50" height="50" viewBox="0 0 50 50" fill="none" xmlns="http://www.w3.org/2000/svg">
<path d="M13.6364 0H4.54545C2.03409 0 0 2.03409 0 4.54545V13.6364C0 16.1477 2.03409 18.1818 4.54545 18.1818H13.6364C16.1477 18.1818 18.1818 16.1477 18.1818 13.6364V4.54545C18.1818 2.03409 16.1477 0 13.6364 0ZM13.6364 9.09091C13.6364 11.6013 11.6013 13.6364 9.09091 13.6364C6.58052 13.6364 4.54545 11.6013 4.54545 9.09091C4.54545 6.58052 6.58052 4.54545 9.09091 4.54545C11.6013 4.54545 13.6364 6.58052 13.6364 9.09091ZM11.3636 9.09091C11.3636 10.3461 10.3461 11.3636 9.09091 11.3636C7.83572 11.3636 6.81818 10.3461 6.81818 9.09091C6.81818 7.83572 7.83572 6.81818 9.09091 6.81818C10.3461 6.81818 11.3636 7.83572 11.3636 9.09091Z" fill="black"/>
<path d="M13.6364 31.8184H4.54545C2.03409 31.8184 0 33.8525 0 36.3638V45.4547C0 47.9661 2.03409 50.0002 4.54545 50.0002H13.6364C16.1477 50.0002 18.1818 47.9661 18.1818 45.4547V36.3638C18.1818 33.8525 16.1477 31.8184 13.6364 31.8184ZM13.6364 40.9093C13.6364 43.4197 11.6013 45.4547 9.09091 45.4547C6.58052 45.4547 4.54545 43.4197 4.54545 40.9093C4.54545 38.3989 6.58052 36.3638 9.09091 36.3638C11.6013 36.3638 13.6364 38.3989 13.6364 40.9093ZM11.3636 40.9093C11.3636 42.1645 10.3461 43.182 9.09091 43.182C7.83572 43.182 6.81818 42.1645 6.81818 40.9093C6.81818 39.6541 7.83572 38.6365 9.09091 38.6365C10.3461 38.6365 11.3636 39.6541 11.3636 40.9093Z" fill="black"/>
<path d="M45.4547 0H36.3638C33.8525 0 31.8184 2.03409 31.8184 4.54545V13.6364C31.8184 16.1477 33.8525 18.1818 36.3638 18.1818H45.4547C47.9661 18.1818 50.0002 16.1477 50.0002 13.6364V4.54545C50.0002 2.03409 47.9661 0 45.4547 0ZM45.4547 9.09091C45.4547 11.6013 43.4197 13.6364 40.9093 13.6364C38.3989 13.6364 36.3638 11.6013 36.3638 9.09091C36.3638 6.58052 38.3989 4.54545 40.9093 4.54545C43.4197 4.54545 45.4547 6.58052 45.4547 9.09091ZM43.182 9.09091C43.182 10.3461 42.1645 11.3636 40.9093 11.3636C39.6541 11.3636 38.6365 10.3461 38.6365 9.09091C38.6365 7.83572 39.6541 6.81818 40.9093 6.81818C42.1645 6.81818 43.182 7.83572 43.182 9.09091Z" fill="black"/>
<path d="M22.7275 6.81814C22.7275 8.07333 23.7451 9.09086 25.0003 9.09086C26.2555 9.09086 27.273 8.07333 27.273 6.81814C27.273 5.56294 26.2555 4.54541 25.0003 4.54541C23.7451 4.54541 22.7275 5.56294 22.7275 6.81814Z" fill="black"/>
<path d="M22.7275 15.909C22.7275 17.1642 23.7451 18.1817 25.0003 18.1817C26.2555 18.1817 27.273 17.1642 27.273 15.909C27.273 14.6538 26.2555 13.6362 25.0003 13.6362C23.7451 13.6362 22.7275 14.6538 22.7275 15.909Z" fill="black"/>
<path d="M22.7275 24.9998C22.7275 26.255 23.7451 27.2725 25.0003 27.2725C26.2555 27.2725 27.273 26.255 27.273 24.9998C27.273 23.7446 26.2555 22.7271 25.0003 22.7271C23.7451 22.7271 22.7275 23.7446 22.7275 24.9998Z" fill="black"/>
<path d="M13.6367 24.9998C13.6367 26.255 14.6543 27.2725 15.9094 27.2725C17.1646 27.2725 18.1822 26.255 18.1822 24.9998C18.1822 23.7446 17.1646 22.7271 15.9094 22.7271C14.6543 22.7271 13.6367 23.7446 13.6367 24.9998Z" fill="black"/>
<path d="M4.5459 24.9998C4.5459 26.255 5.56343 27.2725 6.81863 27.2725C8.07382 27.2725 9.09135 26.255 9.09135 24.9998C9.09135 23.7446 8.07382 22.7271 6.81863 22.7271C5.56343 22.7271 4.5459 23.7446 4.5459 24.9998Z" fill="black"/>
<path d="M31.8184 24.9998C31.8184 26.255 32.8359 27.2725 34.0911 27.2725C35.3463 27.2725 36.3638 26.255 36.3638 24.9998C36.3638 23.7446 35.3463 22.7271 34.0911 22.7271C32.8359 22.7271 31.8184 23.7446 31.8184 24.9998Z" fill="black"/>
<path d="M40.9092 24.9998C40.9092 26.255 41.9267 27.2725 43.1819 27.2725C44.4371 27.2725 45.4546 26.255 45.4546 24.9998C45.4546 23.7446 44.4371 22.7271 43.1819 22.7271C41.9267 22.7271 40.9092 23.7446 40.9092 24.9998Z" fill="black"/>
<path d="M27.2725 29.5457C27.2725 30.8009 28.29 31.8184 29.5452 31.8184C30.8004 31.8184 31.8179 30.8009 31.8179 29.5457C31.8179 28.2905 30.8004 27.2729 29.5452 27.2729C28.29 27.2729 27.2725 28.2905 27.2725 29.5457Z" fill="black"/>
<path d="M36.3633 29.5457C36.3633 30.8009 37.3808 31.8184 38.636 31.8184C39.8912 31.8184 40.9087 30.8009 40.9087 29.5457C40.9087 28.2905 39.8912 27.2729 38.636 27.2729C37.3808 27.2729 36.3633 28.2905 36.3633 29.5457Z" fill="black"/>
<path d="M31.8184 34.0911C31.8184 35.3463 32.8359 36.3638 34.0911 36.3638C35.3463 36.3638 36.3638 35.3463 36.3638 34.0911C36.3638 32.8359 35.3463 31.8184 34.0911 31.8184C32.8359 31.8184 31.8184 32.8359 31.8184 34.0911Z" fill="black"/>
<path d="M22.7275 34.0911C22.7275 35.3463 23.7451 36.3638 25.0003 36.3638C26.2555 36.3638 27.273 35.3463 27.273 34.0911C27.273 32.8359 26.2555 31.8184 25.0003 31.8184C23.7451 31.8184 22.7275 32.8359 22.7275 34.0911Z" fill="black"/>
<path d="M27.2725 38.6365C27.2725 39.8917 28.29 40.9092 29.5452 40.9092C30.8004 40.9092 31.8179 39.8917 31.8179 38.6365C31.8179 37.3813 30.8004 36.3638 29.5452 36.3638C28.29 36.3638 27.2725 37.3813 27.2725 38.6365Z" fill="black"/>
<path d="M31.8184 43.1819C31.8184 44.4371 32.8359 45.4546 34.0911 45.4546C35.3463 45.4546 36.3638 44.4371 36.3638 43.1819C36.3638 41.9267 35.3463 40.9092 34.0911 40.9092C32.8359 40.9092 31.8184 41.9267 31.8184 43.1819Z" fill="black"/>
<path d="M27.2725 47.7273C27.2725 48.9825 28.29 50 29.5452 50C30.8004 50 31.8179 48.9825 31.8179 47.7273C31.8179 46.4721 30.8004 45.4546 29.5452 45.4546C28.29 45.4546 27.2725 46.4721 27.2725 47.7273Z" fill="black"/>
<path d="M45.4541 29.5457C45.4541 30.8009 46.4716 31.8184 47.7268 31.8184C48.982 31.8184 49.9996 30.8009 49.9996 29.5457C49.9996 28.2905 48.982 27.2729 47.7268 27.2729C46.4716 27.2729 45.4541 28.2905 45.4541 29.5457Z" fill="black"/>
<path d="M45.4541 38.6365C45.4541 39.8917 46.4716 40.9092 47.7268 40.9092C48.982 40.9092 49.9996 39.8917 49.9996 38.6365C49.9996 37.3813 48.982 36.3638 47.7268 36.3638C46.4716 36.3638 45.4541 37.3813 45.4541 38.6365Z" fill="black"/>
<path d="M36.3633 38.6365C36.3633 39.8917 37.3808 40.9092 38.636 40.9092C39.8912 40.9092 40.9087 39.8917 40.9087 38.6365C40.9087 37.3813 39.8912 36.3638 38.636 36.3638C37.3808 36.3638 36.3633 37.3813 36.3633 38.6365Z" fill="black"/>
<path d="M36.3633 47.7273C36.3633 48.9825 37.3808 50 38.636 50C39.8912 50 40.9087 48.9825 40.9087 47.7273C40.9087 46.4721 39.8912 45.4546 38.636 45.4546C37.3808 45.4546 36.3633 46.4721 36.3633 47.7273Z" fill="black"/>
<path d="M40.9092 43.1819C40.9092 44.4371 41.9267 45.4546 43.1819 45.4546C44.4371 45.4546 45.4546 44.4371 45.4546 43.1819C45.4546 41.9267 44.4371 40.9092 43.1819 40.9092C41.9267 40.9092 40.9092 41.9267 40.9092 43.1819Z" fill="black"/>
<path d="M40.9092 34.0911C40.9092 35.3463 41.9267 36.3638 43.1819 36.3638C44.4371 36.3638 45.4546 35.3463 45.4546 34.0911C45.4546 32.8359 44.4371 31.8184 43.1819 31.8184C41.9267 31.8184 40.9092 32.8359 40.9092 34.0911Z" fill="black"/>
<path d="M22.7275 43.1819C22.7275 44.4371 23.7451 45.4546 25.0003 45.4546C26.2555 45.4546 27.273 44.4371 27.273 43.1819C27.273 41.9267 26.2555 40.9092 25.0003 40.9092C23.7451 40.9092 22.7275 41.9267 22.7275 43.1819Z" fill="black"/>
</svg>
