<svg width="205" height="204" viewBox="0 0 205 204" fill="none" xmlns="http://www.w3.org/2000/svg">
<path d="M1.42889 203.573C1.42889 166.198 0.249079 131.065 1.75066 96.1462C4.00302 40.7243 47.8705 0.572814 103.536 0.999958C159.309 1.4271 203.069 43.7143 204.893 99.1362C206.716 155.092 164.672 201.33 108.577 203.359C73.5046 204.641 38.3248 203.573 1.42889 203.573ZM15.0503 189.263C49.6939 189.263 82.9431 191.933 115.656 188.623C162.312 183.817 194.918 141.103 190.949 95.2919C187.088 49.8011 148.798 14.7753 102.893 14.7753C56.3437 14.7753 18.0535 48.84 15.3721 95.0783C13.5488 125.833 15.0503 156.694 15.0503 189.263Z" fill="#303038"/>
</svg>
