<svg width="179" height="218" viewBox="0 0 179 218" fill="none" xmlns="http://www.w3.org/2000/svg">
<path d="M0 216.183V0.409855C40.0092 3.17093 80.1204 -6.03265 119.007 8.28403C154.729 21.3736 172.182 49.4956 176.571 85.9009C181.98 130.18 174.019 171.29 134.725 197.98C119.925 208.002 100.329 213.626 82.3658 215.569C55.8291 218.432 28.68 216.285 0.102064 216.285L0 216.183ZM10.7167 13.3971V202.377C32.0482 202.377 52.3589 202.48 72.5677 202.377C123.702 202.071 156.362 174.051 164.834 123.431C174.53 65.3462 142.992 18.3057 89.4083 13.8062C63.7901 11.6587 37.7638 13.3971 10.6147 13.3971H10.7167Z" fill="#303038"/>
</svg>
