<svg width="44" height="53" viewBox="0 0 44 53" fill="none" xmlns="http://www.w3.org/2000/svg">
<path d="M31.1663 8.77872L31.1666 8.77894L39.6106 13.9638C40.3511 14.4185 40.8024 15.2252 40.8024 16.0942V26.594V37.0939C40.8024 37.9629 40.3511 38.7696 39.6106 39.2243L31.1666 44.4092L31.1663 44.4094L22.9592 49.4507C22.1567 49.9436 21.1452 49.9437 20.3426 49.4509L12.1321 44.4094L12.1317 44.4092L3.69149 39.2246C2.95113 38.7699 2.5 37.9633 2.5 37.0944V26.594V16.0937C2.5 15.2248 2.95113 14.4182 3.69149 13.9635L12.1317 8.77894L12.1321 8.77872L20.3426 3.73723C21.1452 3.24439 22.1567 3.24447 22.9592 3.73745L31.1663 8.77872Z" stroke="#303038" stroke-width="5"/>
</svg>
