<svg width="15" height="13" viewBox="0 0 15 13" fill="none" xmlns="http://www.w3.org/2000/svg">
<path d="M15 6.4974L11.375 11.6224C11.2222 11.8446 11.0244 12.0182 10.7817 12.1432C10.5389 12.2682 10.2783 12.3307 10 12.3307H1.66667C1.20833 12.3307 0.815835 12.1674 0.489168 11.8407C0.162501 11.5141 -0.000554141 11.1218 1.41483e-06 10.6641V2.33073C1.41483e-06 1.8724 0.163335 1.4799 0.490001 1.15323C0.816668 0.826564 1.20889 0.663508 1.66667 0.664064H10C10.2778 0.664064 10.5383 0.726564 10.7817 0.851564C11.025 0.976564 11.2228 1.15017 11.375 1.3724L15 6.4974Z" fill="#52525B"/>
<path d="M9.16406 6.5C9.16406 6.15625 8.88281 5.875 8.53906 5.875H7.28906V4.625C7.28906 4.28125 7.00781 4 6.66406 4C6.32031 4 6.03906 4.28125 6.03906 4.625V5.875H4.78906C4.44531 5.875 4.16406 6.15625 4.16406 6.5C4.16406 6.84375 4.44531 7.125 4.78906 7.125H6.03906V8.375C6.03906 8.71875 6.32031 9 6.66406 9C7.00781 9 7.28906 8.71875 7.28906 8.375V7.125H8.53906C8.88281 7.125 9.16406 6.84375 9.16406 6.5Z" fill="white"/>
</svg>
