<svg width="15" height="15" viewBox="0 0 15 15" fill="none" xmlns="http://www.w3.org/2000/svg">
<path d="M15 7.3212C15 7.44961 14.9798 7.57 14.9393 7.68236C14.8995 7.79472 14.8315 7.89905 14.7352 7.99536L8.37881 14.3517C8.1862 14.5443 7.9573 14.6406 7.69213 14.6406C7.42761 14.6406 7.19904 14.5443 7.00642 14.3517C6.8138 14.1591 6.7175 13.9344 6.7175 13.6775C6.7175 13.4207 6.8138 13.196 7.00642 13.0034L11.7255 8.28428L0.939004 8.28429C0.666131 8.28429 0.441412 8.19183 0.264847 8.00692C0.0882823 7.82265 -3.08014e-07 7.59408 -3.19942e-07 7.3212C-3.3187e-07 7.04833 0.0921347 6.81944 0.276404 6.63453C0.461316 6.45026 0.690208 6.35812 0.963081 6.35812L11.7255 6.35812L7.00642 1.63902C6.8138 1.4464 6.7175 1.22168 6.7175 0.964862C6.7175 0.70804 6.8138 0.483322 7.00642 0.290705C7.19904 0.0980889 7.42761 0.00178019 7.69213 0.00178017C7.9573 0.00178016 8.18619 0.0980889 8.37881 0.290705L14.7352 6.64705C14.8315 6.74335 14.8995 6.84769 14.9393 6.96005C14.9798 7.07241 15 7.19279 15 7.3212Z" fill="#52525B"/>
</svg>
