<svg width="12" height="8" viewBox="0 0 12 8" fill="none" xmlns="http://www.w3.org/2000/svg">
<path d="M0.273438 1.00156C0.456772 0.818228 0.690104 0.726562 0.973437 0.726562C1.25677 0.726562 1.4901 0.818228 1.67344 1.00156L5.57344 4.90156L9.47344 1.00156C9.65677 0.818229 9.8901 0.726562 10.1734 0.726562C10.4568 0.726562 10.6901 0.818229 10.8734 1.00156C11.0568 1.1849 11.1484 1.41823 11.1484 1.70156C11.1484 1.9849 11.0568 2.21823 10.8734 2.40156L6.27344 7.00156C6.17344 7.10156 6.0651 7.17256 5.94844 7.21456C5.83177 7.25656 5.70677 7.27723 5.57344 7.27656C5.4401 7.27656 5.3151 7.25556 5.19844 7.21356C5.08177 7.17156 4.97344 7.1009 4.87344 7.00156L0.273438 2.40156C0.090105 2.21823 -0.00156313 1.98489 -0.00156311 1.70156C-0.0015631 1.41823 0.090105 1.18489 0.273438 1.00156Z" fill="white"/>
</svg>
