<svg width="15" height="11" viewBox="0 0 15 11" fill="none" xmlns="http://www.w3.org/2000/svg">
<path d="M10.5 10.1875C10.2875 10.1875 10.1095 10.1155 9.966 9.9715C9.822 9.828 9.75 9.65 9.75 9.4375C9.75 9.225 9.822 9.047 9.966 8.9035C10.1095 8.7595 10.2875 8.6875 10.5 8.6875H12C12.2125 8.6875 12.3905 8.7595 12.534 8.9035C12.678 9.047 12.75 9.225 12.75 9.4375C12.75 9.65 12.678 9.828 12.534 9.9715C12.3905 10.1155 12.2125 10.1875 12 10.1875H10.5ZM10.5 4.1875C10.2875 4.1875 10.1095 4.1155 9.966 3.9715C9.822 3.828 9.75 3.65 9.75 3.4375C9.75 3.225 9.822 3.04675 9.966 2.90275C10.1095 2.75925 10.2875 2.6875 10.5 2.6875H14.25C14.4625 2.6875 14.6405 2.75925 14.784 2.90275C14.928 3.04675 15 3.225 15 3.4375C15 3.65 14.928 3.828 14.784 3.9715C14.6405 4.1155 14.4625 4.1875 14.25 4.1875H10.5ZM10.5 7.1875C10.2875 7.1875 10.1095 7.1155 9.966 6.9715C9.822 6.828 9.75 6.65 9.75 6.4375C9.75 6.225 9.822 6.04675 9.966 5.90275C10.1095 5.75925 10.2875 5.6875 10.5 5.6875H13.5C13.7125 5.6875 13.8905 5.75925 14.034 5.90275C14.178 6.04675 14.25 6.225 14.25 6.4375C14.25 6.65 14.178 6.828 14.034 6.9715C13.8905 7.1155 13.7125 7.1875 13.5 7.1875H10.5ZM2.25 10.9375C1.8375 10.9375 1.48425 10.7908 1.19025 10.4972C0.89675 10.2032 0.75 9.85 0.75 9.4375V2.6875C0.5375 2.6875 0.3595 2.61575 0.216 2.47225C0.0720001 2.32825 0 2.15 0 1.9375C0 1.725 0.0720001 1.54675 0.216 1.40275C0.3595 1.25925 0.5375 1.1875 0.75 1.1875H3V0.8125C3 0.6 3.07175 0.42175 3.21525 0.27775C3.35925 0.13425 3.5375 0.0625 3.75 0.0625H5.25C5.4625 0.0625 5.64075 0.13425 5.78475 0.27775C5.92825 0.42175 6 0.6 6 0.8125V1.1875H8.25C8.4625 1.1875 8.64075 1.25925 8.78475 1.40275C8.92825 1.54675 9 1.725 9 1.9375C9 2.15 8.92825 2.32825 8.78475 2.47225C8.64075 2.61575 8.4625 2.6875 8.25 2.6875V9.4375C8.25 9.85 8.10325 10.2032 7.80975 10.4972C7.51575 10.7908 7.1625 10.9375 6.75 10.9375H2.25Z" fill="#D92D20"/>
</svg>
