<svg width="15" height="15" viewBox="0 0 15 15" fill="none" xmlns="http://www.w3.org/2000/svg">
<path d="M1.5 15H10.5C10.8978 15 11.2794 14.842 11.5607 14.5607C11.842 14.2794 12 13.8978 12 13.5V4.5C12 4.10218 11.842 3.72064 11.5607 3.43934C11.2794 3.15804 10.8978 3 10.5 3H1.5C1.10218 3 0.720644 3.15804 0.43934 3.43934C0.158035 3.72064 0 4.10218 0 4.5V13.5C0 13.8978 0.158035 14.2794 0.43934 14.5607C0.720644 14.842 1.10218 15 1.5 15ZM3 8.25H5.25V6H6.75V8.25H9V9.75H6.75V12H5.25V9.75H3V8.25Z" fill="#52525B"/>
<path d="M13.5 0H4.5V1.5H13.5V10.5H15V1.5C15 0.67275 14.3273 0 13.5 0Z" fill="#52525B"/>
</svg>
