<svg width="14" height="15" viewBox="0 0 14 15" fill="none" xmlns="http://www.w3.org/2000/svg">
<path d="M6.21119 2.76562H2.03651C1.72017 2.76563 1.41679 2.89129 1.1931 3.11498C0.969416 3.33866 0.84375 3.64205 0.84375 3.95839V12.3077C0.84375 12.6241 0.969416 12.9275 1.1931 13.1512C1.41679 13.3748 1.72017 13.5005 2.03651 13.5005H10.3859C10.7022 13.5005 11.0056 13.3748 11.2293 13.1512C11.453 12.9275 11.5786 12.6241 11.5786 12.3077V8.13307" stroke="#1D59F9" stroke-width="1.5" stroke-linecap="round" stroke-linejoin="round"/>
<path d="M10.6839 1.87054C10.9211 1.63329 11.2429 1.5 11.5785 1.5C11.914 1.5 12.2358 1.63329 12.473 1.87054C12.7103 2.1078 12.8436 2.42959 12.8436 2.76512C12.8436 3.10065 12.7103 3.42244 12.473 3.65969L6.8074 9.32532L4.42188 9.92171L5.01826 7.53618L10.6839 1.87054Z" stroke="#1D59F9" stroke-width="1.5" stroke-linecap="round" stroke-linejoin="round"/>
</svg>
