<svg width="15" height="12" viewBox="0 0 15 12" fill="none" xmlns="http://www.w3.org/2000/svg">
<path d="M8.84375 0C7.25245 0 5.72633 0.632141 4.60111 1.75736C3.47589 2.88258 2.84375 4.4087 2.84375 6H0.84375L3.51042 8.66667L6.17708 6H4.17708C4.17708 4.76232 4.66875 3.57534 5.54392 2.70017C6.41909 1.825 7.60607 1.33333 8.84375 1.33333C10.0814 1.33333 11.2684 1.825 12.1436 2.70017C13.0188 3.57534 13.5104 4.76232 13.5104 6C13.5104 7.23768 13.0188 8.42466 12.1436 9.29983C11.2684 10.175 10.0814 10.6667 8.84375 10.6667C7.84375 10.6667 6.90375 10.3333 6.13708 9.8L5.17708 10.76C6.23147 11.562 7.51904 11.9974 8.84375 12C10.435 12 11.9612 11.3679 13.0864 10.2426C14.2116 9.11742 14.8438 7.5913 14.8438 6C14.8438 4.4087 14.2116 2.88258 13.0864 1.75736C11.9612 0.632141 10.435 0 8.84375 0ZM10.1771 6C10.1771 5.64638 10.0366 5.30724 9.78656 5.05719C9.53651 4.80714 9.19737 4.66667 8.84375 4.66667C8.49013 4.66667 8.15099 4.80714 7.90094 5.05719C7.65089 5.30724 7.51042 5.64638 7.51042 6C7.51042 6.35362 7.65089 6.69276 7.90094 6.94281C8.15099 7.19286 8.49013 7.33333 8.84375 7.33333C9.19737 7.33333 9.53651 7.19286 9.78656 6.94281C10.0366 6.69276 10.1771 6.35362 10.1771 6Z" fill="#1D59F9"/>
</svg>
