<svg width="15" height="15" viewBox="0 0 15 15" fill="none" xmlns="http://www.w3.org/2000/svg">
<path d="M13.3333 8.33333V12.5C13.3333 12.9583 12.9583 13.3333 12.5 13.3333H2.5C2.04167 13.3333 1.66667 12.9583 1.66667 12.5V8.33333C1.66667 7.875 1.29167 7.5 0.833333 7.5C0.375 7.5 0 7.875 0 8.33333V13.3333C0 14.25 0.75 15 1.66667 15H13.3333C14.25 15 15 14.25 15 13.3333V8.33333C15 7.875 14.625 7.5 14.1667 7.5C13.7083 7.5 13.3333 7.875 13.3333 8.33333ZM8.33333 8.05833L9.9 6.49167C9.97715 6.41452 10.0687 6.35332 10.1695 6.31156C10.2704 6.26981 10.3784 6.24832 10.4875 6.24832C10.5966 6.24832 10.7046 6.26981 10.8055 6.31156C10.9063 6.35332 10.9978 6.41452 11.075 6.49167C11.1522 6.56882 11.2134 6.66041 11.2551 6.76121C11.2969 6.86202 11.3183 6.97006 11.3183 7.07917C11.3183 7.18828 11.2969 7.29632 11.2551 7.39712C11.2134 7.49792 11.1522 7.58951 11.075 7.66667L8.08333 10.6583C8.00624 10.7356 7.91466 10.7969 7.81385 10.8387C7.71304 10.8805 7.60497 10.902 7.49583 10.902C7.38669 10.902 7.27862 10.8805 7.17781 10.8387C7.077 10.7969 6.98543 10.7356 6.90833 10.6583L3.91667 7.66667C3.76085 7.51085 3.67332 7.29952 3.67332 7.07917C3.67332 6.85881 3.76085 6.64748 3.91667 6.49167C4.07248 6.33585 4.28381 6.24832 4.50417 6.24832C4.72452 6.24832 4.93585 6.33585 5.09167 6.49167L6.66667 8.05833V0.833333C6.66667 0.375 7.04167 0 7.5 0C7.95833 0 8.33333 0.375 8.33333 0.833333V8.05833Z" fill="#52525B"/>
</svg>
