<svg width="20" height="20" viewBox="0 0 20 20" fill="none" xmlns="http://www.w3.org/2000/svg">
<path d="M19.0109 9.16613C18.7913 9.16613 18.5808 9.07836 18.4255 8.92211C18.2703 8.76586 18.1831 8.55395 18.1831 8.33298C18.1813 6.5658 17.483 4.8715 16.2414 3.62191C14.9999 2.37233 13.3164 1.66953 11.5606 1.66777C11.341 1.66777 11.1304 1.57999 10.9752 1.42375C10.82 1.2675 10.7327 1.05558 10.7327 0.834618C10.7327 0.613652 10.82 0.401737 10.9752 0.245491C11.1304 0.0892443 11.341 0.00146607 11.5606 0.00146607C13.7553 0.00389187 15.8595 0.882453 17.4114 2.44439C18.9634 4.00633 19.8363 6.12407 19.8387 8.33298C19.8387 8.55395 19.7515 8.76586 19.5962 8.92211C19.441 9.07836 19.2304 9.16613 19.0109 9.16613ZM16.5274 8.33298C16.5274 7.00719 16.0042 5.7357 15.0727 4.79822C14.1412 3.86074 12.8779 3.33407 11.5606 3.33407C11.341 3.33407 11.1304 3.42185 10.9752 3.5781C10.82 3.73434 10.7327 3.94626 10.7327 4.16722C10.7327 4.38819 10.82 4.60011 10.9752 4.75635C11.1304 4.9126 11.341 5.00038 11.5606 5.00038C12.4388 5.00038 13.281 5.35149 13.902 5.97647C14.523 6.60146 14.8718 7.44912 14.8718 8.33298C14.8718 8.55395 14.959 8.76586 15.1143 8.92211C15.2695 9.07836 15.4801 9.16613 15.6996 9.16613C15.9192 9.16613 16.1297 9.07836 16.285 8.92211C16.4402 8.76586 16.5274 8.55395 16.5274 8.33298ZM18.3346 18.4674L19.0879 17.5935C19.5674 17.1093 19.8366 16.4537 19.8366 15.7701C19.8366 15.0866 19.5674 14.4309 19.0879 13.9468C19.0622 13.9209 17.0705 12.3788 17.0705 12.3788C16.5925 11.9208 15.9575 11.6658 15.2976 11.6667C14.6376 11.6677 14.0034 11.9245 13.5266 12.3838L11.9488 13.7218C10.6609 13.1853 9.49092 12.3981 8.50615 11.4052C7.52138 10.4124 6.74119 9.23357 6.21039 7.9364L7.53489 6.35341C7.99161 5.87366 8.24706 5.23522 8.24814 4.57081C8.24922 3.90639 7.99584 3.26711 7.54069 2.78586C7.54069 2.78586 6.00674 0.783795 5.98108 0.757968C5.50877 0.279529 4.8684 0.00731647 4.19832 0.000145342C3.52824 -0.00702579 2.88226 0.25142 2.39995 0.719643L1.44796 1.55279C-4.17621 8.1197 7.93472 20.2146 14.6748 19.9971C15.3554 20.0011 16.0299 19.8678 16.6585 19.605C17.2871 19.3423 17.857 18.9555 18.3346 18.4674Z" fill="#303038"/>
</svg>
