<svg width="21" height="21" viewBox="0 0 21 21" fill="none" xmlns="http://www.w3.org/2000/svg">
<path d="M20.4617 5.03757L13.4467 12.037C12.6645 12.8155 11.6048 13.2527 10.5 13.2527C9.39521 13.2527 8.33552 12.8155 7.55333 12.037L0.538333 5.03757C0.526667 5.16894 0.5 5.28785 0.5 5.41839V15.3963C0.501323 16.4985 0.940735 17.5552 1.72185 18.3346C2.50296 19.1139 3.562 19.5524 4.66667 19.5537H16.3333C17.438 19.5524 18.497 19.1139 19.2782 18.3346C20.0593 17.5552 20.4987 16.4985 20.5 15.3963V5.41839C20.5 5.28785 20.4733 5.16894 20.4617 5.03757Z" fill="#303038"/>
<path d="M12.3595 10.761L20.0162 3.17013C19.6453 2.56047 19.1222 2.05584 18.4973 1.70492C17.8724 1.354 17.1668 1.16862 16.4486 1.16668H4.71291C3.9947 1.16862 3.28912 1.354 2.66422 1.70492C2.03931 2.05584 1.51618 2.56047 1.14526 3.17013L8.80195 10.761C9.27437 11.2274 9.91398 11.4893 10.5807 11.4893C11.2475 11.4893 11.8871 11.2274 12.3595 10.761Z" fill="#303038"/>
</svg>
