<svg
  width="20"
  height="20"
  viewBox="0 0 20 20"
  fill="white"
  xmlns="http://www.w3.org/2000/svg"
>
<path
    fill-rule="evenodd"
    clip-rule="evenodd"
    d="M10 0C15.5229 0 20 4.47708 20 10C20 15.5229 15.5229 20 10 20C4.47708 20 0 15.5229 0 10C0 4.47708 4.47708 0 10 0ZM5.57583 10.266C5.71 9.48812 6.59792 9.055 7.29854 9.47646C7.36208 9.51437 7.42271 9.55937 7.47917 9.61104L7.48458 9.61625C7.79896 9.9175 8.15125 10.231 8.50042 10.5419L8.8 10.8108L12.3548 7.08208C12.5671 6.85979 12.7223 6.71604 13.0408 6.64437C14.1315 6.40375 14.8983 7.73688 14.1254 8.55167L9.695 13.2013C9.27771 13.6465 8.53187 13.6871 8.08333 13.2619C7.82625 13.0231 7.54667 12.7802 7.26396 12.535C6.77437 12.1096 6.275 11.6756 5.86792 11.246C5.62354 11.0019 5.51813 10.6021 5.57583 10.266Z"
    fill="url(#paint0_linear_518_38509)"
  />
<defs>
<linearGradient
      id="paint0_linear_518_38509"
      x1="10"
      y1="0"
      x2="10"
      y2="20"
      gradientUnits="userSpaceOnUse"
    >
<stop stop-color="#3A57EC" />
<stop offset="1" stop-color="#7F6AFF" />
</linearGradient>
</defs>
</svg>
