<svg width="96" height="96" viewBox="0 0 96 96" fill="none" xmlns="http://www.w3.org/2000/svg">
<circle cx="48" cy="48" r="48" fill="#FAF3FF"/>
<path d="M61.2832 26.5708L45.1804 42.6735C42.1306 41.2126 38.7026 40.734 35.3693 41.304C32.036 41.8739 28.9617 43.4642 26.5706 45.8555C20.1874 52.2388 20.1874 62.614 26.5706 68.9972C32.9539 75.3804 43.3291 75.3804 49.7123 68.9972C52.1036 66.6061 53.6939 63.5318 54.2639 60.1985C54.8338 56.8652 54.3553 53.4372 52.8943 50.3874L53.5693 49.7125H61.2832V41.9986H68.997L68.9199 26.4937L61.2832 26.5708ZM43.9269 63.2118C40.7449 66.3938 35.538 66.3938 32.3561 63.2118C29.1741 60.0298 29.1741 54.8229 32.3561 51.6409C35.538 48.459 40.7449 48.459 43.9269 51.6409C47.1089 54.8229 47.1089 60.0298 43.9269 63.2118Z" fill="url(#paint0_linear_1263_84564)"/>
<defs>
<linearGradient id="paint0_linear_1263_84564" x1="45.3901" y1="26.4937" x2="45.3901" y2="73.7846" gradientUnits="userSpaceOnUse">
<stop stop-color="#3A57EC"/>
<stop offset="1" stop-color="#7F6AFF"/>
</linearGradient>
</defs>
</svg>
