<svg width="288" height="18" viewBox="0 0 288 18" fill="none" xmlns="http://www.w3.org/2000/svg">
<path fill-rule="evenodd" clip-rule="evenodd" d="M270 9V9.5H268.996V8.5H270V9ZM21 9.5H22.0039V8.5H21V9.5ZM24.0117 9.5H26.0205V8.5H24.0117V9.5ZM28.0283 9.5H30.0361V8.5H28.0283V9.5ZM32.0439 9.5H34.0527V8.5H32.0439V9.5ZM36.0605 9.5H38.0684V8.5H36.0605V9.5ZM40.0762 9.5H42.085V8.5H40.0762V9.5ZM44.0928 9.5H46.1006V8.5H44.0928V9.5ZM48.1084 9.5H50.1172V8.5H48.1084V9.5ZM52.125 9.5H54.1328V8.5H52.125V9.5ZM56.1416 9.5H58.1494V8.5H56.1416V9.5ZM60.1572 9.5H62.165V8.5H60.1572V9.5ZM64.1738 9.5H66.1816V8.5H64.1738V9.5ZM68.1895 9.5H70.1973V8.5H68.1895V9.5ZM72.2061 9.5H74.2139V8.5H72.2061V9.5ZM76.2217 9.5H78.2295V8.5H76.2217V9.5ZM80.2383 9.5H82.2461V8.5H80.2383V9.5ZM84.2539 9.5H86.2617V8.5H84.2539V9.5ZM88.2705 9.5H90.2783V8.5H88.2705V9.5ZM92.2861 9.5H94.2939V8.5H92.2861V9.5ZM96.3027 9.5H98.3105V8.5H96.3027V9.5ZM100.318 9.5H102.326V8.5H100.318V9.5ZM104.335 9.5H106.343V8.5H104.335V9.5ZM108.351 9.5H110.358V8.5H108.351V9.5ZM112.367 9.5H114.375V8.5H112.367V9.5ZM116.383 9.5H118.392V8.5H116.383V9.5ZM120.399 9.5H122.407V8.5H120.399V9.5ZM124.415 9.5H126.424V8.5H124.415V9.5ZM128.432 9.5H130.439V8.5H128.432V9.5ZM132.447 9.5H134.456V8.5H132.447V9.5ZM136.464 9.5H138.472V8.5H136.464V9.5ZM140.479 9.5H142.488V8.5H140.479V9.5ZM144.496 9.5H146.504V8.5H144.496V9.5ZM148.512 9.5H150.521V8.5H148.512V9.5ZM152.528 9.5H154.536V8.5H152.528V9.5ZM156.544 9.5H158.553V8.5H156.544V9.5ZM160.561 9.5H162.568V8.5H160.561V9.5ZM164.576 9.5H166.585V8.5H164.576V9.5ZM168.593 9.5H170.601V8.5H168.593V9.5ZM172.609 9.5H174.617V8.5H172.609V9.5ZM176.625 9.5H178.633V8.5H176.625V9.5ZM180.642 9.5H182.649V8.5H180.642V9.5ZM184.657 9.5H186.665V8.5H184.657V9.5ZM188.674 9.5H190.682V8.5H188.674V9.5ZM192.689 9.5H194.697V8.5H192.689V9.5ZM196.706 9.5H198.714V8.5H196.706V9.5ZM200.722 9.5H202.73V8.5H200.722V9.5ZM204.738 9.5H206.746V8.5H204.738V9.5ZM208.754 9.5H210.763V8.5H208.754V9.5ZM212.771 9.5H214.778V8.5H212.771V9.5ZM216.786 9.5H218.795V8.5H216.786V9.5ZM220.803 9.5H222.811V8.5H220.803V9.5ZM224.818 9.5H226.827V8.5H224.818V9.5ZM228.835 9.5H230.843V8.5H228.835V9.5ZM232.852 9.5H234.859V8.5H232.852V9.5ZM236.867 9.5H238.875V8.5H236.867V9.5ZM240.884 9.5H242.892V8.5H240.884V9.5ZM244.899 9.5H246.907V8.5H244.899V9.5ZM248.916 9.5H250.924V8.5H248.916V9.5ZM252.932 9.5H254.939V8.5H252.932V9.5ZM256.948 9.5H258.956V8.5H256.948V9.5ZM260.964 9.5H262.973V8.5H260.964V9.5ZM264.98 9.5H266.988V8.5H264.98V9.5Z" fill="url(#paint0_linear_1015_77047)"/>
<circle cx="9" cy="9" r="9" fill="#455AEF"/>
<circle cx="279" cy="9" r="9" fill="#455AEF"/>
<defs>
<linearGradient id="paint0_linear_1015_77047" x1="144" y1="0" x2="144" y2="18" gradientUnits="userSpaceOnUse">
<stop stop-color="#3A57EC"/>
<stop offset="1" stop-color="#7F6AFF"/>
</linearGradient>
</defs>
</svg>
