<svg width="96" height="96" viewBox="0 0 96 96" fill="none" xmlns="http://www.w3.org/2000/svg">
<circle cx="48" cy="48" r="48" fill="#FAF3FF"/>
<path fill-rule="evenodd" clip-rule="evenodd" d="M40.5874 45.9217H42.1799V42.5589C42.1799 40.7447 42.9226 39.0956 44.1172 37.9003V37.8987C45.3122 36.7038 46.962 35.9614 48.7769 35.9614C50.5911 35.9614 52.2402 36.7038 53.4352 37.8987L53.4367 37.9003C54.6313 39.0952 55.374 40.7451 55.374 42.5585V45.9213L56.6429 45.9217C56.9254 45.9217 57.1566 46.153 57.1566 46.4354V57.2893C57.1566 57.5718 56.925 57.8031 56.6425 57.8031H40.5874C40.3049 57.8031 40.0732 57.5714 40.0732 57.2893V46.4354C40.0732 46.153 40.3045 45.9217 40.5874 45.9217ZM30.42 33.5453C29.7346 34.3947 29.1016 35.2968 28.4723 36.4151C26.1682 40.5118 25.1923 45.1631 25.5898 49.709C25.9785 54.149 27.6803 58.4939 30.7372 62.1284C31.8351 63.4338 33.0132 64.5845 34.2516 65.5797C38.528 69.0184 43.5942 70.714 48.6469 70.6659C53.7015 70.6178 58.7334 68.8248 62.9421 65.2853C64.1694 64.2532 65.3201 63.0813 66.373 61.7717C68.8345 58.7094 70.4185 55.1176 71.0185 51.3276C71.6081 47.6054 71.2475 43.6965 69.8374 39.9149C68.4954 36.3147 66.4454 33.1089 63.7664 30.5993C61.213 28.2071 58.0949 26.4452 54.4785 25.5709C53.3459 25.2969 52.1929 25.1179 51.0183 25.0421C49.8399 24.9663 48.6349 24.9917 47.4003 25.1283C46.6264 25.2137 46.0692 25.9095 46.1542 26.6835C46.2396 27.457 46.9354 28.0147 47.709 27.9292C48.78 27.8107 49.8237 27.7884 50.842 27.8542C51.8634 27.92 52.8548 28.0728 53.8173 28.306C56.9369 29.0599 59.6301 30.582 61.8368 32.6502C64.199 34.8634 66.0112 37.7013 67.202 40.8963C68.4381 44.211 68.7548 47.6331 68.2395 50.8866C67.7161 54.1921 66.3318 57.3286 64.1782 60.0071C63.228 61.189 62.2074 62.2316 61.1333 63.1348C57.4422 66.2394 53.0395 67.8119 48.6249 67.8542C44.2096 67.8962 39.773 66.4064 36.0157 63.3861C34.9016 62.4902 33.8525 61.4684 32.8873 60.3204C30.2253 57.1554 28.7421 53.3577 28.4019 49.4669C28.0525 45.4741 28.9087 41.3897 30.9311 37.794C31.5415 36.7088 32.1669 35.8425 32.8604 35.0074L33.0655 40.6631C33.0928 41.4397 33.7448 42.047 34.521 42.0193C35.2972 41.9916 35.9049 41.34 35.8772 40.5638L35.5501 31.551C35.5228 30.774 34.8708 30.1671 34.0946 30.1944C34.0461 30.1964 33.9984 30.2006 33.9514 30.2068V30.2056L25.215 31.4329C24.4449 31.5395 23.9069 32.2507 24.0135 33.0208C24.1197 33.7912 24.8309 34.3293 25.6014 34.2226L30.42 33.5453ZM44.743 45.9217H52.8105V42.5219C52.8105 41.4124 52.3564 40.4037 51.6264 39.6729L51.6256 39.6733C50.8948 38.9424 49.8857 38.4879 48.7769 38.4879C47.6674 38.4879 46.6587 38.9421 45.9275 39.6725C45.1971 40.4033 44.7433 41.4124 44.7433 42.5219V45.9217H44.743ZM48.8093 51.8607L49.6236 55.6183L47.3919 55.6276L48.0465 51.8195C47.4369 51.6236 46.9947 51.0525 46.9947 50.3774C46.9947 49.5419 47.672 48.8646 48.5079 48.8646C49.3431 48.8646 50.0208 49.5419 50.0208 50.3774C50.0204 51.1102 49.5005 51.7213 48.8093 51.8607Z" fill="url(#paint0_linear_1_10)"/>
<defs>
<linearGradient id="paint0_linear_1_10" x1="47.645" y1="25" x2="47.645" y2="70.6669" gradientUnits="userSpaceOnUse">
<stop stop-color="#3A57EC"/>
<stop offset="1" stop-color="#7F6AFF"/>
</linearGradient>
</defs>
</svg>
