<svg width="25" height="30" viewBox="0 0 25 30" fill="none" xmlns="http://www.w3.org/2000/svg">
<path fill-rule="evenodd" clip-rule="evenodd" d="M20.4046 15.9385C20.3669 12.1407 23.5021 10.3183 23.6421 10.228C21.88 7.6504 19.1346 7.2961 18.1564 7.25626C15.8201 7.0204 13.5984 8.63251 12.4115 8.63251C11.2278 8.63251 9.3987 7.29165 7.46162 7.32713C4.91553 7.36477 2.56818 8.808 1.25562 11.0884C-1.3896 15.6778 0.579027 22.48 3.15727 26.2015C4.41672 28.0239 5.91869 30.0712 7.8912 29.9981C9.79008 29.9234 10.5087 28.768 12.8056 28.768C15.102 28.768 15.747 29.9981 17.7572 29.9588C19.8011 29.9212 21.096 28.1009 22.3471 26.2723C23.7949 24.1575 24.3883 22.1124 24.4243 22.0073C24.3789 21.9868 20.4388 20.4776 20.399 15.9402L20.4045 15.9385H20.4046ZM16.6289 4.79041C17.6753 3.52098 18.3822 1.75883 18.189 0C16.6815 0.0614492 14.8535 1.0048 13.7712 2.27259C12.7996 3.39808 11.9509 5.19178 12.1779 6.91461C13.8614 7.04585 15.5804 6.05929 16.6273 4.79262L16.6289 4.79041Z" fill="black"/>
</svg>
