<svg width="28" height="30" viewBox="0 0 28 30" fill="none" xmlns="http://www.w3.org/2000/svg">
<path d="M12.2133 13.9336L0.582031 27.5496C1.00509 28.9893 2.34929 29.9995 3.85169 29.9995C4.50562 29.9995 5.0781 29.836 5.56855 29.509L19.8754 21.3372L12.2133 13.9336Z" fill="#EA4335"/>
<path d="M25.9259 12.0177L19.7938 8.50195L13.2539 14.9604L19.8758 21.3374L26.0073 17.9037C27.0703 17.3312 27.8062 16.1868 27.8062 14.9604C27.7242 13.734 26.9888 12.5896 25.9259 12.0177Z" fill="#FBBC04"/>
<path d="M12.1852 16.0231L19.7939 8.50229L5.65059 0.490449C5.16014 0.163483 4.50562 0 3.85169 0C2.2989 0 0.908997 1.06293 0.582031 2.45283L12.1852 16.0231Z" fill="#34A853"/>
<path d="M0.581448 2.45312C0.5 2.69806 0.5 3.02561 0.5 3.35199V26.6521C0.5 26.9785 0.5 27.224 0.582034 27.551L13.2546 14.961L0.581448 2.45312Z" fill="#4285F4"/>
</svg>
