<svg width="120" height="152" viewBox="0 0 120 152" fill="none" xmlns="http://www.w3.org/2000/svg">
<rect width="120" height="152" rx="5" fill="#303038"/>
<path d="M47.571 8.21454C48.7151 8.21454 49.6425 9.14196 49.6425 10.286C49.6425 11.43 48.7151 12.3574 47.571 12.3574C46.427 12.3574 45.4996 11.43 45.4996 10.286C45.4996 9.14196 46.427 8.21454 47.571 8.21454Z" fill="white"/>
<path d="M55.8583 8.21504C57.0024 8.21504 57.9298 9.14246 57.9298 10.2865C57.9298 11.4305 57.0024 12.3579 55.8583 12.3579C54.7143 12.3579 53.7869 11.4305 53.7869 10.2865C53.7869 9.14246 54.7143 8.21504 55.8583 8.21504Z" fill="white"/>
<path d="M76.571 8.21454C77.7151 8.21454 78.6425 9.14196 78.6425 10.286C78.6425 11.43 77.7151 12.3574 76.571 12.3574C75.427 12.3574 74.4996 11.43 74.4996 10.286C74.4996 9.14196 75.427 8.21454 76.571 8.21454Z" fill="white"/>
<path d="M47.571 12.3574C48.7151 12.3574 49.6425 13.2848 49.6425 14.4288C49.6425 15.5729 48.7151 16.5002 47.571 16.5002C46.427 16.5002 45.4996 15.5729 45.4996 14.4288C45.4996 13.2848 46.427 12.3574 47.571 12.3574Z" fill="white"/>
<path d="M55.8583 12.357C57.0024 12.357 57.9298 13.2845 57.9298 14.4285C57.9298 15.5725 57.0024 16.4999 55.8583 16.4999C54.7143 16.4999 53.7869 15.5725 53.7869 14.4285C53.7869 13.2845 54.7143 12.357 55.8583 12.357Z" fill="white"/>
<path d="M72.4283 12.3574C73.5724 12.3574 74.4998 13.2848 74.4998 14.4288C74.4998 15.5729 73.5724 16.5002 72.4283 16.5002C71.2843 16.5002 70.3569 15.5729 70.3569 14.4288C70.3569 13.2848 71.2843 12.3574 72.4283 12.3574Z" fill="white"/>
<path d="M43.4283 16.5003C44.5724 16.5003 45.4998 17.4277 45.4998 18.5717C45.4998 19.7158 44.5724 20.6431 43.4283 20.6431C42.2843 20.6431 41.3569 19.7158 41.3569 18.5717C41.3569 17.4277 42.2843 16.5003 43.4283 16.5003Z" fill="white"/>
<path d="M51.7137 16.5003C52.8578 16.5003 53.7852 17.4277 53.7852 18.5717C53.7852 19.7158 52.8578 20.6431 51.7137 20.6431C50.5697 20.6431 49.6423 19.7158 49.6423 18.5717C49.6423 17.4277 50.5697 16.5003 51.7137 16.5003Z" fill="white"/>
<path d="M68.2837 16.5002C69.4278 16.5002 70.3552 17.4277 70.3552 18.5717C70.3552 19.7157 69.4278 20.6431 68.2837 20.6431C67.1397 20.6431 66.2123 19.7157 66.2123 18.5717C66.2123 17.4277 67.1397 16.5002 68.2837 16.5002Z" fill="white"/>
<path d="M76.571 16.5003C77.7151 16.5003 78.6425 17.4277 78.6425 18.5717C78.6425 19.7158 77.7151 20.6431 76.571 20.6431C75.427 20.6431 74.4996 19.7158 74.4996 18.5717C74.4996 17.4277 75.427 16.5003 76.571 16.5003Z" fill="white"/>
<path d="M43.4283 20.6431C44.5724 20.6431 45.4998 21.5705 45.4998 22.7146C45.4998 23.8586 44.5724 24.786 43.4283 24.786C42.2843 24.786 41.3569 23.8586 41.3569 22.7146C41.3569 21.5705 42.2843 20.6431 43.4283 20.6431Z" fill="white"/>
<path d="M47.571 20.6431C48.7151 20.6431 49.6425 21.5705 49.6425 22.7146C49.6425 23.8586 48.7151 24.786 47.571 24.786C46.427 24.786 45.4996 23.8586 45.4996 22.7146C45.4996 21.5705 46.427 20.6431 47.571 20.6431Z" fill="white"/>
<path d="M51.7137 20.6431C52.8578 20.6431 53.7852 21.5705 53.7852 22.7146C53.7852 23.8586 52.8578 24.786 51.7137 24.786C50.5697 24.786 49.6423 23.8586 49.6423 22.7146C49.6423 21.5705 50.5697 20.6431 51.7137 20.6431Z" fill="white"/>
<path d="M64.1428 20.6433C65.2868 20.6433 66.2142 21.5708 66.2142 22.7148C66.2142 23.8588 65.2868 24.7862 64.1428 24.7862C62.9988 24.7862 62.0713 23.8588 62.0713 22.7148C62.0713 21.5708 62.9988 20.6433 64.1428 20.6433Z" fill="white"/>
<path d="M68.2837 20.6433C69.4278 20.6433 70.3552 21.5708 70.3552 22.7148C70.3552 23.8588 69.4278 24.7862 68.2837 24.7862C67.1397 24.7862 66.2123 23.8588 66.2123 22.7148C66.2123 21.5708 67.1397 20.6433 68.2837 20.6433Z" fill="white"/>
<path d="M43.4283 24.7859C44.5724 24.7859 45.4998 25.7134 45.4998 26.8574C45.4998 28.0014 44.5724 28.9288 43.4283 28.9288C42.2843 28.9288 41.3569 28.0014 41.3569 26.8574C41.3569 25.7134 42.2843 24.7859 43.4283 24.7859Z" fill="white"/>
<path d="M59.9993 24.7855C61.1434 24.7855 62.0707 25.7129 62.0707 26.8569C62.0707 28.001 61.1434 28.9283 59.9993 28.9283C58.8553 28.9283 57.9279 28.001 57.9279 26.8569C57.9279 25.7129 58.8553 24.7855 59.9993 24.7855Z" fill="white"/>
<path d="M68.2837 24.7855C69.4278 24.7855 70.3552 25.7129 70.3552 26.8569C70.3552 28.001 69.4278 28.9283 68.2837 28.9283C67.1397 28.9283 66.2123 28.001 66.2123 26.8569C66.2123 25.7129 67.1397 24.7855 68.2837 24.7855Z" fill="white"/>
<path d="M43.4283 28.9288C44.5724 28.9288 45.4998 29.8562 45.4998 31.0002C45.4998 32.1443 44.5724 33.0717 43.4283 33.0717C42.2843 33.0717 41.3569 32.1443 41.3569 31.0002C41.3569 29.8562 42.2843 28.9288 43.4283 28.9288Z" fill="white"/>
<path d="M47.571 28.9288C48.7151 28.9288 49.6425 29.8562 49.6425 31.0002C49.6425 32.1443 48.7151 33.0717 47.571 33.0717C46.427 33.0717 45.4996 32.1443 45.4996 31.0002C45.4996 29.8562 46.427 28.9288 47.571 28.9288Z" fill="white"/>
<path d="M51.7137 28.9288C52.8578 28.9288 53.7852 29.8562 53.7852 31.0002C53.7852 32.1443 52.8578 33.0717 51.7137 33.0717C50.5697 33.0717 49.6423 32.1443 49.6423 31.0002C49.6423 29.8562 50.5697 28.9288 51.7137 28.9288Z" fill="white"/>
<path d="M68.2837 28.9286C69.4278 28.9286 70.3552 29.8561 70.3552 31.0001C70.3552 32.1441 69.4278 33.0715 68.2837 33.0715C67.1397 33.0715 66.2123 32.1441 66.2123 31.0001C66.2123 29.8561 67.1397 28.9286 68.2837 28.9286Z" fill="white"/>
<path d="M72.4283 28.9288C73.5724 28.9288 74.4998 29.8562 74.4998 31.0002C74.4998 32.1443 73.5724 33.0717 72.4283 33.0717C71.2843 33.0717 70.3569 32.1443 70.3569 31.0002C70.3569 29.8562 71.2843 28.9288 72.4283 28.9288Z" fill="white"/>
<path d="M76.571 28.9288C77.7151 28.9288 78.6425 29.8562 78.6425 31.0002C78.6425 32.1443 77.7151 33.0717 76.571 33.0717C75.427 33.0717 74.4996 32.1443 74.4996 31.0002C74.4996 29.8562 75.427 28.9288 76.571 28.9288Z" fill="white"/>
<path d="M43.4283 33.0717C44.5724 33.0717 45.4998 33.9991 45.4998 35.1431C45.4998 36.2872 44.5724 37.2146 43.4283 37.2146C42.2843 37.2146 41.3569 36.2872 41.3569 35.1431C41.3569 33.9991 42.2843 33.0717 43.4283 33.0717Z" fill="white"/>
<path d="M51.7137 33.0717C52.8578 33.0717 53.7852 33.9991 53.7852 35.1431C53.7852 36.2872 52.8578 37.2146 51.7137 37.2146C50.5697 37.2146 49.6423 36.2872 49.6423 35.1431C49.6423 33.9991 50.5697 33.0717 51.7137 33.0717Z" fill="white"/>
<path d="M59.9993 33.0719C61.1434 33.0719 62.0707 33.9993 62.0707 35.1433C62.0707 36.2873 61.1434 37.2147 59.9993 37.2147C58.8553 37.2147 57.9279 36.2873 57.9279 35.1433C57.9279 33.9993 58.8553 33.0719 59.9993 33.0719Z" fill="white"/>
<path d="M68.2837 33.0719C69.4278 33.0719 70.3552 33.9993 70.3552 35.1433C70.3552 36.2873 69.4278 37.2147 68.2837 37.2147C67.1397 37.2147 66.2123 36.2873 66.2123 35.1433C66.2123 33.9993 67.1397 33.0719 68.2837 33.0719Z" fill="white"/>
<path d="M76.571 33.0717C77.7151 33.0717 78.6425 33.9991 78.6425 35.1431C78.6425 36.2872 77.7151 37.2146 76.571 37.2146C75.427 37.2146 74.4996 36.2872 74.4996 35.1431C74.4996 33.9991 75.427 33.0717 76.571 33.0717Z" fill="white"/>
<path d="M43.4283 37.2145C44.5724 37.2145 45.4998 38.142 45.4998 39.286C45.4998 40.43 44.5724 41.3574 43.4283 41.3574C42.2843 41.3574 41.3569 40.43 41.3569 39.286C41.3569 38.142 42.2843 37.2145 43.4283 37.2145Z" fill="white"/>
<path d="M51.7137 37.2145C52.8578 37.2145 53.7852 38.142 53.7852 39.286C53.7852 40.43 52.8578 41.3574 51.7137 41.3574C50.5697 41.3574 49.6423 40.43 49.6423 39.286C49.6423 38.142 50.5697 37.2145 51.7137 37.2145Z" fill="white"/>
<path d="M59.9993 37.2151C61.1434 37.2151 62.0707 38.1425 62.0707 39.2865C62.0707 40.4306 61.1434 41.3579 59.9993 41.3579C58.8553 41.3579 57.9279 40.4306 57.9279 39.2865C57.9279 38.1425 58.8553 37.2151 59.9993 37.2151Z" fill="white"/>
<path d="M68.2837 37.2151C69.4278 37.2151 70.3552 38.1425 70.3552 39.2865C70.3552 40.4306 69.4278 41.3579 68.2837 41.3579C67.1397 41.3579 66.2123 40.4306 66.2123 39.2865C66.2123 38.1425 67.1397 37.2151 68.2837 37.2151Z" fill="white"/>
<path d="M72.4283 37.2145C73.5724 37.2145 74.4998 38.142 74.4998 39.286C74.4998 40.43 73.5724 41.3574 72.4283 41.3574C71.2843 41.3574 70.3569 40.43 70.3569 39.286C70.3569 38.142 71.2843 37.2145 72.4283 37.2145Z" fill="white"/>
<path d="M76.571 37.2145C77.7151 37.2145 78.6425 38.142 78.6425 39.286C78.6425 40.43 77.7151 41.3574 76.571 41.3574C75.427 41.3574 74.4996 40.43 74.4996 39.286C74.4996 38.142 75.427 37.2145 76.571 37.2145Z" fill="white"/>
<path d="M10.2837 41.357C11.4278 41.357 12.3552 42.2845 12.3552 43.4285C12.3552 44.5725 11.4278 45.4999 10.2837 45.4999C9.13972 45.4999 8.2123 44.5725 8.2123 43.4285C8.2123 42.2845 9.13972 41.357 10.2837 41.357Z" fill="white"/>
<path d="M18.571 41.3574C19.7151 41.3574 20.6425 42.2848 20.6425 43.4288C20.6425 44.5729 19.7151 45.5002 18.571 45.5002C17.427 45.5002 16.4996 44.5729 16.4996 43.4288C16.4996 42.2848 17.427 41.3574 18.571 41.3574Z" fill="white"/>
<path d="M22.7137 41.3574C23.8578 41.3574 24.7852 42.2848 24.7852 43.4288C24.7852 44.5729 23.8578 45.5002 22.7137 45.5002C21.5697 45.5002 20.6423 44.5729 20.6423 43.4288C20.6423 42.2848 21.5697 41.3574 22.7137 41.3574Z" fill="white"/>
<path d="M26.8583 41.357C28.0024 41.357 28.9298 42.2845 28.9298 43.4285C28.9298 44.5725 28.0024 45.4999 26.8583 45.4999C25.7143 45.4999 24.7869 44.5725 24.7869 43.4285C24.7869 42.2845 25.7143 41.357 26.8583 41.357Z" fill="white"/>
<path d="M30.9993 41.357C32.1434 41.357 33.0707 42.2845 33.0707 43.4285C33.0707 44.5725 32.1434 45.4999 30.9993 45.4999C29.8553 45.4999 28.9279 44.5725 28.9279 43.4285C28.9279 42.2845 29.8553 41.357 30.9993 41.357Z" fill="white"/>
<path d="M35.1428 41.357C36.2868 41.357 37.2142 42.2845 37.2142 43.4285C37.2142 44.5725 36.2868 45.4999 35.1428 45.4999C33.9987 45.4999 33.0713 44.5725 33.0713 43.4285C33.0713 42.2845 33.9987 41.357 35.1428 41.357Z" fill="white"/>
<path d="M59.9993 41.357C61.1434 41.357 62.0707 42.2845 62.0707 43.4285C62.0707 44.5725 61.1434 45.4999 59.9993 45.4999C58.8553 45.4999 57.9279 44.5725 57.9279 43.4285C57.9279 42.2845 58.8553 41.357 59.9993 41.357Z" fill="white"/>
<path d="M84.8583 41.357C86.0024 41.357 86.9298 42.2845 86.9298 43.4285C86.9298 44.5725 86.0024 45.4999 84.8583 45.4999C83.7143 45.4999 82.7869 44.5725 82.7869 43.4285C82.7869 42.2845 83.7143 41.357 84.8583 41.357Z" fill="white"/>
<path d="M88.9993 41.357C90.1434 41.357 91.0707 42.2845 91.0707 43.4285C91.0707 44.5725 90.1434 45.4999 88.9993 45.4999C87.8553 45.4999 86.9279 44.5725 86.9279 43.4285C86.9279 42.2845 87.8553 41.357 88.9993 41.357Z" fill="white"/>
<path d="M93.1427 41.357C94.2868 41.357 95.2142 42.2845 95.2142 43.4285C95.2142 44.5725 94.2868 45.4999 93.1427 45.4999C91.9987 45.4999 91.0713 44.5725 91.0713 43.4285C91.0713 42.2845 91.9987 41.357 93.1427 41.357Z" fill="white"/>
<path d="M97.2837 41.357C98.4278 41.357 99.3552 42.2845 99.3552 43.4285C99.3552 44.5725 98.4278 45.4999 97.2837 45.4999C96.1397 45.4999 95.2123 44.5725 95.2123 43.4285C95.2123 42.2845 96.1397 41.357 97.2837 41.357Z" fill="white"/>
<path d="M101.428 41.3574C102.572 41.3574 103.5 42.2848 103.5 43.4288C103.5 44.5729 102.572 45.5002 101.428 45.5002C100.284 45.5002 99.3569 44.5729 99.3569 43.4288C99.3569 42.2848 100.284 41.3574 101.428 41.3574Z" fill="white"/>
<path d="M10.2837 45.5002C11.4278 45.5002 12.3552 46.4277 12.3552 47.5717C12.3552 48.7157 11.4278 49.6431 10.2837 49.6431C9.13972 49.6431 8.2123 48.7157 8.2123 47.5717C8.2123 46.4277 9.13972 45.5002 10.2837 45.5002Z" fill="white"/>
<path d="M22.7137 45.5003C23.8578 45.5003 24.7852 46.4277 24.7852 47.5717C24.7852 48.7158 23.8578 49.6431 22.7137 49.6431C21.5697 49.6431 20.6423 48.7158 20.6423 47.5717C20.6423 46.4277 21.5697 45.5003 22.7137 45.5003Z" fill="white"/>
<path d="M43.4283 45.5003C44.5724 45.5003 45.4998 46.4277 45.4998 47.5717C45.4998 48.7158 44.5724 49.6431 43.4283 49.6431C42.2843 49.6431 41.3569 48.7158 41.3569 47.5717C41.3569 46.4277 42.2843 45.5003 43.4283 45.5003Z" fill="white"/>
<path d="M47.571 45.5003C48.7151 45.5003 49.6425 46.4277 49.6425 47.5717C49.6425 48.7158 48.7151 49.6431 47.571 49.6431C46.427 49.6431 45.4996 48.7158 45.4996 47.5717C45.4996 46.4277 46.427 45.5003 47.571 45.5003Z" fill="white"/>
<path d="M51.7137 45.5003C52.8578 45.5003 53.7852 46.4277 53.7852 47.5717C53.7852 48.7158 52.8578 49.6431 51.7137 49.6431C50.5697 49.6431 49.6423 48.7158 49.6423 47.5717C49.6423 46.4277 50.5697 45.5003 51.7137 45.5003Z" fill="white"/>
<path d="M64.1428 45.5002C65.2868 45.5002 66.2142 46.4277 66.2142 47.5717C66.2142 48.7157 65.2868 49.6431 64.1428 49.6431C62.9988 49.6431 62.0713 48.7157 62.0713 47.5717C62.0713 46.4277 62.9988 45.5002 64.1428 45.5002Z" fill="white"/>
<path d="M76.571 45.5003C77.7151 45.5003 78.6425 46.4277 78.6425 47.5717C78.6425 48.7158 77.7151 49.6431 76.571 49.6431C75.427 49.6431 74.4996 48.7158 74.4996 47.5717C74.4996 46.4277 75.427 45.5003 76.571 45.5003Z" fill="white"/>
<path d="M88.9993 45.5002C90.1434 45.5002 91.0707 46.4277 91.0707 47.5717C91.0707 48.7157 90.1434 49.6431 88.9993 49.6431C87.8553 49.6431 86.9279 48.7157 86.9279 47.5717C86.9279 46.4277 87.8553 45.5002 88.9993 45.5002Z" fill="white"/>
<path d="M105.571 45.5003C106.715 45.5003 107.642 46.4277 107.642 47.5717C107.642 48.7158 106.715 49.6431 105.571 49.6431C104.427 49.6431 103.5 48.7158 103.5 47.5717C103.5 46.4277 104.427 45.5003 105.571 45.5003Z" fill="white"/>
<path d="M10.2837 49.6433C11.4278 49.6433 12.3552 50.5708 12.3552 51.7148C12.3552 52.8588 11.4278 53.7862 10.2837 53.7862C9.13972 53.7862 8.2123 52.8588 8.2123 51.7148C8.2123 50.5708 9.13972 49.6433 10.2837 49.6433Z" fill="white"/>
<path d="M22.7137 49.6431C23.8578 49.6431 24.7852 50.5705 24.7852 51.7145C24.7852 52.8586 23.8578 53.786 22.7137 53.786C21.5697 53.786 20.6423 52.8586 20.6423 51.7145C20.6423 50.5705 21.5697 49.6431 22.7137 49.6431Z" fill="white"/>
<path d="M26.8583 49.6433C28.0024 49.6433 28.9298 50.5708 28.9298 51.7148C28.9298 52.8588 28.0024 53.7862 26.8583 53.7862C25.7143 53.7862 24.7869 52.8588 24.7869 51.7148C24.7869 50.5708 25.7143 49.6433 26.8583 49.6433Z" fill="white"/>
<path d="M35.1428 49.6433C36.2868 49.6433 37.2142 50.5708 37.2142 51.7148C37.2142 52.8588 36.2868 53.7862 35.1428 53.7862C33.9987 53.7862 33.0713 52.8588 33.0713 51.7148C33.0713 50.5708 33.9987 49.6433 35.1428 49.6433Z" fill="white"/>
<path d="M39.2837 49.6433C40.4278 49.6433 41.3552 50.5708 41.3552 51.7148C41.3552 52.8588 40.4278 53.7862 39.2837 53.7862C38.1397 53.7862 37.2123 52.8588 37.2123 51.7148C37.2123 50.5708 38.1397 49.6433 39.2837 49.6433Z" fill="white"/>
<path d="M43.4283 49.6431C44.5724 49.6431 45.4998 50.5705 45.4998 51.7145C45.4998 52.8586 44.5724 53.786 43.4283 53.786C42.2843 53.786 41.3569 52.8586 41.3569 51.7145C41.3569 50.5705 42.2843 49.6431 43.4283 49.6431Z" fill="white"/>
<path d="M55.8583 49.6433C57.0024 49.6433 57.9298 50.5708 57.9298 51.7148C57.9298 52.8588 57.0024 53.7862 55.8583 53.7862C54.7143 53.7862 53.7869 52.8588 53.7869 51.7148C53.7869 50.5708 54.7143 49.6433 55.8583 49.6433Z" fill="white"/>
<path d="M64.1428 49.6433C65.2868 49.6433 66.2142 50.5708 66.2142 51.7148C66.2142 52.8588 65.2868 53.7862 64.1428 53.7862C62.9988 53.7862 62.0713 52.8588 62.0713 51.7148C62.0713 50.5708 62.9988 49.6433 64.1428 49.6433Z" fill="white"/>
<path d="M68.2837 49.6433C69.4278 49.6433 70.3552 50.5708 70.3552 51.7148C70.3552 52.8588 69.4278 53.7862 68.2837 53.7862C67.1397 53.7862 66.2123 52.8588 66.2123 51.7148C66.2123 50.5708 67.1397 49.6433 68.2837 49.6433Z" fill="white"/>
<path d="M72.4283 49.6431C73.5724 49.6431 74.4998 50.5705 74.4998 51.7145C74.4998 52.8586 73.5724 53.786 72.4283 53.786C71.2843 53.786 70.3569 52.8586 70.3569 51.7145C70.3569 50.5705 71.2843 49.6431 72.4283 49.6431Z" fill="white"/>
<path d="M76.571 49.6431C77.7151 49.6431 78.6425 50.5705 78.6425 51.7145C78.6425 52.8586 77.7151 53.786 76.571 53.786C75.427 53.786 74.4996 52.8586 74.4996 51.7145C74.4996 50.5705 75.427 49.6431 76.571 49.6431Z" fill="white"/>
<path d="M84.8583 49.6433C86.0024 49.6433 86.9298 50.5708 86.9298 51.7148C86.9298 52.8588 86.0024 53.7862 84.8583 53.7862C83.7143 53.7862 82.7869 52.8588 82.7869 51.7148C82.7869 50.5708 83.7143 49.6433 84.8583 49.6433Z" fill="white"/>
<path d="M88.9993 49.6433C90.1434 49.6433 91.0707 50.5708 91.0707 51.7148C91.0707 52.8588 90.1434 53.7862 88.9993 53.7862C87.8553 53.7862 86.9279 52.8588 86.9279 51.7148C86.9279 50.5708 87.8553 49.6433 88.9993 49.6433Z" fill="white"/>
<path d="M97.2837 49.6433C98.4278 49.6433 99.3552 50.5708 99.3552 51.7148C99.3552 52.8588 98.4278 53.7862 97.2837 53.7862C96.1397 53.7862 95.2123 52.8588 95.2123 51.7148C95.2123 50.5708 96.1397 49.6433 97.2837 49.6433Z" fill="white"/>
<path d="M105.571 49.6431C106.715 49.6431 107.642 50.5705 107.642 51.7145C107.642 52.8586 106.715 53.786 105.571 53.786C104.427 53.786 103.5 52.8586 103.5 51.7145C103.5 50.5705 104.427 49.6431 105.571 49.6431Z" fill="white"/>
<path d="M109.714 49.6431C110.858 49.6431 111.785 50.5705 111.785 51.7145C111.785 52.8586 110.858 53.786 109.714 53.786C108.57 53.786 107.642 52.8586 107.642 51.7145C107.642 50.5705 108.57 49.6431 109.714 49.6431Z" fill="white"/>
<path d="M10.2837 53.7855C11.4278 53.7855 12.3552 54.7129 12.3552 55.8569C12.3552 57.001 11.4278 57.9283 10.2837 57.9283C9.13972 57.9283 8.2123 57.001 8.2123 55.8569C8.2123 54.7129 9.13972 53.7855 10.2837 53.7855Z" fill="white"/>
<path d="M18.571 53.786C19.7151 53.786 20.6425 54.7134 20.6425 55.8574C20.6425 57.0015 19.7151 57.9288 18.571 57.9288C17.427 57.9288 16.4996 57.0015 16.4996 55.8574C16.4996 54.7134 17.427 53.786 18.571 53.786Z" fill="white"/>
<path d="M43.4283 53.786C44.5724 53.786 45.4998 54.7134 45.4998 55.8574C45.4998 57.0015 44.5724 57.9288 43.4283 57.9288C42.2843 57.9288 41.3569 57.0015 41.3569 55.8574C41.3569 54.7134 42.2843 53.786 43.4283 53.786Z" fill="white"/>
<path d="M47.571 53.786C48.7151 53.786 49.6425 54.7134 49.6425 55.8574C49.6425 57.0015 48.7151 57.9288 47.571 57.9288C46.427 57.9288 45.4996 57.0015 45.4996 55.8574C45.4996 54.7134 46.427 53.786 47.571 53.786Z" fill="white"/>
<path d="M51.7137 53.786C52.8578 53.786 53.7852 54.7134 53.7852 55.8574C53.7852 57.0015 52.8578 57.9288 51.7137 57.9288C50.5697 57.9288 49.6423 57.0015 49.6423 55.8574C49.6423 54.7134 50.5697 53.786 51.7137 53.786Z" fill="white"/>
<path d="M55.8583 53.7855C57.0024 53.7855 57.9298 54.7129 57.9298 55.8569C57.9298 57.001 57.0024 57.9283 55.8583 57.9283C54.7143 57.9283 53.7869 57.001 53.7869 55.8569C53.7869 54.7129 54.7143 53.7855 55.8583 53.7855Z" fill="white"/>
<path d="M64.1428 53.7855C65.2868 53.7855 66.2142 54.7129 66.2142 55.8569C66.2142 57.001 65.2868 57.9283 64.1428 57.9283C62.9988 57.9283 62.0713 57.001 62.0713 55.8569C62.0713 54.7129 62.9988 53.7855 64.1428 53.7855Z" fill="white"/>
<path d="M76.571 53.786C77.7151 53.786 78.6425 54.7134 78.6425 55.8574C78.6425 57.0015 77.7151 57.9288 76.571 57.9288C75.427 57.9288 74.4996 57.0015 74.4996 55.8574C74.4996 54.7134 75.427 53.786 76.571 53.786Z" fill="white"/>
<path d="M109.714 53.786C110.858 53.786 111.785 54.7134 111.785 55.8574C111.785 57.0015 110.858 57.9288 109.714 57.9288C108.57 57.9288 107.642 57.0015 107.642 55.8574C107.642 54.7134 108.57 53.786 109.714 53.786Z" fill="white"/>
<path d="M26.8583 57.9287C28.0024 57.9287 28.9298 58.8561 28.9298 60.0001C28.9298 61.1442 28.0024 62.0715 26.8583 62.0715C25.7143 62.0715 24.7869 61.1442 24.7869 60.0001C24.7869 58.8561 25.7143 57.9287 26.8583 57.9287Z" fill="white"/>
<path d="M35.1428 57.9287C36.2868 57.9287 37.2142 58.8561 37.2142 60.0001C37.2142 61.1442 36.2868 62.0715 35.1428 62.0715C33.9987 62.0715 33.0713 61.1442 33.0713 60.0001C33.0713 58.8561 33.9987 57.9287 35.1428 57.9287Z" fill="white"/>
<path d="M47.571 57.9288C48.7151 57.9288 49.6425 58.8562 49.6425 60.0002C49.6425 61.1443 48.7151 62.0717 47.571 62.0717C46.427 62.0717 45.4996 61.1443 45.4996 60.0002C45.4996 58.8562 46.427 57.9288 47.571 57.9288Z" fill="white"/>
<path d="M59.9993 57.9287C61.1434 57.9287 62.0707 58.8561 62.0707 60.0001C62.0707 61.1442 61.1434 62.0715 59.9993 62.0715C58.8553 62.0715 57.9279 61.1442 57.9279 60.0001C57.9279 58.8561 58.8553 57.9287 59.9993 57.9287Z" fill="white"/>
<path d="M68.2837 57.9287C69.4278 57.9287 70.3552 58.8561 70.3552 60.0001C70.3552 61.1442 69.4278 62.0715 68.2837 62.0715C67.1397 62.0715 66.2123 61.1442 66.2123 60.0001C66.2123 58.8561 67.1397 57.9287 68.2837 57.9287Z" fill="white"/>
<path d="M80.7137 57.9288C81.8578 57.9288 82.7852 58.8562 82.7852 60.0002C82.7852 61.1443 81.8578 62.0717 80.7137 62.0717C79.5697 62.0717 78.6423 61.1443 78.6423 60.0002C78.6423 58.8562 79.5697 57.9288 80.7137 57.9288Z" fill="white"/>
<path d="M84.8583 57.9287C86.0024 57.9287 86.9298 58.8561 86.9298 60.0001C86.9298 61.1442 86.0024 62.0715 84.8583 62.0715C83.7143 62.0715 82.7869 61.1442 82.7869 60.0001C82.7869 58.8561 83.7143 57.9287 84.8583 57.9287Z" fill="white"/>
<path d="M88.9993 57.9287C90.1434 57.9287 91.0707 58.8561 91.0707 60.0001C91.0707 61.1442 90.1434 62.0715 88.9993 62.0715C87.8553 62.0715 86.9279 61.1442 86.9279 60.0001C86.9279 58.8561 87.8553 57.9287 88.9993 57.9287Z" fill="white"/>
<path d="M93.1427 57.9287C94.2868 57.9287 95.2142 58.8561 95.2142 60.0001C95.2142 61.1442 94.2868 62.0715 93.1427 62.0715C91.9987 62.0715 91.0713 61.1442 91.0713 60.0001C91.0713 58.8561 91.9987 57.9287 93.1427 57.9287Z" fill="white"/>
<path d="M101.428 57.9288C102.572 57.9288 103.5 58.8562 103.5 60.0002C103.5 61.1443 102.572 62.0717 101.428 62.0717C100.284 62.0717 99.3569 61.1443 99.3569 60.0002C99.3569 58.8562 100.284 57.9288 101.428 57.9288Z" fill="white"/>
<path d="M105.571 57.9288C106.715 57.9288 107.642 58.8562 107.642 60.0002C107.642 61.1443 106.715 62.0717 105.571 62.0717C104.427 62.0717 103.5 61.1443 103.5 60.0002C103.5 58.8562 104.427 57.9288 105.571 57.9288Z" fill="white"/>
<path d="M109.714 57.9288C110.858 57.9288 111.785 58.8562 111.785 60.0002C111.785 61.1443 110.858 62.0717 109.714 62.0717C108.57 62.0717 107.642 61.1443 107.642 60.0002C107.642 58.8562 108.57 57.9288 109.714 57.9288Z" fill="white"/>
<path d="M10.2837 62.0719C11.4278 62.0719 12.3552 62.9993 12.3552 64.1433C12.3552 65.2873 11.4278 66.2147 10.2837 66.2147C9.13972 66.2147 8.2123 65.2873 8.2123 64.1433C8.2123 62.9993 9.13972 62.0719 10.2837 62.0719Z" fill="white"/>
<path d="M14.4283 62.0717C15.5724 62.0717 16.4998 62.9991 16.4998 64.1431C16.4998 65.2872 15.5724 66.2146 14.4283 66.2146C13.2843 66.2146 12.3569 65.2872 12.3569 64.1431C12.3569 62.9991 13.2843 62.0717 14.4283 62.0717Z" fill="white"/>
<path d="M26.8583 62.0719C28.0024 62.0719 28.9298 62.9993 28.9298 64.1433C28.9298 65.2873 28.0024 66.2147 26.8583 66.2147C25.7143 66.2147 24.7869 65.2873 24.7869 64.1433C24.7869 62.9993 25.7143 62.0719 26.8583 62.0719Z" fill="white"/>
<path d="M30.9993 62.0719C32.1434 62.0719 33.0707 62.9993 33.0707 64.1433C33.0707 65.2873 32.1434 66.2147 30.9993 66.2147C29.8553 66.2147 28.9279 65.2873 28.9279 64.1433C28.9279 62.9993 29.8553 62.0719 30.9993 62.0719Z" fill="white"/>
<path d="M39.2837 62.0719C40.4278 62.0719 41.3552 62.9993 41.3552 64.1433C41.3552 65.2873 40.4278 66.2147 39.2837 66.2147C38.1397 66.2147 37.2123 65.2873 37.2123 64.1433C37.2123 62.9993 38.1397 62.0719 39.2837 62.0719Z" fill="white"/>
<path d="M76.571 62.0717C77.7151 62.0717 78.6425 62.9991 78.6425 64.1431C78.6425 65.2872 77.7151 66.2146 76.571 66.2146C75.427 66.2146 74.4996 65.2872 74.4996 64.1431C74.4996 62.9991 75.427 62.0717 76.571 62.0717Z" fill="white"/>
<path d="M97.2837 62.0719C98.4278 62.0719 99.3552 62.9993 99.3552 64.1433C99.3552 65.2873 98.4278 66.2147 97.2837 66.2147C96.1397 66.2147 95.2123 65.2873 95.2123 64.1433C95.2123 62.9993 96.1397 62.0719 97.2837 62.0719Z" fill="white"/>
<path d="M105.571 62.0717C106.715 62.0717 107.642 62.9991 107.642 64.1431C107.642 65.2872 106.715 66.2146 105.571 66.2146C104.427 66.2146 103.5 65.2872 103.5 64.1431C103.5 62.9991 104.427 62.0717 105.571 62.0717Z" fill="white"/>
<path d="M10.2837 66.215C11.4278 66.215 12.3552 67.1425 12.3552 68.2865C12.3552 69.4305 11.4278 70.3579 10.2837 70.3579C9.13972 70.3579 8.2123 69.4305 8.2123 68.2865C8.2123 67.1425 9.13972 66.215 10.2837 66.215Z" fill="white"/>
<path d="M22.7137 66.2145C23.8578 66.2145 24.7852 67.142 24.7852 68.286C24.7852 69.43 23.8578 70.3574 22.7137 70.3574C21.5697 70.3574 20.6423 69.43 20.6423 68.286C20.6423 67.142 21.5697 66.2145 22.7137 66.2145Z" fill="white"/>
<path d="M30.9993 66.215C32.1434 66.215 33.0707 67.1425 33.0707 68.2865C33.0707 69.4305 32.1434 70.3579 30.9993 70.3579C29.8553 70.3579 28.9279 69.4305 28.9279 68.2865C28.9279 67.1425 29.8553 66.215 30.9993 66.215Z" fill="white"/>
<path d="M35.1428 66.215C36.2868 66.215 37.2142 67.1425 37.2142 68.2865C37.2142 69.4305 36.2868 70.3579 35.1428 70.3579C33.9987 70.3579 33.0713 69.4305 33.0713 68.2865C33.0713 67.1425 33.9987 66.215 35.1428 66.215Z" fill="white"/>
<path d="M39.2837 66.215C40.4278 66.215 41.3552 67.1425 41.3552 68.2865C41.3552 69.4305 40.4278 70.3579 39.2837 70.3579C38.1397 70.3579 37.2123 69.4305 37.2123 68.2865C37.2123 67.1425 38.1397 66.215 39.2837 66.215Z" fill="white"/>
<path d="M43.4283 66.2145C44.5724 66.2145 45.4998 67.142 45.4998 68.286C45.4998 69.43 44.5724 70.3574 43.4283 70.3574C42.2843 70.3574 41.3569 69.43 41.3569 68.286C41.3569 67.142 42.2843 66.2145 43.4283 66.2145Z" fill="white"/>
<path d="M51.7137 66.2145C52.8578 66.2145 53.7852 67.142 53.7852 68.286C53.7852 69.43 52.8578 70.3574 51.7137 70.3574C50.5697 70.3574 49.6423 69.43 49.6423 68.286C49.6423 67.142 50.5697 66.2145 51.7137 66.2145Z" fill="white"/>
<path d="M55.8583 66.215C57.0024 66.215 57.9298 67.1425 57.9298 68.2865C57.9298 69.4305 57.0024 70.3579 55.8583 70.3579C54.7143 70.3579 53.7869 69.4305 53.7869 68.2865C53.7869 67.1425 54.7143 66.215 55.8583 66.215Z" fill="white"/>
<path d="M59.9993 66.215C61.1434 66.215 62.0707 67.1425 62.0707 68.2865C62.0707 69.4305 61.1434 70.3579 59.9993 70.3579C58.8553 70.3579 57.9279 69.4305 57.9279 68.2865C57.9279 67.1425 58.8553 66.215 59.9993 66.215Z" fill="white"/>
<path d="M72.4283 66.2145C73.5724 66.2145 74.4998 67.142 74.4998 68.286C74.4998 69.43 73.5724 70.3574 72.4283 70.3574C71.2843 70.3574 70.3569 69.43 70.3569 68.286C70.3569 67.142 71.2843 66.2145 72.4283 66.2145Z" fill="white"/>
<path d="M76.571 66.2145C77.7151 66.2145 78.6425 67.142 78.6425 68.286C78.6425 69.43 77.7151 70.3574 76.571 70.3574C75.427 70.3574 74.4996 69.43 74.4996 68.286C74.4996 67.142 75.427 66.2145 76.571 66.2145Z" fill="white"/>
<path d="M80.7137 66.2145C81.8578 66.2145 82.7852 67.142 82.7852 68.286C82.7852 69.43 81.8578 70.3574 80.7137 70.3574C79.5697 70.3574 78.6423 69.43 78.6423 68.286C78.6423 67.142 79.5697 66.2145 80.7137 66.2145Z" fill="white"/>
<path d="M88.9993 66.215C90.1434 66.215 91.0707 67.1425 91.0707 68.2865C91.0707 69.4305 90.1434 70.3579 88.9993 70.3579C87.8553 70.3579 86.9279 69.4305 86.9279 68.2865C86.9279 67.1425 87.8553 66.215 88.9993 66.215Z" fill="white"/>
<path d="M97.2837 66.215C98.4278 66.215 99.3552 67.1425 99.3552 68.2865C99.3552 69.4305 98.4278 70.3579 97.2837 70.3579C96.1397 70.3579 95.2123 69.4305 95.2123 68.2865C95.2123 67.1425 96.1397 66.215 97.2837 66.215Z" fill="white"/>
<path d="M105.571 66.2145C106.715 66.2145 107.642 67.142 107.642 68.286C107.642 69.43 106.715 70.3574 105.571 70.3574C104.427 70.3574 103.5 69.43 103.5 68.286C103.5 67.142 104.427 66.2145 105.571 66.2145Z" fill="white"/>
<path d="M109.714 66.2145C110.858 66.2145 111.785 67.142 111.785 68.286C111.785 69.43 110.858 70.3574 109.714 70.3574C108.57 70.3574 107.642 69.43 107.642 68.286C107.642 67.142 108.57 66.2145 109.714 66.2145Z" fill="white"/>
<path d="M10.2837 70.357C11.4278 70.357 12.3552 71.2845 12.3552 72.4285C12.3552 73.5725 11.4278 74.4999 10.2837 74.4999C9.13972 74.4999 8.2123 73.5725 8.2123 72.4285C8.2123 71.2845 9.13972 70.357 10.2837 70.357Z" fill="white"/>
<path d="M22.7137 70.3574C23.8578 70.3574 24.7852 71.2848 24.7852 72.4288C24.7852 73.5729 23.8578 74.5002 22.7137 74.5002C21.5697 74.5002 20.6423 73.5729 20.6423 72.4288C20.6423 71.2848 21.5697 70.3574 22.7137 70.3574Z" fill="white"/>
<path d="M30.9993 70.357C32.1434 70.357 33.0707 71.2845 33.0707 72.4285C33.0707 73.5725 32.1434 74.4999 30.9993 74.4999C29.8553 74.4999 28.9279 73.5725 28.9279 72.4285C28.9279 71.2845 29.8553 70.357 30.9993 70.357Z" fill="white"/>
<path d="M47.571 70.3574C48.7151 70.3574 49.6425 71.2848 49.6425 72.4288C49.6425 73.5729 48.7151 74.5002 47.571 74.5002C46.427 74.5002 45.4996 73.5729 45.4996 72.4288C45.4996 71.2848 46.427 70.3574 47.571 70.3574Z" fill="white"/>
<path d="M55.8583 70.357C57.0024 70.357 57.9298 71.2845 57.9298 72.4285C57.9298 73.5725 57.0024 74.4999 55.8583 74.4999C54.7143 74.4999 53.7869 73.5725 53.7869 72.4285C53.7869 71.2845 54.7143 70.357 55.8583 70.357Z" fill="white"/>
<path d="M68.2837 70.357C69.4278 70.357 70.3552 71.2845 70.3552 72.4285C70.3552 73.5725 69.4278 74.4999 68.2837 74.4999C67.1397 74.4999 66.2123 73.5725 66.2123 72.4285C66.2123 71.2845 67.1397 70.357 68.2837 70.357Z" fill="white"/>
<path d="M80.7137 70.3574C81.8578 70.3574 82.7852 71.2848 82.7852 72.4288C82.7852 73.5729 81.8578 74.5002 80.7137 74.5002C79.5697 74.5002 78.6423 73.5729 78.6423 72.4288C78.6423 71.2848 79.5697 70.3574 80.7137 70.3574Z" fill="white"/>
<path d="M97.2837 70.357C98.4278 70.357 99.3552 71.2845 99.3552 72.4285C99.3552 73.5725 98.4278 74.4999 97.2837 74.4999C96.1397 74.4999 95.2123 73.5725 95.2123 72.4285C95.2123 71.2845 96.1397 70.357 97.2837 70.357Z" fill="white"/>
<path d="M109.714 70.3574C110.858 70.3574 111.785 71.2848 111.785 72.4288C111.785 73.5729 110.858 74.5002 109.714 74.5002C108.57 74.5002 107.642 73.5729 107.642 72.4288C107.642 71.2848 108.57 70.3574 109.714 70.3574Z" fill="white"/>
<path d="M10.2837 74.5002C11.4278 74.5002 12.3552 75.4277 12.3552 76.5717C12.3552 77.7157 11.4278 78.6431 10.2837 78.6431C9.13972 78.6431 8.2123 77.7157 8.2123 76.5717C8.2123 75.4277 9.13972 74.5002 10.2837 74.5002Z" fill="white"/>
<path d="M18.571 74.5003C19.7151 74.5003 20.6425 75.4277 20.6425 76.5717C20.6425 77.7158 19.7151 78.6431 18.571 78.6431C17.427 78.6431 16.4996 77.7158 16.4996 76.5717C16.4996 75.4277 17.427 74.5003 18.571 74.5003Z" fill="white"/>
<path d="M30.9993 74.5002C32.1434 74.5002 33.0707 75.4277 33.0707 76.5717C33.0707 77.7157 32.1434 78.6431 30.9993 78.6431C29.8553 78.6431 28.9279 77.7157 28.9279 76.5717C28.9279 75.4277 29.8553 74.5002 30.9993 74.5002Z" fill="white"/>
<path d="M35.1428 74.5002C36.2868 74.5002 37.2142 75.4277 37.2142 76.5717C37.2142 77.7157 36.2868 78.6431 35.1428 78.6431C33.9987 78.6431 33.0713 77.7157 33.0713 76.5717C33.0713 75.4277 33.9987 74.5002 35.1428 74.5002Z" fill="white"/>
<path d="M43.4283 74.5003C44.5724 74.5003 45.4998 75.4277 45.4998 76.5717C45.4998 77.7158 44.5724 78.6431 43.4283 78.6431C42.2843 78.6431 41.3569 77.7158 41.3569 76.5717C41.3569 75.4277 42.2843 74.5003 43.4283 74.5003Z" fill="white"/>
<path d="M55.8583 74.5002C57.0024 74.5002 57.9298 75.4277 57.9298 76.5717C57.9298 77.7157 57.0024 78.6431 55.8583 78.6431C54.7143 78.6431 53.7869 77.7157 53.7869 76.5717C53.7869 75.4277 54.7143 74.5002 55.8583 74.5002Z" fill="white"/>
<path d="M72.4283 74.5003C73.5724 74.5003 74.4998 75.4277 74.4998 76.5717C74.4998 77.7158 73.5724 78.6431 72.4283 78.6431C71.2843 78.6431 70.3569 77.7158 70.3569 76.5717C70.3569 75.4277 71.2843 74.5003 72.4283 74.5003Z" fill="white"/>
<path d="M76.571 74.5003C77.7151 74.5003 78.6425 75.4277 78.6425 76.5717C78.6425 77.7158 77.7151 78.6431 76.571 78.6431C75.427 78.6431 74.4996 77.7158 74.4996 76.5717C74.4996 75.4277 75.427 74.5003 76.571 74.5003Z" fill="white"/>
<path d="M80.7137 74.5003C81.8578 74.5003 82.7852 75.4277 82.7852 76.5717C82.7852 77.7158 81.8578 78.6431 80.7137 78.6431C79.5697 78.6431 78.6423 77.7158 78.6423 76.5717C78.6423 75.4277 79.5697 74.5003 80.7137 74.5003Z" fill="white"/>
<path d="M84.8583 74.5002C86.0024 74.5002 86.9298 75.4277 86.9298 76.5717C86.9298 77.7157 86.0024 78.6431 84.8583 78.6431C83.7143 78.6431 82.7869 77.7157 82.7869 76.5717C82.7869 75.4277 83.7143 74.5002 84.8583 74.5002Z" fill="white"/>
<path d="M88.9993 74.5002C90.1434 74.5002 91.0707 75.4277 91.0707 76.5717C91.0707 77.7157 90.1434 78.6431 88.9993 78.6431C87.8553 78.6431 86.9279 77.7157 86.9279 76.5717C86.9279 75.4277 87.8553 74.5002 88.9993 74.5002Z" fill="white"/>
<path d="M93.1427 74.5002C94.2868 74.5002 95.2142 75.4277 95.2142 76.5717C95.2142 77.7157 94.2868 78.6431 93.1427 78.6431C91.9987 78.6431 91.0713 77.7157 91.0713 76.5717C91.0713 75.4277 91.9987 74.5002 93.1427 74.5002Z" fill="white"/>
<path d="M101.428 74.5003C102.572 74.5003 103.5 75.4277 103.5 76.5717C103.5 77.7158 102.572 78.6431 101.428 78.6431C100.284 78.6431 99.3569 77.7158 99.3569 76.5717C99.3569 75.4277 100.284 74.5003 101.428 74.5003Z" fill="white"/>
<path d="M43.4283 78.6431C44.5724 78.6431 45.4998 79.5705 45.4998 80.7145C45.4998 81.8586 44.5724 82.786 43.4283 82.786C42.2843 82.786 41.3569 81.8586 41.3569 80.7145C41.3569 79.5705 42.2843 78.6431 43.4283 78.6431Z" fill="white"/>
<path d="M47.571 78.6431C48.7151 78.6431 49.6425 79.5705 49.6425 80.7145C49.6425 81.8586 48.7151 82.786 47.571 82.786C46.427 82.786 45.4996 81.8586 45.4996 80.7145C45.4996 79.5705 46.427 78.6431 47.571 78.6431Z" fill="white"/>
<path d="M51.7137 78.6431C52.8578 78.6431 53.7852 79.5705 53.7852 80.7145C53.7852 81.8586 52.8578 82.786 51.7137 82.786C50.5697 82.786 49.6423 81.8586 49.6423 80.7145C49.6423 79.5705 50.5697 78.6431 51.7137 78.6431Z" fill="white"/>
<path d="M59.9993 78.6433C61.1434 78.6433 62.0707 79.5708 62.0707 80.7148C62.0707 81.8588 61.1434 82.7862 59.9993 82.7862C58.8553 82.7862 57.9279 81.8588 57.9279 80.7148C57.9279 79.5708 58.8553 78.6433 59.9993 78.6433Z" fill="white"/>
<path d="M64.1428 78.6433C65.2868 78.6433 66.2142 79.5708 66.2142 80.7148C66.2142 81.8588 65.2868 82.7862 64.1428 82.7862C62.9988 82.7862 62.0713 81.8588 62.0713 80.7148C62.0713 79.5708 62.9988 78.6433 64.1428 78.6433Z" fill="white"/>
<path d="M68.2837 78.6433C69.4278 78.6433 70.3552 79.5708 70.3552 80.7148C70.3552 81.8588 69.4278 82.7862 68.2837 82.7862C67.1397 82.7862 66.2123 81.8588 66.2123 80.7148C66.2123 79.5708 67.1397 78.6433 68.2837 78.6433Z" fill="white"/>
<path d="M72.4283 78.6431C73.5724 78.6431 74.4998 79.5705 74.4998 80.7145C74.4998 81.8586 73.5724 82.786 72.4283 82.786C71.2843 82.786 70.3569 81.8586 70.3569 80.7145C70.3569 79.5705 71.2843 78.6431 72.4283 78.6431Z" fill="white"/>
<path d="M76.571 78.6431C77.7151 78.6431 78.6425 79.5705 78.6425 80.7145C78.6425 81.8586 77.7151 82.786 76.571 82.786C75.427 82.786 74.4996 81.8586 74.4996 80.7145C74.4996 79.5705 75.427 78.6431 76.571 78.6431Z" fill="white"/>
<path d="M93.1427 78.6433C94.2868 78.6433 95.2142 79.5708 95.2142 80.7148C95.2142 81.8588 94.2868 82.7862 93.1427 82.7862C91.9987 82.7862 91.0713 81.8588 91.0713 80.7148C91.0713 79.5708 91.9987 78.6433 93.1427 78.6433Z" fill="white"/>
<path d="M97.2837 78.6433C98.4278 78.6433 99.3552 79.5708 99.3552 80.7148C99.3552 81.8588 98.4278 82.7862 97.2837 82.7862C96.1397 82.7862 95.2123 81.8588 95.2123 80.7148C95.2123 79.5708 96.1397 78.6433 97.2837 78.6433Z" fill="white"/>
<path d="M101.428 78.6431C102.572 78.6431 103.5 79.5705 103.5 80.7145C103.5 81.8586 102.572 82.786 101.428 82.786C100.284 82.786 99.3569 81.8586 99.3569 80.7145C99.3569 79.5705 100.284 78.6431 101.428 78.6431Z" fill="white"/>
<path d="M64.1428 82.7855C65.2868 82.7855 66.2142 83.7129 66.2142 84.8569C66.2142 86.001 65.2868 86.9283 64.1428 86.9283C62.9988 86.9283 62.0713 86.001 62.0713 84.8569C62.0713 83.7129 62.9988 82.7855 64.1428 82.7855Z" fill="white"/>
<path d="M68.2837 82.7855C69.4278 82.7855 70.3552 83.7129 70.3552 84.8569C70.3552 86.001 69.4278 86.9283 68.2837 86.9283C67.1397 86.9283 66.2123 86.001 66.2123 84.8569C66.2123 83.7129 67.1397 82.7855 68.2837 82.7855Z" fill="white"/>
<path d="M76.571 82.786C77.7151 82.786 78.6425 83.7134 78.6425 84.8574C78.6425 86.0015 77.7151 86.9288 76.571 86.9288C75.427 86.9288 74.4996 86.0015 74.4996 84.8574C74.4996 83.7134 75.427 82.786 76.571 82.786Z" fill="white"/>
<path d="M84.8583 82.7855C86.0024 82.7855 86.9298 83.7129 86.9298 84.8569C86.9298 86.001 86.0024 86.9283 84.8583 86.9283C83.7143 86.9283 82.7869 86.001 82.7869 84.8569C82.7869 83.7129 83.7143 82.7855 84.8583 82.7855Z" fill="white"/>
<path d="M93.1427 82.7855C94.2868 82.7855 95.2142 83.7129 95.2142 84.8569C95.2142 86.001 94.2868 86.9283 93.1427 86.9283C91.9987 86.9283 91.0713 86.001 91.0713 84.8569C91.0713 83.7129 91.9987 82.7855 93.1427 82.7855Z" fill="white"/>
<path d="M97.2837 82.7855C98.4278 82.7855 99.3552 83.7129 99.3552 84.8569C99.3552 86.001 98.4278 86.9283 97.2837 86.9283C96.1397 86.9283 95.2123 86.001 95.2123 84.8569C95.2123 83.7129 96.1397 82.7855 97.2837 82.7855Z" fill="white"/>
<path d="M101.428 82.786C102.572 82.786 103.5 83.7134 103.5 84.8574C103.5 86.0015 102.572 86.9288 101.428 86.9288C100.284 86.9288 99.3569 86.0015 99.3569 84.8574C99.3569 83.7134 100.284 82.786 101.428 82.786Z" fill="white"/>
<path d="M105.571 82.786C106.715 82.786 107.642 83.7134 107.642 84.8574C107.642 86.0015 106.715 86.9288 105.571 86.9288C104.427 86.9288 103.5 86.0015 103.5 84.8574C103.5 83.7134 104.427 82.786 105.571 82.786Z" fill="white"/>
<path d="M109.714 82.786C110.858 82.786 111.785 83.7134 111.785 84.8574C111.785 86.0015 110.858 86.9288 109.714 86.9288C108.57 86.9288 107.642 86.0015 107.642 84.8574C107.642 83.7134 108.57 82.786 109.714 82.786Z" fill="white"/>
<path d="M43.4283 86.9288C44.5724 86.9288 45.4998 87.8562 45.4998 89.0002C45.4998 90.1443 44.5724 91.0717 43.4283 91.0717C42.2843 91.0717 41.3569 90.1443 41.3569 89.0002C41.3569 87.8562 42.2843 86.9288 43.4283 86.9288Z" fill="white"/>
<path d="M47.571 86.9288C48.7151 86.9288 49.6425 87.8562 49.6425 89.0002C49.6425 90.1443 48.7151 91.0717 47.571 91.0717C46.427 91.0717 45.4996 90.1443 45.4996 89.0002C45.4996 87.8562 46.427 86.9288 47.571 86.9288Z" fill="white"/>
<path d="M51.7137 86.9288C52.8578 86.9288 53.7852 87.8562 53.7852 89.0002C53.7852 90.1443 52.8578 91.0717 51.7137 91.0717C50.5697 91.0717 49.6423 90.1443 49.6423 89.0002C49.6423 87.8562 50.5697 86.9288 51.7137 86.9288Z" fill="white"/>
<path d="M59.9993 86.9287C61.1434 86.9287 62.0707 87.8561 62.0707 89.0001C62.0707 90.1442 61.1434 91.0715 59.9993 91.0715C58.8553 91.0715 57.9279 90.1442 57.9279 89.0001C57.9279 87.8561 58.8553 86.9287 59.9993 86.9287Z" fill="white"/>
<path d="M64.1428 86.9287C65.2868 86.9287 66.2142 87.8561 66.2142 89.0001C66.2142 90.1442 65.2868 91.0715 64.1428 91.0715C62.9988 91.0715 62.0713 90.1442 62.0713 89.0001C62.0713 87.8561 62.9988 86.9287 64.1428 86.9287Z" fill="white"/>
<path d="M76.571 86.9288C77.7151 86.9288 78.6425 87.8562 78.6425 89.0002C78.6425 90.1443 77.7151 91.0717 76.571 91.0717C75.427 91.0717 74.4996 90.1443 74.4996 89.0002C74.4996 87.8562 75.427 86.9288 76.571 86.9288Z" fill="white"/>
<path d="M93.1427 86.9287C94.2868 86.9287 95.2142 87.8561 95.2142 89.0001C95.2142 90.1442 94.2868 91.0715 93.1427 91.0715C91.9987 91.0715 91.0713 90.1442 91.0713 89.0001C91.0713 87.8561 91.9987 86.9287 93.1427 86.9287Z" fill="white"/>
<path d="M97.2837 86.9287C98.4278 86.9287 99.3552 87.8561 99.3552 89.0001C99.3552 90.1442 98.4278 91.0715 97.2837 91.0715C96.1397 91.0715 95.2123 90.1442 95.2123 89.0001C95.2123 87.8561 96.1397 86.9287 97.2837 86.9287Z" fill="white"/>
<path d="M105.571 86.9288C106.715 86.9288 107.642 87.8562 107.642 89.0002C107.642 90.1443 106.715 91.0717 105.571 91.0717C104.427 91.0717 103.5 90.1443 103.5 89.0002C103.5 87.8562 104.427 86.9288 105.571 86.9288Z" fill="white"/>
<path d="M43.4283 91.0717C44.5724 91.0717 45.4998 91.9991 45.4998 93.1431C45.4998 94.2872 44.5724 95.2146 43.4283 95.2146C42.2843 95.2146 41.3569 94.2872 41.3569 93.1431C41.3569 91.9991 42.2843 91.0717 43.4283 91.0717Z" fill="white"/>
<path d="M47.571 91.0717C48.7151 91.0717 49.6425 91.9991 49.6425 93.1431C49.6425 94.2872 48.7151 95.2146 47.571 95.2146C46.427 95.2146 45.4996 94.2872 45.4996 93.1431C45.4996 91.9991 46.427 91.0717 47.571 91.0717Z" fill="white"/>
<path d="M51.7137 91.0717C52.8578 91.0717 53.7852 91.9991 53.7852 93.1431C53.7852 94.2872 52.8578 95.2146 51.7137 95.2146C50.5697 95.2146 49.6423 94.2872 49.6423 93.1431C49.6423 91.9991 50.5697 91.0717 51.7137 91.0717Z" fill="white"/>
<path d="M59.9993 91.0719C61.1434 91.0719 62.0707 91.9993 62.0707 93.1433C62.0707 94.2873 61.1434 95.2147 59.9993 95.2147C58.8553 95.2147 57.9279 94.2873 57.9279 93.1433C57.9279 91.9993 58.8553 91.0719 59.9993 91.0719Z" fill="white"/>
<path d="M68.2837 91.0719C69.4278 91.0719 70.3552 91.9993 70.3552 93.1433C70.3552 94.2873 69.4278 95.2147 68.2837 95.2147C67.1397 95.2147 66.2123 94.2873 66.2123 93.1433C66.2123 91.9993 67.1397 91.0719 68.2837 91.0719Z" fill="white"/>
<path d="M72.4283 91.0717C73.5724 91.0717 74.4998 91.9991 74.4998 93.1431C74.4998 94.2872 73.5724 95.2146 72.4283 95.2146C71.2843 95.2146 70.3569 94.2872 70.3569 93.1431C70.3569 91.9991 71.2843 91.0717 72.4283 91.0717Z" fill="white"/>
<path d="M76.571 91.0717C77.7151 91.0717 78.6425 91.9991 78.6425 93.1431C78.6425 94.2872 77.7151 95.2146 76.571 95.2146C75.427 95.2146 74.4996 94.2872 74.4996 93.1431C74.4996 91.9991 75.427 91.0717 76.571 91.0717Z" fill="white"/>
<path d="M80.7137 91.0717C81.8578 91.0717 82.7852 91.9991 82.7852 93.1431C82.7852 94.2872 81.8578 95.2146 80.7137 95.2146C79.5697 95.2146 78.6423 94.2872 78.6423 93.1431C78.6423 91.9991 79.5697 91.0717 80.7137 91.0717Z" fill="white"/>
<path d="M84.8583 91.0719C86.0024 91.0719 86.9298 91.9993 86.9298 93.1433C86.9298 94.2873 86.0024 95.2147 84.8583 95.2147C83.7143 95.2147 82.7869 94.2873 82.7869 93.1433C82.7869 91.9993 83.7143 91.0719 84.8583 91.0719Z" fill="white"/>
<path d="M88.9993 91.0719C90.1434 91.0719 91.0707 91.9993 91.0707 93.1433C91.0707 94.2873 90.1434 95.2147 88.9993 95.2147C87.8553 95.2147 86.9279 94.2873 86.9279 93.1433C86.9279 91.9993 87.8553 91.0719 88.9993 91.0719Z" fill="white"/>
<path d="M93.1427 91.0719C94.2868 91.0719 95.2142 91.9993 95.2142 93.1433C95.2142 94.2873 94.2868 95.2147 93.1427 95.2147C91.9987 95.2147 91.0713 94.2873 91.0713 93.1433C91.0713 91.9993 91.9987 91.0719 93.1427 91.0719Z" fill="white"/>
<path d="M97.2837 91.0719C98.4278 91.0719 99.3552 91.9993 99.3552 93.1433C99.3552 94.2873 98.4278 95.2147 97.2837 95.2147C96.1397 95.2147 95.2123 94.2873 95.2123 93.1433C95.2123 91.9993 96.1397 91.0719 97.2837 91.0719Z" fill="white"/>
<path d="M101.428 91.0717C102.572 91.0717 103.5 91.9991 103.5 93.1431C103.5 94.2872 102.572 95.2146 101.428 95.2146C100.284 95.2146 99.3569 94.2872 99.3569 93.1431C99.3569 91.9991 100.284 91.0717 101.428 91.0717Z" fill="white"/>
<path d="M109.714 91.0717C110.858 91.0717 111.785 91.9991 111.785 93.1431C111.785 94.2872 110.858 95.2146 109.714 95.2146C108.57 95.2146 107.642 94.2872 107.642 93.1431C107.642 91.9991 108.57 91.0717 109.714 91.0717Z" fill="white"/>
<path d="M43.4283 95.2145C44.5724 95.2145 45.4998 96.142 45.4998 97.286C45.4998 98.43 44.5724 99.3574 43.4283 99.3574C42.2843 99.3574 41.3569 98.43 41.3569 97.286C41.3569 96.142 42.2843 95.2145 43.4283 95.2145Z" fill="white"/>
<path d="M47.571 95.2145C48.7151 95.2145 49.6425 96.142 49.6425 97.286C49.6425 98.43 48.7151 99.3574 47.571 99.3574C46.427 99.3574 45.4996 98.43 45.4996 97.286C45.4996 96.142 46.427 95.2145 47.571 95.2145Z" fill="white"/>
<path d="M72.4283 95.2145C73.5724 95.2145 74.4998 96.142 74.4998 97.286C74.4998 98.43 73.5724 99.3574 72.4283 99.3574C71.2843 99.3574 70.3569 98.43 70.3569 97.286C70.3569 96.142 71.2843 95.2145 72.4283 95.2145Z" fill="white"/>
<path d="M76.571 95.2145C77.7151 95.2145 78.6425 96.142 78.6425 97.286C78.6425 98.43 77.7151 99.3574 76.571 99.3574C75.427 99.3574 74.4996 98.43 74.4996 97.286C74.4996 96.142 75.427 95.2145 76.571 95.2145Z" fill="white"/>
<path d="M80.7137 95.2145C81.8578 95.2145 82.7852 96.142 82.7852 97.286C82.7852 98.43 81.8578 99.3574 80.7137 99.3574C79.5697 99.3574 78.6423 98.43 78.6423 97.286C78.6423 96.142 79.5697 95.2145 80.7137 95.2145Z" fill="white"/>
<path d="M84.8583 95.215C86.0024 95.215 86.9298 96.1425 86.9298 97.2865C86.9298 98.4305 86.0024 99.3579 84.8583 99.3579C83.7143 99.3579 82.7869 98.4305 82.7869 97.2865C82.7869 96.1425 83.7143 95.215 84.8583 95.215Z" fill="white"/>
<path d="M88.9993 95.215C90.1434 95.215 91.0707 96.1425 91.0707 97.2865C91.0707 98.4305 90.1434 99.3579 88.9993 99.3579C87.8553 99.3579 86.9279 98.4305 86.9279 97.2865C86.9279 96.1425 87.8553 95.215 88.9993 95.215Z" fill="white"/>
<path d="M101.428 95.2145C102.572 95.2145 103.5 96.142 103.5 97.286C103.5 98.43 102.572 99.3574 101.428 99.3574C100.284 99.3574 99.3569 98.43 99.3569 97.286C99.3569 96.142 100.284 95.2145 101.428 95.2145Z" fill="white"/>
<path d="M105.571 95.2145C106.715 95.2145 107.642 96.142 107.642 97.286C107.642 98.43 106.715 99.3574 105.571 99.3574C104.427 99.3574 103.5 98.43 103.5 97.286C103.5 96.142 104.427 95.2145 105.571 95.2145Z" fill="white"/>
<path d="M109.714 95.2145C110.858 95.2145 111.785 96.142 111.785 97.286C111.785 98.43 110.858 99.3574 109.714 99.3574C108.57 99.3574 107.642 98.43 107.642 97.286C107.642 96.142 108.57 95.2145 109.714 95.2145Z" fill="white"/>
<path d="M43.4283 99.3574C44.5724 99.3574 45.4998 100.285 45.4998 101.429C45.4998 102.573 44.5724 103.5 43.4283 103.5C42.2843 103.5 41.3569 102.573 41.3569 101.429C41.3569 100.285 42.2843 99.3574 43.4283 99.3574Z" fill="white"/>
<path d="M47.571 99.3574C48.7151 99.3574 49.6425 100.285 49.6425 101.429C49.6425 102.573 48.7151 103.5 47.571 103.5C46.427 103.5 45.4996 102.573 45.4996 101.429C45.4996 100.285 46.427 99.3574 47.571 99.3574Z" fill="white"/>
<path d="M55.8583 99.357C57.0024 99.357 57.9298 100.284 57.9298 101.428C57.9298 102.573 57.0024 103.5 55.8583 103.5C54.7143 103.5 53.7869 102.573 53.7869 101.428C53.7869 100.284 54.7143 99.357 55.8583 99.357Z" fill="white"/>
<path d="M59.9993 99.357C61.1434 99.357 62.0707 100.284 62.0707 101.428C62.0707 102.573 61.1434 103.5 59.9993 103.5C58.8553 103.5 57.9279 102.573 57.9279 101.428C57.9279 100.284 58.8553 99.357 59.9993 99.357Z" fill="white"/>
<path d="M76.571 99.3574C77.7151 99.3574 78.6425 100.285 78.6425 101.429C78.6425 102.573 77.7151 103.5 76.571 103.5C75.427 103.5 74.4996 102.573 74.4996 101.429C74.4996 100.285 75.427 99.3574 76.571 99.3574Z" fill="white"/>
<path d="M80.7137 99.3574C81.8578 99.3574 82.7852 100.285 82.7852 101.429C82.7852 102.573 81.8578 103.5 80.7137 103.5C79.5697 103.5 78.6423 102.573 78.6423 101.429C78.6423 100.285 79.5697 99.3574 80.7137 99.3574Z" fill="white"/>
<path d="M88.9993 99.357C90.1434 99.357 91.0707 100.284 91.0707 101.428C91.0707 102.573 90.1434 103.5 88.9993 103.5C87.8553 103.5 86.9279 102.573 86.9279 101.428C86.9279 100.284 87.8553 99.357 88.9993 99.357Z" fill="white"/>
<path d="M101.428 99.3574C102.572 99.3574 103.5 100.285 103.5 101.429C103.5 102.573 102.572 103.5 101.428 103.5C100.284 103.5 99.3569 102.573 99.3569 101.429C99.3569 100.285 100.284 99.3574 101.428 99.3574Z" fill="white"/>
<path d="M109.714 99.3574C110.858 99.3574 111.785 100.285 111.785 101.429C111.785 102.573 110.858 103.5 109.714 103.5C108.57 103.5 107.642 102.573 107.642 101.429C107.642 100.285 108.57 99.3574 109.714 99.3574Z" fill="white"/>
<path d="M47.571 103.5C48.7151 103.5 49.6425 104.428 49.6425 105.572C49.6425 106.716 48.7151 107.643 47.571 107.643C46.427 107.643 45.4996 106.716 45.4996 105.572C45.4996 104.428 46.427 103.5 47.571 103.5Z" fill="white"/>
<path d="M55.8583 103.5C57.0024 103.5 57.9298 104.428 57.9298 105.572C57.9298 106.716 57.0024 107.643 55.8583 107.643C54.7143 107.643 53.7869 106.716 53.7869 105.572C53.7869 104.428 54.7143 103.5 55.8583 103.5Z" fill="white"/>
<path d="M68.2837 103.5C69.4278 103.5 70.3552 104.428 70.3552 105.572C70.3552 106.716 69.4278 107.643 68.2837 107.643C67.1397 107.643 66.2123 106.716 66.2123 105.572C66.2123 104.428 67.1397 103.5 68.2837 103.5Z" fill="white"/>
<path d="M72.4283 103.5C73.5724 103.5 74.4998 104.428 74.4998 105.572C74.4998 106.716 73.5724 107.643 72.4283 107.643C71.2843 107.643 70.3569 106.716 70.3569 105.572C70.3569 104.428 71.2843 103.5 72.4283 103.5Z" fill="white"/>
<path d="M76.571 103.5C77.7151 103.5 78.6425 104.428 78.6425 105.572C78.6425 106.716 77.7151 107.643 76.571 107.643C75.427 107.643 74.4996 106.716 74.4996 105.572C74.4996 104.428 75.427 103.5 76.571 103.5Z" fill="white"/>
<path d="M88.9993 103.5C90.1434 103.5 91.0707 104.428 91.0707 105.572C91.0707 106.716 90.1434 107.643 88.9993 107.643C87.8553 107.643 86.9279 106.716 86.9279 105.572C86.9279 104.428 87.8553 103.5 88.9993 103.5Z" fill="white"/>
<path d="M93.1427 103.5C94.2868 103.5 95.2142 104.428 95.2142 105.572C95.2142 106.716 94.2868 107.643 93.1427 107.643C91.9987 107.643 91.0713 106.716 91.0713 105.572C91.0713 104.428 91.9987 103.5 93.1427 103.5Z" fill="white"/>
<path d="M97.2837 103.5C98.4278 103.5 99.3552 104.428 99.3552 105.572C99.3552 106.716 98.4278 107.643 97.2837 107.643C96.1397 107.643 95.2123 106.716 95.2123 105.572C95.2123 104.428 96.1397 103.5 97.2837 103.5Z" fill="white"/>
<path d="M109.714 103.5C110.858 103.5 111.785 104.428 111.785 105.572C111.785 106.716 110.858 107.643 109.714 107.643C108.57 107.643 107.642 106.716 107.642 105.572C107.642 104.428 108.57 103.5 109.714 103.5Z" fill="white"/>
<path d="M43.4283 107.643C44.5724 107.643 45.4998 108.571 45.4998 109.715C45.4998 110.859 44.5724 111.786 43.4283 111.786C42.2843 111.786 41.3569 110.859 41.3569 109.715C41.3569 108.571 42.2843 107.643 43.4283 107.643Z" fill="white"/>
<path d="M47.571 107.643C48.7151 107.643 49.6425 108.571 49.6425 109.715C49.6425 110.859 48.7151 111.786 47.571 111.786C46.427 111.786 45.4996 110.859 45.4996 109.715C45.4996 108.571 46.427 107.643 47.571 107.643Z" fill="white"/>
<path d="M55.8583 107.643C57.0024 107.643 57.9298 108.571 57.9298 109.715C57.9298 110.859 57.0024 111.786 55.8583 111.786C54.7143 111.786 53.7869 110.859 53.7869 109.715C53.7869 108.571 54.7143 107.643 55.8583 107.643Z" fill="white"/>
<path d="M72.4283 107.643C73.5724 107.643 74.4998 108.571 74.4998 109.715C74.4998 110.859 73.5724 111.786 72.4283 111.786C71.2843 111.786 70.3569 110.859 70.3569 109.715C70.3569 108.571 71.2843 107.643 72.4283 107.643Z" fill="white"/>
<path d="M84.8583 107.643C86.0024 107.643 86.9298 108.571 86.9298 109.715C86.9298 110.859 86.0024 111.786 84.8583 111.786C83.7143 111.786 82.7869 110.859 82.7869 109.715C82.7869 108.571 83.7143 107.643 84.8583 107.643Z" fill="white"/>
<path d="M88.9993 107.643C90.1434 107.643 91.0707 108.571 91.0707 109.715C91.0707 110.859 90.1434 111.786 88.9993 111.786C87.8553 111.786 86.9279 110.859 86.9279 109.715C86.9279 108.571 87.8553 107.643 88.9993 107.643Z" fill="white"/>
<path d="M93.1427 107.643C94.2868 107.643 95.2142 108.571 95.2142 109.715C95.2142 110.859 94.2868 111.786 93.1427 111.786C91.9987 111.786 91.0713 110.859 91.0713 109.715C91.0713 108.571 91.9987 107.643 93.1427 107.643Z" fill="white"/>
<path d="M97.2837 107.643C98.4278 107.643 99.3552 108.571 99.3552 109.715C99.3552 110.859 98.4278 111.786 97.2837 111.786C96.1397 111.786 95.2123 110.859 95.2123 109.715C95.2123 108.571 96.1397 107.643 97.2837 107.643Z" fill="white"/>
<path d="M101.428 107.643C102.572 107.643 103.5 108.571 103.5 109.715C103.5 110.859 102.572 111.786 101.428 111.786C100.284 111.786 99.3569 110.859 99.3569 109.715C99.3569 108.571 100.284 107.643 101.428 107.643Z" fill="white"/>
<path d="M105.571 107.643C106.715 107.643 107.642 108.571 107.642 109.715C107.642 110.859 106.715 111.786 105.571 111.786C104.427 111.786 103.5 110.859 103.5 109.715C103.5 108.571 104.427 107.643 105.571 107.643Z" fill="white"/>
<path d="M109.714 107.643C110.858 107.643 111.785 108.571 111.785 109.715C111.785 110.859 110.858 111.786 109.714 111.786C108.57 111.786 107.642 110.859 107.642 109.715C107.642 108.571 108.57 107.643 109.714 107.643Z" fill="white"/>
<path d="M27.311 8.21652H18.1128C13.63 8.21652 9.83214 11.1783 8.61791 15.2264C8.49234 15.6452 8.39432 16.0755 8.32617 16.5155C8.25106 17.0009 8.21191 17.498 8.21191 18.004V27.4206C8.21191 32.8201 12.6547 37.211 18.1128 37.211L22.7119 37.2119L27.311 37.2107C32.7688 37.2107 37.2119 32.8198 37.2119 27.4203V18.004C37.2119 12.6071 32.7691 8.21652 27.311 8.21652ZM32.8619 27.4206C32.8619 30.4204 30.372 32.861 27.3099 32.861L22.7119 32.8619L18.114 32.8607C15.0519 32.8607 12.5619 30.4201 12.5619 27.4206V18.004C12.5619 17.067 12.8049 16.1849 13.2327 15.414C13.6445 14.6725 14.2271 14.0348 14.9286 13.5519C15.8305 12.9311 16.9287 12.5665 18.1125 12.5665H27.311C30.372 12.5665 32.8619 15.0057 32.8619 18.004V27.4206Z" fill="white"/>
<path d="M101.886 8.21652H92.6882C88.2054 8.21652 84.4075 11.1783 83.1933 15.2264C83.0677 15.6452 82.9697 16.0755 82.9016 16.5155C82.8265 17.0009 82.7873 17.498 82.7873 18.004V27.4206C82.7873 32.8201 87.2301 37.211 92.6882 37.211L97.2873 37.2119L101.886 37.2107C107.344 37.2107 111.787 32.8198 111.787 27.4203V18.004C111.787 12.6071 107.345 8.21652 101.886 8.21652ZM107.437 27.4206C107.437 30.4204 104.947 32.861 101.885 32.861L97.2873 32.8619L92.6894 32.8607C89.6272 32.8607 87.1373 30.4201 87.1373 27.4206V18.004C87.1373 17.067 87.3803 16.1849 87.8081 15.414C88.2199 14.6725 88.8025 14.0348 89.504 13.5519C90.4059 12.9311 91.5041 12.5665 92.6879 12.5665H101.886C104.947 12.5665 107.437 15.0057 107.437 18.004V27.4206Z" fill="white"/>
<path d="M27.311 82.7883H18.1128C13.63 82.7883 9.83214 85.75 8.61791 89.7981C8.49234 90.2169 8.39432 90.6473 8.32617 91.0872C8.25106 91.5727 8.21191 92.0697 8.21191 92.5758V101.992C8.21191 107.392 12.6547 111.783 18.1128 111.783L22.7119 111.784L27.311 111.782C32.7688 111.782 37.2119 107.392 37.2119 101.992V92.5758C37.2119 87.1789 32.7691 82.7883 27.311 82.7883ZM32.8619 101.992C32.8619 104.992 30.372 107.433 27.3099 107.433L22.7119 107.434L18.114 107.432C15.0519 107.432 12.5619 104.992 12.5619 101.992V92.5758C12.5619 91.6388 12.8049 90.7566 13.2327 89.9858C13.6445 89.2442 14.2271 88.6065 14.9286 88.1237C15.8305 87.5028 16.9287 87.1383 18.1125 87.1383H27.311C30.372 87.1383 32.8619 89.5775 32.8619 92.5758V101.992Z" fill="white"/>
<path d="M28.9282 16.5003H16.4996V28.9289H28.9282V16.5003Z" fill="white"/>
<path d="M103.5 16.5002H91.0713V28.9288H103.5V16.5002Z" fill="white"/>
<path d="M28.9282 91.0717H16.4996V103.5H28.9282V91.0717Z" fill="white"/>
<rect y="124" width="120" height="28" fill="#4094F7"/>
<path d="M33.784 145.192C32.824 145.192 32.008 145.021 31.336 144.68C30.6747 144.339 30.104 143.891 29.624 143.336L31.048 141.96C31.432 142.408 31.8587 142.749 32.328 142.984C32.808 143.219 33.336 143.336 33.912 143.336C34.5627 143.336 35.0533 143.197 35.384 142.92C35.7147 142.632 35.88 142.248 35.88 141.768C35.88 141.395 35.7733 141.091 35.56 140.856C35.3467 140.621 34.9467 140.451 34.36 140.344L33.304 140.184C31.0747 139.832 29.96 138.749 29.96 136.936C29.96 136.435 30.0507 135.981 30.232 135.576C30.424 135.171 30.696 134.824 31.048 134.536C31.4 134.248 31.8213 134.029 32.312 133.88C32.8133 133.72 33.3787 133.64 34.008 133.64C34.8507 133.64 35.5867 133.779 36.216 134.056C36.8453 134.333 37.384 134.744 37.832 135.288L36.392 136.648C36.1147 136.307 35.7787 136.029 35.384 135.816C34.9893 135.603 34.4933 135.496 33.896 135.496C33.288 135.496 32.8293 135.613 32.52 135.848C32.2213 136.072 32.072 136.392 32.072 136.808C32.072 137.235 32.1947 137.549 32.44 137.752C32.6853 137.955 33.08 138.104 33.624 138.2L34.664 138.392C35.7947 138.595 36.6267 138.957 37.16 139.48C37.704 139.992 37.976 140.712 37.976 141.64C37.976 142.173 37.88 142.659 37.688 143.096C37.5067 143.523 37.2347 143.896 36.872 144.216C36.52 144.525 36.0827 144.765 35.56 144.936C35.048 145.107 34.456 145.192 33.784 145.192ZM43.2613 145.192C42.6426 145.192 42.0933 145.091 41.6133 144.888C41.1332 144.685 40.7279 144.392 40.3973 144.008C40.0773 143.624 39.8319 143.165 39.6613 142.632C39.4906 142.088 39.4053 141.48 39.4053 140.808C39.4053 140.136 39.4906 139.533 39.6613 139C39.8319 138.467 40.0773 138.013 40.3973 137.64C40.7279 137.256 41.1332 136.963 41.6133 136.76C42.0933 136.557 42.6426 136.456 43.2613 136.456C44.1039 136.456 44.7973 136.643 45.3413 137.016C45.8959 137.389 46.2959 137.907 46.5413 138.568L44.8613 139.32C44.7653 138.968 44.5839 138.68 44.3173 138.456C44.0613 138.221 43.7093 138.104 43.2613 138.104C42.6853 138.104 42.2533 138.285 41.9653 138.648C41.6879 139.011 41.5493 139.485 41.5493 140.072V141.592C41.5493 142.179 41.6879 142.653 41.9653 143.016C42.2533 143.368 42.6853 143.544 43.2613 143.544C43.7519 143.544 44.1306 143.421 44.3973 143.176C44.6639 142.92 44.8719 142.605 45.0213 142.232L46.5893 142.984C46.3119 143.72 45.8906 144.275 45.3253 144.648C44.7599 145.011 44.0719 145.192 43.2613 145.192ZM54.3124 145C53.8644 145 53.507 144.872 53.2404 144.616C52.9844 144.349 52.8244 143.997 52.7604 143.56H52.6644C52.5257 144.104 52.243 144.515 51.8164 144.792C51.3897 145.059 50.8617 145.192 50.2324 145.192C49.379 145.192 48.723 144.968 48.2644 144.52C47.8057 144.072 47.5764 143.475 47.5764 142.728C47.5764 141.864 47.8857 141.224 48.5044 140.808C49.123 140.381 50.003 140.168 51.1444 140.168H52.5684V139.56C52.5684 139.091 52.4457 138.728 52.2004 138.472C51.955 138.216 51.5604 138.088 51.0164 138.088C50.5364 138.088 50.147 138.195 49.8484 138.408C49.5604 138.611 49.315 138.856 49.1124 139.144L47.8964 138.056C48.2057 137.576 48.6164 137.192 49.1284 136.904C49.6404 136.605 50.3177 136.456 51.1604 136.456C52.291 136.456 53.1497 136.712 53.7364 137.224C54.323 137.736 54.6164 138.472 54.6164 139.432V143.368H55.4484V145H54.3124ZM50.9204 143.704C51.379 143.704 51.7684 143.603 52.0884 143.4C52.4084 143.197 52.5684 142.899 52.5684 142.504V141.4H51.2564C50.1897 141.4 49.6564 141.741 49.6564 142.424V142.696C49.6564 143.037 49.763 143.293 49.9764 143.464C50.2004 143.624 50.515 143.704 50.9204 143.704ZM57.1059 145V136.648H59.1539V138.04H59.2339C59.4045 137.592 59.6712 137.219 60.0339 136.92C60.4072 136.611 60.9192 136.456 61.5699 136.456C62.4339 136.456 63.0952 136.739 63.5539 137.304C64.0125 137.869 64.2419 138.675 64.2419 139.72V145H62.1939V139.928C62.1939 139.331 62.0872 138.883 61.8739 138.584C61.6605 138.285 61.3085 138.136 60.8179 138.136C60.6045 138.136 60.3965 138.168 60.1939 138.232C60.0019 138.285 59.8259 138.371 59.6659 138.488C59.5165 138.595 59.3939 138.733 59.2979 138.904C59.2019 139.064 59.1539 139.256 59.1539 139.48V145H57.1059ZM78.8534 136.984H78.7894L77.9254 138.76L75.6374 142.984L73.3494 138.76L72.4854 136.984H72.4214V145H70.4214V133.832H72.8054L75.6694 139.288H75.7334L78.5654 133.832H80.8534V145H78.8534V136.984ZM86.7319 145.192C86.1132 145.192 85.5585 145.091 85.0679 144.888C84.5879 144.675 84.1772 144.381 83.8359 144.008C83.5052 143.624 83.2492 143.165 83.0679 142.632C82.8865 142.088 82.7959 141.48 82.7959 140.808C82.7959 140.147 82.8812 139.549 83.0519 139.016C83.2332 138.483 83.4892 138.029 83.8199 137.656C84.1505 137.272 84.5559 136.979 85.0359 136.776C85.5159 136.563 86.0599 136.456 86.6679 136.456C87.3185 136.456 87.8839 136.568 88.3639 136.792C88.8439 137.016 89.2385 137.32 89.5479 137.704C89.8572 138.088 90.0865 138.536 90.2359 139.048C90.3959 139.549 90.4759 140.088 90.4759 140.664V141.336H84.9239V141.544C84.9239 142.152 85.0945 142.643 85.4359 143.016C85.7772 143.379 86.2839 143.56 86.9559 143.56C87.4679 143.56 87.8839 143.453 88.2039 143.24C88.5345 143.027 88.8279 142.755 89.0839 142.424L90.1879 143.656C89.8465 144.136 89.3772 144.515 88.7799 144.792C88.1932 145.059 87.5105 145.192 86.7319 145.192ZM86.6999 137.992C86.1559 137.992 85.7239 138.173 85.4039 138.536C85.0839 138.899 84.9239 139.368 84.9239 139.944V140.072H88.3479V139.928C88.3479 139.352 88.2039 138.888 87.9159 138.536C87.6385 138.173 87.2332 137.992 86.6999 137.992Z" fill="white"/>
<path d="M59.5 119L54 124.5H65L59.5 119Z" fill="#4094F7"/>
<rect x="45" y="38" width="35" height="35" rx="17.5" fill="#4094F7"/>
<path d="M72.0669 55.7905C72.0669 50.6042 67.8884 46.4 62.7347 46.4C57.5787 46.4012 53.4002 50.6042 53.4002 55.7917C53.4002 60.4776 56.8135 64.3621 61.2742 65.0667V58.505H58.9062V55.7917H61.2766V53.7211C61.2766 51.3682 62.6706 50.0687 64.8018 50.0687C65.8237 50.0687 66.891 50.2519 66.891 50.2519V52.5616H65.714C64.5557 52.5616 64.194 53.286 64.194 54.0291V55.7905H66.7814L66.3684 58.5038H64.1929V65.0655C68.6536 64.3609 72.0669 60.4764 72.0669 55.7905Z" fill="white"/>
</svg>
