<svg width="120" height="152" viewBox="0 0 120 152" fill="none" xmlns="http://www.w3.org/2000/svg">
<rect x="0.5" y="0.5" width="119" height="119" rx="4.5" fill="white" stroke="#303038"/>
<path d="M47.3591 9C48.5032 9 49.4306 9.92742 49.4306 11.0714C49.4306 12.2155 48.5032 13.1429 47.3591 13.1429C46.2151 13.1429 45.2877 12.2155 45.2877 11.0714C45.2877 9.92742 46.2151 9 47.3591 9Z" fill="#303038"/>
<path d="M55.6464 9.0005C56.7905 9.0005 57.7179 9.92792 57.7179 11.0719C57.7179 12.216 56.7905 13.1434 55.6464 13.1434C54.5024 13.1434 53.575 12.216 53.575 11.0719C53.575 9.92792 54.5024 9.0005 55.6464 9.0005Z" fill="#303038"/>
<path d="M76.3591 9C77.5032 9 78.4306 9.92742 78.4306 11.0714C78.4306 12.2155 77.5032 13.1429 76.3591 13.1429C75.2151 13.1429 74.2877 12.2155 74.2877 11.0714C74.2877 9.92742 75.2151 9 76.3591 9Z" fill="#303038"/>
<path d="M47.3591 13.1428C48.5032 13.1428 49.4306 14.0703 49.4306 15.2143C49.4306 16.3583 48.5032 17.2857 47.3591 17.2857C46.2151 17.2857 45.2877 16.3583 45.2877 15.2143C45.2877 14.0703 46.2151 13.1428 47.3591 13.1428Z" fill="#303038"/>
<path d="M55.6464 13.1425C56.7905 13.1425 57.7179 14.0699 57.7179 15.2139C57.7179 16.358 56.7905 17.2854 55.6464 17.2854C54.5024 17.2854 53.575 16.358 53.575 15.2139C53.575 14.0699 54.5024 13.1425 55.6464 13.1425Z" fill="#303038"/>
<path d="M72.2164 13.1428C73.3605 13.1428 74.2879 14.0703 74.2879 15.2143C74.2879 16.3583 73.3605 17.2857 72.2164 17.2857C71.0724 17.2857 70.145 16.3583 70.145 15.2143C70.145 14.0703 71.0724 13.1428 72.2164 13.1428Z" fill="#303038"/>
<path d="M43.2164 17.2858C44.3605 17.2858 45.2879 18.2132 45.2879 19.3572C45.2879 20.5012 44.3605 21.4286 43.2164 21.4286C42.0724 21.4286 41.145 20.5012 41.145 19.3572C41.145 18.2132 42.0724 17.2858 43.2164 17.2858Z" fill="#303038"/>
<path d="M51.5018 17.2858C52.6459 17.2858 53.5733 18.2132 53.5733 19.3572C53.5733 20.5012 52.6459 21.4286 51.5018 21.4286C50.3578 21.4286 49.4304 20.5012 49.4304 19.3572C49.4304 18.2132 50.3578 17.2858 51.5018 17.2858Z" fill="#303038"/>
<path d="M68.0718 17.2857C69.2159 17.2857 70.1433 18.2131 70.1433 19.3571C70.1433 20.5012 69.2159 21.4286 68.0718 21.4286C66.9278 21.4286 66.0004 20.5012 66.0004 19.3571C66.0004 18.2131 66.9278 17.2857 68.0718 17.2857Z" fill="#303038"/>
<path d="M76.3591 17.2858C77.5032 17.2858 78.4306 18.2132 78.4306 19.3572C78.4306 20.5012 77.5032 21.4286 76.3591 21.4286C75.2151 21.4286 74.2877 20.5012 74.2877 19.3572C74.2877 18.2132 75.2151 17.2858 76.3591 17.2858Z" fill="#303038"/>
<path d="M43.2164 21.4286C44.3605 21.4286 45.2879 22.356 45.2879 23.5C45.2879 24.6441 44.3605 25.5714 43.2164 25.5714C42.0724 25.5714 41.145 24.6441 41.145 23.5C41.145 22.356 42.0724 21.4286 43.2164 21.4286Z" fill="#303038"/>
<path d="M47.3591 21.4286C48.5032 21.4286 49.4306 22.356 49.4306 23.5C49.4306 24.6441 48.5032 25.5714 47.3591 25.5714C46.2151 25.5714 45.2877 24.6441 45.2877 23.5C45.2877 22.356 46.2151 21.4286 47.3591 21.4286Z" fill="#303038"/>
<path d="M51.5018 21.4286C52.6459 21.4286 53.5733 22.356 53.5733 23.5C53.5733 24.6441 52.6459 25.5714 51.5018 25.5714C50.3578 25.5714 49.4304 24.6441 49.4304 23.5C49.4304 22.356 50.3578 21.4286 51.5018 21.4286Z" fill="#303038"/>
<path d="M63.9308 21.4288C65.0749 21.4288 66.0023 22.3562 66.0023 23.5002C66.0023 24.6443 65.0749 25.5717 63.9308 25.5717C62.7868 25.5717 61.8594 24.6443 61.8594 23.5002C61.8594 22.3562 62.7868 21.4288 63.9308 21.4288Z" fill="#303038"/>
<path d="M68.0718 21.4288C69.2159 21.4288 70.1433 22.3562 70.1433 23.5002C70.1433 24.6443 69.2159 25.5717 68.0718 25.5717C66.9278 25.5717 66.0004 24.6443 66.0004 23.5002C66.0004 22.3562 66.9278 21.4288 68.0718 21.4288Z" fill="#303038"/>
<path d="M43.2164 25.5714C44.3605 25.5714 45.2879 26.4988 45.2879 27.6428C45.2879 28.7869 44.3605 29.7143 43.2164 29.7143C42.0724 29.7143 41.145 28.7869 41.145 27.6428C41.145 26.4988 42.0724 25.5714 43.2164 25.5714Z" fill="#303038"/>
<path d="M59.7874 25.5709C60.9315 25.5709 61.8588 26.4983 61.8588 27.6424C61.8588 28.7864 60.9315 29.7138 59.7874 29.7138C58.6434 29.7138 57.716 28.7864 57.716 27.6424C57.716 26.4983 58.6434 25.5709 59.7874 25.5709Z" fill="#303038"/>
<path d="M68.0718 25.5709C69.2159 25.5709 70.1433 26.4983 70.1433 27.6424C70.1433 28.7864 69.2159 29.7138 68.0718 29.7138C66.9278 29.7138 66.0004 28.7864 66.0004 27.6424C66.0004 26.4983 66.9278 25.5709 68.0718 25.5709Z" fill="#303038"/>
<path d="M43.2164 29.7143C44.3605 29.7143 45.2879 30.6417 45.2879 31.7857C45.2879 32.9298 44.3605 33.8571 43.2164 33.8571C42.0724 33.8571 41.145 32.9298 41.145 31.7857C41.145 30.6417 42.0724 29.7143 43.2164 29.7143Z" fill="#303038"/>
<path d="M47.3591 29.7143C48.5032 29.7143 49.4306 30.6417 49.4306 31.7857C49.4306 32.9298 48.5032 33.8571 47.3591 33.8571C46.2151 33.8571 45.2877 32.9298 45.2877 31.7857C45.2877 30.6417 46.2151 29.7143 47.3591 29.7143Z" fill="#303038"/>
<path d="M51.5018 29.7143C52.6459 29.7143 53.5733 30.6417 53.5733 31.7857C53.5733 32.9298 52.6459 33.8571 51.5018 33.8571C50.3578 33.8571 49.4304 32.9298 49.4304 31.7857C49.4304 30.6417 50.3578 29.7143 51.5018 29.7143Z" fill="#303038"/>
<path d="M68.0718 29.7141C69.2159 29.7141 70.1433 30.6415 70.1433 31.7855C70.1433 32.9296 69.2159 33.857 68.0718 33.857C66.9278 33.857 66.0004 32.9296 66.0004 31.7855C66.0004 30.6415 66.9278 29.7141 68.0718 29.7141Z" fill="#303038"/>
<path d="M72.2164 29.7143C73.3605 29.7143 74.2879 30.6417 74.2879 31.7857C74.2879 32.9298 73.3605 33.8571 72.2164 33.8571C71.0724 33.8571 70.145 32.9298 70.145 31.7857C70.145 30.6417 71.0724 29.7143 72.2164 29.7143Z" fill="#303038"/>
<path d="M76.3591 29.7143C77.5032 29.7143 78.4306 30.6417 78.4306 31.7857C78.4306 32.9298 77.5032 33.8571 76.3591 33.8571C75.2151 33.8571 74.2877 32.9298 74.2877 31.7857C74.2877 30.6417 75.2151 29.7143 76.3591 29.7143Z" fill="#303038"/>
<path d="M43.2164 33.8572C44.3605 33.8572 45.2879 34.7846 45.2879 35.9286C45.2879 37.0727 44.3605 38 43.2164 38C42.0724 38 41.145 37.0727 41.145 35.9286C41.145 34.7846 42.0724 33.8572 43.2164 33.8572Z" fill="#303038"/>
<path d="M51.5018 33.8572C52.6459 33.8572 53.5733 34.7846 53.5733 35.9286C53.5733 37.0727 52.6459 38 51.5018 38C50.3578 38 49.4304 37.0727 49.4304 35.9286C49.4304 34.7846 50.3578 33.8572 51.5018 33.8572Z" fill="#303038"/>
<path d="M59.7874 33.8573C60.9315 33.8573 61.8588 34.7847 61.8588 35.9287C61.8588 37.0728 60.9315 38.0002 59.7874 38.0002C58.6434 38.0002 57.716 37.0728 57.716 35.9287C57.716 34.7847 58.6434 33.8573 59.7874 33.8573Z" fill="#303038"/>
<path d="M68.0718 33.8573C69.2159 33.8573 70.1433 34.7847 70.1433 35.9287C70.1433 37.0728 69.2159 38.0002 68.0718 38.0002C66.9278 38.0002 66.0004 37.0728 66.0004 35.9287C66.0004 34.7847 66.9278 33.8573 68.0718 33.8573Z" fill="#303038"/>
<path d="M76.3591 33.8572C77.5032 33.8572 78.4306 34.7846 78.4306 35.9286C78.4306 37.0727 77.5032 38 76.3591 38C75.2151 38 74.2877 37.0727 74.2877 35.9286C74.2877 34.7846 75.2151 33.8572 76.3591 33.8572Z" fill="#303038"/>
<path d="M43.2164 38C44.3605 38 45.2879 38.9274 45.2879 40.0714C45.2879 41.2155 44.3605 42.1429 43.2164 42.1429C42.0724 42.1429 41.145 41.2155 41.145 40.0714C41.145 38.9274 42.0724 38 43.2164 38Z" fill="#303038"/>
<path d="M51.5018 38C52.6459 38 53.5733 38.9274 53.5733 40.0714C53.5733 41.2155 52.6459 42.1429 51.5018 42.1429C50.3578 42.1429 49.4304 41.2155 49.4304 40.0714C49.4304 38.9274 50.3578 38 51.5018 38Z" fill="#303038"/>
<path d="M59.7874 38.0005C60.9315 38.0005 61.8588 38.9279 61.8588 40.0719C61.8588 41.216 60.9315 42.1434 59.7874 42.1434C58.6434 42.1434 57.716 41.216 57.716 40.0719C57.716 38.9279 58.6434 38.0005 59.7874 38.0005Z" fill="#303038"/>
<path d="M68.0718 38.0005C69.2159 38.0005 70.1433 38.9279 70.1433 40.0719C70.1433 41.216 69.2159 42.1434 68.0718 42.1434C66.9278 42.1434 66.0004 41.216 66.0004 40.0719C66.0004 38.9279 66.9278 38.0005 68.0718 38.0005Z" fill="#303038"/>
<path d="M72.2164 38C73.3605 38 74.2879 38.9274 74.2879 40.0714C74.2879 41.2155 73.3605 42.1429 72.2164 42.1429C71.0724 42.1429 70.145 41.2155 70.145 40.0714C70.145 38.9274 71.0724 38 72.2164 38Z" fill="#303038"/>
<path d="M76.3591 38C77.5032 38 78.4306 38.9274 78.4306 40.0714C78.4306 41.2155 77.5032 42.1429 76.3591 42.1429C75.2151 42.1429 74.2877 41.2155 74.2877 40.0714C74.2877 38.9274 75.2151 38 76.3591 38Z" fill="#303038"/>
<path d="M10.0718 42.1425C11.2159 42.1425 12.1432 43.0699 12.1432 44.2139C12.1432 45.358 11.2159 46.2854 10.0718 46.2854C8.92781 46.2854 8.00039 45.358 8.00039 44.2139C8.00039 43.0699 8.92781 42.1425 10.0718 42.1425Z" fill="#303038"/>
<path d="M18.3591 42.1428C19.5032 42.1428 20.4306 43.0703 20.4306 44.2143C20.4306 45.3583 19.5032 46.2857 18.3591 46.2857C17.2151 46.2857 16.2877 45.3583 16.2877 44.2143C16.2877 43.0703 17.2151 42.1428 18.3591 42.1428Z" fill="#303038"/>
<path d="M22.5018 42.1428C23.6459 42.1428 24.5732 43.0703 24.5732 44.2143C24.5732 45.3583 23.6459 46.2857 22.5018 46.2857C21.3578 46.2857 20.4304 45.3583 20.4304 44.2143C20.4304 43.0703 21.3578 42.1428 22.5018 42.1428Z" fill="#303038"/>
<path d="M26.6464 42.1425C27.7905 42.1425 28.7179 43.0699 28.7179 44.2139C28.7179 45.358 27.7905 46.2854 26.6464 46.2854C25.5024 46.2854 24.575 45.358 24.575 44.2139C24.575 43.0699 25.5024 42.1425 26.6464 42.1425Z" fill="#303038"/>
<path d="M30.7874 42.1425C31.9315 42.1425 32.8588 43.0699 32.8588 44.2139C32.8588 45.358 31.9315 46.2854 30.7874 46.2854C29.6434 46.2854 28.716 45.358 28.716 44.2139C28.716 43.0699 29.6434 42.1425 30.7874 42.1425Z" fill="#303038"/>
<path d="M34.9308 42.1425C36.0749 42.1425 37.0023 43.0699 37.0023 44.2139C37.0023 45.358 36.0749 46.2854 34.9308 46.2854C33.7868 46.2854 32.8594 45.358 32.8594 44.2139C32.8594 43.0699 33.7868 42.1425 34.9308 42.1425Z" fill="#303038"/>
<path d="M59.7874 42.1425C60.9315 42.1425 61.8588 43.0699 61.8588 44.2139C61.8588 45.358 60.9315 46.2854 59.7874 46.2854C58.6434 46.2854 57.716 45.358 57.716 44.2139C57.716 43.0699 58.6434 42.1425 59.7874 42.1425Z" fill="#303038"/>
<path d="M84.6464 42.1425C85.7905 42.1425 86.7179 43.0699 86.7179 44.2139C86.7179 45.358 85.7905 46.2854 84.6464 46.2854C83.5024 46.2854 82.575 45.358 82.575 44.2139C82.575 43.0699 83.5024 42.1425 84.6464 42.1425Z" fill="#303038"/>
<path d="M88.7874 42.1425C89.9315 42.1425 90.8588 43.0699 90.8588 44.2139C90.8588 45.358 89.9315 46.2854 88.7874 46.2854C87.6434 46.2854 86.716 45.358 86.716 44.2139C86.716 43.0699 87.6434 42.1425 88.7874 42.1425Z" fill="#303038"/>
<path d="M92.9308 42.1425C94.0749 42.1425 95.0023 43.0699 95.0023 44.2139C95.0023 45.358 94.0749 46.2854 92.9308 46.2854C91.7868 46.2854 90.8594 45.358 90.8594 44.2139C90.8594 43.0699 91.7868 42.1425 92.9308 42.1425Z" fill="#303038"/>
<path d="M97.0718 42.1425C98.2159 42.1425 99.1433 43.0699 99.1433 44.2139C99.1433 45.358 98.2159 46.2854 97.0718 46.2854C95.9278 46.2854 95.0004 45.358 95.0004 44.2139C95.0004 43.0699 95.9278 42.1425 97.0718 42.1425Z" fill="#303038"/>
<path d="M101.216 42.1428C102.36 42.1428 103.288 43.0703 103.288 44.2143C103.288 45.3583 102.36 46.2857 101.216 46.2857C100.072 46.2857 99.145 45.3583 99.145 44.2143C99.145 43.0703 100.072 42.1428 101.216 42.1428Z" fill="#303038"/>
<path d="M10.0718 46.2857C11.2159 46.2857 12.1432 47.2131 12.1432 48.3571C12.1432 49.5012 11.2159 50.4286 10.0718 50.4286C8.92781 50.4286 8.00039 49.5012 8.00039 48.3571C8.00039 47.2131 8.92781 46.2857 10.0718 46.2857Z" fill="#303038"/>
<path d="M22.5018 46.2857C23.6459 46.2857 24.5732 47.2132 24.5732 48.3572C24.5732 49.5012 23.6459 50.4286 22.5018 50.4286C21.3578 50.4286 20.4304 49.5012 20.4304 48.3572C20.4304 47.2132 21.3578 46.2857 22.5018 46.2857Z" fill="#303038"/>
<path d="M43.2164 46.2857C44.3605 46.2857 45.2879 47.2132 45.2879 48.3572C45.2879 49.5012 44.3605 50.4286 43.2164 50.4286C42.0724 50.4286 41.145 49.5012 41.145 48.3572C41.145 47.2132 42.0724 46.2857 43.2164 46.2857Z" fill="#303038"/>
<path d="M47.3591 46.2857C48.5032 46.2857 49.4306 47.2132 49.4306 48.3572C49.4306 49.5012 48.5032 50.4286 47.3591 50.4286C46.2151 50.4286 45.2877 49.5012 45.2877 48.3572C45.2877 47.2132 46.2151 46.2857 47.3591 46.2857Z" fill="#303038"/>
<path d="M51.5018 46.2857C52.6459 46.2857 53.5733 47.2132 53.5733 48.3572C53.5733 49.5012 52.6459 50.4286 51.5018 50.4286C50.3578 50.4286 49.4304 49.5012 49.4304 48.3572C49.4304 47.2132 50.3578 46.2857 51.5018 46.2857Z" fill="#303038"/>
<path d="M63.9308 46.2857C65.0749 46.2857 66.0023 47.2131 66.0023 48.3571C66.0023 49.5012 65.0749 50.4286 63.9308 50.4286C62.7868 50.4286 61.8594 49.5012 61.8594 48.3571C61.8594 47.2131 62.7868 46.2857 63.9308 46.2857Z" fill="#303038"/>
<path d="M76.3591 46.2857C77.5032 46.2857 78.4306 47.2132 78.4306 48.3572C78.4306 49.5012 77.5032 50.4286 76.3591 50.4286C75.2151 50.4286 74.2877 49.5012 74.2877 48.3572C74.2877 47.2132 75.2151 46.2857 76.3591 46.2857Z" fill="#303038"/>
<path d="M88.7874 46.2857C89.9315 46.2857 90.8588 47.2131 90.8588 48.3571C90.8588 49.5012 89.9315 50.4286 88.7874 50.4286C87.6434 50.4286 86.716 49.5012 86.716 48.3571C86.716 47.2131 87.6434 46.2857 88.7874 46.2857Z" fill="#303038"/>
<path d="M105.359 46.2857C106.503 46.2857 107.431 47.2132 107.431 48.3572C107.431 49.5012 106.503 50.4286 105.359 50.4286C104.215 50.4286 103.288 49.5012 103.288 48.3572C103.288 47.2132 104.215 46.2857 105.359 46.2857Z" fill="#303038"/>
<path d="M10.0718 50.4288C11.2159 50.4288 12.1432 51.3562 12.1432 52.5002C12.1432 53.6443 11.2159 54.5717 10.0718 54.5717C8.92781 54.5717 8.00039 53.6443 8.00039 52.5002C8.00039 51.3562 8.92781 50.4288 10.0718 50.4288Z" fill="#303038"/>
<path d="M22.5018 50.4286C23.6459 50.4286 24.5732 51.356 24.5732 52.5C24.5732 53.6441 23.6459 54.5714 22.5018 54.5714C21.3578 54.5714 20.4304 53.6441 20.4304 52.5C20.4304 51.356 21.3578 50.4286 22.5018 50.4286Z" fill="#303038"/>
<path d="M26.6464 50.4288C27.7905 50.4288 28.7179 51.3562 28.7179 52.5002C28.7179 53.6443 27.7905 54.5717 26.6464 54.5717C25.5024 54.5717 24.575 53.6443 24.575 52.5002C24.575 51.3562 25.5024 50.4288 26.6464 50.4288Z" fill="#303038"/>
<path d="M34.9308 50.4288C36.0749 50.4288 37.0023 51.3562 37.0023 52.5002C37.0023 53.6443 36.0749 54.5717 34.9308 54.5717C33.7868 54.5717 32.8594 53.6443 32.8594 52.5002C32.8594 51.3562 33.7868 50.4288 34.9308 50.4288Z" fill="#303038"/>
<path d="M39.0718 50.4288C40.2159 50.4288 41.1432 51.3562 41.1432 52.5002C41.1432 53.6443 40.2159 54.5717 39.0718 54.5717C37.9278 54.5717 37.0004 53.6443 37.0004 52.5002C37.0004 51.3562 37.9278 50.4288 39.0718 50.4288Z" fill="#303038"/>
<path d="M43.2164 50.4286C44.3605 50.4286 45.2879 51.356 45.2879 52.5C45.2879 53.6441 44.3605 54.5714 43.2164 54.5714C42.0724 54.5714 41.145 53.6441 41.145 52.5C41.145 51.356 42.0724 50.4286 43.2164 50.4286Z" fill="#303038"/>
<path d="M55.6464 50.4288C56.7905 50.4288 57.7179 51.3562 57.7179 52.5002C57.7179 53.6443 56.7905 54.5717 55.6464 54.5717C54.5024 54.5717 53.575 53.6443 53.575 52.5002C53.575 51.3562 54.5024 50.4288 55.6464 50.4288Z" fill="#303038"/>
<path d="M63.9308 50.4288C65.0749 50.4288 66.0023 51.3562 66.0023 52.5002C66.0023 53.6443 65.0749 54.5717 63.9308 54.5717C62.7868 54.5717 61.8594 53.6443 61.8594 52.5002C61.8594 51.3562 62.7868 50.4288 63.9308 50.4288Z" fill="#303038"/>
<path d="M68.0718 50.4288C69.2159 50.4288 70.1433 51.3562 70.1433 52.5002C70.1433 53.6443 69.2159 54.5717 68.0718 54.5717C66.9278 54.5717 66.0004 53.6443 66.0004 52.5002C66.0004 51.3562 66.9278 50.4288 68.0718 50.4288Z" fill="#303038"/>
<path d="M72.2164 50.4286C73.3605 50.4286 74.2879 51.356 74.2879 52.5C74.2879 53.6441 73.3605 54.5714 72.2164 54.5714C71.0724 54.5714 70.145 53.6441 70.145 52.5C70.145 51.356 71.0724 50.4286 72.2164 50.4286Z" fill="#303038"/>
<path d="M76.3591 50.4286C77.5032 50.4286 78.4306 51.356 78.4306 52.5C78.4306 53.6441 77.5032 54.5714 76.3591 54.5714C75.2151 54.5714 74.2877 53.6441 74.2877 52.5C74.2877 51.356 75.2151 50.4286 76.3591 50.4286Z" fill="#303038"/>
<path d="M84.6464 50.4288C85.7905 50.4288 86.7179 51.3562 86.7179 52.5002C86.7179 53.6443 85.7905 54.5717 84.6464 54.5717C83.5024 54.5717 82.575 53.6443 82.575 52.5002C82.575 51.3562 83.5024 50.4288 84.6464 50.4288Z" fill="#303038"/>
<path d="M88.7874 50.4288C89.9315 50.4288 90.8588 51.3562 90.8588 52.5002C90.8588 53.6443 89.9315 54.5717 88.7874 54.5717C87.6434 54.5717 86.716 53.6443 86.716 52.5002C86.716 51.3562 87.6434 50.4288 88.7874 50.4288Z" fill="#303038"/>
<path d="M97.0718 50.4288C98.2159 50.4288 99.1433 51.3562 99.1433 52.5002C99.1433 53.6443 98.2159 54.5717 97.0718 54.5717C95.9278 54.5717 95.0004 53.6443 95.0004 52.5002C95.0004 51.3562 95.9278 50.4288 97.0718 50.4288Z" fill="#303038"/>
<path d="M105.359 50.4286C106.503 50.4286 107.431 51.356 107.431 52.5C107.431 53.6441 106.503 54.5714 105.359 54.5714C104.215 54.5714 103.288 53.6441 103.288 52.5C103.288 51.356 104.215 50.4286 105.359 50.4286Z" fill="#303038"/>
<path d="M109.502 50.4286C110.646 50.4286 111.573 51.356 111.573 52.5C111.573 53.6441 110.646 54.5714 109.502 54.5714C108.358 54.5714 107.43 53.6441 107.43 52.5C107.43 51.356 108.358 50.4286 109.502 50.4286Z" fill="#303038"/>
<path d="M10.0718 54.5709C11.2159 54.5709 12.1432 55.4983 12.1432 56.6424C12.1432 57.7864 11.2159 58.7138 10.0718 58.7138C8.92781 58.7138 8.00039 57.7864 8.00039 56.6424C8.00039 55.4983 8.92781 54.5709 10.0718 54.5709Z" fill="#303038"/>
<path d="M18.3591 54.5714C19.5032 54.5714 20.4306 55.4988 20.4306 56.6428C20.4306 57.7869 19.5032 58.7143 18.3591 58.7143C17.2151 58.7143 16.2877 57.7869 16.2877 56.6428C16.2877 55.4988 17.2151 54.5714 18.3591 54.5714Z" fill="#303038"/>
<path d="M43.2164 54.5714C44.3605 54.5714 45.2879 55.4988 45.2879 56.6428C45.2879 57.7869 44.3605 58.7143 43.2164 58.7143C42.0724 58.7143 41.145 57.7869 41.145 56.6428C41.145 55.4988 42.0724 54.5714 43.2164 54.5714Z" fill="#303038"/>
<path d="M47.3591 54.5714C48.5032 54.5714 49.4306 55.4988 49.4306 56.6428C49.4306 57.7869 48.5032 58.7143 47.3591 58.7143C46.2151 58.7143 45.2877 57.7869 45.2877 56.6428C45.2877 55.4988 46.2151 54.5714 47.3591 54.5714Z" fill="#303038"/>
<path d="M51.5018 54.5714C52.6459 54.5714 53.5733 55.4988 53.5733 56.6428C53.5733 57.7869 52.6459 58.7143 51.5018 58.7143C50.3578 58.7143 49.4304 57.7869 49.4304 56.6428C49.4304 55.4988 50.3578 54.5714 51.5018 54.5714Z" fill="#303038"/>
<path d="M55.6464 54.5709C56.7905 54.5709 57.7179 55.4983 57.7179 56.6424C57.7179 57.7864 56.7905 58.7138 55.6464 58.7138C54.5024 58.7138 53.575 57.7864 53.575 56.6424C53.575 55.4983 54.5024 54.5709 55.6464 54.5709Z" fill="#303038"/>
<path d="M63.9308 54.5709C65.0749 54.5709 66.0023 55.4983 66.0023 56.6424C66.0023 57.7864 65.0749 58.7138 63.9308 58.7138C62.7868 58.7138 61.8594 57.7864 61.8594 56.6424C61.8594 55.4983 62.7868 54.5709 63.9308 54.5709Z" fill="#303038"/>
<path d="M76.3591 54.5714C77.5032 54.5714 78.4306 55.4988 78.4306 56.6428C78.4306 57.7869 77.5032 58.7143 76.3591 58.7143C75.2151 58.7143 74.2877 57.7869 74.2877 56.6428C74.2877 55.4988 75.2151 54.5714 76.3591 54.5714Z" fill="#303038"/>
<path d="M109.502 54.5714C110.646 54.5714 111.573 55.4988 111.573 56.6428C111.573 57.7869 110.646 58.7143 109.502 58.7143C108.358 58.7143 107.43 57.7869 107.43 56.6428C107.43 55.4988 108.358 54.5714 109.502 54.5714Z" fill="#303038"/>
<path d="M26.6464 58.7141C27.7905 58.7141 28.7179 59.6415 28.7179 60.7855C28.7179 61.9296 27.7905 62.857 26.6464 62.857C25.5024 62.857 24.575 61.9296 24.575 60.7855C24.575 59.6415 25.5024 58.7141 26.6464 58.7141Z" fill="#303038"/>
<path d="M34.9308 58.7141C36.0749 58.7141 37.0023 59.6415 37.0023 60.7855C37.0023 61.9296 36.0749 62.857 34.9308 62.857C33.7868 62.857 32.8594 61.9296 32.8594 60.7855C32.8594 59.6415 33.7868 58.7141 34.9308 58.7141Z" fill="#303038"/>
<path d="M47.3591 58.7143C48.5032 58.7143 49.4306 59.6417 49.4306 60.7857C49.4306 61.9298 48.5032 62.8571 47.3591 62.8571C46.2151 62.8571 45.2877 61.9298 45.2877 60.7857C45.2877 59.6417 46.2151 58.7143 47.3591 58.7143Z" fill="#303038"/>
<path d="M59.7874 58.7141C60.9315 58.7141 61.8588 59.6415 61.8588 60.7855C61.8588 61.9296 60.9315 62.857 59.7874 62.857C58.6434 62.857 57.716 61.9296 57.716 60.7855C57.716 59.6415 58.6434 58.7141 59.7874 58.7141Z" fill="#303038"/>
<path d="M68.0718 58.7141C69.2159 58.7141 70.1433 59.6415 70.1433 60.7855C70.1433 61.9296 69.2159 62.857 68.0718 62.857C66.9278 62.857 66.0004 61.9296 66.0004 60.7855C66.0004 59.6415 66.9278 58.7141 68.0718 58.7141Z" fill="#303038"/>
<path d="M80.5018 58.7143C81.6459 58.7143 82.5732 59.6417 82.5732 60.7857C82.5732 61.9298 81.6459 62.8571 80.5018 62.8571C79.3578 62.8571 78.4304 61.9298 78.4304 60.7857C78.4304 59.6417 79.3578 58.7143 80.5018 58.7143Z" fill="#303038"/>
<path d="M84.6464 58.7141C85.7905 58.7141 86.7179 59.6415 86.7179 60.7855C86.7179 61.9296 85.7905 62.857 84.6464 62.857C83.5024 62.857 82.575 61.9296 82.575 60.7855C82.575 59.6415 83.5024 58.7141 84.6464 58.7141Z" fill="#303038"/>
<path d="M88.7874 58.7141C89.9315 58.7141 90.8588 59.6415 90.8588 60.7855C90.8588 61.9296 89.9315 62.857 88.7874 62.857C87.6434 62.857 86.716 61.9296 86.716 60.7855C86.716 59.6415 87.6434 58.7141 88.7874 58.7141Z" fill="#303038"/>
<path d="M92.9308 58.7141C94.0749 58.7141 95.0023 59.6415 95.0023 60.7855C95.0023 61.9296 94.0749 62.857 92.9308 62.857C91.7868 62.857 90.8594 61.9296 90.8594 60.7855C90.8594 59.6415 91.7868 58.7141 92.9308 58.7141Z" fill="#303038"/>
<path d="M101.216 58.7143C102.36 58.7143 103.288 59.6417 103.288 60.7857C103.288 61.9298 102.36 62.8571 101.216 62.8571C100.072 62.8571 99.145 61.9298 99.145 60.7857C99.145 59.6417 100.072 58.7143 101.216 58.7143Z" fill="#303038"/>
<path d="M105.359 58.7143C106.503 58.7143 107.431 59.6417 107.431 60.7857C107.431 61.9298 106.503 62.8571 105.359 62.8571C104.215 62.8571 103.288 61.9298 103.288 60.7857C103.288 59.6417 104.215 58.7143 105.359 58.7143Z" fill="#303038"/>
<path d="M109.502 58.7143C110.646 58.7143 111.573 59.6417 111.573 60.7857C111.573 61.9298 110.646 62.8571 109.502 62.8571C108.358 62.8571 107.43 61.9298 107.43 60.7857C107.43 59.6417 108.358 58.7143 109.502 58.7143Z" fill="#303038"/>
<path d="M10.0718 62.8573C11.2159 62.8573 12.1432 63.7847 12.1432 64.9287C12.1432 66.0728 11.2159 67.0002 10.0718 67.0002C8.92781 67.0002 8.00039 66.0728 8.00039 64.9287C8.00039 63.7847 8.92781 62.8573 10.0718 62.8573Z" fill="#303038"/>
<path d="M14.2164 62.8572C15.3605 62.8572 16.2879 63.7846 16.2879 64.9286C16.2879 66.0727 15.3605 67 14.2164 67C13.0724 67 12.145 66.0727 12.145 64.9286C12.145 63.7846 13.0724 62.8572 14.2164 62.8572Z" fill="#303038"/>
<path d="M26.6464 62.8573C27.7905 62.8573 28.7179 63.7847 28.7179 64.9287C28.7179 66.0728 27.7905 67.0002 26.6464 67.0002C25.5024 67.0002 24.575 66.0728 24.575 64.9287C24.575 63.7847 25.5024 62.8573 26.6464 62.8573Z" fill="#303038"/>
<path d="M30.7874 62.8573C31.9315 62.8573 32.8588 63.7847 32.8588 64.9287C32.8588 66.0728 31.9315 67.0002 30.7874 67.0002C29.6434 67.0002 28.716 66.0728 28.716 64.9287C28.716 63.7847 29.6434 62.8573 30.7874 62.8573Z" fill="#303038"/>
<path d="M39.0718 62.8573C40.2159 62.8573 41.1432 63.7847 41.1432 64.9287C41.1432 66.0728 40.2159 67.0002 39.0718 67.0002C37.9278 67.0002 37.0004 66.0728 37.0004 64.9287C37.0004 63.7847 37.9278 62.8573 39.0718 62.8573Z" fill="#303038"/>
<path d="M76.3591 62.8572C77.5032 62.8572 78.4306 63.7846 78.4306 64.9286C78.4306 66.0727 77.5032 67 76.3591 67C75.2151 67 74.2877 66.0727 74.2877 64.9286C74.2877 63.7846 75.2151 62.8572 76.3591 62.8572Z" fill="#303038"/>
<path d="M97.0718 62.8573C98.2159 62.8573 99.1433 63.7847 99.1433 64.9287C99.1433 66.0728 98.2159 67.0002 97.0718 67.0002C95.9278 67.0002 95.0004 66.0728 95.0004 64.9287C95.0004 63.7847 95.9278 62.8573 97.0718 62.8573Z" fill="#303038"/>
<path d="M105.359 62.8572C106.503 62.8572 107.431 63.7846 107.431 64.9286C107.431 66.0727 106.503 67 105.359 67C104.215 67 103.288 66.0727 103.288 64.9286C103.288 63.7846 104.215 62.8572 105.359 62.8572Z" fill="#303038"/>
<path d="M10.0718 67.0005C11.2159 67.0005 12.1432 67.9279 12.1432 69.0719C12.1432 70.216 11.2159 71.1434 10.0718 71.1434C8.92781 71.1434 8.00039 70.216 8.00039 69.0719C8.00039 67.9279 8.92781 67.0005 10.0718 67.0005Z" fill="#303038"/>
<path d="M22.5018 67C23.6459 67 24.5732 67.9274 24.5732 69.0714C24.5732 70.2155 23.6459 71.1429 22.5018 71.1429C21.3578 71.1429 20.4304 70.2155 20.4304 69.0714C20.4304 67.9274 21.3578 67 22.5018 67Z" fill="#303038"/>
<path d="M30.7874 67.0005C31.9315 67.0005 32.8588 67.9279 32.8588 69.0719C32.8588 70.216 31.9315 71.1434 30.7874 71.1434C29.6434 71.1434 28.716 70.216 28.716 69.0719C28.716 67.9279 29.6434 67.0005 30.7874 67.0005Z" fill="#303038"/>
<path d="M34.9308 67.0005C36.0749 67.0005 37.0023 67.9279 37.0023 69.0719C37.0023 70.216 36.0749 71.1434 34.9308 71.1434C33.7868 71.1434 32.8594 70.216 32.8594 69.0719C32.8594 67.9279 33.7868 67.0005 34.9308 67.0005Z" fill="#303038"/>
<path d="M39.0718 67.0005C40.2159 67.0005 41.1432 67.9279 41.1432 69.0719C41.1432 70.216 40.2159 71.1434 39.0718 71.1434C37.9278 71.1434 37.0004 70.216 37.0004 69.0719C37.0004 67.9279 37.9278 67.0005 39.0718 67.0005Z" fill="#303038"/>
<path d="M43.2164 67C44.3605 67 45.2879 67.9274 45.2879 69.0714C45.2879 70.2155 44.3605 71.1429 43.2164 71.1429C42.0724 71.1429 41.145 70.2155 41.145 69.0714C41.145 67.9274 42.0724 67 43.2164 67Z" fill="#303038"/>
<path d="M51.5018 67C52.6459 67 53.5733 67.9274 53.5733 69.0714C53.5733 70.2155 52.6459 71.1429 51.5018 71.1429C50.3578 71.1429 49.4304 70.2155 49.4304 69.0714C49.4304 67.9274 50.3578 67 51.5018 67Z" fill="#303038"/>
<path d="M55.6464 67.0005C56.7905 67.0005 57.7179 67.9279 57.7179 69.0719C57.7179 70.216 56.7905 71.1434 55.6464 71.1434C54.5024 71.1434 53.575 70.216 53.575 69.0719C53.575 67.9279 54.5024 67.0005 55.6464 67.0005Z" fill="#303038"/>
<path d="M59.7874 67.0005C60.9315 67.0005 61.8588 67.9279 61.8588 69.0719C61.8588 70.216 60.9315 71.1434 59.7874 71.1434C58.6434 71.1434 57.716 70.216 57.716 69.0719C57.716 67.9279 58.6434 67.0005 59.7874 67.0005Z" fill="#303038"/>
<path d="M72.2164 67C73.3605 67 74.2879 67.9274 74.2879 69.0714C74.2879 70.2155 73.3605 71.1429 72.2164 71.1429C71.0724 71.1429 70.145 70.2155 70.145 69.0714C70.145 67.9274 71.0724 67 72.2164 67Z" fill="#303038"/>
<path d="M76.3591 67C77.5032 67 78.4306 67.9274 78.4306 69.0714C78.4306 70.2155 77.5032 71.1429 76.3591 71.1429C75.2151 71.1429 74.2877 70.2155 74.2877 69.0714C74.2877 67.9274 75.2151 67 76.3591 67Z" fill="#303038"/>
<path d="M80.5018 67C81.6459 67 82.5732 67.9274 82.5732 69.0714C82.5732 70.2155 81.6459 71.1429 80.5018 71.1429C79.3578 71.1429 78.4304 70.2155 78.4304 69.0714C78.4304 67.9274 79.3578 67 80.5018 67Z" fill="#303038"/>
<path d="M88.7874 67.0005C89.9315 67.0005 90.8588 67.9279 90.8588 69.0719C90.8588 70.216 89.9315 71.1434 88.7874 71.1434C87.6434 71.1434 86.716 70.216 86.716 69.0719C86.716 67.9279 87.6434 67.0005 88.7874 67.0005Z" fill="#303038"/>
<path d="M97.0718 67.0005C98.2159 67.0005 99.1433 67.9279 99.1433 69.0719C99.1433 70.216 98.2159 71.1434 97.0718 71.1434C95.9278 71.1434 95.0004 70.216 95.0004 69.0719C95.0004 67.9279 95.9278 67.0005 97.0718 67.0005Z" fill="#303038"/>
<path d="M105.359 67C106.503 67 107.431 67.9274 107.431 69.0714C107.431 70.2155 106.503 71.1429 105.359 71.1429C104.215 71.1429 103.288 70.2155 103.288 69.0714C103.288 67.9274 104.215 67 105.359 67Z" fill="#303038"/>
<path d="M109.502 67C110.646 67 111.573 67.9274 111.573 69.0714C111.573 70.2155 110.646 71.1429 109.502 71.1429C108.358 71.1429 107.43 70.2155 107.43 69.0714C107.43 67.9274 108.358 67 109.502 67Z" fill="#303038"/>
<path d="M10.0718 71.1425C11.2159 71.1425 12.1432 72.0699 12.1432 73.2139C12.1432 74.358 11.2159 75.2854 10.0718 75.2854C8.92781 75.2854 8.00039 74.358 8.00039 73.2139C8.00039 72.0699 8.92781 71.1425 10.0718 71.1425Z" fill="#303038"/>
<path d="M22.5018 71.1428C23.6459 71.1428 24.5732 72.0703 24.5732 73.2143C24.5732 74.3583 23.6459 75.2857 22.5018 75.2857C21.3578 75.2857 20.4304 74.3583 20.4304 73.2143C20.4304 72.0703 21.3578 71.1428 22.5018 71.1428Z" fill="#303038"/>
<path d="M30.7874 71.1425C31.9315 71.1425 32.8588 72.0699 32.8588 73.2139C32.8588 74.358 31.9315 75.2854 30.7874 75.2854C29.6434 75.2854 28.716 74.358 28.716 73.2139C28.716 72.0699 29.6434 71.1425 30.7874 71.1425Z" fill="#303038"/>
<path d="M47.3591 71.1428C48.5032 71.1428 49.4306 72.0703 49.4306 73.2143C49.4306 74.3583 48.5032 75.2857 47.3591 75.2857C46.2151 75.2857 45.2877 74.3583 45.2877 73.2143C45.2877 72.0703 46.2151 71.1428 47.3591 71.1428Z" fill="#303038"/>
<path d="M55.6464 71.1425C56.7905 71.1425 57.7179 72.0699 57.7179 73.2139C57.7179 74.358 56.7905 75.2854 55.6464 75.2854C54.5024 75.2854 53.575 74.358 53.575 73.2139C53.575 72.0699 54.5024 71.1425 55.6464 71.1425Z" fill="#303038"/>
<path d="M68.0718 71.1425C69.2159 71.1425 70.1433 72.0699 70.1433 73.2139C70.1433 74.358 69.2159 75.2854 68.0718 75.2854C66.9278 75.2854 66.0004 74.358 66.0004 73.2139C66.0004 72.0699 66.9278 71.1425 68.0718 71.1425Z" fill="#303038"/>
<path d="M80.5018 71.1428C81.6459 71.1428 82.5732 72.0703 82.5732 73.2143C82.5732 74.3583 81.6459 75.2857 80.5018 75.2857C79.3578 75.2857 78.4304 74.3583 78.4304 73.2143C78.4304 72.0703 79.3578 71.1428 80.5018 71.1428Z" fill="#303038"/>
<path d="M97.0718 71.1425C98.2159 71.1425 99.1433 72.0699 99.1433 73.2139C99.1433 74.358 98.2159 75.2854 97.0718 75.2854C95.9278 75.2854 95.0004 74.358 95.0004 73.2139C95.0004 72.0699 95.9278 71.1425 97.0718 71.1425Z" fill="#303038"/>
<path d="M109.502 71.1428C110.646 71.1428 111.573 72.0703 111.573 73.2143C111.573 74.3583 110.646 75.2857 109.502 75.2857C108.358 75.2857 107.43 74.3583 107.43 73.2143C107.43 72.0703 108.358 71.1428 109.502 71.1428Z" fill="#303038"/>
<path d="M10.0718 75.2857C11.2159 75.2857 12.1432 76.2131 12.1432 77.3571C12.1432 78.5012 11.2159 79.4286 10.0718 79.4286C8.92781 79.4286 8.00039 78.5012 8.00039 77.3571C8.00039 76.2131 8.92781 75.2857 10.0718 75.2857Z" fill="#303038"/>
<path d="M18.3591 75.2857C19.5032 75.2857 20.4306 76.2132 20.4306 77.3572C20.4306 78.5012 19.5032 79.4286 18.3591 79.4286C17.2151 79.4286 16.2877 78.5012 16.2877 77.3572C16.2877 76.2132 17.2151 75.2857 18.3591 75.2857Z" fill="#303038"/>
<path d="M30.7874 75.2857C31.9315 75.2857 32.8588 76.2131 32.8588 77.3571C32.8588 78.5012 31.9315 79.4286 30.7874 79.4286C29.6434 79.4286 28.716 78.5012 28.716 77.3571C28.716 76.2131 29.6434 75.2857 30.7874 75.2857Z" fill="#303038"/>
<path d="M34.9308 75.2857C36.0749 75.2857 37.0023 76.2131 37.0023 77.3571C37.0023 78.5012 36.0749 79.4286 34.9308 79.4286C33.7868 79.4286 32.8594 78.5012 32.8594 77.3571C32.8594 76.2131 33.7868 75.2857 34.9308 75.2857Z" fill="#303038"/>
<path d="M43.2164 75.2857C44.3605 75.2857 45.2879 76.2132 45.2879 77.3572C45.2879 78.5012 44.3605 79.4286 43.2164 79.4286C42.0724 79.4286 41.145 78.5012 41.145 77.3572C41.145 76.2132 42.0724 75.2857 43.2164 75.2857Z" fill="#303038"/>
<path d="M55.6464 75.2857C56.7905 75.2857 57.7179 76.2131 57.7179 77.3571C57.7179 78.5012 56.7905 79.4286 55.6464 79.4286C54.5024 79.4286 53.575 78.5012 53.575 77.3571C53.575 76.2131 54.5024 75.2857 55.6464 75.2857Z" fill="#303038"/>
<path d="M72.2164 75.2857C73.3605 75.2857 74.2879 76.2132 74.2879 77.3572C74.2879 78.5012 73.3605 79.4286 72.2164 79.4286C71.0724 79.4286 70.145 78.5012 70.145 77.3572C70.145 76.2132 71.0724 75.2857 72.2164 75.2857Z" fill="#303038"/>
<path d="M76.3591 75.2857C77.5032 75.2857 78.4306 76.2132 78.4306 77.3572C78.4306 78.5012 77.5032 79.4286 76.3591 79.4286C75.2151 79.4286 74.2877 78.5012 74.2877 77.3572C74.2877 76.2132 75.2151 75.2857 76.3591 75.2857Z" fill="#303038"/>
<path d="M80.5018 75.2857C81.6459 75.2857 82.5732 76.2132 82.5732 77.3572C82.5732 78.5012 81.6459 79.4286 80.5018 79.4286C79.3578 79.4286 78.4304 78.5012 78.4304 77.3572C78.4304 76.2132 79.3578 75.2857 80.5018 75.2857Z" fill="#303038"/>
<path d="M84.6464 75.2857C85.7905 75.2857 86.7179 76.2131 86.7179 77.3571C86.7179 78.5012 85.7905 79.4286 84.6464 79.4286C83.5024 79.4286 82.575 78.5012 82.575 77.3571C82.575 76.2131 83.5024 75.2857 84.6464 75.2857Z" fill="#303038"/>
<path d="M88.7874 75.2857C89.9315 75.2857 90.8588 76.2131 90.8588 77.3571C90.8588 78.5012 89.9315 79.4286 88.7874 79.4286C87.6434 79.4286 86.716 78.5012 86.716 77.3571C86.716 76.2131 87.6434 75.2857 88.7874 75.2857Z" fill="#303038"/>
<path d="M92.9308 75.2857C94.0749 75.2857 95.0023 76.2131 95.0023 77.3571C95.0023 78.5012 94.0749 79.4286 92.9308 79.4286C91.7868 79.4286 90.8594 78.5012 90.8594 77.3571C90.8594 76.2131 91.7868 75.2857 92.9308 75.2857Z" fill="#303038"/>
<path d="M101.216 75.2857C102.36 75.2857 103.288 76.2132 103.288 77.3572C103.288 78.5012 102.36 79.4286 101.216 79.4286C100.072 79.4286 99.145 78.5012 99.145 77.3572C99.145 76.2132 100.072 75.2857 101.216 75.2857Z" fill="#303038"/>
<path d="M43.2164 79.4286C44.3605 79.4286 45.2879 80.356 45.2879 81.5C45.2879 82.6441 44.3605 83.5714 43.2164 83.5714C42.0724 83.5714 41.145 82.6441 41.145 81.5C41.145 80.356 42.0724 79.4286 43.2164 79.4286Z" fill="#303038"/>
<path d="M47.3591 79.4286C48.5032 79.4286 49.4306 80.356 49.4306 81.5C49.4306 82.6441 48.5032 83.5714 47.3591 83.5714C46.2151 83.5714 45.2877 82.6441 45.2877 81.5C45.2877 80.356 46.2151 79.4286 47.3591 79.4286Z" fill="#303038"/>
<path d="M51.5018 79.4286C52.6459 79.4286 53.5733 80.356 53.5733 81.5C53.5733 82.6441 52.6459 83.5714 51.5018 83.5714C50.3578 83.5714 49.4304 82.6441 49.4304 81.5C49.4304 80.356 50.3578 79.4286 51.5018 79.4286Z" fill="#303038"/>
<path d="M59.7874 79.4288C60.9315 79.4288 61.8588 80.3562 61.8588 81.5002C61.8588 82.6443 60.9315 83.5717 59.7874 83.5717C58.6434 83.5717 57.716 82.6443 57.716 81.5002C57.716 80.3562 58.6434 79.4288 59.7874 79.4288Z" fill="#303038"/>
<path d="M63.9308 79.4288C65.0749 79.4288 66.0023 80.3562 66.0023 81.5002C66.0023 82.6443 65.0749 83.5717 63.9308 83.5717C62.7868 83.5717 61.8594 82.6443 61.8594 81.5002C61.8594 80.3562 62.7868 79.4288 63.9308 79.4288Z" fill="#303038"/>
<path d="M68.0718 79.4288C69.2159 79.4288 70.1433 80.3562 70.1433 81.5002C70.1433 82.6443 69.2159 83.5717 68.0718 83.5717C66.9278 83.5717 66.0004 82.6443 66.0004 81.5002C66.0004 80.3562 66.9278 79.4288 68.0718 79.4288Z" fill="#303038"/>
<path d="M72.2164 79.4286C73.3605 79.4286 74.2879 80.356 74.2879 81.5C74.2879 82.6441 73.3605 83.5714 72.2164 83.5714C71.0724 83.5714 70.145 82.6441 70.145 81.5C70.145 80.356 71.0724 79.4286 72.2164 79.4286Z" fill="#303038"/>
<path d="M76.3591 79.4286C77.5032 79.4286 78.4306 80.356 78.4306 81.5C78.4306 82.6441 77.5032 83.5714 76.3591 83.5714C75.2151 83.5714 74.2877 82.6441 74.2877 81.5C74.2877 80.356 75.2151 79.4286 76.3591 79.4286Z" fill="#303038"/>
<path d="M92.9308 79.4288C94.0749 79.4288 95.0023 80.3562 95.0023 81.5002C95.0023 82.6443 94.0749 83.5717 92.9308 83.5717C91.7868 83.5717 90.8594 82.6443 90.8594 81.5002C90.8594 80.3562 91.7868 79.4288 92.9308 79.4288Z" fill="#303038"/>
<path d="M97.0718 79.4288C98.2159 79.4288 99.1433 80.3562 99.1433 81.5002C99.1433 82.6443 98.2159 83.5717 97.0718 83.5717C95.9278 83.5717 95.0004 82.6443 95.0004 81.5002C95.0004 80.3562 95.9278 79.4288 97.0718 79.4288Z" fill="#303038"/>
<path d="M101.216 79.4286C102.36 79.4286 103.288 80.356 103.288 81.5C103.288 82.6441 102.36 83.5714 101.216 83.5714C100.072 83.5714 99.145 82.6441 99.145 81.5C99.145 80.356 100.072 79.4286 101.216 79.4286Z" fill="#303038"/>
<path d="M63.9308 83.5709C65.0749 83.5709 66.0023 84.4983 66.0023 85.6424C66.0023 86.7864 65.0749 87.7138 63.9308 87.7138C62.7868 87.7138 61.8594 86.7864 61.8594 85.6424C61.8594 84.4983 62.7868 83.5709 63.9308 83.5709Z" fill="#303038"/>
<path d="M68.0718 83.5709C69.2159 83.5709 70.1433 84.4983 70.1433 85.6424C70.1433 86.7864 69.2159 87.7138 68.0718 87.7138C66.9278 87.7138 66.0004 86.7864 66.0004 85.6424C66.0004 84.4983 66.9278 83.5709 68.0718 83.5709Z" fill="#303038"/>
<path d="M76.3591 83.5714C77.5032 83.5714 78.4306 84.4988 78.4306 85.6428C78.4306 86.7869 77.5032 87.7143 76.3591 87.7143C75.2151 87.7143 74.2877 86.7869 74.2877 85.6428C74.2877 84.4988 75.2151 83.5714 76.3591 83.5714Z" fill="#303038"/>
<path d="M84.6464 83.5709C85.7905 83.5709 86.7179 84.4983 86.7179 85.6424C86.7179 86.7864 85.7905 87.7138 84.6464 87.7138C83.5024 87.7138 82.575 86.7864 82.575 85.6424C82.575 84.4983 83.5024 83.5709 84.6464 83.5709Z" fill="#303038"/>
<path d="M92.9308 83.5709C94.0749 83.5709 95.0023 84.4983 95.0023 85.6424C95.0023 86.7864 94.0749 87.7138 92.9308 87.7138C91.7868 87.7138 90.8594 86.7864 90.8594 85.6424C90.8594 84.4983 91.7868 83.5709 92.9308 83.5709Z" fill="#303038"/>
<path d="M97.0718 83.5709C98.2159 83.5709 99.1433 84.4983 99.1433 85.6424C99.1433 86.7864 98.2159 87.7138 97.0718 87.7138C95.9278 87.7138 95.0004 86.7864 95.0004 85.6424C95.0004 84.4983 95.9278 83.5709 97.0718 83.5709Z" fill="#303038"/>
<path d="M101.216 83.5714C102.36 83.5714 103.288 84.4988 103.288 85.6428C103.288 86.7869 102.36 87.7143 101.216 87.7143C100.072 87.7143 99.145 86.7869 99.145 85.6428C99.145 84.4988 100.072 83.5714 101.216 83.5714Z" fill="#303038"/>
<path d="M105.359 83.5714C106.503 83.5714 107.431 84.4988 107.431 85.6428C107.431 86.7869 106.503 87.7143 105.359 87.7143C104.215 87.7143 103.288 86.7869 103.288 85.6428C103.288 84.4988 104.215 83.5714 105.359 83.5714Z" fill="#303038"/>
<path d="M109.502 83.5714C110.646 83.5714 111.573 84.4988 111.573 85.6428C111.573 86.7869 110.646 87.7143 109.502 87.7143C108.358 87.7143 107.43 86.7869 107.43 85.6428C107.43 84.4988 108.358 83.5714 109.502 83.5714Z" fill="#303038"/>
<path d="M43.2164 87.7143C44.3605 87.7143 45.2879 88.6417 45.2879 89.7857C45.2879 90.9298 44.3605 91.8571 43.2164 91.8571C42.0724 91.8571 41.145 90.9298 41.145 89.7857C41.145 88.6417 42.0724 87.7143 43.2164 87.7143Z" fill="#303038"/>
<path d="M47.3591 87.7143C48.5032 87.7143 49.4306 88.6417 49.4306 89.7857C49.4306 90.9298 48.5032 91.8571 47.3591 91.8571C46.2151 91.8571 45.2877 90.9298 45.2877 89.7857C45.2877 88.6417 46.2151 87.7143 47.3591 87.7143Z" fill="#303038"/>
<path d="M51.5018 87.7143C52.6459 87.7143 53.5733 88.6417 53.5733 89.7857C53.5733 90.9298 52.6459 91.8571 51.5018 91.8571C50.3578 91.8571 49.4304 90.9298 49.4304 89.7857C49.4304 88.6417 50.3578 87.7143 51.5018 87.7143Z" fill="#303038"/>
<path d="M59.7874 87.7141C60.9315 87.7141 61.8588 88.6415 61.8588 89.7855C61.8588 90.9296 60.9315 91.857 59.7874 91.857C58.6434 91.857 57.716 90.9296 57.716 89.7855C57.716 88.6415 58.6434 87.7141 59.7874 87.7141Z" fill="#303038"/>
<path d="M63.9308 87.7141C65.0749 87.7141 66.0023 88.6415 66.0023 89.7855C66.0023 90.9296 65.0749 91.857 63.9308 91.857C62.7868 91.857 61.8594 90.9296 61.8594 89.7855C61.8594 88.6415 62.7868 87.7141 63.9308 87.7141Z" fill="#303038"/>
<path d="M76.3591 87.7143C77.5032 87.7143 78.4306 88.6417 78.4306 89.7857C78.4306 90.9298 77.5032 91.8571 76.3591 91.8571C75.2151 91.8571 74.2877 90.9298 74.2877 89.7857C74.2877 88.6417 75.2151 87.7143 76.3591 87.7143Z" fill="#303038"/>
<path d="M92.9308 87.7141C94.0749 87.7141 95.0023 88.6415 95.0023 89.7855C95.0023 90.9296 94.0749 91.857 92.9308 91.857C91.7868 91.857 90.8594 90.9296 90.8594 89.7855C90.8594 88.6415 91.7868 87.7141 92.9308 87.7141Z" fill="#303038"/>
<path d="M97.0718 87.7141C98.2159 87.7141 99.1433 88.6415 99.1433 89.7855C99.1433 90.9296 98.2159 91.857 97.0718 91.857C95.9278 91.857 95.0004 90.9296 95.0004 89.7855C95.0004 88.6415 95.9278 87.7141 97.0718 87.7141Z" fill="#303038"/>
<path d="M105.359 87.7143C106.503 87.7143 107.431 88.6417 107.431 89.7857C107.431 90.9298 106.503 91.8571 105.359 91.8571C104.215 91.8571 103.288 90.9298 103.288 89.7857C103.288 88.6417 104.215 87.7143 105.359 87.7143Z" fill="#303038"/>
<path d="M43.2164 91.8572C44.3605 91.8572 45.2879 92.7846 45.2879 93.9286C45.2879 95.0727 44.3605 96 43.2164 96C42.0724 96 41.145 95.0727 41.145 93.9286C41.145 92.7846 42.0724 91.8572 43.2164 91.8572Z" fill="#303038"/>
<path d="M47.3591 91.8572C48.5032 91.8572 49.4306 92.7846 49.4306 93.9286C49.4306 95.0727 48.5032 96 47.3591 96C46.2151 96 45.2877 95.0727 45.2877 93.9286C45.2877 92.7846 46.2151 91.8572 47.3591 91.8572Z" fill="#303038"/>
<path d="M51.5018 91.8572C52.6459 91.8572 53.5733 92.7846 53.5733 93.9286C53.5733 95.0727 52.6459 96 51.5018 96C50.3578 96 49.4304 95.0727 49.4304 93.9286C49.4304 92.7846 50.3578 91.8572 51.5018 91.8572Z" fill="#303038"/>
<path d="M59.7874 91.8573C60.9315 91.8573 61.8588 92.7847 61.8588 93.9287C61.8588 95.0728 60.9315 96.0002 59.7874 96.0002C58.6434 96.0002 57.716 95.0728 57.716 93.9287C57.716 92.7847 58.6434 91.8573 59.7874 91.8573Z" fill="#303038"/>
<path d="M68.0718 91.8573C69.2159 91.8573 70.1433 92.7847 70.1433 93.9287C70.1433 95.0728 69.2159 96.0002 68.0718 96.0002C66.9278 96.0002 66.0004 95.0728 66.0004 93.9287C66.0004 92.7847 66.9278 91.8573 68.0718 91.8573Z" fill="#303038"/>
<path d="M72.2164 91.8572C73.3605 91.8572 74.2879 92.7846 74.2879 93.9286C74.2879 95.0727 73.3605 96 72.2164 96C71.0724 96 70.145 95.0727 70.145 93.9286C70.145 92.7846 71.0724 91.8572 72.2164 91.8572Z" fill="#303038"/>
<path d="M76.3591 91.8572C77.5032 91.8572 78.4306 92.7846 78.4306 93.9286C78.4306 95.0727 77.5032 96 76.3591 96C75.2151 96 74.2877 95.0727 74.2877 93.9286C74.2877 92.7846 75.2151 91.8572 76.3591 91.8572Z" fill="#303038"/>
<path d="M80.5018 91.8572C81.6459 91.8572 82.5732 92.7846 82.5732 93.9286C82.5732 95.0727 81.6459 96 80.5018 96C79.3578 96 78.4304 95.0727 78.4304 93.9286C78.4304 92.7846 79.3578 91.8572 80.5018 91.8572Z" fill="#303038"/>
<path d="M84.6464 91.8573C85.7905 91.8573 86.7179 92.7847 86.7179 93.9287C86.7179 95.0728 85.7905 96.0002 84.6464 96.0002C83.5024 96.0002 82.575 95.0728 82.575 93.9287C82.575 92.7847 83.5024 91.8573 84.6464 91.8573Z" fill="#303038"/>
<path d="M88.7874 91.8573C89.9315 91.8573 90.8588 92.7847 90.8588 93.9287C90.8588 95.0728 89.9315 96.0002 88.7874 96.0002C87.6434 96.0002 86.716 95.0728 86.716 93.9287C86.716 92.7847 87.6434 91.8573 88.7874 91.8573Z" fill="#303038"/>
<path d="M92.9308 91.8573C94.0749 91.8573 95.0023 92.7847 95.0023 93.9287C95.0023 95.0728 94.0749 96.0002 92.9308 96.0002C91.7868 96.0002 90.8594 95.0728 90.8594 93.9287C90.8594 92.7847 91.7868 91.8573 92.9308 91.8573Z" fill="#303038"/>
<path d="M97.0718 91.8573C98.2159 91.8573 99.1433 92.7847 99.1433 93.9287C99.1433 95.0728 98.2159 96.0002 97.0718 96.0002C95.9278 96.0002 95.0004 95.0728 95.0004 93.9287C95.0004 92.7847 95.9278 91.8573 97.0718 91.8573Z" fill="#303038"/>
<path d="M101.216 91.8572C102.36 91.8572 103.288 92.7846 103.288 93.9286C103.288 95.0727 102.36 96 101.216 96C100.072 96 99.145 95.0727 99.145 93.9286C99.145 92.7846 100.072 91.8572 101.216 91.8572Z" fill="#303038"/>
<path d="M109.502 91.8572C110.646 91.8572 111.573 92.7846 111.573 93.9286C111.573 95.0727 110.646 96 109.502 96C108.358 96 107.43 95.0727 107.43 93.9286C107.43 92.7846 108.358 91.8572 109.502 91.8572Z" fill="#303038"/>
<path d="M43.2164 96C44.3605 96 45.2879 96.9274 45.2879 98.0714C45.2879 99.2155 44.3605 100.143 43.2164 100.143C42.0724 100.143 41.145 99.2155 41.145 98.0714C41.145 96.9274 42.0724 96 43.2164 96Z" fill="#303038"/>
<path d="M47.3591 96C48.5032 96 49.4306 96.9274 49.4306 98.0714C49.4306 99.2155 48.5032 100.143 47.3591 100.143C46.2151 100.143 45.2877 99.2155 45.2877 98.0714C45.2877 96.9274 46.2151 96 47.3591 96Z" fill="#303038"/>
<path d="M72.2164 96C73.3605 96 74.2879 96.9274 74.2879 98.0714C74.2879 99.2155 73.3605 100.143 72.2164 100.143C71.0724 100.143 70.145 99.2155 70.145 98.0714C70.145 96.9274 71.0724 96 72.2164 96Z" fill="#303038"/>
<path d="M76.3591 96C77.5032 96 78.4306 96.9274 78.4306 98.0714C78.4306 99.2155 77.5032 100.143 76.3591 100.143C75.2151 100.143 74.2877 99.2155 74.2877 98.0714C74.2877 96.9274 75.2151 96 76.3591 96Z" fill="#303038"/>
<path d="M80.5018 96C81.6459 96 82.5732 96.9274 82.5732 98.0714C82.5732 99.2155 81.6459 100.143 80.5018 100.143C79.3578 100.143 78.4304 99.2155 78.4304 98.0714C78.4304 96.9274 79.3578 96 80.5018 96Z" fill="#303038"/>
<path d="M84.6464 96.0005C85.7905 96.0005 86.7179 96.9279 86.7179 98.0719C86.7179 99.216 85.7905 100.143 84.6464 100.143C83.5024 100.143 82.575 99.216 82.575 98.0719C82.575 96.9279 83.5024 96.0005 84.6464 96.0005Z" fill="#303038"/>
<path d="M88.7874 96.0005C89.9315 96.0005 90.8588 96.9279 90.8588 98.0719C90.8588 99.216 89.9315 100.143 88.7874 100.143C87.6434 100.143 86.716 99.216 86.716 98.0719C86.716 96.9279 87.6434 96.0005 88.7874 96.0005Z" fill="#303038"/>
<path d="M101.216 96C102.36 96 103.288 96.9274 103.288 98.0714C103.288 99.2155 102.36 100.143 101.216 100.143C100.072 100.143 99.145 99.2155 99.145 98.0714C99.145 96.9274 100.072 96 101.216 96Z" fill="#303038"/>
<path d="M105.359 96C106.503 96 107.431 96.9274 107.431 98.0714C107.431 99.2155 106.503 100.143 105.359 100.143C104.215 100.143 103.288 99.2155 103.288 98.0714C103.288 96.9274 104.215 96 105.359 96Z" fill="#303038"/>
<path d="M109.502 96C110.646 96 111.573 96.9274 111.573 98.0714C111.573 99.2155 110.646 100.143 109.502 100.143C108.358 100.143 107.43 99.2155 107.43 98.0714C107.43 96.9274 108.358 96 109.502 96Z" fill="#303038"/>
<path d="M43.2164 100.143C44.3605 100.143 45.2879 101.07 45.2879 102.214C45.2879 103.358 44.3605 104.286 43.2164 104.286C42.0724 104.286 41.145 103.358 41.145 102.214C41.145 101.07 42.0724 100.143 43.2164 100.143Z" fill="#303038"/>
<path d="M47.3591 100.143C48.5032 100.143 49.4306 101.07 49.4306 102.214C49.4306 103.358 48.5032 104.286 47.3591 104.286C46.2151 104.286 45.2877 103.358 45.2877 102.214C45.2877 101.07 46.2151 100.143 47.3591 100.143Z" fill="#303038"/>
<path d="M55.6464 100.143C56.7905 100.143 57.7179 101.07 57.7179 102.214C57.7179 103.358 56.7905 104.285 55.6464 104.285C54.5024 104.285 53.575 103.358 53.575 102.214C53.575 101.07 54.5024 100.143 55.6464 100.143Z" fill="#303038"/>
<path d="M59.7874 100.143C60.9315 100.143 61.8588 101.07 61.8588 102.214C61.8588 103.358 60.9315 104.285 59.7874 104.285C58.6434 104.285 57.716 103.358 57.716 102.214C57.716 101.07 58.6434 100.143 59.7874 100.143Z" fill="#303038"/>
<path d="M76.3591 100.143C77.5032 100.143 78.4306 101.07 78.4306 102.214C78.4306 103.358 77.5032 104.286 76.3591 104.286C75.2151 104.286 74.2877 103.358 74.2877 102.214C74.2877 101.07 75.2151 100.143 76.3591 100.143Z" fill="#303038"/>
<path d="M80.5018 100.143C81.6459 100.143 82.5732 101.07 82.5732 102.214C82.5732 103.358 81.6459 104.286 80.5018 104.286C79.3578 104.286 78.4304 103.358 78.4304 102.214C78.4304 101.07 79.3578 100.143 80.5018 100.143Z" fill="#303038"/>
<path d="M88.7874 100.143C89.9315 100.143 90.8588 101.07 90.8588 102.214C90.8588 103.358 89.9315 104.285 88.7874 104.285C87.6434 104.285 86.716 103.358 86.716 102.214C86.716 101.07 87.6434 100.143 88.7874 100.143Z" fill="#303038"/>
<path d="M101.216 100.143C102.36 100.143 103.288 101.07 103.288 102.214C103.288 103.358 102.36 104.286 101.216 104.286C100.072 104.286 99.145 103.358 99.145 102.214C99.145 101.07 100.072 100.143 101.216 100.143Z" fill="#303038"/>
<path d="M109.502 100.143C110.646 100.143 111.573 101.07 111.573 102.214C111.573 103.358 110.646 104.286 109.502 104.286C108.358 104.286 107.43 103.358 107.43 102.214C107.43 101.07 108.358 100.143 109.502 100.143Z" fill="#303038"/>
<path d="M47.3591 104.286C48.5032 104.286 49.4306 105.213 49.4306 106.357C49.4306 107.501 48.5032 108.429 47.3591 108.429C46.2151 108.429 45.2877 107.501 45.2877 106.357C45.2877 105.213 46.2151 104.286 47.3591 104.286Z" fill="#303038"/>
<path d="M55.6464 104.286C56.7905 104.286 57.7179 105.213 57.7179 106.357C57.7179 107.501 56.7905 108.429 55.6464 108.429C54.5024 108.429 53.575 107.501 53.575 106.357C53.575 105.213 54.5024 104.286 55.6464 104.286Z" fill="#303038"/>
<path d="M68.0718 104.286C69.2159 104.286 70.1433 105.213 70.1433 106.357C70.1433 107.501 69.2159 108.429 68.0718 108.429C66.9278 108.429 66.0004 107.501 66.0004 106.357C66.0004 105.213 66.9278 104.286 68.0718 104.286Z" fill="#303038"/>
<path d="M72.2164 104.286C73.3605 104.286 74.2879 105.213 74.2879 106.357C74.2879 107.501 73.3605 108.429 72.2164 108.429C71.0724 108.429 70.145 107.501 70.145 106.357C70.145 105.213 71.0724 104.286 72.2164 104.286Z" fill="#303038"/>
<path d="M76.3591 104.286C77.5032 104.286 78.4306 105.213 78.4306 106.357C78.4306 107.501 77.5032 108.429 76.3591 108.429C75.2151 108.429 74.2877 107.501 74.2877 106.357C74.2877 105.213 75.2151 104.286 76.3591 104.286Z" fill="#303038"/>
<path d="M88.7874 104.286C89.9315 104.286 90.8588 105.213 90.8588 106.357C90.8588 107.501 89.9315 108.429 88.7874 108.429C87.6434 108.429 86.716 107.501 86.716 106.357C86.716 105.213 87.6434 104.286 88.7874 104.286Z" fill="#303038"/>
<path d="M92.9308 104.286C94.0749 104.286 95.0023 105.213 95.0023 106.357C95.0023 107.501 94.0749 108.429 92.9308 108.429C91.7868 108.429 90.8594 107.501 90.8594 106.357C90.8594 105.213 91.7868 104.286 92.9308 104.286Z" fill="#303038"/>
<path d="M97.0718 104.286C98.2159 104.286 99.1433 105.213 99.1433 106.357C99.1433 107.501 98.2159 108.429 97.0718 108.429C95.9278 108.429 95.0004 107.501 95.0004 106.357C95.0004 105.213 95.9278 104.286 97.0718 104.286Z" fill="#303038"/>
<path d="M109.502 104.286C110.646 104.286 111.573 105.213 111.573 106.357C111.573 107.501 110.646 108.429 109.502 108.429C108.358 108.429 107.43 107.501 107.43 106.357C107.43 105.213 108.358 104.286 109.502 104.286Z" fill="#303038"/>
<path d="M43.2164 108.429C44.3605 108.429 45.2879 109.356 45.2879 110.5C45.2879 111.644 44.3605 112.571 43.2164 112.571C42.0724 112.571 41.145 111.644 41.145 110.5C41.145 109.356 42.0724 108.429 43.2164 108.429Z" fill="#303038"/>
<path d="M47.3591 108.429C48.5032 108.429 49.4306 109.356 49.4306 110.5C49.4306 111.644 48.5032 112.571 47.3591 112.571C46.2151 112.571 45.2877 111.644 45.2877 110.5C45.2877 109.356 46.2151 108.429 47.3591 108.429Z" fill="#303038"/>
<path d="M55.6464 108.429C56.7905 108.429 57.7179 109.356 57.7179 110.5C57.7179 111.644 56.7905 112.572 55.6464 112.572C54.5024 112.572 53.575 111.644 53.575 110.5C53.575 109.356 54.5024 108.429 55.6464 108.429Z" fill="#303038"/>
<path d="M72.2164 108.429C73.3605 108.429 74.2879 109.356 74.2879 110.5C74.2879 111.644 73.3605 112.571 72.2164 112.571C71.0724 112.571 70.145 111.644 70.145 110.5C70.145 109.356 71.0724 108.429 72.2164 108.429Z" fill="#303038"/>
<path d="M84.6464 108.429C85.7905 108.429 86.7179 109.356 86.7179 110.5C86.7179 111.644 85.7905 112.572 84.6464 112.572C83.5024 112.572 82.575 111.644 82.575 110.5C82.575 109.356 83.5024 108.429 84.6464 108.429Z" fill="#303038"/>
<path d="M88.7874 108.429C89.9315 108.429 90.8588 109.356 90.8588 110.5C90.8588 111.644 89.9315 112.572 88.7874 112.572C87.6434 112.572 86.716 111.644 86.716 110.5C86.716 109.356 87.6434 108.429 88.7874 108.429Z" fill="#303038"/>
<path d="M92.9308 108.429C94.0749 108.429 95.0023 109.356 95.0023 110.5C95.0023 111.644 94.0749 112.572 92.9308 112.572C91.7868 112.572 90.8594 111.644 90.8594 110.5C90.8594 109.356 91.7868 108.429 92.9308 108.429Z" fill="#303038"/>
<path d="M97.0718 108.429C98.2159 108.429 99.1433 109.356 99.1433 110.5C99.1433 111.644 98.2159 112.572 97.0718 112.572C95.9278 112.572 95.0004 111.644 95.0004 110.5C95.0004 109.356 95.9278 108.429 97.0718 108.429Z" fill="#303038"/>
<path d="M101.216 108.429C102.36 108.429 103.288 109.356 103.288 110.5C103.288 111.644 102.36 112.571 101.216 112.571C100.072 112.571 99.145 111.644 99.145 110.5C99.145 109.356 100.072 108.429 101.216 108.429Z" fill="#303038"/>
<path d="M105.359 108.429C106.503 108.429 107.431 109.356 107.431 110.5C107.431 111.644 106.503 112.571 105.359 112.571C104.215 112.571 103.288 111.644 103.288 110.5C103.288 109.356 104.215 108.429 105.359 108.429Z" fill="#303038"/>
<path d="M109.502 108.429C110.646 108.429 111.573 109.356 111.573 110.5C111.573 111.644 110.646 112.571 109.502 112.571C108.358 112.571 107.43 111.644 107.43 110.5C107.43 109.356 108.358 108.429 109.502 108.429Z" fill="#303038"/>
<path d="M27.0991 9.00198H17.9009C13.4181 9.00198 9.62023 11.9638 8.406 16.0119C8.28043 16.4306 8.18241 16.861 8.11426 17.3009C8.03915 17.7864 8 18.2834 8 18.7895V28.2061C8 33.6056 12.4428 37.9965 17.9009 37.9965L22.5 37.9973L27.0991 37.9962C32.5569 37.9962 37 33.6053 37 28.2058V18.7895C37 13.3926 32.5572 9.00198 27.0991 9.00198ZM32.65 28.2061C32.65 31.2058 30.1601 33.6465 27.098 33.6465L22.5 33.6473L17.902 33.6462C14.8399 33.6462 12.35 31.2055 12.35 28.2061V18.7895C12.35 17.8525 12.593 16.9703 13.0208 16.1995C13.4326 15.458 14.0152 14.8203 14.7167 14.3374C15.6186 13.7165 16.7168 13.352 17.9006 13.352H27.0991C30.1601 13.352 32.65 15.7912 32.65 18.7895V28.2061Z" fill="#303038"/>
<path d="M101.675 9.00198H92.4763C87.9935 9.00198 84.1956 11.9638 82.9814 16.0119C82.8558 16.4306 82.7578 16.861 82.6897 17.3009C82.6145 17.7864 82.5754 18.2834 82.5754 18.7895V28.2061C82.5754 33.6056 87.0182 37.9965 92.4763 37.9965L97.0754 37.9973L101.675 37.9962C107.132 37.9962 111.575 33.6053 111.575 28.2058V18.7895C111.575 13.3926 107.133 9.00198 101.675 9.00198ZM107.225 28.2061C107.225 31.2058 104.735 33.6465 101.673 33.6465L97.0754 33.6473L92.4774 33.6462C89.4153 33.6462 86.9254 31.2055 86.9254 28.2061V18.7895C86.9254 17.8525 87.1684 16.9703 87.5962 16.1995C88.008 15.458 88.5906 14.8203 89.2921 14.3374C90.194 13.7165 91.2922 13.352 92.476 13.352H101.675C104.735 13.352 107.225 15.7912 107.225 18.7895V28.2061Z" fill="#303038"/>
<path d="M27.0991 83.5737H17.9009C13.4181 83.5737 9.62023 86.5355 8.406 90.5836C8.28043 91.0024 8.18241 91.4327 8.11426 91.8727C8.03915 92.3581 8 92.8552 8 93.3612V102.778C8 108.177 12.4428 112.568 17.9009 112.568L22.5 112.569L27.0991 112.568C32.5569 112.568 37 108.177 37 102.778V93.3612C37 87.9643 32.5572 83.5737 27.0991 83.5737ZM32.65 102.778C32.65 105.778 30.1601 108.218 27.098 108.218L22.5 108.219L17.902 108.218C14.8399 108.218 12.35 105.777 12.35 102.778V93.3612C12.35 92.4242 12.593 91.5421 13.0208 90.7712C13.4326 90.0297 14.0152 89.392 14.7167 88.9092C15.6186 88.2883 16.7168 87.9237 17.9006 87.9237H27.0991C30.1601 87.9237 32.65 90.3629 32.65 93.3612V102.778Z" fill="#303038"/>
<path d="M28.7163 17.2858H16.2877V29.7143H28.7163V17.2858Z" fill="#303038"/>
<path d="M103.288 17.2857H90.8594V29.7143H103.288V17.2857Z" fill="#303038"/>
<path d="M28.7163 91.8572H16.2877V104.286H28.7163V91.8572Z" fill="#303038"/>
<rect x="43" y="43" width="35" height="35" rx="17.5" fill="#DD472E"/>
<path d="M69.6731 56.2399C69.5669 55.8452 69.3589 55.4854 69.0699 55.1965C68.7809 54.9075 68.4211 54.6995 68.0265 54.5933C66.5732 54.2 60.7336 54.2 60.7336 54.2C60.7336 54.2 54.8939 54.2 53.4406 54.5933C53.046 54.6995 52.6862 54.9075 52.3972 55.1965C52.1083 55.4854 51.9003 55.8452 51.794 56.2399C51.5227 57.722 51.391 59.2263 51.4007 60.733C51.391 62.2397 51.5227 63.744 51.794 65.226C51.9003 65.6207 52.1083 65.9805 52.3972 66.2694C52.6862 66.5584 53.046 66.7664 53.4406 66.8726C54.8939 67.2659 60.7336 67.2659 60.7336 67.2659C60.7336 67.2659 66.5732 67.2659 68.0265 66.8726C68.4211 66.7664 68.7809 66.5584 69.0699 66.2694C69.3589 65.9805 69.5669 65.6207 69.6731 65.226C69.9444 63.744 70.0761 62.2397 70.0664 60.733C70.0761 59.2263 69.9444 57.722 69.6731 56.2399ZM58.867 63.5328V57.9331L63.7134 60.733L58.867 63.5328Z" fill="white"/>
<rect y="124" width="120" height="28" rx="5" fill="#303038"/>
<path d="M33.784 145.192C32.824 145.192 32.008 145.021 31.336 144.68C30.6747 144.339 30.104 143.891 29.624 143.336L31.048 141.96C31.432 142.408 31.8587 142.749 32.328 142.984C32.808 143.219 33.336 143.336 33.912 143.336C34.5627 143.336 35.0533 143.197 35.384 142.92C35.7147 142.632 35.88 142.248 35.88 141.768C35.88 141.395 35.7733 141.091 35.56 140.856C35.3467 140.621 34.9467 140.451 34.36 140.344L33.304 140.184C31.0747 139.832 29.96 138.749 29.96 136.936C29.96 136.435 30.0507 135.981 30.232 135.576C30.424 135.171 30.696 134.824 31.048 134.536C31.4 134.248 31.8213 134.029 32.312 133.88C32.8133 133.72 33.3787 133.64 34.008 133.64C34.8507 133.64 35.5867 133.779 36.216 134.056C36.8453 134.333 37.384 134.744 37.832 135.288L36.392 136.648C36.1147 136.307 35.7787 136.029 35.384 135.816C34.9893 135.603 34.4933 135.496 33.896 135.496C33.288 135.496 32.8293 135.613 32.52 135.848C32.2213 136.072 32.072 136.392 32.072 136.808C32.072 137.235 32.1947 137.549 32.44 137.752C32.6853 137.955 33.08 138.104 33.624 138.2L34.664 138.392C35.7947 138.595 36.6267 138.957 37.16 139.48C37.704 139.992 37.976 140.712 37.976 141.64C37.976 142.173 37.88 142.659 37.688 143.096C37.5067 143.523 37.2347 143.896 36.872 144.216C36.52 144.525 36.0827 144.765 35.56 144.936C35.048 145.107 34.456 145.192 33.784 145.192ZM43.2613 145.192C42.6426 145.192 42.0933 145.091 41.6133 144.888C41.1332 144.685 40.7279 144.392 40.3973 144.008C40.0773 143.624 39.8319 143.165 39.6613 142.632C39.4906 142.088 39.4053 141.48 39.4053 140.808C39.4053 140.136 39.4906 139.533 39.6613 139C39.8319 138.467 40.0773 138.013 40.3973 137.64C40.7279 137.256 41.1332 136.963 41.6133 136.76C42.0933 136.557 42.6426 136.456 43.2613 136.456C44.1039 136.456 44.7973 136.643 45.3413 137.016C45.8959 137.389 46.2959 137.907 46.5413 138.568L44.8613 139.32C44.7653 138.968 44.5839 138.68 44.3173 138.456C44.0613 138.221 43.7093 138.104 43.2613 138.104C42.6853 138.104 42.2533 138.285 41.9653 138.648C41.6879 139.011 41.5493 139.485 41.5493 140.072V141.592C41.5493 142.179 41.6879 142.653 41.9653 143.016C42.2533 143.368 42.6853 143.544 43.2613 143.544C43.7519 143.544 44.1306 143.421 44.3973 143.176C44.6639 142.92 44.8719 142.605 45.0213 142.232L46.5893 142.984C46.3119 143.72 45.8906 144.275 45.3253 144.648C44.7599 145.011 44.0719 145.192 43.2613 145.192ZM54.3124 145C53.8644 145 53.507 144.872 53.2404 144.616C52.9844 144.349 52.8244 143.997 52.7604 143.56H52.6644C52.5257 144.104 52.243 144.515 51.8164 144.792C51.3897 145.059 50.8617 145.192 50.2324 145.192C49.379 145.192 48.723 144.968 48.2644 144.52C47.8057 144.072 47.5764 143.475 47.5764 142.728C47.5764 141.864 47.8857 141.224 48.5044 140.808C49.123 140.381 50.003 140.168 51.1444 140.168H52.5684V139.56C52.5684 139.091 52.4457 138.728 52.2004 138.472C51.955 138.216 51.5604 138.088 51.0164 138.088C50.5364 138.088 50.147 138.195 49.8484 138.408C49.5604 138.611 49.315 138.856 49.1124 139.144L47.8964 138.056C48.2057 137.576 48.6164 137.192 49.1284 136.904C49.6404 136.605 50.3177 136.456 51.1604 136.456C52.291 136.456 53.1497 136.712 53.7364 137.224C54.323 137.736 54.6164 138.472 54.6164 139.432V143.368H55.4484V145H54.3124ZM50.9204 143.704C51.379 143.704 51.7684 143.603 52.0884 143.4C52.4084 143.197 52.5684 142.899 52.5684 142.504V141.4H51.2564C50.1897 141.4 49.6564 141.741 49.6564 142.424V142.696C49.6564 143.037 49.763 143.293 49.9764 143.464C50.2004 143.624 50.515 143.704 50.9204 143.704ZM57.1059 145V136.648H59.1539V138.04H59.2339C59.4045 137.592 59.6712 137.219 60.0339 136.92C60.4072 136.611 60.9192 136.456 61.5699 136.456C62.4339 136.456 63.0952 136.739 63.5539 137.304C64.0125 137.869 64.2419 138.675 64.2419 139.72V145H62.1939V139.928C62.1939 139.331 62.0872 138.883 61.8739 138.584C61.6605 138.285 61.3085 138.136 60.8179 138.136C60.6045 138.136 60.3965 138.168 60.1939 138.232C60.0019 138.285 59.8259 138.371 59.6659 138.488C59.5165 138.595 59.3939 138.733 59.2979 138.904C59.2019 139.064 59.1539 139.256 59.1539 139.48V145H57.1059ZM78.8534 136.984H78.7894L77.9254 138.76L75.6374 142.984L73.3494 138.76L72.4854 136.984H72.4214V145H70.4214V133.832H72.8054L75.6694 139.288H75.7334L78.5654 133.832H80.8534V145H78.8534V136.984ZM86.7319 145.192C86.1132 145.192 85.5585 145.091 85.0679 144.888C84.5879 144.675 84.1772 144.381 83.8359 144.008C83.5052 143.624 83.2492 143.165 83.0679 142.632C82.8865 142.088 82.7959 141.48 82.7959 140.808C82.7959 140.147 82.8812 139.549 83.0519 139.016C83.2332 138.483 83.4892 138.029 83.8199 137.656C84.1505 137.272 84.5559 136.979 85.0359 136.776C85.5159 136.563 86.0599 136.456 86.6679 136.456C87.3185 136.456 87.8839 136.568 88.3639 136.792C88.8439 137.016 89.2385 137.32 89.5479 137.704C89.8572 138.088 90.0865 138.536 90.2359 139.048C90.3959 139.549 90.4759 140.088 90.4759 140.664V141.336H84.9239V141.544C84.9239 142.152 85.0945 142.643 85.4359 143.016C85.7772 143.379 86.2839 143.56 86.9559 143.56C87.4679 143.56 87.8839 143.453 88.2039 143.24C88.5345 143.027 88.8279 142.755 89.0839 142.424L90.1879 143.656C89.8465 144.136 89.3772 144.515 88.7799 144.792C88.1932 145.059 87.5105 145.192 86.7319 145.192ZM86.6999 137.992C86.1559 137.992 85.7239 138.173 85.4039 138.536C85.0839 138.899 84.9239 139.368 84.9239 139.944V140.072H88.3479V139.928C88.3479 139.352 88.2039 138.888 87.9159 138.536C87.6385 138.173 87.2332 137.992 86.6999 137.992Z" fill="white"/>
</svg>
