<svg width="100" height="100" viewBox="0 0 100 100" fill="none" xmlns="http://www.w3.org/2000/svg">
<rect width="100" height="100" rx="5" fill="white"/>
<path d="M39.2854 5.35735C40.2717 5.35735 41.0712 6.15685 41.0712 7.14306C41.0712 8.12932 40.2717 8.92877 39.2854 8.92877C38.2992 8.92877 37.4997 8.12932 37.4997 7.14306C37.4997 6.15685 38.2992 5.35735 39.2854 5.35735Z" fill="#303038"/>
<path d="M46.4288 5.35776C47.4151 5.35776 48.2146 6.15726 48.2146 7.14347C48.2146 8.12974 47.4151 8.92919 46.4288 8.92919C45.4426 8.92919 44.6431 8.12974 44.6431 7.14347C44.6431 6.15726 45.4426 5.35776 46.4288 5.35776Z" fill="#303038"/>
<path d="M64.2854 5.35735C65.2717 5.35735 66.0712 6.15685 66.0712 7.14306C66.0712 8.12932 65.2717 8.92877 64.2854 8.92877C63.2992 8.92877 62.4997 8.12932 62.4997 7.14306C62.4997 6.15685 63.2992 5.35735 64.2854 5.35735Z" fill="#303038"/>
<path d="M39.2854 8.92877C40.2717 8.92877 41.0712 9.72827 41.0712 10.7145C41.0712 11.7008 40.2717 12.5002 39.2854 12.5002C38.2992 12.5002 37.4997 11.7008 37.4997 10.7145C37.4997 9.72827 38.2992 8.92877 39.2854 8.92877Z" fill="#303038"/>
<path d="M46.4288 8.9285C47.4151 8.9285 48.2146 9.728 48.2146 10.7142C48.2146 11.7005 47.4151 12.4999 46.4288 12.4999C45.4426 12.4999 44.6431 11.7005 44.6431 10.7142C44.6431 9.728 45.4426 8.9285 46.4288 8.9285Z" fill="#303038"/>
<path d="M60.714 8.92877C61.7003 8.92877 62.4997 9.72827 62.4997 10.7145C62.4997 11.7008 61.7003 12.5002 60.714 12.5002C59.7278 12.5002 58.9283 11.7008 58.9283 10.7145C58.9283 9.72827 59.7278 8.92877 60.714 8.92877Z" fill="#303038"/>
<path d="M35.714 12.5002C36.7003 12.5002 37.4997 13.2997 37.4997 14.2859C37.4997 15.2722 36.7003 16.0716 35.714 16.0716C34.7278 16.0716 33.9283 15.2722 33.9283 14.2859C33.9283 13.2997 34.7278 12.5002 35.714 12.5002Z" fill="#303038"/>
<path d="M42.8569 12.5002C43.8431 12.5002 44.6426 13.2997 44.6426 14.2859C44.6426 15.2722 43.8431 16.0716 42.8569 16.0716C41.8706 16.0716 41.0711 15.2722 41.0711 14.2859C41.0711 13.2997 41.8706 12.5002 42.8569 12.5002Z" fill="#303038"/>
<path d="M57.142 12.5002C58.1283 12.5002 58.9277 13.2997 58.9277 14.2859C58.9277 15.2722 58.1283 16.0716 57.142 16.0716C56.1558 16.0716 55.3563 15.2722 55.3563 14.2859C55.3563 13.2997 56.1558 12.5002 57.142 12.5002Z" fill="#303038"/>
<path d="M64.2854 12.5002C65.2717 12.5002 66.0712 13.2997 66.0712 14.2859C66.0712 15.2722 65.2717 16.0716 64.2854 16.0716C63.2992 16.0716 62.4997 15.2722 62.4997 14.2859C62.4997 13.2997 63.2992 12.5002 64.2854 12.5002Z" fill="#303038"/>
<path d="M35.714 16.0716C36.7003 16.0716 37.4997 16.8711 37.4997 17.8573C37.4997 18.8436 36.7003 19.6431 35.714 19.6431C34.7278 19.6431 33.9283 18.8436 33.9283 17.8573C33.9283 16.8711 34.7278 16.0716 35.714 16.0716Z" fill="#303038"/>
<path d="M39.2854 16.0716C40.2717 16.0716 41.0712 16.8711 41.0712 17.8573C41.0712 18.8436 40.2717 19.6431 39.2854 19.6431C38.2992 19.6431 37.4997 18.8436 37.4997 17.8573C37.4997 16.8711 38.2992 16.0716 39.2854 16.0716Z" fill="#303038"/>
<path d="M42.8569 16.0716C43.8431 16.0716 44.6426 16.8711 44.6426 17.8573C44.6426 18.8436 43.8431 19.6431 42.8569 19.6431C41.8706 19.6431 41.0711 18.8436 41.0711 17.8573C41.0711 16.8711 41.8706 16.0716 42.8569 16.0716Z" fill="#303038"/>
<path d="M53.5703 16.0719C54.5566 16.0719 55.356 16.8714 55.356 17.8576C55.356 18.8439 54.5566 19.6433 53.5703 19.6433C52.5841 19.6433 51.7846 18.8439 51.7846 17.8576C51.7846 16.8714 52.5841 16.0719 53.5703 16.0719Z" fill="#303038"/>
<path d="M57.142 16.0719C58.1283 16.0719 58.9277 16.8714 58.9277 17.8576C58.9277 18.8439 58.1283 19.6433 57.142 19.6433C56.1558 19.6433 55.3563 18.8439 55.3563 17.8576C55.3563 16.8714 56.1558 16.0719 57.142 16.0719Z" fill="#303038"/>
<path d="M35.714 19.6431C36.7003 19.6431 37.4997 20.4426 37.4997 21.4288C37.4997 22.415 36.7003 23.2145 35.714 23.2145C34.7278 23.2145 33.9283 22.415 33.9283 21.4288C33.9283 20.4426 34.7278 19.6431 35.714 19.6431Z" fill="#303038"/>
<path d="M50.0006 19.6426C50.9868 19.6426 51.7863 20.4421 51.7863 21.4284C51.7863 22.4146 50.9868 23.2141 50.0006 23.2141C49.0143 23.2141 48.2148 22.4146 48.2148 21.4284C48.2148 20.4421 49.0143 19.6426 50.0006 19.6426Z" fill="#303038"/>
<path d="M57.142 19.6426C58.1283 19.6426 58.9277 20.4421 58.9277 21.4284C58.9277 22.4146 58.1283 23.2141 57.142 23.2141C56.1558 23.2141 55.3563 22.4146 55.3563 21.4284C55.3563 20.4421 56.1558 19.6426 57.142 19.6426Z" fill="#303038"/>
<path d="M35.714 23.2145C36.7003 23.2145 37.4997 24.014 37.4997 25.0002C37.4997 25.9865 36.7003 26.7859 35.714 26.7859C34.7278 26.7859 33.9283 25.9865 33.9283 25.0002C33.9283 24.014 34.7278 23.2145 35.714 23.2145Z" fill="#303038"/>
<path d="M39.2854 23.2145C40.2717 23.2145 41.0712 24.014 41.0712 25.0002C41.0712 25.9865 40.2717 26.7859 39.2854 26.7859C38.2992 26.7859 37.4997 25.9865 37.4997 25.0002C37.4997 24.014 38.2992 23.2145 39.2854 23.2145Z" fill="#303038"/>
<path d="M42.8569 23.2145C43.8431 23.2145 44.6426 24.014 44.6426 25.0002C44.6426 25.9865 43.8431 26.7859 42.8569 26.7859C41.8706 26.7859 41.0711 25.9865 41.0711 25.0002C41.0711 24.014 41.8706 23.2145 42.8569 23.2145Z" fill="#303038"/>
<path d="M57.142 23.2144C58.1283 23.2144 58.9277 24.0139 58.9277 25.0001C58.9277 25.9863 58.1283 26.7858 57.142 26.7858C56.1558 26.7858 55.3563 25.9863 55.3563 25.0001C55.3563 24.0139 56.1558 23.2144 57.142 23.2144Z" fill="#303038"/>
<path d="M60.714 23.2145C61.7003 23.2145 62.4997 24.014 62.4997 25.0002C62.4997 25.9865 61.7003 26.7859 60.714 26.7859C59.7278 26.7859 58.9283 25.9865 58.9283 25.0002C58.9283 24.014 59.7278 23.2145 60.714 23.2145Z" fill="#303038"/>
<path d="M64.2854 23.2145C65.2717 23.2145 66.0712 24.014 66.0712 25.0002C66.0712 25.9865 65.2717 26.7859 64.2854 26.7859C63.2992 26.7859 62.4997 25.9865 62.4997 25.0002C62.4997 24.014 63.2992 23.2145 64.2854 23.2145Z" fill="#303038"/>
<path d="M35.714 26.7859C36.7003 26.7859 37.4997 27.5854 37.4997 28.5716C37.4997 29.5579 36.7003 30.3573 35.714 30.3573C34.7278 30.3573 33.9283 29.5579 33.9283 28.5716C33.9283 27.5854 34.7278 26.7859 35.714 26.7859Z" fill="#303038"/>
<path d="M42.8569 26.7859C43.8431 26.7859 44.6426 27.5854 44.6426 28.5716C44.6426 29.5579 43.8431 30.3573 42.8569 30.3573C41.8706 30.3573 41.0711 29.5579 41.0711 28.5716C41.0711 27.5854 41.8706 26.7859 42.8569 26.7859Z" fill="#303038"/>
<path d="M50.0006 26.7861C50.9868 26.7861 51.7863 27.5856 51.7863 28.5718C51.7863 29.558 50.9868 30.3575 50.0006 30.3575C49.0143 30.3575 48.2148 29.558 48.2148 28.5718C48.2148 27.5856 49.0143 26.7861 50.0006 26.7861Z" fill="#303038"/>
<path d="M57.142 26.7861C58.1283 26.7861 58.9277 27.5856 58.9277 28.5718C58.9277 29.558 58.1283 30.3575 57.142 30.3575C56.1558 30.3575 55.3563 29.558 55.3563 28.5718C55.3563 27.5856 56.1558 26.7861 57.142 26.7861Z" fill="#303038"/>
<path d="M64.2854 26.7859C65.2717 26.7859 66.0712 27.5854 66.0712 28.5716C66.0712 29.5579 65.2717 30.3573 64.2854 30.3573C63.2992 30.3573 62.4997 29.5579 62.4997 28.5716C62.4997 27.5854 63.2992 26.7859 64.2854 26.7859Z" fill="#303038"/>
<path d="M35.714 30.3573C36.7003 30.3573 37.4997 31.1568 37.4997 32.1431C37.4997 33.1293 36.7003 33.9288 35.714 33.9288C34.7278 33.9288 33.9283 33.1293 33.9283 32.1431C33.9283 31.1568 34.7278 30.3573 35.714 30.3573Z" fill="#303038"/>
<path d="M42.8569 30.3573C43.8431 30.3573 44.6426 31.1568 44.6426 32.1431C44.6426 33.1293 43.8431 33.9288 42.8569 33.9288C41.8706 33.9288 41.0711 33.1293 41.0711 32.1431C41.0711 31.1568 41.8706 30.3573 42.8569 30.3573Z" fill="#303038"/>
<path d="M50.0006 30.3578C50.9868 30.3578 51.7863 31.1573 51.7863 32.1435C51.7863 33.1297 50.9868 33.9292 50.0006 33.9292C49.0143 33.9292 48.2148 33.1297 48.2148 32.1435C48.2148 31.1573 49.0143 30.3578 50.0006 30.3578Z" fill="#303038"/>
<path d="M57.142 30.3578C58.1283 30.3578 58.9277 31.1573 58.9277 32.1435C58.9277 33.1297 58.1283 33.9292 57.142 33.9292C56.1558 33.9292 55.3563 33.1297 55.3563 32.1435C55.3563 31.1573 56.1558 30.3578 57.142 30.3578Z" fill="#303038"/>
<path d="M60.714 30.3573C61.7003 30.3573 62.4997 31.1568 62.4997 32.1431C62.4997 33.1293 61.7003 33.9288 60.714 33.9288C59.7278 33.9288 58.9283 33.1293 58.9283 32.1431C58.9283 31.1568 59.7278 30.3573 60.714 30.3573Z" fill="#303038"/>
<path d="M64.2854 30.3573C65.2717 30.3573 66.0712 31.1568 66.0712 32.1431C66.0712 33.1293 65.2717 33.9288 64.2854 33.9288C63.2992 33.9288 62.4997 33.1293 62.4997 32.1431C62.4997 31.1568 63.2992 30.3573 64.2854 30.3573Z" fill="#303038"/>
<path d="M7.14201 33.9285C8.12827 33.9285 8.92772 34.728 8.92772 35.7142C8.92772 36.7005 8.12827 37.4999 7.14201 37.4999C6.15579 37.4999 5.35629 36.7005 5.35629 35.7142C5.35629 34.728 6.15579 33.9285 7.14201 33.9285Z" fill="#303038"/>
<path d="M14.2854 33.9288C15.2717 33.9288 16.0712 34.7283 16.0712 35.7145C16.0712 36.7008 15.2717 37.5002 14.2854 37.5002C13.2992 37.5002 12.4997 36.7008 12.4997 35.7145C12.4997 34.7283 13.2992 33.9288 14.2854 33.9288Z" fill="#303038"/>
<path d="M17.8569 33.9288C18.8431 33.9288 19.6426 34.7283 19.6426 35.7145C19.6426 36.7008 18.8431 37.5002 17.8569 37.5002C16.8706 37.5002 16.0711 36.7008 16.0711 35.7145C16.0711 34.7283 16.8706 33.9288 17.8569 33.9288Z" fill="#303038"/>
<path d="M21.4288 33.9285C22.4151 33.9285 23.2146 34.728 23.2146 35.7142C23.2146 36.7005 22.4151 37.4999 21.4288 37.4999C20.4426 37.4999 19.6431 36.7005 19.6431 35.7142C19.6431 34.728 20.4426 33.9285 21.4288 33.9285Z" fill="#303038"/>
<path d="M25.0006 33.9285C25.9868 33.9285 26.7863 34.728 26.7863 35.7142C26.7863 36.7005 25.9868 37.4999 25.0006 37.4999C24.0143 37.4999 23.2148 36.7005 23.2148 35.7142C23.2148 34.728 24.0143 33.9285 25.0006 33.9285Z" fill="#303038"/>
<path d="M28.5703 33.9285C29.5566 33.9285 30.356 34.728 30.356 35.7142C30.356 36.7005 29.5566 37.4999 28.5703 37.4999C27.5841 37.4999 26.7846 36.7005 26.7846 35.7142C26.7846 34.728 27.5841 33.9285 28.5703 33.9285Z" fill="#303038"/>
<path d="M50.0006 33.9285C50.9868 33.9285 51.7863 34.728 51.7863 35.7142C51.7863 36.7005 50.9868 37.4999 50.0006 37.4999C49.0143 37.4999 48.2148 36.7005 48.2148 35.7142C48.2148 34.728 49.0143 33.9285 50.0006 33.9285Z" fill="#303038"/>
<path d="M71.4288 33.9285C72.4151 33.9285 73.2146 34.728 73.2146 35.7142C73.2146 36.7005 72.4151 37.4999 71.4288 37.4999C70.4426 37.4999 69.6431 36.7005 69.6431 35.7142C69.6431 34.728 70.4426 33.9285 71.4288 33.9285Z" fill="#303038"/>
<path d="M75.0006 33.9285C75.9868 33.9285 76.7863 34.728 76.7863 35.7142C76.7863 36.7005 75.9868 37.4999 75.0006 37.4999C74.0143 37.4999 73.2148 36.7005 73.2148 35.7142C73.2148 34.728 74.0143 33.9285 75.0006 33.9285Z" fill="#303038"/>
<path d="M78.5703 33.9285C79.5566 33.9285 80.356 34.728 80.356 35.7142C80.356 36.7005 79.5566 37.4999 78.5703 37.4999C77.5841 37.4999 76.7846 36.7005 76.7846 35.7142C76.7846 34.728 77.5841 33.9285 78.5703 33.9285Z" fill="#303038"/>
<path d="M82.142 33.9285C83.1283 33.9285 83.9277 34.728 83.9277 35.7142C83.9277 36.7005 83.1283 37.4999 82.142 37.4999C81.1558 37.4999 80.3563 36.7005 80.3563 35.7142C80.3563 34.728 81.1558 33.9285 82.142 33.9285Z" fill="#303038"/>
<path d="M85.714 33.9288C86.7003 33.9288 87.4997 34.7283 87.4997 35.7145C87.4997 36.7008 86.7003 37.5002 85.714 37.5002C84.7278 37.5002 83.9283 36.7008 83.9283 35.7145C83.9283 34.7283 84.7278 33.9288 85.714 33.9288Z" fill="#303038"/>
<path d="M7.14201 37.5002C8.12827 37.5002 8.92772 38.2997 8.92772 39.2859C8.92772 40.2722 8.12827 41.0716 7.14201 41.0716C6.15579 41.0716 5.35629 40.2722 5.35629 39.2859C5.35629 38.2997 6.15579 37.5002 7.14201 37.5002Z" fill="#303038"/>
<path d="M17.8569 37.5002C18.8431 37.5002 19.6426 38.2997 19.6426 39.2859C19.6426 40.2722 18.8431 41.0716 17.8569 41.0716C16.8706 41.0716 16.0711 40.2722 16.0711 39.2859C16.0711 38.2997 16.8706 37.5002 17.8569 37.5002Z" fill="#303038"/>
<path d="M35.714 37.5002C36.7003 37.5002 37.4997 38.2997 37.4997 39.2859C37.4997 40.2722 36.7003 41.0716 35.714 41.0716C34.7278 41.0716 33.9283 40.2722 33.9283 39.2859C33.9283 38.2997 34.7278 37.5002 35.714 37.5002Z" fill="#303038"/>
<path d="M39.2854 37.5002C40.2717 37.5002 41.0712 38.2997 41.0712 39.2859C41.0712 40.2722 40.2717 41.0716 39.2854 41.0716C38.2992 41.0716 37.4997 40.2722 37.4997 39.2859C37.4997 38.2997 38.2992 37.5002 39.2854 37.5002Z" fill="#303038"/>
<path d="M42.8569 37.5002C43.8431 37.5002 44.6426 38.2997 44.6426 39.2859C44.6426 40.2722 43.8431 41.0716 42.8569 41.0716C41.8706 41.0716 41.0711 40.2722 41.0711 39.2859C41.0711 38.2997 41.8706 37.5002 42.8569 37.5002Z" fill="#303038"/>
<path d="M53.5703 37.5002C54.5566 37.5002 55.356 38.2997 55.356 39.2859C55.356 40.2722 54.5566 41.0716 53.5703 41.0716C52.5841 41.0716 51.7846 40.2722 51.7846 39.2859C51.7846 38.2997 52.5841 37.5002 53.5703 37.5002Z" fill="#303038"/>
<path d="M64.2854 37.5002C65.2717 37.5002 66.0712 38.2997 66.0712 39.2859C66.0712 40.2722 65.2717 41.0716 64.2854 41.0716C63.2992 41.0716 62.4997 40.2722 62.4997 39.2859C62.4997 38.2997 63.2992 37.5002 64.2854 37.5002Z" fill="#303038"/>
<path d="M75.0006 37.5002C75.9868 37.5002 76.7863 38.2997 76.7863 39.2859C76.7863 40.2722 75.9868 41.0716 75.0006 41.0716C74.0143 41.0716 73.2148 40.2722 73.2148 39.2859C73.2148 38.2997 74.0143 37.5002 75.0006 37.5002Z" fill="#303038"/>
<path d="M89.2854 37.5002C90.2717 37.5002 91.0711 38.2997 91.0711 39.2859C91.0711 40.2722 90.2717 41.0716 89.2854 41.0716C88.2992 41.0716 87.4997 40.2722 87.4997 39.2859C87.4997 38.2997 88.2992 37.5002 89.2854 37.5002Z" fill="#303038"/>
<path d="M7.14201 41.0719C8.12827 41.0719 8.92772 41.8714 8.92772 42.8576C8.92772 43.8439 8.12827 44.6433 7.14201 44.6433C6.15579 44.6433 5.35629 43.8439 5.35629 42.8576C5.35629 41.8714 6.15579 41.0719 7.14201 41.0719Z" fill="#303038"/>
<path d="M17.8569 41.0716C18.8431 41.0716 19.6426 41.8711 19.6426 42.8573C19.6426 43.8436 18.8431 44.6431 17.8569 44.6431C16.8706 44.6431 16.0711 43.8436 16.0711 42.8573C16.0711 41.8711 16.8706 41.0716 17.8569 41.0716Z" fill="#303038"/>
<path d="M21.4288 41.0719C22.4151 41.0719 23.2146 41.8714 23.2146 42.8576C23.2146 43.8439 22.4151 44.6433 21.4288 44.6433C20.4426 44.6433 19.6431 43.8439 19.6431 42.8576C19.6431 41.8714 20.4426 41.0719 21.4288 41.0719Z" fill="#303038"/>
<path d="M28.5703 41.0719C29.5566 41.0719 30.356 41.8714 30.356 42.8576C30.356 43.8439 29.5566 44.6433 28.5703 44.6433C27.5841 44.6433 26.7846 43.8439 26.7846 42.8576C26.7846 41.8714 27.5841 41.0719 28.5703 41.0719Z" fill="#303038"/>
<path d="M32.142 41.0719C33.1283 41.0719 33.9277 41.8714 33.9277 42.8576C33.9277 43.8439 33.1283 44.6433 32.142 44.6433C31.1558 44.6433 30.3563 43.8439 30.3563 42.8576C30.3563 41.8714 31.1558 41.0719 32.142 41.0719Z" fill="#303038"/>
<path d="M35.714 41.0716C36.7003 41.0716 37.4997 41.8711 37.4997 42.8573C37.4997 43.8436 36.7003 44.6431 35.714 44.6431C34.7278 44.6431 33.9283 43.8436 33.9283 42.8573C33.9283 41.8711 34.7278 41.0716 35.714 41.0716Z" fill="#303038"/>
<path d="M46.4288 41.0719C47.4151 41.0719 48.2146 41.8714 48.2146 42.8576C48.2146 43.8439 47.4151 44.6433 46.4288 44.6433C45.4426 44.6433 44.6431 43.8439 44.6431 42.8576C44.6431 41.8714 45.4426 41.0719 46.4288 41.0719Z" fill="#303038"/>
<path d="M53.5703 41.0719C54.5566 41.0719 55.356 41.8714 55.356 42.8576C55.356 43.8439 54.5566 44.6433 53.5703 44.6433C52.5841 44.6433 51.7846 43.8439 51.7846 42.8576C51.7846 41.8714 52.5841 41.0719 53.5703 41.0719Z" fill="#303038"/>
<path d="M57.142 41.0719C58.1283 41.0719 58.9277 41.8714 58.9277 42.8576C58.9277 43.8439 58.1283 44.6433 57.142 44.6433C56.1558 44.6433 55.3563 43.8439 55.3563 42.8576C55.3563 41.8714 56.1558 41.0719 57.142 41.0719Z" fill="#303038"/>
<path d="M60.714 41.0716C61.7003 41.0716 62.4997 41.8711 62.4997 42.8573C62.4997 43.8436 61.7003 44.6431 60.714 44.6431C59.7278 44.6431 58.9283 43.8436 58.9283 42.8573C58.9283 41.8711 59.7278 41.0716 60.714 41.0716Z" fill="#303038"/>
<path d="M64.2854 41.0716C65.2717 41.0716 66.0712 41.8711 66.0712 42.8573C66.0712 43.8436 65.2717 44.6431 64.2854 44.6431C63.2992 44.6431 62.4997 43.8436 62.4997 42.8573C62.4997 41.8711 63.2992 41.0716 64.2854 41.0716Z" fill="#303038"/>
<path d="M71.4288 41.0719C72.4151 41.0719 73.2146 41.8714 73.2146 42.8576C73.2146 43.8439 72.4151 44.6433 71.4288 44.6433C70.4426 44.6433 69.6431 43.8439 69.6431 42.8576C69.6431 41.8714 70.4426 41.0719 71.4288 41.0719Z" fill="#303038"/>
<path d="M75.0006 41.0719C75.9868 41.0719 76.7863 41.8714 76.7863 42.8576C76.7863 43.8439 75.9868 44.6433 75.0006 44.6433C74.0143 44.6433 73.2148 43.8439 73.2148 42.8576C73.2148 41.8714 74.0143 41.0719 75.0006 41.0719Z" fill="#303038"/>
<path d="M82.142 41.0719C83.1283 41.0719 83.9277 41.8714 83.9277 42.8576C83.9277 43.8439 83.1283 44.6433 82.142 44.6433C81.1558 44.6433 80.3563 43.8439 80.3563 42.8576C80.3563 41.8714 81.1558 41.0719 82.142 41.0719Z" fill="#303038"/>
<path d="M89.2854 41.0716C90.2717 41.0716 91.0711 41.8711 91.0711 42.8573C91.0711 43.8436 90.2717 44.6431 89.2854 44.6431C88.2992 44.6431 87.4997 43.8436 87.4997 42.8573C87.4997 41.8711 88.2992 41.0716 89.2854 41.0716Z" fill="#303038"/>
<path d="M92.8569 41.0716C93.8431 41.0716 94.6426 41.8711 94.6426 42.8573C94.6426 43.8436 93.8431 44.6431 92.8569 44.6431C91.8706 44.6431 91.0711 43.8436 91.0711 42.8573C91.0711 41.8711 91.8706 41.0716 92.8569 41.0716Z" fill="#303038"/>
<path d="M7.14201 44.6426C8.12827 44.6426 8.92772 45.4421 8.92772 46.4284C8.92772 47.4146 8.12827 48.2141 7.14201 48.2141C6.15579 48.2141 5.35629 47.4146 5.35629 46.4284C5.35629 45.4421 6.15579 44.6426 7.14201 44.6426Z" fill="#303038"/>
<path d="M14.2854 44.6431C15.2717 44.6431 16.0712 45.4426 16.0712 46.4288C16.0712 47.415 15.2717 48.2145 14.2854 48.2145C13.2992 48.2145 12.4997 47.415 12.4997 46.4288C12.4997 45.4426 13.2992 44.6431 14.2854 44.6431Z" fill="#303038"/>
<path d="M35.714 44.6431C36.7003 44.6431 37.4997 45.4426 37.4997 46.4288C37.4997 47.415 36.7003 48.2145 35.714 48.2145C34.7278 48.2145 33.9283 47.415 33.9283 46.4288C33.9283 45.4426 34.7278 44.6431 35.714 44.6431Z" fill="#303038"/>
<path d="M39.2854 44.6431C40.2717 44.6431 41.0712 45.4426 41.0712 46.4288C41.0712 47.415 40.2717 48.2145 39.2854 48.2145C38.2992 48.2145 37.4997 47.415 37.4997 46.4288C37.4997 45.4426 38.2992 44.6431 39.2854 44.6431Z" fill="#303038"/>
<path d="M42.8569 44.6431C43.8431 44.6431 44.6426 45.4426 44.6426 46.4288C44.6426 47.415 43.8431 48.2145 42.8569 48.2145C41.8706 48.2145 41.0711 47.415 41.0711 46.4288C41.0711 45.4426 41.8706 44.6431 42.8569 44.6431Z" fill="#303038"/>
<path d="M46.4288 44.6426C47.4151 44.6426 48.2146 45.4421 48.2146 46.4284C48.2146 47.4146 47.4151 48.2141 46.4288 48.2141C45.4426 48.2141 44.6431 47.4146 44.6431 46.4284C44.6431 45.4421 45.4426 44.6426 46.4288 44.6426Z" fill="#303038"/>
<path d="M53.5703 44.6426C54.5566 44.6426 55.356 45.4421 55.356 46.4284C55.356 47.4146 54.5566 48.2141 53.5703 48.2141C52.5841 48.2141 51.7846 47.4146 51.7846 46.4284C51.7846 45.4421 52.5841 44.6426 53.5703 44.6426Z" fill="#303038"/>
<path d="M64.2854 44.6431C65.2717 44.6431 66.0712 45.4426 66.0712 46.4288C66.0712 47.415 65.2717 48.2145 64.2854 48.2145C63.2992 48.2145 62.4997 47.415 62.4997 46.4288C62.4997 45.4426 63.2992 44.6431 64.2854 44.6431Z" fill="#303038"/>
<path d="M92.8569 44.6431C93.8431 44.6431 94.6426 45.4426 94.6426 46.4288C94.6426 47.415 93.8431 48.2145 92.8569 48.2145C91.8706 48.2145 91.0711 47.415 91.0711 46.4288C91.0711 45.4426 91.8706 44.6431 92.8569 44.6431Z" fill="#303038"/>
<path d="M21.4288 48.2143C22.4151 48.2143 23.2146 49.0138 23.2146 50.0001C23.2146 50.9863 22.4151 51.7858 21.4288 51.7858C20.4426 51.7858 19.6431 50.9863 19.6431 50.0001C19.6431 49.0138 20.4426 48.2143 21.4288 48.2143Z" fill="#303038"/>
<path d="M28.5703 48.2143C29.5566 48.2143 30.356 49.0138 30.356 50.0001C30.356 50.9863 29.5566 51.7858 28.5703 51.7858C27.5841 51.7858 26.7846 50.9863 26.7846 50.0001C26.7846 49.0138 27.5841 48.2143 28.5703 48.2143Z" fill="#303038"/>
<path d="M39.2854 48.2145C40.2717 48.2145 41.0712 49.014 41.0712 50.0002C41.0712 50.9865 40.2717 51.7859 39.2854 51.7859C38.2992 51.7859 37.4997 50.9865 37.4997 50.0002C37.4997 49.014 38.2992 48.2145 39.2854 48.2145Z" fill="#303038"/>
<path d="M50.0006 48.2143C50.9868 48.2143 51.7863 49.0138 51.7863 50.0001C51.7863 50.9863 50.9868 51.7858 50.0006 51.7858C49.0143 51.7858 48.2148 50.9863 48.2148 50.0001C48.2148 49.0138 49.0143 48.2143 50.0006 48.2143Z" fill="#303038"/>
<path d="M57.142 48.2143C58.1283 48.2143 58.9277 49.0138 58.9277 50.0001C58.9277 50.9863 58.1283 51.7858 57.142 51.7858C56.1558 51.7858 55.3563 50.9863 55.3563 50.0001C55.3563 49.0138 56.1558 48.2143 57.142 48.2143Z" fill="#303038"/>
<path d="M67.8569 48.2145C68.8431 48.2145 69.6426 49.014 69.6426 50.0002C69.6426 50.9865 68.8431 51.7859 67.8569 51.7859C66.8706 51.7859 66.0711 50.9865 66.0711 50.0002C66.0711 49.014 66.8706 48.2145 67.8569 48.2145Z" fill="#303038"/>
<path d="M71.4288 48.2143C72.4151 48.2143 73.2146 49.0138 73.2146 50.0001C73.2146 50.9863 72.4151 51.7858 71.4288 51.7858C70.4426 51.7858 69.6431 50.9863 69.6431 50.0001C69.6431 49.0138 70.4426 48.2143 71.4288 48.2143Z" fill="#303038"/>
<path d="M75.0006 48.2143C75.9868 48.2143 76.7863 49.0138 76.7863 50.0001C76.7863 50.9863 75.9868 51.7858 75.0006 51.7858C74.0143 51.7858 73.2148 50.9863 73.2148 50.0001C73.2148 49.0138 74.0143 48.2143 75.0006 48.2143Z" fill="#303038"/>
<path d="M78.5703 48.2143C79.5566 48.2143 80.356 49.0138 80.356 50.0001C80.356 50.9863 79.5566 51.7858 78.5703 51.7858C77.5841 51.7858 76.7846 50.9863 76.7846 50.0001C76.7846 49.0138 77.5841 48.2143 78.5703 48.2143Z" fill="#303038"/>
<path d="M85.714 48.2145C86.7003 48.2145 87.4997 49.014 87.4997 50.0002C87.4997 50.9865 86.7003 51.7859 85.714 51.7859C84.7278 51.7859 83.9283 50.9865 83.9283 50.0002C83.9283 49.014 84.7278 48.2145 85.714 48.2145Z" fill="#303038"/>
<path d="M89.2854 48.2145C90.2717 48.2145 91.0711 49.014 91.0711 50.0002C91.0711 50.9865 90.2717 51.7859 89.2854 51.7859C88.2992 51.7859 87.4997 50.9865 87.4997 50.0002C87.4997 49.014 88.2992 48.2145 89.2854 48.2145Z" fill="#303038"/>
<path d="M92.8569 48.2145C93.8431 48.2145 94.6426 49.014 94.6426 50.0002C94.6426 50.9865 93.8431 51.7859 92.8569 51.7859C91.8706 51.7859 91.0711 50.9865 91.0711 50.0002C91.0711 49.014 91.8706 48.2145 92.8569 48.2145Z" fill="#303038"/>
<path d="M7.14201 51.7861C8.12827 51.7861 8.92772 52.5856 8.92772 53.5718C8.92772 54.558 8.12827 55.3575 7.14201 55.3575C6.15579 55.3575 5.35629 54.558 5.35629 53.5718C5.35629 52.5856 6.15579 51.7861 7.14201 51.7861Z" fill="#303038"/>
<path d="M10.714 51.7859C11.7003 51.7859 12.4997 52.5854 12.4997 53.5716C12.4997 54.5579 11.7003 55.3573 10.714 55.3573C9.72778 55.3573 8.92828 54.5579 8.92828 53.5716C8.92828 52.5854 9.72778 51.7859 10.714 51.7859Z" fill="#303038"/>
<path d="M21.4288 51.7861C22.4151 51.7861 23.2146 52.5856 23.2146 53.5718C23.2146 54.558 22.4151 55.3575 21.4288 55.3575C20.4426 55.3575 19.6431 54.558 19.6431 53.5718C19.6431 52.5856 20.4426 51.7861 21.4288 51.7861Z" fill="#303038"/>
<path d="M25.0006 51.7861C25.9868 51.7861 26.7863 52.5856 26.7863 53.5718C26.7863 54.558 25.9868 55.3575 25.0006 55.3575C24.0143 55.3575 23.2148 54.558 23.2148 53.5718C23.2148 52.5856 24.0143 51.7861 25.0006 51.7861Z" fill="#303038"/>
<path d="M32.142 51.7861C33.1283 51.7861 33.9277 52.5856 33.9277 53.5718C33.9277 54.558 33.1283 55.3575 32.142 55.3575C31.1558 55.3575 30.3563 54.558 30.3563 53.5718C30.3563 52.5856 31.1558 51.7861 32.142 51.7861Z" fill="#303038"/>
<path d="M64.2854 51.7859C65.2717 51.7859 66.0712 52.5854 66.0712 53.5716C66.0712 54.5579 65.2717 55.3573 64.2854 55.3573C63.2992 55.3573 62.4997 54.5579 62.4997 53.5716C62.4997 52.5854 63.2992 51.7859 64.2854 51.7859Z" fill="#303038"/>
<path d="M82.142 51.7861C83.1283 51.7861 83.9277 52.5856 83.9277 53.5718C83.9277 54.558 83.1283 55.3575 82.142 55.3575C81.1558 55.3575 80.3563 54.558 80.3563 53.5718C80.3563 52.5856 81.1558 51.7861 82.142 51.7861Z" fill="#303038"/>
<path d="M89.2854 51.7859C90.2717 51.7859 91.0711 52.5854 91.0711 53.5716C91.0711 54.5579 90.2717 55.3573 89.2854 55.3573C88.2992 55.3573 87.4997 54.5579 87.4997 53.5716C87.4997 52.5854 88.2992 51.7859 89.2854 51.7859Z" fill="#303038"/>
<path d="M7.14201 55.3578C8.12827 55.3578 8.92772 56.1573 8.92772 57.1435C8.92772 58.1297 8.12827 58.9292 7.14201 58.9292C6.15579 58.9292 5.35629 58.1297 5.35629 57.1435C5.35629 56.1573 6.15579 55.3578 7.14201 55.3578Z" fill="#303038"/>
<path d="M17.8569 55.3573C18.8431 55.3573 19.6426 56.1568 19.6426 57.1431C19.6426 58.1293 18.8431 58.9288 17.8569 58.9288C16.8706 58.9288 16.0711 58.1293 16.0711 57.1431C16.0711 56.1568 16.8706 55.3573 17.8569 55.3573Z" fill="#303038"/>
<path d="M25.0006 55.3578C25.9868 55.3578 26.7863 56.1573 26.7863 57.1435C26.7863 58.1297 25.9868 58.9292 25.0006 58.9292C24.0143 58.9292 23.2148 58.1297 23.2148 57.1435C23.2148 56.1573 24.0143 55.3578 25.0006 55.3578Z" fill="#303038"/>
<path d="M28.5703 55.3578C29.5566 55.3578 30.356 56.1573 30.356 57.1435C30.356 58.1297 29.5566 58.9292 28.5703 58.9292C27.5841 58.9292 26.7846 58.1297 26.7846 57.1435C26.7846 56.1573 27.5841 55.3578 28.5703 55.3578Z" fill="#303038"/>
<path d="M32.142 55.3578C33.1283 55.3578 33.9277 56.1573 33.9277 57.1435C33.9277 58.1297 33.1283 58.9292 32.142 58.9292C31.1558 58.9292 30.3563 58.1297 30.3563 57.1435C30.3563 56.1573 31.1558 55.3578 32.142 55.3578Z" fill="#303038"/>
<path d="M35.714 55.3573C36.7003 55.3573 37.4997 56.1568 37.4997 57.1431C37.4997 58.1293 36.7003 58.9288 35.714 58.9288C34.7278 58.9288 33.9283 58.1293 33.9283 57.1431C33.9283 56.1568 34.7278 55.3573 35.714 55.3573Z" fill="#303038"/>
<path d="M42.8569 55.3573C43.8431 55.3573 44.6426 56.1568 44.6426 57.1431C44.6426 58.1293 43.8431 58.9288 42.8569 58.9288C41.8706 58.9288 41.0711 58.1293 41.0711 57.1431C41.0711 56.1568 41.8706 55.3573 42.8569 55.3573Z" fill="#303038"/>
<path d="M46.4288 55.3578C47.4151 55.3578 48.2146 56.1573 48.2146 57.1435C48.2146 58.1297 47.4151 58.9292 46.4288 58.9292C45.4426 58.9292 44.6431 58.1297 44.6431 57.1435C44.6431 56.1573 45.4426 55.3578 46.4288 55.3578Z" fill="#303038"/>
<path d="M50.0006 55.3578C50.9868 55.3578 51.7863 56.1573 51.7863 57.1435C51.7863 58.1297 50.9868 58.9292 50.0006 58.9292C49.0143 58.9292 48.2148 58.1297 48.2148 57.1435C48.2148 56.1573 49.0143 55.3578 50.0006 55.3578Z" fill="#303038"/>
<path d="M60.714 55.3573C61.7003 55.3573 62.4997 56.1568 62.4997 57.1431C62.4997 58.1293 61.7003 58.9288 60.714 58.9288C59.7278 58.9288 58.9283 58.1293 58.9283 57.1431C58.9283 56.1568 59.7278 55.3573 60.714 55.3573Z" fill="#303038"/>
<path d="M64.2854 55.3573C65.2717 55.3573 66.0712 56.1568 66.0712 57.1431C66.0712 58.1293 65.2717 58.9288 64.2854 58.9288C63.2992 58.9288 62.4997 58.1293 62.4997 57.1431C62.4997 56.1568 63.2992 55.3573 64.2854 55.3573Z" fill="#303038"/>
<path d="M67.8569 55.3573C68.8431 55.3573 69.6426 56.1568 69.6426 57.1431C69.6426 58.1293 68.8431 58.9288 67.8569 58.9288C66.8706 58.9288 66.0711 58.1293 66.0711 57.1431C66.0711 56.1568 66.8706 55.3573 67.8569 55.3573Z" fill="#303038"/>
<path d="M75.0006 55.3578C75.9868 55.3578 76.7863 56.1573 76.7863 57.1435C76.7863 58.1297 75.9868 58.9292 75.0006 58.9292C74.0143 58.9292 73.2148 58.1297 73.2148 57.1435C73.2148 56.1573 74.0143 55.3578 75.0006 55.3578Z" fill="#303038"/>
<path d="M82.142 55.3578C83.1283 55.3578 83.9277 56.1573 83.9277 57.1435C83.9277 58.1297 83.1283 58.9292 82.142 58.9292C81.1558 58.9292 80.3563 58.1297 80.3563 57.1435C80.3563 56.1573 81.1558 55.3578 82.142 55.3578Z" fill="#303038"/>
<path d="M89.2854 55.3573C90.2717 55.3573 91.0711 56.1568 91.0711 57.1431C91.0711 58.1293 90.2717 58.9288 89.2854 58.9288C88.2992 58.9288 87.4997 58.1293 87.4997 57.1431C87.4997 56.1568 88.2992 55.3573 89.2854 55.3573Z" fill="#303038"/>
<path d="M92.8569 55.3573C93.8431 55.3573 94.6426 56.1568 94.6426 57.1431C94.6426 58.1293 93.8431 58.9288 92.8569 58.9288C91.8706 58.9288 91.0711 58.1293 91.0711 57.1431C91.0711 56.1568 91.8706 55.3573 92.8569 55.3573Z" fill="#303038"/>
<path d="M7.14201 58.9285C8.12827 58.9285 8.92772 59.728 8.92772 60.7142C8.92772 61.7005 8.12827 62.4999 7.14201 62.4999C6.15579 62.4999 5.35629 61.7005 5.35629 60.7142C5.35629 59.728 6.15579 58.9285 7.14201 58.9285Z" fill="#303038"/>
<path d="M17.8569 58.9288C18.8431 58.9288 19.6426 59.7283 19.6426 60.7145C19.6426 61.7008 18.8431 62.5002 17.8569 62.5002C16.8706 62.5002 16.0711 61.7008 16.0711 60.7145C16.0711 59.7283 16.8706 58.9288 17.8569 58.9288Z" fill="#303038"/>
<path d="M25.0006 58.9285C25.9868 58.9285 26.7863 59.728 26.7863 60.7142C26.7863 61.7005 25.9868 62.4999 25.0006 62.4999C24.0143 62.4999 23.2148 61.7005 23.2148 60.7142C23.2148 59.728 24.0143 58.9285 25.0006 58.9285Z" fill="#303038"/>
<path d="M39.2854 58.9288C40.2717 58.9288 41.0712 59.7283 41.0712 60.7145C41.0712 61.7008 40.2717 62.5002 39.2854 62.5002C38.2992 62.5002 37.4997 61.7008 37.4997 60.7145C37.4997 59.7283 38.2992 58.9288 39.2854 58.9288Z" fill="#303038"/>
<path d="M46.4288 58.9285C47.4151 58.9285 48.2146 59.728 48.2146 60.7142C48.2146 61.7005 47.4151 62.4999 46.4288 62.4999C45.4426 62.4999 44.6431 61.7005 44.6431 60.7142C44.6431 59.728 45.4426 58.9285 46.4288 58.9285Z" fill="#303038"/>
<path d="M57.142 58.9285C58.1283 58.9285 58.9277 59.728 58.9277 60.7142C58.9277 61.7005 58.1283 62.4999 57.142 62.4999C56.1558 62.4999 55.3563 61.7005 55.3563 60.7142C55.3563 59.728 56.1558 58.9285 57.142 58.9285Z" fill="#303038"/>
<path d="M67.8569 58.9288C68.8431 58.9288 69.6426 59.7283 69.6426 60.7145C69.6426 61.7008 68.8431 62.5002 67.8569 62.5002C66.8706 62.5002 66.0711 61.7008 66.0711 60.7145C66.0711 59.7283 66.8706 58.9288 67.8569 58.9288Z" fill="#303038"/>
<path d="M82.142 58.9285C83.1283 58.9285 83.9277 59.728 83.9277 60.7142C83.9277 61.7005 83.1283 62.4999 82.142 62.4999C81.1558 62.4999 80.3563 61.7005 80.3563 60.7142C80.3563 59.728 81.1558 58.9285 82.142 58.9285Z" fill="#303038"/>
<path d="M92.8569 58.9288C93.8431 58.9288 94.6426 59.7283 94.6426 60.7145C94.6426 61.7008 93.8431 62.5002 92.8569 62.5002C91.8706 62.5002 91.0711 61.7008 91.0711 60.7145C91.0711 59.7283 91.8706 58.9288 92.8569 58.9288Z" fill="#303038"/>
<path d="M7.14201 62.5002C8.12827 62.5002 8.92772 63.2997 8.92772 64.2859C8.92772 65.2722 8.12827 66.0716 7.14201 66.0716C6.15579 66.0716 5.35629 65.2722 5.35629 64.2859C5.35629 63.2997 6.15579 62.5002 7.14201 62.5002Z" fill="#303038"/>
<path d="M14.2854 62.5002C15.2717 62.5002 16.0712 63.2997 16.0712 64.2859C16.0712 65.2722 15.2717 66.0716 14.2854 66.0716C13.2992 66.0716 12.4997 65.2722 12.4997 64.2859C12.4997 63.2997 13.2992 62.5002 14.2854 62.5002Z" fill="#303038"/>
<path d="M25.0006 62.5002C25.9868 62.5002 26.7863 63.2997 26.7863 64.2859C26.7863 65.2722 25.9868 66.0716 25.0006 66.0716C24.0143 66.0716 23.2148 65.2722 23.2148 64.2859C23.2148 63.2997 24.0143 62.5002 25.0006 62.5002Z" fill="#303038"/>
<path d="M28.5703 62.5002C29.5566 62.5002 30.356 63.2997 30.356 64.2859C30.356 65.2722 29.5566 66.0716 28.5703 66.0716C27.5841 66.0716 26.7846 65.2722 26.7846 64.2859C26.7846 63.2997 27.5841 62.5002 28.5703 62.5002Z" fill="#303038"/>
<path d="M35.714 62.5002C36.7003 62.5002 37.4997 63.2997 37.4997 64.2859C37.4997 65.2722 36.7003 66.0716 35.714 66.0716C34.7278 66.0716 33.9283 65.2722 33.9283 64.2859C33.9283 63.2997 34.7278 62.5002 35.714 62.5002Z" fill="#303038"/>
<path d="M46.4288 62.5002C47.4151 62.5002 48.2146 63.2997 48.2146 64.2859C48.2146 65.2722 47.4151 66.0716 46.4288 66.0716C45.4426 66.0716 44.6431 65.2722 44.6431 64.2859C44.6431 63.2997 45.4426 62.5002 46.4288 62.5002Z" fill="#303038"/>
<path d="M60.714 62.5002C61.7003 62.5002 62.4997 63.2997 62.4997 64.2859C62.4997 65.2722 61.7003 66.0716 60.714 66.0716C59.7278 66.0716 58.9283 65.2722 58.9283 64.2859C58.9283 63.2997 59.7278 62.5002 60.714 62.5002Z" fill="#303038"/>
<path d="M64.2854 62.5002C65.2717 62.5002 66.0712 63.2997 66.0712 64.2859C66.0712 65.2722 65.2717 66.0716 64.2854 66.0716C63.2992 66.0716 62.4997 65.2722 62.4997 64.2859C62.4997 63.2997 63.2992 62.5002 64.2854 62.5002Z" fill="#303038"/>
<path d="M67.8569 62.5002C68.8431 62.5002 69.6426 63.2997 69.6426 64.2859C69.6426 65.2722 68.8431 66.0716 67.8569 66.0716C66.8706 66.0716 66.0711 65.2722 66.0711 64.2859C66.0711 63.2997 66.8706 62.5002 67.8569 62.5002Z" fill="#303038"/>
<path d="M71.4288 62.5002C72.4151 62.5002 73.2146 63.2997 73.2146 64.2859C73.2146 65.2722 72.4151 66.0716 71.4288 66.0716C70.4426 66.0716 69.6431 65.2722 69.6431 64.2859C69.6431 63.2997 70.4426 62.5002 71.4288 62.5002Z" fill="#303038"/>
<path d="M75.0006 62.5002C75.9868 62.5002 76.7863 63.2997 76.7863 64.2859C76.7863 65.2722 75.9868 66.0716 75.0006 66.0716C74.0143 66.0716 73.2148 65.2722 73.2148 64.2859C73.2148 63.2997 74.0143 62.5002 75.0006 62.5002Z" fill="#303038"/>
<path d="M78.5703 62.5002C79.5566 62.5002 80.356 63.2997 80.356 64.2859C80.356 65.2722 79.5566 66.0716 78.5703 66.0716C77.5841 66.0716 76.7846 65.2722 76.7846 64.2859C76.7846 63.2997 77.5841 62.5002 78.5703 62.5002Z" fill="#303038"/>
<path d="M85.714 62.5002C86.7003 62.5002 87.4997 63.2997 87.4997 64.2859C87.4997 65.2722 86.7003 66.0716 85.714 66.0716C84.7278 66.0716 83.9283 65.2722 83.9283 64.2859C83.9283 63.2997 84.7278 62.5002 85.714 62.5002Z" fill="#303038"/>
<path d="M35.714 66.0716C36.7003 66.0716 37.4997 66.8711 37.4997 67.8573C37.4997 68.8436 36.7003 69.6431 35.714 69.6431C34.7278 69.6431 33.9283 68.8436 33.9283 67.8573C33.9283 66.8711 34.7278 66.0716 35.714 66.0716Z" fill="#303038"/>
<path d="M39.2854 66.0716C40.2717 66.0716 41.0712 66.8711 41.0712 67.8573C41.0712 68.8436 40.2717 69.6431 39.2854 69.6431C38.2992 69.6431 37.4997 68.8436 37.4997 67.8573C37.4997 66.8711 38.2992 66.0716 39.2854 66.0716Z" fill="#303038"/>
<path d="M42.8569 66.0716C43.8431 66.0716 44.6426 66.8711 44.6426 67.8573C44.6426 68.8436 43.8431 69.6431 42.8569 69.6431C41.8706 69.6431 41.0711 68.8436 41.0711 67.8573C41.0711 66.8711 41.8706 66.0716 42.8569 66.0716Z" fill="#303038"/>
<path d="M50.0006 66.0719C50.9868 66.0719 51.7863 66.8714 51.7863 67.8576C51.7863 68.8439 50.9868 69.6433 50.0006 69.6433C49.0143 69.6433 48.2148 68.8439 48.2148 67.8576C48.2148 66.8714 49.0143 66.0719 50.0006 66.0719Z" fill="#303038"/>
<path d="M53.5703 66.0719C54.5566 66.0719 55.356 66.8714 55.356 67.8576C55.356 68.8439 54.5566 69.6433 53.5703 69.6433C52.5841 69.6433 51.7846 68.8439 51.7846 67.8576C51.7846 66.8714 52.5841 66.0719 53.5703 66.0719Z" fill="#303038"/>
<path d="M57.142 66.0719C58.1283 66.0719 58.9277 66.8714 58.9277 67.8576C58.9277 68.8439 58.1283 69.6433 57.142 69.6433C56.1558 69.6433 55.3563 68.8439 55.3563 67.8576C55.3563 66.8714 56.1558 66.0719 57.142 66.0719Z" fill="#303038"/>
<path d="M60.714 66.0716C61.7003 66.0716 62.4997 66.8711 62.4997 67.8573C62.4997 68.8436 61.7003 69.6431 60.714 69.6431C59.7278 69.6431 58.9283 68.8436 58.9283 67.8573C58.9283 66.8711 59.7278 66.0716 60.714 66.0716Z" fill="#303038"/>
<path d="M64.2854 66.0716C65.2717 66.0716 66.0712 66.8711 66.0712 67.8573C66.0712 68.8436 65.2717 69.6431 64.2854 69.6431C63.2992 69.6431 62.4997 68.8436 62.4997 67.8573C62.4997 66.8711 63.2992 66.0716 64.2854 66.0716Z" fill="#303038"/>
<path d="M78.5703 66.0719C79.5566 66.0719 80.356 66.8714 80.356 67.8576C80.356 68.8439 79.5566 69.6433 78.5703 69.6433C77.5841 69.6433 76.7846 68.8439 76.7846 67.8576C76.7846 66.8714 77.5841 66.0719 78.5703 66.0719Z" fill="#303038"/>
<path d="M82.142 66.0719C83.1283 66.0719 83.9277 66.8714 83.9277 67.8576C83.9277 68.8439 83.1283 69.6433 82.142 69.6433C81.1558 69.6433 80.3563 68.8439 80.3563 67.8576C80.3563 66.8714 81.1558 66.0719 82.142 66.0719Z" fill="#303038"/>
<path d="M85.714 66.0716C86.7003 66.0716 87.4997 66.8711 87.4997 67.8573C87.4997 68.8436 86.7003 69.6431 85.714 69.6431C84.7278 69.6431 83.9283 68.8436 83.9283 67.8573C83.9283 66.8711 84.7278 66.0716 85.714 66.0716Z" fill="#303038"/>
<path d="M53.5703 69.6426C54.5566 69.6426 55.356 70.4421 55.356 71.4284C55.356 72.4146 54.5566 73.2141 53.5703 73.2141C52.5841 73.2141 51.7846 72.4146 51.7846 71.4284C51.7846 70.4421 52.5841 69.6426 53.5703 69.6426Z" fill="#303038"/>
<path d="M57.142 69.6426C58.1283 69.6426 58.9277 70.4421 58.9277 71.4284C58.9277 72.4146 58.1283 73.2141 57.142 73.2141C56.1558 73.2141 55.3563 72.4146 55.3563 71.4284C55.3563 70.4421 56.1558 69.6426 57.142 69.6426Z" fill="#303038"/>
<path d="M64.2854 69.6431C65.2717 69.6431 66.0712 70.4426 66.0712 71.4288C66.0712 72.415 65.2717 73.2145 64.2854 73.2145C63.2992 73.2145 62.4997 72.415 62.4997 71.4288C62.4997 70.4426 63.2992 69.6431 64.2854 69.6431Z" fill="#303038"/>
<path d="M71.4288 69.6426C72.4151 69.6426 73.2146 70.4421 73.2146 71.4284C73.2146 72.4146 72.4151 73.2141 71.4288 73.2141C70.4426 73.2141 69.6431 72.4146 69.6431 71.4284C69.6431 70.4421 70.4426 69.6426 71.4288 69.6426Z" fill="#303038"/>
<path d="M78.5703 69.6426C79.5566 69.6426 80.356 70.4421 80.356 71.4284C80.356 72.4146 79.5566 73.2141 78.5703 73.2141C77.5841 73.2141 76.7846 72.4146 76.7846 71.4284C76.7846 70.4421 77.5841 69.6426 78.5703 69.6426Z" fill="#303038"/>
<path d="M82.142 69.6426C83.1283 69.6426 83.9277 70.4421 83.9277 71.4284C83.9277 72.4146 83.1283 73.2141 82.142 73.2141C81.1558 73.2141 80.3563 72.4146 80.3563 71.4284C80.3563 70.4421 81.1558 69.6426 82.142 69.6426Z" fill="#303038"/>
<path d="M85.714 69.6431C86.7003 69.6431 87.4997 70.4426 87.4997 71.4288C87.4997 72.415 86.7003 73.2145 85.714 73.2145C84.7278 73.2145 83.9283 72.415 83.9283 71.4288C83.9283 70.4426 84.7278 69.6431 85.714 69.6431Z" fill="#303038"/>
<path d="M89.2854 69.6431C90.2717 69.6431 91.0711 70.4426 91.0711 71.4288C91.0711 72.415 90.2717 73.2145 89.2854 73.2145C88.2992 73.2145 87.4997 72.415 87.4997 71.4288C87.4997 70.4426 88.2992 69.6431 89.2854 69.6431Z" fill="#303038"/>
<path d="M92.8569 69.6431C93.8431 69.6431 94.6426 70.4426 94.6426 71.4288C94.6426 72.415 93.8431 73.2145 92.8569 73.2145C91.8706 73.2145 91.0711 72.415 91.0711 71.4288C91.0711 70.4426 91.8706 69.6431 92.8569 69.6431Z" fill="#303038"/>
<path d="M35.714 73.2145C36.7003 73.2145 37.4997 74.014 37.4997 75.0002C37.4997 75.9865 36.7003 76.7859 35.714 76.7859C34.7278 76.7859 33.9283 75.9865 33.9283 75.0002C33.9283 74.014 34.7278 73.2145 35.714 73.2145Z" fill="#303038"/>
<path d="M39.2854 73.2145C40.2717 73.2145 41.0712 74.014 41.0712 75.0002C41.0712 75.9865 40.2717 76.7859 39.2854 76.7859C38.2992 76.7859 37.4997 75.9865 37.4997 75.0002C37.4997 74.014 38.2992 73.2145 39.2854 73.2145Z" fill="#303038"/>
<path d="M42.8569 73.2145C43.8431 73.2145 44.6426 74.014 44.6426 75.0002C44.6426 75.9865 43.8431 76.7859 42.8569 76.7859C41.8706 76.7859 41.0711 75.9865 41.0711 75.0002C41.0711 74.014 41.8706 73.2145 42.8569 73.2145Z" fill="#303038"/>
<path d="M50.0006 73.2144C50.9868 73.2144 51.7863 74.0139 51.7863 75.0001C51.7863 75.9863 50.9868 76.7858 50.0006 76.7858C49.0143 76.7858 48.2148 75.9863 48.2148 75.0001C48.2148 74.0139 49.0143 73.2144 50.0006 73.2144Z" fill="#303038"/>
<path d="M53.5703 73.2144C54.5566 73.2144 55.356 74.0139 55.356 75.0001C55.356 75.9863 54.5566 76.7858 53.5703 76.7858C52.5841 76.7858 51.7846 75.9863 51.7846 75.0001C51.7846 74.0139 52.5841 73.2144 53.5703 73.2144Z" fill="#303038"/>
<path d="M64.2854 73.2145C65.2717 73.2145 66.0712 74.014 66.0712 75.0002C66.0712 75.9865 65.2717 76.7859 64.2854 76.7859C63.2992 76.7859 62.4997 75.9865 62.4997 75.0002C62.4997 74.014 63.2992 73.2145 64.2854 73.2145Z" fill="#303038"/>
<path d="M78.5703 73.2144C79.5566 73.2144 80.356 74.0139 80.356 75.0001C80.356 75.9863 79.5566 76.7858 78.5703 76.7858C77.5841 76.7858 76.7846 75.9863 76.7846 75.0001C76.7846 74.0139 77.5841 73.2144 78.5703 73.2144Z" fill="#303038"/>
<path d="M82.142 73.2144C83.1283 73.2144 83.9277 74.0139 83.9277 75.0001C83.9277 75.9863 83.1283 76.7858 82.142 76.7858C81.1558 76.7858 80.3563 75.9863 80.3563 75.0001C80.3563 74.0139 81.1558 73.2144 82.142 73.2144Z" fill="#303038"/>
<path d="M89.2854 73.2145C90.2717 73.2145 91.0711 74.014 91.0711 75.0002C91.0711 75.9865 90.2717 76.7859 89.2854 76.7859C88.2992 76.7859 87.4997 75.9865 87.4997 75.0002C87.4997 74.014 88.2992 73.2145 89.2854 73.2145Z" fill="#303038"/>
<path d="M35.714 76.7859C36.7003 76.7859 37.4997 77.5854 37.4997 78.5716C37.4997 79.5579 36.7003 80.3573 35.714 80.3573C34.7278 80.3573 33.9283 79.5579 33.9283 78.5716C33.9283 77.5854 34.7278 76.7859 35.714 76.7859Z" fill="#303038"/>
<path d="M39.2854 76.7859C40.2717 76.7859 41.0712 77.5854 41.0712 78.5716C41.0712 79.5579 40.2717 80.3573 39.2854 80.3573C38.2992 80.3573 37.4997 79.5579 37.4997 78.5716C37.4997 77.5854 38.2992 76.7859 39.2854 76.7859Z" fill="#303038"/>
<path d="M42.8569 76.7859C43.8431 76.7859 44.6426 77.5854 44.6426 78.5716C44.6426 79.5579 43.8431 80.3573 42.8569 80.3573C41.8706 80.3573 41.0711 79.5579 41.0711 78.5716C41.0711 77.5854 41.8706 76.7859 42.8569 76.7859Z" fill="#303038"/>
<path d="M50.0006 76.7861C50.9868 76.7861 51.7863 77.5856 51.7863 78.5718C51.7863 79.558 50.9868 80.3575 50.0006 80.3575C49.0143 80.3575 48.2148 79.558 48.2148 78.5718C48.2148 77.5856 49.0143 76.7861 50.0006 76.7861Z" fill="#303038"/>
<path d="M57.142 76.7861C58.1283 76.7861 58.9277 77.5856 58.9277 78.5718C58.9277 79.558 58.1283 80.3575 57.142 80.3575C56.1558 80.3575 55.3563 79.558 55.3563 78.5718C55.3563 77.5856 56.1558 76.7861 57.142 76.7861Z" fill="#303038"/>
<path d="M60.714 76.7859C61.7003 76.7859 62.4997 77.5854 62.4997 78.5716C62.4997 79.5579 61.7003 80.3573 60.714 80.3573C59.7278 80.3573 58.9283 79.5579 58.9283 78.5716C58.9283 77.5854 59.7278 76.7859 60.714 76.7859Z" fill="#303038"/>
<path d="M64.2854 76.7859C65.2717 76.7859 66.0712 77.5854 66.0712 78.5716C66.0712 79.5579 65.2717 80.3573 64.2854 80.3573C63.2992 80.3573 62.4997 79.5579 62.4997 78.5716C62.4997 77.5854 63.2992 76.7859 64.2854 76.7859Z" fill="#303038"/>
<path d="M67.8569 76.7859C68.8431 76.7859 69.6426 77.5854 69.6426 78.5716C69.6426 79.5579 68.8431 80.3573 67.8569 80.3573C66.8706 80.3573 66.0711 79.5579 66.0711 78.5716C66.0711 77.5854 66.8706 76.7859 67.8569 76.7859Z" fill="#303038"/>
<path d="M71.4288 76.7861C72.4151 76.7861 73.2146 77.5856 73.2146 78.5718C73.2146 79.558 72.4151 80.3575 71.4288 80.3575C70.4426 80.3575 69.6431 79.558 69.6431 78.5718C69.6431 77.5856 70.4426 76.7861 71.4288 76.7861Z" fill="#303038"/>
<path d="M75.0006 76.7861C75.9868 76.7861 76.7863 77.5856 76.7863 78.5718C76.7863 79.558 75.9868 80.3575 75.0006 80.3575C74.0143 80.3575 73.2148 79.558 73.2148 78.5718C73.2148 77.5856 74.0143 76.7861 75.0006 76.7861Z" fill="#303038"/>
<path d="M78.5703 76.7861C79.5566 76.7861 80.356 77.5856 80.356 78.5718C80.356 79.558 79.5566 80.3575 78.5703 80.3575C77.5841 80.3575 76.7846 79.558 76.7846 78.5718C76.7846 77.5856 77.5841 76.7861 78.5703 76.7861Z" fill="#303038"/>
<path d="M82.142 76.7861C83.1283 76.7861 83.9277 77.5856 83.9277 78.5718C83.9277 79.558 83.1283 80.3575 82.142 80.3575C81.1558 80.3575 80.3563 79.558 80.3563 78.5718C80.3563 77.5856 81.1558 76.7861 82.142 76.7861Z" fill="#303038"/>
<path d="M85.714 76.7859C86.7003 76.7859 87.4997 77.5854 87.4997 78.5716C87.4997 79.5579 86.7003 80.3573 85.714 80.3573C84.7278 80.3573 83.9283 79.5579 83.9283 78.5716C83.9283 77.5854 84.7278 76.7859 85.714 76.7859Z" fill="#303038"/>
<path d="M92.8569 76.7859C93.8431 76.7859 94.6426 77.5854 94.6426 78.5716C94.6426 79.5579 93.8431 80.3573 92.8569 80.3573C91.8706 80.3573 91.0711 79.5579 91.0711 78.5716C91.0711 77.5854 91.8706 76.7859 92.8569 76.7859Z" fill="#303038"/>
<path d="M35.714 80.3573C36.7003 80.3573 37.4997 81.1568 37.4997 82.1431C37.4997 83.1293 36.7003 83.9288 35.714 83.9288C34.7278 83.9288 33.9283 83.1293 33.9283 82.1431C33.9283 81.1568 34.7278 80.3573 35.714 80.3573Z" fill="#303038"/>
<path d="M39.2854 80.3573C40.2717 80.3573 41.0712 81.1568 41.0712 82.1431C41.0712 83.1293 40.2717 83.9288 39.2854 83.9288C38.2992 83.9288 37.4997 83.1293 37.4997 82.1431C37.4997 81.1568 38.2992 80.3573 39.2854 80.3573Z" fill="#303038"/>
<path d="M60.714 80.3573C61.7003 80.3573 62.4997 81.1568 62.4997 82.1431C62.4997 83.1293 61.7003 83.9288 60.714 83.9288C59.7278 83.9288 58.9283 83.1293 58.9283 82.1431C58.9283 81.1568 59.7278 80.3573 60.714 80.3573Z" fill="#303038"/>
<path d="M64.2854 80.3573C65.2717 80.3573 66.0712 81.1568 66.0712 82.1431C66.0712 83.1293 65.2717 83.9288 64.2854 83.9288C63.2992 83.9288 62.4997 83.1293 62.4997 82.1431C62.4997 81.1568 63.2992 80.3573 64.2854 80.3573Z" fill="#303038"/>
<path d="M67.8569 80.3573C68.8431 80.3573 69.6426 81.1568 69.6426 82.1431C69.6426 83.1293 68.8431 83.9288 67.8569 83.9288C66.8706 83.9288 66.0711 83.1293 66.0711 82.1431C66.0711 81.1568 66.8706 80.3573 67.8569 80.3573Z" fill="#303038"/>
<path d="M71.4288 80.3578C72.4151 80.3578 73.2146 81.1573 73.2146 82.1435C73.2146 83.1297 72.4151 83.9292 71.4288 83.9292C70.4426 83.9292 69.6431 83.1297 69.6431 82.1435C69.6431 81.1573 70.4426 80.3578 71.4288 80.3578Z" fill="#303038"/>
<path d="M75.0006 80.3578C75.9868 80.3578 76.7863 81.1573 76.7863 82.1435C76.7863 83.1297 75.9868 83.9292 75.0006 83.9292C74.0143 83.9292 73.2148 83.1297 73.2148 82.1435C73.2148 81.1573 74.0143 80.3578 75.0006 80.3578Z" fill="#303038"/>
<path d="M85.714 80.3573C86.7003 80.3573 87.4997 81.1568 87.4997 82.1431C87.4997 83.1293 86.7003 83.9288 85.714 83.9288C84.7278 83.9288 83.9283 83.1293 83.9283 82.1431C83.9283 81.1568 84.7278 80.3573 85.714 80.3573Z" fill="#303038"/>
<path d="M89.2854 80.3573C90.2717 80.3573 91.0711 81.1568 91.0711 82.1431C91.0711 83.1293 90.2717 83.9288 89.2854 83.9288C88.2992 83.9288 87.4997 83.1293 87.4997 82.1431C87.4997 81.1568 88.2992 80.3573 89.2854 80.3573Z" fill="#303038"/>
<path d="M92.8569 80.3573C93.8431 80.3573 94.6426 81.1568 94.6426 82.1431C94.6426 83.1293 93.8431 83.9288 92.8569 83.9288C91.8706 83.9288 91.0711 83.1293 91.0711 82.1431C91.0711 81.1568 91.8706 80.3573 92.8569 80.3573Z" fill="#303038"/>
<path d="M35.714 83.9288C36.7003 83.9288 37.4997 84.7283 37.4997 85.7145C37.4997 86.7008 36.7003 87.5002 35.714 87.5002C34.7278 87.5002 33.9283 86.7008 33.9283 85.7145C33.9283 84.7283 34.7278 83.9288 35.714 83.9288Z" fill="#303038"/>
<path d="M39.2854 83.9288C40.2717 83.9288 41.0712 84.7283 41.0712 85.7145C41.0712 86.7008 40.2717 87.5002 39.2854 87.5002C38.2992 87.5002 37.4997 86.7008 37.4997 85.7145C37.4997 84.7283 38.2992 83.9288 39.2854 83.9288Z" fill="#303038"/>
<path d="M46.4288 83.9285C47.4151 83.9285 48.2146 84.728 48.2146 85.7142C48.2146 86.7005 47.4151 87.4999 46.4288 87.4999C45.4426 87.4999 44.6431 86.7005 44.6431 85.7142C44.6431 84.728 45.4426 83.9285 46.4288 83.9285Z" fill="#303038"/>
<path d="M50.0006 83.9285C50.9868 83.9285 51.7863 84.728 51.7863 85.7142C51.7863 86.7005 50.9868 87.4999 50.0006 87.4999C49.0143 87.4999 48.2148 86.7005 48.2148 85.7142C48.2148 84.728 49.0143 83.9285 50.0006 83.9285Z" fill="#303038"/>
<path d="M64.2854 83.9288C65.2717 83.9288 66.0712 84.7283 66.0712 85.7145C66.0712 86.7008 65.2717 87.5002 64.2854 87.5002C63.2992 87.5002 62.4997 86.7008 62.4997 85.7145C62.4997 84.7283 63.2992 83.9288 64.2854 83.9288Z" fill="#303038"/>
<path d="M67.8569 83.9288C68.8431 83.9288 69.6426 84.7283 69.6426 85.7145C69.6426 86.7008 68.8431 87.5002 67.8569 87.5002C66.8706 87.5002 66.0711 86.7008 66.0711 85.7145C66.0711 84.7283 66.8706 83.9288 67.8569 83.9288Z" fill="#303038"/>
<path d="M75.0006 83.9285C75.9868 83.9285 76.7863 84.728 76.7863 85.7142C76.7863 86.7005 75.9868 87.4999 75.0006 87.4999C74.0143 87.4999 73.2148 86.7005 73.2148 85.7142C73.2148 84.728 74.0143 83.9285 75.0006 83.9285Z" fill="#303038"/>
<path d="M85.714 83.9288C86.7003 83.9288 87.4997 84.7283 87.4997 85.7145C87.4997 86.7008 86.7003 87.5002 85.714 87.5002C84.7278 87.5002 83.9283 86.7008 83.9283 85.7145C83.9283 84.7283 84.7278 83.9288 85.714 83.9288Z" fill="#303038"/>
<path d="M92.8569 83.9288C93.8431 83.9288 94.6426 84.7283 94.6426 85.7145C94.6426 86.7008 93.8431 87.5002 92.8569 87.5002C91.8706 87.5002 91.0711 86.7008 91.0711 85.7145C91.0711 84.7283 91.8706 83.9288 92.8569 83.9288Z" fill="#303038"/>
<path d="M39.2854 87.5002C40.2717 87.5002 41.0712 88.2997 41.0712 89.2859C41.0712 90.2722 40.2717 91.0716 39.2854 91.0716C38.2992 91.0716 37.4997 90.2722 37.4997 89.2859C37.4997 88.2997 38.2992 87.5002 39.2854 87.5002Z" fill="#303038"/>
<path d="M46.4288 87.5002C47.4151 87.5002 48.2146 88.2997 48.2146 89.2859C48.2146 90.2722 47.4151 91.0716 46.4288 91.0716C45.4426 91.0716 44.6431 90.2722 44.6431 89.2859C44.6431 88.2997 45.4426 87.5002 46.4288 87.5002Z" fill="#303038"/>
<path d="M57.142 87.5002C58.1283 87.5002 58.9277 88.2997 58.9277 89.2859C58.9277 90.2722 58.1283 91.0716 57.142 91.0716C56.1558 91.0716 55.3563 90.2722 55.3563 89.2859C55.3563 88.2997 56.1558 87.5002 57.142 87.5002Z" fill="#303038"/>
<path d="M60.714 87.5002C61.7003 87.5002 62.4997 88.2997 62.4997 89.2859C62.4997 90.2722 61.7003 91.0716 60.714 91.0716C59.7278 91.0716 58.9283 90.2722 58.9283 89.2859C58.9283 88.2997 59.7278 87.5002 60.714 87.5002Z" fill="#303038"/>
<path d="M64.2854 87.5002C65.2717 87.5002 66.0712 88.2997 66.0712 89.2859C66.0712 90.2722 65.2717 91.0716 64.2854 91.0716C63.2992 91.0716 62.4997 90.2722 62.4997 89.2859C62.4997 88.2997 63.2992 87.5002 64.2854 87.5002Z" fill="#303038"/>
<path d="M75.0006 87.5002C75.9868 87.5002 76.7863 88.2997 76.7863 89.2859C76.7863 90.2722 75.9868 91.0716 75.0006 91.0716C74.0143 91.0716 73.2148 90.2722 73.2148 89.2859C73.2148 88.2997 74.0143 87.5002 75.0006 87.5002Z" fill="#303038"/>
<path d="M78.5703 87.5002C79.5566 87.5002 80.356 88.2997 80.356 89.2859C80.356 90.2722 79.5566 91.0716 78.5703 91.0716C77.5841 91.0716 76.7846 90.2722 76.7846 89.2859C76.7846 88.2997 77.5841 87.5002 78.5703 87.5002Z" fill="#303038"/>
<path d="M82.142 87.5002C83.1283 87.5002 83.9277 88.2997 83.9277 89.2859C83.9277 90.2722 83.1283 91.0716 82.142 91.0716C81.1558 91.0716 80.3563 90.2722 80.3563 89.2859C80.3563 88.2997 81.1558 87.5002 82.142 87.5002Z" fill="#303038"/>
<path d="M92.8569 87.5002C93.8431 87.5002 94.6426 88.2997 94.6426 89.2859C94.6426 90.2722 93.8431 91.0716 92.8569 91.0716C91.8706 91.0716 91.0711 90.2722 91.0711 89.2859C91.0711 88.2997 91.8706 87.5002 92.8569 87.5002Z" fill="#303038"/>
<path d="M35.714 91.0716C36.7003 91.0716 37.4997 91.8711 37.4997 92.8573C37.4997 93.8436 36.7003 94.6431 35.714 94.6431C34.7278 94.6431 33.9283 93.8436 33.9283 92.8573C33.9283 91.8711 34.7278 91.0716 35.714 91.0716Z" fill="#303038"/>
<path d="M39.2854 91.0716C40.2717 91.0716 41.0712 91.8711 41.0712 92.8573C41.0712 93.8436 40.2717 94.6431 39.2854 94.6431C38.2992 94.6431 37.4997 93.8436 37.4997 92.8573C37.4997 91.8711 38.2992 91.0716 39.2854 91.0716Z" fill="#303038"/>
<path d="M46.4288 91.0719C47.4151 91.0719 48.2146 91.8714 48.2146 92.8576C48.2146 93.8439 47.4151 94.6433 46.4288 94.6433C45.4426 94.6433 44.6431 93.8439 44.6431 92.8576C44.6431 91.8714 45.4426 91.0719 46.4288 91.0719Z" fill="#303038"/>
<path d="M60.714 91.0716C61.7003 91.0716 62.4997 91.8711 62.4997 92.8573C62.4997 93.8436 61.7003 94.6431 60.714 94.6431C59.7278 94.6431 58.9283 93.8436 58.9283 92.8573C58.9283 91.8711 59.7278 91.0716 60.714 91.0716Z" fill="#303038"/>
<path d="M71.4288 91.0719C72.4151 91.0719 73.2146 91.8714 73.2146 92.8576C73.2146 93.8439 72.4151 94.6433 71.4288 94.6433C70.4426 94.6433 69.6431 93.8439 69.6431 92.8576C69.6431 91.8714 70.4426 91.0719 71.4288 91.0719Z" fill="#303038"/>
<path d="M75.0006 91.0719C75.9868 91.0719 76.7863 91.8714 76.7863 92.8576C76.7863 93.8439 75.9868 94.6433 75.0006 94.6433C74.0143 94.6433 73.2148 93.8439 73.2148 92.8576C73.2148 91.8714 74.0143 91.0719 75.0006 91.0719Z" fill="#303038"/>
<path d="M78.5703 91.0719C79.5566 91.0719 80.356 91.8714 80.356 92.8576C80.356 93.8439 79.5566 94.6433 78.5703 94.6433C77.5841 94.6433 76.7846 93.8439 76.7846 92.8576C76.7846 91.8714 77.5841 91.0719 78.5703 91.0719Z" fill="#303038"/>
<path d="M82.142 91.0719C83.1283 91.0719 83.9277 91.8714 83.9277 92.8576C83.9277 93.8439 83.1283 94.6433 82.142 94.6433C81.1558 94.6433 80.3563 93.8439 80.3563 92.8576C80.3563 91.8714 81.1558 91.0719 82.142 91.0719Z" fill="#303038"/>
<path d="M85.714 91.0716C86.7003 91.0716 87.4997 91.8711 87.4997 92.8573C87.4997 93.8436 86.7003 94.6431 85.714 94.6431C84.7278 94.6431 83.9283 93.8436 83.9283 92.8573C83.9283 91.8711 84.7278 91.0716 85.714 91.0716Z" fill="#303038"/>
<path d="M89.2854 91.0716C90.2717 91.0716 91.0711 91.8711 91.0711 92.8573C91.0711 93.8436 90.2717 94.6431 89.2854 94.6431C88.2992 94.6431 87.4997 93.8436 87.4997 92.8573C87.4997 91.8711 88.2992 91.0716 89.2854 91.0716Z" fill="#303038"/>
<path d="M92.8569 91.0716C93.8431 91.0716 94.6426 91.8711 94.6426 92.8573C94.6426 93.8436 93.8431 94.6431 92.8569 94.6431C91.8706 94.6431 91.0711 93.8436 91.0711 92.8573C91.0711 91.8711 91.8706 91.0716 92.8569 91.0716Z" fill="#303038"/>
<path d="M21.8208 5.35909H13.8913C10.0268 5.35909 6.75277 7.91234 5.70602 11.4021C5.59777 11.7631 5.51327 12.1341 5.45452 12.5133C5.38977 12.9318 5.35602 13.3603 5.35602 13.7966V21.9143C5.35602 26.5691 9.18602 30.3543 13.8913 30.3543L17.856 30.3551L21.8208 30.3541C26.5258 30.3541 30.356 26.5688 30.356 21.9141V13.7966C30.356 9.14408 26.526 5.35909 21.8208 5.35909ZM26.606 21.9143C26.606 24.5003 24.4595 26.6043 21.8198 26.6043L17.856 26.6051L13.8923 26.6041C11.2525 26.6041 9.10602 24.5001 9.10602 21.9143V13.7966C9.10602 12.9888 9.31552 12.2283 9.68427 11.5638C10.0393 10.9246 10.5415 10.3748 11.1463 9.95859C11.9238 9.42334 12.8705 9.10909 13.891 9.10909H21.8208C24.4595 9.10909 26.606 11.2118 26.606 13.7966V21.9143Z" fill="#303038"/>
<path d="M86.1082 5.35909H78.1787C74.3142 5.35909 71.0402 7.91234 69.9934 11.4021C69.8852 11.7631 69.8007 12.1341 69.7419 12.5133C69.6772 12.9318 69.6434 13.3603 69.6434 13.7966V21.9143C69.6434 26.5691 73.4734 30.3543 78.1787 30.3543L82.1434 30.3551L86.1082 30.3541C90.8132 30.3541 94.6434 26.5688 94.6434 21.9141V13.7966C94.6434 9.14408 90.8134 5.35909 86.1082 5.35909ZM90.8934 21.9143C90.8934 24.5003 88.7469 26.6043 86.1072 26.6043L82.1434 26.6051L78.1797 26.6041C75.5399 26.6041 73.3934 24.5001 73.3934 21.9143V13.7966C73.3934 12.9888 73.6029 12.2283 73.9717 11.5638C74.3267 10.9246 74.8289 10.3748 75.4337 9.95859C76.2112 9.42334 77.1579 9.10908 78.1784 9.10908H86.1082C88.7469 9.10908 90.8934 11.2118 90.8934 13.7966V21.9143Z" fill="#303038"/>
<path d="M21.8208 69.645H13.8913C10.0268 69.645 6.75277 72.1983 5.70602 75.688C5.59777 76.049 5.51327 76.42 5.45452 76.7993C5.38977 77.2178 5.35602 77.6463 5.35602 78.0825V86.2003C5.35602 90.855 9.18602 94.6403 13.8913 94.6403L17.856 94.641L21.8208 94.64C26.5258 94.64 30.356 90.8548 30.356 86.2V78.0825C30.356 73.43 26.526 69.645 21.8208 69.645ZM26.606 86.2003C26.606 88.7863 24.4595 90.8903 21.8198 90.8903L17.856 90.891L13.8923 90.89C11.2525 90.89 9.10602 88.786 9.10602 86.2003V78.0825C9.10602 77.2748 9.31552 76.5143 9.68427 75.8498C10.0393 75.2105 10.5415 74.6608 11.1463 74.2445C11.9238 73.7093 12.8705 73.395 13.891 73.395H21.8208C24.4595 73.395 26.606 75.4978 26.606 78.0825V86.2003Z" fill="#303038"/>
<path d="M23.214 12.5002H12.4997V23.2145H23.214V12.5002Z" fill="#303038"/>
<path d="M87.4989 12.5002H76.7846V23.2145H87.4989V12.5002Z" fill="#303038"/>
<path d="M23.214 76.7859H12.4997V87.5002H23.214V76.7859Z" fill="#303038"/>
</svg>
