<svg width="15" height="15" viewBox="0 0 15 15" fill="none" xmlns="http://www.w3.org/2000/svg">
<path d="M7.5 15C5.81945 15 4.3125 14.5033 2.97917 13.51C1.64584 12.5167 0.750003 11.2217 0.291669 9.625C0.222225 9.375 0.246669 9.13889 0.365003 8.91667C0.483336 8.69444 0.667225 8.55555 0.916669 8.5C1.15278 8.44444 1.36472 8.49667 1.5525 8.65667C1.74028 8.81667 1.86861 9.01444 1.9375 9.25C2.29861 10.4722 2.99667 11.4583 4.03167 12.2083C5.06667 12.9583 6.22278 13.3333 7.5 13.3333C9.125 13.3333 10.5036 12.7672 11.6358 11.635C12.7681 10.5028 13.3339 9.12444 13.3333 7.5C13.3333 5.875 12.7672 4.49639 11.635 3.36417C10.5028 2.23194 9.12445 1.66611 7.5 1.66667C6.54167 1.66667 5.64583 1.88889 4.8125 2.33333C3.97917 2.77778 3.27778 3.38889 2.70834 4.16667H4.16667C4.40278 4.16667 4.60084 4.24667 4.76084 4.40667C4.92084 4.56667 5.00056 4.76444 5 5C5 5.23611 4.92 5.43417 4.76 5.59417C4.6 5.75417 4.40222 5.83389 4.16667 5.83333H0.833336C0.597225 5.83333 0.399169 5.75333 0.239169 5.59333C0.0791695 5.43333 -0.000552672 5.23556 2.88351e-06 5V1.66667C2.88351e-06 1.43056 0.080003 1.2325 0.240003 1.0725C0.400003 0.9125 0.597781 0.832778 0.833336 0.833333C1.06945 0.833333 1.2675 0.913333 1.4275 1.07333C1.5875 1.23333 1.66723 1.43111 1.66667 1.66667V2.79167C2.375 1.90278 3.23972 1.21528 4.26084 0.729167C5.28195 0.243056 6.36167 0 7.5 0C8.54167 0 9.5175 0.198056 10.4275 0.594167C11.3375 0.990278 12.1292 1.52472 12.8025 2.1975C13.4758 2.87139 14.0106 3.66306 14.4067 4.5725C14.8028 5.48194 15.0006 6.45778 15 7.5C15 8.54167 14.8019 9.5175 14.4058 10.4275C14.0097 11.3375 13.4753 12.1292 12.8025 12.8025C12.1286 13.4758 11.3369 14.0106 10.4275 14.4067C9.51806 14.8028 8.54222 15.0006 7.5 15Z" fill="url(#paint0_linear_689_8470)"/>
<defs>
<linearGradient id="paint0_linear_689_8470" x1="7.5" y1="0" x2="7.5" y2="15" gradientUnits="userSpaceOnUse">
<stop stop-color="#3A57EC"/>
<stop offset="1" stop-color="#7F6AFF"/>
</linearGradient>
</defs>
</svg>
