<svg width="12" height="7" viewBox="0 0 12 7" fill="none" xmlns="http://www.w3.org/2000/svg">
<path d="M1.125 1.675L5.725 6.275C5.825 6.375 5.93333 6.44567 6.05 6.487C6.16667 6.52833 6.29167 6.54933 6.425 6.55C6.55833 6.55 6.68333 6.529 6.8 6.487C6.91667 6.445 7.025 6.37433 7.125 6.275L11.725 1.675C11.9083 1.49167 12 1.25833 12 0.975001C12 0.691668 11.9083 0.458334 11.725 0.275001C11.5417 0.0916677 11.3083 4.46603e-07 11.025 4.34219e-07C10.7417 4.21834e-07 10.5083 0.0916676 10.325 0.275001L6.425 4.175L2.525 0.275001C2.34167 0.0916673 2.10833 4.44587e-08 1.825 3.20738e-08C1.54167 1.96889e-08 1.30833 0.0916672 1.125 0.275001C0.941668 0.458334 0.85 0.691667 0.85 0.975C0.85 1.25833 0.941668 1.49167 1.125 1.675Z" fill="black"/>
</svg>
