<svg width="15" height="9" viewBox="0 0 15 9" fill="none" xmlns="http://www.w3.org/2000/svg">
<path d="M0.296833 1.90838L6.94591 8.57724C7.02507 8.6564 7.11082 8.71234 7.20317 8.74505C7.29551 8.7783 7.39446 8.79492 7.5 8.79492C7.60554 8.79492 7.70449 8.7783 7.79683 8.74505C7.88918 8.71234 7.97493 8.6564 8.05409 8.57724L14.723 1.90838C14.9077 1.72368 15 1.49281 15 1.21577C15 0.938722 14.9011 0.701256 14.7032 0.503366C14.5053 0.305477 14.2744 0.206532 14.0106 0.206532C13.7467 0.206532 13.5158 0.305477 13.3179 0.503366L7.5 6.32131L1.68206 0.503366C1.49736 0.31867 1.26992 0.226321 0.999736 0.226321C0.729024 0.226321 0.494722 0.325266 0.296833 0.523155C0.0989448 0.721044 9.35269e-08 0.951915 9.03805e-08 1.21577C8.72341e-08 1.47962 0.0989447 1.71049 0.296833 1.90838Z" fill="#52525B"/>
</svg>
