<svg width="12" height="7" viewBox="0 0 12 7" fill="none" xmlns="http://www.w3.org/2000/svg">
<path d="M1.125 4.875L5.725 0.275C5.825 0.175 5.93333 0.104333 6.05 0.063C6.16667 0.0216666 6.29167 0.000666916 6.425 2.43691e-07C6.55833 2.37863e-07 6.68333 0.021 6.8 0.063C6.91667 0.105 7.025 0.175667 7.125 0.275L11.725 4.875C11.9083 5.05833 12 5.29167 12 5.575C12 5.85833 11.9083 6.09167 11.725 6.275C11.5417 6.45833 11.3083 6.55 11.025 6.55C10.7417 6.55 10.5083 6.45833 10.325 6.275L6.425 2.375L2.525 6.275C2.34167 6.45833 2.10833 6.55 1.825 6.55C1.54167 6.55 1.30833 6.45833 1.125 6.275C0.941668 6.09167 0.85 5.85833 0.85 5.575C0.85 5.29167 0.941668 5.05833 1.125 4.875Z" fill="black"/>
</svg>
