<svg width="15" height="15" viewBox="0 0 15 15" fill="none" xmlns="http://www.w3.org/2000/svg">
<path d="M4.19775 8.29883C4.16284 8.26123 4.13159 8.22095 4.10474 8.17908C4.07776 8.13696 4.0542 8.09192 4.03479 8.04517C3.96997 7.89075 3.95239 7.724 3.97974 7.56494C4.00708 7.40698 4.07886 7.25598 4.19263 7.13184L4.23413 7.08911C4.51404 6.82239 4.9386 6.77271 5.27161 6.97302C5.31921 7.00146 5.36462 7.03528 5.40698 7.07397L5.41113 7.07776C5.64685 7.30383 6.04565 7.67358 6.3075 7.90662L6.53223 8.10815L9.28271 5.22302C9.32141 5.18311 9.36401 5.14734 9.40906 5.11609C9.4552 5.08423 9.50366 5.05725 9.55371 5.0354C9.60425 5.01331 9.65771 4.99597 9.7124 4.98401C9.76697 4.97192 9.82263 4.96509 9.87793 4.96387H9.8811C9.93616 4.96326 9.99011 4.96716 10.0448 4.97644C10.0981 4.98547 10.1517 5 10.2075 5.02148C10.2589 5.04114 10.3082 5.0658 10.3549 5.09521C10.3994 5.12341 10.4429 5.15698 10.4838 5.19556L10.5035 5.2135C10.5421 5.25171 10.5769 5.29321 10.6073 5.33728C10.6385 5.38232 10.6653 5.43079 10.6869 5.48108C10.7092 5.53162 10.7266 5.58508 10.7386 5.63965C10.7509 5.69324 10.7574 5.7489 10.7588 5.80566V5.83374C10.7583 5.88245 10.7537 5.93188 10.7449 5.98071C10.7352 6.03381 10.7207 6.08606 10.7014 6.13586C10.6819 6.18689 10.6569 6.23657 10.6273 6.28357C10.5983 6.32959 10.5641 6.37378 10.5258 6.41418L7.20312 9.90051C7.16406 9.94226 7.12219 9.97888 7.07837 10.0101C7.03333 10.0424 6.98474 10.0701 6.93396 10.0933C6.88306 10.1162 6.83008 10.1344 6.77673 10.147C6.72363 10.1597 6.66821 10.1672 6.61194 10.1698L6.59668 10.1702C6.54504 10.1713 6.49414 10.1682 6.44519 10.1606L6.43274 10.1582C6.38208 10.1497 6.33276 10.137 6.28564 10.1204C6.23425 10.1021 6.18396 10.0785 6.13599 10.0502L6.1283 10.0453C6.08301 10.0179 6.04077 9.98706 6.00232 9.95325L5.99463 9.94592C5.80176 9.76697 5.59216 9.58484 5.38025 9.40076C5.01318 9.08179 4.50403 8.6217 4.19885 8.29968L4.19775 8.29883ZM7.5 0C9.57031 0 11.4463 0.84021 12.8043 2.19568C14.1598 3.55371 14.9999 5.42969 14.9999 7.5C14.9999 9.57043 14.1597 11.4464 12.8043 12.8044C11.4464 14.1599 9.57031 15 7.5 15C5.42957 15 3.55359 14.1599 2.19556 12.8044C0.840088 11.4464 0 9.57031 0 7.49988C0 5.42969 0.840088 3.55371 2.19556 2.19568C3.55371 0.84021 5.42957 0 7.5 0ZM11.8285 3.17151C10.7209 2.06384 9.19067 1.37891 7.5 1.37891C5.8092 1.37891 4.27893 2.06384 3.17139 3.17151C2.06384 4.27905 1.37891 5.80933 1.37891 7.49988C1.37891 9.19067 2.06384 10.7209 3.17139 11.8285C4.27893 12.936 5.8092 13.6211 7.5 13.6211C9.19067 13.6211 10.7209 12.9362 11.8285 11.8285C12.936 10.7208 13.621 9.19067 13.621 7.49988C13.621 5.80933 12.9362 4.27905 11.8285 3.17151Z" fill="url(#paint0_linear_689_8460)"/>
<defs>
<linearGradient id="paint0_linear_689_8460" x1="7.49994" y1="0" x2="7.49994" y2="15" gradientUnits="userSpaceOnUse">
<stop stop-color="#3A57EC"/>
<stop offset="1" stop-color="#7F6AFF"/>
</linearGradient>
</defs>
</svg>
