<svg width="20" height="20" viewBox="0 0 20 20" fill="none" xmlns="http://www.w3.org/2000/svg">
<path fill-rule="evenodd" clip-rule="evenodd" d="M10 0C15.5235 0 20 4.47649 20 10C20 15.5235 15.5235 20 10 20C4.47649 20 0 15.5235 0 10C0 4.47649 4.47649 0 10 0ZM11.9558 6.37298C12.4022 5.91861 13.1292 5.91466 13.5796 6.36902C14.03 6.81944 14.03 7.55433 13.5836 8.00869L11.6199 10L13.5836 11.9953C14.0261 12.4457 14.0221 13.1766 13.5717 13.627C13.1213 14.0774 12.3943 14.0774 11.9518 13.6231L10 11.6436L8.04425 13.627C7.59779 14.0814 6.8708 14.0853 6.42039 13.631C5.96997 13.1806 5.96997 12.4457 6.41644 11.9913L8.38009 10L6.41248 8.00474C5.96997 7.55433 5.97392 6.82339 6.42434 6.37298C6.87475 5.92256 7.60174 5.92256 8.04425 6.37693L9.99605 8.35638L11.9558 6.37298Z" fill="url(#paint0_linear_252_193549)"/>
<defs>
<linearGradient id="paint0_linear_252_193549" x1="10" y1="0" x2="10" y2="20" gradientUnits="userSpaceOnUse">
<stop stop-color="#3A57EC"/>
<stop offset="1" stop-color="#7F6AFF"/>
</linearGradient>
</defs>
</svg>
