<svg width="20" height="20" viewBox="0 0 20 20" fill="none" xmlns="http://www.w3.org/2000/svg">
<path fill-rule="evenodd" clip-rule="evenodd" d="M0.264903 15.9491L6.21404 10L0.264903 4.05086C-0.0883011 3.69766 -0.0883011 3.11821 0.264903 2.76501L2.765 0.264903C3.11821 -0.0883011 3.69766 -0.0883011 4.05086 0.264903L10 6.21404L15.9491 0.264903C16.3023 -0.0883011 16.8818 -0.0883011 17.235 0.264903L19.7351 2.76501C20.0883 3.11821 20.0883 3.69766 19.7351 4.05086L13.786 10L19.7351 15.9491C20.0883 16.3023 20.0883 16.8818 19.7351 17.235L17.235 19.7351C16.8818 20.0883 16.3023 20.0883 15.9491 19.7351L10 13.786L4.05086 19.7351C3.69766 20.0883 3.11821 20.0883 2.765 19.7351L0.264903 17.235C-0.0883011 16.8818 -0.0883011 16.3023 0.264903 15.9491Z" fill="white"/>
</svg>
