<svg width="20" height="20" viewBox="0 0 20 20" fill="none" xmlns="http://www.w3.org/2000/svg">
<path d="M10 0C4.47 0 0 4.5 0 10C0 15.5 4.5 20 10 20C15.5 20 20 15.5 20 10C20 4.5 15.5 0 10 0ZM14 13.44C14 13.78 13.78 14 13.44 14H6.56C6.22 14 6 13.78 6 13.44V13H14V13.44ZM14 12H6L5 6L8 8L10 5L12 8L15 6L14 12Z" fill="url(#paint0_linear_531_77082)"/>
<defs>
<linearGradient id="paint0_linear_531_77082" x1="10" y1="0" x2="10" y2="20" gradientUnits="userSpaceOnUse">
<stop stop-color="#3A57EC"/>
<stop offset="1" stop-color="#7F6AFF"/>
</linearGradient>
</defs>
</svg>
