<svg width="60" height="60" viewBox="0 0 60 60" fill="none" xmlns="http://www.w3.org/2000/svg">
<rect width="60" height="60" rx="30" fill="#3B5998"/>
<path d="M46.4004 30.498C46.4004 21.6071 39.2373 14.4 30.4024 14.4C21.5635 14.402 14.4004 21.6071 14.4004 30.5C14.4004 38.533 20.2517 45.1921 27.8987 46.4V35.1514H23.8392V30.5H27.9027V26.9504C27.9027 22.9169 30.2924 20.6892 33.9459 20.6892C35.6977 20.6892 37.5275 21.0032 37.5275 21.0032V24.9627H35.5098C33.524 24.9627 32.9041 26.2045 32.9041 27.4784V30.498H37.3395L36.6316 35.1494H32.9021V46.398C40.5491 45.1901 46.4004 38.531 46.4004 30.498Z" fill="white"/>
</svg>
