<svg width="50" height="50" viewBox="0 0 50 50" fill="none" xmlns="http://www.w3.org/2000/svg">
<rect x="0.5" y="0.5" width="49" height="49" rx="4.5" stroke="#303038"/>
<g clip-path="url(#clip0_0_2490)">
<path fill-rule="evenodd" clip-rule="evenodd" d="M32.1525 16.6236C32.7736 16.6236 33.3808 16.806 33.8973 17.1476C34.4137 17.4892 34.8162 17.9747 35.0539 18.5428C35.2916 19.1109 35.3538 19.736 35.2326 20.3391C35.1115 20.9421 34.8123 21.4961 34.3731 21.9309C33.9339 22.3657 33.3744 22.6618 32.7652 22.7817C32.156 22.9017 31.5245 22.8401 30.9507 22.6048C30.3769 22.3695 29.8864 21.971 29.5413 21.4598C29.1962 20.9485 29.012 20.3474 29.012 19.7326C29.012 19.3243 29.0933 18.92 29.2511 18.5428C29.4089 18.1656 29.6402 17.8229 29.9319 17.5342C30.2235 17.2455 30.5697 17.0165 30.9507 16.8603C31.3317 16.7041 31.7401 16.6236 32.1525 16.6236ZM39.7145 37H10.2855C9.6796 36.9974 9.09948 36.7571 8.67236 36.3317C8.45971 36.1223 8.29086 35.8735 8.17548 35.5995C8.06011 35.3255 8.00048 35.0316 8 34.7347V14.2625C8.0001 13.6625 8.24096 13.0871 8.6696 12.6629C9.09813 12.2385 9.67937 12.0001 10.2855 12H39.7145C40.3201 12.0016 40.9002 12.2409 41.3276 12.6656C41.7563 13.0898 41.9971 13.6652 41.9972 14.2653V34.7347C41.9971 35.0314 41.9379 35.3252 41.823 35.5992C41.7081 35.8732 41.5398 36.1221 41.3276 36.3317C40.9005 36.7571 40.3204 36.9974 39.7145 37ZM37.6808 34.417L32.2383 25.8216C32.1256 25.6445 31.9695 25.4986 31.7844 25.3974C31.5993 25.2963 31.3913 25.2432 31.1799 25.2432C30.9685 25.2432 30.7606 25.2963 30.5755 25.3974C30.3904 25.4986 30.2342 25.6445 30.1216 25.8216L27.5511 29.9111L30.3485 34.417H29.2002L21.5718 22.3649C20.869 21.4363 19.7428 21.5075 19.1147 22.3649L11.644 34.417H10.6064V14.5803H39.3825V34.417H37.6808Z" fill="#303038"/>
</g>
<defs>
<clipPath id="clip0_0_2490">
<rect width="34" height="25" fill="white" transform="translate(8 12)"/>
</clipPath>
</defs>
</svg>
