<svg width="60" height="60" viewBox="0 0 60 60" fill="none" xmlns="http://www.w3.org/2000/svg">
<rect width="60" height="60" rx="30" fill="url(#paint0_radial_0_1604)"/>
<mask id="mask0_0_1604" style="mask-type:alpha" maskUnits="userSpaceOnUse" x="0" y="0" width="60" height="60">
<rect width="60" height="60" rx="30" fill="url(#paint1_radial_0_1604)"/>
</mask>
<g mask="url(#mask0_0_1604)">
<path d="M30.0098 0C17.4851 0 13.8221 0.0129206 13.11 0.0719865C10.5398 0.285639 8.94037 0.690332 7.19793 1.55786C5.8551 2.22466 4.79607 2.99759 3.75088 4.08108C1.8474 6.05701 0.693767 8.48794 0.276153 11.3776C0.0731145 12.7804 0.0140486 13.0665 0.0020509 20.2319C-0.00256362 22.6204 0.0020509 25.7638 0.0020509 29.9801C0.0020509 42.4946 0.0158944 46.1539 0.0758832 46.8646C0.283536 49.3656 0.67577 50.9392 1.50638 52.6604C3.09378 55.9552 6.12551 58.4286 9.69715 59.3515C10.9338 59.6699 12.2997 59.8452 14.0533 59.9283C14.7962 59.9606 22.3686 59.9836 29.9456 59.9836C37.5227 59.9836 45.0997 59.9744 45.8242 59.9375C47.8546 59.842 49.0336 59.6837 50.3372 59.3468C53.9319 58.4193 56.9083 55.9829 58.528 52.642C59.3424 50.9623 59.7554 49.3287 59.9423 46.9582C59.9829 46.4414 60 38.2013 60 29.9722C60 21.7418 59.9815 13.5168 59.9409 13C59.7517 10.5912 59.3387 8.97154 58.498 7.25956C57.8081 5.85813 57.0421 4.81156 55.93 3.74145C53.9453 1.84581 51.5181 0.692178 48.6257 0.275025C47.2242 0.0724479 46.9451 0.0124592 39.7741 0H30.0098Z" fill="url(#paint2_radial_0_1604)"/>
</g>
<path d="M30.4019 13.6C26.0565 13.6 25.5112 13.619 23.8045 13.6967C22.1011 13.7747 20.9385 14.0443 19.9211 14.44C18.8688 14.8487 17.9761 15.3954 17.0868 16.285C16.1967 17.1744 15.6501 18.0671 15.2401 19.1191C14.8434 20.1367 14.5734 21.2998 14.4967 23.0024C14.4204 24.7091 14.4004 25.2548 14.4004 29.6002C14.4004 33.9456 14.4197 34.4892 14.4971 36.1959C14.5754 37.8993 14.8451 39.0619 15.2404 40.0793C15.6494 41.1316 16.1961 42.0243 17.0858 42.9136C17.9748 43.8037 18.8674 44.3517 19.9191 44.7603C20.9371 45.156 22.1001 45.4257 23.8032 45.5037C25.5098 45.5813 26.0548 45.6003 30.3999 45.6003C34.7456 45.6003 35.2893 45.5813 36.996 45.5037C38.6993 45.4257 39.8633 45.156 40.8813 44.7603C41.9333 44.3517 42.8247 43.8037 43.7137 42.9136C44.6037 42.0243 45.1504 41.1316 45.5604 40.0796C45.9537 39.0619 46.2237 37.8989 46.3037 36.1962C46.3804 34.4896 46.4004 33.9456 46.4004 29.6002C46.4004 25.2548 46.3804 24.7095 46.3037 23.0028C46.2237 21.2994 45.9537 20.1367 45.5604 19.1194C45.1504 18.0671 44.6037 17.1744 43.7137 16.285C42.8237 15.395 41.9337 14.8484 40.8803 14.44C39.8603 14.0443 38.697 13.7747 36.9936 13.6967C35.2869 13.619 34.7436 13.6 30.3969 13.6H30.4019ZM28.9665 16.4834C29.3925 16.4827 29.8679 16.4834 30.4019 16.4834C34.6739 16.4834 35.1803 16.4987 36.8673 16.5754C38.4273 16.6467 39.274 16.9074 39.838 17.1264C40.5847 17.4164 41.117 17.763 41.6767 18.3231C42.2367 18.8831 42.5833 19.4164 42.874 20.1631C43.093 20.7264 43.354 21.5731 43.425 23.1331C43.5017 24.8198 43.5184 25.3265 43.5184 29.5965C43.5184 33.8665 43.5017 34.3732 43.425 36.0599C43.3537 37.6199 43.093 38.4666 42.874 39.0299C42.584 39.7766 42.2367 40.3083 41.6767 40.868C41.1167 41.428 40.585 41.7746 39.838 42.0646C39.2746 42.2846 38.4273 42.5446 36.8673 42.616C35.1806 42.6926 34.6739 42.7093 30.4019 42.7093C26.1295 42.7093 25.6232 42.6926 23.9365 42.616C22.3765 42.544 21.5298 42.2833 20.9655 42.0643C20.2188 41.7743 19.6854 41.4276 19.1254 40.8676C18.5654 40.3076 18.2188 39.7756 17.9281 39.0286C17.7091 38.4653 17.4481 37.6186 17.3771 36.0586C17.3004 34.3719 17.2851 33.8652 17.2851 29.5925C17.2851 25.3198 17.3004 24.8158 17.3771 23.1291C17.4484 21.5691 17.7091 20.7224 17.9281 20.1584C18.2181 19.4117 18.5654 18.8784 19.1254 18.3184C19.6854 17.7584 20.2188 17.4117 20.9655 17.121C21.5295 16.901 22.3765 16.641 23.9365 16.5694C25.4125 16.5027 25.9845 16.4827 28.9665 16.4794V16.4834ZM38.9426 19.1401C37.8826 19.1401 37.0226 19.9991 37.0226 21.0594C37.0226 22.1194 37.8826 22.9794 38.9426 22.9794C40.0027 22.9794 40.8627 22.1194 40.8627 21.0594C40.8627 19.9994 40.0027 19.1394 38.9426 19.1394V19.1401ZM30.4019 21.3834C25.8642 21.3834 22.1851 25.0625 22.1851 29.6002C22.1851 34.1379 25.8642 37.8153 30.4019 37.8153C34.9396 37.8153 38.6173 34.1379 38.6173 29.6002C38.6173 25.0625 34.9396 21.3834 30.4019 21.3834ZM30.4019 24.2668C33.3473 24.2668 35.7353 26.6545 35.7353 29.6002C35.7353 32.5455 33.3473 34.9336 30.4019 34.9336C27.4562 34.9336 25.0685 32.5455 25.0685 29.6002C25.0685 26.6545 27.4562 24.2668 30.4019 24.2668Z" fill="white"/>
<defs>
<radialGradient id="paint0_radial_0_1604" cx="0" cy="0" r="1" gradientUnits="userSpaceOnUse" gradientTransform="translate(15.9376 64.6213) rotate(-90) scale(59.4644 55.3066)">
<stop stop-color="#FFDD55"/>
<stop offset="0.1" stop-color="#FFDD55"/>
<stop offset="0.5" stop-color="#FF543E"/>
<stop offset="1" stop-color="#C837AB"/>
</radialGradient>
<radialGradient id="paint1_radial_0_1604" cx="0" cy="0" r="1" gradientUnits="userSpaceOnUse" gradientTransform="translate(15.9376 64.6213) rotate(-90) scale(59.4644 55.3066)">
<stop stop-color="#FFDD55"/>
<stop offset="0.1" stop-color="#FFDD55"/>
<stop offset="0.5" stop-color="#FF543E"/>
<stop offset="1" stop-color="#C837AB"/>
</radialGradient>
<radialGradient id="paint2_radial_0_1604" cx="0" cy="0" r="1" gradientUnits="userSpaceOnUse" gradientTransform="translate(-10.0503 4.32112) rotate(78.6776) scale(26.5739 109.566)">
<stop stop-color="#3771C8"/>
<stop offset="0.128" stop-color="#3771C8"/>
<stop offset="1" stop-color="#6600FF" stop-opacity="0"/>
</radialGradient>
</defs>
</svg>
