<svg width="60" height="60" viewBox="0 0 60 60" fill="none" xmlns="http://www.w3.org/2000/svg">
<rect width="60" height="60" rx="30" fill="#C8353D"/>
<mask id="mask0_0_1610" style="mask-type:luminance" maskUnits="userSpaceOnUse" x="14" y="14" width="33" height="33">
<path d="M14.4004 14.4H46.4004V46.4H14.4004V14.4Z" fill="white"/>
</mask>
<g mask="url(#mask0_0_1610)">
<mask id="mask1_0_1610" style="mask-type:luminance" maskUnits="userSpaceOnUse" x="14" y="14" width="33" height="33">
<path d="M14.4004 14.4H46.4004V46.4H14.4004V14.4Z" fill="white"/>
</mask>
<g mask="url(#mask1_0_1610)">
<path d="M14.4004 30.4C14.4004 37.2307 18.6817 43.0627 24.7071 45.3573C24.5604 44.108 24.4044 42.048 24.7404 40.6027C25.0297 39.36 26.6084 32.6853 26.6084 32.6853C26.6084 32.6853 26.1324 31.732 26.1324 30.32C26.1324 28.1067 27.4151 26.4533 29.0137 26.4533C30.3737 26.4533 31.0297 27.4733 31.0297 28.696C31.0297 30.0627 30.1591 32.1053 29.7097 34C29.3351 35.5853 30.5057 36.8787 32.0684 36.8787C34.8991 36.8787 37.0764 33.8933 37.0764 29.584C37.0764 25.7693 34.3351 23.104 30.4217 23.104C25.8911 23.104 23.2311 26.5027 23.2311 30.016C23.2311 31.3853 23.7577 32.852 24.4164 33.6507C24.4725 33.711 24.5122 33.7847 24.5316 33.8648C24.551 33.9449 24.5494 34.0287 24.5271 34.108C24.4057 34.612 24.1364 35.6933 24.0844 35.9147C24.0137 36.2053 23.8537 36.268 23.5511 36.1267C21.5617 35.2013 20.3191 32.2933 20.3191 29.9573C20.3191 24.932 23.9684 20.3187 30.8417 20.3187C36.3671 20.3187 40.6617 24.256 40.6617 29.5173C40.6617 35.0067 37.2017 39.4253 32.3964 39.4253C30.7817 39.4253 29.2657 38.5853 28.7457 37.5947C28.7457 37.5947 27.9471 40.6373 27.7537 41.3813C27.3777 42.8267 26.3351 44.656 25.6884 45.6947C27.1791 46.1533 28.7604 46.4 30.4004 46.4C39.2364 46.4 46.4004 39.236 46.4004 30.4C46.4004 21.564 39.2364 14.4 30.4004 14.4C21.5644 14.4 14.4004 21.564 14.4004 30.4Z" fill="white"/>
</g>
</g>
</svg>
