<svg width="22" height="22" viewBox="0 0 22 22" fill="none" xmlns="http://www.w3.org/2000/svg">
<path d="M17.775 3.555C20.2279 5.9724 21.1523 9.34965 20.5716 12.5017C21.0574 13.3549 21.33 14.3503 21.33 15.405C21.33 16.9764 20.7058 18.4835 19.5946 19.5946C18.4835 20.7058 16.9764 21.33 15.405 21.33C14.3503 21.33 13.3549 21.0574 12.5017 20.5716C9.34965 21.1523 5.9724 20.2279 3.555 17.775C1.10205 15.3576 0.17775 11.9803 0.7584 8.82825C0.27255 7.97505 0 6.97965 0 5.925C0 4.35359 0.624239 2.84655 1.73539 1.73539C2.84655 0.624239 4.35359 0 5.925 0C6.97965 0 7.97505 0.27255 8.82825 0.7584C11.9803 0.17775 15.3576 1.10205 17.775 3.555ZM10.7124 16.7796C14.1133 16.7796 15.8079 15.1443 15.8079 12.9402C15.8079 11.53 15.1443 10.0251 12.5728 9.44445L10.2147 8.92305C9.3141 8.7216 8.295 8.44905 8.295 7.6077C8.295 6.7545 9.006 6.162 10.3095 6.162C12.952 6.162 12.7032 7.97505 14.0185 7.97505C14.7058 7.97505 15.2983 7.57215 15.2983 6.873C15.2983 5.24955 12.7032 4.029 10.4991 4.029C8.11725 4.029 5.5695 5.0481 5.5695 7.7499C5.5695 9.0534 6.03165 10.4398 8.59125 11.0798L11.7789 11.8855C12.7387 12.1225 12.9757 12.6558 12.9757 13.1535C12.9757 13.9593 12.1699 14.7532 10.7124 14.7532C7.85655 14.7532 8.2476 12.561 6.71895 12.561C6.03165 12.561 5.53395 13.035 5.53395 13.7104C5.53395 15.0258 7.11 16.7796 10.7124 16.7796Z" fill="url(#paint0_linear_386_107673)"/>
<defs>
<linearGradient id="paint0_linear_386_107673" x1="10.665" y1="0" x2="10.665" y2="21.33" gradientUnits="userSpaceOnUse">
<stop stop-color="#3A57EC"/>
<stop offset="1" stop-color="#7F6AFF"/>
</linearGradient>
</defs>
</svg>
