<svg width="25" height="18" viewBox="0 0 25 18" fill="none" xmlns="http://www.w3.org/2000/svg">
<path d="M24.4726 2.732C24.3303 2.20349 24.0517 1.72161 23.6647 1.3346C23.2777 0.94759 22.7958 0.669015 22.2673 0.526758C20.321 1.74623e-07 12.5 0 12.5 0C12.5 0 4.67899 1.74623e-07 2.73267 0.526758C2.20416 0.669015 1.72229 0.94759 1.33527 1.3346C0.948262 1.72161 0.669686 2.20349 0.527429 2.732C0.164007 4.71695 -0.0123516 6.73162 0.000671781 8.74953C-0.0123516 10.7674 0.164007 12.7821 0.527429 14.7671C0.669686 15.2956 0.948262 15.7774 1.33527 16.1645C1.72229 16.5515 2.20416 16.83 2.73267 16.9723C4.67899 17.4991 12.5 17.4991 12.5 17.4991C12.5 17.4991 20.321 17.4991 22.2673 16.9723C22.7958 16.83 23.2777 16.5515 23.6647 16.1645C24.0517 15.7774 24.3303 15.2956 24.4726 14.7671C24.836 12.7821 25.0124 10.7674 24.9993 8.74953C25.0124 6.73162 24.836 4.71695 24.4726 2.732ZM10.0001 12.4993V4.99973L16.4909 8.74953L10.0001 12.4993Z" fill="url(#paint0_linear_386_107660)"/>
<defs>
<linearGradient id="paint0_linear_386_107660" x1="12.5" y1="0" x2="12.5" y2="17.4991" gradientUnits="userSpaceOnUse">
<stop stop-color="#3A57EC"/>
<stop offset="1" stop-color="#7F6AFF"/>
</linearGradient>
</defs>
</svg>
