<svg width="60" height="60" viewBox="0 0 60 60" fill="none" xmlns="http://www.w3.org/2000/svg">
<rect width="60" height="60" rx="30" fill="#DD472E"/>
<path d="M45.7253 22.697C45.5432 22.0205 45.1866 21.4037 44.6912 20.9083C44.1959 20.4129 43.5791 20.0563 42.9026 19.8742C40.4113 19.2 30.4004 19.2 30.4004 19.2C30.4004 19.2 20.3895 19.2 17.8982 19.8742C17.2217 20.0563 16.6049 20.4129 16.1095 20.9083C15.6142 21.4037 15.2576 22.0205 15.0755 22.697C14.6103 25.2377 14.3846 27.8165 14.4013 30.3994C14.3846 32.9823 14.6103 35.5611 15.0755 38.1018C15.2576 38.7783 15.6142 39.3951 16.1095 39.8905C16.6049 40.3859 17.2217 40.7425 17.8982 40.9245C20.3895 41.5988 30.4004 41.5988 30.4004 41.5988C30.4004 41.5988 40.4113 41.5988 42.9026 40.9245C43.5791 40.7425 44.1959 40.3859 44.6912 39.8905C45.1866 39.3951 45.5432 38.7783 45.7253 38.1018C46.1905 35.5611 46.4162 32.9823 46.3995 30.3994C46.4162 27.8165 46.1905 25.2377 45.7253 22.697ZM27.2006 35.1991V25.5997L35.5087 30.3994L27.2006 35.1991Z" fill="white"/>
</svg>
